<svg xmlns="http://www.w3.org/2000/svg" width="319" height="323.567" viewBox="0 0 319 323.567">
  <g id="Mobile_encryption-pana" data-name="Mobile encryption-pana" transform="translate(-39.719 -52.624)">
    <g id="freepik--background-simple--inject-234" transform="translate(39.719 52.624)">
      <path id="Path_8549" data-name="Path 8549" d="M345.2,96.66,343.277,93.5c-16.152-26.619-45.362-42.67-76.158-40.721A79.848,79.848,0,0,0,255.33,54.4c-28,6-52.355,27.137-62.458,54.282-5.933,15.951-7.6,34.308-18.867,46.964-14.7,16.477-39.568,17.019-61.46,16.315s-46.809-.1-61.406,16.438c-9.144,10.358-12.045,25.087-11.31,38.957,1.949,36.729,27.547,69.567,60.091,85.867s70.859,17.792,106.482,10.606c49.9-10.056,97.346-37.681,125.868-80.343S368.016,142.711,345.2,96.66Z" transform="translate(-39.719 -52.624)" fill="#f5f5f5"/>
      <circle id="Ellipse_486" data-name="Ellipse 486" cx="33.619" cy="33.619" r="33.619" transform="translate(13.801 3.478)" fill="#f5f5f5"/>
    </g>
    <g id="freepik--Floor--inject-234" transform="translate(45.924 372.71)">
      <path id="Path_8550" data-name="Path 8550" d="M354.33,466.6c0,.108-68.639.2-153.283.2s-153.307-.093-153.307-.2,68.624-.2,153.307-.2S354.33,466.485,354.33,466.6Z" transform="translate(-47.74 -466.4)" fill="#263238"/>
    </g>
    <g id="freepik--Padlock--inject-234" transform="translate(102.228 144.026)">
      <path id="Path_8551" data-name="Path 8551" d="M248.968,252.284h-9.329V201.676a21.6,21.6,0,1,0-43.2,0v50.607H187.16V201.676a30.9,30.9,0,1,1,61.793,0Z" transform="translate(-135.613 -170.78)" fill="#9676ff"/>
      <g id="Group_2469" data-name="Group 2469" transform="translate(51.547)" opacity="0.4">
        <path id="Path_8552" data-name="Path 8552" d="M248.968,252.284h-9.329V201.676a21.6,21.6,0,1,0-43.2,0v50.607H187.16V201.676a30.9,30.9,0,1,1,61.793,0Z" transform="translate(-187.16 -170.78)"/>
      </g>
      <rect id="Rectangle_3368" data-name="Rectangle 3368" width="83.283" height="53.431" rx="5.81" transform="translate(40.817 58.993)" fill="#9676ff"/>
      <g id="Group_2470" data-name="Group 2470" transform="translate(75.496 71.751)" opacity="0.5">
        <path id="Path_8553" data-name="Path 8553" d="M232.044,270.531a6.962,6.962,0,1,0-8.865,6.66V287.6h3.8V277.192A6.962,6.962,0,0,0,232.044,270.531Z" transform="translate(-218.119 -263.532)"/>
      </g>
      <path id="Path_8554" data-name="Path 8554" d="M178.9,297.91c-.186,0-.34-8.912-.34-19.9s.155-19.9.34-19.9.348,8.912.348,19.9S179.117,297.91,178.9,297.91Z" transform="translate(-133.666 -190.554)" fill="#fafafa"/>
      <path id="Path_8555" data-name="Path 8555" d="M218.739,278.889c0,.039-.325-.108-.774-.464a8.333,8.333,0,0,1-1.795-1.826,9.747,9.747,0,0,1,3.466-14.636,8.64,8.64,0,0,1,2.421-.835,2.235,2.235,0,0,1,.936-.046,21.912,21.912,0,0,0-3.094,1.307,9.646,9.646,0,0,0-3.3,13.924A21.664,21.664,0,0,0,218.739,278.889Z" transform="translate(-141.733 -191.22)" fill="#fafafa"/>
      <path id="Path_8556" data-name="Path 8556" d="M263.115,309.172l.557-.774.317-.418c.108-.155.2-.348.317-.542a8.611,8.611,0,0,0,.7-1.416c.116-.278.248-.572.356-.89s.186-.658.278-1.021a7.026,7.026,0,0,0,.24-1.137,10.2,10.2,0,0,0,.17-1.253,23.454,23.454,0,0,0-.271-6.034,54.337,54.337,0,0,0-5.554-15.626,121.4,121.4,0,0,0-11.913-18.527,189.3,189.3,0,0,0-17.792-19.958A219.063,219.063,0,0,0,207.2,221.665c-4.355-3.195-8.95-6.3-13.793-9.221a132.139,132.139,0,0,0-15.317-8.03,71.371,71.371,0,0,0-17.019-5.345,30.34,30.34,0,0,0-9.089-.224,16.694,16.694,0,0,0-4.386,1.276,12.284,12.284,0,0,0-3.69,2.692,12.531,12.531,0,0,0-2.259,3.961,17.226,17.226,0,0,0-.774,4.51,30.48,30.48,0,0,0,1.253,9,71.433,71.433,0,0,0,7.272,16.361,132.192,132.192,0,0,0,9.724,14.3c3.45,4.479,7.063,8.687,10.737,12.648a216.5,216.5,0,0,0,22.434,20.886,189.52,189.52,0,0,0,21.853,15.379A121.9,121.9,0,0,0,233.9,309.6a54.559,54.559,0,0,0,16.152,3.729,23.588,23.588,0,0,0,6.034-.41,10.832,10.832,0,0,0,1.222-.317,7.42,7.42,0,0,0,1.106-.364l.982-.395c.3-.147.572-.309.843-.449a8.919,8.919,0,0,0,1.323-.866c.178-.139.356-.255.5-.379l.371-.356.681-.642s-.217.232-.65.665l-.371.371c-.147.124-.317.24-.5.379a8,8,0,0,1-1.323.89c-.263.139-.542.309-.835.456l-.99.41a7.42,7.42,0,0,1-1.106.371,10.965,10.965,0,0,1-1.23.325,23.33,23.33,0,0,1-6.057.449,54.356,54.356,0,0,1-16.245-3.682,121.348,121.348,0,0,1-19.819-9.7,188.978,188.978,0,0,1-21.908-15.363,216.944,216.944,0,0,1-22.5-20.886c-3.682-3.961-7.295-8.177-10.76-12.663a133.3,133.3,0,0,1-9.755-14.342,71.709,71.709,0,0,1-7.287-16.407,30.278,30.278,0,0,1-1.269-9.113,17.3,17.3,0,0,1,.774-4.641,11.271,11.271,0,0,1,6.134-6.869,17.344,17.344,0,0,1,4.487-1.307,30.525,30.525,0,0,1,9.2.232,71.693,71.693,0,0,1,17.127,5.369,132.75,132.75,0,0,1,15.348,8.061c4.85,2.932,9.445,6.042,13.808,9.283a217.14,217.14,0,0,1,23.339,19.943,189.473,189.473,0,0,1,17.754,20.012,121.778,121.778,0,0,1,11.9,18.566,54.454,54.454,0,0,1,5.5,15.7,23.65,23.65,0,0,1,.248,6.073,12.656,12.656,0,0,1-.186,1.261,7.207,7.207,0,0,1-.24,1.137c-.108.364-.2.7-.294,1.029a8.529,8.529,0,0,1-.364.89,8.878,8.878,0,0,1-.727,1.416c-.116.193-.217.379-.325.541a3.842,3.842,0,0,1-.325.4C263.293,308.932,263.115,309.172,263.115,309.172Z" transform="translate(-125.052 -176.999)" fill="#9676ff"/>
      <path id="Path_8557" data-name="Path 8557" d="M280.6,264.261a8.293,8.293,0,0,0-.077-.928,2.11,2.11,0,0,0-.046-.518c-.046-.193-.077-.395-.124-.619a8.549,8.549,0,0,0-.41-1.547c-.108-.279-.2-.588-.333-.9l-.464-.952a8.383,8.383,0,0,0-.58-1.006c-.232-.333-.425-.712-.7-1.044a23.716,23.716,0,0,0-4.232-4.324,54.272,54.272,0,0,0-14.543-7.968,121.62,121.62,0,0,0-21.219-5.895,189.342,189.342,0,0,0-26.541-3.094,217.28,217.28,0,0,0-30.664.673c-5.415.511-10.869,1.253-16.431,2.321a134.6,134.6,0,0,0-16.771,4.255,71.678,71.678,0,0,0-16.245,7.357,30.037,30.037,0,0,0-6.962,5.887,16.608,16.608,0,0,0-2.429,3.868,10.907,10.907,0,0,0,0,8.927,16.919,16.919,0,0,0,2.429,3.868,29.968,29.968,0,0,0,6.962,5.887,71.942,71.942,0,0,0,16.245,7.364,134.368,134.368,0,0,0,16.748,4.17c5.562,1.044,11.054,1.779,16.431,2.321a217.278,217.278,0,0,0,30.664.673,189.2,189.2,0,0,0,26.541-3.094,121.723,121.723,0,0,0,21.227-5.895,54.215,54.215,0,0,0,14.535-7.968,23.719,23.719,0,0,0,4.231-4.324c.279-.333.472-.712.7-1.044a8.389,8.389,0,0,0,.58-1.006c.162-.333.317-.65.472-.951a7.928,7.928,0,0,0,.325-.9,8.548,8.548,0,0,0,.41-1.547c.046-.224.1-.433.124-.619a3.485,3.485,0,0,1,.046-.518c.046-.611.077-.928.077-.928s0,.317-.046.936v.518a4.093,4.093,0,0,1-.116.619,8.6,8.6,0,0,1-.4,1.547c-.1.286-.193.6-.317.905l-.464.959a6.785,6.785,0,0,1-.58,1.013,11.949,11.949,0,0,1-.7,1.068,23.981,23.981,0,0,1-4.224,4.363,54.052,54.052,0,0,1-14.559,8.045,121.554,121.554,0,0,1-21.25,5.964,188.13,188.13,0,0,1-26.572,3.094,217.691,217.691,0,0,1-30.711-.634c-5.415-.511-10.892-1.245-16.462-2.282a133.73,133.73,0,0,1-16.825-4.208,71.94,71.94,0,0,1-16.361-7.4,30.446,30.446,0,0,1-7.009-5.956,17.5,17.5,0,0,1-2.483-3.961,11.333,11.333,0,0,1,0-9.213,17.328,17.328,0,0,1,2.483-3.961A30.447,30.447,0,0,1,131,249.718a71.874,71.874,0,0,1,16.353-7.4,132.582,132.582,0,0,1,16.856-4.177c5.57-1.044,11.078-1.779,16.462-2.321a217.6,217.6,0,0,1,30.7-.634,189.526,189.526,0,0,1,26.58,3.094,121.109,121.109,0,0,1,21.25,5.956,54,54,0,0,1,14.551,8.045,23.817,23.817,0,0,1,4.231,4.363,11.935,11.935,0,0,1,.7,1.068,6.772,6.772,0,0,1,.58,1.013l.464.959c.124.317.217.619.317.905a8.6,8.6,0,0,1,.4,1.547c.039.224.093.433.116.619a3.976,3.976,0,0,1,0,.526C280.6,263.944,280.6,264.261,280.6,264.261Z" transform="translate(-120.525 -185.303)" fill="#9676ff"/>
      <path id="Path_8558" data-name="Path 8558" d="M259.464,186.476l-.774-.5-.433-.286c-.17-.093-.364-.178-.565-.278a8.865,8.865,0,0,0-1.462-.611c-.286-.085-.588-.2-.905-.286l-1.044-.217a7.437,7.437,0,0,0-1.145-.155c-.41,0-.828-.1-1.269-.085a23.586,23.586,0,0,0-6,.688,54.476,54.476,0,0,0-15.208,6.614A121.954,121.954,0,0,0,213,204.508,189.655,189.655,0,0,0,194.314,223.6a216.519,216.519,0,0,0-18.256,24.646c-2.893,4.564-5.67,9.353-8.254,14.388a133.97,133.97,0,0,0-6.962,15.827,72.151,72.151,0,0,0-4.154,17.367,30.346,30.346,0,0,0,.4,9.082,17.212,17.212,0,0,0,1.547,4.293,10.985,10.985,0,0,0,7.07,5.516,17.018,17.018,0,0,0,4.549.456,30.029,30.029,0,0,0,8.9-1.872,71.07,71.07,0,0,0,15.789-8.355,132.182,132.182,0,0,0,13.607-10.683c4.224-3.752,8.177-7.643,11.882-11.6a217.823,217.823,0,0,0,19.339-23.826,188.646,188.646,0,0,0,13.839-22.859,121.76,121.76,0,0,0,8.347-20.384,53.987,53.987,0,0,0,2.607-16.369,23.439,23.439,0,0,0-.828-5.987,12.26,12.26,0,0,0-.395-1.207,7.438,7.438,0,0,0-.441-1.075l-.464-.951c-.162-.286-.348-.549-.5-.774a8.216,8.216,0,0,0-.959-1.261c-.147-.178-.278-.34-.41-.48s-.271-.24-.379-.348l-.689-.634s.248.2.712.611l.387.34c.139.132.271.3.425.472a8.746,8.746,0,0,1,.967,1.261c.162.255.348.518.518.774a10.054,10.054,0,0,1,.48.959,7.6,7.6,0,0,1,.449,1.075c.124.387.309.774.41,1.207a23.977,23.977,0,0,1,.859,6.011,53.971,53.971,0,0,1-2.553,16.431,121.251,121.251,0,0,1-8.316,20.446,188.159,188.159,0,0,1-13.847,22.929,216.687,216.687,0,0,1-19.339,23.88c-3.705,3.945-7.658,7.844-11.9,11.6a132.783,132.783,0,0,1-13.63,10.722,72.091,72.091,0,0,1-15.874,8.393,30.649,30.649,0,0,1-8.973,1.872,17.546,17.546,0,0,1-4.641-.464,12.974,12.974,0,0,1-4.239-2.05,12.756,12.756,0,0,1-3.032-3.6,17.443,17.443,0,0,1-1.609-4.394,30.6,30.6,0,0,1-.41-9.19,71.8,71.8,0,0,1,4.17-17.436,132.281,132.281,0,0,1,6.962-15.866c2.591-5.044,5.415-9.848,8.285-14.412a217.166,217.166,0,0,1,18.318-24.646,190.762,190.762,0,0,1,18.744-19.107,122,122,0,0,1,17.73-13.151,54.11,54.11,0,0,1,15.278-6.575,23.763,23.763,0,0,1,6.042-.665,11.086,11.086,0,0,1,1.269.1,6.875,6.875,0,0,1,1.16.162l1.037.224c.325.093.627.2.913.3a7.675,7.675,0,0,1,1.462.627c.2.1.395.186.565.286l.425.294C259.209,186.306,259.464,186.476,259.464,186.476Z" transform="translate(-128.595 -173.759)" fill="#9676ff"/>
      <path id="Path_8559" data-name="Path 8559" d="M334.461,195.691a2.97,2.97,0,1,1-2.97-2.971,2.97,2.97,0,0,1,2.97,2.971Z" transform="translate(-167.621 -175.748)" fill="#9676ff"/>
      <path id="Path_8560" data-name="Path 8560" d="M330.017,227.144a.774.774,0,1,1-.774-.774A.774.774,0,0,1,330.017,227.144Z" transform="translate(-167.61 -183.367)" fill="#9676ff"/>
    </g>
    <g id="freepik--Plant--inject-234" transform="translate(62.206 246.95)">
      <path id="Path_8561" data-name="Path 8561" d="M109.767,420.193c-1.779-.085-2.321-2.607-1.64-4.262s1.973-3.094,2-4.912c0-1.547-.967-2.955-1.06-4.5-.17-2.793,2.522-5.067,2.638-7.852.085-2.181-1.423-4.255-1.06-6.4.395-2.321,2.8-3.821,3.35-6.088.588-2.421-1.091-4.974-.449-7.38s3.466-4.154,3.094-6.6a21.126,21.126,0,0,0-.843-2.321c-.5-1.826.5-3.729,1.7-5.191s2.684-2.754,3.427-4.494c1.153-2.677.356-5.926,1.71-8.509,1.122-2.151,3.628-3.589,3.945-6,1.276,2.166,0,4.92.317,7.411a24.045,24.045,0,0,0,1.547,4.641,12.091,12.091,0,0,1-.944,9.677c-1.091,1.911-2.777,3.721-2.684,5.926.1,2.661,2.769,4.595,3.241,7.225.673,3.76-3.334,7.14-2.777,10.915.147.975.588,1.9.673,2.878.286,3.334-3.5,5.693-4.084,9-.418,2.429.982,4.943.4,7.341-.449,1.849-2.042,3.5-1.648,5.361a12.755,12.755,0,0,0,1.021,2.251,4.278,4.278,0,0,1-.673,4.425,3.721,3.721,0,0,1-4.309.882" transform="translate(-77.631 -313.308)" fill="#9676ff"/>
      <g id="Group_2471" data-name="Group 2471" transform="translate(30.188 32.42)" opacity="0.5">
        <path id="Path_8562" data-name="Path 8562" d="M121.6,418.363a12.757,12.757,0,0,1-1.021-2.251c-.395-1.857,1.2-3.512,1.648-5.361.58-2.4-.82-4.912-.4-7.341.58-3.3,4.371-5.663,4.084-9-.085-.982-.526-1.9-.673-2.878-.557-3.775,3.45-7.156,2.777-10.915-.472-2.63-3.141-4.564-3.241-7.225-.093-2.2,1.594-4.015,2.684-5.926a12.091,12.091,0,0,0,.944-9.677,23.871,23.871,0,0,1-1.547-4.641c-.286-2.491.959-5.245-.317-7.411-.317,2.406-2.824,3.868-3.945,6-1.354,2.576-.557,5.825-1.71,8.509-.774,1.741-2.22,3.032-3.427,4.494s-2.2,3.365-1.7,5.191a21.126,21.126,0,0,1,.843,2.321c.4,2.445-2.421,4.2-3.094,6.6s1.037,4.959.449,7.38c-.549,2.267-2.955,3.783-3.35,6.088-.364,2.143,1.145,4.216,1.06,6.4-.116,2.785-2.808,5.059-2.638,7.852.093,1.547,1.075,2.955,1.06,4.5,0,1.779-1.331,3.257-2,4.912s-.139,4.177,1.64,4.262l6.862,3.442a3.721,3.721,0,0,0,4.309-.882,4.278,4.278,0,0,0,.7-4.44Z" transform="translate(-107.812 -345.74)" fill="#fff"/>
      </g>
      <path id="Path_8563" data-name="Path 8563" d="M119.622,417.161a4.92,4.92,0,0,1-.688-2.638c.186-1.021,1.911-1.918,2.321-3.651.557-2.243-.449-6.189,0-8.509.588-3.094,3.767-5.1,3.636-8.153-.039-.905.093-3.3,0-4.193-.34-3.442,2.684-5.755,2.243-9.175-.3-2.383-2.785-5.183-2.785-7.635,0-2.019,1.447-3.791,2.414-5.632a12.617,12.617,0,0,0,1.091-8.966,21.852,21.852,0,0,1-1.137-4.17c-.162-2.274.959-4.889,0-6.8-.333,2.236-2.46,3.729-3.458,5.771-1.207,2.46-.65,5.415-1.679,7.945a21.592,21.592,0,0,1-2.986,4.363c-1.044,1.423-1.934,3.234-1.547,4.881.155.719.534,1.338.619,2.073.255,2.228-2.135,4.03-2.738,6.274s.7,4.5.139,6.769c-.534,2.127-2.615,5.013-3.009,7.163-.371,2,1.439,3.3,1.3,5.307-.186,2.584-2.769,5.7-2.715,8.254,0,1.423,1.215,1.872,1.153,3.3-.07,1.64-1.447,4.912-2.05,6.483a4.433,4.433,0,0,0,.425,4.409l7.666,3.8C121.192,422.831,121.038,419.5,119.622,417.161Z" transform="translate(-77.971 -313.75)" fill="#9676ff"/>
      <path id="Path_8564" data-name="Path 8564" d="M126.107,362.73a1.541,1.541,0,0,1,0,.17v.5c0,.433,0,1.083-.077,1.911a9.623,9.623,0,0,1-.7,2.963,15.308,15.308,0,0,1-2.321,3.288,6.081,6.081,0,0,0-1.091,2,6.916,6.916,0,0,0-.278,2.452c.085,1.733.619,3.535.866,5.5a8.285,8.285,0,0,1-.093,3.048,6.252,6.252,0,0,1-.6,1.478,12.125,12.125,0,0,0-.774,1.346,4.951,4.951,0,0,0-.046,3.094c.108.534.232,1.083.294,1.655a6.389,6.389,0,0,1-.046,1.748,13.474,13.474,0,0,1-1.052,3.226,25.531,25.531,0,0,0-1.184,3.009,7.782,7.782,0,0,0-.271,3.094,13.36,13.36,0,0,1,.108,3.04,9.019,9.019,0,0,1-.967,2.731,10.52,10.52,0,0,0-.959,2.491c-.325,1.686.155,3.311.116,4.819a12.849,12.849,0,0,1-.882,3.922,13.606,13.606,0,0,0-.774,2.909,4.007,4.007,0,0,0,.193,1.864c.155.4.271.6.255.611a3.288,3.288,0,0,1-.317-.588,4.085,4.085,0,0,1-.255-1.9,13.839,13.839,0,0,1,.7-2.955,12.718,12.718,0,0,0,.828-3.868,22.5,22.5,0,0,0-.186-2.321,8.9,8.9,0,0,1,0-2.561c.333-1.771,1.632-3.3,1.9-5.206a13.422,13.422,0,0,0-.116-2.978,8.215,8.215,0,0,1,.263-3.172c.588-2.081,1.864-3.984,2.228-6.189a6.142,6.142,0,0,0,0-1.64c-.054-.549-.178-1.083-.286-1.624a5.276,5.276,0,0,1,.07-3.3,13.8,13.8,0,0,1,.828-1.377,5.5,5.5,0,0,0,.572-1.4,8.177,8.177,0,0,0,.1-2.94c-.24-1.934-.774-3.744-.843-5.516a6.877,6.877,0,0,1,.309-2.537,6.188,6.188,0,0,1,1.145-2.058,15.471,15.471,0,0,0,2.321-3.226,9.515,9.515,0,0,0,.727-2.9c.093-.828.116-1.47.139-1.911v-.5A.526.526,0,0,1,126.107,362.73Z" transform="translate(-79.304 -317.167)" fill="#263238"/>
      <path id="Path_8565" data-name="Path 8565" d="M94.307,411.612c-2.491.364-3.907-2.978-3.442-5.454s1.88-4.881,1.423-7.357c-.4-2.151-2.151-3.868-2.708-5.941-1-3.822,2.112-7.736,1.547-11.6-.472-3.032-3.094-5.492-3.218-8.571-.085-3.3,2.831-6.049,2.971-9.345.155-3.512-2.87-6.6-2.638-10.1s3.6-6.73,2.39-9.995a32.448,32.448,0,0,0-1.795-2.963c-1.2-2.39-.34-5.3.928-7.651s2.971-4.549,3.527-7.171c.851-4.015-1.137-8.308,0-12.246.975-3.28,4.054-5.964,3.868-9.383,2.321,2.646,1.385,6.8,2.468,10.172.712,2.2,2.274,4,3.419,6.011a17.019,17.019,0,0,1,1.331,13.654c-.982,2.955-2.816,5.918-2.1,8.95.874,3.667,5.106,5.608,6.475,9.12,1.965,5.028-2.661,10.83-.859,15.889.472,1.307,1.338,2.46,1.725,3.8,1.307,4.549-3.3,8.85-3.187,13.584.077,3.481,2.708,6.575,2.561,10.056-.116,2.684-1.872,5.415-.82,7.89a18.767,18.767,0,0,0,2.027,2.831,6.034,6.034,0,0,1,.286,6.312,5.253,5.253,0,0,1-5.724,2.406" transform="translate(-73.117 -303.83)" fill="#9676ff"/>
      <g id="Group_2472" data-name="Group 2472" transform="translate(14.742)" opacity="0.5">
        <path id="Path_8566" data-name="Path 8566" d="M110.182,405.787a20.56,20.56,0,0,1-2.027-2.831c-1.052-2.475.7-5.206.82-7.89.147-3.481-2.483-6.575-2.561-10.056-.108-4.734,4.494-9.035,3.187-13.584-.387-1.338-1.253-2.491-1.725-3.8-1.8-5.082,2.824-10.83.859-15.889-1.369-3.512-5.6-5.454-6.475-9.12-.719-3.032,1.114-6,2.1-8.95a17.019,17.019,0,0,0-1.331-13.654C101.881,318,100.319,316.2,99.607,314c-1.083-3.373-.108-7.527-2.468-10.172.224,3.419-2.854,6.1-3.868,9.383-1.168,3.937.82,8.231,0,12.246-.557,2.622-2.251,4.819-3.527,7.171s-2.127,5.26-.928,7.651a32.46,32.46,0,0,1,1.795,2.963c1.23,3.28-2.2,6.49-2.429,9.987s2.793,6.591,2.638,10.1c-.139,3.3-3.094,6.049-2.971,9.345.085,3.094,2.746,5.539,3.218,8.571.6,3.868-2.506,7.79-1.547,11.6.557,2.112,2.321,3.79,2.708,5.941.456,2.475-.959,4.881-1.423,7.357s.951,5.817,3.442,5.454L104.7,414.5a5.253,5.253,0,0,0,5.724-2.406,6.034,6.034,0,0,0-.24-6.3Z" transform="translate(-87.845 -303.83)" fill="#fff"/>
      </g>
      <path id="Path_8567" data-name="Path 8567" d="M106.96,404.78a6.962,6.962,0,0,1-1.679-3.473c0-1.462,2.12-3.179,2.243-5.693.155-3.264-2.321-8.509-2.321-11.743,0-4.425,3.821-8.107,2.8-12.3-.3-1.238-.774-4.641-1.145-5.81-1.416-4.641,2.143-8.7.6-13.321-1.083-3.226-5.284-6.421-5.956-9.817-.557-2.8.967-5.655,1.8-8.463a17.854,17.854,0,0,0-.982-12.718c-.913-1.826-2.166-3.442-2.723-5.469-.843-3.094,0-7.039-1.9-9.414.147,3.187-2.39,5.833-3.21,8.95-1,3.736.58,7.658-.155,11.464-.48,2.468-1.88,4.6-2.94,6.854s-1.787,5.02-.835,7.2c.41.944,1.106,1.7,1.431,2.7.959,3.009-1.864,6.189-2.089,9.445s2.2,6.042,2.05,9.337c-.147,3.094-2.243,7.658-2.2,10.745,0,2.87,2.9,4.177,3.257,7,.441,3.62-2.282,8.641-1.508,12.184.425,1.949,2.2,2.259,2.5,4.255.356,2.321-.658,7.2-1.06,9.538a6.258,6.258,0,0,0,1.795,6l11.658,3.172C110.673,412.207,109.551,407.635,106.96,404.78Z" transform="translate(-73.532 -304.448)" fill="#9676ff"/>
      <path id="Path_8568" data-name="Path 8568" d="M99.813,328.1a30.412,30.412,0,0,1,.6,3.6,13.7,13.7,0,0,1-.162,4.278,10.482,10.482,0,0,1-.913,2.522c-.418.851-.928,1.717-1.385,2.653a8.61,8.61,0,0,0-.975,3.094,9.523,9.523,0,0,0,.286,3.5c.588,2.383,1.818,4.734,2.7,7.38a11.828,11.828,0,0,1,.7,4.231,8.308,8.308,0,0,1-.425,2.2,18.268,18.268,0,0,0-.774,2.089,7.2,7.2,0,0,0,.774,4.355c.3.719.619,1.447.859,2.212a9.1,9.1,0,0,1,.41,2.383,18.852,18.852,0,0,1-.58,4.734,38.061,38.061,0,0,0-.774,4.5,11.727,11.727,0,0,0,0,2.212,13.151,13.151,0,0,0,.456,2.127,19.339,19.339,0,0,1,.982,4.17,13,13,0,0,1-.588,4.03,15.471,15.471,0,0,0-.658,3.729,12.16,12.16,0,0,0,.627,3.466,32.243,32.243,0,0,1,.874,3.179,11.774,11.774,0,0,1,.147,3.009c-.062.944-.178,1.833-.286,2.661a19.075,19.075,0,0,0-.224,4.247,5.818,5.818,0,0,0,.774,2.53c.333.518.557.774.534.774a5.413,5.413,0,0,1-.588-.735,5.872,5.872,0,0,1-.859-2.561,19.008,19.008,0,0,1,.178-4.278c.1-.828.209-1.71.255-2.646a11,11,0,0,0-.162-2.955,31.719,31.719,0,0,0-.882-3.164,11.8,11.8,0,0,1-.65-3.527,15.139,15.139,0,0,1,.642-3.79,12.54,12.54,0,0,0,.565-3.953,19.278,19.278,0,0,0-.975-4.108,12.375,12.375,0,0,1-.472-2.166,11.752,11.752,0,0,1,0-2.274,36.011,36.011,0,0,1,.82-4.549,18.767,18.767,0,0,0,.565-4.641,8.509,8.509,0,0,0-.395-2.321,21.628,21.628,0,0,0-.851-2.182,14.754,14.754,0,0,1-.774-2.22,5.144,5.144,0,0,1,0-2.321,19.14,19.14,0,0,1,.774-2.127,7.921,7.921,0,0,0,.41-2.1,11.341,11.341,0,0,0-.673-4.123c-.859-2.622-2.089-4.99-2.677-7.411a9.778,9.778,0,0,1-.271-3.582,8.749,8.749,0,0,1,1.013-3.156c.472-.944.982-1.8,1.4-2.638a11.068,11.068,0,0,0,.928-2.475,13.761,13.761,0,0,0,.2-4.231c-.1-1.168-.255-2.065-.34-2.677-.046-.294-.085-.526-.108-.7A1.608,1.608,0,0,0,99.813,328.1Z" transform="translate(-75.111 -309.325)" fill="#263238"/>
      <path id="Path_8569" data-name="Path 8569" d="M88.452,426.242c-1.423.7-2.916-1.021-3.094-2.6s.186-3.28-.572-4.641c-.658-1.207-2.027-1.88-2.769-3.04-1.338-2.089-.224-5.013-1.338-7.233-.874-1.725-2.94-2.684-3.582-4.51-.688-1.957.518-4.17,0-6.189-.588-2.127-2.994-3.388-3.535-5.531s.9-4.719-.472-6.444a20.816,20.816,0,0,0-1.648-1.431c-1.184-1.2-1.23-3.094-.921-4.757s.9-3.3.719-4.966c-.263-2.576-2.282-4.757-2.321-7.341-.054-2.151,1.269-4.355.48-6.359,1.918,1.129,2.143,3.806,3.442,5.616a17.1,17.1,0,0,0,3.1,2.916,10.745,10.745,0,0,1,3.442,7.914c0,1.965-.549,4.092.472,5.763,1.23,2.027,4.139,2.375,5.639,4.208,2.143,2.63.5,6.962,2.553,9.677.534.689,1.276,1.215,1.764,1.934,1.663,2.475-.255,5.941.719,8.749.719,2.073,2.893,3.419,3.481,5.531.449,1.624-.077,3.6,1.037,4.873a11.72,11.72,0,0,0,1.779,1.3,3.806,3.806,0,0,1,1.392,3.729,3.3,3.3,0,0,1-2.963,2.545" transform="translate(-68.817 -316.82)" fill="#9676ff"/>
      <g id="Group_2473" data-name="Group 2473" transform="translate(0 44.364)" opacity="0.5">
        <path id="Path_8570" data-name="Path 8570" d="M96.8,419.678a11.719,11.719,0,0,1-1.756-1.3c-1.114-1.276-.588-3.249-1.037-4.874-.588-2.112-2.762-3.458-3.481-5.531-.975-2.808.944-6.274-.719-8.749-.487-.719-1.23-1.245-1.764-1.934-2.058-2.7-.41-7.047-2.553-9.677-1.5-1.833-4.409-2.181-5.639-4.208-1.021-1.671-.5-3.8-.472-5.763a10.745,10.745,0,0,0-3.466-7.914,23.5,23.5,0,0,1-3.2-2.932c-1.3-1.81-1.547-4.487-3.442-5.616.774,2-.534,4.208-.48,6.359.062,2.584,2.081,4.765,2.321,7.341.178,1.671-.418,3.311-.719,4.966s-.263,3.558.921,4.757a20.818,20.818,0,0,1,1.648,1.431c1.369,1.725-.062,4.309.472,6.444s2.947,3.4,3.535,5.531c.549,2-.658,4.216,0,6.189.642,1.826,2.707,2.785,3.582,4.51,1.114,2.22,0,5.144,1.338,7.233.774,1.16,2.112,1.833,2.769,3.04.774,1.392.371,3.094.572,4.641s1.694,3.3,3.094,2.6l6.807-.286a3.3,3.3,0,0,0,2.963-2.545,3.806,3.806,0,0,0-1.292-3.713Z" transform="translate(-68.788 -361.18)" fill="#fff"/>
      </g>
      <path id="Path_8571" data-name="Path 8571" d="M94.521,419.77a4.348,4.348,0,0,1-1.679-1.748c-.294-.874.658-2.321.24-3.868-.534-1.988-3.032-4.641-3.674-6.583-.874-2.638.719-5.585-.7-7.9-.418-.681-1.354-2.6-1.8-3.257-1.756-2.522-.4-5.624-2.22-8.084-1.269-1.725-4.4-2.824-5.461-4.727-.874-1.547-.518-3.574-.557-5.415a11.24,11.24,0,0,0-3.025-7.426,19.586,19.586,0,0,1-2.684-2.746c-1.106-1.7-1.369-4.208-2.955-5.268.7,1.88-.309,3.953-.2,5.972.132,2.429,1.833,4.479,2.127,6.893a18.881,18.881,0,0,1-.433,4.641c-.193,1.547-.1,3.35.89,4.471a18.741,18.741,0,0,1,1.377,1.423c1.16,1.617.077,4.053.58,6.057s2.491,3.195,3.032,5.191.139,5.02.774,6.862c.58,1.71,2.545,1.942,3.3,3.558.975,2.081.317,5.616,1.462,7.581.634,1.091,1.748.928,2.321,2.065.658,1.307,1,4.433,1.207,5.91a3.953,3.953,0,0,0,2.243,3.241l7.589-.356C98.188,423.5,96.633,420.961,94.521,419.77Z" transform="translate(-69.015 -317.171)" fill="#9676ff"/>
      <path id="Path_8572" data-name="Path 8572" d="M74.64,375.55s0,.039.085.124l.224.379c.186.34.464.843.774,1.547a8.509,8.509,0,0,1,.774,2.591,13.491,13.491,0,0,1-.364,3.558,5.415,5.415,0,0,0,0,2.019,6.142,6.142,0,0,0,.843,2.019c.774,1.3,2,2.468,3.048,3.868a7.474,7.474,0,0,1,1.238,2.421,5.322,5.322,0,0,1,.178,1.408,12.2,12.2,0,0,0-.046,1.392,4.409,4.409,0,0,0,1.261,2.414c.317.371.65.774.944,1.16a5.571,5.571,0,0,1,.712,1.362,11.672,11.672,0,0,1,.572,2.955,23.594,23.594,0,0,0,.387,2.847,6.908,6.908,0,0,0,1.106,2.491,11.82,11.82,0,0,1,1.4,2.321,8.254,8.254,0,0,1,.433,2.545,9.8,9.8,0,0,0,.317,2.321c.48,1.447,1.547,2.506,2.174,3.69a11.363,11.363,0,0,1,1.006,3.427,12.64,12.64,0,0,0,.673,2.584,3.8,3.8,0,0,0,.951,1.362c.294.248.472.356.464.371a3.092,3.092,0,0,1-.5-.325,3.628,3.628,0,0,1-1.021-1.361,11.766,11.766,0,0,1-.727-2.6,11.6,11.6,0,0,0-1.037-3.357c-.611-1.145-1.7-2.181-2.22-3.713s-.162-3.264-.774-4.866a11.976,11.976,0,0,0-1.377-2.251,7.186,7.186,0,0,1-1.16-2.584c-.449-1.872-.278-3.868-.951-5.771a5.485,5.485,0,0,0-.673-1.284,14.516,14.516,0,0,0-.928-1.137,4.734,4.734,0,0,1-1.315-2.584,12.15,12.15,0,0,1,0-1.423,4.75,4.75,0,0,0-.155-1.331,7.256,7.256,0,0,0-1.191-2.321c-1.021-1.392-2.212-2.576-3.032-3.922a6.081,6.081,0,0,1-.859-2.1,5.5,5.5,0,0,1,0-2.1,13.823,13.823,0,0,0,.41-3.5,8.393,8.393,0,0,0-.681-2.568c-.286-.681-.541-1.191-.712-1.547l-.193-.395A1.211,1.211,0,0,1,74.64,375.55Z" transform="translate(-70.113 -320.069)" fill="#263238"/>
      <path id="Path_8573" data-name="Path 8573" d="M83.23,437.53l.518,6H119.7l.371-6Z" transform="translate(-72.058 -334.103)" fill="#263238"/>
      <path id="Path_8574" data-name="Path 8574" d="M85.95,443.31l4.657,18.04,24.221.023L118.5,443.8Z" transform="translate(-72.674 -335.412)" fill="#263238"/>
      <path id="Path_8575" data-name="Path 8575" d="M119.682,445.178c0,.085-8.022.155-17.916.155s-17.916-.07-17.916-.155S91.864,445,101.758,445,119.682,445.093,119.682,445.178Z" transform="translate(-72.198 -335.795)" fill="#455a64"/>
    </g>
    <g id="freepik--Character--inject-234" transform="translate(235.526 67.55)">
      <path id="Path_8576" data-name="Path 8576" d="M374.1,434.88l-.549,25.915,34.115.774c-.124-3.094-17.607-9.685-17.607-9.685l1.075-16.585Z" transform="translate(-311.115 -154.104)" fill="#9676ff"/>
      <g id="Group_2474" data-name="Group 2474" transform="translate(67.417 296.165)" opacity="0.6">
        <path id="Path_8577" data-name="Path 8577" d="M381.011,454.778a1.315,1.315,0,0,0-1.006,1.478,1.338,1.338,0,0,0,1.547.952,1.392,1.392,0,0,0,1.052-1.547,1.423,1.423,0,0,0-1.725-.828" transform="translate(-379.991 -454.773)" fill="#fff"/>
      </g>
      <g id="Group_2475" data-name="Group 2475" transform="translate(62.435 304.084)" opacity="0.6">
        <path id="Path_8578" data-name="Path 8578" d="M373.55,467.617l.17-2.607,32.668,1.741s1.5.665,1.307,1.671Z" transform="translate(-373.55 -465.01)" fill="#fff"/>
      </g>
      <path id="Path_8579" data-name="Path 8579" d="M394.689,456.662c0,.155-.843.209-1.671.7s-1.292,1.137-1.439,1.068.116-.967,1.137-1.547S394.735,456.515,394.689,456.662Z" transform="translate(-315.189 -158.999)" fill="#263238"/>
      <path id="Path_8580" data-name="Path 8580" d="M399.513,458.6c0,.155-.7.41-1.276,1.06s-.774,1.354-.928,1.338-.248-.9.487-1.7S399.513,458.453,399.513,458.6Z" transform="translate(-316.47 -159.46)" fill="#263238"/>
      <path id="Path_8581" data-name="Path 8581" d="M402.626,463.133c-.155,0-.364-.774.085-1.617s1.238-1.176,1.307-1.044-.425.58-.774,1.284S402.788,463.117,402.626,463.133Z" transform="translate(-317.656 -159.892)" fill="#263238"/>
      <path id="Path_8582" data-name="Path 8582" d="M394.321,451.613c-.077.139-.835-.093-1.779-.054s-1.686.3-1.764.162.634-.681,1.748-.712S394.4,451.489,394.321,451.613Z" transform="translate(-315.015 -157.756)" fill="#263238"/>
      <path id="Path_8583" data-name="Path 8583" d="M392.937,446.029a3.451,3.451,0,0,1-1.71-.046,8.177,8.177,0,0,1-1.779-.565,9.106,9.106,0,0,1-.967-.518,1.912,1.912,0,0,1-.5-.387.673.673,0,0,1-.054-.843.944.944,0,0,1,.774-.34,2.484,2.484,0,0,1,.642.1,6.022,6.022,0,0,1,1.052.371,5.824,5.824,0,0,1,1.547,1.013c.774.712,1.029,1.3.975,1.331s-.449-.449-1.238-1.044a6.961,6.961,0,0,0-1.508-.843,6.136,6.136,0,0,0-.967-.309c-.364-.1-.665-.108-.774.039s-.039.085,0,.186a2,2,0,0,0,.371.286,9.643,9.643,0,0,0,.89.511,9.525,9.525,0,0,0,1.64.634A12.336,12.336,0,0,1,392.937,446.029Z" transform="translate(-314.342 -156.017)" fill="#263238"/>
      <path id="Path_8584" data-name="Path 8584" d="M394.03,445.621a2.469,2.469,0,0,1-.41-1.547,4.911,4.911,0,0,1,.278-1.756,5.068,5.068,0,0,1,.464-.975,1.385,1.385,0,0,1,1.106-.774.773.773,0,0,1,.7.472,1.833,1.833,0,0,1,.155.6,3.373,3.373,0,0,1,0,1.083,3.666,3.666,0,0,1-.774,1.655c-.688.82-1.392.99-1.4.936a6.833,6.833,0,0,0,1.068-1.16,3.8,3.8,0,0,0,.58-1.508,3.394,3.394,0,0,0,0-.928c-.046-.348-.178-.627-.309-.6a1.242,1.242,0,0,0-.611.518,4.8,4.8,0,0,0-.449.859,5.307,5.307,0,0,0-.371,1.609C393.96,445.01,394.122,445.606,394.03,445.621Z" transform="translate(-315.659 -155.392)" fill="#263238"/>
      <path id="Path_8585" data-name="Path 8585" d="M329.976,437.065l-3.257,25.706-33.859-4.2c.565-3.032,18.829-7,18.829-7L313.081,435Z" transform="translate(-292.845 -154.131)" fill="#9676ff"/>
      <g id="Group_2476" data-name="Group 2476" transform="translate(27.752 297.272)" opacity="0.6">
        <path id="Path_8586" data-name="Path 8586" d="M330.483,456.286a1.315,1.315,0,0,1,.774,1.609,1.338,1.338,0,0,1-1.663.719,1.385,1.385,0,0,1-.812-1.71,1.416,1.416,0,0,1,1.826-.565" transform="translate(-328.715 -456.205)" fill="#fff"/>
      </g>
      <g id="Group_2477" data-name="Group 2477" transform="translate(0 302.947)" opacity="0.6">
        <path id="Path_8587" data-name="Path 8587" d="M326.715,469.233l.217-2.6-32.544-3.094s-1.547.433-1.547,1.454Z" transform="translate(-292.84 -463.54)" fill="#fff"/>
      </g>
      <path id="Path_8588" data-name="Path 8588" d="M316.51,456.1c0,.155.774.325,1.547.928s1.153,1.292,1.276,1.292,0-.982-.9-1.694S316.494,455.949,316.51,456.1Z" transform="translate(-298.199 -158.889)" fill="#263238"/>
      <path id="Path_8589" data-name="Path 8589" d="M311.709,457.337c-.062.147.627.5,1.106,1.23s.557,1.454.727,1.47.371-.859-.24-1.756S311.724,457.19,311.709,457.337Z" transform="translate(-297.112 -159.179)" fill="#263238"/>
      <path id="Path_8590" data-name="Path 8590" d="M308.177,461.385c.147.054.472-.7.147-1.609s-1.052-1.346-1.137-1.222.34.642.588,1.385S308.014,461.354,308.177,461.385Z" transform="translate(-296.086 -159.46)" fill="#263238"/>
      <path id="Path_8591" data-name="Path 8591" d="M317.489,451.188c.054.147.835,0,1.764.2s1.625.549,1.725.425-.534-.774-1.625-.959S317.427,451.049,317.489,451.188Z" transform="translate(-298.421 -157.71)" fill="#263238"/>
      <path id="Path_8592" data-name="Path 8592" d="M319.13,445.913a3.45,3.45,0,0,0,1.694.2,8.433,8.433,0,0,0,1.841-.294,8.734,8.734,0,0,0,1.029-.371,2.144,2.144,0,0,0,.557-.309.665.665,0,0,0,.178-.828.944.944,0,0,0-.681-.449,2.2,2.2,0,0,0-.642,0,6.592,6.592,0,0,0-1.1.209,5.958,5.958,0,0,0-1.679.774c-.874.588-1.215,1.137-1.16,1.176s.511-.379,1.377-.851a6.963,6.963,0,0,1,1.617-.619,6.663,6.663,0,0,1,1.006-.162c.371-.046.673,0,.774.155s0,.085-.062.178a1.94,1.94,0,0,1-.41.224,9.269,9.269,0,0,1-.951.371,9.561,9.561,0,0,1-1.717.395,11.336,11.336,0,0,0-1.671.2Z" transform="translate(-298.793 -156.132)" fill="#263238"/>
      <path id="Path_8593" data-name="Path 8593" d="M318.837,445.3a2.582,2.582,0,0,0,.634-1.493,4.967,4.967,0,0,0,0-1.787,5.341,5.341,0,0,0-.317-1.021,1.385,1.385,0,0,0-.982-.944.774.774,0,0,0-.774.356,2.067,2.067,0,0,0-.248.565,3.326,3.326,0,0,0-.132,1.083,3.567,3.567,0,0,0,.526,1.748c.557.905,1.222,1.184,1.245,1.129a11.036,11.036,0,0,1-.882-1.307,3.457,3.457,0,0,1-.356-1.547,3.2,3.2,0,0,1,.139-.921c.1-.333.263-.6.395-.542a1.246,1.246,0,0,1,.534.6,4.961,4.961,0,0,1,.309.921,5.475,5.475,0,0,1,.139,1.64C319,444.707,318.752,445.271,318.837,445.3Z" transform="translate(-298.314 -155.274)" fill="#263238"/>
      <path id="Path_8594" data-name="Path 8594" d="M390.213,257l-56.231,1.8s-12.516,83.584-12.176,89.386l-7.736,60.633,22.434.774s3.535-19.656,6-33.117c1.64-8.95,4.641-22.085,5.415-29.558s12.075-58.977,12.075-58.977.975,59.851,1,62.342-2.6,59.225-2.6,59.225h22.3c1.153-10.242,3.868-51.218,4.479-59.5,1.068-14.953,6.3-57.964,6.784-68.755S390.213,257,390.213,257Z" transform="translate(-297.647 -113.827)" fill="#263238"/>
      <path id="Path_8595" data-name="Path 8595" d="M350.747,267.044a8.7,8.7,0,0,1-.271-2.6,9.285,9.285,0,0,1,.108-2.615,8.89,8.89,0,0,1,.278,2.6A9.075,9.075,0,0,1,350.747,267.044Z" transform="translate(-305.88 -114.92)" fill="#455a64"/>
      <path id="Path_8596" data-name="Path 8596" d="M353.478,266.5a12.941,12.941,0,0,1,.41-4.409A12.487,12.487,0,0,1,353.478,266.5Z" transform="translate(-306.561 -114.979)" fill="#455a64"/>
      <path id="Path_8597" data-name="Path 8597" d="M397.8,266.676a9.1,9.1,0,0,1,0-3.806A9.461,9.461,0,0,1,397.8,266.676Z" transform="translate(-316.561 -115.156)" fill="#455a64"/>
      <path id="Path_8598" data-name="Path 8598" d="M400.627,267.682a4.92,4.92,0,0,1-.217-2.444,5,5,0,0,1,.611-2.367,18.317,18.317,0,0,1-.224,2.4,19.572,19.572,0,0,1-.17,2.414Z" transform="translate(-317.182 -115.156)" fill="#455a64"/>
      <path id="Path_8599" data-name="Path 8599" d="M377.55,288.016a4.447,4.447,0,0,1,.132-.975c.116-.7.271-1.586.449-2.646.371-2.236.774-5.33,1.083-8.765s.348-6.568.34-8.834v-2.684a5.412,5.412,0,0,1,0-.982,4.5,4.5,0,0,1,.124.982c.054.627.108,1.547.147,2.677a82.056,82.056,0,0,1-.232,8.873,79.463,79.463,0,0,1-1.2,8.78c-.217,1.114-.418,2.011-.572,2.63A5.075,5.075,0,0,1,377.55,288.016Z" transform="translate(-312.021 -115.215)" fill="#455a64"/>
      <path id="Path_8600" data-name="Path 8600" d="M374.517,263.92a2.1,2.1,0,0,0-1.122.627,1.586,1.586,0,0,0-.371,1.261,1.361,1.361,0,0,0,1.129,1.013,1.338,1.338,0,0,0,1.416-.534,1.547,1.547,0,0,0,.124-1.3c-.263-.774-.859-.936-.812-1s.147,0,.371.1a1.547,1.547,0,0,1,.7.774,1.818,1.818,0,0,1-.07,1.594,1.728,1.728,0,1,1-2.684-2.12,1.609,1.609,0,0,1,.944-.487C374.385,263.85,374.525,263.9,374.517,263.92Z" transform="translate(-310.914 -115.378)" fill="#455a64"/>
      <path id="Path_8601" data-name="Path 8601" d="M340.125,381.808a50.554,50.554,0,0,1-5.686-2.127,47.291,47.291,0,0,1-5.539-2.491,50.562,50.562,0,0,1,5.686,2.127,46.571,46.571,0,0,1,5.539,2.491Z" transform="translate(-301.005 -141.041)" fill="#455a64"/>
      <path id="Path_8602" data-name="Path 8602" d="M396.731,233.9c-.193-.719-4.641-37.82-4.641-37.82l2.321-48.155-20.036-7.032L371.2,138.47l-20.113.232-2.282,3.4-19.069,8.68,5.314,39.452,1.493,33.016,1.408,12.222,56.525,3.373Z" transform="translate(-301.195 -86.988)" fill="#9676ff"/>
      <g id="Group_2478" data-name="Group 2478" transform="translate(71.269 122.163)" opacity="0.3">
        <path id="Path_8603" data-name="Path 8603" d="M406.166,229.84l-21.173,2.537a3.746,3.746,0,0,0,2.444,3.667,8.819,8.819,0,0,0,4.641.294,21,21,0,0,1,4.7-.425c1.547.139,3.094.774,4.7.665a5.2,5.2,0,0,0,4.641-6.738Z" transform="translate(-384.969 -229.84)"/>
      </g>
      <path id="Path_8604" data-name="Path 8604" d="M412.193,150.69s4.7.65,7.434,8.873,9.175,38.075,9.585,40.1-1.369,8.61-8.509,11.549a24.808,24.808,0,0,1-12.292,1.926V198.048l3.009-3.288-1.176-5.33Z" transform="translate(-319.008 -89.755)" fill="#9676ff"/>
      <path id="Path_8605" data-name="Path 8605" d="M424.927,208a5.239,5.239,0,0,1-.712-.294,19.451,19.451,0,0,0-1.957-.774,18.405,18.405,0,0,0-3-.851,12.14,12.14,0,0,0-1.818-.232,7.3,7.3,0,0,0-1.957.116,10.219,10.219,0,0,0-5.848,3.419,6.668,6.668,0,0,0-1.013,1.826,5.768,5.768,0,0,1-.232.735.612.612,0,0,1,0-.193,3.1,3.1,0,0,1,.124-.572,6.452,6.452,0,0,1,.975-1.888,10.118,10.118,0,0,1,5.933-3.535,7.349,7.349,0,0,1,2-.116,12.373,12.373,0,0,1,1.849.248,17.192,17.192,0,0,1,3.017.905c.835.325,1.485.642,1.934.866l.511.263Z" transform="translate(-319.001 -102.193)" fill="#263238"/>
      <path id="Path_8606" data-name="Path 8606" d="M421.442,204.83c0,.039-.565-.217-1.508-.41a8.293,8.293,0,0,0-7.047,1.764,12.939,12.939,0,0,0-1.137,1.075c-.023-.023.07-.139.24-.348a6.145,6.145,0,0,1,.774-.843,7.921,7.921,0,0,1,7.179-1.795,6.341,6.341,0,0,1,1.106.364A1.545,1.545,0,0,1,421.442,204.83Z" transform="translate(-319.763 -101.836)" fill="#263238"/>
      <path id="Path_8607" data-name="Path 8607" d="M411.185,166.6c.062,0,0,7.357-.093,16.431s-.248,16.423-.309,16.423,0-7.357.093-16.431S411.123,166.6,411.185,166.6Z" transform="translate(-319.54 -93.358)" fill="#263238"/>
      <path id="Path_8608" data-name="Path 8608" d="M343.053,86.146a5.26,5.26,0,0,0-5.415,1.9,4.974,4.974,0,0,0-.077,5.678,5.725,5.725,0,0,0,4.378,2.2,9.422,9.422,0,0,0,4.843-1.261l.248-4.355a5.616,5.616,0,0,0-3.976-4.154Z" transform="translate(-302.773 -75.106)" fill="#263238"/>
      <path id="Path_8609" data-name="Path 8609" d="M356.33,106.988a24.5,24.5,0,0,1,3.574,11.549,14.371,14.371,0,0,1-4.4,11,3.094,3.094,0,0,1-2.073.959c-.774,0-1.547-.859-1.222-1.547a10.057,10.057,0,0,1-2.46,3.234,1.81,1.81,0,0,1-1.2.572,1.369,1.369,0,0,1-1.168-1.338,4.015,4.015,0,0,1,.487-1.864,4.493,4.493,0,0,0-2.112,1.029c-.681.418-1.694.6-2.158-.046s-.085-1.369.255-2c1.547-2.847,3.094-5.848,3.164-9.089.046-2.321-.681-4.641-.364-6.908a7.883,7.883,0,0,1,5.075-6.189,4.361,4.361,0,0,1,4.549.673" transform="translate(-304.284 -79.641)" fill="#263238"/>
      <path id="Path_8610" data-name="Path 8610" d="M383.2,117.545c1.408-2.228,4.332-3.141,5.415-5.547,1.9-4.239,1.346-8,.866-12.617-.333-3.164-.34-7.689-2.46-10.056a58.193,58.193,0,0,1-3.868-4.456c-1.493-1.957-3.094-4.293-1.9-6.459" transform="translate(-312.764 -73.389)" fill="#263238"/>
      <path id="Path_8611" data-name="Path 8611" d="M382.672,117.488a4.641,4.641,0,0,1,3.419-1.648,4.587,4.587,0,0,1,1.926.387l-6.738-38.47c1.733-.364,6.026,1.71,7.287,2.963a16.245,16.245,0,0,1,2.862,4.471c3.233,6.529,1.88,14.8-.774,21.126h0c2.406,5.02,2.816,9.855-.062,13.151l-.046.054-.41.48a4.409,4.409,0,0,0-.967,3.868v.054a4.271,4.271,0,0,1,.186,1.207,1.153,1.153,0,0,1-.588,1.006c-.6.278-1.284-.232-1.6-.812a7.736,7.736,0,0,0-.928-1.748,21.484,21.484,0,0,0-.843,2.274c-.356.727-1.261,1.338-1.949.921a1.856,1.856,0,0,1-.619-.774,11.974,11.974,0,0,1-1.362-4.255A5.848,5.848,0,0,1,382.672,117.488Z" transform="translate(-312.865 -73.232)" fill="#263238"/>
      <path id="Path_8612" data-name="Path 8612" d="M353.843,96.221l2.6,28.87c.619,5.709,13.259,9.221,13.259,9.221l3.473,4.2,1.478-4.641c.913-1.462,2.793-3.2,2.468-6.189-.278-2.53-.433-5.531-.441-5.794,0,0,8.293-2.483,8-11.008-.139-4.123-.727-11.016-1.7-18.659a15.9,15.9,0,0,0-16.508-13.847h-.82C356.805,79.38,352.667,87.41,353.843,96.221Z" transform="translate(-306.608 -73.377)" fill="#ffd6be"/>
      <path id="Path_8613" data-name="Path 8613" d="M380.175,133.95a19.8,19.8,0,0,1-11.255-2.63s2.909,6,11.379,4.843Z" transform="translate(-310.067 -85.369)" fill="#ffb294"/>
      <path id="Path_8614" data-name="Path 8614" d="M386.073,106.694a1.207,1.207,0,0,1-1.114,1.284,1.153,1.153,0,0,1-1.3-1.037,1.214,1.214,0,0,1,1.114-1.284,1.16,1.16,0,0,1,1.3,1.037Z" transform="translate(-313.404 -79.557)" fill="#263238"/>
      <path id="Path_8615" data-name="Path 8615" d="M387.644,101.388a23,23,0,0,0-2.321.371c-1.23.371-2.1.967-2.259.921s.039-.209.4-.487a5.84,5.84,0,0,1,1.787-.843,4.951,4.951,0,0,1,1.9-.186C387.528,101.21,387.7,101.326,387.644,101.388Z" transform="translate(-313.257 -78.536)" fill="#263238"/>
      <path id="Path_8616" data-name="Path 8616" d="M370.111,107.3A1.207,1.207,0,0,1,369,108.578a1.168,1.168,0,0,1-1.307-1.037,1.23,1.23,0,0,1,1.114-1.284,1.168,1.168,0,0,1,1.307,1.044Z" transform="translate(-309.788 -79.692)" fill="#263238"/>
      <path id="Path_8617" data-name="Path 8617" d="M371.367,103.763c-.17.046-.951-.541-2.212-.874s-2.321-.232-2.421-.348.139-.162.6-.217a5.586,5.586,0,0,1,1.965.186,5.144,5.144,0,0,1,1.733.774C371.367,103.562,371.452,103.748,371.367,103.763Z" transform="translate(-309.566 -78.8)" fill="#263238"/>
      <path id="Path_8618" data-name="Path 8618" d="M379.231,112.006a8.169,8.169,0,0,1,2.1-.48c.333-.054.65-.132.7-.364a1.764,1.764,0,0,0-.271-.982c-.356-.774-.719-1.624-1.114-2.5a43.528,43.528,0,0,1-2.53-6.552,44.464,44.464,0,0,1,3.056,6.336l1.068,2.514a1.957,1.957,0,0,1,.232,1.3.851.851,0,0,1-.526.518,2.4,2.4,0,0,1-.565.108A8.309,8.309,0,0,1,379.231,112.006Z" transform="translate(-312.146 -78.533)" fill="#263238"/>
      <path id="Path_8619" data-name="Path 8619" d="M374.578,116.59c.217,0,.286,1.4,1.547,2.321s2.769.727,2.785.921-.325.294-.959.34a3.543,3.543,0,0,1-2.321-.688,3.094,3.094,0,0,1-1.2-1.973C374.338,116.946,374.477,116.59,374.578,116.59Z" transform="translate(-311.308 -82.034)" fill="#263238"/>
      <path id="Path_8620" data-name="Path 8620" d="M370.509,94.984c-.108.364-1.423.255-2.955.511s-2.746.735-2.971.425c-.093-.147.108-.5.588-.866a5.059,5.059,0,0,1,2.174-.874,4.974,4.974,0,0,1,2.321.162C370.262,94.544,370.556,94.8,370.509,94.984Z" transform="translate(-309.08 -76.944)" fill="#263238"/>
      <path id="Path_8621" data-name="Path 8621" d="M387.6,96.466c-.217.317-1.207.1-2.359.193s-2.112.4-2.367.116c-.116-.139,0-.456.41-.774a3.435,3.435,0,0,1,1.872-.665,3.373,3.373,0,0,1,1.942.418C387.542,96.017,387.7,96.311,387.6,96.466Z" transform="translate(-313.217 -77.219)" fill="#263238"/>
      <path id="Path_8622" data-name="Path 8622" d="M338.936,107.566c-1.068-.395-.851-3.713.255-4.943,2.878-3.2,6.962-13.151,6.962-13.151,1.632-4.177.82-7.627,5.09-11.975,3.094-3.172,7.217-5.616,11.6-5.577s8.912,2.854,10.211,7.163l-.812-1.06c.271,1.547-1.3,2.831-2.808,3.094s-3.056-.209-4.587-.147a9.188,9.188,0,0,0-7.2,4.781,19.247,19.247,0,0,0-2.228,8.757c-.162,3.04,0,6.1-.217,9.128-.248,3.257-1.988,4.494-4.255,6.792a47.251,47.251,0,0,0-5.825,7.21,4.17,4.17,0,0,1-3.234,1.663c-.975-.147-1.346-1.547-1.547-2.537s.41-2.212.348-3.713a3.094,3.094,0,0,1-1.795-2.321C338.719,109.647,339.911,107.914,338.936,107.566Z" transform="translate(-303.12 -71.919)" fill="#263238"/>
      <path id="Path_8623" data-name="Path 8623" d="M354.709,111.874c-.147-.062-5.933-1.462-5.477,4.355s6.189,4.154,6.189,3.984S354.709,111.874,354.709,111.874Z" transform="translate(-305.603 -80.923)" fill="#ffd6be"/>
      <path id="Path_8624" data-name="Path 8624" d="M353.921,118.727a2.544,2.544,0,0,1-.263.17,1.068,1.068,0,0,1-.774.077,2.526,2.526,0,0,1-1.338-2.158,3.4,3.4,0,0,1,.17-1.478,1.176,1.176,0,0,1,.7-.835.518.518,0,0,1,.619.232c.085.155.062.271.093.278s.116-.1.054-.34a.673.673,0,0,0-.263-.348.774.774,0,0,0-.572-.1,1.423,1.423,0,0,0-.982.982,3.489,3.489,0,0,0-.224,1.648,2.64,2.64,0,0,0,1.679,2.4,1.091,1.091,0,0,0,.913-.232C353.921,118.866,353.937,118.735,353.921,118.727Z" transform="translate(-306.037 -81.495)" fill="#ffb294"/>
      <path id="Path_8625" data-name="Path 8625" d="M405.673,209.817l-11.255-.147a2.12,2.12,0,0,0-1.872,1.075l-7.736,16.678.286,1.129h13.1l7.651-17.2Z" transform="translate(-313.665 -103.11)" fill="#263238"/>
      <path id="Path_8626" data-name="Path 8626" d="M405.835,212.72l-.41.936-2.282,4.641s-5.91-.534-6.831-.658-1.431.866-1.493,1.454a2.081,2.081,0,0,0,.5,1.245,27.227,27.227,0,0,1-4.889-2.019c-1.238-.866-1.857-.317-1.857-.317a1.7,1.7,0,0,0-2.6.317,21.129,21.129,0,0,0,1.795,4.347c.5.774,3.218,3.4,3.4,3.705s2.321.866,4.7,2.189a3.6,3.6,0,0,0,4.185-.433h.34c.557-.062,2.042-1.485,2.414-1.447s.681-.039,1.423-.866a24.475,24.475,0,0,0,3.264-6.189c.433-1.47.178-1.849.054-1.942a7.318,7.318,0,0,0,2.189.642c1.547.248,2.321-.866,2.475-2.971S407.568,213.277,405.835,212.72Z" transform="translate(-313.927 -103.801)" fill="#ffd6be"/>
      <path id="Path_8627" data-name="Path 8627" d="M407.783,224.525a1.685,1.685,0,0,1-.395.1c-.248.046-.627.093-1.083.131a12.927,12.927,0,0,1-6.962-1.547,9.492,9.492,0,0,1-.936-.572,1.779,1.779,0,0,1-.317-.248s.5.286,1.315.7a14.529,14.529,0,0,0,3.373,1.184,14.9,14.9,0,0,0,3.558.317C407.21,224.587,407.775,224.494,407.783,224.525Z" transform="translate(-316.672 -105.99)" fill="#ffb294"/>
      <path id="Path_8628" data-name="Path 8628" d="M409.947,219.7a3.906,3.906,0,0,1-2.777.124,9.918,9.918,0,0,1,1.392,0C409.328,219.821,409.932,219.643,409.947,219.7Z" transform="translate(-318.728 -105.378)" fill="#ffb294"/>
      <path id="Path_8629" data-name="Path 8629" d="M413.239,219.123c0,.054-.859-.3-1.934-.6s-1.973-.433-1.965-.487a6.305,6.305,0,0,1,2.019.3,6.236,6.236,0,0,1,1.88.781Z" transform="translate(-319.219 -105.005)" fill="#ffb294"/>
      <path id="Path_8630" data-name="Path 8630" d="M413.574,214.3c.054,0-.162.665-.17,1.485a3.164,3.164,0,0,0,.108,1.021.773.773,0,0,0,.24.333h-.132a.542.542,0,0,1-.232-.255,2.468,2.468,0,0,1-.17-1.083,2.668,2.668,0,0,1,.356-1.5Z" transform="translate(-320.096 -104.158)" fill="#ffb294"/>
      <path id="Path_8631" data-name="Path 8631" d="M402.134,227.523a.634.634,0,0,1-.178,0h-.526a19.068,19.068,0,0,1-1.926-.155,14.622,14.622,0,0,1-2.808-.588,9.389,9.389,0,0,1-1.547-.681c-.518-.279-1.029-.611-1.547-.944-2.321-1.5-4.448-2.854-5.8-3.744h0v-.039a1.926,1.926,0,0,1,1.1-1.547.253.253,0,0,0,.132-.046,4.285,4.285,0,0,0-.441.317,2.027,2.027,0,0,0-.673,1.307v-.062c1.369.851,3.481,2.181,5.833,3.69.526.333,1.029.658,1.547.936a8.8,8.8,0,0,0,1.547.673,14.806,14.806,0,0,0,2.762.627c.774.108,1.462.162,1.918.209l.518.054Z" transform="translate(-314.342 -105.399)" fill="#ffb294"/>
      <path id="Path_8632" data-name="Path 8632" d="M400.214,230.515a3.538,3.538,0,0,1-.557-.062c-.356-.054-.866-.139-1.493-.278a28.388,28.388,0,0,1-4.781-1.478,9.624,9.624,0,0,1-2.375-1.423,13.145,13.145,0,0,1-1.617-1.547,14.844,14.844,0,0,1-.967-1.168,2.508,2.508,0,0,1-.325-.449,2.8,2.8,0,0,1,.379.4c.24.263.58.658,1.013,1.122a15.206,15.206,0,0,0,1.625,1.547,10.058,10.058,0,0,0,2.321,1.385,32.358,32.358,0,0,0,4.734,1.547c.619.155,1.129.263,1.478.34a3.648,3.648,0,0,1,.565.062Z" transform="translate(-314.41 -106.38)" fill="#ffb294"/>
      <path id="Path_8633" data-name="Path 8633" d="M331.894,164.85a32.251,32.251,0,0,1-1.191-3.419,32.12,32.12,0,0,1-.982-3.481,30.3,30.3,0,0,1,1.191,3.419A31.584,31.584,0,0,1,331.894,164.85Z" transform="translate(-301.191 -91.399)" fill="#263238"/>
      <path id="Path_8634" data-name="Path 8634" d="M412.819,153.66a5.561,5.561,0,0,1-.108,1.013c-.093.7-.2,1.547-.325,2.437s-.2,1.733-.278,2.437a4.938,4.938,0,0,1-.155,1.013,5.106,5.106,0,0,1,0-1.021,23.119,23.119,0,0,1,.217-2.46c.116-.959.271-1.81.395-2.429a4.136,4.136,0,0,1,.255-.99Z" transform="translate(-319.805 -90.428)" fill="#263238"/>
      <path id="Path_8635" data-name="Path 8635" d="M380.521,226.81a4.951,4.951,0,0,1-.843.673c-.557.418-1.377.99-2.414,1.663a82.544,82.544,0,0,1-8.4,4.773,81.3,81.3,0,0,1-8.9,3.775c-1.168.418-2.12.727-2.785.913a4.64,4.64,0,0,1-1.044.263,6.408,6.408,0,0,1,1-.418l2.731-1.037c2.321-.89,5.415-2.2,8.819-3.868s6.328-3.381,8.424-4.641l2.483-1.547a5.486,5.486,0,0,1,.936-.549Z" transform="translate(-307.171 -106.991)" fill="#263238"/>
      <g id="Group_2479" data-name="Group 2479" transform="translate(16.771 120.224)" opacity="0.3">
        <path id="Path_8636" data-name="Path 8636" d="M328.359,230.642a32.488,32.488,0,0,0-6.421-2.824,10.776,10.776,0,0,0-6.893.17c-.24.1-.511.255-.526.518s.433.534.774.588c4.3.681,8.842,1,13.151,1.632" transform="translate(-314.52 -227.334)"/>
      </g>
      <g id="Group_2480" data-name="Group 2480" transform="translate(31.453 81.798)" opacity="0.3">
        <path id="Path_8637" data-name="Path 8637" d="M334.335,177.66a45.354,45.354,0,0,0,1.392,22.712Z" transform="translate(-333.499 -177.66)"/>
      </g>
      <path id="Path_8638" data-name="Path 8638" d="M355.379,274.612a56.684,56.684,0,0,1-5.686-5.206c-1.276-1.624-2.112-2.568-2.112-2.568s-5.283-1.547-7.225-3.814-5.129-5.454-5.129-5.454L329,264.13s3.613,5.848,3.907,7.774a54.106,54.106,0,0,0,2.5,7.248l12.014-7.187s2.553,3.582,4.193,3.976C352.927,276.26,355.3,277.242,355.379,274.612Z" transform="translate(-301.028 -113.956)" fill="#ffd6be"/>
      <path id="Path_8639" data-name="Path 8639" d="M324.512,154.39s-4.332,1.1-8.618,17.235c-3.868,14.574-9.144,42.7-8.966,45.525s16.918,28.22,16.918,28.22l3.613,1.284,7.736-6.467s2.537-4.2,1.81-5.229a24.087,24.087,0,0,0-3.945-3.179l-6.359-17.56,3.527-23.277Z" transform="translate(-296.029 -90.593)" fill="#9676ff"/>
      <path id="Path_8640" data-name="Path 8640" d="M324.06,230.3a1.678,1.678,0,0,1,.472,0l1.323.17,4.788.735h.093l.039.093,3.644,9.925,2.731,7.62-.054-.077c.526.441,1.037.82,1.5,1.276a5.168,5.168,0,0,1,1.037,1.485,5.268,5.268,0,0,1,.433,2.885,7.148,7.148,0,0,1-.549,1.787,2.491,2.491,0,0,1-.278.6,3.605,3.605,0,0,1,.17-.642,8.711,8.711,0,0,0,.441-1.771,5.137,5.137,0,0,0-.5-2.731,4.874,4.874,0,0,0-1-1.377c-.425-.41-.975-.774-1.493-1.23h-.039V249l-2.777-7.612c-1.346-3.752-2.584-7.21-3.558-9.956l.124.108-4.765-.874-1.307-.263a2.144,2.144,0,0,1-.48-.108Z" transform="translate(-299.909 -107.776)" fill="#263238"/>
      <path id="Path_8641" data-name="Path 8641" d="M334.725,177c.116,0,.843,11.867,1.632,26.51s1.331,26.526,1.215,26.534-.851-11.859-1.632-26.51S334.609,177,334.725,177Z" transform="translate(-302.321 -95.713)" fill="#263238"/>
      <path id="Path_8642" data-name="Path 8642" d="M351.17,86.6a1.589,1.589,0,0,1,.24-.217l.7-.6a21.758,21.758,0,0,0,2.321-2.421c.928-1.083,1.833-2.53,3.032-4.015a11.511,11.511,0,0,1,4.951-3.636,11.147,11.147,0,0,1,10.714,1.547,4.092,4.092,0,0,1,1.222,1.547,2.654,2.654,0,0,1,.17,1.462,1.95,1.95,0,0,1-.371.851,1.014,1.014,0,0,1-.232.224,2.112,2.112,0,0,0,.511-1.091,2.591,2.591,0,0,0-.2-1.392,4.046,4.046,0,0,0-1.207-1.439A11.139,11.139,0,0,0,362.5,75.987a11.411,11.411,0,0,0-4.866,3.558c-1.191,1.454-2.12,2.893-3.094,3.976a19.213,19.213,0,0,1-2.367,2.305c-.309.255-.557.441-.735.565A1.842,1.842,0,0,1,351.17,86.6Z" transform="translate(-306.048 -72.614)" fill="#455a64"/>
      <path id="Path_8643" data-name="Path 8643" d="M348.58,94.353a17.182,17.182,0,0,0,2.05.511,8.625,8.625,0,0,0,8.7-4.03,18.639,18.639,0,0,0,.936-1.9,2.753,2.753,0,0,1-.147.565,7.233,7.233,0,0,1-.65,1.423A8.509,8.509,0,0,1,355.7,94.4a8.61,8.61,0,0,1-5.09.65,7.341,7.341,0,0,1-1.508-.433,2.4,2.4,0,0,1-.518-.263Z" transform="translate(-305.461 -75.771)" fill="#455a64"/>
      <path id="Path_8644" data-name="Path 8644" d="M336.73,92.625a1.68,1.68,0,0,1,.209-.395,4.247,4.247,0,0,1,.735-1.021,4.92,4.92,0,0,1,7.426.17,4.068,4.068,0,0,1,.681,1.06,1.145,1.145,0,0,1,.147.433,7.736,7.736,0,0,0-1-1.416,4.9,4.9,0,0,0-7.179-.162A8.588,8.588,0,0,0,336.73,92.625Z" transform="translate(-302.778 -75.923)" fill="#455a64"/>
      <path id="Path_8645" data-name="Path 8645" d="M350,126.3a1.7,1.7,0,0,1-.286-.24,8.877,8.877,0,0,1-.774-.774,12.648,12.648,0,0,1-2.151-3.319,13.352,13.352,0,0,1-1.176-5.732,14.466,14.466,0,0,1,2.042-6.862,42.044,42.044,0,0,1,4.193-5.833c1.4-1.71,2.646-3.249,3.582-4.641a25.363,25.363,0,0,0,2-3.388c.162-.395.3-.719.418-.99a2.836,2.836,0,0,1,.162-.34,1.733,1.733,0,0,1-.116.356c-.108.278-.232.611-.379,1.013A23.34,23.34,0,0,1,355.565,99c-.928,1.392-2.158,2.955-3.543,4.641a42.317,42.317,0,0,0-4.154,5.817,14.319,14.319,0,0,0-2.034,6.746,13.344,13.344,0,0,0,1.106,5.655,13.041,13.041,0,0,0,2.065,3.326C349.616,125.951,350.019,126.276,350,126.3Z" transform="translate(-304.788 -76.96)" fill="#455a64"/>
      <path id="Path_8646" data-name="Path 8646" d="M371.313,153.76a2.064,2.064,0,0,1-.7.124,13.443,13.443,0,0,1-1.9,0,15.425,15.425,0,0,1-10.946-5.6,11.862,11.862,0,0,1-1.1-1.547,1.966,1.966,0,0,1-.309-.627c.054-.039.565.82,1.624,2a16.539,16.539,0,0,0,10.753,5.5C370.315,153.76,371.305,153.675,371.313,153.76Z" transform="translate(-307.223 -88.718)" fill="#263238"/>
      <path id="Path_8647" data-name="Path 8647" d="M386.014,142.68a3.976,3.976,0,0,1,.41,1.625,8.006,8.006,0,0,1-3.094,7.179,3.868,3.868,0,0,1-1.47.774c0-.062.534-.364,1.292-1.021a8.942,8.942,0,0,0,2.321-3.094,8.765,8.765,0,0,0,.7-3.814C386.107,143.314,385.944,142.7,386.014,142.68Z" transform="translate(-312.997 -87.942)" fill="#263238"/>
    </g>
  </g>
</svg>
