<svg xmlns="http://www.w3.org/2000/svg" viewBox="0 0 500 500"><g id="freepik--background-simple--inject-58"><path d="M367,243c-23.07-23-57.46-31.44-90-30.48-24.86.74-50.25,6.7-70.28,21.45-20.4,15-33.88,38.44-39,63.24s-2.23,50.88,5.87,74.88c6.75,20,17.39,39.16,33.47,52.82s43.87,21.14,83,4.68h0a246.26,246.26,0,0,0,29.3-11.43c32.28-14.84,59.37-42.34,69.94-76.25S392.15,268.05,367,243Z" style="fill:#f5f5f5"></path><circle cx="132.46" cy="94.91" r="29.64" transform="matrix(0.16, -0.99, 0.99, 0.16, 17.39, 210.28)" style="fill:#f5f5f5"></circle><circle cx="121.75" cy="332.33" r="14.51" style="fill:#f5f5f5"></circle><circle cx="422.28" cy="276.52" r="11.4" style="fill:#f5f5f5"></circle></g><g id="freepik--Floor--inject-58"><path d="M467.09,446.25c0,.15-97.2.26-217.08.26s-217.1-.11-217.1-.26S130.09,446,250,446,467.09,446.11,467.09,446.25Z" style="fill:#263238"></path></g><g id="freepik--Plant--inject-58"><polygon points="394.99 404.46 401.35 446.25 438.3 446.25 446.87 405.06 394.99 404.46" style="fill:#9676FF"></polygon><path d="M441.71,431.24c0,.12-9.47.22-21.15.22s-21.15-.1-21.15-.22,9.47-.21,21.15-.21S441.71,431.13,441.71,431.24Z" style="fill:#fafafa"></path><path d="M441.85,429.19c0,.12-9.53.22-21.29.22s-21.29-.1-21.29-.22,9.53-.22,21.29-.22S441.85,429.07,441.85,429.19Z" style="fill:#fafafa"></path><path d="M441.78,426.87c0,.12-9.54.21-21.29.21s-21.29-.09-21.29-.21,9.53-.22,21.29-.22S441.78,426.75,441.78,426.87Z" style="fill:#fafafa"></path><path d="M405.59,443.87a34,34,0,0,1-1.13-5.26,33.35,33.35,0,0,1-.71-5.34,32.64,32.64,0,0,1,1.13,5.26A33.35,33.35,0,0,1,405.59,443.87Z" style="fill:#fafafa"></path><path d="M408.1,443.43a41.44,41.44,0,0,1-.45-5.14,39.1,39.1,0,0,1-.24-5.15,25.33,25.33,0,0,1,.67,5.12A24.81,24.81,0,0,1,408.1,443.43Z" style="fill:#fafafa"></path><path d="M412.69,443.42a25.52,25.52,0,0,1-1-5.26,26.87,26.87,0,0,1-.28-5.35,43.83,43.83,0,0,1,.71,5.3A45.3,45.3,0,0,1,412.69,443.42Z" style="fill:#fafafa"></path><path d="M415.9,443.64a26.4,26.4,0,0,1-.51-5.34,26.94,26.94,0,0,1,.16-5.38,42.39,42.39,0,0,1,.27,5.36A45.19,45.19,0,0,1,415.9,443.64Z" style="fill:#fafafa"></path><path d="M421.6,443.43a60.3,60.3,0,0,1-.35-10.17,30.42,30.42,0,0,1,.39,5.07A32.51,32.51,0,0,1,421.6,443.43Z" style="fill:#fafafa"></path><path d="M425.75,443.65a33,33,0,0,1-.17-5.26,31.47,31.47,0,0,1,.26-5.25,64.32,64.32,0,0,1-.09,10.51Z" style="fill:#fafafa"></path><path d="M429.65,443.09a34.31,34.31,0,0,1,.32-5.49,36.54,36.54,0,0,1,.74-5.45,34.94,34.94,0,0,1-.31,5.49A34.29,34.29,0,0,1,429.65,443.09Z" style="fill:#fafafa"></path><path d="M434.68,442.54a19.23,19.23,0,0,1,.62-4.67,18.32,18.32,0,0,1,1.38-4.5,46.19,46.19,0,0,1-.95,4.59A43.37,43.37,0,0,1,434.68,442.54Z" style="fill:#fafafa"></path><path d="M431.12,322a.87.87,0,0,1,0,.21c-.05.16-.11.35-.18.59-.17.55-.4,1.3-.7,2.25s-.69,2.18-1.08,3.58-.9,3-1.34,4.77-1,3.71-1.44,5.82-.94,4.35-1.42,6.73c-.89,4.76-1.69,10-2.27,15.59s-.79,10.9-.86,15.75c0,2.42,0,4.72.07,6.88s.15,4.16.26,6,.25,3.48.36,4.93.24,2.7.36,3.72.18,1.78.24,2.35c0,.25,0,.45.06.61s0,.21,0,.21,0-.06-.05-.2,0-.36-.09-.61l-.33-2.34c-.14-1-.3-2.26-.43-3.72s-.33-3.1-.43-4.93-.26-3.84-.31-6-.1-4.47-.11-6.9c.05-4.86.29-10.2.83-15.78s1.4-10.86,2.31-15.63c.49-2.38.93-4.64,1.46-6.74s1-4,1.5-5.81,1-3.36,1.39-4.76S429.7,326,430,325l.78-2.23c.09-.23.16-.42.21-.58A1.07,1.07,0,0,1,431.12,322Z" style="fill:#455a64"></path><path d="M424.45,347.86a13.72,13.72,0,0,1,5.75-7.25,3.27,3.27,0,0,1,3-.56c1.29.62,1.39,2.44,1,3.81a10.06,10.06,0,0,1-4.18,5.7,8.49,8.49,0,0,1-6.27,1.59" style="fill:#455a64"></path><path d="M422.21,365.34c1-3.61,3.83-8.74,6.82-11a4.48,4.48,0,0,1,1.55-.83,1.83,1.83,0,0,1,1.66.36,2.56,2.56,0,0,1,.37,2.4,14.55,14.55,0,0,1-10.78,10.85" style="fill:#455a64"></path><path d="M421.59,380.72a21.09,21.09,0,0,1,6.88-8.65,3.31,3.31,0,0,1,2.4-.86c1.31.24,1.9,1.83,1.78,3.16-.23,2.72-2.31,4.9-4.46,6.59a27.66,27.66,0,0,1-6.36,3.27" style="fill:#455a64"></path><path d="M421.94,391.78a20.41,20.41,0,0,1,5.85-6.67,4.35,4.35,0,0,1,1.76-.78,1.79,1.79,0,0,1,1.72.65c.59.87,0,2-.6,2.86a16.69,16.69,0,0,1-8.35,6.13" style="fill:#455a64"></path><path d="M421.65,387.29a65.57,65.57,0,0,0-8.38-8.53c-.47-.4-1.07-.82-1.66-.63a1.24,1.24,0,0,0-.77,1.12,3.09,3.09,0,0,0,.32,1.4,16.23,16.23,0,0,0,10.78,9.07" style="fill:#455a64"></path><path d="M421.91,372.9l-6.57-8a8.25,8.25,0,0,0-2.14-2,2.69,2.69,0,0,0-2.8,0,2.65,2.65,0,0,0-.9,2.65,6.86,6.86,0,0,0,1.28,2.63,19.37,19.37,0,0,0,4.79,5.09c1.93,1.33,3.69,2.2,6,1.85" style="fill:#455a64"></path><path d="M422.83,356.7a23,23,0,0,0-6.62-9.94,3.93,3.93,0,0,0-1.72-1,2.91,2.91,0,0,0-3,2.12,5.46,5.46,0,0,0,.6,4.36,11.42,11.42,0,0,0,3.09,3.26,26.49,26.49,0,0,0,7.32,4" style="fill:#455a64"></path><path d="M425.46,342.25c-.64-4.65-3.06-8.52-5.86-12.28-.59-.79-1.42-1.63-2.4-1.48a1.89,1.89,0,0,0-1.37,1.18,4.27,4.27,0,0,0-.26,1.85,14.36,14.36,0,0,0,9.32,12.83" style="fill:#455a64"></path><path d="M427.3,334.87a38.34,38.34,0,0,1-.24-7.18,12.86,12.86,0,0,1,2.38-6.7,5.47,5.47,0,0,1,2.39-1.9,3,3,0,0,1,2.93.39,3.18,3.18,0,0,1,1,2.58,7.87,7.87,0,0,1-.74,2.75c-1.75,4.21-4.67,8.88-7.72,10.06" style="fill:#455a64"></path><path d="M398.64,340.41a2.52,2.52,0,0,1,0,.59c0,.43,0,1,0,1.69s0,1.63,0,2.67,0,2.22.13,3.53c.11,2.61.37,5.72.76,9.15s1,7.2,1.82,11.1,1.81,7.59,2.8,10.9,2,6.26,3,8.7c.44,1.23.91,2.31,1.3,3.28s.74,1.79,1,2.46l.66,1.55a3.41,3.41,0,0,1,.21.56,3.56,3.56,0,0,1-.29-.52c-.18-.39-.43-.89-.73-1.52s-.7-1.47-1.11-2.44-.89-2-1.36-3.26c-1-2.43-2-5.38-3.08-8.69s-2-7-2.83-10.93-1.39-7.69-1.79-11.14-.6-6.57-.68-9.19c-.07-1.31-.05-2.5-.06-3.54s0-1.94,0-2.67.05-1.26.06-1.69A3.86,3.86,0,0,1,398.64,340.41Z" style="fill:#263238"></path><path d="M399.67,359.47a9.85,9.85,0,0,1,2.35-6.18,2.35,2.35,0,0,1,2-1c1,.14,1.48,1.36,1.51,2.38a7.22,7.22,0,0,1-1.62,4.78,6.09,6.09,0,0,1-3.93,2.43" style="fill:#263238"></path><path d="M401.91,371.85c-.13-2.66.73-6.77,2.28-8.94a3.24,3.24,0,0,1,.88-.89,1.31,1.31,0,0,1,1.21-.12,1.81,1.81,0,0,1,.76,1.55,10.38,10.38,0,0,1-5,9.71" style="fill:#263238"></path><path d="M404.8,382.46a15.1,15.1,0,0,1,2.82-7.38,2.36,2.36,0,0,1,1.45-1.1c.94-.12,1.69.84,1.89,1.77.43,1.9-.52,3.83-1.62,5.45a19.89,19.89,0,0,1-3.62,3.59" style="fill:#263238"></path><path d="M407.41,389.91a14.64,14.64,0,0,1,2.56-5.8,3,3,0,0,1,1-.91,1.3,1.3,0,0,1,1.32.07c.58.46.45,1.38.2,2.08a11.87,11.87,0,0,1-4.37,6" style="fill:#263238"></path><path d="M406.25,386.92a45.77,45.77,0,0,0-7.54-4,1.34,1.34,0,0,0-1.27-.07.89.89,0,0,0-.28.93,2.19,2.19,0,0,0,.52.88,11.6,11.6,0,0,0,9.29,3.86" style="fill:#263238"></path><path d="M403.33,377.06l-6.2-4a5.53,5.53,0,0,0-1.89-.92,1.7,1.7,0,0,0-2,2.57,5,5,0,0,0,1.44,1.52,14.11,14.11,0,0,0,4.36,2.44,5.69,5.69,0,0,0,4.49,0" style="fill:#263238"></path><path d="M400.47,365.83a16.37,16.37,0,0,0-6.65-5.34,2.72,2.72,0,0,0-1.39-.31,2.06,2.06,0,0,0-1.59,2.09,3.85,3.85,0,0,0,1.34,2.83,8.17,8.17,0,0,0,2.81,1.56,18.78,18.78,0,0,0,5.83,1.12" style="fill:#263238"></path><path d="M399.15,355.43c-1.43-3-3.91-5.14-6.63-7.1-.58-.41-1.32-.81-1.95-.49a1.33,1.33,0,0,0-.68,1.09,3.06,3.06,0,0,0,.22,1.33,10.24,10.24,0,0,0,9.1,6.72" style="fill:#263238"></path><path d="M398.81,350a27.84,27.84,0,0,1-1.71-4.84,9.2,9.2,0,0,1,.19-5.07,4,4,0,0,1,1.21-1.81,2.16,2.16,0,0,1,2.08-.37,2.28,2.28,0,0,1,1.24,1.54,5.82,5.82,0,0,1,.09,2c-.29,3.24-1.27,7.05-3.1,8.51" style="fill:#263238"></path><path d="M445.36,340a2.65,2.65,0,0,1,.05.58c0,.43,0,1,.07,1.69s0,1.63,0,2.67,0,2.23-.07,3.54c-.07,2.63-.29,5.74-.67,9.19s-1,7.23-1.79,11.15-1.82,7.61-2.84,10.92-2.09,6.26-3.07,8.69c-.47,1.23-1,2.31-1.37,3.27s-.78,1.77-1.1,2.43-.55,1.14-.74,1.52a2.94,2.94,0,0,1-.28.52,3.57,3.57,0,0,1,.2-.55c.17-.4.39-.91.66-1.56s.66-1.49,1-2.46.85-2.05,1.3-3.28c1-2.44,2-5.39,3-8.69s2-7,2.79-10.9,1.4-7.67,1.82-11.1.65-6.54.77-9.16c.08-1.31.09-2.49.13-3.53s0-1.93,0-2.67,0-1.26,0-1.68A4.44,4.44,0,0,1,445.36,340Z" style="fill:#455a64"></path><path d="M444.33,359.06a9.74,9.74,0,0,0-2.35-6.17,2.34,2.34,0,0,0-2-1c-1,.15-1.47,1.36-1.5,2.38a7.15,7.15,0,0,0,1.62,4.78,6.05,6.05,0,0,0,3.93,2.43" style="fill:#455a64"></path><path d="M442.1,371.44c.13-2.66-.73-6.77-2.28-8.93a3.28,3.28,0,0,0-.88-.9,1.28,1.28,0,0,0-1.21-.11,1.84,1.84,0,0,0-.77,1.55,10.39,10.39,0,0,0,5,9.71" style="fill:#455a64"></path><path d="M439.21,382.05a15.07,15.07,0,0,0-2.82-7.37,2.33,2.33,0,0,0-1.45-1.1c-.94-.12-1.69.84-1.9,1.76-.42,1.91.52,3.84,1.62,5.45a19.65,19.65,0,0,0,3.63,3.6" style="fill:#455a64"></path><path d="M436.59,389.51a14.36,14.36,0,0,0-2.55-5.8,3,3,0,0,0-1-.92,1.28,1.28,0,0,0-1.31.08c-.59.46-.46,1.37-.21,2.07a11.94,11.94,0,0,0,4.37,6" style="fill:#455a64"></path><path d="M437.76,386.51a46.39,46.39,0,0,1,7.53-4,1.34,1.34,0,0,1,1.27-.08.89.89,0,0,1,.28.94,2.24,2.24,0,0,1-.51.88A11.56,11.56,0,0,1,437,388.1" style="fill:#455a64"></path><path d="M440.67,376.65l6.21-4a5.68,5.68,0,0,1,1.88-.92,1.94,1.94,0,0,1,1.92.58,1.89,1.89,0,0,1,0,2,4.85,4.85,0,0,1-1.44,1.52,13.92,13.92,0,0,1-4.35,2.43,5.73,5.73,0,0,1-4.49,0" style="fill:#455a64"></path><path d="M443.54,365.43a16.33,16.33,0,0,1,6.64-5.34,2.73,2.73,0,0,1,1.39-.32,2.08,2.08,0,0,1,1.6,2.09,3.87,3.87,0,0,1-1.35,2.84,8.2,8.2,0,0,1-2.8,1.56,19.06,19.06,0,0,1-5.84,1.11" style="fill:#455a64"></path><path d="M444.86,355c1.43-3,3.91-5.15,6.63-7.1a2,2,0,0,1,1.95-.5,1.36,1.36,0,0,1,.68,1.1,3.33,3.33,0,0,1-.22,1.32,10.27,10.27,0,0,1-9.11,6.73" style="fill:#455a64"></path><path d="M445.19,349.61a27.13,27.13,0,0,0,1.71-4.85,9.1,9.1,0,0,0-.18-5.07,3.89,3.89,0,0,0-1.22-1.81,2.15,2.15,0,0,0-2.08-.36,2.27,2.27,0,0,0-1.23,1.54,5.76,5.76,0,0,0-.09,2c.28,3.25,1.27,7.06,3.09,8.52" style="fill:#455a64"></path><path d="M390.75,396.18V404a3.07,3.07,0,0,0,3.07,3.08h53.51a3.08,3.08,0,0,0,3.08-3.08v-7.82Z" style="fill:#9676FF"></path><g style="opacity:0.4"><polygon points="395.38 407.08 395.83 409.57 445.2 413.09 446.45 407.08 395.38 407.08"></polygon></g></g><g id="freepik--character-2--inject-58"><path d="M333.07,285.93c-.13.05-11.62-28-25.66-62.6s-25.31-62.75-25.17-62.81,11.62,28,25.66,62.61S333.21,285.87,333.07,285.93Z" style="fill:#9676FF"></path><path d="M364.49,307.42c-.06,0,.12-.9.27-2.52a20.62,20.62,0,0,0-.6-6.79,19.89,19.89,0,0,0-4.79-8.81,20.29,20.29,0,0,0-4.64-3.74,22,22,0,0,0-5.94-2.34,22.27,22.27,0,0,0-6.38-.37,20.79,20.79,0,0,0-5.77,1.45A21.4,21.4,0,0,0,332,287a21.13,21.13,0,0,0-3.37,3.29,20.72,20.72,0,0,0-3.39,5.92c-.54,1.53-.75,2.41-.81,2.4a3.47,3.47,0,0,1,.12-.65,16.26,16.26,0,0,1,.5-1.81,19.94,19.94,0,0,1,3.29-6.09,21.78,21.78,0,0,1,3.39-3.41,22,22,0,0,1,4.76-2.79,21.12,21.12,0,0,1,5.91-1.52,22.68,22.68,0,0,1,6.54.37,21.89,21.89,0,0,1,6.09,2.41,20.78,20.78,0,0,1,4.73,3.85,21.92,21.92,0,0,1,3.15,4.53,21,21,0,0,1,1.65,4.52,19.71,19.71,0,0,1,.44,6.9,15.3,15.3,0,0,1-.31,1.86A3.29,3.29,0,0,1,364.49,307.42Z" style="fill:#9676FF"></path><path d="M354.74,285.25c-.13-.07,5.34-9.51,12.2-21.08s12.54-20.9,12.66-20.82-5.34,9.51-12.21,21.08S354.86,285.33,354.74,285.25Z" style="fill:#9676FF"></path><path d="M364.43,307.08s0,.1-.05.3l-.19.89a19,19,0,0,1-1.07,3.34,21.67,21.67,0,0,1-2.89,4.84,21.12,21.12,0,0,1-5.78,4.93,20.64,20.64,0,0,1-9,2.68,20.93,20.93,0,0,1-10.73-2.22,22.84,22.84,0,0,1-4.95-3.54,22.1,22.1,0,0,1-3.86-5.15,20.84,20.84,0,0,1-2.13-13.44l.16.27L280,285.14,205.79,260l-22.47-7.69-6.1-2.12-1.59-.56-.53-.21a5.62,5.62,0,0,1,.55.16l1.6.51,6.13,2,22.53,7.54,74.28,25,43.92,14.88.19.06,0,.2a20.48,20.48,0,0,0,2,13.16,20.21,20.21,0,0,0,8.61,8.54,20.46,20.46,0,0,0,19.38-.36,20.89,20.89,0,0,0,5.76-4.82,21.55,21.55,0,0,0,2.92-4.76,19.85,19.85,0,0,0,1.13-3.3l.23-.88A1.32,1.32,0,0,1,364.43,307.08Z" style="fill:#9676FF"></path><path d="M242.38,194.47c2-6-3.78-12.23-8.67-13.3s-9.33.49-13.09,3.8c-2.87,2.52-5.36,6.31-9.18,6.35-2.11,0-4-1.16-6-2s-4.45-1.14-6,.32a4.39,4.39,0,0,0-1,4,12.19,12.19,0,0,0,1.72,3.91,4.78,4.78,0,0,0-1.82,5.63,7.8,7.8,0,0,0,4.49,4.34,22.86,22.86,0,0,0,6.26,1.34c-.83,2.78-1.44,5.91-.08,8.46,1.89,3.54,7,4.3,10.56,2.5s5.88-5.4,7.54-9,2.9-7.53,5.21-10.81,6.06-5.91,10-5.53" style="fill:#263238"></path><path d="M211.18,180.63a1.55,1.55,0,0,0,.25.69,2.66,2.66,0,0,0,1.72,1.19,2.59,2.59,0,0,0,2.95-1.31,3.46,3.46,0,0,0,.4-2.09,3.2,3.2,0,0,0-1.15-2.09,4.06,4.06,0,0,0-2.46-.92,4.22,4.22,0,0,0-2.71.89,5.37,5.37,0,0,0-1.78,2.48,5.76,5.76,0,0,0-.14,3.22,5.84,5.84,0,0,0,1.7,2.94,5.91,5.91,0,0,0,3.22,1.47,5.74,5.74,0,0,0,3.59-.69,10.25,10.25,0,0,0,2.82-2.47c.81-1,1.53-1.95,2.31-2.85a11.49,11.49,0,0,1,2.63-2.31,12.85,12.85,0,0,1,6.24-2,12.13,12.13,0,0,1,5.83,1.11,11.69,11.69,0,0,1,4.08,3.22,13.12,13.12,0,0,1,2.93,6.92,20.86,20.86,0,0,1,0,2.81,9.38,9.38,0,0,0,.17-2.83,13.09,13.09,0,0,0-2.84-7.13,12.23,12.23,0,0,0-4.18-3.36,12.35,12.35,0,0,0-6-1.19,13.11,13.11,0,0,0-6.49,2,12.12,12.12,0,0,0-2.73,2.39c-.81.92-1.53,1.92-2.32,2.86a9.76,9.76,0,0,1-2.67,2.36,5.32,5.32,0,0,1-3.3.64,5.49,5.49,0,0,1-3-1.34,5.36,5.36,0,0,1-1.57-2.7,5.25,5.25,0,0,1,.11-3,4.86,4.86,0,0,1,1.62-2.29,3.77,3.77,0,0,1,4.69,0,3,3,0,0,1,.72,3.78,2.46,2.46,0,0,1-1.23,1.14,2.54,2.54,0,0,1-1.43.11,2.66,2.66,0,0,1-1.68-1A6.31,6.31,0,0,1,211.18,180.63Z" style="fill:#263238"></path><path d="M200.62,182.72a2.84,2.84,0,0,0,.16.7c.12.46.31,1.13.59,2a22.71,22.71,0,0,0,1.22,3.06,12.48,12.48,0,0,0,2.52,3.57,8.74,8.74,0,0,0,4.72,2.4,6.79,6.79,0,0,0,5.68-2,15.2,15.2,0,0,0,3.52-5.71,38.92,38.92,0,0,1,2.84-6.51,12,12,0,0,1,5.27-4.49,13.11,13.11,0,0,1,6.39-1.09,12.08,12.08,0,0,1,3,.64,11.13,11.13,0,0,1,2.54,1.33,12,12,0,0,1,3.49,3.77,13.07,13.07,0,0,1,1.91,7.18,23.08,23.08,0,0,1-.37,2.75,8.94,8.94,0,0,0,.56-2.74,13,13,0,0,0-1.79-7.37,12.5,12.5,0,0,0-3.56-3.93,11.59,11.59,0,0,0-2.63-1.4,12.91,12.91,0,0,0-3.08-.69,13.31,13.31,0,0,0-9.68,3,12.07,12.07,0,0,0-2.44,2.78,38.94,38.94,0,0,0-2.87,6.6,14.86,14.86,0,0,1-3.39,5.56,6.36,6.36,0,0,1-5.3,1.91,8.37,8.37,0,0,1-4.54-2.25,12.56,12.56,0,0,1-2.52-3.43,28.11,28.11,0,0,1-1.28-3c-.28-.81-.5-1.46-.68-2A4.94,4.94,0,0,0,200.62,182.72Z" style="fill:#263238"></path><path d="M206.61,200.52a1.71,1.71,0,0,0,.73-.12,2.92,2.92,0,0,0,1.61-1.35,3,3,0,0,0-.3-3.25,3.63,3.63,0,0,0-4.22-.8,5.4,5.4,0,0,0-3.12,4.26,6.44,6.44,0,0,0,.25,3,6,6,0,0,0,1.79,2.67,8.12,8.12,0,0,0,6.51,1.77,10.07,10.07,0,0,0,6.16-3.85,18.29,18.29,0,0,0,3-6.67,14.76,14.76,0,0,1,2.86-5.94,11.12,11.12,0,0,1,4.95-3.24,10.5,10.5,0,0,1,5.17-.32,11.3,11.3,0,0,1,6.4,3.84,14,14,0,0,1,1.54,2.35,7.72,7.72,0,0,0-1.39-2.47,11.23,11.23,0,0,0-6.48-4.06,10.75,10.75,0,0,0-5.36.27,11.42,11.42,0,0,0-5.18,3.32,11.21,11.21,0,0,0-1.81,2.83,26,26,0,0,0-1.16,3.28,18.15,18.15,0,0,1-2.89,6.5,9.64,9.64,0,0,1-5.84,3.68,7.67,7.67,0,0,1-6.14-1.63,5.8,5.8,0,0,1-1.93-5.3,5,5,0,0,1,2.85-4,3.3,3.3,0,0,1,3.86.65,2.75,2.75,0,0,1,.35,3,2.91,2.91,0,0,1-1.48,1.35C206.87,200.49,206.61,200.49,206.61,200.52Z" style="fill:#455a64"></path><path d="M211.94,220.77s.12.07.36.17a6.18,6.18,0,0,0,1.09.29,7.75,7.75,0,0,0,4.1-.44,7.59,7.59,0,0,0,4.37-4.23,18.12,18.12,0,0,0,1.09-7.43,23.13,23.13,0,0,1,.69-7.32,7.14,7.14,0,0,1,3.57-4.51,5.29,5.29,0,0,1,3.89-.31,6.56,6.56,0,0,1,1.32.67s-.08-.11-.27-.28a3.45,3.45,0,0,0-1-.57,5.33,5.33,0,0,0-4.11.17,7.5,7.5,0,0,0-3.86,4.69,22.88,22.88,0,0,0-.75,7.47,18.15,18.15,0,0,1-1,7.23,7.79,7.79,0,0,1-1.76,2.61,7.89,7.89,0,0,1-2.32,1.48,8,8,0,0,1-4,.57C212.46,220.92,212,220.72,211.94,220.77Z" style="fill:#455a64"></path><path d="M247.73,197.71a4.48,4.48,0,0,0-4.65-7.58c-1.44.66-2.53,2.08-4.09,2.38-1.88.35-4.19-1-5.57.36s-.53,3.75-2,4.73a7.1,7.1,0,0,1-2.12.6,3.09,3.09,0,0,0-.73,5.58,7.23,7.23,0,0,0-2.14,2.47,2.48,2.48,0,0,0,.62,3,3.29,3.29,0,0,0,2.55.22,18,18,0,0,0,6.82-3" style="fill:#9676FF"></path><path d="M242.35,195a6.07,6.07,0,0,0-.39,2.15,6.3,6.3,0,0,0-.11,2.17,4.06,4.06,0,0,0,.61-2.12A4.17,4.17,0,0,0,242.35,195Z" style="fill:#263238"></path><path d="M239.63,195.5c-.1.11.65.92,1.22,2.11s.78,2.27.93,2.25a3.54,3.54,0,0,0-.48-2.47C240.67,196.1,239.71,195.4,239.63,195.5Z" style="fill:#263238"></path><path d="M232.18,201.32c0,.14.78.52,1.72,1.1s1.66,1.14,1.76,1-.5-.85-1.5-1.46A3.24,3.24,0,0,0,232.18,201.32Z" style="fill:#263238"></path><path d="M283.85,210c4.49,3.92,5.46,10.85,3.92,14.62-.78,1.9-2,3.75-1.89,5.8.08,1.77,1.11,3.34,1.81,5a14,14,0,0,1-20.32,17.34" style="fill:#263238"></path><path d="M282.86,236.33c16.13-24.74-10.59-42.47-27-40.42-15.37,1.92-22.78,8.3-26.7,17.79s-5.44,20.19-3,30.17c1.2,4.93,3.92,10.15,8.8,11.49" style="fill:#263238"></path><path d="M271.87,206.58l-27.61,2.68a5.06,5.06,0,0,0-5.25,4.39l-6.7,62.24A15.18,15.18,0,0,0,245,292.49h0a15.18,15.18,0,0,0,17.47-12.95c.83-6.09,1.32-10.42,1.31-10.38s11.2-.15,15.62-14.05c2.21-6.91,3.62-18.58,4.46-28.16C284.59,218.32,280.52,207,271.87,206.58Z" style="fill:#ffbe9d"></path><path d="M265.93,245.69a13.83,13.83,0,0,1,3.28-.09c.5,0,1,0,1.13-.33a2.5,2.5,0,0,0-.11-1.54q-.42-1.92-.9-4c-1.23-5.75-2-10.45-1.81-10.5s1.42,4.58,2.65,10.33c.29,1.42.57,2.77.84,4.07a2.93,2.93,0,0,1,0,2,1.23,1.23,0,0,1-.94.61,3.56,3.56,0,0,1-.87,0A12.05,12.05,0,0,1,265.93,245.69Z" style="fill:#263238"></path><path d="M263.74,269.16a36.67,36.67,0,0,1-18.3-8s3.47,10.31,17.92,11.15Z" style="fill:#eb996e"></path><path d="M264.37,250.3a3.55,3.55,0,0,0-3-1.79,3.3,3.3,0,0,0-2.42.85,2.08,2.08,0,0,0-.51,2.32,2.41,2.41,0,0,0,2.48,1,7.6,7.6,0,0,0,2.74-1.12,2.13,2.13,0,0,0,.65-.5.66.66,0,0,0,.11-.73" style="fill:#eb996e"></path><path d="M259.93,246.17c.33,0,0,2.17,1.6,4s3.9,1.9,3.87,2.2c0,.14-.56.34-1.53.22a5.37,5.37,0,0,1-3.25-1.72,4.69,4.69,0,0,1-1.2-3.29C259.47,246.63,259.79,246.14,259.93,246.17Z" style="fill:#263238"></path><path d="M262.42,226.73c-.28.5-2.2,0-4.55-.12s-4.31.27-4.54-.26c-.1-.25.3-.7,1.13-1.11a7.94,7.94,0,0,1,6.92.29C262.18,226,262.54,226.48,262.42,226.73Z" style="fill:#263238"></path><path d="M281.91,227c-.41.39-1.7-.28-3.32-.55s-3.06-.16-3.3-.67c-.11-.25.18-.66.85-1a4.85,4.85,0,0,1,5.33,1C282,226.32,282.09,226.81,281.91,227Z" style="fill:#263238"></path><path d="M238.61,232.69c-.19-.13-7.11-4.54-8.49,4s7.45,8.15,7.5,7.91S238.61,232.69,238.61,232.69Z" style="fill:#ffbe9d"></path><path d="M235.54,240.92s-.16.08-.43.15a1.54,1.54,0,0,1-1.11-.15c-.85-.48-1.37-2-1.16-3.57a4.85,4.85,0,0,1,.76-2.06,1.74,1.74,0,0,1,1.3-1,.78.78,0,0,1,.81.55c.07.26,0,.42,0,.44s.21-.11.2-.47a1,1,0,0,0-.25-.59,1.16,1.16,0,0,0-.79-.35,2.12,2.12,0,0,0-1.76,1.07,5.09,5.09,0,0,0-.9,2.29c-.23,1.72.39,3.47,1.56,4a1.6,1.6,0,0,0,1.4,0C235.5,241.12,235.57,240.94,235.54,240.92Z" style="fill:#eb996e"></path><path d="M275.36,202.72c4.37,3.17,4.85,13.18,2.13,17.84s-8.17,7.28-13.56,7.63-10.73-1.28-15.66-3.5c-.88,3.41-3.5,6.64-7,7.05-4.63.53-8.49-4.22-8.79-8.87s1.88-9.06,4-13.2" style="fill:#263238"></path><path d="M233,227.94a3.73,3.73,0,0,0,.56.72,22.94,22.94,0,0,0,1.75,1.78,12,12,0,0,0,3.07,2.11,7.2,7.2,0,0,0,4.53.62,7,7,0,0,0,3.88-2.44,9.45,9.45,0,0,0,1.75-3.29,12.43,12.43,0,0,0,.51-2.45,2.72,2.72,0,0,0,0-.92c-.09,0-.19,1.3-.87,3.25a9.73,9.73,0,0,1-1.77,3.11,6.82,6.82,0,0,1-3.63,2.25,7,7,0,0,1-4.25-.55,12.7,12.7,0,0,1-3-1.95C234,228.82,233.09,227.87,233,227.94Z" style="fill:#263238"></path><path d="M213.76,261.65s.05.16.2.43a6.72,6.72,0,0,0,.85,1.1,6.92,6.92,0,0,0,11-1.33,5.06,5.06,0,0,0,.52-4.44,3.23,3.23,0,0,0-1.77-1.71,2.61,2.61,0,0,0-2.53.23,2.89,2.89,0,0,0-1.09,2.3,3.46,3.46,0,0,0,.9,2.29,5.82,5.82,0,0,0,4.1,1.8,6.9,6.9,0,0,0,6.4-3.51,7,7,0,0,0,.6-5,6.08,6.08,0,0,0-.5-1.29,2.14,2.14,0,0,0-.26-.4,12.4,12.4,0,0,1,.57,1.73,6.92,6.92,0,0,1-.72,4.78,6.55,6.55,0,0,1-6.07,3.22,5.33,5.33,0,0,1-3.75-1.67,2.86,2.86,0,0,1-.77-2,2.38,2.38,0,0,1,.88-1.9,2.11,2.11,0,0,1,2-.17,2.72,2.72,0,0,1,1.51,1.45,4.57,4.57,0,0,1-.47,4,6.81,6.81,0,0,1-6,3.34,7.1,7.1,0,0,1-4.44-1.92A13,13,0,0,1,213.76,261.65Z" style="fill:#263238"></path><path d="M217.06,247.37a5.05,5.05,0,0,0,1.63,1.46,10.59,10.59,0,0,0,5,1.74,10.39,10.39,0,0,0,2.93-.13,4.67,4.67,0,0,0,2.23-1,2.4,2.4,0,0,0,.8-1.44c0-.4,0-.61-.08-.6s0,.21-.11.56a2.42,2.42,0,0,1-.84,1.21c-1,.78-2.91,1-4.88.87a11.69,11.69,0,0,1-4.85-1.54C217.72,247.88,217.12,247.3,217.06,247.37Z" style="fill:#263238"></path><path d="M233.53,207.32c-.06,0-.12.69-.58,1.84a13.92,13.92,0,0,1-2.89,4.34c-1.5,1.64-3.64,3.22-5.85,5.21a19.13,19.13,0,0,0-3.12,3.48,15.29,15.29,0,0,0-2.09,4.58,17.5,17.5,0,0,0,.18,9.63,19.69,19.69,0,0,0,3.85,6.87,21.41,21.41,0,0,0,3.92,3.59c.52.35.92.62,1.21.78a2.73,2.73,0,0,0,.45.23s-.56-.41-1.55-1.17a23.57,23.57,0,0,1-3.76-3.65,19.75,19.75,0,0,1-3.68-6.79,17.31,17.31,0,0,1-.14-9.36,15,15,0,0,1,2-4.43,19.77,19.77,0,0,1,3-3.43c2.17-2,4.31-3.61,5.8-5.31a13.26,13.26,0,0,0,2.81-4.5,8,8,0,0,0,.36-1.4A2.77,2.77,0,0,0,233.53,207.32Z" style="fill:#263238"></path><path d="M281.52,211.2s.68.26,1.88.82a13.24,13.24,0,0,1,4.43,3.26,9.75,9.75,0,0,1,1.85,3.28,8.06,8.06,0,0,1,.18,4.27c-.31,1.51-.93,3-1.38,4.7a10.17,10.17,0,0,0-.4,2.62,5.92,5.92,0,0,0,.62,2.69,17.52,17.52,0,0,0,3.49,4,8.73,8.73,0,0,1,2.46,4,8.35,8.35,0,0,1-1.63,7.62,8.9,8.9,0,0,1-4.63,2.83,14.19,14.19,0,0,1-2,.29,5.61,5.61,0,0,0,2.06-.1,8.84,8.84,0,0,0,4.85-2.79,8.61,8.61,0,0,0,1.81-8,9.12,9.12,0,0,0-2.55-4.26,17.27,17.27,0,0,1-3.39-3.9,6.75,6.75,0,0,1-.2-5c.43-1.62,1.05-3.16,1.36-4.73a8.26,8.26,0,0,0-.24-4.49,9.74,9.74,0,0,0-2-3.38,12.79,12.79,0,0,0-4.61-3.21,14.65,14.65,0,0,0-1.44-.52A1.76,1.76,0,0,0,281.52,211.2Z" style="fill:#263238"></path><path d="M231.68,208a3.37,3.37,0,0,0,.24.54,14.48,14.48,0,0,0,.88,1.44,15,15,0,0,0,4.5,4.24,13.56,13.56,0,0,0,4,1.64,12.92,12.92,0,0,0,4.94.14,12.49,12.49,0,0,0,5.08-2,13.82,13.82,0,0,0,3.87-4.4,21.81,21.81,0,0,1,3.37-4.62,12.6,12.6,0,0,1,4.49-2.75,12.2,12.2,0,0,1,8.8.21,13.34,13.34,0,0,1,4.9,3.55c.93,1.11,1.3,1.84,1.34,1.81a2.18,2.18,0,0,0-.25-.53,11.29,11.29,0,0,0-.94-1.4,12.94,12.94,0,0,0-4.91-3.75,12.41,12.41,0,0,0-9.09-.32,13.07,13.07,0,0,0-4.68,2.83,22.45,22.45,0,0,0-3.46,4.71,13.4,13.4,0,0,1-3.72,4.26,12.11,12.11,0,0,1-4.87,2,12.66,12.66,0,0,1-8.67-1.63,15.63,15.63,0,0,1-4.53-4.06C232.09,208.72,231.72,208,231.68,208Z" style="fill:#455a64"></path><path d="M244,198.05s.05.13.19.34a4.31,4.31,0,0,0,.73.84,7.17,7.17,0,0,0,3.73,1.63,14.58,14.58,0,0,0,6-.58A28,28,0,0,1,261.8,199a21.48,21.48,0,0,1,12.45,3.8,29.75,29.75,0,0,1,4.11,3.65,6.77,6.77,0,0,0-.9-1.19,20.19,20.19,0,0,0-3-2.75,21.23,21.23,0,0,0-12.66-4,27.65,27.65,0,0,0-7.27,1.33,15.14,15.14,0,0,1-5.85.68,7.25,7.25,0,0,1-3.65-1.44A13.81,13.81,0,0,1,244,198.05Z" style="fill:#455a64"></path><path d="M228.59,218a6.54,6.54,0,0,0,0,2.3,13.45,13.45,0,0,0,5.7,9.22,5.84,5.84,0,0,0,2,1c0-.07-.74-.47-1.85-1.31a15.45,15.45,0,0,1-3.6-4,15.28,15.28,0,0,1-2-5C228.69,218.91,228.68,218,228.59,218Z" style="fill:#455a64"></path><path d="M226,222.22a3.9,3.9,0,0,0-.09,1.73,10,10,0,0,0,4.12,7.06,3.79,3.79,0,0,0,1.55.78,14.09,14.09,0,0,0-1.33-1.06,11.49,11.49,0,0,1-2.61-3.06,11.75,11.75,0,0,1-1.38-3.77A13.43,13.43,0,0,0,226,222.22Z" style="fill:#455a64"></path><path d="M282.36,245a2.51,2.51,0,0,0,1.35-.2A6.61,6.61,0,0,0,288,240a2.47,2.47,0,0,0,0-1.36,8.61,8.61,0,0,0-.38,1.27,7.51,7.51,0,0,1-4,4.54C282.85,244.81,282.34,244.92,282.36,245Z" style="fill:#455a64"></path><path d="M244.66,219.72a1.48,1.48,0,0,0,.37.2,9.08,9.08,0,0,0,1.12.45,12.88,12.88,0,0,0,4.38.67,15.15,15.15,0,0,0,6.39-1.5,14.74,14.74,0,0,0,3.25-2.17,15.06,15.06,0,0,0,2.68-3.23c1.53-2.38,2.78-4.84,4.76-6.25a6.56,6.56,0,0,1,3.12-1.18,7.88,7.88,0,0,1,2.92.33,10.74,10.74,0,0,1,3.78,2.08c.79.66,1.16,1.11,1.2,1.07a1.68,1.68,0,0,0-.24-.34,8.41,8.41,0,0,0-.83-.88,10.37,10.37,0,0,0-3.8-2.27,8.11,8.11,0,0,0-3.07-.4,6.89,6.89,0,0,0-3.35,1.22c-2.11,1.48-3.4,4-4.91,6.35a13.52,13.52,0,0,1-5.72,5.25,15.12,15.12,0,0,1-6.19,1.57,13.85,13.85,0,0,1-4.31-.51C245.21,219.91,244.68,219.67,244.66,219.72Z" style="fill:#455a64"></path><path d="M279.24,237.16a1.88,1.88,0,0,1-2.15,1.49,1.79,1.79,0,0,1-1.55-2,1.86,1.86,0,0,1,2.14-1.49A1.8,1.8,0,0,1,279.24,237.16Z" style="fill:#263238"></path><path d="M280.69,234c-.28.19-1.46-1.12-3.43-1.52s-3.62.29-3.78,0c-.09-.12.23-.51,1-.84a5.18,5.18,0,0,1,3.09-.3,4.94,4.94,0,0,1,2.66,1.51C280.71,233.48,280.82,234,280.69,234Z" style="fill:#263238"></path><path d="M259.73,233.58a1.88,1.88,0,0,1-2.15,1.49,1.78,1.78,0,0,1-1.55-2,1.87,1.87,0,0,1,2.14-1.49A1.81,1.81,0,0,1,259.73,233.58Z" style="fill:#263238"></path><path d="M261.23,230.43c-.28.19-1.46-1.12-3.43-1.52s-3.62.29-3.79,0c-.08-.12.24-.51,1-.84a5.2,5.2,0,0,1,3.09-.3,5,5,0,0,1,2.67,1.51C261.24,229.87,261.36,230.35,261.23,230.43Z" style="fill:#263238"></path><path d="M303.55,332.76l-105.9,49.7,23.74-111s14.86,16.62,26.25,15.33c15.78-1.78,15.08-16,15.48-16,4.71,0,20.25,6.28,24.28,17,0,0,17.84,42.61,16.15,45" style="fill:#9676FF"></path><path d="M299.31,317.86,328,427.63l-20.39,5.61s-39.08-84.38-38.45-85.76S299.31,317.86,299.31,317.86Z" style="fill:#9676FF"></path><g style="opacity:0.2"><path d="M276.77,311.85c3.84.06,7.29,2.66,9.33,5.91s2.88,7.09,3.53,10.87A131.26,131.26,0,0,1,291.52,350c0,3.82,0,7.9,2,11.14s5.88,5,9.14,7.2a32.39,32.39,0,0,1,14.16,27.11c-.21,10.63-7.21,17.63-16.06,23.14L286.4,373.14l-11.61-51.56Z"></path></g><path d="M280.19,295c.19,0-.69,5.08-2,11.26s-2.44,11.17-2.62,11.13.7-5.08,2-11.26S280,294.91,280.19,295Z" style="fill:#263238"></path><path d="M254.66,300.19c-.17-.09.59-1.73,1.68-3.66s2.11-3.42,2.28-3.33-.6,1.73-1.69,3.66S254.82,300.28,254.66,300.19Z" style="fill:#fafafa"></path><path d="M271.19,306.71c-.15.09-1.35-1.6-2.33-3.95s-1.34-4.4-1.16-4.44.82,1.88,1.79,4.18S271.36,306.61,271.19,306.71Z" style="fill:#fafafa"></path><path d="M275.38,288.31c0,.17-1.92-.18-4.07-1.1s-3.71-2-3.61-2.16,1.77.65,3.88,1.54S275.43,288.12,275.38,288.31Z" style="fill:#fafafa"></path><path d="M288.67,315.8c-.17-.11.67-1.63,1.42-3.6s1.17-3.66,1.36-3.63.07,1.82-.73,3.87S288.81,315.9,288.67,315.8Z" style="fill:#fafafa"></path><path d="M301.47,364.71c-.11.15-1.6-.72-3.34-1.94s-3.06-2.34-2.95-2.49,1.6.72,3.34,1.94S301.58,364.55,301.47,364.71Z" style="fill:#fafafa"></path><path d="M311.7,420.83c-.17-.09.73-2,1.76-4.35s1.81-4.31,2-4.25-.32,2.12-1.37,4.52S311.86,420.92,311.7,420.83Z" style="fill:#fafafa"></path><g style="opacity:0.2"><path d="M265.06,332.15c-6.67-.58-13.63,7.43-13.8,14.41a5.31,5.31,0,0,0,.32,2.24,2.28,2.28,0,0,0,1.67,1.39,2.72,2.72,0,0,0,2.78-1.64,9,9,0,0,0,.67-3.12c-.27-7.23,3.21-11.76,8.36-13.5"></path></g><path d="M310.1,432.53l4.9,13.72h38.44s-2.14-3.23-10-4l-14.37-1.38-3.55-12.57Z" style="fill:#ffbe9d"></path><path d="M220.66,396.33c1.27.1,63.8-20.95,63.8-20.95s28.36-6.29,31.65,11.9-26,39.76-26,39.76l-51.88,26.1L211.3,432l3.89-16Z" style="fill:#ffbe9d"></path><path d="M243.54,419.6l-34.76,21.16a4.56,4.56,0,0,0-1.64,6.09L229.89,485s4.08,3.2-1.94-25.24L258.29,443Z" style="fill:#ebebeb"></path><path d="M260.58,407.14c.11.15-3.57,3.08-8.22,6.53s-8.52,6.14-8.63,6,3.57-3.07,8.22-6.53S260.47,407,260.58,407.14Z" style="fill:#eb996e"></path><path d="M227.4,425.9c9-16.79,17.45-38.59,25.64-63.2l8.54,47.55,4.9,27.26,20.85-2-2.44-102.2s-5.05-20.85-23.19-22.06c-15.62-1-29.44,8.07-39.19,28.95a272.54,272.54,0,0,1-20.95,36.89Z" style="fill:#ffbe9d"></path><path d="M153.75,437.51a54.79,54.79,0,0,0,51.76,5.3L227.6,428s-2.13-25.76-9.3-36.65l-6.37,1.59,4.25-5.31-10.67-15.85L177.4,399.42Z" style="fill:#9676FF"></path><g style="opacity:0.4"><path d="M153.75,437.51a54.79,54.79,0,0,0,51.76,5.3L227.6,428s-2.13-25.76-9.3-36.65l-6.37,1.59,4.25-5.31-10.67-15.85L177.4,399.42Z"></path></g><path d="M250.73,369.53s0,.21-.16.59-.35,1-.59,1.65c-.55,1.53-1.29,3.56-2.19,6-1.84,5.1-4.2,12.21-7,20a148.52,148.52,0,0,1-8.41,19.5c-.63,1.2-1.24,2.27-1.81,3.19s-1,1.72-1.48,2.34l-1,1.44a2.31,2.31,0,0,1-.39.47,2.32,2.32,0,0,1,.28-.55c.24-.41.54-.9.89-1.5s.86-1.45,1.38-2.39,1.12-2,1.72-3.22a176.61,176.61,0,0,0,8.2-19.51c2.82-7.77,5.27-14.87,7.22-19.94,1-2.53,1.79-4.58,2.4-6,.28-.63.51-1.16.7-1.6A2.24,2.24,0,0,1,250.73,369.53Z" style="fill:#eb996e"></path><path d="M254.29,369.69a6,6,0,0,1,.42,1.48c.23,1,.53,2.35.89,4.07.72,3.45,1.64,8.23,2.58,13.52s1.69,10.1,2.15,13.59c.22,1.75.39,3.16.48,4.14a8.12,8.12,0,0,1,.07,1.54,6.3,6.3,0,0,1-.34-1.5c-.18-1.11-.41-2.49-.69-4.11-.62-3.62-1.44-8.33-2.34-13.55s-1.74-9.92-2.38-13.54c-.27-1.62-.49-3-.68-4.11A7.8,7.8,0,0,1,254.29,369.69Z" style="fill:#eb996e"></path><path d="M286.64,403.76c-.19,0-.44-9.77-.57-21.82s-.09-21.83.1-21.83.44,9.77.57,21.82S286.83,403.76,286.64,403.76Z" style="fill:#eb996e"></path><path d="M259.78,408.48l7,38.91a5.78,5.78,0,0,0,6.44,4.72l44.49-5.83s2.62-4.12-26.08-8.77l-3.82-34Z" style="fill:#e0e0e0"></path><path d="M206.12,394.35a5.45,5.45,0,0,1-.85,1c-.56.61-1.43,1.43-2.53,2.42A60.94,60.94,0,0,1,183,409.45c-1.39.5-2.53.86-3.33,1.07a5.09,5.09,0,0,1-1.25.28,6.68,6.68,0,0,1,1.19-.47c.78-.27,1.9-.68,3.26-1.22a70.36,70.36,0,0,0,19.64-11.66c1.13-.94,2-1.73,2.63-2.28A6.81,6.81,0,0,1,206.12,394.35Z" style="fill:#fff"></path><path d="M233.47,266.21s-26.41,4.5-35.73,16.72c-7.39,9.69-17.43,66.34-34.63,82.31-5.61,5.21-16.17,16.16-18.91,25.32-4.69,15.69-3.47,43,10.48,46.95,0,0,16-8.21,23.6-24.49a54.42,54.42,0,0,1,3.94-7.14l10.7-15.94s12-13.23,17.7-24.14L220.89,346l2.56-5.83,9.17-67.4Z" style="fill:#9676FF"></path><path d="M215.09,320.85c0,.17-2.86,0-5.69-2s-4.05-4.54-3.89-4.59,1.58,2.21,4.28,4S215.13,320.65,215.09,320.85Z" style="fill:#263238"></path><path d="M175.7,365.06a11.07,11.07,0,0,1,1.88-.16c.6,0,1.34-.07,2.2-.17s1.83-.14,2.89-.32a61.31,61.31,0,0,0,7.42-1.5,58.67,58.67,0,0,0,16.85-7.57,57.85,57.85,0,0,0,6.05-4.55c.85-.68,1.54-1.37,2.17-2s1.16-1.1,1.58-1.53a10.07,10.07,0,0,1,1.38-1.3,10.41,10.41,0,0,1-1.19,1.48,21.91,21.91,0,0,1-1.5,1.62c-.62.61-1.29,1.33-2.12,2a54.72,54.72,0,0,1-6,4.71,55.15,55.15,0,0,1-17,7.65,52.33,52.33,0,0,1-7.52,1.37c-1.08.15-2.07.17-2.93.23s-1.6.06-2.21.05A9.73,9.73,0,0,1,175.7,365.06Z" style="fill:#263238"></path><path d="M157.35,403.42a8.36,8.36,0,0,1,.55-1.63,25.53,25.53,0,0,1,2.18-4.16,29,29,0,0,1,26.49-13.4,26.14,26.14,0,0,1,4.64.71,7.14,7.14,0,0,1,1.64.53,59.47,59.47,0,0,0-6.3-.76,29.82,29.82,0,0,0-26.07,13.18A62.07,62.07,0,0,0,157.35,403.42Z" style="fill:#263238"></path><path d="M196.89,381.54c0,.19-4.06.43-9,.85s-9.05.86-9.08.67a10.12,10.12,0,0,1,2.62-.58c1.63-.26,3.89-.55,6.4-.76s4.79-.31,6.44-.32A10.13,10.13,0,0,1,196.89,381.54Z" style="fill:#263238"></path><g style="opacity:0.2"><path d="M192.27,390.22c.3.13.85-3.25.58-4.75-5-2.09-8-.56-11.5-1.08-.44-.06-5.07,1.79-5.33,1.42-.49-.72,2.8-2.55,3.65-2.75,6.61-1.52,12.1-2.29,16.38-4.87a9.19,9.19,0,0,0,4.82-6l2-6.38c.38-1.19.58-2.83-.55-3.36-.82-.39-1.76.15-2.58.55s-2,.53-2.44-.3c-.5-1,.83-1.9,1.89-2.3A31.08,31.08,0,0,0,218.61,336l-.49-8.61,4.69,13.14-12.88,25.68A134.93,134.93,0,0,1,192.27,390.22Z"></path></g><path d="M190.74,333.29c-.19,0-.58-3.56-.88-8s-.38-8-.2-8,.58,3.56.88,8S190.92,333.27,190.74,333.29Z" style="fill:#fafafa"></path><path d="M206.94,340.51c.15.11-1.17,2.19-3,4.64s-3.36,4.36-3.51,4.25,1.18-2.19,3-4.64S206.79,340.4,206.94,340.51Z" style="fill:#fafafa"></path><path d="M183.87,362.83c-.17.07-.79-1.19-1.37-2.79s-.9-3-.73-3,.79,1.19,1.37,2.8S184.05,362.77,183.87,362.83Z" style="fill:#fafafa"></path><path d="M170.09,375.18c.15.13-1.13,1.75-2.39,3.92s-2.07,4.08-2.25,4,.35-2.11,1.66-4.35S170,375.06,170.09,375.18Z" style="fill:#fafafa"></path><path d="M186.5,342.74c0,.18-2.08.69-4.75.82s-4.82-.17-4.8-.35,2.15-.2,4.77-.33S186.47,342.55,186.5,342.74Z" style="fill:#fafafa"></path><path d="M209.7,328.6c-.19,0,0-1.38.14-3s.13-3,.32-3,.49,1.35.35,3.07S209.87,328.65,209.7,328.6Z" style="fill:#fafafa"></path><path d="M205.74,300.88c0,.17-1.81.88-4.23,1.2s-4.4.15-4.39,0,1.94-.31,4.3-.64S205.68,300.7,205.74,300.88Z" style="fill:#fafafa"></path><path d="M352.55,302.86,334,317l-7.91,3.53L334,308.6,349,298a3,3,0,0,1,4.14.69h0A3,3,0,0,1,352.55,302.86Z" style="fill:#263238"></path><path d="M279,336.05c.84,0,26.2-10,26.76-11.4s.27-5.21,5.31-6.61,10.23-3.16,10.23-3.16l12.9-8.58s3.6,1.19.35,5a52.38,52.38,0,0,1-6,5.85c-1.17,1,.57,2,.57,2l18.22-12.85a18.38,18.38,0,0,1-3.64,9l-2.52,3.35a6.61,6.61,0,0,1-2,7.28c-3.63,3.35-9.44,12-15.59,12.27s-10.47.71-10.47.71l-32,15.64Z" style="fill:#ffbe9d"></path><path d="M342.05,317.34c.11.15-1.89,1.88-4.47,3.86s-4.76,3.47-4.87,3.32,1.88-1.87,4.46-3.85S341.93,317.2,342.05,317.34Z" style="fill:#eb996e"></path><path d="M209.69,275.91s15.69-7.85,25.28-2.18c7.67,4.53,13.13,24.77,18.34,35.79,1.31,2.77,4.15,4.84,5.21,6.06,5.23,6.11,6.54,16.57,6.54,16.57l36.25-6.66,3.89,23.11S269.85,375.06,249.54,369c-21.1-6.35-28.08-32-28.08-32Z" style="fill:#9676FF"></path><path d="M256.77,346.09a1.76,1.76,0,0,1,0-.29c0-.23-.05-.52-.08-.88a8.05,8.05,0,0,1-.05-1.45,10.86,10.86,0,0,1,.19-2A11.27,11.27,0,0,1,259,336.4a13.35,13.35,0,0,1,6-4.43h0l36.24-6.77.29-.06.05.3c1.2,7.09,2.53,14.89,3.93,23.1l0,.21-.17.12a164.56,164.56,0,0,1-24.55,14.3l-2.51,1.14c-.83.37-1.69.68-2.54,1s-1.68.67-2.53,1l-2.57.85c-1.69.61-3.44,1-5.15,1.44-.86.21-1.73.34-2.59.52a23,23,0,0,1-2.6.39,32.52,32.52,0,0,1-10.24-.14,22.78,22.78,0,0,1-9.08-3.74,44.68,44.68,0,0,1-12.38-13.14,78.12,78.12,0,0,1-7-14.14c-1.72-4.51-3-8.66-4.2-12.3s-2.16-6.77-3-9.32-1.61-4.49-2.1-5.82c-.25-.63-.44-1.13-.59-1.5a3.17,3.17,0,0,1-.18-.52,2.59,2.59,0,0,1,.25.5c.15.36.37.85.64,1.47.54,1.31,1.33,3.25,2.23,5.79s2,5.66,3.15,9.28,2.55,7.77,4.29,12.24a77.77,77.77,0,0,0,7,14,44.2,44.2,0,0,0,12.26,12.92c5.16,3.7,12.12,4.7,18.89,3.75a22.32,22.32,0,0,0,2.56-.4c.85-.17,1.71-.3,2.56-.51,1.69-.47,3.42-.83,5.1-1.43l2.54-.84c.84-.31,1.67-.65,2.52-1s1.69-.65,2.52-1l2.49-1.13A165.34,165.34,0,0,0,305,348.33l-.14.32c-1.37-8.22-2.68-16-3.86-23.11l.34.24-36.27,6.55h0a13.13,13.13,0,0,0-5.93,4.24,11.19,11.19,0,0,0-2.2,4.95,10.85,10.85,0,0,0-.24,2,8.45,8.45,0,0,0,0,1.43c0,.37,0,.66,0,.88A1.13,1.13,0,0,1,256.77,346.09Z" style="fill:#263238"></path><path d="M265.06,332.15a3.43,3.43,0,0,1-.2-.81c-.11-.54-.26-1.33-.5-2.34a33.47,33.47,0,0,0-3-8.2c-1.71-3.26-4.78-6.49-7.8-10.39a32.92,32.92,0,0,1-4-6.63,63.73,63.73,0,0,1-2.83-7.81,72.19,72.19,0,0,0-2.6-7.81,49.68,49.68,0,0,0-3.58-6.77,38.75,38.75,0,0,0-4.13-5.54,12.58,12.58,0,0,0-4.87-3.33,20.48,20.48,0,0,0-8.55-1.28c-2.06.15-3.17.5-3.18.43a3.83,3.83,0,0,1,.79-.26A15.68,15.68,0,0,1,223,271a19.85,19.85,0,0,1,8.74,1.09,12.84,12.84,0,0,1,5.11,3.4,39,39,0,0,1,4.25,5.59,49.52,49.52,0,0,1,3.66,6.83,71.39,71.39,0,0,1,2.64,7.88,61.85,61.85,0,0,0,2.79,7.74,33.19,33.19,0,0,0,3.93,6.53c3,3.88,6,7.16,7.73,10.54a31.3,31.3,0,0,1,2.8,8.37c.2,1,.31,1.82.38,2.37A4.3,4.3,0,0,1,265.06,332.15Z" style="fill:#263238"></path><path d="M210.63,286.44c-.18,0,0-1.83.36-4s.85-3.94,1-3.91,0,1.84-.37,4S210.81,286.48,210.63,286.44Z" style="fill:#fafafa"></path><path d="M233,281.8c0,.18-1.79.54-4,.8s-4.09.31-4.11.13,1.78-.55,4-.8S233,281.61,233,281.8Z" style="fill:#fafafa"></path><path d="M220.44,308.34c-.19,0-.65-2-1.05-4.49s-.56-4.57-.37-4.59.65,2,1,4.48S220.62,308.31,220.44,308.34Z" style="fill:#fafafa"></path><path d="M242.77,304.85c0,.18-2,.23-4.32.1s-4.31-.38-4.3-.57,1.95-.23,4.33-.1S242.78,304.66,242.77,304.85Z" style="fill:#fafafa"></path><path d="M230.47,327.69c-.17-.07.42-2.05,1.33-4.43s1.78-4.25,1.95-4.18-.41,2.05-1.32,4.43S230.65,327.76,230.47,327.69Z" style="fill:#fafafa"></path><path d="M252.56,327c-.16.09-1.32-1.66-2.23-4.08s-1.21-4.5-1-4.53.77,1.93,1.67,4.29S252.73,326.88,252.56,327Z" style="fill:#fafafa"></path><path d="M242.76,343.09c-.07.17-1.54-.23-3.29-.91s-3.11-1.37-3.05-1.54,1.54.23,3.29.91S242.82,342.91,242.76,343.09Z" style="fill:#fafafa"></path><path d="M249.76,360.51c-.1.17-2.21-1-4.9-2.2s-4.94-2-4.88-2.22,2.43.36,5.16,1.61S249.86,360.37,249.76,360.51Z" style="fill:#fafafa"></path><path d="M266.72,354.19c.14.12-1.27,1.84-3.14,3.83s-3.49,3.5-3.63,3.37,1.27-1.84,3.14-3.83S266.59,354.06,266.72,354.19Z" style="fill:#fafafa"></path><path d="M268.61,342.82c-.18.09-1.06-1.51-2.46-3.23s-2.76-2.92-2.64-3.08,1.72.85,3.17,2.66S268.77,342.76,268.61,342.82Z" style="fill:#fafafa"></path><path d="M278.87,348.63c-.18-.08.53-2,1.23-4.32s1.15-4.32,1.34-4.29,0,2.07-.69,4.48S279,348.71,278.87,348.63Z" style="fill:#fafafa"></path><path d="M292.85,334.19c0,.19-2.11.18-4.68,0s-4.65-.5-4.64-.69,2.12-.18,4.69,0S292.87,334,292.85,334.19Z" style="fill:#fafafa"></path><path d="M293,349.23c.08.17-1.68,1.12-3.92,2.11s-4.11,1.66-4.19,1.49,1.68-1.12,3.92-2.11S293,349.06,293,349.23Z" style="fill:#fafafa"></path><path d="M170.58,407.1c-.19,0,0-2,.36-4.36s.85-4.29,1-4.26,0,2-.36,4.37S170.76,407.13,170.58,407.1Z" style="fill:#fafafa"></path><path d="M162.63,416c-.06.18-2.09-.36-4.53-1.2s-4.38-1.66-4.31-1.84,2.09.36,4.53,1.2S162.69,415.81,162.63,416Z" style="fill:#fafafa"></path><path d="M156,420.35c.19,0-.06,2.3-.55,5.07s-1,5-1.22,5,.06-2.31.55-5.08S155.78,420.32,156,420.35Z" style="fill:#fafafa"></path><path d="M155.68,386.16c.13.15-1.47,1.63-3.27,3.6s-3.15,3.68-3.31,3.57,1-2,2.81-4S155.57,386,155.68,386.16Z" style="fill:#fafafa"></path><path d="M198.08,372c.1.14-1.87,1.47-4.67,2.17s-5.16.51-5.14.34,2.28-.29,5-1S198,371.81,198.08,372Z" style="fill:#fafafa"></path></g></svg>