<svg xmlns="http://www.w3.org/2000/svg" width="269.296" height="327.542" viewBox="0 0 269.296 327.542">
  <g id="Curious-amico" transform="translate(-46.537 -17.18)">
    <g id="freepik--Floor--inject-101" transform="translate(46.537 189.265)">
      <path id="freepik--floor--inject-101-2" data-name="freepik--floor--inject-101" d="M85.977,394.341c-52.586-30.379-52.586-79.58,0-109.917s137.839-30.358,190.419,0,52.586,79.58,0,109.938S138.564,424.7,85.977,394.341Z" transform="translate(-46.537 -261.664)" fill="#f5f5f5"/>
    </g>
    <g id="freepik--Shadows--inject-101" transform="translate(72.224 247.725)">
      <path id="freepik--Shadow--inject-101" d="M235.522,403.22l3.034,1.753L138.88,420.479v-2.224Z" transform="translate(-99.569 -362.042)" fill="#e0e0e0"/>
      <path id="freepik--shadow--inject-101-2" data-name="freepik--shadow--inject-101" d="M88.119,439.745c-6.785,3.963-6.785,10.382,0,14.345s17.787,3.963,24.579,0,6.785-10.382,0-14.345S94.9,435.754,88.119,439.745Z" transform="translate(-83.03 -371.975)" fill="#e0e0e0"/>
      <path id="freepik--shadow--inject-101-3" data-name="freepik--shadow--inject-101" d="M232.471,355.981c-16.414,9.587-16.414,25.121,0,34.7s43.021,9.58,59.428,0,16.407-25.114,0-34.7S248.906,346.429,232.471,355.981Z" transform="translate(-123.638 -345.928)" fill="#e0e0e0"/>
      <path id="freepik--shadow--inject-101-4" data-name="freepik--shadow--inject-101" d="M327.9,356.474c4.674-.408,9.854-.7,13.55,2.182a24.838,24.838,0,0,1,4.265,4.99,40.7,40.7,0,0,0,4.73,5.237,11.515,11.515,0,0,0,3.006,2.168,9.382,9.382,0,0,0,3.935.7c5.631,0,10.861-3.111,15.2-6.743a6.891,6.891,0,0,0,2.647-3.576c.507-2.442-1.556-4.66-3.66-6-5.927-3.773-13.3-5.941-20.046-7.743a79.975,79.975,0,0,0-22.088-2.977,63.707,63.707,0,0,0-13.789,1.781c-2.731.662-6.687,1.478-8.8,3.47a3.294,3.294,0,0,0-1.035,3.421c.528,1.408,2.147,1.964,3.6,2.3C315.424,357.115,321.815,357,327.9,356.474Z" transform="translate(-148.965 -344.718)" fill="#e0e0e0"/>
    </g>
    <g id="freepik--Wall--inject-101" transform="translate(72.357 17.18)">
      <g id="freepik--Bricks--inject-101" transform="translate(0 5.859)">
        <path id="Path_8048" data-name="Path 8048" d="M117.7,167.4v2.689c0,.852.6,1.2,1.33.767l2.6-1.5V163.59l-2.6,1.5A2.956,2.956,0,0,0,117.7,167.4Z" transform="translate(-93.43 -66.395)" fill="#e0e0e0"/>
        <path id="Path_8049" data-name="Path 8049" d="M118.16,294.35l-10.84,6.264a2.928,2.928,0,0,0-1.33,2.3v2.7c0,.845.591,1.19,1.33.767l10.84-6.257Z" transform="translate(-89.963 -105.116)" fill="#e0e0e0"/>
        <path id="Path_8050" data-name="Path 8050" d="M106,162.106v2.7c0,.845.591,1.19,1.33.767l10.84-6.264V153.54L107.33,159.8A2.928,2.928,0,0,0,106,162.106Z" transform="translate(-89.966 -63.419)" fill="#e0e0e0"/>
        <path id="Path_8051" data-name="Path 8051" d="M108.578,208.915,96.26,216.031a2.949,2.949,0,0,0-1.33,2.3v2.7c0,.845.6,1.19,1.33.767l12.318-7.109a2.942,2.942,0,0,0,1.33-2.309v-2.689C109.908,208.8,109.317,208.457,108.578,208.915Z" transform="translate(-86.688 -79.757)" fill="#e0e0e0"/>
        <path id="Path_8052" data-name="Path 8052" d="M118.16,254.12l-10.84,6.264a2.928,2.928,0,0,0-1.33,2.3v2.7c0,.845.591,1.19,1.33.767l10.84-6.264Z" transform="translate(-89.963 -93.203)" fill="#e0e0e0"/>
        <path id="Path_8053" data-name="Path 8053" d="M106,121.876v2.689c0,.852.591,1.2,1.33.774l10.84-6.264V113.31l-10.84,6.264a2.914,2.914,0,0,0-1.33,2.3Z" transform="translate(-89.966 -51.506)" fill="#e0e0e0"/>
        <path id="Path_8054" data-name="Path 8054" d="M118.16,354.7l-10.84,6.264a2.928,2.928,0,0,0-1.33,2.3v2.7c0,.845.591,1.19,1.33.767l10.84-6.264Z" transform="translate(-89.963 -122.988)" fill="#e0e0e0"/>
        <path id="Path_8055" data-name="Path 8055" d="M88.46,242.382v2.689c0,.852.591,1.2,1.33.767l12.311-7.109a2.935,2.935,0,0,0,1.337-2.3v-2.7c0-.845-.6-1.19-1.337-.767L89.79,240.073a2.942,2.942,0,0,0-1.33,2.309Z" transform="translate(-84.772 -86.885)" fill="#e0e0e0"/>
        <path id="Path_8056" data-name="Path 8056" d="M106,202.336v2.7c0,.845.591,1.19,1.33.767l10.84-6.257V193.77l-10.84,6.264a2.928,2.928,0,0,0-1.33,2.3Z" transform="translate(-89.966 -75.332)" fill="#e0e0e0"/>
        <path id="Path_8057" data-name="Path 8057" d="M98.2,269.468v-2.689c0-.852-.6-1.2-1.33-.767L84.55,273.121a2.949,2.949,0,0,0-1.33,2.3v2.7c0,.845.6,1.19,1.33.767l12.318-7.109A2.956,2.956,0,0,0,98.2,269.468Z" transform="translate(-83.22 -96.67)" fill="#e0e0e0"/>
        <path id="Path_8058" data-name="Path 8058" d="M96.26,362.566l12.318-7.109a2.942,2.942,0,0,0,1.33-2.309v-2.689c0-.852-.591-1.2-1.33-.767L96.26,356.8a2.949,2.949,0,0,0-1.33,2.3v2.717C94.93,362.644,95.528,362.988,96.26,362.566Z" transform="translate(-86.688 -121.45)" fill="#e0e0e0"/>
        <path id="Path_8059" data-name="Path 8059" d="M98.848,114.061,86.53,121.17a2.928,2.928,0,0,0-1.33,2.3v2.7c0,.845.591,1.19,1.33.767l12.318-7.109a2.956,2.956,0,0,0,1.33-2.309v-2.689C100.178,113.963,99.58,113.632,98.848,114.061Z" transform="translate(-83.806 -51.673)" fill="#e0e0e0"/>
        <path id="Path_8060" data-name="Path 8060" d="M108.578,128.414,96.26,135.523a2.956,2.956,0,0,0-1.33,2.309v2.689c0,.852.6,1.2,1.33.767l12.318-7.109a2.928,2.928,0,0,0,1.33-2.3v-2.7C109.908,128.337,109.317,127.992,108.578,128.414Z" transform="translate(-86.688 -55.925)" fill="#e0e0e0"/>
        <path id="Path_8061" data-name="Path 8061" d="M108.578,168.644,96.26,175.76a2.935,2.935,0,0,0-1.33,2.3v2.7c0,.845.6,1.19,1.33.767l12.318-7.116a2.928,2.928,0,0,0,1.33-2.3v-2.7C109.908,168.567,109.317,168.222,108.578,168.644Z" transform="translate(-86.688 -67.838)" fill="#e0e0e0"/>
        <path id="Path_8062" data-name="Path 8062" d="M96.26,282.105l12.318-7.116a2.914,2.914,0,0,0,1.33-2.3v-2.7c0-.845-.591-1.19-1.33-.767L96.26,276.34a2.935,2.935,0,0,0-1.33,2.3v2.7C94.93,282.182,95.528,282.527,96.26,282.105Z" transform="translate(-86.688 -97.623)" fill="#e0e0e0"/>
        <path id="Path_8063" data-name="Path 8063" d="M118.16,314.47l-10.84,6.264a2.914,2.914,0,0,0-1.33,2.3v2.689c0,.852.591,1.2,1.33.774l10.84-6.264Z" transform="translate(-89.963 -111.075)" fill="#e0e0e0"/>
        <path id="Path_8064" data-name="Path 8064" d="M285.1,83.481V86.17a2.949,2.949,0,0,1-1.33,2.323l-2.6,1.5V84.213l2.6-1.5C284.5,82.291,285.1,82.629,285.1,83.481Z" transform="translate(-141.838 -42.391)" fill="#e0e0e0"/>
        <path id="Path_8065" data-name="Path 8065" d="M281.17,212.99l10.847-6.257c.7-.429,1.33-.084,1.33.767v2.689a2.956,2.956,0,0,1-1.33,2.309l-10.847,6.257Z" transform="translate(-141.838 -79.116)" fill="#e0e0e0"/>
        <path id="Path_8066" data-name="Path 8066" d="M293.347,66.689v2.689a2.956,2.956,0,0,1-1.33,2.309L281.17,77.944V72.18l10.847-6.257C292.749,65.493,293.347,65.838,293.347,66.689Z" transform="translate(-141.838 -37.418)" fill="#e0e0e0"/>
        <path id="Path_8067" data-name="Path 8067" d="M289.57,116.93l12.318-7.116c.7-.422,1.33-.077,1.33.767v2.7a2.935,2.935,0,0,1-1.33,2.3l-12.318,7.116c-.739.422-1.33.077-1.33-.767v-2.7a2.928,2.928,0,0,1,1.33-2.3Z" transform="translate(-143.932 -50.417)" fill="#e0e0e0"/>
        <path id="Path_8068" data-name="Path 8068" d="M281.17,172.76l10.847-6.257c.7-.429,1.33-.084,1.33.767v2.689a2.956,2.956,0,0,1-1.33,2.309l-10.847,6.257Z" transform="translate(-141.838 -67.203)" fill="#e0e0e0"/>
        <path id="Path_8069" data-name="Path 8069" d="M293.347,26.451v2.7a2.935,2.935,0,0,1-1.33,2.337L281.17,37.748v-5.8l10.847-6.264C292.749,25.262,293.347,25.607,293.347,26.451Z" transform="translate(-141.838 -25.504)" fill="#e0e0e0"/>
        <path id="Path_8070" data-name="Path 8070" d="M281.17,273.34l10.847-6.257c.7-.429,1.33-.084,1.33.767v2.689a2.956,2.956,0,0,1-1.33,2.309L281.17,279.1Z" transform="translate(-141.838 -96.987)" fill="#e0e0e0"/>
        <path id="Path_8071" data-name="Path 8071" d="M309.7,127.151v2.7a2.949,2.949,0,0,1-1.33,2.3l-12.318,7.109c-.739.429-1.33.084-1.33-.767V135.8a2.942,2.942,0,0,1,1.33-2.309l12.318-7.109C309.1,125.962,309.7,126.307,309.7,127.151Z" transform="translate(-145.851 -55.324)" fill="#e0e0e0"/>
        <path id="Path_8072" data-name="Path 8072" d="M293.347,106.92v2.689a2.949,2.949,0,0,1-1.33,2.309l-10.847,6.257V112.41l10.847-6.257C292.749,105.723,293.347,106.068,293.347,106.92Z" transform="translate(-141.838 -49.331)" fill="#e0e0e0"/>
        <path id="Path_8073" data-name="Path 8073" d="M300,165.44v-2.689a2.949,2.949,0,0,1,1.33-2.309l12.318-7.109c.739-.422,1.33-.084,1.33.767v2.7a2.928,2.928,0,0,1-1.33,2.3l-12.318,7.109C300.563,166.637,300,166.292,300,165.44Z" transform="translate(-147.414 -63.304)" fill="#e0e0e0"/>
        <path id="Path_8074" data-name="Path 8074" d="M301.888,256.345l-12.318,7.137c-.739.422-1.33.077-1.33-.767v-2.752a2.928,2.928,0,0,1,1.33-2.3l12.318-7.109c.7-.429,1.33-.084,1.33.767v2.689a2.956,2.956,0,0,1-1.33,2.337Z" transform="translate(-143.932 -92.092)" fill="#e0e0e0"/>
        <path id="Path_8075" data-name="Path 8075" d="M289.57,36.423l12.318-7.109c.7-.422,1.33-.077,1.33.767v2.7a2.949,2.949,0,0,1-1.33,2.3L289.57,42.188c-.739.429-1.33.084-1.33-.767V38.732A2.942,2.942,0,0,1,289.57,36.423Z" transform="translate(-143.932 -26.579)" fill="#e0e0e0"/>
        <path id="Path_8076" data-name="Path 8076" d="M289.57,76.653l12.318-7.109c.7-.422,1.33-.077,1.33.767v2.7a2.949,2.949,0,0,1-1.33,2.3L289.57,82.425c-.739.422-1.33.077-1.33-.774V78.962A2.942,2.942,0,0,1,289.57,76.653Z" transform="translate(-143.932 -38.492)" fill="#e0e0e0"/>
        <path id="Path_8077" data-name="Path 8077" d="M301.888,175.889,289.57,183c-.739.422-1.33.077-1.33-.774v-2.689a2.942,2.942,0,0,1,1.33-2.309l12.318-7.109c.7-.422,1.33-.077,1.33.767v2.7A2.949,2.949,0,0,1,301.888,175.889Z" transform="translate(-143.932 -68.276)" fill="#e0e0e0"/>
        <path id="Path_8078" data-name="Path 8078" d="M281.17,233.109l10.847-6.264c.7-.422,1.33-.077,1.33.767v2.7a2.949,2.949,0,0,1-1.33,2.3l-10.847,6.257Z" transform="translate(-141.838 -85.073)" fill="#e0e0e0"/>
      </g>
      <g id="freepik--Interior--inject-101" transform="translate(39.178 19.835)">
        <path id="Path_8079" data-name="Path 8079" d="M138.88,208.8l88.857,51.326V45.36L138.88,96.693Z" transform="translate(-138.88 -45.36)" fill="#9676ff"/>
        <path id="Path_8080" data-name="Path 8080" d="M138.88,208.8l88.857,51.326V45.36L138.88,96.693Z" transform="translate(-138.88 -45.36)" opacity="0.4"/>
        <path id="Path_8081" data-name="Path 8081" d="M227.737,328.886,138.88,277.56V380.171Z" transform="translate(-138.88 -114.121)" fill="#e0e0e0"/>
      </g>
      <g id="freepik--Casing--inject-101" transform="translate(28.134)">
        <path id="Path_8082" data-name="Path 8082" d="M265.12,259.116l4.153,2.386V41.95l-4.153,2.4Z" transform="translate(-165.219 -24.515)" fill="#9676ff"/>
        <path id="Path_8083" data-name="Path 8083" d="M265.12,259.116l4.153,2.386V41.95l-4.153,2.4Z" transform="translate(-165.219 -24.515)" fill="#fff" opacity="0.4"/>
        <path id="Path_8084" data-name="Path 8084" d="M265.12,259.116l4.153,2.386V41.95l-4.153,2.4Z" transform="translate(-165.219 -24.515)" opacity="0.1"/>
        <path id="Path_8085" data-name="Path 8085" d="M228.991,255.165l7.144-4.125V20.55L129.09,82.35l.007,230.49,6.884-3.977V89.347l93.01-53.734Z" transform="translate(-124.937 -18.178)" fill="#9676ff"/>
        <path id="Path_8086" data-name="Path 8086" d="M228.991,255.165l7.144-4.125V20.55L129.09,82.35l.007,230.49,6.884-3.977V89.347l93.01-53.734Z" transform="translate(-124.937 -18.178)" fill="#fff" opacity="0.7"/>
        <path id="Path_8087" data-name="Path 8087" d="M234.414,19.552l-107.045,61.8-4.089-2.379L230.325,17.18Z" transform="translate(-123.217 -17.18)" fill="#9676ff"/>
        <path id="Path_8088" data-name="Path 8088" d="M234.414,19.552l-107.045,61.8-4.089-2.379L230.325,17.18Z" transform="translate(-123.217 -17.18)" fill="#fff" opacity="0.85"/>
        <path id="Path_8089" data-name="Path 8089" d="M127.343,337.839V107.349l-4.09-2.379-.063,230.469Z" transform="translate(-123.19 -43.177)" fill="#9676ff"/>
        <path id="Path_8090" data-name="Path 8090" d="M123.253,104.97l-.063,230.469,4.153,2.4V107.349" transform="translate(-123.19 -43.177)" fill="#fff" opacity="0.6"/>
      </g>
    </g>
    <g id="freepik--Character--inject-101" transform="translate(164.973 87.004)">
      <g id="freepik--character--inject-101-2" data-name="freepik--character--inject-101">
        <g id="freepik--Bottom--inject-101" transform="translate(0 64.383)">
          <path id="Path_8091" data-name="Path 8091" d="M288.094,383c-.155,1.675.936,6.039.936,6.039a6.012,6.012,0,0,0,3.576,2.055l.183-6.335Z" transform="translate(-236.5 -259.717)" fill="#263238"/>
          <path id="Path_8092" data-name="Path 8092" d="M294.51,391.2l5.223-2.64.577-5.075-5.694,4.061Z" transform="translate(-238.404 -259.862)"/>
          <path id="Path_8093" data-name="Path 8093" d="M296.489,372.163l-.106-1.063c.8.253,2.907,6.187,5.758,9.974,2.6,3.456,6.94,4.927,8.5,6.377,2.076,1.922-.88,5.265-6.5,4.927-2.815-.169-7.144-1.267-8.531-2.921s-2.281-4.927-3.393-6.152-3.519-2.414-4.188-3.871c-.38-.8-.239-2.661,0-4.223.211-1.457.443-3.055.943-2.977,0,.176.12.894.12.894.169.7,1.105,1.45,4.026,1.133C294.405,374.106,296.721,373.606,296.489,372.163Z" transform="translate(-236.413 -256.193)" fill="#455a64"/>
          <path id="Path_8094" data-name="Path 8094" d="M217.271,336.9c-.894,1.232-2.471,9.854-2.471,9.854a24.912,24.912,0,0,0,3.252,3.928l3.822-8.109Z" transform="translate(-214.8 -246.065)" fill="#263238"/>
          <path id="Path_8095" data-name="Path 8095" d="M219.42,353.481l7.011-1.612,2.6-5.4-7.3,2.034Z" transform="translate(-216.168 -248.899)"/>
          <path id="Path_8096" data-name="Path 8096" d="M223.42,329.1c-.4-.3-.978.486-2.379,1.739-.985.88-3.111,1.71-3.111,4.223,0,1.809,1.2,4.04,2.358,5.913s1.323,3.555,1.316,6.215c0,3.217-.591,5.188,3.365,8.052,3.167,2.288,9.6,2.71,11.016,1.408,2.421-2.266-3.231-5.378-4.153-10.016-1.267-6.4-1.408-7.468-1.232-11.966Z" transform="translate(-215.727 -243.737)" fill="#455a64"/>
          <path id="Path_8097" data-name="Path 8097" d="M287.264,217.1c-3.083,1.668-12.444,2.112-25.579-.7l1.556,38.009s-11.508,8.165-15.049,12.62-20.567,26.1-20.567,26.1h0l-2.351,2.724c-1.457,1.689-.7,3.97.985,5.427,1.626,1.337,3.745,2.281,5.328.9l1.943-1.689s38.051-29.33,39.417-31.2,4.568-6.518,8.024-16.323C285.434,240.388,286.18,231.28,287.264,217.1Z" transform="translate(-217.672 -210.382)" fill="#ffa8a7"/>
          <path id="Path_8098" data-name="Path 8098" d="M293.221,217.4c-8.313,3.815-25.023,2.513-25.023,2.513l.767,34.736a73.133,73.133,0,0,0-11.741,8.876c-4.983,4.8-12.585,14.781-12.585,14.781,2.6,7.327,10.023,10.748,10.023,10.748s15.6-10.931,24.333-17.118c4.568-3.231,8-5.033,9.376-10.291a102.122,102.122,0,0,0,2.492-12.24c.746-4.54,1.105-9.706,1.541-13.528A120.923,120.923,0,0,0,293.221,217.4Z" transform="translate(-223.636 -210.678)" fill="#9676ff"/>
          <path id="Path_8099" data-name="Path 8099" d="M293.221,217.4c-8.313,3.815-25.023,2.513-25.023,2.513l.767,34.736a73.133,73.133,0,0,0-11.741,8.876c-4.983,4.8-12.585,14.781-12.585,14.781,2.6,7.327,10.023,10.748,10.023,10.748s15.6-10.931,24.333-17.118c4.568-3.231,8-5.033,9.376-10.291a102.122,102.122,0,0,0,2.492-12.24c.746-4.54,1.105-9.706,1.541-13.528A120.923,120.923,0,0,0,293.221,217.4Z" transform="translate(-223.636 -210.678)" opacity="0.4"/>
          <path id="Path_8100" data-name="Path 8100" d="M286.276,271.424l-1.323-19.2-4.927-4.582-4.223,11.3.106,4.667a78.283,78.283,0,0,0-7.848,5.483l.7,1.7,4.005,9.678s-1.408,6.6-.816,10.248c4.61-3.238,9.854-6.933,13.789-9.713Z" transform="translate(-230.572 -219.633)" opacity="0.1"/>
          <path id="Path_8101" data-name="Path 8101" d="M290.006,324.658v-.788c-.605-7.1.373-46.153.331-56.69-.049-11.41-2.112-39.051-2.112-39.051s6.743-8.805,11.086-13.557c-4.1,4.695-24.8,2.316-26.043-6.722-1.7,3.562-7.743,7.236-8.242,18.941-.7,14.915,9.854,41.289,9.854,41.289-.4,1.992-2.21,10.34-1.147,18.047,1.675,12.163,7.686,33.666,8.32,36.6l.387,2.5C283.756,326.861,289.056,326.614,290.006,324.658Z" transform="translate(-229.663 -207.85)" fill="#ffa8a7"/>
          <path id="Path_8102" data-name="Path 8102" d="M290.288,246.31l-.605-15.577s6.272-1.633,8.812-6.9a49.972,49.972,0,0,0,.563-9.256,21.516,21.516,0,0,1-13.191.662A28.859,28.859,0,0,1,273,207.85a43.578,43.578,0,0,0-4.512,5.983c-1.45,2.161-3.9,7.743-4.111,12.1-.486,9.946,2.689,20.56,2.689,20.56,1.619,7.785,6.532,21.954,6.532,21.954s-1.872,10.319-.929,17.716a88.782,88.782,0,0,0,3.935,15.76s8.341,2.815,13.824-.451c0,0,.26-25.727.359-35.764S290.288,246.31,290.288,246.31Z" transform="translate(-229.467 -207.85)" fill="#9676ff"/>
          <path id="Path_8103" data-name="Path 8103" d="M290.288,246.31l-.605-15.577s6.272-1.633,8.812-6.9a49.972,49.972,0,0,0,.563-9.256,21.516,21.516,0,0,1-13.191.662A28.859,28.859,0,0,1,273,207.85a43.578,43.578,0,0,0-4.512,5.983c-1.45,2.161-3.9,7.743-4.111,12.1-.486,9.946,2.689,20.56,2.689,20.56,1.619,7.785,6.532,21.954,6.532,21.954s-1.872,10.319-.929,17.716a88.782,88.782,0,0,0,3.935,15.76s8.341,2.815,13.824-.451c0,0,.26-25.727.359-35.764S290.288,246.31,290.288,246.31Z" transform="translate(-229.467 -207.85)" opacity="0.3"/>
        </g>
        <g id="freepik--Top--inject-101" transform="translate(38.27)">
          <path id="Path_8104" data-name="Path 8104" d="M325.984,153.946a6.335,6.335,0,0,0,.38-7.9c-2.893-4.526-9.72-2.766-9.72-2.766l-1.823-2.935h0a5.335,5.335,0,0,1,2.112-.127,10.7,10.7,0,0,0,3.773-.535,5.729,5.729,0,0,0,3.2-2.288,3.02,3.02,0,0,0-.338-3.7,4.772,4.772,0,0,0,4.772-5.335,2.006,2.006,0,0,0-.436-1.126,2.886,2.886,0,0,0-1.281-.655,9.551,9.551,0,0,1-3.442-2.112c-1.95-1.865-2.773-4.054-5.469-5.807a13.852,13.852,0,0,0-7.686-2.281,9.672,9.672,0,0,0-7.968,3.442c-3.449,0-7.94,2.048-11.009,10.558-3.02,8.376-1.922,18.16,3.787,26.909,3.766,5.772,18.779,15.359,29.513,11.579S330.574,154.213,325.984,153.946Z" transform="translate(-275.165 -116.38)" fill="#263238"/>
          <path id="Path_8105" data-name="Path 8105" d="M314.547,166.53c8.334,1.549,8.812,5.708,9.235,9.347,1.091,9.481-.788,25.142-1.443,28.591,0,0-11.206-3.421-11.079-3.977S314.547,166.53,314.547,166.53Z" transform="translate(-281.634 -131.231)" fill="#ffa8a7"/>
          <path id="Path_8106" data-name="Path 8106" d="M315.667,212.037a15.091,15.091,0,0,1,6.623,0s-2.344-2.435-7.7-.852Z" transform="translate(-282.62 -144.296)" fill="#f28f8f"/>
          <path id="Path_8107" data-name="Path 8107" d="M301.28,199.8a56.68,56.68,0,0,0,2.815-9.354c5.568-2.865,6.785-7.137,5.631-11.142-2.393-8.242-4.723-12.254-6.863-14.634-1.661-1.175-7.574-2.815-7.574-2.815-1.056-.169-10.621-1.373-13.543-1.612a10.558,10.558,0,0,0-3.463,4.744c-.563,1.746-1.549,3.231-1.549,9.2l1.112,10.671s.3,3.2-.824,5.054-5.68,5.258-7.785,9.854c0,0,.253,7,13.12,9.918a29.712,29.712,0,0,0,18.23-1.408A52.424,52.424,0,0,0,301.28,199.8Z" transform="translate(-269.191 -129.368)" fill="#f5f5f5"/>
          <path id="Path_8108" data-name="Path 8108" d="M310,192a2.2,2.2,0,0,0-1.408-.816,6.838,6.838,0,0,0-3.477.985,9.564,9.564,0,0,1-6.609.739c-2.337-.753-4.223-2.815-6.652-3.027-2.316-.183-4.385,1.408-6.089,2.963-2.52,2.344-4.857,4.927-7.743,6.821a38.094,38.094,0,0,1-3.843,2.161h0l-.563.591-.113.12c-.429.458-.873.943-1.3,1.45l-.162.2-.465.563-.225.289-.387.514-.232.324-.359.535-.211.331c-.127.2-.239.394-.359.6l-.169.3c-.162.3-.324.612-.465.929a5.272,5.272,0,0,0,.331,1.408,8.967,8.967,0,0,0,1.105,2.055c.19.26.394.521.626.788,1.767,2.02,5.026,4.287,11.051,5.631a31.224,31.224,0,0,0,7.271.781c.824,0,1.612-.049,2.365-.12s1.464-.155,2.112-.26c.887-.141,1.7-.31,2.435-.486a21.443,21.443,0,0,0,4.033-1.351,48.572,48.572,0,0,0,.619-5.772c0-.415.042-.845.056-1.3s0-.922,0-1.408c.7-1.992,1.351-3.8,1.83-5.378.12-.394.232-.774.331-1.14a25.1,25.1,0,0,0,.655-2.815C307.834,197.282,309.607,194.705,310,192Z" transform="translate(-269.17 -138.142)" fill="#ebebeb"/>
          <path id="Path_8109" data-name="Path 8109" d="M321.81,131.787c.612,1.373,1.57,3.569-.6,12.184-1.837,7.3-4.624,8.573-5.941,8.82s-3.519-.584-5.1-1.19l-2.576,4.575c.232,1.971.908,5.941-.394,8.446-3.787-2.886-7.658-6.377-10.312-11.839l4.153-9.087a2.715,2.715,0,0,1-3.7-1.6c-1.19-2.541-.746-4.66,1.021-5.793a2.907,2.907,0,0,1,4.448,2.069c.38,2.175,2.492,2.337,3.076-.894.176-.985,1.007-6.335,4.814-7.524C315.207,135.616,320.937,134.821,321.81,131.787Z" transform="translate(-277.318 -120.398)" fill="#ffa8a7"/>
          <path id="Path_8110" data-name="Path 8110" d="M317.574,142.634a.992.992,0,1,1-.8-1.19,1.014,1.014,0,0,1,.8,1.19Z" transform="translate(-282.923 -123.798)" fill="#263238"/>
          <path id="Path_8111" data-name="Path 8111" d="M319.177,153.652a.957.957,0,0,1-1.1.8.985.985,0,1,1,1.1-.8Z" transform="translate(-283.4 -127.074)" fill="#b16668"/>
          <path id="Path_8112" data-name="Path 8112" d="M329.62,140.349l-1.57-1.724a1.119,1.119,0,0,1,1.619,0,1.225,1.225,0,0,1-.049,1.724Z" transform="translate(-286.606 -122.864)" fill="#263238"/>
          <path id="Path_8113" data-name="Path 8113" d="M316.99,137.012l-2.147.9a1.119,1.119,0,0,1,.584-1.52A1.218,1.218,0,0,1,316.99,137.012Z" transform="translate(-282.662 -122.28)" fill="#263238"/>
          <path id="Path_8114" data-name="Path 8114" d="M328.06,144.6a.993.993,0,1,1-.806-1.151A.993.993,0,0,1,328.06,144.6Z" transform="translate(-286.025 -124.391)" fill="#263238"/>
          <path id="Path_8115" data-name="Path 8115" d="M322.255,142.32l-.465,6.539,3.484-.739Z" transform="translate(-284.752 -124.061)" fill="#f28f8f"/>
          <path id="Path_8116" data-name="Path 8116" d="M312.593,158.305c-2.288-.845-7.433-3.625-7.743-5.715a5.131,5.131,0,0,0,1.14,2.815c1.168,1.57,5.751,4.392,5.751,4.392Z" transform="translate(-279.736 -127.103)" fill="#f28f8f"/>
          <path id="Path_8117" data-name="Path 8117" d="M306.085,162.11c-.246-.781-1.253-.859-1.253-.859a2.112,2.112,0,0,0-.359-1.788,1.9,1.9,0,0,0-1.183-.366c.253-.556-.077-1.823-.767-1.978a3.064,3.064,0,0,0-3.681,1.781l1.063-2.02a22.659,22.659,0,0,0,2.759-.908c1.056-.535,1.007-1.689.6-1.753a16.655,16.655,0,0,0-2.752.282c-1.154.19-2.611.183-3.006.9s-.831,1.577-1.64,3.224-1.035,2.147-.929,3.09.091,2.815.38,5.159a4.4,4.4,0,0,1-1.211,4.223c-.7.894-5.054,5.209-9.643,9.4l.626-9.115s1.492-9.376-2.062-12.881c-4.786-.774-7.109,1.408-8.172,3.977-1.865,4.547-1.316,17.505-.957,24.326s3.041,9.4,5.1,9.854,7.686-1.922,11.375-6.771c2.9-3.329,9.108-14.3,10.016-15.823a15.873,15.873,0,0,1,2.414-3.245c.7-.7,1.267-3.519,1.267-5.2.155.528.7.95,1.147.619C305.3,165.376,306.156,162.681,306.085,162.11Z" transform="translate(-270.462 -127.585)" fill="#ffa8a7"/>
          <path id="Path_8118" data-name="Path 8118" d="M302.73,171.042a8.536,8.536,0,0,0,.964-1.408,3.632,3.632,0,0,0,.3-1.682,15.71,15.71,0,0,0-.162-1.724c-.063-.57-.113-1.154-.155-1.732l-.1-1.732-.056-.866a4.56,4.56,0,0,1-.035-.88,5.476,5.476,0,0,1,.563-1.654c.239-.528.5-1.042.767-1.556l.781-1.556.394-.774a1.175,1.175,0,0,1,.641-.619,6.56,6.56,0,0,1,1.71-.359c.577-.063,1.14-.176,1.717-.246s1.147-.141,1.739-.155a.387.387,0,0,1,.26.084.528.528,0,0,1,.141.218.971.971,0,0,1,0,.472,1.45,1.45,0,0,1-.415.8,4.153,4.153,0,0,1-1.584.774c-.556.183-1.112.345-1.668.5l.063-.049-1.049,2.034-.162-.1a11.05,11.05,0,0,1,.809-.915q.211-.218.443-.422a2.3,2.3,0,0,1,.507-.373h0a7.9,7.9,0,0,1,1.077-.134,2.506,2.506,0,0,1,1.105.113,1.492,1.492,0,0,1,.633.915,1.767,1.767,0,0,1,0,1.112l-.077-.113a2.584,2.584,0,0,1,.8.127,1.085,1.085,0,0,1,.373.2,1.656,1.656,0,0,1,.253.331,2.21,2.21,0,0,1,.183,1.584l-.063-.092a1.978,1.978,0,0,1,.788.267,1.189,1.189,0,0,1,.521.648h0a4.659,4.659,0,0,1-.155,1.056l-.26,1.021c-.169.7-.373,1.351-.493,2.027h0a.7.7,0,0,1-.781,0,1.14,1.14,0,0,1-.45-.648h.106a13.371,13.371,0,0,1-.26,2.365,10.69,10.69,0,0,1-.7,2.273,3.23,3.23,0,0,1-.7.943c-.267.3-.528.591-.767.9a18.436,18.436,0,0,0-1.323,1.964,19.189,19.189,0,0,1,1.3-1.985q.359-.465.76-.908a3.167,3.167,0,0,0,.7-.943,10.443,10.443,0,0,0,.648-2.266,13.8,13.8,0,0,0,.246-2.344v-.373l.106.359a1.07,1.07,0,0,0,.408.577.528.528,0,0,0,.648,0v.042c.127-.7.324-1.366.493-2.048l.246-1.014a4.3,4.3,0,0,0,.148-1.014h0a1.358,1.358,0,0,0-1.2-.809h-.084v-.084a2.112,2.112,0,0,0-.176-1.471.908.908,0,0,0-.542-.465,2.471,2.471,0,0,0-.753-.113h-.113l.042-.113a1.619,1.619,0,0,0,0-1,1.309,1.309,0,0,0-.556-.809,2.436,2.436,0,0,0-1.021-.092,8.716,8.716,0,0,0-1.049.134h0a3.246,3.246,0,0,0-.458.345c-.148.134-.3.275-.429.415-.282.289-.542.591-.8.908l-.577.7.415-.816,1.049-2.041v-.042h.042c.556-.155,1.112-.31,1.654-.493a3.949,3.949,0,0,0,1.52-.7,1.408,1.408,0,0,0,.373-.7c.042-.246,0-.6-.253-.57a14.241,14.241,0,0,0-1.717.141c-.57.07-1.14.176-1.717.239a6.335,6.335,0,0,0-1.675.338,1.063,1.063,0,0,0-.577.556l-.394.774-.788,1.541c-.26.514-.528,1.028-.774,1.556a5.209,5.209,0,0,0-.549,1.612,3.85,3.85,0,0,0,0,.852l.049.873.084,1.732c.035.577.077,1.154.134,1.732s.134,1.147.141,1.732a3.668,3.668,0,0,1-.331,1.689,8.317,8.317,0,0,1-.9,1.422Z" transform="translate(-279.108 -127.55)" fill="#b16668"/>
          <path id="Path_8119" data-name="Path 8119" d="M314.74,161.012a1.669,1.669,0,0,0,.056-.612c-.577.155-1.323.232-1.8.4a1.633,1.633,0,0,0-.894.8C312.346,161.343,313.05,161.005,314.74,161.012Z" transform="translate(-281.883 -129.415)" fill="#b16668"/>
          <path id="Path_8120" data-name="Path 8120" d="M315.11,164.5a3.59,3.59,0,0,1,2.027-.436,3.977,3.977,0,0,0,.063-.584A2.785,2.785,0,0,0,315.11,164.5Z" transform="translate(-282.774 -130.327)" fill="#b16668"/>
          <path id="Path_8121" data-name="Path 8121" d="M316.738,169.686a9.9,9.9,0,0,0-.056-2.231c-.077-.443-.106-.7.394-.626s1.19-.535,1.056-.12c-.07.225-.957.6-1.014.915A10.637,10.637,0,0,1,316.738,169.686Z" transform="translate(-283.227 -131.24)" fill="#b16668"/>
          <path id="Path_8122" data-name="Path 8122" d="M286.382,190.645c-1.267,1.049-5.561,4.329-6.159,7.672,0,0-.6-2.506,1.865-5.293a51.3,51.3,0,0,1,4.434-4.484Z" transform="translate(-272.424 -137.748)" fill="#f28f8f"/>
        </g>
        <path id="freepik--Arm--inject-101" d="M308.593,218.024c-.429,2.5-1.225,3.414-3.773,4.533-4.153,1.823-20.785,6.532-25.7,6.567a24.846,24.846,0,0,1-8.221-1.239,2.224,2.224,0,0,1-1.211-.76,2.914,2.914,0,0,0-.7-.845,10.119,10.119,0,0,0-1.1-.57,2.034,2.034,0,0,1-.894-1.218,2.069,2.069,0,0,0-.3-.936,4.7,4.7,0,0,1-.563-.7,2.147,2.147,0,0,1-.275-1.105,1.752,1.752,0,0,0-.049-.577,1.366,1.366,0,0,0-.324-.45,5.677,5.677,0,0,1-.408-.514.951.951,0,0,1-.232-.521.971.971,0,0,1,.183-.429c.577-.908,1.872-.7,2.815-.605,1.119.127,2.217.345,3.336.479a24.324,24.324,0,0,0,4.695.106v-2.893a8.96,8.96,0,0,1,3.16,1.38c1.83,1.126,2.935,2.647,6.335,1.746s11.5-5.5,15.57-6.926S308.839,216.546,308.593,218.024Z" transform="translate(-229.618 -144.786)" fill="#ffa8a7"/>
      </g>
    </g>
    <g id="freepik--Door--inject-101" transform="translate(111.535 71.09)">
      <g id="freepik--door--inject-101-2" data-name="freepik--door--inject-101">
        <path id="Path_8123" data-name="Path 8123" d="M138.88,327.736l99.675-15.471v-216L138.88,111.766Z" transform="translate(-138.88 -94.507)" fill="#455a64"/>
        <path id="Path_8124" data-name="Path 8124" d="M235.522,93.77l3.034,1.753L138.88,111.029l5.272-3.048Z" transform="translate(-138.88 -93.77)" fill="#37474f"/>
        <path id="Path_8125" data-name="Path 8125" d="M155.5,272.61l69.754-10.84v87.794L155.5,360.4Z" transform="translate(-143.802 -143.519)" fill="#455a64"/>
        <path id="Path_8126" data-name="Path 8126" d="M155.5,272.61l69.754-10.84v87.794L155.5,360.4Z" transform="translate(-143.802 -143.519)" opacity="0.1"/>
        <path id="Path_8127" data-name="Path 8127" d="M162.94,279.661l59.287-9.221v77.2l-59.287,9.221Z" transform="translate(-146.005 -146.087)" fill="#455a64"/>
        <path id="Path_8128" data-name="Path 8128" d="M155.5,395.443l5.237-6.1,59.287-9.221,5.23,4.491Z" transform="translate(-143.802 -178.566)" fill="#263238"/>
        <path id="Path_8129" data-name="Path 8129" d="M155.5,277.17l5.237,4.484v77.2l-5.237,6.1Z" transform="translate(-143.802 -148.08)" fill="#37474f"/>
        <path id="Path_8130" data-name="Path 8130" d="M247.17,267.873l5.23-6.1v87.794l-5.23-4.491Z" transform="translate(-170.948 -143.519)" fill="#37474f"/>
        <path id="Path_8131" data-name="Path 8131" d="M211.8,124.158l30.126-4.688v87.794l-30.119,4.681Z" transform="translate(-160.474 -101.38)" fill="#455a64"/>
        <path id="Path_8132" data-name="Path 8132" d="M211.8,124.158l30.126-4.688v87.794l-30.119,4.681Z" transform="translate(-160.474 -101.38)" opacity="0.1"/>
        <path id="Path_8133" data-name="Path 8133" d="M219.24,131.212,238.9,128.15v77.2l-19.659,3.062Z" transform="translate(-162.677 -103.951)" fill="#455a64"/>
        <path id="Path_8134" data-name="Path 8134" d="M211.81,246.994l5.23-6.1L236.7,237.83l5.23,4.484Z" transform="translate(-160.477 -136.43)" fill="#263238"/>
        <path id="Path_8135" data-name="Path 8135" d="M211.8,126.13l5.237,4.484v77.2l-5.23,6.1Z" transform="translate(-160.474 -103.353)" fill="#37474f"/>
        <path id="Path_8136" data-name="Path 8136" d="M247.17,125.58l5.23-6.11v87.794l-5.23-4.484Z" transform="translate(-170.948 -101.38)" fill="#37474f"/>
        <path id="Path_8137" data-name="Path 8137" d="M155.57,132.868,185.7,128.18v87.794l-30.126,4.681Z" transform="translate(-143.822 -103.96)" fill="#455a64"/>
        <path id="Path_8138" data-name="Path 8138" d="M155.57,132.868,185.7,128.18v87.794l-30.126,4.681Z" transform="translate(-143.822 -103.96)" opacity="0.1"/>
        <path id="Path_8139" data-name="Path 8139" d="M163,139.919l19.659-3.069.007,77.208L163,217.12Z" transform="translate(-146.023 -106.527)" fill="#455a64"/>
        <path id="Path_8140" data-name="Path 8140" d="M155.57,255.7l5.23-6.1,19.666-3.062,5.23,4.484Z" transform="translate(-143.822 -139.009)" fill="#263238"/>
        <path id="Path_8141" data-name="Path 8141" d="M155.57,134.84l5.23,4.484v77.2l-5.23,6.1Z" transform="translate(-143.822 -105.932)" fill="#37474f"/>
        <path id="Path_8142" data-name="Path 8142" d="M190.93,134.283l5.237-6.1v87.794l-5.23-4.484Z" transform="translate(-154.293 -103.96)" fill="#37474f"/>
        <g id="freepik--Latch--inject-101" transform="translate(75.385 101.175)">
          <path id="Path_8143" data-name="Path 8143" d="M261.41,239.06l1.358,1.373v22.552l-1.358-1.366Z" transform="translate(-250.549 -237.969)" fill="#e0e0e0"/>
          <path id="Path_8144" data-name="Path 8144" d="M263.34,240.548l7.327-1.1v22.559L263.34,263.1Z" transform="translate(-251.121 -238.084)" fill="#fafafa"/>
          <path id="Path_8145" data-name="Path 8145" d="M270.667,248.27l-7.327,1.07v4.413l7.327-1.063Z" transform="translate(-251.121 -240.696)" opacity="0.05"/>
          <path id="Path_8146" data-name="Path 8146" d="M270.1,238.876l-1.358-1.366L261.41,238.6l1.358,1.373Z" transform="translate(-250.549 -237.51)" fill="#ebebeb"/>
          <path id="Path_8147" data-name="Path 8147" d="M267.214,246.244l3.365,3.379,1.344-1.76-3.365-3.372h0a.767.767,0,0,0-.669-.225,1.232,1.232,0,0,0-.95,1.239A1.056,1.056,0,0,0,267.214,246.244Z" transform="translate(-252.187 -239.508)" fill="#e0e0e0"/>
          <path id="Path_8148" data-name="Path 8148" d="M263.34,248.825l5.342.591v-1.6l1.3-.19-1.225-1.232-5.42.824Z" transform="translate(-251.121 -240.14)" opacity="0.1"/>
          <path id="Path_8149" data-name="Path 8149" d="M247.71,251.4v3.519l19.089-2.858V248.54Z" transform="translate(-246.492 -240.776)" fill="#fafafa"/>
          <path id="Path_8150" data-name="Path 8150" d="M247.2,252.082l-1.218-1.232v3.526L247.2,255.6Z" transform="translate(-245.98 -241.46)" fill="#e0e0e0"/>
          <path id="Path_8151" data-name="Path 8151" d="M266.287,248.022l-1.225-1.232-19.082,2.858,1.218,1.232Z" transform="translate(-245.98 -240.258)" fill="#ebebeb"/>
          <path id="Path_8152" data-name="Path 8152" d="M266.79,260.32a1.619,1.619,0,0,1,1.239-1.612,1.133,1.133,0,0,1,1.232,1.246,1.717,1.717,0,0,1-.746,1.408v2.3a.549.549,0,0,1-.415.549h-.148a.38.38,0,0,1-.415-.422v-2.3A1.211,1.211,0,0,1,266.79,260.32Z" transform="translate(-252.142 -243.786)" fill="#455a64"/>
        </g>
      </g>
    </g>
    <g id="freepik--Plant--inject-101" transform="translate(54.768 227.427)">
      <g id="freepik--Pot--inject-101">
        <g id="freepik--pot--inject-101-2" data-name="freepik--pot--inject-101" transform="translate(16.968 55.886)">
          <path id="Path_8153" data-name="Path 8153" d="M111.409,438.566c5.99-6.18,9.509-31.35,3.667-36.257H85.331c-5.842,4.927-2.33,30.062,3.66,36.249l.169.176.2.2c.169.162.352.324.542.486a1.1,1.1,0,0,1,.141.113c.148.113.3.232.458.345a7.61,7.61,0,0,0,.774.5c4.927,2.879,12.923,2.879,17.85,0h0a6.719,6.719,0,0,0,.781-.507c.148-.1.282-.211.422-.317l.176-.141c.183-.155.359-.31.521-.472l.239-.232Z" transform="translate(-82.337 -397.36)" fill="#455a64"/>
          <path id="Path_8154" data-name="Path 8154" d="M88.119,398.25c-6.785,3.963-6.785,10.389,0,14.352s17.787,3.963,24.579,0,6.785-10.389,0-14.352S94.9,394.287,88.119,398.25Z" transform="translate(-82.542 -395.277)" fill="#455a64"/>
          <g id="Group_2460" data-name="Group 2460" transform="translate(0.488)" opacity="0.1">
            <path id="Path_8155" data-name="Path 8155" d="M88.119,398.25c-6.785,3.963-6.785,10.389,0,14.352s17.787,3.963,24.579,0,6.785-10.389,0-14.352S94.9,394.287,88.119,398.25Z" transform="translate(-83.03 -395.277)" fill="#fff"/>
          </g>
          <path id="Path_8156" data-name="Path 8156" d="M93.328,401.289c-4.983,2.907-4.983,7.63,0,10.558s13.064,2.914,18.047,0,4.983-7.63,0-10.558S98.325,398.382,93.328,401.289Z" transform="translate(-84.485 -396.41)" fill="#263238"/>
          <path id="Path_8157" data-name="Path 8157" d="M111.692,408.4c-4.983-2.914-13.064-2.914-18.047,0a8.179,8.179,0,0,0-2.984,2.766,8.306,8.306,0,0,0,2.984,2.766c4.983,2.914,13.064,2.914,18.047,0a8.305,8.305,0,0,0,2.984-2.766A8.179,8.179,0,0,0,111.692,408.4Z" transform="translate(-84.802 -398.516)" fill="#f5f5f5"/>
        </g>
        <g id="freepik--Plants--inject-101">
          <path id="Path_8158" data-name="Path 8158" d="M81.243,327.888l11.9,8.137-11.262-4.258A20.5,20.5,0,0,0,84.1,340.41s7.426,3.6,11.466,7.4L85.684,344.7a11.009,11.009,0,0,0,.31,5.173c.063.225.134.465.211.7.521,1.584,1.267,4.575,2.534,8.123h0a51.385,51.385,0,0,0,4.09,8.939,35.974,35.974,0,0,0,2.717,4.019c.056.084.12.162.183.239q2.752-1.837,5.73-3.6c1.147-2.914,2.407-10.009,2.632-15.767C104.97,330.506,87.55,319.146,74,315.88A40.119,40.119,0,0,1,81.243,327.888Z" transform="translate(-62.9 -315.88)" fill="#9676ff"/>
          <path id="Path_8159" data-name="Path 8159" d="M81.243,327.888l11.9,8.137-11.262-4.258A20.5,20.5,0,0,0,84.1,340.41s7.426,3.6,11.466,7.4L85.684,344.7a11.009,11.009,0,0,0,.31,5.173c.063.225.134.465.211.7.521,1.584,1.267,4.575,2.534,8.123h0a51.385,51.385,0,0,0,4.09,8.939,35.974,35.974,0,0,0,2.717,4.019c.056.084.12.162.183.239q2.752-1.837,5.73-3.6c1.147-2.914,2.407-10.009,2.632-15.767C104.97,330.506,87.55,319.146,74,315.88A40.119,40.119,0,0,1,81.243,327.888Z" transform="translate(-62.9 -315.88)" opacity="0.3"/>
          <path id="Path_8160" data-name="Path 8160" d="M97.77,333.3a16.364,16.364,0,0,1,3.09,3.724,32.488,32.488,0,0,1,2.175,4.343,44.209,44.209,0,0,1,2.64,9.319,40.965,40.965,0,0,1-1.049,19.145h0a.324.324,0,0,0,.211.4.317.317,0,0,0,.394-.211h0a41.465,41.465,0,0,0,.753-19.392,44.731,44.731,0,0,0-2.815-9.326,33.133,33.133,0,0,0-2.252-4.322A16.668,16.668,0,0,0,97.77,333.3Z" transform="translate(-69.939 -321.039)" fill="#fafafa"/>
          <path id="Path_8161" data-name="Path 8161" d="M141.121,348.93h0c-.267.345-4.484,4.019-10.945,15.007l-13.106,3.343,10.657.957L122.8,376.8l-11.135,2.731,8.834,1.126s-2.112,8.686-8.263,12.508c-3.407,2.112-5.089,2.478-6.173,1.527-.76-.669-1.084-4.779-1.837-8.446a28.049,28.049,0,0,1,2.154-16.97,22.524,22.524,0,0,1,3.407-5.441C117.759,354.2,133.329,349.12,141.121,348.93Z" transform="translate(-71.705 -325.667)" fill="#9676ff"/>
          <path id="Path_8162" data-name="Path 8162" d="M141.121,348.93h0c-.267.345-4.484,4.019-10.945,15.007l-13.106,3.343,10.657.957L122.8,376.8l-11.135,2.731,8.834,1.126s-2.112,8.686-8.263,12.508c-3.407,2.112-5.089,2.478-6.173,1.527-.76-.669-1.084-4.779-1.837-8.446a28.049,28.049,0,0,1,2.154-16.97,22.524,22.524,0,0,1,3.407-5.441C117.759,354.2,133.329,349.12,141.121,348.93Z" transform="translate(-71.705 -325.667)" opacity="0.15"/>
          <path id="Path_8163" data-name="Path 8163" d="M108.86,372.975h0a34.6,34.6,0,0,0-2.259,9.573h0a102.137,102.137,0,0,0,.148,12.458,1.886,1.886,0,0,1-.648-.359c-.76-.669-1.084-4.779-1.837-8.446a28.049,28.049,0,0,1,2.154-16.97,22.522,22.522,0,0,1,3.407-5.441c7.975-9.608,23.545-14.69,31.336-14.88-11.881,2.414-24.424,10.868-30.414,20.363A24.634,24.634,0,0,0,108.86,372.975Z" transform="translate(-71.717 -325.661)" opacity="0.1"/>
          <path id="Path_8164" data-name="Path 8164" d="M130.435,354.91a46.6,46.6,0,0,0-15.485,11.614,30.892,30.892,0,0,0-5.138,8.313,29.563,29.563,0,0,0-2.112,9.5h0a.049.049,0,0,0,.035,0,38.009,38.009,0,0,1,2.647-9.263,35.734,35.734,0,0,1,4.927-8.235,41.2,41.2,0,0,1,6.954-6.694,54.107,54.107,0,0,1,8.228-5.173v-.056Z" transform="translate(-72.879 -327.438)" fill="#fafafa"/>
          <path id="Path_8165" data-name="Path 8165" d="M58.23,360.732h0a24.164,24.164,0,0,1,2.886,0A46.385,46.385,0,0,1,72.272,362.8c1.344.422,2.7.9,4.026,1.45.669.275,1.33.563,1.978.873a31.927,31.927,0,0,1,8.791,5.913,20.068,20.068,0,0,1,3.132,3.921c.113.183.232.366.338.556h0c.267.493.521.971.753,1.45a27.6,27.6,0,0,1,3.238,13.409c.063,3.294-.852,7.109-1.45,7.743a1.716,1.716,0,0,1-.275.232c-.908.648-2.414.38-5.279-1.021-5.751-2.815-8.376-10.558-8.376-10.558l7.672-1.746-10.058-1.408-4.392-6.081,7.37-1.844L69.548,374.7a149.619,149.619,0,0,0-11.3-13.958h0Z" transform="translate(-58.23 -329.149)" fill="#9676ff"/>
          <path id="Path_8166" data-name="Path 8166" d="M61.119,360.7a46.384,46.384,0,0,1,11.156,2.069c1.344.422,2.7.9,4.026,1.45.669.275,1.33.563,1.978.873A31.928,31.928,0,0,1,87.071,371a20.069,20.069,0,0,1,3.132,3.921c.113.183.232.366.338.556h0c.267.493.521.971.753,1.45a27.6,27.6,0,0,1,3.238,13.409c.063,3.294-.852,7.109-1.45,7.743a1.717,1.717,0,0,1-.275.232,1.878,1.878,0,0,1-.605.26c.408-5.131-2.816-17.9-6.9-23-4.223-5.3-14.077-12.8-27.064-14.845h0a25.4,25.4,0,0,1,2.879-.028Z" transform="translate(-58.233 -329.144)" opacity="0.05"/>
          <path id="Path_8167" data-name="Path 8167" d="M96.568,399.82a43.724,43.724,0,0,0-1.358-11.22,36.4,36.4,0,0,0-4.322-10.467,25.121,25.121,0,0,0-3.66-4.378,36.049,36.049,0,0,0-4.371-3.646A42.233,42.233,0,0,0,72.84,364.83v.063a54.675,54.675,0,0,1,9.671,5.73,44.7,44.7,0,0,1,4.308,3.583,24.819,24.819,0,0,1,3.674,4.223A36.249,36.249,0,0,1,94.935,388.7a43.781,43.781,0,0,1,1.6,11.135H96.6Z" transform="translate(-62.556 -330.375)" fill="#fafafa"/>
        </g>
      </g>
    </g>
    <g id="freepik--Cat--inject-101" transform="translate(233.811 187.157)">
      <g id="freepik--cat--inject-101-2" data-name="freepik--cat--inject-101">
        <path id="Path_8168" data-name="Path 8168" d="M388.863,337.528c-.816,2.583-5.476,9.15-7.039,10.945s-1.8,9.53-1.788,11.142,1.091,3.139,1.774,4.174-.5,2.815-2.984,2-3.238-3.329-3.6-5.012-1.19-11.325-.169-17.315A17.371,17.371,0,0,1,388.863,337.528Z" transform="translate(-330.948 -282.012)" fill="#37474f"/>
        <path id="Path_8169" data-name="Path 8169" d="M333.627,289.978c-3.935.084-9.369-3.048-11.262-8.446s-.76-13.374,1.274-17.907c1.161-2.576.8-4.223-.183-4.709-1.45-.7-2.907.091-3.984,2.372-1.366,2.928-4.111,13.852-1.64,20.5s6.968,10.227,9.615,11.262Z" transform="translate(-313.855 -258.668)" fill="#37474f"/>
        <path id="Path_8170" data-name="Path 8170" d="M338.93,324.69c.239,5.293,2.773,14.662,4.223,16.949,1.52,2.414,2.7,3.1,5.159,3.174s2.815-2.062-.3-3.97c-.591-.838-.809-4.927-.472-9.186S338.93,324.69,338.93,324.69Z" transform="translate(-320.397 -278.219)" fill="#37474f"/>
        <path id="Path_8171" data-name="Path 8171" d="M374.013,306.777c0,2.815.507,10.347-1.267,15.218-1.689,4.639-4.765,8.89-11.67,9.967a26.406,26.406,0,0,1-16.977-2.7c-3.984-2.3-7.876-6.94-10.685-7.468a13.472,13.472,0,0,1-6.856,3.414c-4.568.936-6.87-.218-6.87-.218a27.029,27.029,0,0,0-1.408,5.631c-.07,1.9,0,3.709,1.45,4.695s2.161,1.485,2.006,2.527c0,0,0,1.154-2.977,1.07s-3.055-.563-3.949-3.238a75.8,75.8,0,0,1-2.2-11.931c-.169-2.316,2.661-2.618,4.068-4.526a21.623,21.623,0,0,0,3.519-6.87c.957-3.048,3.189-7.778,8.024-9.34s9.735-1.14,16.513,1.823,10.164,4.223,13.493,2.386c4.519-2.52,4.061-6.49,4.061-6.49C367.178,300.041,372.746,297.465,374.013,306.777Z" transform="translate(-312.6 -270.871)" fill="#455a64"/>
        <path id="Path_8172" data-name="Path 8172" d="M374.84,344.549l-.387-1.654-3.231-1.6-.992.641a12.886,12.886,0,0,1,1.478,2.59A28.923,28.923,0,0,0,374.84,344.549Z" transform="translate(-329.666 -283.134)" fill="#37474f"/>
        <path id="Path_8173" data-name="Path 8173" d="M370.23,341.057c1.943,1.3,3.484,4.167,6.222,5.87a14.226,14.226,0,0,0,5.068,2.013,15.638,15.638,0,0,1,1.732,4.16c.619,2.435,1.33,5.462,3.4,6.806s5.356.45,3.653-1.936a18.427,18.427,0,0,1-2.358-6.032c-.767-2.872-.106-4.223-1.556-6.131a19.23,19.23,0,0,1-3.625-6.968S373.158,336.771,370.23,341.057Z" transform="translate(-329.666 -282.261)" fill="#455a64"/>
        <path id="Path_8174" data-name="Path 8174" d="M343.254,329.472a7.975,7.975,0,0,0,.866-4.892,10.557,10.557,0,0,1-1.95,4.526A4.582,4.582,0,0,1,343.254,329.472Z" transform="translate(-321.356 -278.186)" fill="#37474f"/>
        <path id="Path_8175" data-name="Path 8175" d="M385.384,304.9c5.828,5.575-1.365,9.15-1.182,16.351.056,2.379,1.14,4.927,3.519,9.439a15.176,15.176,0,0,0,6.412-7.947c1.337-3.674,1.323-9.6,1.049-12.48a15.569,15.569,0,0,0-2.112-6.447S379.542,299.33,385.384,304.9Z" transform="translate(-333.72 -271.532)" fill="#e0e0e0"/>
        <path id="Path_8176" data-name="Path 8176" d="M377.83,308.339a12.747,12.747,0,0,0,7.581,1.021,7.341,7.341,0,0,0,5.863-4.927l-9.96-.232a7.531,7.531,0,0,1-3.484,4.139Z" transform="translate(-331.916 -272.151)" fill="#37474f"/>
        <path id="Path_8177" data-name="Path 8177" d="M390.7,284.559c1.534-1.8,5.511-3.224,7.609-1.443,1.182,1.007-1.971,6.469-1.971,6.469S392.263,287.4,390.7,284.559Z" transform="translate(-335.727 -265.665)" fill="#37474f"/>
        <path id="Path_8178" data-name="Path 8178" d="M393,286.717c1.943,1.619,4.005,3.139,4.005,3.139s3.153-5.462,1.971-6.469C398.166,282.888,395.457,283.331,393,286.717Z" transform="translate(-336.408 -265.937)" fill="#ffa8a7"/>
        <path id="Path_8179" data-name="Path 8179" d="M397.357,289.167a2.521,2.521,0,0,1,.612-.591c.176-.345.38-.753.584-1.19a5.3,5.3,0,0,0-2-.739,1.971,1.971,0,0,1,.7-1.2,2.3,2.3,0,0,0-2.738,1.471,4.04,4.04,0,0,0,.767,1.471c.436.3.838.542,1.161.746a2.111,2.111,0,0,0,.908.028Z" transform="translate(-336.859 -266.578)" fill="#f28f8f"/>
        <path id="Path_8180" data-name="Path 8180" d="M395,287.686a2.3,2.3,0,0,1,2.252-1.408,1.894,1.894,0,0,0-.465,1.274s2.252-.12,2.816,1.035a2.456,2.456,0,0,0-2.112,1.239C395.556,290.579,395,287.686,395,287.686Z" transform="translate(-337.001 -266.843)" fill="#455a64"/>
        <path id="Path_8181" data-name="Path 8181" d="M372.51,283a9.151,9.151,0,0,1,2.548,6.293l1.661-1.2s.042-2.928-1.2-3.963A5.709,5.709,0,0,0,372.51,283Z" transform="translate(-330.341 -265.873)" fill="#f28f8f"/>
        <path id="Path_8182" data-name="Path 8182" d="M380.126,284.637c-.8-1.6-4.927-3.674-7.616-1.886a5.515,5.515,0,0,1,3.688,4.793Z" transform="translate(-330.341 -265.595)" fill="#37474f"/>
        <path id="Path_8183" data-name="Path 8183" d="M391.892,302.422c-.225-3.35.633-7.82.106-10.368-.619-2.97-2.435-6.757-8.214-7.074s-8.594,2.752-9.6,6.6c-.6,1.915-1.408,2.745-1.161,4.864a6.222,6.222,0,0,0,4.864,5.547c2.435.7,8.9.9,11.966-3.245l2.055,3.681" transform="translate(-330.479 -266.453)" fill="#455a64"/>
        <path id="Path_8184" data-name="Path 8184" d="M376.189,288.458s-.091-.577-1.077-1.19a3.2,3.2,0,0,0-2.435-.289s1.323,1.084,1.471,1.964a2.815,2.815,0,0,0-1.527-.049,3.681,3.681,0,0,1,1.563,3.379S376.231,289.858,376.189,288.458Z" transform="translate(-330.373 -267.016)" fill="#455a64"/>
        <path id="Path_8185" data-name="Path 8185" d="M382.453,301.891h0a.267.267,0,0,1-.253-.267l.042-1.33a.267.267,0,0,1,.267-.253h0a.261.261,0,0,1,.253.268l-.042,1.33A.267.267,0,0,1,382.453,301.891Z" transform="translate(-333.21 -270.919)" fill="#263238"/>
        <path id="Path_8186" data-name="Path 8186" d="M383.161,303.3a.247.247,0,0,1-.134-.042l-1.091-.746-1.112.7a.26.26,0,0,1-.267-.443l1.253-.76a.246.246,0,0,1,.282,0l1.225.838a.26.26,0,0,1,.07.359A.254.254,0,0,1,383.161,303.3Z" transform="translate(-332.693 -271.49)" fill="#263238"/>
        <path id="Path_8187" data-name="Path 8187" d="M382.079,298.147c-1.337-.063-1.5.338-1.366.816A2.407,2.407,0,0,0,382,300.069c.317.049,1.527-.549,1.577-1.063S383.339,298.211,382.079,298.147Z" transform="translate(-332.759 -270.357)" fill="#f28f8f"/>
        <path id="Path_8188" data-name="Path 8188" d="M389.17,299.41h0a.225.225,0,0,1,.042-.317,4.125,4.125,0,0,1,4.681-.626.233.233,0,0,1-.211.415,3.709,3.709,0,0,0-4.223.563.211.211,0,0,1-.289-.035Z" transform="translate(-335.261 -270.317)" fill="#263238"/>
        <path id="Path_8189" data-name="Path 8189" d="M389.717,300.736l-.042-.07a.246.246,0,0,1,.127-.3,3.857,3.857,0,0,1,3.16.183.234.234,0,0,1-.239.4,3.4,3.4,0,0,0-2.759-.169A.211.211,0,0,1,389.717,300.736Z" transform="translate(-335.42 -270.94)" fill="#263238"/>
        <path id="Path_8190" data-name="Path 8190" d="M389.139,302.078a.169.169,0,0,1-.049-.127.239.239,0,0,1,.211-.253,4.42,4.42,0,0,1,3.723,1.732.225.225,0,0,1-.042.317.211.211,0,0,1-.31,0h0a3.991,3.991,0,0,0-3.35-1.57.2.2,0,0,1-.183-.1Z" transform="translate(-335.25 -271.409)" fill="#263238"/>
        <path id="Path_8191" data-name="Path 8191" d="M376.063,298.621h0a.232.232,0,0,0,0-.324,4.111,4.111,0,0,0-4.463-1.534.232.232,0,0,0,.127.443,3.709,3.709,0,0,1,4.012,1.408.218.218,0,0,0,.324.007Z" transform="translate(-330.029 -269.901)" fill="#263238"/>
        <path id="Path_8192" data-name="Path 8192" d="M375.912,299.936a.189.189,0,0,0,.049-.056.239.239,0,0,0-.077-.317,3.85,3.85,0,0,0-3.167-.232.232.232,0,0,0,.19.422,3.414,3.414,0,0,1,2.752.2A.2.2,0,0,0,375.912,299.936Z" transform="translate(-330.365 -270.639)" fill="#263238"/>
        <path id="Path_8193" data-name="Path 8193" d="M376.064,301.44a.218.218,0,0,0,.063-.127.239.239,0,0,0-.183-.267,4.414,4.414,0,0,0-3.892,1.3.232.232,0,0,0,0,.324.2.2,0,0,0,.3,0h0a4,4,0,0,1,3.519-1.19.19.19,0,0,0,.19-.042Z" transform="translate(-330.186 -271.2)" fill="#263238"/>
        <path id="Path_8194" data-name="Path 8194" d="M389.76,294.618a.88.88,0,1,1-.238-.631A.88.88,0,0,1,389.76,294.618Z" transform="translate(-334.928 -269.044)" fill="#263238"/>
        <path id="Path_8195" data-name="Path 8195" d="M379.68,294.221a.873.873,0,1,1-.236-.626.88.88,0,0,1,.236.626Z" transform="translate(-331.943 -268.929)" fill="#263238"/>
      </g>
    </g>
  </g>
</svg>
