<svg xmlns="http://www.w3.org/2000/svg" width="315.514" height="293.205" viewBox="0 0 315.514 293.205">
  <g id="Mobile_inbox-pana" data-name="Mobile inbox-pana" transform="translate(-28.92 -60.024)">
    <g id="freepik--background-simple--inject-71" transform="translate(56.801 60.024)">
      <path id="Path_8453" data-name="Path 8453" d="M322.3,96.692l-1.591-2.633c-13.451-22.164-37.77-35.522-63.408-33.9a66.89,66.89,0,0,0-9.812,1.349c-23.312,5-43.592,22.613-52,45.191-4.945,13.28-6.329,28.543-15.7,39.1-12.209,13.715-32.939,14.143-51.17,13.558s-38.968-.086-51.12,13.686c-7.614,8.62-10.033,20.886-9.419,32.432,1.627,30.577,22.934,57.914,50.029,71.507s59,14.807,88.654,8.827c41.537-8.377,81.048-31.4,104.8-66.89S341.3,135.025,322.3,96.692Z" transform="translate(-67.992 -60.024)" fill="#ebebeb"/>
    </g>
    <g id="freepik--Character--inject-71" transform="translate(162.458 105.638)">
      <path id="Path_8454" data-name="Path 8454" d="M275.239,333l-.1,38.347-16.947-3.482-14.271-2.983s19.538,38.533,40.788,38.533,24-32.061,24-32.061L309.968,333Z" transform="translate(-224.04 -183.825)" fill="#9b7564"/>
      <path id="Path_8455" data-name="Path 8455" d="M380.21,174.2c-1.556.885-3.7-.264-4.41-1.92a7.739,7.739,0,0,1,.157-5.309,23.5,23.5,0,0,0,1.427-5.216,7.692,7.692,0,0,0-5.166-7.564,7.2,7.2,0,0,0,.5-10.368c-1.32-1.27-3.075-1.962-4.61-2.961a15.7,15.7,0,0,1-2.426-1.977,9.989,9.989,0,0,0,4.182.128,6.779,6.779,0,0,0,4.909-4.281,6.13,6.13,0,0,0-1.484-6.287,5.623,5.623,0,0,0-6.322-.942c-1.984,1.049-3.068,3.2-4.032,5.23l-.9,1.877c-2.79-3.7-5.416-7.514-9.719-8.813-3.9-1.177-8.1.136-12.166-.157-2.961-.221-5.8-1.284-8.756-1.613s-6.315.307-8.056,2.712c-1.028,1.427-1.349,3.24-2.383,4.645-2.141,2.9-6.75,3.29-8.506,6.422-1.427,2.555-.328,5.78-.942,8.641-.664,3.111-3.233,5.387-5.33,7.778s-3.932,5.673-2.754,8.627c1.042,2.6,4.075,4,5.059,6.622.714,1.912.2,4.032.164,6.073s.778,4.467,2.769,4.931l22.642,5.98c7.8,3.168,15.841,6.422,24.261,6.379s17.4-4.053,20.694-11.788a4.824,4.824,0,0,1-3.247-1.427,8.113,8.113,0,0,0,4.445-5.423Z" transform="translate(-240.977 -123.947)" fill="#263238"/>
      <path id="Path_8456" data-name="Path 8456" d="M383.675,187.515a103.487,103.487,0,0,0,4.56-17.5c.849-5.98.671-12.216-1.427-17.839-.314-.856-3.033-6.615-3.946-6.522-.649.064,1.02,5.43.714,6-3.14,5.395-4,11.881-3.489,18.111a81.593,81.593,0,0,0,3.618,17.789" transform="translate(-263.002 -130.163)" fill="#263238"/>
      <path id="Path_8457" data-name="Path 8457" d="M345.15,233.973c9.362-.2,19.98-20.694,19.98-20.694l.607-52.562c.485-15.135-7.914-28.036-23.056-28.108l-1.427.071a27.116,27.116,0,0,0-25.624,26.3c-.35,13.123-.578,27.63-.114,34.637.956,14.5,15.592,15.977,15.592,15.977s.086,3.368.128,7.635c.1,9.576,10.126,17.04,13.879,16.719Z" transform="translate(-244.472 -126.429)" fill="#9b7564"/>
      <path id="Path_8458" data-name="Path 8458" d="M337.52,237.881a35.062,35.062,0,0,0,18.6-6.6s-4.039,10.8-18.589,10.275Z" transform="translate(-250.849 -154.69)" fill="#7f6358"/>
      <path id="Path_8459" data-name="Path 8459" d="M324.61,184.763a2.076,2.076,0,0,0,2.141,1.984,1.984,1.984,0,0,0,2.034-1.977,2.076,2.076,0,0,0-2.141-1.991,1.984,1.984,0,0,0-2.034,1.984Z" transform="translate(-247.151 -140.798)" fill="#263238"/>
      <path id="Path_8460" data-name="Path 8460" d="M320.614,176.846c.271.257,1.777-.992,4.01-1.106s3.925.921,4.153.628c.107-.121-.178-.6-.921-1.077a5.645,5.645,0,0,0-3.34-.835,5.48,5.48,0,0,0-3.175,1.213C320.686,176.268,320.479,176.732,320.614,176.846Z" transform="translate(-245.996 -138.411)" fill="#263238"/>
      <path id="Path_8461" data-name="Path 8461" d="M352.76,184.013A2.076,2.076,0,0,0,354.9,186a1.984,1.984,0,0,0,2.034-1.984,2.077,2.077,0,0,0-2.105-1.984,1.991,1.991,0,0,0-2.069,1.984Z" transform="translate(-255.214 -140.583)" fill="#263238"/>
      <path id="Path_8462" data-name="Path 8462" d="M351.3,176.466c.271.257,1.784-.985,4.01-1.1s3.925.913,4.153.628c.114-.128-.171-.6-.921-1.085a5.709,5.709,0,0,0-3.34-.835,5.5,5.5,0,0,0-3.175,1.213C351.374,175.853,351.167,176.352,351.3,176.466Z" transform="translate(-254.785 -138.302)" fill="#263238"/>
      <path id="Path_8463" data-name="Path 8463" d="M339.073,194.568a15.049,15.049,0,0,0-3.661-.457c-.571,0-1.113-.114-1.234-.5a2.854,2.854,0,0,1,.293-1.705q.714-2.141,1.427-4.431c2.012-6.294,3.432-11.467,3.175-11.546s-2.091,5-4.1,11.267c-.478,1.548-.942,3.033-1.377,4.446a3.29,3.29,0,0,0-.178,2.255,1.427,1.427,0,0,0,.985.778,3.747,3.747,0,0,0,.97.086A14.628,14.628,0,0,0,339.073,194.568Z" transform="translate(-249.641 -138.836)" fill="#263238"/>
      <path id="Path_8464" data-name="Path 8464" d="M347.976,203.72c-.364,0-.235,2.419-2.219,4.246s-4.567,1.705-4.567,2.041c0,.157.6.442,1.684.414a6.044,6.044,0,0,0,3.825-1.57,5.259,5.259,0,0,0,1.705-3.568C348.447,204.283,348.14,203.7,347.976,203.72Z" transform="translate(-251.9 -146.796)" fill="#263238"/>
      <path id="Path_8465" data-name="Path 8465" d="M350.794,163.973c.257.6,2.469.193,5.1.364s4.788.778,5.1.214c.143-.271-.257-.821-1.142-1.363a8.891,8.891,0,0,0-7.771-.435C351.144,163.188,350.687,163.694,350.794,163.973Z" transform="translate(-254.647 -134.864)" fill="#263238"/>
      <path id="Path_8466" data-name="Path 8466" d="M321.332,166.337c.421.485,1.934-.121,3.775-.243s3.432.157,3.76-.392c.15-.264-.128-.764-.835-1.206a5.487,5.487,0,0,0-6.073.514C321.332,165.566,321.147,166.087,321.332,166.337Z" transform="translate(-246.193 -135.366)" fill="#263238"/>
      <path id="Path_8467" data-name="Path 8467" d="M385.15,186.921c.243-.121,9.812-3.482,10.033,6.422s-9.812,8.1-9.833,7.849S385.15,186.921,385.15,186.921Z" transform="translate(-264.492 -141.8)" fill="#9b7564"/>
      <path id="Path_8468" data-name="Path 8468" d="M389.566,198.646c.043,0,.178.114.471.243a1.727,1.727,0,0,0,1.292,0c1.042-.407,1.891-2.1,1.905-3.889a5.809,5.809,0,0,0-.542-2.469,2.005,2.005,0,0,0-1.327-1.3.885.885,0,0,0-1.013.5c-.128.278-.057.478-.114.492s-.214-.164-.143-.571a1.12,1.12,0,0,1,.378-.635,1.27,1.27,0,0,1,.949-.271,2.433,2.433,0,0,1,1.841,1.5,5.851,5.851,0,0,1,.664,2.762c0,2.005-1.006,3.9-2.433,4.346a1.848,1.848,0,0,1-1.591-.228C389.588,198.881,389.531,198.66,389.566,198.646Z" transform="translate(-265.754 -143.078)" fill="#7f6358"/>
      <path id="Path_8469" data-name="Path 8469" d="M324.419,141.754c-1.62-.863,3.14-6.137,7.072-7.985,5.937-2.783,15.042-4.567,20.565-3.076,6.658,1.791,12.209,5,15.62,11.018a39.1,39.1,0,0,1,4.645,19.9,11.908,11.908,0,0,1-1.327,6.094c-1.356,2.212-4,3.632-3.846,6.665a4.16,4.16,0,0,1-.992,3.047c-1.8,1.955-4.046.164-5.088-1.641-2.241-3.868-2.54-8.513-2.79-12.966-.178-3.168-.35-6.422.507-9.462.464-1.663,1.227-3.24,1.6-4.924a5.99,5.99,0,0,0-.771-4.959,6.178,6.178,0,0,0-.813-.806,10.39,10.39,0,0,0-10.311-1.827c-5.573,2.055-15.092,5.138-17.611,3.268-3.625-2.69-4.51-4.46-4.51-4.46Z" transform="translate(-247.004 -125.725)" fill="#263238"/>
      <path id="Path_8470" data-name="Path 8470" d="M353.334,128.541a21.826,21.826,0,0,0-16.776,1.142c-2.7,1.427-5.123,3.725-5.908,6.672s.514,6.565,3.354,7.678l.2.121c4.281,1.37,7.007.771,11.217-.749,3.568-1.277,6.679-3.511,10.226-4.774a20.23,20.23,0,0,1,11.817-.492A33.21,33.21,0,0,0,353.334,128.541Z" transform="translate(-248.817 -124.936)" fill="#263238"/>
      <path id="Path_8471" data-name="Path 8471" d="M381.432,140.792c-.086.071-.885-.878-2.5-2a14.436,14.436,0,0,0-3.018-1.613,9.234,9.234,0,0,0-4.039-.714,13.558,13.558,0,0,0-6.929,2.854c-1.541,1.22-2.255,2.248-2.348,2.176s.107-.307.435-.764a10.8,10.8,0,0,1,1.606-1.77,12.9,12.9,0,0,1,7.179-3.161,9.483,9.483,0,0,1,4.324.771,13.187,13.187,0,0,1,3.068,1.805A7.294,7.294,0,0,1,381.432,140.792Z" transform="translate(-258.027 -127.339)" fill="#455a64"/>
      <path id="Path_8472" data-name="Path 8472" d="M385.288,147.729a8.455,8.455,0,0,1-.756,2.854,20.694,20.694,0,0,1-9.277,10.454,8.292,8.292,0,0,1-2.726,1.085c-.121-.193,4.174-1.82,7.778-5.944S385.081,147.637,385.288,147.729Z" transform="translate(-260.876 -130.759)" fill="#455a64"/>
      <path id="Path_8473" data-name="Path 8473" d="M389.094,150a3.239,3.239,0,0,1,.036,1.127,17.386,17.386,0,0,1-.428,3.054A20.786,20.786,0,0,1,375.786,169a17.746,17.746,0,0,1-2.968.842,3.139,3.139,0,0,1-1.127.114c0-.114,1.563-.385,3.918-1.427a21.871,21.871,0,0,0,12.637-14.5C388.916,151.591,388.973,150,389.094,150Z" transform="translate(-260.636 -131.41)" fill="#455a64"/>
      <path id="Path_8474" data-name="Path 8474" d="M340.837,127.75a27.786,27.786,0,0,1-2.633.992,21.578,21.578,0,0,0-10.2,8.406,26.9,26.9,0,0,1-1.477,2.39,7.685,7.685,0,0,1,1.07-2.633,18.946,18.946,0,0,1,4.424-5.273,18.674,18.674,0,0,1,6.023-3.325,7.984,7.984,0,0,1,2.79-.557Z" transform="translate(-247.701 -125.037)" fill="#455a64"/>
      <path id="Path_8475" data-name="Path 8475" d="M397.434,129.5c.164,0-.271,2.854-2.519,5.53s-5,3.6-5,3.439a22.83,22.83,0,0,0,4.5-3.868C396.521,132.061,397.234,129.435,397.434,129.5Z" transform="translate(-265.858 -125.537)" fill="#455a64"/>
      <path id="Path_8476" data-name="Path 8476" d="M247.019,376.3l5.894-3.618a6.422,6.422,0,0,1,3.318-.935h11.417l11.788,10.739,3.518,1.755L281.642,402.8l-7.664-.942s-16.362.714-17.946-.35-3.875-4.4-3.875-4.4-8.97-2.9-9.847-3.689c-3.332-2.99-1.991-3.7-1.991-3.7L238.784,389c-.285.542-2.519-3.1-2.283-4.924.136-1.063-.178-1.056-.178-1.056a5.865,5.865,0,0,1-2.854-4.06c-.164-1.085,4.281-.307,4.281-.307l11.082.15Z" transform="translate(-221.045 -194.924)" fill="#9b7564"/>
      <path id="Path_8477" data-name="Path 8477" d="M251.894,374.916l-10.425-14.193a4.053,4.053,0,0,0-3.282-1.663H217.578a1.5,1.5,0,0,0-1.5,1.5h0a1.534,1.534,0,0,0,.364.978l11.81,13.7h0Z" transform="translate(-216.066 -191.29)" fill="#455a64"/>
      <path id="Path_8478" data-name="Path 8478" d="M252.843,388.877a8.949,8.949,0,0,1-2.326.307,39.246,39.246,0,0,1-11.246-.97,9.1,9.1,0,0,1-2.241-.714,14.273,14.273,0,0,1,2.312.35,55.084,55.084,0,0,0,5.559.714c2.184.157,4.167.228,5.6.221a13.254,13.254,0,0,1,2.341.093Z" transform="translate(-222.066 -199.436)" fill="#7f6358"/>
      <path id="Path_8479" data-name="Path 8479" d="M256.993,397.587a9.1,9.1,0,0,1-2.326.307,38.489,38.489,0,0,1-5.659-.078,38.9,38.9,0,0,1-5.594-.892,8.965,8.965,0,0,1-2.233-.714,14.356,14.356,0,0,1,2.312.35,55.1,55.1,0,0,0,5.559.714c2.184.157,4.167.228,5.6.221A13.251,13.251,0,0,1,256.993,397.587Z" transform="translate(-223.255 -201.93)" fill="#7f6358"/>
      <path id="Path_8480" data-name="Path 8480" d="M233.51,381.85a10.425,10.425,0,0,0,.343,1.3,4.881,4.881,0,0,0,2.526,2.64l.078.036v.086a7.85,7.85,0,0,0,.806,3.625,6.836,6.836,0,0,0,3.218,3.154l.193.086-.093.178a1.648,1.648,0,0,0,0,1.427,3.668,3.668,0,0,0,1.013,1.234,13.223,13.223,0,0,0,3.083,1.77,44.241,44.241,0,0,0,7.557,2.369h.1l.05.086a13.948,13.948,0,0,0,2.319,2.6,7.2,7.2,0,0,0,3.026,1.791,9.631,9.631,0,0,0,2.69.271l2.712.071,5.23.143,9.419.264h.036l11.225,2.291,3.118.671.814.193a.8.8,0,0,1,.278.086,1.233,1.233,0,0,1-.285,0l-.828-.128-3.147-.557-11.26-2.141h.036l-9.419-.2-5.223-.121-2.719-.064a10.347,10.347,0,0,1-2.812-.3,7.67,7.67,0,0,1-3.225-1.9,14.1,14.1,0,0,1-2.391-2.7l.15.107a43.418,43.418,0,0,1-7.628-2.433,13.555,13.555,0,0,1-3.175-1.855,4.06,4.06,0,0,1-1.12-1.427,2.012,2.012,0,0,1,.043-1.741l.1.264a7.192,7.192,0,0,1-3.368-3.368,8.042,8.042,0,0,1-.764-3.782l.078.121a4.873,4.873,0,0,1-2.555-2.854,3.568,3.568,0,0,1-.228-1.284Z" transform="translate(-221.058 -197.817)" fill="#7f6358"/>
      <path id="Path_8481" data-name="Path 8481" d="M265.432,405.78a6.62,6.62,0,0,1-3.2,1.07,6.724,6.724,0,0,1-3.368-.186c.021-.121,1.506-.064,3.3-.314S265.382,405.645,265.432,405.78Z" transform="translate(-228.319 -204.665)" fill="#7f6358"/>
      <path id="Path_8482" data-name="Path 8482" d="M271.411,381.2a26.764,26.764,0,0,1-5.073.435,24.809,24.809,0,0,1-5.088-.071,26.081,26.081,0,0,1,5.074-.435A24.813,24.813,0,0,1,271.411,381.2Z" transform="translate(-229.004 -197.592)" fill="#7f6358"/>
      <path id="Path_8483" data-name="Path 8483" d="M296.406,382.768a1.377,1.377,0,0,1-.714.285,3.283,3.283,0,0,1-2.055-.457,15.956,15.956,0,0,1-2.4-1.927l-2.811-2.462-5.138-4.417A16.885,16.885,0,0,1,281.2,371.9a14.559,14.559,0,0,1,2.3,1.62c1.377,1.056,3.247,2.569,5.252,4.281,1,.871,1.941,1.713,2.783,2.49a18.227,18.227,0,0,0,2.276,1.969,3.382,3.382,0,0,0,1.855.571C296.142,382.839,296.392,382.725,296.406,382.768Z" transform="translate(-234.718 -194.967)" fill="#7f6358"/>
      <path id="Path_8484" data-name="Path 8484" d="M249.691,375.95a1.972,1.972,0,0,1-.278-.307l-.714-.913-2.712-3.418-3.91-5.095-2.3-3.011a3.482,3.482,0,0,0-1.541-1.077,3.61,3.61,0,0,0-.956-.193h-1.028l-14.271-.057-4.331-.057h-1.177a1.889,1.889,0,0,1-.414-.036,1.427,1.427,0,0,1,.414-.036l1.177-.036,4.331-.064,14.271-.05h1.056a4.032,4.032,0,0,1,1.049.214,3.874,3.874,0,0,1,1.7,1.2l2.291,3.033,3.846,5.145c1.063,1.427,1.934,2.619,2.569,3.489.278.385.5.714.714.956a1.519,1.519,0,0,1,.214.314Z" transform="translate(-216.06 -192.017)" fill="#263238"/>
      <path id="Path_8485" data-name="Path 8485" d="M231.651,364.819a.849.849,0,1,1-.143,1.206.871.871,0,0,1,.114-1.177" transform="translate(-220.434 -192.889)" fill="#f5f5f5"/>
      <path id="Path_8486" data-name="Path 8486" d="M361.283,239.87l29.028,17.062,5.338,94.192,6.936,53.29H298.26s1.149-64.857,1.506-84.473c.257-13.751-.114-40.4,4.538-56.793,1.984-6.986,21.407-16.013,21.407-16.013C336.351,256.532,348.246,253.728,361.283,239.87Z" transform="translate(-239.604 -157.151)" fill="#9676ff"/>
      <path id="Path_8487" data-name="Path 8487" d="M399.774,437.385c0,.1-22.52.186-50.307.186s-50.307-.086-50.307-.186,22.52-.186,50.307-.186S399.774,437.278,399.774,437.385Z" transform="translate(-239.862 -213.671)" fill="#fff"/>
      <g id="Group_2466" data-name="Group 2466" transform="translate(59.234 207.594)" opacity="0.3">
        <path id="Path_8488" data-name="Path 8488" d="M299.07,414.962c8.078,6.772,20.629,10.44,30.962,12.53s20.886,2.854,31.247,4.752c7.243,1.349,14.842,3.254,21.828.9a19.267,19.267,0,0,0,12.744-16.462,1.777,1.777,0,0,0-.314-1.427,1.891,1.891,0,0,0-1.477-.357c-31.19,1.384-64.222,1.192-94.991.043" transform="translate(-299.07 -414.869)"/>
      </g>
      <path id="Path_8489" data-name="Path 8489" d="M291.33,370.48h72.9l.357-38.412,33.638-4.339s.15,39.011.15,51.806c0,15.356-13.273,26.031-24.419,24.39S291.33,388.94,291.33,388.94Z" transform="translate(-237.619 -182.316)" fill="#9b7564"/>
      <path id="Path_8490" data-name="Path 8490" d="M428.664,316.1l-39.2,4.074v-46s3.853-15.542,17.4-14.892,21.521,15.3,21.807,28.736S428.664,316.1,428.664,316.1Z" transform="translate(-265.726 -162.705)" fill="#9676ff"/>
      <path id="Path_8491" data-name="Path 8491" d="M302.736,264.93s-12.566,8.27-15.934,17.4c-3.532,9.569-8.492,40.567-8.492,40.567h17.618Z" transform="translate(-233.89 -164.328)" fill="#9676ff"/>
      <path id="Path_8492" data-name="Path 8492" d="M388.65,282.72a10.121,10.121,0,0,1,0,1.677c-.036,1.163-.086,2.7-.143,4.574-.114,3.853-.235,9.184-.221,15.071s.171,11.217.321,15.071c.071,1.87.128,3.411.171,4.574a10.8,10.8,0,0,1,0,1.677,10.187,10.187,0,0,1-.2-1.67c-.1-1.07-.221-2.633-.335-4.56-.235-3.86-.442-9.191-.464-15.092s.157-11.232.371-15.092c.1-1.927.207-3.482.3-4.56A10.846,10.846,0,0,1,388.65,282.72Z" transform="translate(-265.244 -169.424)" fill="#263238"/>
      <path id="Path_8493" data-name="Path 8493" d="M409.353,260.1c0,.1-1.313-.25-3.439-.214a15.292,15.292,0,0,0-13.4,8.22c-.992,1.877-1.27,3.19-1.363,3.168a3.17,3.17,0,0,1,.157-.928,12.55,12.55,0,0,1,.892-2.4,14.814,14.814,0,0,1,13.715-8.42,13.262,13.262,0,0,1,2.547.293A3.041,3.041,0,0,1,409.353,260.1Z" transform="translate(-266.21 -162.78)" fill="#263238"/>
      <path id="Path_8494" data-name="Path 8494" d="M300.915,295.29a2.718,2.718,0,0,1,.05.521c0,.4,0,.892.043,1.491,0,1.292.043,3.161.043,5.473,0,4.624-.071,11.01-.207,18.061s-.271,13.365-.364,18.053c-.043,2.255-.078,4.11-.107,5.473,0,.6-.043,1.092-.057,1.491a1.734,1.734,0,0,1-.05.514,2.139,2.139,0,0,1-.05-.514c0-.4,0-.892-.043-1.491,0-1.292-.043-3.161-.043-5.473,0-4.624.071-11.01.207-18.068s.264-13.365.357-18.046c.05-2.262.086-4.11.114-5.473,0-.6.043-1.092.05-1.491A1.883,1.883,0,0,1,300.915,295.29Z" transform="translate(-240.14 -173.024)" fill="#263238"/>
      <path id="Path_8495" data-name="Path 8495" d="M295.811,316.768a48.435,48.435,0,0,1-5.965.136,48.038,48.038,0,0,1-5.965-.243,48.435,48.435,0,0,1,5.965-.136,46.333,46.333,0,0,1,5.965.243Z" transform="translate(-235.485 -179.096)" fill="#fff"/>
      <path id="Path_8496" data-name="Path 8496" d="M363.794,301.926c0,.1-13.558.186-30.22.186s-30.234-.086-30.234-.186,13.558-.186,30.234-.186S363.794,301.8,363.794,301.926Z" transform="translate(-241.059 -174.872)" fill="#fff"/>
      <path id="Path_8497" data-name="Path 8497" d="M427.651,292.507a1.729,1.729,0,0,1-.4,0l-1.127-.093-4.139-.357c-3.5-.293-8.342-.614-13.693-.764s-10.2-.086-13.715,0l-4.16.128H389.29a1.385,1.385,0,0,1-.4,0,1.76,1.76,0,0,1,.392-.057l1.127-.1c.985-.078,2.4-.164,4.16-.25,3.511-.164,8.363-.257,13.729-.114s10.211.514,13.708.871c1.748.178,3.161.342,4.132.478l1.12.157A1.549,1.549,0,0,1,427.651,292.507Z" transform="translate(-265.563 -171.747)" fill="#fff"/>
      <path id="Path_8498" data-name="Path 8498" d="M427.862,331c0,.107-8.855,0-19.766-.257s-19.773-.535-19.766-.635,8.848,0,19.773.264S427.862,330.9,427.862,331Z" transform="translate(-265.402 -182.985)" fill="#fff"/>
      <path id="Path_8499" data-name="Path 8499" d="M368.769,269.816c0,.107-13.972.186-31.2.186s-31.2-.078-31.2-.186,13.972-.186,31.2-.186S368.769,269.716,368.769,269.816Z" transform="translate(-241.924 -165.675)" fill="#fff"/>
      <path id="Path_8500" data-name="Path 8500" d="M363.209,342.476c0,.1-14.015.186-31.3.186s-31.3-.086-31.3-.186,14.015-.186,31.3-.186S363.209,342.368,363.209,342.476Z" transform="translate(-240.274 -186.486)" fill="#fff"/>
      <path id="Path_8501" data-name="Path 8501" d="M367.312,374.556c0,.1-15.242.186-34.038.186s-34.045-.086-34.045-.186,15.242-.186,34.045-.186S367.312,374.448,367.312,374.556Z" transform="translate(-239.882 -195.675)" fill="#fff"/>
      <path id="Path_8502" data-name="Path 8502" d="M401.725,467.056c0,.1-22.984.186-51.327.186s-51.327-.086-51.327-.186,22.977-.186,51.327-.186S401.725,466.963,401.725,467.056Z" transform="translate(-239.836 -222.169)" fill="#fff"/>
      <g id="Group_2467" data-name="Group 2467" transform="translate(118.292 131.221)" opacity="0.3">
        <path id="Path_8503" data-name="Path 8503" d="M386.8,334.521c-.457-9.091-.128-17.6-.592-26.681a168.7,168.7,0,0,0-4.353,40.674,31.207,31.207,0,0,0,1.256,9.626,12.93,12.93,0,0,0,6.922,7.022l.285-31.033C388.981,334.228,388.139,334.456,386.8,334.521Z" transform="translate(-381.834 -307.84)"/>
      </g>
    </g>
    <g id="freepik--Plant--inject-71" transform="translate(35.888 250.15)">
      <path id="Path_8504" data-name="Path 8504" d="M88.872,423.48l-5.145,33.8H53.836L46.9,423.965Z" transform="translate(-41.038 -354.253)" fill="#9676ff"/>
      <path id="Path_8505" data-name="Path 8505" d="M52.76,453.771c0,.1,7.657.178,17.126.178s17.126-.078,17.126-.178-7.657-.171-17.126-.171S52.76,453.678,52.76,453.771Z" transform="translate(-42.716 -362.88)" fill="#fafafa"/>
      <path id="Path_8506" data-name="Path 8506" d="M52.6,451.441c0,.1,7.707.178,17.219.178s17.219-.078,17.219-.178-7.707-.171-17.219-.171S52.6,451.349,52.6,451.441Z" transform="translate(-42.671 -362.213)" fill="#fafafa"/>
      <path id="Path_8507" data-name="Path 8507" d="M52.68,448.808c0,.1,7.707.178,17.219.178s17.219-.078,17.219-.178-7.707-.178-17.219-.178S52.68,448.708,52.68,448.808Z" transform="translate(-42.694 -361.457)" fill="#fafafa"/>
      <path id="Path_8508" data-name="Path 8508" d="M93.7,464.7a28.352,28.352,0,0,0,.913-4.281,27.116,27.116,0,0,0,.571-4.317,26.845,26.845,0,0,0-.913,4.281A26.167,26.167,0,0,0,93.7,464.7Z" transform="translate(-54.443 -363.597)" fill="#fafafa"/>
      <path id="Path_8509" data-name="Path 8509" d="M90.808,464.31a36.29,36.29,0,0,0,.371-4.153,33.471,33.471,0,0,0,.193-4.167,19.822,19.822,0,0,0-.542,4.139,19.222,19.222,0,0,0-.021,4.182Z" transform="translate(-53.585 -363.565)" fill="#fafafa"/>
      <path id="Path_8510" data-name="Path 8510" d="M85.65,464.213a33.894,33.894,0,0,0,1.006-8.563,38.858,38.858,0,0,0-.578,4.281A39.961,39.961,0,0,0,85.65,464.213Z" transform="translate(-52.137 -363.468)" fill="#fafafa"/>
      <path id="Path_8511" data-name="Path 8511" d="M81.985,464.417a34.416,34.416,0,0,0,.278-8.677,37.691,37.691,0,0,0-.214,4.339,36.453,36.453,0,0,0-.064,4.339Z" transform="translate(-51.077 -363.493)" fill="#fafafa"/>
      <path id="Path_8512" data-name="Path 8512" d="M75.509,464.348a23.72,23.72,0,0,0,.321-4.11,24.147,24.147,0,0,0-.043-4.117,25.094,25.094,0,0,0-.314,4.11A25.594,25.594,0,0,0,75.509,464.348Z" transform="translate(-49.203 -363.602)" fill="#fafafa"/>
      <path id="Path_8513" data-name="Path 8513" d="M70.744,464.477a25.088,25.088,0,0,0,.143-4.281,25.545,25.545,0,0,0-.214-4.246,26.618,26.618,0,0,0-.136,4.281A26.052,26.052,0,0,0,70.744,464.477Z" transform="translate(-47.799 -363.554)" fill="#fafafa"/>
      <path id="Path_8514" data-name="Path 8514" d="M66.073,463.711a27.214,27.214,0,0,0-.257-4.438,28.8,28.8,0,0,0-.6-4.4,27.187,27.187,0,0,0,.257,4.438,28.8,28.8,0,0,0,.6,4.4Z" transform="translate(-46.282 -363.244)" fill="#fafafa"/>
      <path id="Path_8515" data-name="Path 8515" d="M60.073,463.664a23.058,23.058,0,0,0-1.613-7.414,34.966,34.966,0,0,0,.771,3.718A32.518,32.518,0,0,0,60.073,463.664Z" transform="translate(-44.349 -363.64)" fill="#fafafa"/>
      <path id="Path_8516" data-name="Path 8516" d="M64.757,330a.564.564,0,0,0,0,.171,2.179,2.179,0,0,0,.136.478c.143.442.328,1.049.571,1.82s.564,1.763.878,2.9.714,2.412,1.077,3.853.792,3,1.163,4.71.764,3.518,1.156,5.445c.714,3.853,1.37,8.113,1.827,12.609s.642,8.813.714,12.737c0,1.955,0,3.818-.05,5.566s-.128,3.361-.214,4.845-.2,2.811-.293,3.989-.193,2.184-.293,3.011-.15,1.427-.193,1.9a2.333,2.333,0,0,1-.043.492v.171a.478.478,0,0,0,.043-.164,3.412,3.412,0,0,1,.078-.492c.057-.457.15-1.092.257-1.891s.243-1.834.35-3,.264-2.512.35-4,.207-3.1.25-4.852.078-3.611.093-5.58c-.043-3.925-.235-8.249-.714-12.759s-1.127-8.784-1.862-12.645c-.4-1.927-.756-3.753-1.185-5.452s-.813-3.275-1.206-4.7-.792-2.719-1.135-3.846-.656-2.1-.935-2.854-.478-1.363-.628-1.805c-.071-.186-.128-.342-.171-.464A1.426,1.426,0,0,0,64.757,330Z" transform="translate(-46.151 -327.478)" fill="#263238"/>
      <path id="Path_8517" data-name="Path 8517" d="M69.076,356.73a11.1,11.1,0,0,0-4.652-5.873,2.644,2.644,0,0,0-2.455-.45c-1.042.507-1.127,1.97-.813,3.09a8.163,8.163,0,0,0,3.411,4.61,6.865,6.865,0,0,0,5.074,1.277" transform="translate(-45.075 -333.279)" fill="#263238"/>
      <path id="Path_8518" data-name="Path 8518" d="M71.435,375.286c-.771-2.918-3.1-7.064-5.516-8.877a3.611,3.611,0,0,0-1.256-.664,1.427,1.427,0,0,0-1.342.285,2.077,2.077,0,0,0-.3,1.941,11.774,11.774,0,0,0,8.72,8.777" transform="translate(-45.622 -337.7)" fill="#263238"/>
      <path id="Path_8519" data-name="Path 8519" d="M71.968,393.475a17.04,17.04,0,0,0-5.566-6.993,2.626,2.626,0,0,0-1.941-.714c-1.056.186-1.534,1.477-1.427,2.548.193,2.2,1.877,3.967,3.611,5.33a22.12,22.12,0,0,0,5.145,2.647" transform="translate(-45.655 -343.451)" fill="#263238"/>
      <path id="Path_8520" data-name="Path 8520" d="M72.043,406.677a16.34,16.34,0,0,0-4.738-5.395,3.411,3.411,0,0,0-1.427-.635,1.427,1.427,0,0,0-1.427.528c-.478.714,0,1.641.485,2.319a13.508,13.508,0,0,0,6.758,4.952" transform="translate(-46.008 -347.705)" fill="#263238"/>
      <path id="Path_8521" data-name="Path 8521" d="M75.408,401.027a52,52,0,0,1,6.779-6.886,1.506,1.506,0,0,1,1.349-.507,1.006,1.006,0,0,1,.621.906,2.633,2.633,0,0,1-.257,1.135A13.13,13.13,0,0,1,75.18,403" transform="translate(-49.138 -345.701)" fill="#263238"/>
      <path id="Path_8522" data-name="Path 8522" d="M75.19,384.321l5.323-6.486a6.421,6.421,0,0,1,1.727-1.641,2.2,2.2,0,0,1,2.269,0,2.141,2.141,0,0,1,.714,2.141,5.615,5.615,0,0,1-1.042,2.141,15.7,15.7,0,0,1-3.86,4.053,6.469,6.469,0,0,1-4.859,1.5" transform="translate(-49.141 -340.619)" fill="#263238"/>
      <path id="Path_8523" data-name="Path 8523" d="M74.16,365.785a18.446,18.446,0,0,1,5.352-8.035,3.075,3.075,0,0,1,1.427-.814,2.34,2.34,0,0,1,2.44,1.713,4.353,4.353,0,0,1-.485,3.518,9.191,9.191,0,0,1-2.5,2.647,21.593,21.593,0,0,1-5.916,3.2" transform="translate(-48.846 -335.192)" fill="#263238"/>
      <path id="Path_8524" data-name="Path 8524" d="M71.18,348.526c.514-3.761,2.469-6.893,4.738-9.933.478-.642,1.149-1.32,1.934-1.2a1.527,1.527,0,0,1,1.113.949,3.568,3.568,0,0,1,.207,1.506,11.6,11.6,0,0,1-7.535,10.375" transform="translate(-47.992 -329.592)" fill="#263238"/>
      <path id="Path_8525" data-name="Path 8525" d="M66.352,339.406a31.006,31.006,0,0,0,.193-5.809,10.4,10.4,0,0,0-1.927-5.416,4.432,4.432,0,0,0-1.9-1.541,2.441,2.441,0,0,0-2.369.314,2.6,2.6,0,0,0-.813,2.091,6.786,6.786,0,0,0,.6,2.226c1.427,3.411,3.782,7.186,6.251,8.135" transform="translate(-44.655 -326.466)" fill="#263238"/>
      <path id="Path_8526" data-name="Path 8526" d="M97.743,350.88a2.254,2.254,0,0,0,0,.478v1.363c0,.564,0,1.32-.036,2.141s0,1.8-.1,2.854c-.093,2.141-.3,4.624-.621,7.407s-.863,5.823-1.513,9-1.427,6.137-2.262,8.82-1.648,5.052-2.412,7.029c-.357.992-.714,1.877-1.049,2.655s-.6,1.427-.842,1.991l-.528,1.256a2.858,2.858,0,0,0-.171.45,2.534,2.534,0,0,0,.235-.421c.15-.314.343-.714.592-1.227s.564-1.192.892-1.969.714-1.648,1.106-2.64c.792-1.969,1.641-4.353,2.483-7.029s1.62-5.673,2.3-8.841a90.246,90.246,0,0,0,1.427-9.012c.307-2.79.485-5.309.542-7.435.057-1.056.043-2.019.05-2.854s0-1.57,0-2.141a10.545,10.545,0,0,0-.05-1.363A2.1,2.1,0,0,0,97.743,350.88Z" transform="translate(-52.87 -333.459)" fill="#263238"/>
      <path id="Path_8527" data-name="Path 8527" d="M98.514,370.14a7.935,7.935,0,0,0-1.9-4.995,1.912,1.912,0,0,0-1.577-.835c-.821.121-1.192,1.1-1.22,1.927a5.823,5.823,0,0,0,1.313,3.868,4.916,4.916,0,0,0,3.175,1.962" transform="translate(-54.476 -337.306)" fill="#263238"/>
      <path id="Path_8528" data-name="Path 8528" d="M96.19,383.264a13.417,13.417,0,0,0-1.848-7.229,2.548,2.548,0,0,0-.714-.714,1.042,1.042,0,0,0-.978-.086,1.427,1.427,0,0,0-.621,1.249,8.406,8.406,0,0,0,4.046,7.849" transform="translate(-53.957 -340.411)" fill="#263238"/>
      <path id="Path_8529" data-name="Path 8529" d="M92.557,395.787a12.181,12.181,0,0,0-2.276-5.965,1.905,1.905,0,0,0-1.177-.885c-.756-.1-1.363.678-1.527,1.427a5.892,5.892,0,0,0,1.306,4.4,16.035,16.035,0,0,0,2.933,2.911" transform="translate(-52.665 -344.357)" fill="#263238"/>
      <path id="Path_8530" data-name="Path 8530" d="M89.906,404.785a11.759,11.759,0,0,0-2.062-4.688,2.518,2.518,0,0,0-.835-.714,1.035,1.035,0,0,0-1.063.064c-.471.371-.364,1.106-.164,1.677a9.619,9.619,0,0,0,3.568,4.831" transform="translate(-52.126 -347.318)" fill="#263238"/>
      <path id="Path_8531" data-name="Path 8531" d="M92.765,402.227a37.161,37.161,0,0,1,6.094-3.233,1.063,1.063,0,0,1,1.028-.057.714.714,0,0,1,.228.714,1.82,1.82,0,0,1-.421.714,9.362,9.362,0,0,1-7.514,3.118" transform="translate(-54.007 -347.194)" fill="#263238"/>
      <path id="Path_8532" data-name="Path 8532" d="M96.167,390.791q2.512-1.627,5-3.268a4.5,4.5,0,0,1,1.534-.714,1.377,1.377,0,0,1,1.584,2.084,4.075,4.075,0,0,1-1.17,1.227,11.152,11.152,0,0,1-3.525,1.969,4.631,4.631,0,0,1-3.625,0" transform="translate(-55.09 -343.728)" fill="#263238"/>
      <path id="Path_8533" data-name="Path 8533" d="M99.385,377.864a13.294,13.294,0,0,1,5.373-4.324,2.326,2.326,0,0,1,1.127-.25,1.67,1.67,0,0,1,1.292,1.691,3.133,3.133,0,0,1-1.092,2.291,6.516,6.516,0,0,1-2.269,1.263,15.221,15.221,0,0,1-4.717.9" transform="translate(-55.989 -339.877)" fill="#263238"/>
      <path id="Path_8534" data-name="Path 8534" d="M100.977,365.42a15.482,15.482,0,0,1,5.359-5.744,1.634,1.634,0,0,1,1.577-.4,1.092,1.092,0,0,1,.557.885,2.512,2.512,0,0,1-.186,1.07,8.292,8.292,0,0,1-7.364,5.445" transform="translate(-56.511 -335.846)" fill="#263238"/>
      <path id="Path_8535" data-name="Path 8535" d="M100.357,357.818a22.013,22.013,0,0,0,1.377-3.918,7.421,7.421,0,0,0-.143-4.1,3.2,3.2,0,0,0-.985-1.427,1.748,1.748,0,0,0-1.684-.3,1.848,1.848,0,0,0-1,1.249,4.524,4.524,0,0,0-.071,1.641c.228,2.626,1.028,5.709,2.5,6.893" transform="translate(-55.62 -332.626)" fill="#263238"/>
      <path id="Path_8536" data-name="Path 8536" d="M48.581,350.42a3.567,3.567,0,0,0,0,.478c0,.35-.036.8-.05,1.363s-.043,1.32,0,2.141,0,1.805.05,2.854c.064,2.141.243,4.645.542,7.435s.8,5.844,1.427,9.012a90.167,90.167,0,0,0,2.291,8.841c.821,2.683,1.691,5.059,2.49,7.029.378.992.771,1.862,1.106,2.64s.628,1.427.892,1.969l.592,1.227a2.281,2.281,0,0,0,.228.421,3.2,3.2,0,0,0-.164-.45l-.564-1.227c-.243-.542-.528-1.206-.835-1.991s-.714-1.663-1.056-2.654c-.764-1.977-1.584-4.36-2.412-7.029s-1.591-5.659-2.262-8.813-1.127-6.2-1.477-8.977-.521-5.295-.614-7.435c-.071-1.056-.078-2.012-.107-2.854s0-1.57,0-2.141V350.9a1.92,1.92,0,0,0-.078-.478Z" transform="translate(-41.499 -333.327)" fill="#455a64"/>
      <path id="Path_8537" data-name="Path 8537" d="M49.78,369.66a7.906,7.906,0,0,1,1.905-5,1.891,1.891,0,0,1,1.57-.835c.821.121,1.192,1.1,1.22,1.927a5.816,5.816,0,0,1-1.306,3.9,4.924,4.924,0,0,1-3.183,1.962" transform="translate(-41.863 -337.168)" fill="#455a64"/>
      <path id="Path_8538" data-name="Path 8538" d="M52.306,382.8a13.417,13.417,0,0,1,1.848-7.229,2.568,2.568,0,0,1,.714-.714,1.027,1.027,0,0,1,.97-.086,1.427,1.427,0,0,1,.621,1.249,8.392,8.392,0,0,1-4.046,7.849" transform="translate(-42.584 -340.28)" fill="#455a64"/>
      <path id="Path_8539" data-name="Path 8539" d="M55.59,395.327a12.259,12.259,0,0,1,2.283-5.965,1.9,1.9,0,0,1,1.17-.885c.764-.1,1.363.678,1.534,1.427a5.86,5.86,0,0,1-1.313,4.4,15.8,15.8,0,0,1-2.933,2.911" transform="translate(-43.527 -344.225)" fill="#455a64"/>
      <path id="Path_8540" data-name="Path 8540" d="M58.56,404.326a11.56,11.56,0,0,1,2.062-4.66,2.5,2.5,0,0,1,.828-.714,1.035,1.035,0,0,1,1.063.064c.471.371.371,1.113.171,1.677a9.669,9.669,0,0,1-3.568,4.831" transform="translate(-44.378 -347.195)" fill="#455a64"/>
      <path id="Path_8541" data-name="Path 8541" d="M54.278,401.767a37.234,37.234,0,0,0-6.1-3.233,1.063,1.063,0,0,0-1.028-.057.714.714,0,0,0-.221.749,1.805,1.805,0,0,0,.414.714,9.369,9.369,0,0,0,7.514,3.118" transform="translate(-41.037 -347.062)" fill="#455a64"/>
      <path id="Path_8542" data-name="Path 8542" d="M50.59,390.382l-5-3.268a4.53,4.53,0,0,0-1.527-.714,1.548,1.548,0,0,0-1.548.471,1.513,1.513,0,0,0-.036,1.613,4.053,4.053,0,0,0,1.142,1.185,11.232,11.232,0,0,0,3.525,1.969,4.645,4.645,0,0,0,3.632,0" transform="translate(-39.711 -343.618)" fill="#455a64"/>
      <path id="Path_8543" data-name="Path 8543" d="M47.552,377.4a13.2,13.2,0,0,0-5.373-4.324,2.3,2.3,0,0,0-1.12-.25,1.677,1.677,0,0,0-1.3,1.691,3.133,3.133,0,0,0,1.092,2.291,6.515,6.515,0,0,0,2.269,1.263,15.222,15.222,0,0,0,4.717.9" transform="translate(-38.993 -339.745)" fill="#455a64"/>
      <path id="Path_8544" data-name="Path 8544" d="M46.181,364.959a15.559,15.559,0,0,0-5.366-5.744,1.627,1.627,0,0,0-1.577-.4,1.1,1.1,0,0,0-.549.885,2.5,2.5,0,0,0,.178,1.07,8.3,8.3,0,0,0,7.364,5.445" transform="translate(-38.685 -335.714)" fill="#455a64"/>
      <path id="Path_8545" data-name="Path 8545" d="M48.166,357.338a22.043,22.043,0,0,1-1.384-3.918,7.421,7.421,0,0,1,.15-4.1,3.09,3.09,0,0,1,.985-1.477,1.734,1.734,0,0,1,1.677-.3A1.855,1.855,0,0,1,50.6,348.79a4.867,4.867,0,0,1,.071,1.641c-.235,2.633-1.028,5.709-2.5,6.893" transform="translate(-40.941 -332.475)" fill="#455a64"/>
      <path id="Path_8546" data-name="Path 8546" d="M91.149,414.1v6.351a2.49,2.49,0,0,1-2.49,2.49H45.38a2.49,2.49,0,0,1-2.49-2.49V414.1Z" transform="translate(-39.889 -351.567)" fill="#9676ff"/>
      <g id="Group_2468" data-name="Group 2468" transform="translate(6.205 71.346)" opacity="0.4">
        <path id="Path_8547" data-name="Path 8547" d="M88.682,426.45l-.357,2.012-39.932,2.847L47.38,426.45Z" transform="translate(-47.38 -426.45)"/>
      </g>
    </g>
    <g id="freepik--Table--inject-71" transform="translate(28.92 352.858)">
      <path id="Path_8548" data-name="Path 8548" d="M344.434,470.586c0,.1-70.644.186-157.75.186s-157.764-.086-157.764-.186,70.644-.186,157.764-.186S344.434,470.478,344.434,470.586Z" transform="translate(-28.92 -470.4)" fill="#263238"/>
    </g>
  </g>
</svg>
