<svg xmlns="http://www.w3.org/2000/svg" width="314.238" height="322.532" viewBox="0 0 314.238 322.532">
  <g id="Key-pana" transform="translate(-32.9 -24.415)">
    <g id="freepik--background-complete--inject-34" transform="translate(32.9 24.415)">
      <path id="Path_9469" data-name="Path 9469" d="M90.37,85.982,126.393,159.3a3.114,3.114,0,0,1-1.448,4.171h0a3.113,3.113,0,0,1-4.163-1.448l-36-73.284a3.114,3.114,0,0,1,1.448-4.171h0a3.121,3.121,0,0,1,4.142,1.419Z" transform="translate(-47.128 -40.926)" fill="#e0e0e0"/>
      <rect id="Rectangle_3448" data-name="Rectangle 3448" width="16.828" height="4.207" transform="translate(76.125 113.489) rotate(-116.17)" fill="#e0e0e0"/>
      <path id="Path_9470" data-name="Path 9470" d="M122.621,148.2h0a2.9,2.9,0,0,1-1.332,3.9l-5.583,2.737a2.9,2.9,0,0,1-3.9-1.332h0a2.9,2.9,0,0,1,1.332-3.9l5.583-2.744a2.9,2.9,0,0,1,3.9,1.34Z" transform="translate(-54.587 -58.117)" fill="#e0e0e0"/>
      <path id="Path_9471" data-name="Path 9471" d="M139.644,173.827l7.791-3.83-2.027-4.127-3.9,1.912-1.267-2.592,3.9-1.912-3.338-6.8-2.737,1.347-1.274-2.592,2.737-1.347-2.02-4.106-7.791,3.83Z" transform="translate(-59.611 -59.006)" fill="#e0e0e0"/>
      <rect id="Rectangle_3449" data-name="Rectangle 3449" width="7.11" height="12.324" transform="translate(37.125 52.52) rotate(-116.17)" fill="#e0e0e0"/>
      <path id="Path_9472" data-name="Path 9472" d="M61.336,54.136a6.451,6.451,0,0,0,.413.724,12.983,12.983,0,0,0-4.866,16.791h0a13.034,13.034,0,0,0,17.378,5.93l9.753-4.8A12.983,12.983,0,0,0,89.944,55.4h0A12.983,12.983,0,0,0,73.4,49.111a6.049,6.049,0,0,0-.311-.724,6.551,6.551,0,1,0-11.752,5.793Zm13.931-.471a8.037,8.037,0,1,1,.587,14.684,8.037,8.037,0,1,1-4.772-9.667,8.016,8.016,0,0,1,4.185-5.018Zm-5.445-4.171a3.114,3.114,0,1,1-4.171-1.448,3.114,3.114,0,0,1,4.171,1.448Z" transform="translate(-39.15 -30.021)" fill="#e0e0e0"/>
      <rect id="Rectangle_3450" data-name="Rectangle 3450" width="99.981" height="7.082" rx="3.541" transform="matrix(-0.2, 0.98, -0.98, -0.2, 293.597, 168.378)" fill="#e0e0e0"/>
      <rect id="Rectangle_3451" data-name="Rectangle 3451" width="19.138" height="4.786" transform="matrix(-0.2, 0.98, -0.98, -0.2, 285.383, 177.003)" fill="#e0e0e0"/>
      <rect id="Rectangle_3452" data-name="Rectangle 3452" width="6.633" height="13.707" rx="3.316" transform="matrix(-0.2, 0.98, -0.98, -0.2, 290.458, 203.151)" fill="#e0e0e0"/>
      <path id="Path_9473" data-name="Path 9473" d="M417.8,262.7l-9.674-1.977-1.05,5.126,4.837.992-.652,3.215-4.837-.985L404.7,277.5l3.4.7-.659,3.215-3.4-.688-1.035,5.1,9.674,1.969Z" transform="translate(-135.02 -89.616)" fill="#e0e0e0"/>
      <rect id="Rectangle_3453" data-name="Rectangle 3453" width="8.088" height="14.011" transform="matrix(-0.2, 0.98, -0.98, -0.2, 278.088, 259.013)" fill="#e0e0e0"/>
      <path id="Path_9474" data-name="Path 9474" d="M398.63,419.218a7.012,7.012,0,0,0,.13-.941,14.779,14.779,0,0,0,16.06-11.73h0a14.771,14.771,0,0,0-11.52-17.421l-12.121-2.469a14.764,14.764,0,0,0-17.414,11.52h0a14.757,14.757,0,0,0,10.514,17.175,8.917,8.917,0,0,0-.239.891,7.445,7.445,0,1,0,14.59,2.976Zm-12.86-9.268a9.138,9.138,0,1,1,9.681-13.62A9.138,9.138,0,1,1,393,408.371a9.131,9.131,0,0,1-7.226,1.579Zm2,7.545a3.541,3.541,0,1,1,2.759,4.178,3.541,3.541,0,0,1-2.759-4.178Z" transform="translate(-126.867 -124.281)" fill="#e0e0e0"/>
      <rect id="Rectangle_3454" data-name="Rectangle 3454" width="6.575" height="32.714" transform="matrix(1, -0.005, 0.005, 1, 260.226, 21.267)" fill="#e0e0e0"/>
      <rect id="Rectangle_3455" data-name="Rectangle 3455" width="17.023" height="18.059" transform="matrix(1, -0.005, 0.005, 1, 203.271, 21.409)" fill="#ebebeb"/>
      <rect id="Rectangle_3456" data-name="Rectangle 3456" width="17.023" height="18.059" transform="matrix(1, -0.005, 0.005, 1, 220.214, 21.317)" fill="#f5f5f5"/>
      <path id="Path_9475" data-name="Path 9475" d="M313.615,60.685q16.973.145,33.974-.152a.181.181,0,1,0,0-.362c-11.31-.065-22.657,0-33.967.2a.159.159,0,0,0,0,.311Z" transform="translate(-110.321 -34.274)" fill="#e0e0e0"/>
      <rect id="Rectangle_3457" data-name="Rectangle 3457" width="30.933" height="14.721" transform="matrix(1, -0.005, 0.005, 1, 192.658, 39.25)" fill="#ebebeb"/>
      <rect id="Rectangle_3458" data-name="Rectangle 3458" width="30.933" height="14.721" transform="matrix(1, -0.005, 0.005, 1, 223.445, 39.083)" fill="#f5f5f5"/>
      <path id="Path_9476" data-name="Path 9476" d="M298.952,84.012c20.549.232,41.171,0,61.721-.311a.181.181,0,1,0,0-.362c-20.549-.109-41.171-.094-61.721.362a.159.159,0,0,0,0,.311Z" transform="translate(-106.274 -40.658)" fill="#e0e0e0"/>
      <rect id="Rectangle_3459" data-name="Rectangle 3459" width="119.843" height="5.271" transform="translate(181.108 53.976)" fill="#e0e0e0"/>
      <rect id="Rectangle_3460" data-name="Rectangle 3460" width="4.866" height="17.993" transform="translate(200.73 56.511)" fill="#e0e0e0"/>
      <rect id="Rectangle_3461" data-name="Rectangle 3461" width="4.866" height="17.993" transform="translate(273.349 56.511)" fill="#e0e0e0"/>
      <rect id="Rectangle_3462" data-name="Rectangle 3462" width="6.575" height="44.995" transform="translate(266.766 7.741) rotate(-0.573)" fill="#ebebeb"/>
      <rect id="Rectangle_3463" data-name="Rectangle 3463" width="10.217" height="36.465" transform="matrix(1, -0.005, 0.005, 1, 273.275, 17.467)" fill="#f5f5f5"/>
      <path id="Path_9477" data-name="Path 9477" d="M420.427,58.114a75.167,75.167,0,0,1-10.217,0,75.17,75.17,0,0,1,10.217,0Z" transform="translate(-137.006 -33.665)" fill="#e0e0e0"/>
      <path id="Path_9478" data-name="Path 9478" d="M420.427,56a75.172,75.172,0,0,1-10.217,0,72.171,72.171,0,0,1,10.217,0Z" transform="translate(-137.006 -33.081)" fill="#e0e0e0"/>
      <path id="Path_9479" data-name="Path 9479" d="M420.427,91.191a75.171,75.171,0,0,1-10.217,0A72.17,72.17,0,0,1,420.427,91.191Z" transform="translate(-137.006 -42.79)" fill="#e0e0e0"/>
      <path id="Path_9480" data-name="Path 9480" d="M420.427,89.074a72.17,72.17,0,0,1-10.217,0A75.168,75.168,0,0,1,420.427,89.074Z" transform="translate(-137.006 -42.208)" fill="#e0e0e0"/>
      <path id="Path_9481" data-name="Path 9481" d="M417.421,78.267c-.1,0-.181-3.678-.181-8.218s.08-8.218.181-8.218.174,3.678.174,8.218S417.515,78.267,417.421,78.267Z" transform="translate(-138.946 -34.739)" fill="#e0e0e0"/>
      <rect id="Rectangle_3464" data-name="Rectangle 3464" width="11.122" height="27.522" transform="translate(283.529 26.374)" fill="#ebebeb"/>
      <path id="Path_9482" data-name="Path 9482" d="M406.72,46.8a1.89,1.89,0,1,1-1.89-1.89A1.89,1.89,0,0,1,406.72,46.8Z" transform="translate(-135 -30.07)" fill="#e0e0e0"/>
      <rect id="Rectangle_3465" data-name="Rectangle 3465" width="1.166" height="26.762" transform="translate(269.243 21.929)" fill="#e0e0e0"/>
      <path id="Path_9483" data-name="Path 9483" d="M108.377,278.35,100.05,311.9h3.367l8.646-33.554Z" transform="translate(-51.428 -94.48)" fill="#ebebeb"/>
      <path id="Path_9484" data-name="Path 9484" d="M143.483,278.35,151.81,311.9h-3.374L139.79,278.35Z" transform="translate(-62.393 -94.48)" fill="#ebebeb"/>
      <rect id="Rectangle_3466" data-name="Rectangle 3466" width="3.925" height="42.67" transform="translate(66.652 174.746)" fill="#ebebeb"/>
      <rect id="Rectangle_3467" data-name="Rectangle 3467" width="55.414" height="35.502" transform="translate(40.809 140.526)" fill="#e0e0e0"/>
      <rect id="Rectangle_3468" data-name="Rectangle 3468" width="27.812" height="3.425" transform="translate(54.632 183.327)" fill="#ebebeb"/>
      <path id="Path_9485" data-name="Path 9485" d="M94.3,250.219a3.259,3.259,0,0,1,.036.652h-.072c-.058-1.738-.1-7.487-.1-14.308,0-4.113,0-7.835.043-10.572,0-1.325,0-2.411.043-3.208v-.869a1.224,1.224,0,0,1,0-.3,1.225,1.225,0,0,1,0,.3q0,.34,0,.869c0,.8,0,1.883.043,3.208,0,2.737,0,6.459.043,10.572,0,6.821-.043,12.57-.1,14.308H94.16a3.259,3.259,0,0,1,.138-.652Z" transform="translate(-49.803 -78.825)" fill="#f5f5f5"/>
      <path id="Path_9486" data-name="Path 9486" d="M100,250.219a5.907,5.907,0,0,1,0,.652h-.036c-.051-1.738-.094-7.487-.094-14.308V225.991c0-1.325,0-2.411.043-3.208v-.869a.9.9,0,0,1,0-.3,1.622,1.622,0,0,1,0,.3v.869c0,.8,0,1.883.043,3.208v10.572c0,6.821,0,12.57-.094,14.308h.1a3.513,3.513,0,0,1,.036-.652Z" transform="translate(-51.375 -78.825)" fill="#f5f5f5"/>
      <path id="Path_9487" data-name="Path 9487" d="M105.685,250.219a3.258,3.258,0,0,1,.036.652h-.072c-.058-1.738-.1-7.487-.1-14.308,0-4.113,0-7.835.043-10.572,0-1.325,0-2.411.043-3.208v-.869a1.955,1.955,0,0,1,0-.3.9.9,0,0,1,0,.3q0,.337,0,.869c0,.8,0,1.883.043,3.208,0,2.737,0,6.459.036,10.572,0,6.821-.043,12.57-.1,14.308h-.072A4.2,4.2,0,0,1,105.685,250.219Z" transform="translate(-52.943 -78.825)" fill="#f5f5f5"/>
      <path id="Path_9488" data-name="Path 9488" d="M111.357,250.219a4.2,4.2,0,0,1,0,.652h-.072c-.058-1.738-.1-7.487-.1-14.308V225.991c0-1.325,0-2.411.043-3.208v-.869a1.223,1.223,0,0,1,0-.3,1.956,1.956,0,0,1,0,.3v.869c0,.8,0,1.883.043,3.208,0,2.737,0,6.459.043,10.572,0,6.821-.043,12.57-.1,14.308h-.072A3.257,3.257,0,0,1,111.357,250.219Z" transform="translate(-54.488 -78.825)" fill="#f5f5f5"/>
      <path id="Path_9489" data-name="Path 9489" d="M117.047,250.219a3.511,3.511,0,0,1,.043.652h-.08c-.058-1.738-.094-7.487-.094-14.308V225.991c0-1.325,0-2.411.043-3.208v-.869a1.62,1.62,0,0,1,0-.3.9.9,0,0,1,0,.3v.869c0,.8,0,1.883.043,3.208v10.572c0,6.821-.043,12.57-.094,14.308h-.08A5.9,5.9,0,0,1,117.047,250.219Z" transform="translate(-56.058 -78.825)" fill="#f5f5f5"/>
      <path id="Path_9490" data-name="Path 9490" d="M122.764,250.219a3.259,3.259,0,0,1,0,.652h-.072c-.058-1.738-.1-7.487-.1-14.308,0-4.113,0-7.835.043-10.572,0-1.325,0-2.411.043-3.208v-.869a1.222,1.222,0,0,1,0-.3,1.225,1.225,0,0,1,0,.3q0,.34,0,.869c0,.8,0,1.883.043,3.208,0,2.737,0,6.459.043,10.572,0,6.821-.043,12.57-.1,14.308h-.072A3.259,3.259,0,0,1,122.764,250.219Z" transform="translate(-57.647 -78.825)" fill="#f5f5f5"/>
      <path id="Path_9491" data-name="Path 9491" d="M128.458,250.219a5.9,5.9,0,0,1,.036.652h-.08c-.058-1.738-.094-7.487-.094-14.308V225.991c0-1.325.036-2.411.043-3.208v-.869a.9.9,0,0,1,0-.3,1.619,1.619,0,0,1,0,.3q0,.337,0,.869c0,.8,0,1.883.043,3.208,0,2.737,0,6.459.036,10.572,0,6.821-.036,12.57-.094,14.308h-.08A3.511,3.511,0,0,1,128.458,250.219Z" transform="translate(-59.214 -78.825)" fill="#f5f5f5"/>
      <path id="Path_9492" data-name="Path 9492" d="M134.151,250.219a3.26,3.26,0,0,1,.036.652h-.072c-.058-1.738-.1-7.487-.1-14.308,0-4.113,0-7.835.043-10.572,0-1.325,0-2.411.043-3.208v-.869a1.953,1.953,0,0,1,0-.3,1.226,1.226,0,0,1,0,.3q0,.337,0,.869v3.208c0,2.737,0,6.459.043,10.572,0,6.821-.043,12.57-.1,14.308h-.072A4.2,4.2,0,0,1,134.151,250.219Z" transform="translate(-60.787 -78.825)" fill="#f5f5f5"/>
      <path id="Path_9493" data-name="Path 9493" d="M139.865,250.219a4.2,4.2,0,0,1,.036.652h-.072c-.058-1.738-.1-7.487-.1-14.308,0-4.113,0-7.835.036-10.572,0-1.325.036-2.411.043-3.208v-.869a.9.9,0,0,1,0-.3,1.957,1.957,0,0,1,0,.3v.869c0,.8,0,1.883.043,3.208,0,2.737,0,6.459.043,10.572,0,6.821-.043,12.57-.1,14.308h-.072a3.258,3.258,0,0,1,.145-.652Z" transform="translate(-62.373 -78.825)" fill="#f5f5f5"/>
      <path id="Path_9494" data-name="Path 9494" d="M145.555,250.219a3.513,3.513,0,0,1,.043.652h-.08c-.058-1.738-.1-7.487-.1-14.308,0-4.113.036-7.835.043-10.572,0-1.325.036-2.411.043-3.208v-.869a1.624,1.624,0,0,1,0-.3.9.9,0,0,1,0,.3q0,.337,0,.869c0,.8,0,1.883.043,3.208,0,2.737,0,6.459.036,10.572,0,6.821-.043,12.57-.094,14.308h-.08A5.908,5.908,0,0,1,145.555,250.219Z" transform="translate(-63.943 -78.825)" fill="#f5f5f5"/>
      <path id="Path_9495" data-name="Path 9495" d="M151.258,250.219a4.2,4.2,0,0,1,.036.652h-.072c-.058-1.738-.1-7.487-.1-14.308,0-4.113,0-7.835.043-10.572,0-1.325,0-2.411.043-3.208v-.869a1.223,1.223,0,0,1,0-.3,1.953,1.953,0,0,1,0,.3q0,.34,0,.869c0,.8,0,1.883.043,3.208,0,2.737,0,6.459.043,10.572,0,6.821-.043,12.57-.1,14.308h-.072A3.258,3.258,0,0,1,151.258,250.219Z" transform="translate(-65.519 -78.825)" fill="#f5f5f5"/>
      <path id="Path_9496" data-name="Path 9496" d="M156.964,250.219a5.916,5.916,0,0,1,.036.652h-.036c-.058-1.738-.094-7.487-.094-14.308,0-4.113,0-7.835.036-10.572,0-1.325,0-2.411.043-3.208v-.869a.9.9,0,0,1,0-.3,1.622,1.622,0,0,1,0,.3v.869c0,.8,0,1.883.043,3.208,0,2.737,0,6.459.036,10.572,0,6.821-.036,12.57-.094,14.308h.029a3.51,3.51,0,0,1,0-.652Z" transform="translate(-67.105 -78.825)" fill="#f5f5f5"/>
      <path id="Path_9497" data-name="Path 9497" d="M162.648,250.219a3.261,3.261,0,0,1,.036.652h-.072c-.058-1.738-.1-7.487-.1-14.308,0-4.113,0-7.835.043-10.572,0-1.325,0-2.411.043-3.208v-.869a1.953,1.953,0,0,1,0-.3,1.222,1.222,0,0,1,0,.3v.869c0,.8,0,1.883.043,3.208,0,2.737,0,6.459.043,10.572,0,6.821-.043,12.57-.1,14.308h-.072A4.2,4.2,0,0,1,162.648,250.219Z" transform="translate(-68.662 -78.825)" fill="#f5f5f5"/>
      <rect id="Rectangle_3469" data-name="Rectangle 3469" width="144.455" height="66.623" transform="translate(18.203 213.275)" fill="#f5f5f5"/>
      <path id="Path_9498" data-name="Path 9498" d="M200.316,383.779H62.61V323.81H200.316Zm-136.808-.9h135.91V324.708H63.508Z" transform="translate(-41.097 -107.023)" fill="#e0e0e0"/>
      <rect id="Rectangle_3470" data-name="Rectangle 3470" width="35.292" height="66.623" transform="translate(162.658 213.275)" fill="#e0e0e0"/>
      <path id="Path_9499" data-name="Path 9499" d="M63.161,349.3H199.969a.181.181,0,0,0,0-.362H63.161a.181.181,0,0,0,0,.362Z" transform="translate(-41.2 -113.957)" fill="#e0e0e0"/>
      <path id="Path_9500" data-name="Path 9500" d="M158.1,342.234a150.868,150.868,0,0,0,.043-18.1.188.188,0,0,0-.369,0,149.383,149.383,0,0,0,.051,18.1.138.138,0,0,0,.275,0Z" transform="translate(-67.286 -107.071)" fill="#e0e0e0"/>
      <path id="Path_9501" data-name="Path 9501" d="M207.752,335.981a1.861,1.861,0,1,1-1.861-1.861,1.861,1.861,0,0,1,1.861,1.861Z" transform="translate(-80.118 -109.868)" fill="#e0e0e0"/>
      <path id="Path_9502" data-name="Path 9502" d="M108.576,335.981a1.868,1.868,0,1,1-1.868-1.861A1.868,1.868,0,0,1,108.576,335.981Z" transform="translate(-52.749 -109.868)" fill="#e0e0e0"/>
      <path id="Path_9503" data-name="Path 9503" d="M158.856,364.511a1.868,1.868,0,1,1-1.868-1.861A1.868,1.868,0,0,1,158.856,364.511Z" transform="translate(-66.623 -117.74)" fill="#e0e0e0"/>
      <path id="Path_9504" data-name="Path 9504" d="M79.243,410.97,72.27,451.2h4.185L89.7,410.97Z" transform="translate(-43.763 -131.072)" fill="#e0e0e0"/>
      <path id="Path_9505" data-name="Path 9505" d="M239.443,410.97l6.213,40.23h-4.178l-12.5-40.23Z" transform="translate(-87.002 -131.072)" fill="#e0e0e0"/>
      <path id="Path_9506" data-name="Path 9506" d="M278.006,410.97l7.4,40.23h-4.185L267.55,410.97Z" transform="translate(-97.644 -131.072)" fill="#e0e0e0"/>
      <path id="Path_9507" data-name="Path 9507" d="M158.676,390.548a1.861,1.861,0,1,1-.542-1.321A1.868,1.868,0,0,1,158.676,390.548Z" transform="translate(-66.573 -124.922)" fill="#e0e0e0"/>
      <path id="Path_9508" data-name="Path 9508" d="M63.161,377.792H199.969a.181.181,0,1,0,0-.362H63.161a.181.181,0,1,0,0,.362Z" transform="translate(-41.2 -121.818)" fill="#e0e0e0"/>
      <rect id="Rectangle_3471" data-name="Rectangle 3471" width="35.227" height="9.319" transform="translate(279.011 109.514)" fill="#f5f5f5"/>
      <path id="Path_9509" data-name="Path 9509" d="M432.843,198.437a1.486,1.486,0,0,1,0-.167v-2.317c0-1.607,0-3.917-.058-6.835l.109.109-35.227.072.181-.181h0v9.3l-.174-.174,25.1.08,7.407.051h.087l-7.371.051-25.227.08H397.5v-9.478h0l.181-.181,35.227.072h.109v.109c0,2.947-.043,5.279-.058,6.9v2.274A.323.323,0,0,1,432.843,198.437Z" transform="translate(-133.499 -69.786)" fill="#e0e0e0"/>
      <path id="Path_9510" data-name="Path 9510" d="M356.737,311.309a.727.727,0,0,1,0-.167v-2.317c0-1.607-.036-3.917-.065-6.835l.116.109-35.227.072c.08-.08-.181.181.174-.181h0v9.3l-.181-.174,25.1.08,7.415.051h.08l-7.371.051-25.227.08h-.174V302h0c.362-.362.1-.1.188-.181l35.227.072h.109V302c0,2.947-.051,5.279-.065,6.9v2.274A.888.888,0,0,1,356.737,311.309Z" transform="translate(-112.496 -100.952)" fill="#e0e0e0"/>
      <rect id="Rectangle_3472" data-name="Rectangle 3472" width="35.227" height="9.319" transform="translate(15.075 113.243)" fill="#f5f5f5"/>
      <path id="Path_9511" data-name="Path 9511" d="M68.308,203.616a.976.976,0,0,1,0-.174v-2.31c0-1.607,0-3.925-.058-6.843l.109.109-35.227.072c.08-.08-.181.181.174-.181h0v9.319l-.174-.181,25.1.08,7.407.051H68.17a.586.586,0,0,1,.188,0H65.723l-7.407.152-25.227.08H32.9V194.3h0c.355-.355.1-.094.181-.174l35.227.065h.145v.109c0,2.947-.043,5.279-.058,6.908v2.266A1.2,1.2,0,0,1,68.308,203.616Z" transform="translate(-32.9 -71.235)" fill="#e0e0e0"/>
      <path id="Path_9512" data-name="Path 9512" d="M251.927,46.835a.724.724,0,0,1,0-.167v-2.31c0-1.615-.036-3.925-.058-6.843l.109.109-35.227.072c.08-.08-.181.181.174-.181h0v9.319l-.174-.174,25.1.08,7.407.051h.08l-7.364.043-25.227.087h-.181V37.531h0l.181-.181,35.227.072h.109v.109c0,2.947-.043,5.279-.058,6.908v2.266A.9.9,0,0,1,251.927,46.835Z" transform="translate(-83.578 -27.984)" fill="#e0e0e0"/>
      <path id="Path_9513" data-name="Path 9513" d="M263.881,33.948a.49.49,0,0,1,0-.174V31.406c0-1.629-.036-3.939-.065-6.777l.13.13-21.23.08c-.167.159.21-.217.174-.181h0v9.312l-.174-.167,15.141.08,4.417.043h1.615a2.484,2.484,0,0,1-.384,0h-1.159L258,33.977l-15.257.08h-.167v-9.42h0c-.043.036.34-.34.181-.181l21.165.051h.13v.13c0,2.9-.051,5.206-.065,6.857,0,.775,0,1.39-.036,1.839A5.128,5.128,0,0,1,263.881,33.948Z" transform="translate(-90.753 -24.415)" fill="#e0e0e0"/>
    </g>
    <g id="freepik--Floor--inject-34" transform="translate(44.616 344.355)">
      <path id="Path_9514" data-name="Path 9514" d="M340.046,466.458c0,.109-65.168.188-145.476.188s-145.49-.08-145.49-.188,65.124-.188,145.49-.188S340.046,466.357,340.046,466.458Z" transform="translate(-49.08 -466.27)" fill="#263238"/>
    </g>
    <g id="freepik--Character--inject-34" transform="translate(109.798 53.691)">
      <path id="Path_9515" data-name="Path 9515" d="M171.148,425.71l-12.57,11.933S171,451.828,169.439,454.76L139.1,437.281l18.754-21.071Z" transform="translate(-139.1 -161.794)" fill="#455a64"/>
      <g id="Group_2553" data-name="Group 2553" transform="translate(9.344 268.765)" opacity="0.6">
        <path id="Path_9516" data-name="Path 9516" d="M153.768,436.073a1.448,1.448,0,0,0-1.7.854,1.383,1.383,0,0,0,.833,1.7,1.521,1.521,0,0,0,1.8-.92,1.448,1.448,0,0,0-1.064-1.665" transform="translate(-152.005 -436.027)" fill="#fff"/>
      </g>
      <g id="Group_2554" data-name="Group 2554" transform="translate(0 273.315)" opacity="0.6">
        <path id="Path_9517" data-name="Path 9517" d="M139.1,444.482l1.9-2.172,28.239,17.646a2.4,2.4,0,0,1,.159,2.3Z" transform="translate(-139.1 -442.31)" fill="#fff"/>
      </g>
      <path id="Path_9518" data-name="Path 9518" d="M165.349,445.685c-.094.138-.862-.246-1.861-.232s-1.767.391-1.861.246.637-.84,1.854-.84S165.465,445.584,165.349,445.685Z" transform="translate(-145.313 -169.699)" fill="#263238"/>
      <path id="Path_9519" data-name="Path 9519" d="M168.686,450.342c-.051.159-.833,0-1.709.311s-1.448.862-1.564.768.282-.97,1.376-1.332S168.772,450.2,168.686,450.342Z" transform="translate(-146.355 -171.105)" fill="#263238"/>
      <path id="Path_9520" data-name="Path 9520" d="M169.135,456.44c-.145-.051.109-.9.97-1.448s1.745-.449,1.731-.29-.724.326-1.4.789S169.295,456.512,169.135,456.44Z" transform="translate(-147.377 -172.38)" fill="#263238"/>
      <path id="Path_9521" data-name="Path 9521" d="M168.226,440.275c-.145.094-.681-.521-1.535-.978s-1.651-.6-1.651-.775.941-.3,1.933.253S168.364,440.188,168.226,440.275Z" transform="translate(-146.257 -167.909)" fill="#263238"/>
      <path id="Path_9522" data-name="Path 9522" d="M170.842,434.91c-.036.058-.659-.21-1.448-.941a7.646,7.646,0,0,1-1.253-1.448,7.965,7.965,0,0,1-.565-.985,2.257,2.257,0,0,1-.232-.63.724.724,0,0,1,.42-.811.941.941,0,0,1,.84.072,2.172,2.172,0,0,1,.507.42,6.191,6.191,0,0,1,1.528,2.657,2.9,2.9,0,0,1,.116,1.752c-.094,0-.145-.659-.514-1.622a7.458,7.458,0,0,0-.854-1.578,6.926,6.926,0,0,0-.688-.8c-.261-.282-.529-.449-.724-.362s-.08.058-.072.188a1.725,1.725,0,0,0,.167.463,10.493,10.493,0,0,0,.507.941,9.775,9.775,0,0,0,1.086,1.448C170.364,434.439,170.892,434.83,170.842,434.91Z" transform="translate(-146.889 -165.607)" fill="#263238"/>
      <path id="Path_9523" data-name="Path 9523" d="M171.74,435.325a2.846,2.846,0,0,1,.507-1.68,5.7,5.7,0,0,1,1.224-1.492,5.4,5.4,0,0,1,.949-.666,1.448,1.448,0,0,1,1.412-.152.811.811,0,0,1,.362.8,2.427,2.427,0,0,1-.188.644,4.033,4.033,0,0,1-2.223,2.129c-1.064.405-1.774.2-1.752.145a13.879,13.879,0,0,0,1.579-.529,4.011,4.011,0,0,0,1.347-1.093,3.622,3.622,0,0,0,.507-.876c.152-.34.2-.673.058-.724a.992.992,0,0,0-.825.167,5.3,5.3,0,0,0-.869.572,6.059,6.059,0,0,0-1.216,1.3C172.022,434.717,171.834,435.354,171.74,435.325Z" transform="translate(-148.106 -165.935)" fill="#263238"/>
      <path id="Path_9524" data-name="Path 9524" d="M308.24,430.75l3,16.191s17.928,5.858,18.044,9.2l-34.112.405-2.52-25.8Z" transform="translate(-181.467 -165.806)" fill="#455a64"/>
      <g id="Group_2555" data-name="Group 2555" transform="translate(115.461 280.615)" opacity="0.6">
        <path id="Path_9525" data-name="Path 9525" d="M299.6,452.412a1.448,1.448,0,0,0-1.028,1.6,1.368,1.368,0,0,0,1.578,1.035,1.506,1.506,0,0,0,1.079-1.7,1.448,1.448,0,0,0-1.76-.9" transform="translate(-298.559 -452.393)" fill="#fff"/>
      </g>
      <g id="Group_2556" data-name="Group 2556" transform="translate(113.167 288.267)" opacity="0.6">
        <path id="Path_9526" data-name="Path 9526" d="M295.926,465.436l-.536-2.476,33.518.427a2.426,2.426,0,0,1,1.311,1.9Z" transform="translate(-295.39 -462.96)" fill="#fff"/>
      </g>
      <path id="Path_9527" data-name="Path 9527" d="M317.892,452.812c0,.174-.862.224-1.716.724s-1.318,1.231-1.448,1.166.123-1.057,1.173-1.673S317.936,452.66,317.892,452.812Z" transform="translate(-187.55 -171.844)" fill="#263238"/>
      <path id="Path_9528" data-name="Path 9528" d="M323.212,455.081c.036.167-.724.434-1.311,1.144s-.782,1.448-.956,1.448-.253-.985.507-1.846S323.212,454.915,323.212,455.081Z" transform="translate(-189.242 -172.498)" fill="#263238"/>
      <path id="Path_9529" data-name="Path 9529" d="M326.769,460.13c-.152.036-.369-.825.094-1.745s1.267-1.282,1.34-1.137-.442.637-.811,1.4S326.943,460.116,326.769,460.13Z" transform="translate(-190.83 -173.109)" fill="#263238"/>
      <path id="Path_9530" data-name="Path 9530" d="M315.765,447.421c-.072.152-.847-.1-1.817-.058s-1.723.326-1.81.174.652-.724,1.8-.768S315.852,447.29,315.765,447.421Z" transform="translate(-186.842 -170.225)" fill="#263238"/>
      <path id="Path_9531" data-name="Path 9531" d="M190.582,268.22c-.565.384-1.854,19.811,0,24.069L185.868,327.3s-12.657,20.093-15.206,23.019-19.072,31.425-19.072,31.425l18.66,16.089s32.424-42.359,37.652-49.882c8.16-11.766,17.841-55.993,17.841-55.993L227,270Z" transform="translate(-142.546 -120.961)" fill="#263238"/>
      <path id="Path_9532" data-name="Path 9532" d="M240.63,296.633c.565,1.035,25.814,39.825,25.814,39.825s3.83,20.557,4.678,29.622,7.06,32.381,7.06,32.381l20.311-1.593S293,336.841,289.6,325.148s-12.845-34.307-12.845-34.307l-7.965-21.15-22.961.427Z" transform="translate(-167.114 -121.367)" fill="#263238"/>
      <path id="Path_9533" data-name="Path 9533" d="M254,278.48a4.147,4.147,0,0,1-.13.63l-.434,1.781c-.4,1.579-.97,3.8-1.665,6.517-1.448,5.51-3.389,13.12-5.677,21.491s-4.526,15.93-6.227,21.353c-.854,2.715-1.557,4.909-2.064,6.415l-.587,1.738a3.436,3.436,0,0,1-.232.594,3.876,3.876,0,0,1,.159-.616l.521-1.76c.471-1.557,1.13-3.751,1.948-6.452,1.636-5.445,3.823-13,6.119-21.368s4.294-15.93,5.793-21.469c.724-2.715,1.347-4.931,1.781-6.517l.5-1.767A4.589,4.589,0,0,1,254,278.48Z" transform="translate(-166.107 -123.792)" fill="#455a64"/>
      <path id="Path_9534" data-name="Path 9534" d="M346.64,151.376s2.136-1.687,2.824-1.636,4.989.673,4.989.673.268,1.81-.963,2.4a9.037,9.037,0,0,1-3.063.644l-1.021.724Z" transform="translate(-196.364 -88.27)" fill="#ffcaae"/>
      <path id="Path_9535" data-name="Path 9535" d="M269.24,158.287l33.641,26.407,16.654-15.669.456-3.048a10.62,10.62,0,0,1,.724-2.52l4.294-10.217,10.058,16.306s-24.727,32.287-29.072,33.416c-5.713,1.492-34.148-17.762-34.148-17.762Z" transform="translate(-175.008 -89.236)" fill="#ffcaae"/>
      <path id="Path_9536" data-name="Path 9536" d="M346,165.67A9.066,9.066,0,0,1,348.237,174,13.358,13.358,0,0,0,346,165.67Z" transform="translate(-196.187 -92.666)" fill="#ff9a6c"/>
      <path id="Path_9537" data-name="Path 9537" d="M238.9,88.426l-.659,34.466c-.232,5.887-.543,14.6,8.776,14.54h0c8.081-.666,10.427-8.233,10.637-13.758.1-2.6.188-4.772.217-5.069,0,0,8.841-.485,9.819-9.174.471-4.207.724-12.939.891-20.839A16.3,16.3,0,0,0,253.9,72.135l-.84-.08C243.953,71.678,239.022,79.31,238.9,88.426Z" transform="translate(-166.433 -66.832)" fill="#ffcaae"/>
      <path id="Path_9538" data-name="Path 9538" d="M261.219,134.722a21.122,21.122,0,0,1-11-4.482s2.129,6.633,10.861,6.719Z" transform="translate(-169.76 -82.89)" fill="#ff935c"/>
      <path id="Path_9539" data-name="Path 9539" d="M258.036,100.426c-.2.043-1.035-.644-2.44-1.043s-2.563-.319-2.686-.463.167-.181.673-.224a6.162,6.162,0,0,1,2.172.246,5.611,5.611,0,0,1,1.9.949C258.036,100.194,258.123,100.4,258.036,100.426Z" transform="translate(-170.494 -74.183)" fill="#263238"/>
      <path id="Path_9540" data-name="Path 9540" d="M256.72,103.009a1.188,1.188,0,0,1-1.253,1.072,1.13,1.13,0,0,1-1.108-1.18,1.187,1.187,0,0,1,1.253-1.072,1.13,1.13,0,0,1,1.108,1.18Z" transform="translate(-170.902 -75.051)" fill="#263238"/>
      <path id="Path_9541" data-name="Path 9541" d="M264.46,109.259a8.689,8.689,0,0,1,2.208-.174c.348,0,.681-.036.76-.268a1.753,1.753,0,0,0-.13-1.035c-.239-.854-.485-1.752-.724-2.7a45.261,45.261,0,0,1-1.593-7.031,46.4,46.4,0,0,1,2.172,6.886l.724,2.715a2.02,2.02,0,0,1,.043,1.361.876.876,0,0,1-.615.442,2.359,2.359,0,0,1-.586,0A8.733,8.733,0,0,1,264.46,109.259Z" transform="translate(-173.689 -74.008)" fill="#263238"/>
      <path id="Path_9542" data-name="Path 9542" d="M257.056,91.325c-.152.319-1.311.043-2.715.08s-2.556.311-2.715,0c-.065-.152.159-.442.644-.724a4.446,4.446,0,0,1,2.064-.521,4.344,4.344,0,0,1,2.071.463C256.89,90.884,257.122,91.173,257.056,91.325Z" transform="translate(-170.145 -71.831)" fill="#263238"/>
      <path id="Path_9543" data-name="Path 9543" d="M276.14,95.536c-.167.253-1.3-.065-2.672-.145s-2.534.065-2.672-.217c-.058-.13.174-.362.659-.558a4.808,4.808,0,0,1,2.056-.282,5.105,5.105,0,0,1,2.013.55C276.01,95.159,276.206,95.42,276.14,95.536Z" transform="translate(-175.435 -72.979)" fill="#263238"/>
      <path id="Path_9544" data-name="Path 9544" d="M236.822,103.667c-.152-.08-6.155-2.324-6.415,3.946s6.09,5.242,6.111,5.069S236.822,103.667,236.822,103.667Z" transform="translate(-164.291 -75.433)" fill="#ffcaae"/>
      <path id="Path_9545" data-name="Path 9545" d="M235.308,110.988a2.378,2.378,0,0,1-.3.152,1.1,1.1,0,0,1-.818,0,2.709,2.709,0,0,1-1.151-2.476,3.62,3.62,0,0,1,.369-1.55,1.253,1.253,0,0,1,.862-.8.55.55,0,0,1,.63.326c.08.174,0,.3.065.311s.138-.1.1-.362a.681.681,0,0,0-.232-.4.825.825,0,0,0-.6-.188,1.542,1.542,0,0,0-1.18.927,3.715,3.715,0,0,0-.449,1.731,2.909,2.909,0,0,0,1.448,2.78,1.159,1.159,0,0,0,1.006-.13C235.286,111.14,235.33,111,235.308,110.988Z" transform="translate(-164.898 -76.201)" fill="#ff935c"/>
      <path id="Path_9546" data-name="Path 9546" d="M263.093,118.153c0-.167-1.2-.217-2.266-1.079a6.517,6.517,0,0,1-1.187-1.3c-.282-.377-.478-.608-.536-.572s.036.311.246.724a4.388,4.388,0,0,0,1.18,1.506,3.541,3.541,0,0,0,1.767.724C262.782,118.269,263.086,118.2,263.093,118.153Z" transform="translate(-172.206 -78.739)" fill="#263238"/>
      <path id="Path_9547" data-name="Path 9547" d="M275.81,100.026c-.145.138-1.216,0-2.628.391s-2.361,1.043-2.534.992.051-.232.463-.529a6.308,6.308,0,0,1,2.006-.905,5.59,5.59,0,0,1,2.114-.2C275.7,99.838,275.883,99.932,275.81,100.026Z" transform="translate(-175.38 -74.478)" fill="#263238"/>
      <path id="Path_9548" data-name="Path 9548" d="M274.3,103.919a1.188,1.188,0,0,1-1.253,1.072,1.13,1.13,0,0,1-1.108-1.18,1.188,1.188,0,0,1,1.253-1.072,1.129,1.129,0,0,1,1.108,1.18Z" transform="translate(-175.752 -75.302)" fill="#263238"/>
      <path id="Path_9549" data-name="Path 9549" d="M277.348,79.164a1.448,1.448,0,0,0-.644-.847,4.388,4.388,0,0,0-2.216-.42,12.585,12.585,0,0,1-5.416-1.513,6.235,6.235,0,0,0,1.636-1.079,3.751,3.751,0,0,0,1.173-3.693.826.826,0,0,0-.449-.579c-.384-.13-.724.239-1.014.536a3.215,3.215,0,0,1-3.034,1.2,5.337,5.337,0,0,1-2.245-.724l-.072-.087-.883-.941h0a19.681,19.681,0,0,0-6.024-4.728,20.275,20.275,0,0,0-10.782-1.137c-3.056.717-5.836,3.1-6.343,6.2a6.38,6.38,0,0,0-6.307-.768h-.051c-2.332.724-3.707,3.164-4.446,5.5-.043.123-.08.253-.116.384a9.2,9.2,0,0,1-3.186,2.947c-.224.123-.485.275-.521.536a.725.725,0,0,0,.377.623,4.583,4.583,0,0,0,1.846.825,10.668,10.668,0,0,1-.8,1.6c-.275.434-.6.956-.384,1.448a.985.985,0,0,0,1.006.471,2.9,2.9,0,0,0,1.086-.456l-.818,1.825a5.467,5.467,0,0,0,2.513-.1,59.222,59.222,0,0,0,1.448,6.517c.963,0,1.883-.174,2.462.377.789.724,1.115,2.122,2.469,1.636.724-.246,1.354-1.658,1.6-2.353a33.938,33.938,0,0,0,1.81-14.366,10.861,10.861,0,0,1,3.439-2.346l-.109.087c2.462-.775,5.235-1.535,7.516-.333,1.767.934,2.773,2.824,4.069,4.345a12.918,12.918,0,0,0,9.275,4.714c.275,2.643-.1,5.966,0,8.428l2.375-3.9h0a9.009,9.009,0,0,0,.449-.862l.043-.087h0c.232-.463.449-.927.724-1.383h0a1.535,1.535,0,0,0,2.3-1.984,3.469,3.469,0,0,0-.724-.768,2.426,2.426,0,0,0,2.3.659,1.912,1.912,0,0,0,1.4-1.846,1.644,1.644,0,0,0-.891-1.289,5.38,5.38,0,0,0,3.121-.6C276.913,80.5,277.521,79.939,277.348,79.164Z" transform="translate(-163.189 -64.847)" fill="#263238"/>
      <path id="Path_9550" data-name="Path 9550" d="M245.3,75.3a7.092,7.092,0,0,0-.9.775,6.249,6.249,0,0,0-1.412,2.86,10.68,10.68,0,0,0-.282,2.208c0,.8,0,1.665.051,2.571a23.6,23.6,0,0,1,0,2.9,9.922,9.922,0,0,1-.239,1.5,3.128,3.128,0,0,1-.652,1.448,1.318,1.318,0,0,1-1.245.384,1.969,1.969,0,0,1-1.086-.659,4.46,4.46,0,0,1-.782-2.237h.181a7.241,7.241,0,0,1-1.1,1.8,2.607,2.607,0,0,1-1.723.876,1.622,1.622,0,0,1-.891-.181,1.39,1.39,0,0,1-.594-.615,1.492,1.492,0,0,1-.167-.775,1.093,1.093,0,0,1,.3-.673l.094.087a5.749,5.749,0,0,1-1.912,1.354,5.66,5.66,0,0,1-.586.21.789.789,0,0,1-.21.043l.2-.08c.138-.051.326-.123.572-.239a5.641,5.641,0,0,0,1.846-1.376l.087.087a1.122,1.122,0,0,0-.087,1.3,1.253,1.253,0,0,0,.536.543,1.6,1.6,0,0,0,.811.159,2.426,2.426,0,0,0,1.593-.84,7.183,7.183,0,0,0,1.072-1.76l.13-.275.051.3a4.344,4.344,0,0,0,.724,2.136,1.73,1.73,0,0,0,.978.587,1.1,1.1,0,0,0,1.05-.319,3,3,0,0,0,.608-1.354,10.494,10.494,0,0,0,.232-1.448,23.308,23.308,0,0,0,0-2.838c0-.905-.065-1.774,0-2.585a10.972,10.972,0,0,1,.311-2.237,6.155,6.155,0,0,1,1.5-2.9A3.62,3.62,0,0,1,245.3,75.3Z" transform="translate(-164.771 -67.731)" fill="#455a64"/>
      <path id="Path_9551" data-name="Path 9551" d="M277.153,82.677l-.072.058-.217.152c-.1.065-.224.145-.376.224a4.615,4.615,0,0,1-.536.268,7.777,7.777,0,0,1-3.751.572,9.927,9.927,0,0,1-5.206-2.085,17.117,17.117,0,0,1-4.381-5.329c-.608-1.072-1.093-2.172-1.636-3.186a11.586,11.586,0,0,0-1.875-2.7,6.01,6.01,0,0,0-2.476-1.593,4.207,4.207,0,0,0-1.318-.188,4.7,4.7,0,0,0-1.216.2,5.069,5.069,0,0,0-2.9,2.3,7.029,7.029,0,0,0-.485,1.289.407.407,0,0,1,0-.087l.043-.268a4.445,4.445,0,0,1,.362-.978,4.966,4.966,0,0,1,1.006-1.3A5.148,5.148,0,0,1,254,68.934a4.685,4.685,0,0,1,1.26-.224,4.345,4.345,0,0,1,1.448.21,6.046,6.046,0,0,1,2.556,1.622,11.426,11.426,0,0,1,1.883,2.723c.55,1.021,1.035,2.114,1.636,3.179a17.14,17.14,0,0,0,4.345,5.279,9.826,9.826,0,0,0,5.112,2.093,7.907,7.907,0,0,0,3.7-.5A8.533,8.533,0,0,0,277.153,82.677Z" transform="translate(-169.894 -65.912)" fill="#455a64"/>
      <path id="Path_9552" data-name="Path 9552" d="M284.949,82.749a1.644,1.644,0,0,1-.34.181,6.625,6.625,0,0,1-.941.442,8.842,8.842,0,0,1-1.448.442,9.3,9.3,0,0,1-3.758,0,9.029,9.029,0,0,1-1.484-.427,7.352,7.352,0,0,1-.949-.434,1.927,1.927,0,0,1-.319-.2s.492.224,1.311.5a9.811,9.811,0,0,0,1.448.377,10.506,10.506,0,0,0,1.846.159,11.113,11.113,0,0,0,1.846-.174,11.455,11.455,0,0,0,1.448-.391C284.457,82.98,284.928,82.713,284.949,82.749Z" transform="translate(-176.793 -69.786)" fill="#455a64"/>
      <path id="Path_9553" data-name="Path 9553" d="M255.4,143.61l8.957,3.62c2.172.63,6.386,4.2,8.9,6.611l10.427,13.9-15.93,19.413Z" transform="translate(-171.189 -86.579)" fill="#455a64"/>
      <path id="Path_9554" data-name="Path 9554" d="M228.547,134.55l-1.448,2.274s-21.056,5.489-22.809,9.71c-2.447,5.923.768,24.322.768,24.322l4.446,39.636-6.082,21.933,55.754.956s-3.381-57.507-4.171-63.589-6.1-26.726-6.1-26.726Z" transform="translate(-156.833 -84.079)" fill="#455a64"/>
      <path id="Path_9555" data-name="Path 9555" d="M273.4,167.72v.188c0,.123.043.319.072.543q.072.76.217,2.085c.188,1.81.427,4.439.724,7.683.55,6.517,1.18,15.466,1.8,25.386s1.2,18.9,1.687,25.394c.246,3.229.442,5.843.579,7.69.065.891.116,1.586.152,2.093v.55a1.117,1.117,0,0,1,0,.181.506.506,0,0,1-.036-.181,5.434,5.434,0,0,0-.072-.543q-.072-.724-.217-2.085c-.188-1.81-.427-4.439-.724-7.683-.55-6.517-1.18-15.466-1.8-25.394s-1.209-18.891-1.694-25.386c-.246-3.229-.442-5.843-.579-7.69-.065-.891-.116-1.586-.152-2.093v-.55a.8.8,0,0,1,.036-.188Z" transform="translate(-176.145 -93.232)" fill="#263238"/>
      <path id="Path_9556" data-name="Path 9556" d="M207.16,248.988l5.619,2.129L215.9,241.3s5.358,4.106,9.109,3.57,9.1-3.57,9.1-3.57l12.143,2.259,13.294,4.5-.977-16.429L223.4,229.85,212.779,231.1Z" transform="translate(-157.879 -110.374)" opacity="0.3"/>
      <path id="Path_9557" data-name="Path 9557" d="M154.713,237.787l9.066-4.344c.84-2.8,1.687-5.612,2.614-8.689l10.861,4.83,3.657-11.354,10.861,4.714,3.534-11.419a91.151,91.151,0,0,0,8.573,3.78,7.285,7.285,0,0,0,4.678,0c3.917-1.578,7.668-3.584,11.585-5.481.565,1.079.92,1.709,1.231,2.361,1.861,3.9,1.991,3.961,5.974,2.129,4.243-1.948,8.493-3.881,12.686-5.916a4.691,4.691,0,0,1,4.953.3c13.83,7.769,27.74,8.2,41.106-.854,12.657-8.58,18.2-20.948,16.328-36.023s-10.412-25.444-24.539-30.716c-22.273-8.305-46.457,6.1-50.164,29.615a4.162,4.162,0,0,1-2.795,3.715c-3.62,1.513-7.176,3.222-10.745,4.866-6,2.752-5.988,2.752-4.084,9.116-1.2.644-2.172,1.253-3.244,1.731-13.881,6.35-50.86,22.852-63,28.239l-4.221,14.388Zm138.452-64.443a299.4,299.4,0,1,0,0,.022Z" transform="translate(-139.246 -85.235)" fill="#9676ff"/>
      <path id="Path_9558" data-name="Path 9558" d="M214.209,220.188,151.6,247.334a2.071,2.071,0,0,1-2.723-1.079h0a2.071,2.071,0,0,1,1.079-2.723l62.6-27.139a2.064,2.064,0,0,1,2.723,1.072h0a2.064,2.064,0,0,1-1.072,2.723Z" transform="translate(-141.75 -106.614)" opacity="0.3"/>
      <path id="Path_9559" data-name="Path 9559" d="M215.5,222a1.507,1.507,0,0,1-.181.109l-.558.268-2.172,1.006L204.62,227c-6.712,3.063-15.981,7.241-26.255,11.868s-19.615,8.689-26.415,11.513c-3.4,1.448-6.162,2.57-8.074,3.338l-2.172.869-.579.224-.2.058a1.929,1.929,0,0,1,.181-.094l.565-.253,2.172-.941,8.03-3.439c6.77-2.9,16.089-7.031,26.364-11.585l26.3-11.774,7.965-3.534,2.172-.934.572-.239Z" transform="translate(-139.605 -108.208)" fill="#263238"/>
      <path id="Path_9560" data-name="Path 9560" d="M248.687,231.139c-.094.043-2.947-5.706-6.379-12.845s-6.126-12.961-6.039-13.034,2.954,5.7,6.379,12.845S248.781,231.139,248.687,231.139Z" transform="translate(-165.91 -103.589)" fill="#263238"/>
      <path id="Path_9561" data-name="Path 9561" d="M335.018,177.655a5.6,5.6,0,0,0-.043-.572c-.043-.377-.058-.949-.109-1.673q0-.558-.065-1.238c-.051-.449-.145-.941-.224-1.448s-.174-1.108-.268-1.716a18.437,18.437,0,0,0-.463-1.926,33.483,33.483,0,0,0-3.9-9.362,34.894,34.894,0,0,0-8.935-9.971l-1.513-1.13c-.536-.355-1.1-.673-1.651-1.014a14.3,14.3,0,0,0-1.716-.992l-1.825-.876-.927-.442-.97-.355-2.006-.724c-.673-.224-1.376-.369-2.071-.558a17.315,17.315,0,0,0-2.122-.478,31.893,31.893,0,0,0-4.439-.514c-.76,0-1.521-.1-2.288-.094l-2.324.123a6.384,6.384,0,0,0-1.173.072l-1.173.181c-.782.13-1.571.224-2.36.384a36.98,36.98,0,0,0-4.678,1.376l-1.166.427c-.2.072-.391.138-.579.217l-.565.268-2.266,1.1c-.724.4-1.448.869-2.172,1.3-.362.224-.724.427-1.086.681l-1.028.775a38.889,38.889,0,0,0-3.982,3.381l-1.781,1.969-.449.492-.405.529-.8,1.079-.826,1.043-.724,1.151-.724,1.166-.355.579c-.109.2-.2.413-.3.615l-1.188,2.476c-.319.862-.637,1.723-.956,2.6a34.756,34.756,0,0,0,0,22.135c.319.869.637,1.738.949,2.6a26.826,26.826,0,0,0,1.195,2.476l.3.615.355.579.724,1.166.724,1.151.811,1.079.8,1.079.4.529.449.5c.6.652,1.195,1.311,1.788,1.962a38.806,38.806,0,0,0,3.975,3.382l1.035.775c.34.261.724.456,1.086.724.724.434,1.448.9,2.172,1.3l2.266,1.093.565.268.579.224,1.166.427A36.934,36.934,0,0,0,292.427,212c.789.167,1.586.253,2.361.384l1.173.181c.391.051.782.051,1.173.072l2.324.123c.768,0,1.528-.065,2.288-.087a32.9,32.9,0,0,0,4.439-.514,18.831,18.831,0,0,0,2.122-.485c.724-.188,1.4-.333,2.071-.55l1.977-.724.978-.355.927-.442,1.817-.876c.608-.275,1.151-.666,1.716-.985s1.115-.666,1.651-1.014l1.521-1.137a35.016,35.016,0,0,0,8.986-9.963,33.481,33.481,0,0,0,3.859-9.413,18.782,18.782,0,0,0,.463-1.919c.094-.615.181-1.187.268-1.723s.174-1.021.224-1.448.043-.862.065-1.231c.051-.724.08-1.289.109-1.673s.043-.572.043-.572v.572c0,.384-.036.949-.065,1.673,0,.377-.036.789-.051,1.238a14.265,14.265,0,0,1-.21,1.448c-.072.5-.159,1.108-.253,1.723a18.252,18.252,0,0,1-.442,1.933,33.648,33.648,0,0,1-3.859,9.413,35.183,35.183,0,0,1-8.964,10.115l-1.528,1.144c-.536.355-1.1.681-1.658,1.028a15.034,15.034,0,0,1-1.723,1l-1.839.891-.934.442-.978.362-1.991.724c-.681.232-1.383.377-2.085.565a17.7,17.7,0,0,1-2.172.492,33.543,33.543,0,0,1-4.482.529c-.724,0-1.528.109-2.3.094l-2.346-.116a6.541,6.541,0,0,1-1.188-.072l-1.18-.181c-.789-.13-1.593-.217-2.382-.384a37.35,37.35,0,0,1-4.728-1.376l-1.18-.434c-.2-.072-.4-.138-.586-.217l-.572-.275-2.288-1.1c-.724-.405-1.448-.876-2.208-1.318-.369-.232-.724-.427-1.1-.688l-1.043-.782a38.818,38.818,0,0,1-4.026-3.418l-1.8-1.977-.456-.5-.405-.543-.811-1.086-.818-1.086-.724-1.166-.724-1.18-.362-.587-.3-.623-1.2-2.5c-.319-.869-.644-1.745-.963-2.628a35.074,35.074,0,0,1,0-22.374c.326-.876.644-1.752.963-2.621a27.449,27.449,0,0,1,1.209-2.505c.1-.2.2-.413.3-.615l.355-.594.724-1.173.724-1.166.818-1.086.811-1.086.413-.543.449-.5c.608-.659,1.209-1.325,1.8-1.977a40.554,40.554,0,0,1,4.026-3.418l1.043-.782c.348-.261.724-.456,1.1-.724.724-.442,1.448-.912,2.208-1.318l2.288-1.1.572-.275c.188-.08.391-.145.586-.217l1.18-.427a37.276,37.276,0,0,1,4.721-1.383c.8-.159,1.6-.253,2.389-.384l1.18-.174c.391-.051.789-.051,1.188-.08l2.339-.116c.775,0,1.55.065,2.31.094a33.682,33.682,0,0,1,4.482.529,19.17,19.17,0,0,1,2.172.492c.724.2,1.4.34,2.085.565l1.991.724.978.362.934.442,1.839.891c.608.282,1.151.673,1.723,1.006s1.122.666,1.658,1.021l1.528,1.151a35.031,35.031,0,0,1,8.95,10.072,33.475,33.475,0,0,1,3.867,9.413,19.132,19.132,0,0,1,.442,1.933c.094.615.174,1.195.253,1.731s.167,1.021.21,1.448.036.869.051,1.238c0,.724.051,1.289.065,1.68S335.018,177.655,335.018,177.655Z" transform="translate(-173.62 -86.179)" fill="#263238"/>
      <path id="Path_9562" data-name="Path 9562" d="M341.894,172.084a1.222,1.222,0,0,1-.036-.282l-.058-.833a7.689,7.689,0,0,0-.159-1.332,12.035,12.035,0,0,0-.369-1.8,16.653,16.653,0,0,0-1.941-4.627,17.487,17.487,0,0,0-23.084-6.394,17.047,17.047,0,0,0-2.122,1.369,19.249,19.249,0,0,0-1.962,1.665,18.821,18.821,0,0,0-1.694,2.006,16.609,16.609,0,0,0-2.476,4.772,17.182,17.182,0,0,0,0,10.919,16.734,16.734,0,0,0,2.469,4.764,19.824,19.824,0,0,0,1.7,2.013,19.253,19.253,0,0,0,1.962,1.665,17.908,17.908,0,0,0,2.122,1.369,16.833,16.833,0,0,0,2.259.992,17.348,17.348,0,0,0,20.825-7.386,16.654,16.654,0,0,0,1.941-4.627,12.037,12.037,0,0,0,.369-1.8c.043-.268.094-.507.116-.724l.043-.608.058-.833a1.222,1.222,0,0,1,.036-.282,1.382,1.382,0,0,1,0,.282v1.448a5.52,5.52,0,0,1-.094.724,12.037,12.037,0,0,1-.34,1.817,16.443,16.443,0,0,1-1.9,4.7,17.611,17.611,0,0,1-21.129,7.625,18.345,18.345,0,0,1-2.3-1.006,17.778,17.778,0,0,1-2.172-1.39,20.121,20.121,0,0,1-2.006-1.7,19.711,19.711,0,0,1-1.738-2.042,17.218,17.218,0,0,1-2.556-4.895,17.515,17.515,0,0,1,0-11.158,17.277,17.277,0,0,1,2.527-4.866,20.6,20.6,0,0,1,1.738-2.049,20.041,20.041,0,0,1,2.006-1.694,17.776,17.776,0,0,1,2.172-1.39,18.347,18.347,0,0,1,2.3-1.006,17.609,17.609,0,0,1,21.114,7.6,16.443,16.443,0,0,1,1.9,4.7,12.041,12.041,0,0,1,.34,1.817c0,.268.08.514.094.724s0,.427,0,.615v.833A1.386,1.386,0,0,1,341.894,172.084Z" transform="translate(-185.355 -89.573)" fill="#263238"/>
      <path id="Path_9563" data-name="Path 9563" d="M290.52,142.7v68.267a41.273,41.273,0,0,0,9.761,3.237l-.724-74.494A35.145,35.145,0,0,0,290.52,142.7Z" transform="translate(-180.879 -85.503)" fill="#fff" opacity="0.3"/>
      <path id="Path_9564" data-name="Path 9564" d="M283.608,210.8c-.109,0-.188-14.018-.188-31.309s.08-31.309.188-31.309.188,14.018.188,31.309S283.71,210.8,283.608,210.8Z" transform="translate(-178.92 -87.84)" fill="#fff"/>
      <path id="Path_9565" data-name="Path 9565" d="M270.313,158.33a5.427,5.427,0,0,1-.543.862c-.377.536-.9,1.332-1.5,2.339a39.053,39.053,0,0,0-1.941,3.62,44,44,0,0,0-1.868,4.663,45.361,45.361,0,0,0-1.267,4.866c-.282,1.521-.478,2.9-.579,4.062s-.167,2.114-.181,2.773a4.959,4.959,0,0,1-.072,1.014,5.788,5.788,0,0,1-.072-1.021c0-.652,0-1.607.058-2.788a37.964,37.964,0,0,1,.507-4.106A37.451,37.451,0,0,1,266.011,165a38.529,38.529,0,0,1,2.027-3.62c.644-.992,1.195-1.767,1.607-2.281A5.574,5.574,0,0,1,270.313,158.33Z" transform="translate(-173.09 -90.641)" fill="#fff"/>
      <path id="Path_9566" data-name="Path 9566" d="M253.716,191.15a69.654,69.654,0,0,1-6.43,3.28,68.974,68.974,0,0,1-6.6,2.947,68.4,68.4,0,0,1,6.43-3.287A69.933,69.933,0,0,1,253.716,191.15Z" transform="translate(-167.13 -99.696)" fill="#fff"/>
      <path id="Path_9567" data-name="Path 9567" d="M210.03,212.31a1.1,1.1,0,0,1-.145.094l-.434.224-1.709.847c-1.484.724-3.62,1.767-6.321,3.027-5.344,2.527-12.773,5.945-21,9.594s-15.785,6.828-21.259,9.08c-2.737,1.13-4.953,2.027-6.517,2.636l-1.774.688-.463.174-.159.043a.639.639,0,0,1,.145-.08l.449-.21,1.752-.724,6.444-2.744c5.445-2.31,12.954-5.532,21.208-9.174s15.691-7.031,21.071-9.493l6.365-2.9,1.738-.782.456-.2Z" transform="translate(-142.176 -105.535)" fill="#fff"/>
      <path id="Path_9568" data-name="Path 9568" d="M324.915,152.34c0,.072-1.253-.181-3.266-.109a17.03,17.03,0,0,0-13.33,7.168c-1.173,1.636-1.644,2.817-1.709,2.78a3.447,3.447,0,0,1,.311-.825,13.871,13.871,0,0,1,1.18-2.107A16.393,16.393,0,0,1,321.642,152a15.106,15.106,0,0,1,2.411.174A3.556,3.556,0,0,1,324.915,152.34Z" transform="translate(-185.319 -88.894)" fill="#fff"/>
      <path id="Path_9569" data-name="Path 9569" d="M330.38,145.447a4.945,4.945,0,0,1-.9-.405c-.558-.29-1.383-.673-2.418-1.122s-2.288-.905-3.7-1.354a41.273,41.273,0,0,0-4.7-1.108,39.716,39.716,0,0,0-4.8-.492,37.577,37.577,0,0,0-3.939.072c-1.122.08-2.035.174-2.657.261a4.431,4.431,0,0,1-.977.094,4.942,4.942,0,0,1,.956-.239c.623-.13,1.528-.268,2.65-.384a33.2,33.2,0,0,1,3.982-.152,38.9,38.9,0,0,1,4.851.463,38.153,38.153,0,0,1,4.736,1.151,32.657,32.657,0,0,1,3.707,1.448c1.028.478,1.839.905,2.382,1.231A5.118,5.118,0,0,1,330.38,145.447Z" transform="translate(-185.231 -85.751)" fill="#fff"/>
      <path id="Path_9570" data-name="Path 9570" d="M218.076,209.206l2.469-12.5,2.911-.116,1.455-16.263-3.128,12.947-3.179-.71-3,16.133Z" transform="translate(-160.208 -96.711)" opacity="0.3"/>
      <path id="Path_9571" data-name="Path 9571" d="M252.045,224.682A46.2,46.2,0,0,1,257.837,221c1.448-.529,6.517-1.448,8.291-2.686a1.311,1.311,0,0,1,.246,2.237,14.721,14.721,0,0,1-5.069,3.172c-1.274.376-.869,1.3.043,1.615s7.422,1.448,7.422,1.448,7.567.167,8.189.934a1.325,1.325,0,0,1-.514,2.013c-.449.159-6.944.594-6.944.594l-3.338-.4s10.376,1.919,10.97,2.788a1.144,1.144,0,0,1-.456,1.788c-.529.319-5.1-.572-5.1-.572l-6.234-.775,11.346,3.251s1.028.442.811,1.3-1.622,1.035-1.622,1.035l-12-2.332s5.887,4.127,6.1,4.634c.275.724-.934,1.376-1.4,1.079s-7.965-3.526-7.965-3.526l-8.609-3.917-5.7.065,2.476-10.557Z" transform="translate(-168.681 -107.19)" fill="#ffcaae"/>
      <path id="Path_9572" data-name="Path 9572" d="M210.818,226.466l24.467-.362-.471-10.188-26.176-5.308,3.772-19.239-17.849-4.12a180.948,180.948,0,0,0-4.135,27.689s-1.224,7.712,7.509,9.855A79.308,79.308,0,0,0,210.818,226.466Z" transform="translate(-153.246 -98.62)" fill="#ffcaae"/>
      <path id="Path_9573" data-name="Path 9573" d="M190.14,178.79l24.619,5.5s4.3-16.031,4.446-20.477-5.945-18.515-14.532-15.669c0,0-2.592-.521-4.96,2.947C198.764,152.491,190.14,178.79,190.14,178.79Z" transform="translate(-153.183 -87.727)" fill="#455a64"/>
      <path id="Path_9574" data-name="Path 9574" d="M222.6,161.746a13.65,13.65,0,0,0-.268-3.577,15.93,15.93,0,0,0-1.332-3.62,9.159,9.159,0,0,0-2.9-3.686,10.2,10.2,0,0,0-4.344-1.716,20.015,20.015,0,0,0-3.888-.181,14.373,14.373,0,0,0-2.607.326c-.608.138-.927.268-.941.239s.072-.058.224-.123a4.706,4.706,0,0,1,.681-.261,12.309,12.309,0,0,1,2.621-.449,18.673,18.673,0,0,1,3.961.109,10.3,10.3,0,0,1,4.526,1.752,9.413,9.413,0,0,1,2.962,3.838,15.206,15.206,0,0,1,1.274,3.743,9.912,9.912,0,0,1,.174,2.665,6.307,6.307,0,0,1-.094.724C222.633,161.659,222.611,161.746,222.6,161.746Z" transform="translate(-157.647 -87.967)" fill="#263238"/>
      <path id="Path_9575" data-name="Path 9575" d="M218.133,177.75a1.833,1.833,0,0,1-.036.3c-.036.2-.094.5-.159.833-.159.775-.377,1.817-.652,3.106-.594,2.694-1.412,6.379-2.353,10.622v.174h-.181l-4.931-1.093-13.931-3.171-4.214-1-1.137-.29a1.747,1.747,0,0,1-.4-.13,1.731,1.731,0,0,1,.413.051l1.159.224,4.236.883,13.96,3.07,4.888,1.093-.217.138,2.484-10.586c.311-1.274.572-2.317.76-3.085l.217-.818a1.238,1.238,0,0,1,.094-.319Z" transform="translate(-153.183 -95.999)" fill="#263238"/>
      <path id="Path_9576" data-name="Path 9576" d="M358.288,168.849a1.521,1.521,0,0,0,1.506-.42c.8-.724,2.122-2.534,1.55-3.222a4.229,4.229,0,0,0-2.035-.97s1.057-1.332.6-2.31a1.5,1.5,0,0,0-1.962-.825,3.135,3.135,0,0,0,.036-2.578,1.694,1.694,0,0,0-.912-.97l-1.26-.55a2.575,2.575,0,0,0-.159-3.077,3.23,3.23,0,0,0-.985-.724,4.149,4.149,0,0,0-4.9.724h0c1.014,1.006,2.172,2.129,1.9,2.961,0,0-5.322,3.526-3.946,5.394.883,1.209,1.81.666,1.81.666s-1.318,1.2-.623,2a1.5,1.5,0,0,0,.833.449,2.375,2.375,0,0,0,2-.29l.876-.492a1.731,1.731,0,0,0,.362,1.745,1.615,1.615,0,0,0,.2.138,1.948,1.948,0,0,0,2.122-.065l1.977-1.2.174.97S356.282,167.509,358.288,168.849Z" transform="translate(-196.6 -89.089)" fill="#ffcaae"/>
      <path id="Path_9577" data-name="Path 9577" d="M358.228,168.782a2.81,2.81,0,0,1-.673-.514,2.013,2.013,0,0,1-.521-.883,1.608,1.608,0,0,1,.29-1.376v.072c-.058-.3-.116-.63-.181-.97l.152.065-1.18.8-.644.434a2.556,2.556,0,0,1-.768.391,1.984,1.984,0,0,1-1.8-.326,1.448,1.448,0,0,1-.521-.883,2.354,2.354,0,0,1,.058-1.05l.217.174c-.427.232-.818.492-1.311.724a2.513,2.513,0,0,1-1.615.109,1.934,1.934,0,0,1-.8-.348,1.043,1.043,0,0,1-.42-.84,1.759,1.759,0,0,1,.3-.869,4,4,0,0,1,.572-.724l.2.275a1.347,1.347,0,0,1-1.2,0,2.128,2.128,0,0,1-.891-.8,1.448,1.448,0,0,1-.13-1.231,3.619,3.619,0,0,1,.558-1.079,15.155,15.155,0,0,1,3.62-3.266l-.072.1a1.3,1.3,0,0,0-.253-.963,6.288,6.288,0,0,0-.724-.927c-.282-.3-.572-.594-.862-.883l-.13-.123.123-.138a3.874,3.874,0,0,1,2.353-1.224,4.909,4.909,0,0,1,2.549.355,2.94,2.94,0,0,1,1.8,1.738,2.9,2.9,0,0,1-.369,2.389l-.072-.253,1.3.572a1.882,1.882,0,0,1,.978,1.093,3.417,3.417,0,0,1-.08,2.672l-.188-.224a1.709,1.709,0,0,1,1.4.065,1.875,1.875,0,0,1,.825,1.05,2,2,0,0,1-.13,1.245,4.219,4.219,0,0,1-.572,1l-.072-.2a5.127,5.127,0,0,1,1.629.63,1.333,1.333,0,0,1,.579.615,1.368,1.368,0,0,1-.051.789,6.06,6.06,0,0,1-1.354,2.042,2.056,2.056,0,0,1-1.325.724,1.209,1.209,0,0,1-.4,0,.15.15,0,0,1-.13-.051,1.723,1.723,0,0,0,.521,0,2.028,2.028,0,0,0,1.238-.768,6.163,6.163,0,0,0,1.26-2,1.145,1.145,0,0,0,0-.659,1.123,1.123,0,0,0-.492-.5,4.844,4.844,0,0,0-1.557-.565l-.188-.043.116-.159a2.65,2.65,0,0,0,.623-2.013,1.564,1.564,0,0,0-.724-.862,1.4,1.4,0,0,0-1.144-.043l-.376.138.188-.362a3.135,3.135,0,0,0,0-2.4,1.5,1.5,0,0,0-.8-.891l-1.3-.565-.181-.08.109-.181a2.563,2.563,0,0,0,.319-2.078,2.6,2.6,0,0,0-1.593-1.513,4.6,4.6,0,0,0-2.361-.326,3.512,3.512,0,0,0-2.129,1.108v-.261c.3.29.587.587.876.891a6.936,6.936,0,0,1,.782.992,1.608,1.608,0,0,1,.29,1.267v.065l-.058.043a15.124,15.124,0,0,0-3.519,3.157c-.435.594-.789,1.361-.42,1.912a1.81,1.81,0,0,0,.724.673,1.021,1.021,0,0,0,.883,0l1.014-.514-.811.789a2.23,2.23,0,0,0-.768,1.318c-.036.463.478.775.949.862a2.172,2.172,0,0,0,1.448-.072,13.39,13.39,0,0,0,1.282-.724l.311-.167-.1.34a1.448,1.448,0,0,0,.355,1.622,1.709,1.709,0,0,0,1.564.3,6.255,6.255,0,0,0,1.354-.775l1.195-.768.123-.087V165c.051.348.109.673.159.978h0a1.5,1.5,0,0,0-.3,1.238,2.042,2.042,0,0,0,.471.854A2.793,2.793,0,0,0,358.228,168.782Z" transform="translate(-196.54 -89.023)" fill="#ff9a6c"/>
      <path id="Path_9578" data-name="Path 9578" d="M356.95,157.94a2.738,2.738,0,0,1-.362,1.311,8.176,8.176,0,0,1-2.013,2.621,15.379,15.379,0,0,1-2.7,1.875,4.737,4.737,0,0,1-1.224.579,5.018,5.018,0,0,1,1.086-.811,23.052,23.052,0,0,0,2.585-1.926,9.76,9.76,0,0,0,2.027-2.455C356.747,158.418,356.892,157.918,356.95,157.94Z" transform="translate(-197.47 -90.533)" fill="#ff9a6c"/>
      <path id="Path_9579" data-name="Path 9579" d="M359.867,163.85c.051,0-.051.456-.572.876s-1.224.883-2.02,1.448a16.132,16.132,0,0,1-3,1.781,16.04,16.04,0,0,1,2.795-2.093c.8-.536,1.55-1,2.071-1.332a5.025,5.025,0,0,0,.731-.681Z" transform="translate(-198.469 -92.164)" fill="#ff9a6c"/>
      <path id="Path_9580" data-name="Path 9580" d="M363.095,168.543c.058.08-.391.5-1.064.8s-1.289.348-1.311.246.514-.311,1.159-.594S363.051,168.457,363.095,168.543Z" transform="translate(-200.248 -93.454)" fill="#ff9a6c"/>
      <path id="Path_9581" data-name="Path 9581" d="M362.853,169.974c0,.109-.5.21-.992.565s-.76.782-.862.724.051-.63.644-1.05A1.237,1.237,0,0,1,362.853,169.974Z" transform="translate(-200.318 -93.834)" fill="#ff9a6c"/>
    </g>
  </g>
</svg>
