<svg xmlns="http://www.w3.org/2000/svg" width="436.043" height="324.904" viewBox="0 0 436.043 324.904">
  <g id="Moment_to_remember-rafiki" data-name="Moment to remember-rafiki" transform="translate(0 -55)">
    <g id="freepik--background-complete--inject-34" transform="translate(0 55)">
      <rect id="Rectangle_3166" data-name="Rectangle 3166" width="436.043" height="0.218" transform="translate(0 285.521)" fill="#ebebeb"/>
      <rect id="Rectangle_3167" data-name="Rectangle 3167" width="28.883" height="0.218" transform="translate(262.245 293.082)" fill="#ebebeb"/>
      <rect id="Rectangle_3168" data-name="Rectangle 3168" width="7.578" height="0.218" transform="translate(344.648 300.128)" fill="#ebebeb"/>
      <rect id="Rectangle_3169" data-name="Rectangle 3169" width="16.735" height="0.218" transform="translate(292.663 296.858)" fill="#ebebeb"/>
      <rect id="Rectangle_3170" data-name="Rectangle 3170" width="37.665" height="0.218" transform="translate(45.75 292.925)" fill="#ebebeb"/>
      <rect id="Rectangle_3171" data-name="Rectangle 3171" width="5.52" height="0.218" transform="translate(213.373 292.925)" fill="#ebebeb"/>
      <rect id="Rectangle_3172" data-name="Rectangle 3172" width="39.514" height="0.218" transform="translate(123.566 296.718)" fill="#ebebeb"/>
      <path id="Path_7967" data-name="Path 7967" d="M211.572,301.626H43.181a4.98,4.98,0,0,1-4.971-4.98V59.936A4.98,4.98,0,0,1,43.181,55H211.572a4.98,4.98,0,0,1,4.98,4.98V296.646A4.98,4.98,0,0,1,211.572,301.626ZM43.181,55.174a4.762,4.762,0,0,0-4.753,4.762v236.71a4.762,4.762,0,0,0,4.753,4.762H211.572a4.77,4.77,0,0,0,4.762-4.762V59.936a4.77,4.77,0,0,0-4.762-4.762Z" transform="translate(-4.888 -55)" fill="#ebebeb"/>
      <path id="Path_7968" data-name="Path 7968" d="M427.879,301.626H259.48a4.988,4.988,0,0,1-4.98-4.98V59.936A4.988,4.988,0,0,1,259.48,55h168.4a4.98,4.98,0,0,1,4.962,4.936v236.71A4.98,4.98,0,0,1,427.879,301.626ZM259.48,55.174a4.77,4.77,0,0,0-4.762,4.762v236.71a4.77,4.77,0,0,0,4.762,4.762h168.4a4.77,4.77,0,0,0,4.762-4.762V59.936a4.77,4.77,0,0,0-4.762-4.762Z" transform="translate(-32.554 -55)" fill="#ebebeb"/>
      <rect id="Rectangle_3173" data-name="Rectangle 3173" width="10.849" height="70.22" rx="3.48" transform="translate(97.272 53.729)" fill="#e0e0e0"/>
      <rect id="Rectangle_3174" data-name="Rectangle 3174" width="96.601" height="51.069" transform="translate(54.392 58.84)" fill="#ebebeb"/>
      <path id="Path_7969" data-name="Path 7969" d="M158.98,180.751c0,.942-21.628,1.7-48.3,1.7s-48.3-.759-48.3-1.7,21.628-1.7,48.3-1.7S158.98,179.878,158.98,180.751Z" transform="translate(-7.978 -70.868)" fill="#e0e0e0"/>
      <rect id="Rectangle_3175" data-name="Rectangle 3175" width="19.151" height="5.747" transform="translate(93.121 120.226)" fill="#ebebeb"/>
      <path id="Path_7970" data-name="Path 7970" d="M115.822,359,114.47,199.45h5.738L118.857,359Z" transform="translate(-14.642 -73.477)" fill="#ebebeb"/>
      <path id="Path_7971" data-name="Path 7971" d="M68.9,359,101.935,199.45h5.747L71.935,359Z" transform="translate(-8.813 -73.477)" fill="#ebebeb"/>
      <path id="Path_7972" data-name="Path 7972" d="M160.932,359,127.9,199.45H122.15L157.9,359Z" transform="translate(-15.625 -73.477)" fill="#ebebeb"/>
      <rect id="Rectangle_3176" data-name="Rectangle 3176" width="69.767" height="118.316" transform="translate(168.426 28.055)" fill="#ebebeb"/>
      <rect id="Rectangle_3177" data-name="Rectangle 3177" width="107.851" height="59.302" transform="translate(232.96 33.288) rotate(90)" fill="#f5f5f5"/>
      <rect id="Rectangle_3178" data-name="Rectangle 3178" width="45.331" height="76.883" transform="translate(243.617 92.022)" fill="#ebebeb"/>
      <rect id="Rectangle_3179" data-name="Rectangle 3179" width="70.081" height="38.537" transform="translate(285.556 95.424) rotate(90)" fill="#f5f5f5"/>
      <rect id="Rectangle_3180" data-name="Rectangle 3180" width="2.128" height="227.091" transform="translate(362.753 285.521) rotate(180)" fill="#e0e0e0"/>
      <rect id="Rectangle_3181" data-name="Rectangle 3181" width="2.128" height="227.091" transform="translate(312.66 285.521) rotate(180)" fill="#e0e0e0"/>
      <rect id="Rectangle_3182" data-name="Rectangle 3182" width="2.128" height="227.091" transform="translate(377.875 285.521) rotate(180)" fill="#ebebeb"/>
      <rect id="Rectangle_3183" data-name="Rectangle 3183" width="2.128" height="227.091" transform="translate(327.773 285.521) rotate(180)" fill="#ebebeb"/>
      <rect id="Rectangle_3184" data-name="Rectangle 3184" width="67.342" height="2.328" transform="translate(377.875 59.59) rotate(180)" fill="#ebebeb"/>
      <rect id="Rectangle_3185" data-name="Rectangle 3185" width="67.342" height="2.328" transform="translate(377.875 113.607) rotate(180)" fill="#ebebeb"/>
      <rect id="Rectangle_3186" data-name="Rectangle 3186" width="67.342" height="2.328" transform="translate(377.875 167.624) rotate(180)" fill="#ebebeb"/>
      <rect id="Rectangle_3187" data-name="Rectangle 3187" width="67.342" height="2.328" transform="translate(377.875 221.632) rotate(180)" fill="#ebebeb"/>
      <rect id="Rectangle_3188" data-name="Rectangle 3188" width="67.342" height="2.328" transform="translate(377.875 275.649) rotate(180)" fill="#ebebeb"/>
      <path id="Path_7973" data-name="Path 7973" d="M404.648,216.975c0,8.826-1.84,16.622-4.64,21.305H387.8c-2.8-4.683-4.639-12.48-4.639-21.305s1.858-16.709,4.683-21.375h12.148C402.791,200.309,404.648,208.1,404.648,216.975Z" transform="translate(-49.012 -72.985)" fill="#ebebeb"/>
      <path id="Path_7974" data-name="Path 7974" d="M385.4,292a4.849,4.849,0,0,0-3.942,7.718,12.654,12.654,0,0,0,10.029,4.953H403.7a12.654,12.654,0,0,0,9.828-4.709A4.866,4.866,0,0,0,409.718,292Z" transform="translate(-48.674 -85.316)" fill="#ebebeb"/>
      <path id="Path_7975" data-name="Path 7975" d="M413.972,295.611a1.953,1.953,0,0,0,1.927-2.285,12.724,12.724,0,0,0-12.462-10.387H391.228a12.715,12.715,0,0,0-12.462,10.387,1.945,1.945,0,0,0,1.927,2.285Z" transform="translate(-48.446 -84.157)" fill="#e6e6e6"/>
      <path id="Path_7976" data-name="Path 7976" d="M422.78,149.25H396.6l3.427,29.084h19.325Z" transform="translate(-50.731 -67.056)" fill="#f5f5f5"/>
      <path id="Path_7977" data-name="Path 7977" d="M406.42,149.25H396.6l3.427,29.084h5.154Z" transform="translate(-50.731 -67.056)" fill="#ebebeb"/>
      <path id="Path_7978" data-name="Path 7978" d="M395.986,160.51H378.64l2.276,19.264h12.8Z" transform="translate(-48.433 -68.496)" fill="#f5f5f5"/>
      <path id="Path_7979" data-name="Path 7979" d="M385.146,160.51H378.64l2.276,19.264h3.419Z" transform="translate(-48.433 -68.496)" fill="#ebebeb"/>
    </g>
    <g id="freepik--Shadow--inject-34" transform="translate(48.933 360.16)">
      <ellipse id="freepik--path--inject-34" cx="169.089" cy="9.872" rx="169.089" ry="9.872" fill="#f5f5f5"/>
    </g>
    <g id="freepik--character-2--inject-34" transform="translate(207.007 119.775)">
      <path id="Path_7980" data-name="Path 7980" d="M329.153,368.7l-3.436,8.712L309.47,350.936l10.282-4.526Z" transform="translate(-246.593 -157.05)" fill="#ff8b7b"/>
      <path id="Path_7981" data-name="Path 7981" d="M335.954,372.076c-1.927-1.125-4.823-1.116-7.613-3.776,0,0-5.764,3.846-4.029,6.227s2.7,9.009-.488,16.177c-.445,1.012,2.616,1.945,3.907-.262,2.11-3.645,3.6-6.349,5.4-9.453,1.535-2.66,2.512-3,3.881-5.023C338.143,374.274,337.925,373.21,335.954,372.076Z" transform="translate(-248.423 -159.85)" fill="#ff8b7b"/>
      <path id="Path_7982" data-name="Path 7982" d="M305.676,235.121s-23.215,55.944-15.506,75.767c5.459,14.049,21.741,36.366,21.741,36.366l11.337-5.346s-10.4-25.814-14.948-37.875c5.791-25.4,33.078-59.624,20.564-74.9Z" transform="translate(-243.923 -142.049)" fill="#263238"/>
      <path id="Path_7983" data-name="Path 7983" d="M292.434,190.934c-1.055,2.616-2.2,4.927-3.4,7.326s-2.538,4.683-3.916,6.977-2.843,4.544-4.456,6.715a64.438,64.438,0,0,1-5.18,6.314l-.7.759-.174.192-.227.235a7.332,7.332,0,0,1-.671.6,8.146,8.146,0,0,1-3.061,1.526,12.357,12.357,0,0,1-5.355.061,30.941,30.941,0,0,1-8.119-2.974,74.232,74.232,0,0,1-13.282-9,2.032,2.032,0,0,1,2.311-3.323h.061c2.163,1.221,4.421,2.451,6.663,3.567a68.73,68.73,0,0,0,6.794,3.044,27.34,27.34,0,0,0,6.584,1.8,5.406,5.406,0,0,0,2.337-.157.776.776,0,0,0,.358-.235s0,0,0-.052l.244-.3.576-.7a90.7,90.7,0,0,0,8.267-12.209c1.247-2.163,2.4-4.36,3.541-6.61s2.224-4.535,3.192-6.7l.044-.087a4.09,4.09,0,0,1,7.517,3.209Z" transform="translate(-238.112 -136.451)" fill="#ff8b7b"/>
      <path id="Path_7984" data-name="Path 7984" d="M248.375,210.834l-3.663-7.134-3.192,7.517s3.183,3.985,6.471,3.358Z" transform="translate(-237.901 -138.796)" fill="#ff8b7b"/>
      <path id="Path_7985" data-name="Path 7985" d="M240.509,201.34,237.37,206.9l3.619,4.02,3.192-7.517Z" transform="translate(-237.37 -138.494)" fill="#ff8b7b"/>
      <path id="Path_7986" data-name="Path 7986" d="M396.066,392.9l-5.651,4.055-10.4-21.009,10.613-3.34Z" transform="translate(-255.617 -160.402)" fill="#ff8b7b"/>
      <path id="Path_7987" data-name="Path 7987" d="M401.9,397.789c-1.744-1.36-4.648-1.744-7.081-4.709,0,0-5.233,3.907-3.776,6.5s1.038,7.788-5.869,11.529c-.959.523.715,2.172,3.262,2.172,4.36,0,5.189-1.291,7.36-4.151,1.858-2.442,5.041-5.512,6.654-7.343C403.78,400.249,403.675,399.158,401.9,397.789Z" transform="translate(-256.241 -163.02)" fill="#ff8b7b"/>
      <path id="Path_7988" data-name="Path 7988" d="M390,156.766c-34.011,4.561-47.293-19.57-53.2-23.642S324.1,135.1,324.1,135.1l1.9,4.273s8.346-5.669,11.154,6.619,10.369,30.6,21.8,36.514C367.713,182.544,392.524,171.5,390,156.766Z" transform="translate(-248.464 -129.588)" fill="#263238"/>
      <path id="Path_7989" data-name="Path 7989" d="M381.974,156.543c-19.735,0-31.4-10.953-38.154-17.311a31.744,31.744,0,0,0-4.5-3.837l.227-.375a32.686,32.686,0,0,1,4.578,3.889c7.988,7.517,22.875,21.506,49.962,15.9l.1.427a60.114,60.114,0,0,1-12.209,1.308Z" transform="translate(-250.411 -130.011)" fill="#263238"/>
      <path id="Path_7990" data-name="Path 7990" d="M358.047,171.876a1.744,1.744,0,0,0-1.4,1.421v.052c-.41,1.953-.872,3.968-1.317,5.921s-.977,3.907-1.561,5.782a52.658,52.658,0,0,1-1.6,5.564c-.34.8-1.064.314-1.744-.192a52.323,52.323,0,0,1-7.648-6.4c-1.334-1.4-2.616-2.913-3.811-4.439-.619-.759-1.212-1.535-1.8-2.32s-1.177-1.613-1.666-2.328l-.052-.07A3.671,3.671,0,0,0,330.21,174a3.811,3.811,0,0,0-.872,5.128c.61.942,1.16,1.744,1.744,2.616s1.308,1.744,1.98,2.573a63.612,63.612,0,0,0,4.36,4.849,48.049,48.049,0,0,0,4.953,4.413c2.424,1.849,5.494,5.006,8.6,5.424a5.18,5.18,0,0,0,3.916-.951c2.7-2.171,3.715-8.407,4.265-11.607a73.633,73.633,0,0,0,1.055-12.706,1.849,1.849,0,0,0-2.163-1.858Z" transform="translate(-249.054 -134.722)" fill="#ff8b7b"/>
      <path id="Path_7991" data-name="Path 7991" d="M360.53,172.939l.209-7.779,5.477,4.866s-1.029,4.517-3.924,5.311Z" transform="translate(-253.124 -133.866)" fill="#ff8b7b"/>
      <path id="Path_7992" data-name="Path 7992" d="M363.8,161.37l5.145,3.349-3.044,5.948-5.128-5.991,3.026-3.305Z" transform="translate(-253.155 -133.381)" fill="#ff8b7b"/>
      <path id="Path_7993" data-name="Path 7993" d="M289.69,185.918c.872,4.971,4.116,16.343,14.956,42.192l31.465-8.18c-3.349-11.8-5.233-19.474-5.677-42.819a5.433,5.433,0,0,0-6.017-5.355c-2.32.262-5.084.645-7.849,1.212a102.563,102.563,0,0,0-14.285,3.706c-3.593,1.282-7.4,2.956-9.881,4.09a4.779,4.779,0,0,0-2.712,5.154Z" transform="translate(-244.053 -134.706)" fill="#9676ff"/>
      <path id="Path_7994" data-name="Path 7994" d="M289.69,185.918c.872,4.971,4.116,16.343,14.956,42.192l31.465-8.18c-3.349-11.8-5.233-19.474-5.677-42.819a5.433,5.433,0,0,0-6.017-5.355c-2.32.262-5.084.645-7.849,1.212a102.563,102.563,0,0,0-14.285,3.706c-3.593,1.282-7.4,2.956-9.881,4.09a4.779,4.779,0,0,0-2.712,5.154Z" transform="translate(-244.053 -134.706)" fill="#fff" opacity="0.4"/>
      <path id="Path_7995" data-name="Path 7995" d="M313.047,155c.209,4.849,1.334,13.544,5.294,15.793a130.921,130.921,0,0,0-10.927,17.25,13.081,13.081,0,0,1-3.34-13.517c4.831-2.564,3.776-6.349,2.023-9.706Z" transform="translate(-245.818 -132.566)" fill="#ff8b7b"/>
      <path id="Path_7996" data-name="Path 7996" d="M310.6,159.61l-4.116,5.8a14.827,14.827,0,0,1,1.047,2.433c2.023-.41,4.526-3.052,4.238-5.163A9.95,9.95,0,0,0,310.6,159.61Z" transform="translate(-246.21 -133.156)" opacity="0.2"/>
      <path id="Path_7997" data-name="Path 7997" d="M306.367,142.8c.872-1.387.078-6.767-7.352-6.663-1.892,2.1-2.547,6.977-2.058,9.593s3.445,4.884,3.445,4.884S309.123,148.567,306.367,142.8Z" transform="translate(-244.972 -130.154)" fill="#263238"/>
      <path id="Path_7998" data-name="Path 7998" d="M318.448,146.881c-2.407,7.587-3.27,10.849-8.163,13.892-7.352,4.57-16.151.122-16.055-7.988.087-7.308,4.012-18.48,12.34-19.788a10.639,10.639,0,0,1,11.878,13.884Z" transform="translate(-244.643 -129.732)" fill="#ff8b7b"/>
      <path id="Path_7999" data-name="Path 7999" d="M326.537,132.847c-1.142-.392-2.887.558-4.317,1.378l2.52,6.514s3.445.453,4.6-1.517a4.483,4.483,0,0,0-2.808-6.375Z" transform="translate(-248.223 -129.721)" fill="#9676ff"/>
      <path id="Path_8000" data-name="Path 8000" d="M311.886,138.454c1.814,6.759,2.468,9.985,6.689,12.166,5.738-1.456,8.468-8.494,6.1-14.363-3.27-8.215-21.017-10.273-25.5-.174C304.5,141.1,311.886,138.454,311.886,138.454Z" transform="translate(-245.276 -129.276)" fill="#263238"/>
      <path id="Path_8001" data-name="Path 8001" d="M307.627,130.4c-1.326-1.36-8.887-2.721-12.907,4.16,1.744,2.573,7.727,5.058,11.451,5.634s8.363-1.273,8.363-1.273S316.766,130.119,307.627,130.4Z" transform="translate(-244.706 -129.278)" fill="#263238"/>
      <path id="Path_8002" data-name="Path 8002" d="M316.38,232.984s21.872,56.625,30.959,75.871c10.788,22.822,26.049,54.994,26.049,54.994l12.977-2.154s-14.346-39.165-19.543-51.915c-11.084-27.218-14.773-67.5-27.288-82.77Z" transform="translate(-247.477 -141.778)" fill="#263238"/>
      <path id="Path_8003" data-name="Path 8003" d="M300.584,148.09a17.72,17.72,0,0,1-3.244,3.488,2.738,2.738,0,0,0,2.128.942Z" transform="translate(-245.041 -131.683)" fill="#ff5652"/>
      <path id="Path_8004" data-name="Path 8004" d="M303.22,156.549a5.486,5.486,0,0,1-1.081-.157.183.183,0,0,1-.14-.227.209.209,0,0,1,.235-.14,5.232,5.232,0,0,0,4.544-.994.188.188,0,1,1,.27.262A5.372,5.372,0,0,1,303.22,156.549Z" transform="translate(-245.636 -132.563)" fill="#263238"/>
      <path id="Path_8005" data-name="Path 8005" d="M322.17,155.032a5.965,5.965,0,0,1-3.366,2.939c-1.945.654-3-1.038-2.52-2.9.419-1.692,1.945-4.055,3.933-3.9A2.548,2.548,0,0,1,322.17,155.032Z" transform="translate(-247.449 -132.075)" fill="#ff8b7b"/>
      <path id="Path_8006" data-name="Path 8006" d="M311.789,145.177a.358.358,0,0,1-.244-.166,2.991,2.991,0,0,0-2.32-1.422.366.366,0,0,1-.375-.375.384.384,0,0,1,.384-.375,3.7,3.7,0,0,1,2.956,1.744.4.4,0,0,1-.4.593Z" transform="translate(-246.513 -131.011)" fill="#263238"/>
      <path id="Path_8007" data-name="Path 8007" d="M306.567,147.587c-.166.645-.637,1.09-1.064.985s-.637-.724-.471-1.369.637-1.09,1.064-.985S306.741,146.942,306.567,147.587Z" transform="translate(-246.018 -131.441)" fill="#263238"/>
      <path id="Path_8008" data-name="Path 8008" d="M298.157,145.467c-.166.654-.637,1.09-1.064.985s-.637-.724-.471-1.369.637-1.09,1.064-.985S298.322,144.822,298.157,145.467Z" transform="translate(-244.942 -131.17)" fill="#263238"/>
      <path id="Path_8009" data-name="Path 8009" d="M297.047,141.527a.358.358,0,0,1-.253-.113.375.375,0,0,1,0-.532,3.829,3.829,0,0,1,3.331-1.02.366.366,0,0,1,.27.453.384.384,0,0,1-.462.279,3.044,3.044,0,0,0-2.616.872.366.366,0,0,1-.27.061Z" transform="translate(-244.957 -130.622)" fill="#263238"/>
      <path id="Path_8010" data-name="Path 8010" d="M338.169,224.7l1.483,2.616c.166.192-.044.48-.41.576l-32.415,8.389c-.288.078-.549,0-.61-.183l-.968-2.756c-.07-.183.14-.419.453-.5l31.866-8.25a.576.576,0,0,1,.6.1Z" transform="translate(-246.051 -141.463)" fill="#fff"/>
      <path id="Path_8011" data-name="Path 8011" d="M338.756,229.485l.872-.227c.174-.044.279-.166.244-.27l-1.282-3.567c0-.1-.209-.157-.375-.113l-.872.218c-.174.044-.279.166-.244.27l1.282,3.576a.323.323,0,0,0,.375.113Z" transform="translate(-250.126 -141.558)" fill="#263238"/>
      <path id="Path_8012" data-name="Path 8012" d="M309.645,237.024l.872-.218a.236.236,0,0,0,.244-.27l-1.282-3.576a.323.323,0,0,0-.384-.113l-.872.227a.236.236,0,0,0-.244.27l1.282,3.567A.33.33,0,0,0,309.645,237.024Z" transform="translate(-246.401 -142.521)" fill="#263238"/>
      <path id="Path_8013" data-name="Path 8013" d="M324.216,233.255l.872-.218c.174-.052.279-.166.244-.27l-1.282-3.576c0-.1-.209-.157-.375-.113l-.872.227a.236.236,0,0,0-.244.27l1.282,3.567C323.876,233.246,324.05,233.3,324.216,233.255Z" transform="translate(-248.266 -142.04)" fill="#263238"/>
    </g>
    <g id="freepik--character-1--inject-34" transform="translate(39.835 91.442)">
      <path id="Path_8014" data-name="Path 8014" d="M184.111,164.048l-.706.977-.663.872c-.445.593-.872,1.151-1.36,1.744-.924,1.116-1.858,2.224-2.817,3.305-1.945,2.137-3.968,4.212-6.1,6.166a85.333,85.333,0,0,1-6.776,5.555c-.584.445-1.2.872-1.805,1.273s-1.23.828-1.858,1.221l-.951.593-.471.3-.244.157-.331.192a14.554,14.554,0,0,1-3.017,1.36,12.114,12.114,0,0,1-3.663.584,11.668,11.668,0,0,1-3.75-.628,13.875,13.875,0,0,1-5.407-3.488,22.674,22.674,0,0,1-3.14-4.151,33.793,33.793,0,0,1-2.128-4.186,55.814,55.814,0,0,1-2.756-8.363,65.049,65.049,0,0,1-1.526-8.494,3.131,3.131,0,0,1,6.035-1.448l.052.131a86.764,86.764,0,0,0,6.48,13.953,18.932,18.932,0,0,0,4.064,5,3.052,3.052,0,0,0,1.5.767c.27,0,.262-.087.619-.235a3.864,3.864,0,0,0,.654-.419l1.387-1.064c1-.733,1.936-1.587,2.913-2.372,1.91-1.631,3.733-3.392,5.546-5.233s3.532-3.7,5.233-5.625c.872-.951,1.683-1.927,2.494-2.913l1.195-1.483c.384-.471.8-1,1.1-1.387l.174-.218a6.288,6.288,0,0,1,10.064,7.526Z" transform="translate(-57.055 -104.125)" fill="#ffc3bd"/>
      <path id="Path_8015" data-name="Path 8015" d="M141.427,161.974,140,153l-9.3,5.093a7.971,7.971,0,0,0,6.462,6.889Z" transform="translate(-56.554 -103.977)" fill="#ffc3bd"/>
      <path id="Path_8016" data-name="Path 8016" d="M138.065,146.68l-7.875-.82.445,11.328,9.3-5.093Z" transform="translate(-56.488 -103.064)" fill="#ffc3bd"/>
      <path id="Path_8017" data-name="Path 8017" d="M176.349,161.244a608.609,608.609,0,0,1-8.939,64.177l43.4,9.305c7.046-22.5,9.331-44.424,12.767-66.183a12.487,12.487,0,0,0-9.148-14.032,59.365,59.365,0,0,0-6.628-1.238A158.957,158.957,0,0,0,189.221,152c-1.36.044-2.695.122-3.959.235a9.837,9.837,0,0,0-8.913,9.009Z" transform="translate(-61.249 -103.85)" fill="#ffc3bd"/>
      <path id="Path_8018" data-name="Path 8018" d="M226.76,166.27a98.843,98.843,0,0,0,2.547,16.43c.6-4.012,1.186-8.023,1.814-12.026Z" transform="translate(-68.841 -105.675)" opacity="0.2"/>
      <path id="Path_8019" data-name="Path 8019" d="M154.652,232.71s-38.546,29.9-52.526,50.965C87.58,305.608,63.65,343.718,63.65,343.718l6.235,4.291s39.13-44.808,46.221-53.729c17.442-22.1,59.093-33.061,68.092-52.84C171.675,235.754,154.652,232.71,154.652,232.71Z" transform="translate(-47.977 -114.174)" fill="#ffc3bd"/>
      <path id="Path_8020" data-name="Path 8020" d="M184,238.49s-.724,51.532,4.91,75.174c6.174,25.884,44.537,70.639,44.537,70.639l2.616-6.549s-16.308-41.145-30.427-62.947c.916-19.892,4.823-48.4,7.3-69.026A196.979,196.979,0,0,0,184,238.49Z" transform="translate(-63.367 -114.913)" fill="#ffc3bd"/>
      <path id="Path_8021" data-name="Path 8021" d="M246.506,397.789c-1.744-1.36-4.648-1.744-7.081-4.709,0,0-5.233,3.907-3.776,6.5s1.038,7.788-5.869,11.529c-.959.523.715,2.172,3.262,2.172,4.36,0,5.189-1.291,7.36-4.151,1.858-2.442,5.041-5.512,6.654-7.343C248.408,400.249,248.3,399.158,246.506,397.789Z" transform="translate(-69.192 -134.687)" fill="#ffc3bd"/>
      <path id="Path_8022" data-name="Path 8022" d="M64.892,369.6c1.212-1.875,1.326-4.77,4.108-7.448,0,0-3.593-5.921-6.052-4.291s-9.139,2.311-16.116-1.186c-.985-.488-2.049,2.555.1,3.924,3.549,2.259,6.183,3.863,9.209,5.8,2.616,1.648,2.887,2.616,4.858,4.081C62.607,371.69,63.68,371.489,64.892,369.6Z" transform="translate(-45.678 -130.023)" fill="#ffc3bd"/>
      <path id="Path_8023" data-name="Path 8023" d="M213.35,132c-2.015,5.852-4.718,16.7-1.073,21.288,0,0-2.485,5.869-13.657,4.36-7.456-1.038-7.709-3.366-6.759-5.032a4.535,4.535,0,0,1,3.078-2.084c5.651-1.16,6.1-5.8,5.581-10.291Z" transform="translate(-64.327 -101.291)" fill="#ffc3bd"/>
      <path id="Path_8024" data-name="Path 8024" d="M209.447,135.81l-7.587,4.849a20.214,20.214,0,0,1,.113,3.392c1.683.48,6.776-1.142,7.413-3.785A14.826,14.826,0,0,0,209.447,135.81Z" transform="translate(-65.656 -101.779)" opacity="0.2"/>
      <path id="Path_8025" data-name="Path 8025" d="M236.161,221.31,229.62,226.6l9.488,4.7s4.57-5.747,1.8-8.5Z" transform="translate(-69.207 -112.715)" fill="#ffc3bd"/>
      <path id="Path_8026" data-name="Path 8026" d="M224.367,156.315l.6.323.523.288,1,.576c.654.392,1.291.8,1.919,1.212,1.256.82,2.468,1.683,3.671,2.573a60.5,60.5,0,0,1,6.759,5.956c1.073,1.064,2.067,2.241,3.078,3.392a30.491,30.491,0,0,1,2.765,3.741,44.579,44.579,0,0,1,2.442,4.029c.358.715.689,1.448,1.029,2.171.166.384.323.689.506,1.125s.358.933.506,1.4a16.954,16.954,0,0,1,.8,5.974,3.148,3.148,0,0,1-.061.759l-.078.558-.148,1.116c-.113.741-.183,1.483-.34,2.215l-.436,2.206c-.157.733-.366,1.448-.549,2.172s-.392,1.448-.628,2.154-.419,1.43-.706,2.119a48.633,48.633,0,0,1-3.776,8.076,43.5,43.5,0,0,1-2.451,3.724,17.625,17.625,0,0,1-1.387,1.744c-.253.3-.488.576-.759.872l-.872.916a3.087,3.087,0,0,1-5.049-3.4l.27-.593c.07-.157.244-.462.366-.715l.41-.82c.27-.558.541-1.116.785-1.744.515-1.134.951-2.32,1.378-3.488a52.8,52.8,0,0,0,1.971-7.23,57.053,57.053,0,0,0,.959-7.36c.07-.61.052-1.238.078-1.849v-1.648a6.584,6.584,0,0,0-.532-2.058c-.078-.166-.157-.331-.244-.5l-.41-.706-.872-1.465c-.672-.933-1.247-1.919-2.006-2.817a42.6,42.6,0,0,0-4.831-5.233,67,67,0,0,0-5.634-4.7c-.994-.733-2-1.456-3.017-2.128-.515-.34-1.029-.672-1.544-.985l-.75-.48-.654-.392-.331-.192a6.28,6.28,0,1,1,6.192-10.927Z" transform="translate(-67.329 -104.293)" fill="#ffc3bd"/>
      <path id="Path_8027" data-name="Path 8027" d="M213.731,154.621c-1.212,3.052-5.233,16.945,7.186,26.459a3.392,3.392,0,0,1,1.343,3.026c-.549,5.407-1.247,14.4-2.616,18.384-1.535,4.509-3.331,11.477-3.3,15.27s-1.7,11.119-4.038,12.82c-26.407-6.1-44.093-12.044-44.093-12.044s-1.517-4.657.427-8.721,3.828-17.328,3.933-19.517,1.491-12.453,1.805-14.773c.567-4.116,10.273-5.512,10.517-23.3a.454.454,0,0,1,.3-.436,6.976,6.976,0,0,1,2.3-.113.454.454,0,0,1,.392.61c-.828,2.337-3.192,11.389,9.209,12.567s14.119-8.224,14.363-10.727a.541.541,0,0,1,.645-.488l1.195.218a.549.549,0,0,1,.427.767Z" transform="translate(-61.281 -103.802)" fill="#263238"/>
      <path id="Path_8028" data-name="Path 8028" d="M139.569,281.913s-13.8-6.889-16.029-18.759c10.1-14.154,29.982-31.247,35.66-32.093a43.754,43.754,0,0,1,3.122-4.831L197.2,236.494C192.836,253.491,151.909,274.866,139.569,281.913Z" transform="translate(-55.638 -113.345)" fill="#9676ff"/>
      <path id="Path_8029" data-name="Path 8029" d="M175.67,253.587c-5.189,1.535-11.651,12.933-14.45,22.264a233.384,233.384,0,0,0,23.093-15.262C180.807,256.919,176.726,253.291,175.67,253.587Z" transform="translate(-60.458 -116.842)" opacity="0.2"/>
      <path id="Path_8030" data-name="Path 8030" d="M182.735,294.379s9.645,4.169,25.29-1.5c.1-16.744,7.892-40.814,5.11-48.837a8.416,8.416,0,0,0,1.221-5.337l-43.09-11.485C166.907,232.173,179.517,278.272,182.735,294.379Z" transform="translate(-61.627 -113.471)" fill="#9676ff"/>
      <path id="Path_8031" data-name="Path 8031" d="M211.048,244.959h-.061c-26.738-3.968-44.651-12.044-44.825-12.131a.427.427,0,0,1-.218-.576.436.436,0,0,1,.576-.218c.174.087,17.991,8.119,44.59,12.07a.419.419,0,0,1,.366.488A.436.436,0,0,1,211.048,244.959Z" transform="translate(-61.057 -114.082)" fill="#fff" opacity="0.3"/>
      <path id="Path_8032" data-name="Path 8032" d="M226.63,235.987l7.988,3.436,4.108-7.343-9.488-4.7Z" transform="translate(-68.824 -113.492)" fill="#ffc3bd"/>
      <path id="Path_8033" data-name="Path 8033" d="M219.037,129.129c-2.241,2.878-9.767-12.924-8.285-15.523s8.834-6.1,11.389-2.52S221.976,125.336,219.037,129.129Z" transform="translate(-66.769 -98.421)" fill="#263238"/>
      <path id="Path_8034" data-name="Path 8034" d="M196.776,120.653c.515,8.215.4,13.081,4.552,17.259,6.253,6.331,16.387,2.564,18.314-5.642,1.744-7.378.619-19.578-7.43-22.831a11.224,11.224,0,0,0-15.436,11.215Z" transform="translate(-65.002 -98.299)" fill="#ffc3bd"/>
      <path id="Path_8035" data-name="Path 8035" d="M195.933,127.321c3.131,1.866,9.052-12.9,6.724-14.825s-15.017-.515-15.889,3.776S191.825,124.871,195.933,127.321Z" transform="translate(-63.714 -98.688)" fill="#263238"/>
      <path id="Path_8036" data-name="Path 8036" d="M212.61,103.415c-7.7,4.36-6.48-.567-15.942.645S193.4,115.4,193.4,115.4l8.826-2.512c10.142,2.756,14.564-6.977,23.433-4.256C223.067,104.5,218.819,99.865,212.61,103.415Z" transform="translate(-64.319 -97.473)" fill="#263238"/>
      <path id="Path_8037" data-name="Path 8037" d="M203.9,99.877c-5.826,4.823-6.776,1.64-12.366,2.956-8.433,1.988-.558,10.465-.558,10.465l6.977-3.706c16.282-.471,14.389-9.785,22.3-9.863a12.593,12.593,0,0,0-16.352.148Z" transform="translate(-63.837 -96.787)" fill="#263238"/>
      <path id="Path_8038" data-name="Path 8038" d="M185.55,107.67c-.436,3.392,1.352,5.634,3.776,7.029l1.378-1.8S185.934,111.01,185.55,107.67Z" transform="translate(-63.561 -98.179)" fill="#263238"/>
      <path id="Path_8039" data-name="Path 8039" d="M192.839,129.316a7.849,7.849,0,0,0,4.36,4.116c2.564.968,4.09-1.265,3.576-3.82-.462-2.294-2.355-5.555-5.023-5.433S191.837,126.988,192.839,129.316Z" transform="translate(-64.458 -100.291)" fill="#ffc3bd"/>
      <path id="Path_8040" data-name="Path 8040" d="M211.08,124.822c0,.672.349,1.212.785,1.212s.794-.541.794-1.212-.358-1.212-.794-1.212S211.071,124.186,211.08,124.822Z" transform="translate(-66.835 -100.218)" fill="#263238"/>
      <path id="Path_8041" data-name="Path 8041" d="M219.75,124.822c0,.672.349,1.212.785,1.212s.794-.541.794-1.212-.358-1.212-.794-1.212S219.741,124.177,219.75,124.822Z" transform="translate(-67.944 -100.218)" fill="#263238"/>
      <path id="Path_8042" data-name="Path 8042" d="M217,125.41a24.12,24.12,0,0,0,3.2,5.721,3.874,3.874,0,0,1-3.192.6Z" transform="translate(-67.593 -100.448)" fill="#ed847e"/>
      <path id="Path_8043" data-name="Path 8043" d="M212.61,134.231a5.887,5.887,0,0,0,1.474.174.2.2,0,1,0,0-.392,5.293,5.293,0,0,1-4.317-2.067.2.2,0,1,0-.331.209,5.424,5.424,0,0,0,3.174,2.076Z" transform="translate(-66.621 -101.273)" fill="#263238"/>
      <path id="Path_8044" data-name="Path 8044" d="M207.127,120.337a.4.4,0,0,0,.375-.209,3.166,3.166,0,0,1,2.294-1.683.392.392,0,1,0-.07-.776,3.863,3.863,0,0,0-2.913,2.084.392.392,0,0,0,.157.532.559.559,0,0,0,.157.052Z" transform="translate(-66.283 -99.457)" fill="#263238"/>
      <path id="Path_8045" data-name="Path 8045" d="M224.37,119.564a.331.331,0,0,0,.244-.1.384.384,0,0,0,0-.549,3.881,3.881,0,0,0-3.288-1.43.392.392,0,1,0,.1.776,3.131,3.131,0,0,1,2.616,1.16.366.366,0,0,0,.323.14Z" transform="translate(-68.099 -99.434)" fill="#263238"/>
    </g>
    <g id="freepik--Photo--inject-34" transform="translate(108.784 56.744)">
      <path id="Path_8046" data-name="Path 8046" d="M124.74,94.3,162,283.812l189.513-37.256L314.253,57ZM340.45,238.394,169.138,271.908,135.606,101.6,306.954,67.91Z" transform="translate(-124.74 -57)" fill="#9676ff"/>
      <path id="Path_8047" data-name="Path 8047" d="M124.74,94.3,162,283.812l189.513-37.256L314.253,57ZM340.45,238.394,169.138,271.908,135.606,101.6,306.954,67.91Z" transform="translate(-124.74 -57)" fill="#fff" opacity="0.8"/>
    </g>
  </g>
</svg>
