<svg xmlns="http://www.w3.org/2000/svg" width="342.139" height="223.748" viewBox="0 0 342.139 223.748">
  <g id="Solidarity-pana" transform="translate(-30.84 -25.1)">
    <g id="freepik--background-complete--inject-188" transform="translate(36.197 25.1)">
      <path id="Path_4388" data-name="Path 4388" d="M370.735,114.482c-.845-1.9-1.034-4.006-1.591-6a3.987,3.987,0,0,0-1.8-2.689,17.994,17.994,0,0,0-2.162-.5c-2.54-.761-3.231-4.3-5.637-5.408a8.212,8.212,0,0,0-2.421-.5c-3.216-.378-6.546-1.491-8.569-4.021a15.538,15.538,0,0,0-1.988-2.446,2.371,2.371,0,0,0-2.908-.268q1.021,2.035,1.988,4.061a10.648,10.648,0,0,0,2.252,3.38,3.667,3.667,0,0,0,3.793.815,2.485,2.485,0,0,1,1.277-.447,1.367,1.367,0,0,1,.825.532c1.755,1.939,1.183,5.16-.527,7.143s-4.225,2.982-6.656,3.977a5.13,5.13,0,0,1-2.719.532c-1.685-.313-2.58-2.147-3.072-3.793-1.1-3.639-1.63-7.6-3.882-10.662a13.173,13.173,0,0,1-2.053-2.982c-.462-1.223-.353-2.649-1.089-3.723s-2.376-1.779-2.485-3.136a2.48,2.48,0,0,1,1.591-2.2c.87-.408,1.849-.542,2.744-.91.353-.149.746-.408.761-.785,0-.572-.785-.8-.994-1.332s.393-1.153.651-1.74c.557-1.332-.83-2.674-2.177-3.221s-2.948-.934-3.569-2.242a7.687,7.687,0,0,1-.437-1.939,4.256,4.256,0,0,0-3.176-3.509c-1.655-.273-3.519,1.213-3.251,2.868a12.745,12.745,0,0,0,1.213,2.485c.368.87.268,2.093-.6,2.361-1.427.437-2.8-2.172-3.977-1.277.5,1.675.964,3.345,1.451,5.03-1.874.949-4.116-.775-4.916-2.734s-.83-4.17-1.779-6.044-3.519-3.286-5.15-1.953c-.08,2.416,3.112,3.395,4.523,5.348,1.019,1.417.87,3.713-.636,4.608s-3.872-.666-3.3-2.311c.2-.572.676-1.044.731-1.655.055-.76-.582-1.372-1.168-1.864-.91-.77-1.819-1.531-2.729-2.291a5.637,5.637,0,0,0-1.944-1.223c-1.874-.547-3.748.994-4.742,2.644s-1.546,3.658-2.918,5.055c-1.988,2.038-5.706,2.162-7.555.03s-.91-6.129,1.819-6.9c1.034-.283,2.336-.258,2.883-1.168.949-1.615-1.77-3.678-.83-5.309.721-1.253,2.62-.681,4.006-1.1s2.147-1.8,2.982-2.982,2.068-2.376,3.479-2.063a4.39,4.39,0,0,1,.149-2.485,1.514,1.514,0,0,1,2.078-.761c-.691,1.143.134,2.734,1.347,3.3a7.449,7.449,0,0,0,3.977.288c1.357-.149,2.982-.651,3.112-1.988.04-.437-.124-.9.04-1.307.582-1.586,3.519.6,4.647-.676.651-.666-.07-1.849-.994-2.068a10.292,10.292,0,0,0-2.759.139c-.925.03-2.053-.447-2.093-1.372s.994-1.566,1.089-2.485c.174-1.521-2.406-1.914-3.315-.681s-.587,2.938-.313,4.444.423,3.286-.691,4.349c-.5.716-1.715.338-2.122-.423a6.383,6.383,0,0,1-.393-2.54,2.2,2.2,0,0,0-1.292-2.078,4.525,4.525,0,0,0-1.8.2c-2.366.283-4.006-2.774-3.261-5.025s2.878-3.723,4.971-4.881c1.521-.84,3.4-1.63,4.916-.77.706.393,1.193,1.069,1.889,1.491,1.193.711,2.674.452,4.046.5a9.444,9.444,0,0,1,5.91,2.3c.611.557,1.183,1.491.706,2.147s-1.988.855-1.74,1.685a2.948,2.948,0,0,0,3.683-2.406,2.485,2.485,0,0,1,1.417,1.988,4.411,4.411,0,0,1,6.462.527,5.449,5.449,0,0,0,1.193,1.536c.542.363,1.491.179,1.566-.462a1.3,1.3,0,0,0-.109-.6c-.328-.925-.666-1.834-.994-2.744,1.267-.681,2.759.383,3.614,1.521,3.181,4.255,5.468,1.7,9.941,2.391,3.032.462,4.364,2.406,6.074,4.757,5.244,7.227,12.173,13.147,16.94,20.7.5.785.964,1.591,1.4,2.406-.08-.2-.149-.408-.229-.611a83.876,83.876,0,0,0-6.929-14.092c-.582-.949-1.183-1.884-1.794-2.808-.378-.572-.77-1.158-1.168-1.715-.5-.731-1.029-1.437-1.561-2.142-.423-.572-.84-1.128-1.277-1.675-.3-.378-.611-.761-.925-1.138a16.549,16.549,0,0,0-1.059-1.277l-1.138-1.317a4.618,4.618,0,0,0-.368-.408c-.4-.462-.815-.91-1.238-1.357a.367.367,0,0,0-.124-.139c-.1-.119-.229-.244-.353-.368-.338-.378-.706-.746-1.059-1.113-.582-.6-1.183-1.193-1.794-1.765-.5-.5-1.019-.994-1.546-1.451s-.925-.845-1.4-1.253-.92-.8-1.4-1.193c-.572-.5-1.153-.964-1.755-1.441h0c-1.645-1.317-3.345-2.57-5.085-3.738-.432-.3-.855-.582-1.287-.87s-.885-.567-1.317-.84-.885-.557-1.332-.815-.9-.542-1.347-.8c-.368-.219-.721-.423-1.084-.611a5.778,5.778,0,0,0-.557-.313c-.775-.437-1.566-.855-2.351-1.253-.393-.2-.79-.408-1.2-.6-.5-.258-1.019-.5-1.536-.731a.885.885,0,0,0-.229-.109c-.462-.219-.924-.437-1.4-.641-.666-.283-1.327-.567-1.988-.84-.76-.313-1.521-.626-2.3-.91-.855-.328-1.715-.641-2.58-.925s-1.755-.587-2.639-.855-1.765-.5-2.659-.761q-2.654-.716-5.368-1.268a.661.661,0,0,1-.094-.025c-.691-.134-1.387-.273-2.078-.378a.552.552,0,0,0-.134-.03c-.3-.055-.611-.109-.924-.149-1.292-.219-2.595-.393-3.912-.542a3.589,3.589,0,0,0-.5-.055c-.383-.055-.76-.085-1.153-.124-.87-.08-1.74-.149-2.624-.2s-1.834-.109-2.759-.134-1.929-.055-2.893-.055q-3.832,0-7.58.338c-.6.04-1.183.094-1.765.164s-1.223.134-1.834.219-1.223.164-1.819.258-1.213.189-1.824.3c-.5.08-1.044.174-1.561.283q-1.919.363-3.788.815c-.586.134-1.168.288-1.755.447s-1.168.313-1.74.5c-.964.273-1.9.572-2.838.87h0c-.761.258-1.536.5-2.282.775a.09.09,0,0,0-.055,0c-.775.273-1.521.557-2.282.855l-.124.045c-.691.268-1.382.557-2.063.84-.855.353-1.7.736-2.525,1.113-.706.328-1.4.651-2.078.994s-1.491.731-2.187,1.113l-.085.04c-.691.368-1.387.746-2.063,1.138s-1.437.82-2.113,1.272h0q-.994.587-1.929,1.2a6.409,6.409,0,0,0-.721.5c-.681.437-1.332.885-1.988,1.347-.815.557-1.6,1.138-2.391,1.725q-1.034.775-2.038,1.576a85.707,85.707,0,0,0-10.7,10.061c-1.153,1.277-2.242,2.58-3.3,3.912-.895,1.143-1.765,2.3-2.595,3.479q-1.118,1.556-2.162,3.171,1.044-1.61,2.162-3.171c.219-.03.437-.055.651-.07a9.975,9.975,0,0,0,3.614-.587,23.041,23.041,0,0,0,2.664-2.063c2.366-1.685,6.233-1.988,6.874-4.822.219-.949-.04-1.988.313-2.893.666-1.7,2.933-1.944,4.752-1.919.775,0,1.685.109,2.038.79a1.943,1.943,0,0,1-.08,1.576,14.753,14.753,0,0,1-6.238,7.66c-2.361,1.441-5.468,2.555-6.1,5.244.328.91,1.988.845,2.122,1.794.094.761-.885,1.153-1.238,1.834-.5.994.666,2.2,1.794,2.147a4.969,4.969,0,0,0,2.893-1.63c2.485-2.3,5.065-4.767,5.965-8.028.378-1.347.5-2.923,1.6-3.817a2.655,2.655,0,0,1,4.036,1.287c1.074-.6,2.744-1.044,3.3.07a5.736,5.736,0,0,1,.229,1.277c.353,1.74,2.734,2.525,2.982,4.28.283,2.023-2.311,3.067-4.334,3.38-1.834.288-3.668.572-5.5.87a5.09,5.09,0,0,0-2.282.736,1.789,1.789,0,0,0-.681,2.132,5.548,5.548,0,0,0,.954.994c1.521,1.521.268,4.657-1.874,4.727-.736,0-1.456-.244-2.187-.273-2.177-.094-3.9,1.819-4.936,3.738s-1.8,4.1-3.544,5.4c-2.8,2.108-7.62,1.62-8.977,4.851a7.755,7.755,0,0,0-.045,4.17,5.61,5.61,0,0,1-.5,4.091c-.81,1.158-2.893,1.387-3.479.109a3.112,3.112,0,0,1-.08-1.809q.5-3.012.949-6.029c.229-1.491.432-3.166-.447-4.389-1.238-1.71-4.011-1.551-5.612-.179s-2.257,3.519-2.7,5.572a24.193,24.193,0,0,1-1.551,5.408h0c-.283,1.685-.5,3.395-.691,5.12s-.3,3.519-.368,5.314a8.133,8.133,0,0,0,.7-.656c.855-.88,2.58-4.618,4.126-2.784a1.387,1.387,0,0,1,.03,1.7c-.5.611-1.427.746-1.794,1.412-.447.79.179,1.765.91,2.282a7.664,7.664,0,0,1,2.147,1.606c.994,1.427.04,3.584.994,5.04.83,1.248,2.595,1.327,4.106,1.491l.5.085c.418-2.982,1.819-5.423,5.9-6.348,5.622-1.277,13.013,3.385,16.179,7.625,3.529,4.737,5.2,11.432,10.607,13.828,3.872,1.695,9.375,1.084,11.263,4.876,1.685,3.395-1.248,7.212-1.7,10.975-.283,2.485.532,4.971.721,7.456s-.557,5.408-2.823,6.462c-1.263.572-2.853.5-3.872,1.456-1.809,1.71-.328,5.244-2.132,6.959a9.284,9.284,0,0,1-2.3,1.208c-4.061,2.053-3.977,8.028-2.068,12.173.07.149.139.283.2.432a85.829,85.829,0,0,0,84.292,2.132h0a85.633,85.633,0,0,0,24.779-19.883c1.442-1.66,2.8-3.385,4.106-5.15.666-.91,1.317-1.819,1.929-2.759a85.365,85.365,0,0,0,14-36.484c.258-1.929.462-3.887.6-5.855a4.971,4.971,0,0,1-3.45,1.536C373.265,118.11,371.57,116.386,370.735,114.482Z" transform="translate(-124.996 -25.1)" fill="#f5f5f5"/>
      <path id="Path_4389" data-name="Path 4389" d="M328.128,49.372c-1.7.994-2.6,2.938-3.917,4.424S320.548,56.335,319,55.1a3.594,3.594,0,0,1-1.163-2.53,6.462,6.462,0,0,1,.925-3.932c.741-1.2,1.869-2.152,2.485-3.42s.5-3.122-.785-3.718c-.7-.323-1.566-.194-2.182-.651-1.108-.815-.318-2.739.969-3.226s2.714-.109,4.086,0c4.971.318,8.634-2.938,12.372-5.647,2.923-2.147,9.116-4.633,12.491-2.465,1.342.86,1.869,3.067.6,4.036-.567.432-1.347.527-1.874.994-.631.577-.721,1.521-1.084,2.3-.944,1.988-3.658,2.744-4.533,4.792-.527,1.228-.288,2.759-1.1,3.822a4.691,4.691,0,0,1-2.793,1.387l-6.487,1.546a9.757,9.757,0,0,0-2.8.984Z" transform="translate(-180.494 -26.899)" fill="#ebebeb"/>
      <path id="Path_4390" data-name="Path 4390" d="M400.99,209.409c-2.152,3.241-2.545,7.3-3.141,11.144s-1.625,7.953-4.583,10.468-8.385,2.386-10.011-1.153c-.885-1.919-.427-4.185-.91-6.243-.626-2.679-2.764-4.747-3.773-7.307a20.408,20.408,0,0,1-.939-6.959c-.383-12.829-3.514-26.22-12.248-35.62a8.464,8.464,0,0,0-3.812-2.689,4.876,4.876,0,0,0-4.99,1.745c-.7.93-1.064,2.113-1.924,2.9-1.864,1.7-5.125.5-6.372-1.715s-1.074-4.9-.865-7.411l.775-9.37c.134-1.635.318-3.39,1.392-4.628,1.526-1.765,4.26-1.844,6.124-3.246,2.446-1.829,2.774-5.324,4.314-7.953s6.367-3.753,7.083-.78c5.1-10.935,16.4,5.3,23.094,4.086,1.948-.358,3.852-1.292,5.816-.994,3.479.5,5.249,4.3,6.432,7.6l5.865,16.4c.746,2.083,1.71,4.4,3.768,5.194,1.581.616,3.42.149,5.01.726,4.21,1.531,2.843,8.157-.547,11.089s-8.142,4.782-9.752,8.947c-1.213,3.151-.249,6.84-1.551,9.941C404.3,205.785,402.312,207.4,400.99,209.409Z" transform="translate(-195.343 -81.271)" fill="#ebebeb"/>
      <path id="Path_4391" data-name="Path 4391" d="M476.291,278.468c-1.382.194-3.017-.5-4.066.427a4.486,4.486,0,0,0-.994,2.2,4.692,4.692,0,0,1-1.963,2.679,2.943,2.943,0,0,1-3.2-.06,2.167,2.167,0,0,1-.442-2.982,14.215,14.215,0,0,1,1.2-.994c1.834-1.74.577-4.971,1.988-7.019.825-1.218,2.117-2.451,3.022-3.683.7-.949.949-1.7,2.232-1.953C479.646,266.011,482.176,277.642,476.291,278.468Z" transform="translate(-254.664 -146.766)" fill="#ebebeb"/>
      <g id="Group_2352" data-name="Group 2352" transform="translate(120.35 157.132)" opacity="0.6">
        <path id="Path_4392" data-name="Path 4392" d="M283.74,341.22c.721.5,1.451.964,2.192,1.427.5.328,1.034.641,1.561.949-.527-.308-1.044-.621-1.561-.949C285.191,342.184,284.461,341.712,283.74,341.22Z" transform="translate(-283.74 -341.22)" fill="#263238"/>
      </g>
      <g id="Group_2353" data-name="Group 2353" transform="translate(82.33 82.264)" opacity="0.6">
        <path id="Path_4393" data-name="Path 4393" d="M207.3,190.6h0c0,.164-.025.313-.025.5,0,.5,0,1.029-.03,1.551,0-.522,0-1.039.03-1.551C207.28,190.913,207.295,190.764,207.3,190.6Z" transform="translate(-207.25 -190.6)" fill="#263238"/>
      </g>
      <path id="Path_4394" data-name="Path 4394" d="M218.449,222.9c-.273-2.46.542-4.921.582-7.406.03-1.71-.094-3.519-.119-5.244a23.019,23.019,0,0,1-4.364-.611,1.272,1.272,0,0,1-.8-.408,1.615,1.615,0,0,1-.179-.91c-.1-1.929-1.988-3.206-3.639-4.17a14.549,14.549,0,0,0-2.649-1.3v.6a85.624,85.624,0,0,0,5.468,27.239,83.237,83.237,0,0,0,5.244,11.249c.845,1.561,1.77,3.1,2.734,4.6,1.193,1.864,2.446,3.683,3.788,5.433,1.253,1.685,2.585,3.33,3.977,4.906a84.748,84.748,0,0,0,6.074,6.248q2.833,2.654,5.91,5.025c-4.687-12.576-9.106-25.415-17.119-36.122C221.257,229.229,218.842,226.376,218.449,222.9Z" transform="translate(-124.935 -114.497)" fill="#ebebeb"/>
      <path id="Path_4395" data-name="Path 4395" d="M219.07,196.769l-.5-.085c-1.491-.164-3.276-.244-4.106-1.491-.964-1.456,0-3.614-.994-5.04-.5-.751-1.412-1.074-2.147-1.606s-1.357-1.491-.91-2.282c.368-.666,1.317-.8,1.794-1.412a1.387,1.387,0,0,0-.03-1.7c-1.546-1.834-3.271,1.9-4.126,2.784a8.134,8.134,0,0,1-.7.656h0c0,.164-.025.313-.025.5,0,.5,0,1.029-.03,1.551s-.025,1.029-.025,1.546v.82c0,.418.025,1.277.04,1.695a14.549,14.549,0,0,1,2.649,1.3c1.67.964,3.534,2.242,3.639,4.17a1.615,1.615,0,0,0,.179.91,1.3,1.3,0,0,0,.8.408,23.021,23.021,0,0,0,4.364.611" transform="translate(-124.935 -104.34)" fill="#ebebeb"/>
      <path id="Path_4396" data-name="Path 4396" d="M230.156,207.71c0,1.725.149,3.534.119,5.244-.04,2.485-.855,4.971-.582,7.406.393,3.479,2.808,6.328,4.916,9.126,8.013,10.707,12.427,23.546,17.119,36.122h0c.87.7,1.755,1.347,2.649,1.988q1.059.77,2.142,1.491t2.192,1.427c.5.328,1.034.641,1.561.949-.065-.149-.134-.283-.2-.432-1.884-4.146-1.988-10.12,2.068-12.173a9.288,9.288,0,0,0,2.3-1.208c1.8-1.71.323-5.244,2.132-6.959,1.019-.954,2.61-.885,3.872-1.456,2.267-1.044,2.982-3.977,2.823-6.462s-.994-4.971-.721-7.456c.452-3.763,3.385-7.58,1.7-10.975-1.889-3.793-7.391-3.181-11.263-4.876-5.4-2.376-7.078-9.091-10.607-13.828-3.166-4.24-10.558-8.9-16.179-7.625-4.076.925-5.468,3.355-5.9,6.348" transform="translate(-136.18 -111.956)" fill="#ebebeb"/>
      <path id="Path_4397" data-name="Path 4397" d="M213.735,110.056c1.6-1.372,4.374-1.531,5.612.179.88,1.223.676,2.893.447,4.389q-.467,3.012-.949,6.029a3.112,3.112,0,0,0,.08,1.809c.6,1.277,2.689,1.029,3.479-.109a5.653,5.653,0,0,0,.5-4.091,7.708,7.708,0,0,1,.045-4.17c1.357-3.231,6.178-2.744,8.977-4.851,1.74-1.3,2.515-3.479,3.544-5.4s2.759-3.832,4.936-3.738c.731.03,1.451.3,2.187.273,2.142-.07,3.395-3.206,1.874-4.727a5.547,5.547,0,0,1-.954-.994,1.785,1.785,0,0,1,.681-2.132,5.09,5.09,0,0,1,2.282-.736c1.834-.3,3.668-.582,5.5-.87,2.023-.313,4.618-1.357,4.334-3.38-.244-1.755-2.624-2.54-2.982-4.28a5.736,5.736,0,0,0-.229-1.277c-.557-1.113-2.227-.666-3.3-.07a2.655,2.655,0,0,0-4.036-1.287c-1.089.895-1.223,2.485-1.6,3.817-.9,3.261-3.479,5.731-5.965,8.028A4.969,4.969,0,0,1,235.3,94.1c-1.128.055-2.311-1.153-1.794-2.147.353-.681,1.332-1.074,1.238-1.834-.139-.949-1.794-.885-2.122-1.794.651-2.689,3.738-3.8,6.1-5.244a14.753,14.753,0,0,0,6.238-7.66,1.943,1.943,0,0,0,.08-1.576c-.353-.681-1.263-.79-2.038-.79-1.819,0-4.086.219-4.752,1.919-.353.91-.094,1.944-.313,2.893-.641,2.823-4.508,3.136-6.874,4.822a21.57,21.57,0,0,1-2.664,2.063,9.869,9.869,0,0,1-3.614.587,4.913,4.913,0,0,0-.651.07q-1.118,1.556-2.162,3.171c-.7,1.079-1.362,2.172-1.988,3.281a85.068,85.068,0,0,0-7.456,16.6c-.666,2.028-1.253,4.1-1.76,6.188s-.939,4.225-1.3,6.377a24.192,24.192,0,0,0,1.551-5.408C211.478,113.576,212.144,111.428,213.735,110.056Z" transform="translate(-126.037 -49.216)" fill="#ebebeb"/>
      <path id="Path_4398" data-name="Path 4398" d="M461.344,134.525s-2.162,1.576-3.45,1.551c-2.068-.03-3.763-1.755-4.593-3.658a44.648,44.648,0,0,1-1.591-6,3.987,3.987,0,0,0-1.8-2.689,18,18,0,0,0-2.162-.5c-2.54-.76-3.231-4.3-5.637-5.408a8.212,8.212,0,0,0-2.421-.5c-3.216-.378-6.546-1.491-8.569-4.021a15.543,15.543,0,0,0-1.988-2.446,2.371,2.371,0,0,0-2.908-.268q1.021,2.035,1.988,4.061a10.647,10.647,0,0,0,2.252,3.38,3.667,3.667,0,0,0,3.793.815,2.485,2.485,0,0,1,1.277-.447,1.367,1.367,0,0,1,.825.532c1.755,1.939,1.183,5.16-.527,7.143s-4.225,2.982-6.656,3.977a5.13,5.13,0,0,1-2.719.532c-1.685-.313-2.58-2.147-3.072-3.793-1.1-3.639-1.63-7.6-3.882-10.662a13.172,13.172,0,0,1-2.053-2.982c-.462-1.223-.353-2.649-1.089-3.723s-2.376-1.779-2.485-3.136a2.48,2.48,0,0,1,1.591-2.2c.87-.408,1.849-.542,2.744-.91.353-.149.746-.408.761-.785,0-.572-.785-.8-.994-1.332s.393-1.153.651-1.74c.557-1.332-.83-2.674-2.177-3.221s-2.948-.934-3.569-2.242a7.682,7.682,0,0,1-.437-1.939,4.256,4.256,0,0,0-3.176-3.509c-1.655-.273-3.519,1.213-3.251,2.868a12.746,12.746,0,0,0,1.213,2.485c.368.87.268,2.093-.6,2.361-1.427.437-2.8-2.172-3.977-1.277.5,1.675.964,3.345,1.451,5.03-1.874.949-4.116-.775-4.916-2.734s-.83-4.17-1.779-6.044-3.519-3.286-5.15-1.953c-.079,2.416,3.112,3.395,4.523,5.348,1.019,1.417.87,3.713-.636,4.608s-3.872-.666-3.3-2.311c.2-.572.676-1.044.731-1.655.055-.761-.582-1.372-1.168-1.864-.91-.77-1.819-1.531-2.729-2.291a5.637,5.637,0,0,0-1.944-1.223c-1.874-.547-3.748.994-4.742,2.644s-1.546,3.658-2.918,5.055c-1.988,2.038-5.706,2.162-7.555.03s-.91-6.129,1.819-6.9c1.034-.283,2.336-.258,2.883-1.168.949-1.615-1.77-3.678-.83-5.309.721-1.253,2.62-.681,4.006-1.1s2.147-1.8,2.982-2.982,2.068-2.376,3.479-2.063a4.39,4.39,0,0,1,.149-2.485,1.514,1.514,0,0,1,2.078-.761c-.691,1.143.134,2.734,1.347,3.3a7.449,7.449,0,0,0,3.977.288c1.357-.149,2.982-.651,3.112-1.988.04-.437-.124-.9.04-1.307.582-1.586,3.519.6,4.648-.676.651-.666-.07-1.849-.994-2.068a10.293,10.293,0,0,0-2.759.139c-.924.03-2.053-.447-2.093-1.372s.994-1.566,1.089-2.485c.174-1.521-2.406-1.914-3.315-.681s-.587,2.938-.313,4.444.423,3.286-.691,4.349c-.5.716-1.715.338-2.122-.423a6.382,6.382,0,0,1-.393-2.54,2.2,2.2,0,0,0-1.292-2.078,4.525,4.525,0,0,0-1.8.2c-2.366.283-4.006-2.774-3.261-5.025s2.878-3.723,4.971-4.881c1.521-.84,3.4-1.63,4.916-.77.706.393,1.193,1.069,1.889,1.491,1.193.711,2.674.452,4.046.5a9.444,9.444,0,0,1,5.91,2.3c.611.557,1.183,1.491.706,2.147s-1.988.855-1.74,1.685a2.948,2.948,0,0,0,3.678-2.406,2.485,2.485,0,0,1,1.417,1.988,4.412,4.412,0,0,1,6.462.527,5.448,5.448,0,0,0,1.193,1.536c.542.363,1.491.179,1.566-.462a1.3,1.3,0,0,0-.109-.6c-.328-.925-.666-1.834-.994-2.744,1.267-.681,2.759.383,3.614,1.521,3.181,4.255,5.468,1.7,9.941,2.391,3.032.462,4.364,2.406,6.074,4.757,5.244,7.227,12.173,13.147,16.94,20.7.5.785.964,1.591,1.4,2.406h0c.408,1.089.8,2.182,1.153,3.286s.706,2.212,1.024,3.33a75.186,75.186,0,0,1,2.058,8.425s.6,4.856.741,6.462c.109,1.213.214,2.421.283,3.643s.1,2.446.109,3.678Z" transform="translate(-207.557 -43.036)" fill="#ebebeb"/>
      <path id="Path_4399" data-name="Path 4399" d="M84.848,157.153c.333-2.4-3.057-4.379-5.607-4.583a14.351,14.351,0,0,1-3.624-.313c-2.485-.87-3.479-4.091-5.92-5.115-1.819-.77-3.912-.085-5.676.8s-3.479,1.988-5.468,2.132c-1.715.109-3.574-.527-5.075.308-1.113.626-1.7,1.914-2.729,2.674a6.392,6.392,0,0,1-3.574.964,10.048,10.048,0,0,0-3.678.6,2.91,2.91,0,0,0-1.844,2.953Z" transform="translate(-41.618 -86.311)" fill="#f5f5f5"/>
      <path id="Path_4400" data-name="Path 4400" d="M187.182,60.265c.328-2.4-3.062-4.379-5.607-4.583a14.409,14.409,0,0,1-3.629-.313c-2.485-.87-3.479-4.091-5.92-5.115-1.819-.765-3.912-.085-5.671.8s-3.509,1.988-5.468,2.132c-1.71.109-3.574-.527-5.07.308-1.118.626-1.7,1.914-2.734,2.674a6.387,6.387,0,0,1-3.569.964,10.091,10.091,0,0,0-3.683.6,2.9,2.9,0,0,0-1.839,2.953Z" transform="translate(-93.087 -37.584)" fill="#ebebeb"/>
      <path id="Path_4401" data-name="Path 4401" d="M642.876,128.554c.532-3.857-4.911-7.033-9.007-7.362-1.949-.159-3.977.139-5.826-.5-4.006-1.392-5.607-6.566-9.514-8.216-2.923-1.233-6.288-.134-9.121,1.287s-5.632,3.221-8.793,3.425c-2.754.174-5.746-.845-8.152.5-1.794.994-2.734,3.067-4.389,4.29a10.325,10.325,0,0,1-5.741,1.556,16.208,16.208,0,0,0-5.915.964c-1.829.835-3.34,2.774-2.982,4.747Z" transform="translate(-309.062 -68.778)" fill="#f5f5f5"/>
      <path id="Path_4402" data-name="Path 4402" d="M588.326,62.542a6.571,6.571,0,0,0-1.1-3.788,6.3,6.3,0,0,0-2.928-2.52,5.09,5.09,0,0,0-5.965,1.7,5.1,5.1,0,0,0-1.233-1.859,5.17,5.17,0,0,0-3.807-1.4,6.273,6.273,0,0,0-3.564,1.491,6.567,6.567,0,0,0-2.232,3.251,8,8,0,0,0,.2,5.01,11.279,11.279,0,0,0,3.266,4.22c2.272,1.919,5.274,4.344,5.274,4.344s3.131-1.645,5.885-2.754a11.328,11.328,0,0,0,4.424-2.982,7.993,7.993,0,0,0,1.774-4.712Z" transform="translate(-305.948 -39.97)" fill="#ebebeb"/>
      <path id="Path_4403" data-name="Path 4403" d="M142.913,106.2a5.08,5.08,0,0,0-2.341-1.924,4.851,4.851,0,0,0-2.948-.323,3.917,3.917,0,0,0-3.012,3.653,3.9,3.9,0,0,0-4.608.124,4.822,4.822,0,0,0-1.62,2.485,5.05,5.05,0,0,0,0,3.032,6.159,6.159,0,0,0,2.3,3.087,8.669,8.669,0,0,0,3.9,1.253c2.267.234,5.224.467,5.224.467s1.272-2.4,2.535-4.3a8.674,8.674,0,0,0,1.491-3.808,6.144,6.144,0,0,0-.925-3.748Z" transform="translate(-85.139 -64.708)" fill="#ebebeb"/>
    </g>
    <g id="freepik--Table--inject-188" transform="translate(30.84 248.406)">
      <path id="Path_4404" data-name="Path 4404" d="M372.979,474.479c0,.07-76.6.129-171.059.129s-171.079-.06-171.079-.129,76.583-.129,171.079-.129S372.979,474.4,372.979,474.479Z" transform="translate(-30.84 -474.35)" fill="#263238"/>
    </g>
    <g id="freepik--speech-bubble--inject-188" transform="translate(192.778 42.504)">
      <path id="Path_4405" data-name="Path 4405" d="M377.107,94.2a17,17,0,1,0-5.085.169l2.928,4.439Z" transform="translate(-356.816 -60.294)" fill="#fff"/>
      <path id="Path_4406" data-name="Path 4406" d="M376.92,94.016s-.04.114-.129.318-.229.5-.4.9c-.363.8-.89,1.944-1.561,3.425l-.055.124-.08-.114-2.972-4.429.075.05a17.014,17.014,0,0,1-8.1-3.146,17.436,17.436,0,0,1-1.944-1.64,19.132,19.132,0,0,1-1.735-2.018,16.583,16.583,0,0,1-2.585-5.025,17.169,17.169,0,0,1,10.652-21.374,16.965,16.965,0,0,1,11.224-.035,16.06,16.06,0,0,1,4.782,2.485,16.587,16.587,0,0,1,3.629,3.693l.378.5c.114.179.219.363.323.542.209.363.437.711.626,1.074a18.612,18.612,0,0,1,1.591,4.523c.07.383.119.77.174,1.148l.085.562.025.567a17.767,17.767,0,0,1-.254,4.334,18.077,18.077,0,0,1-1.228,3.807,17.666,17.666,0,0,1-4.006,5.6,16.98,16.98,0,0,1-4.3,2.873,16.035,16.035,0,0,1-3.092,1.074c-.363.084-.641.144-.825.169a2.319,2.319,0,0,1-.293.04,1.751,1.751,0,0,1,.273-.075c.189-.04.472-.109.83-.2a17.621,17.621,0,0,0,3.047-1.133,17.07,17.07,0,0,0,4.225-2.893,17.3,17.3,0,0,0,5.095-9.3,17.736,17.736,0,0,0,.234-4.265l-.01-.542-.085-.552c-.06-.373-.1-.751-.174-1.123a18.34,18.34,0,0,0-.636-2.237,17.581,17.581,0,0,0-.959-2.217c-.189-.358-.413-.7-.616-1.054-.109-.174-.209-.358-.323-.527l-.368-.5a16.4,16.4,0,0,0-3.569-3.614,15.752,15.752,0,0,0-4.687-2.485,16.642,16.642,0,0,0-10.95.124A16.855,16.855,0,0,0,357.778,82.36a16.241,16.241,0,0,0,2.52,4.946,18.445,18.445,0,0,0,1.7,1.988,17.4,17.4,0,0,0,1.9,1.625,16.935,16.935,0,0,0,7.953,3.156h.05l.03.04c1.123,1.73,2.1,3.236,2.9,4.474h-.134l1.645-3.42.427-.87A2.552,2.552,0,0,1,376.92,94.016Z" transform="translate(-356.629 -60.113)" fill="#263238"/>
      <path id="Path_4407" data-name="Path 4407" d="M391.1,87.042a4.171,4.171,0,0,0-.994-2.321,4.011,4.011,0,0,0-2.048-1.377,3.241,3.241,0,0,0-3.643,1.526,3.246,3.246,0,0,0-3.44-1.69,4.016,4.016,0,0,0-2.152,1.208,4.146,4.146,0,0,0-1.168,2.232,5.115,5.115,0,0,0,.5,3.161,7.243,7.243,0,0,0,2.386,2.431c1.586,1.044,3.673,2.356,3.673,2.356s1.864-1.277,3.524-2.192a7.2,7.2,0,0,0,2.58-2.227A5.085,5.085,0,0,0,391.1,87.042Z" transform="translate(-367.169 -71.689)" fill="#9676ff"/>
    </g>
    <g id="freepik--Characters--inject-188" transform="translate(34.135 72.885)">
      <path id="Path_4408" data-name="Path 4408" d="M229.85,450.887l2.789-20.494,59.439-2.833,4.185,23.387Z" transform="translate(-134.225 -275.297)" fill="#263238"/>
      <path id="Path_4409" data-name="Path 4409" d="M341.9,297.55l17.83,19.788c2.943,3.266,5.07,6.238,9.3,7.431,2.982.835,9.206,1.183,10.781-.765,2.162-2.669,3.479-7.287.5-13.093-1.988-3.783-19.276-19.231-19.276-19.231L341.9,297.55" transform="translate(-190.579 -206.957)" fill="#c27461"/>
      <path id="Path_4410" data-name="Path 4410" d="M353.71,285.587c.1.994,4.767,10.707,4.767,10.707l15.31-9.986S363.93,262.9,356.732,261.32Z" transform="translate(-196.519 -191.688)" fill="#9676ff"/>
      <path id="Path_4411" data-name="Path 4411" d="M385.508,224.627l.219-7.456-.5-9.474-1.491-7.883s-.4-.77-1.392-.189-.134,4.886-.134,4.886l.159,3.236s-.587,2.485-.77,2.282-.81-4.573-.81-4.573l-1.809-9.375a1.243,1.243,0,0,0-1.581-.646c-.641.2-1.059,1.133-.994,2.52s.681,3.733.746,4.523.587,5.348.587,5.348l-3.166-10.483s-.587-3.415-1.988-2.923-.472,2.938-.408,3.977,2.108,8.216,1.934,10.2-.5.994-.5.994l-1.491-5.87c-.646-2.59-1.625-4.091-2.749-4.28s.383,5.811.383,5.811l1.9,8.385-.472,2.669-1.869-2.4s-.055-3.146-2.018-4.474-2.485.159-2.485.159l3.663,12.183c.87,1.988,6.487,5.865,6.487,5.865l.994,12.213,12.476-.249Z" transform="translate(-202.101 -158.018)" fill="#c27461"/>
      <path id="Path_4412" data-name="Path 4412" d="M385.7,240.013a13.7,13.7,0,0,1-1.665-1.4,6.664,6.664,0,0,0-4.563-1.889,3.674,3.674,0,0,0-2.257.82l-.209.184-.184-.244c-.8-1.054-1.655-1.988-2.167-2.639s-.8-1.1-.746-1.138a6.743,6.743,0,0,1,.994.93,35.029,35.029,0,0,1,2.376,2.58l-.393-.06a4.051,4.051,0,0,1,2.575-.994,5.647,5.647,0,0,1,2.913.7,9.1,9.1,0,0,1,1.934,1.446A6.542,6.542,0,0,1,385.7,240.013Z" transform="translate(-206.676 -177.802)" fill="#7d4336"/>
      <path id="Path_4413" data-name="Path 4413" d="M388.454,298.991l-2.644-38.01,10.568-3.31,7.67,41.321Z" transform="translate(-212.663 -189.853)" fill="#c27461"/>
      <path id="Path_4414" data-name="Path 4414" d="M323.311,143.53a4.275,4.275,0,0,0,2.286-8.192,4.449,4.449,0,0,0-3.435-7.709,5.324,5.324,0,0,0-7.759-4.817,5.965,5.965,0,0,0-7.352-.577,4.26,4.26,0,0,0-4.16,6.994" transform="translate(-170.409 -121.234)" fill="#263238"/>
      <path id="Path_4415" data-name="Path 4415" d="M310.688,172.553c.333-4.692.239-14.415.05-23.2a18.143,18.143,0,0,0-17.069-17.71l-.934-.055c-10.145,0-15.817,8.609-15.543,18.749l-1.561,39.054,6.149,5.527a11.557,11.557,0,0,0,17.954-3.141h0l.472-8.584S310,182.276,310.688,172.553Z" transform="translate(-157.249 -126.442)" fill="#c27461"/>
      <path id="Path_4416" data-name="Path 4416" d="M312.536,230.9a23.591,23.591,0,0,1-12.516-4.474s2.585,7.173,12.332,6.869Z" transform="translate(-169.516 -174.141)" fill="#7d4336"/>
      <path id="Path_4417" data-name="Path 4417" d="M334.809,182.507a1.392,1.392,0,0,1-1.422,1.322,1.332,1.332,0,0,1-1.357-1.337,1.392,1.392,0,0,1,1.422-1.322,1.332,1.332,0,0,1,1.357,1.337Z" transform="translate(-185.615 -151.378)" fill="#263238"/>
      <path id="Path_4418" data-name="Path 4418" d="M335.947,175.042c-.184.169-1.188-.671-2.679-.756s-2.634.6-2.784.408c-.075-.085.119-.4.616-.721a3.817,3.817,0,0,1,2.242-.552,3.7,3.7,0,0,1,2.122.825C335.9,174.629,336.037,174.963,335.947,175.042Z" transform="translate(-184.83 -147.477)" fill="#263238"/>
      <path id="Path_4419" data-name="Path 4419" d="M307.239,182.507a1.392,1.392,0,0,1-1.422,1.322,1.327,1.327,0,0,1-1.357-1.337,1.387,1.387,0,0,1,1.417-1.322,1.332,1.332,0,0,1,1.362,1.337Z" transform="translate(-171.749 -151.378)" fill="#263238"/>
      <path id="Path_4420" data-name="Path 4420" d="M306.385,173.862c-.184.169-1.188-.671-2.684-.756s-2.629.6-2.779.408c-.08-.089.114-.4.616-.721a3.793,3.793,0,0,1,2.242-.552,3.638,3.638,0,0,1,2.117.825C306.336,173.449,306.475,173.782,306.385,173.862Z" transform="translate(-169.961 -146.883)" fill="#263238"/>
      <path id="Path_4421" data-name="Path 4421" d="M321.52,185.786a9.75,9.75,0,0,1,2.451-.293c.383,0,.751-.075.83-.328a1.989,1.989,0,0,0-.189-1.148q-.457-1.417-.959-2.982c-1.322-4.23-2.252-7.695-2.083-7.744s1.382,3.33,2.7,7.555q.5,1.566.9,2.982a2.2,2.2,0,0,1,.109,1.491.949.949,0,0,1-.656.522,2.6,2.6,0,0,1-.656.05A8.931,8.931,0,0,1,321.52,185.786Z" transform="translate(-180.329 -147.414)" fill="#263238"/>
      <path id="Path_4422" data-name="Path 4422" d="M312.272,200c.244,0,.154,1.625,1.491,2.853s3.057,1.158,3.057,1.387c0,.1-.4.288-1.133.268a4.046,4.046,0,0,1-2.555-1.064A3.514,3.514,0,0,1,312,201.059C311.959,200.368,312.163,200,312.272,200Z" transform="translate(-175.54 -160.848)" fill="#263238"/>
      <path id="Path_4423" data-name="Path 4423" d="M306.466,162.464c-.169.4-1.65.114-3.415.224s-3.211.5-3.42.124c-.094-.179.174-.547.77-.9a5.935,5.935,0,0,1,5.2-.268C306.237,161.937,306.54,162.275,306.466,162.464Z" transform="translate(-169.311 -141.316)" fill="#263238"/>
      <path id="Path_4424" data-name="Path 4424" d="M335.771,166.2c-.283.323-1.292-.089-2.525-.179s-2.3.094-2.52-.278c-.094-.179.09-.5.567-.8a3.653,3.653,0,0,1,4.066.368C335.776,165.683,335.9,166.041,335.771,166.2Z" transform="translate(-184.947 -142.989)" fill="#263238"/>
      <path id="Path_4425" data-name="Path 4425" d="M309.267,143.725s-2.207-6.233-5.055-7.829c-3.45-1.929-5.209,1.879-8.54.736s-6.626-2.982-10.24-.582c-3.977,2.639-2.3,4.752-2.789,9.052-1.988,17.422-5.468,22.179-5.885,13.893-.045-.91-2.485-1.775-2.654-5.607-.189-4.971-.025-10.98,1.287-14.415,1.1-2.9,2.908-4.841,6.064-6.919,4.971-3.271,11.537-2.982,15.961-2.252S310.121,136.125,309.267,143.725Z" transform="translate(-156.449 -125.306)" fill="#263238"/>
      <path id="Path_4426" data-name="Path 4426" d="M274.007,185.808a2.644,2.644,0,0,0-2.7-2.709c-1.819.065-3.9.994-4,4.727-.179,6.656,6.541,5.468,6.556,5.274S273.957,188.592,274.007,185.808Z" transform="translate(-153.061 -152.348)" fill="#c27461"/>
      <path id="Path_4427" data-name="Path 4427" d="M274.788,192.743c-.03,0-.119.08-.318.164a1.183,1.183,0,0,1-.87,0,2.875,2.875,0,0,1-1.258-2.61,3.842,3.842,0,0,1,.373-1.655,1.337,1.337,0,0,1,.895-.865.6.6,0,0,1,.676.338c.085.189.04.318.075.333s.144-.109.1-.388a.76.76,0,0,0-.253-.423.85.85,0,0,0-.636-.184,1.62,1.62,0,0,0-1.238.994,3.977,3.977,0,0,0-.452,1.849,3,3,0,0,0,1.615,2.918,1.238,1.238,0,0,0,1.064-.149C274.768,192.9,274.808,192.758,274.788,192.743Z" transform="translate(-155.363 -154.535)" fill="#7d4336"/>
      <path id="Path_4428" data-name="Path 4428" d="M276.393,143.743a6.627,6.627,0,0,0,2.734,1.491,2.133,2.133,0,0,0,2.485-1.382c.1-.457,0-.994.348-1.342s1.054-.234,1.605-.139a4.245,4.245,0,0,0,4.578-2.779,1.786,1.786,0,0,0,2.376.363,9.431,9.431,0,0,0,1.924-1.829,2.7,2.7,0,0,1,2.346-.994,6.676,6.676,0,0,0,1.427.4c.88-.025,1.362-1.024,1.546-1.879s.348-1.864,1.113-2.291a3.315,3.315,0,0,1,2.381.075c.8.164,1.844.04,2.093-.736a1.586,1.586,0,0,0-.224-1.223,4.315,4.315,0,0,0-4.971-1.929,5.84,5.84,0,0,0-10.647-1.76,5.93,5.93,0,0,0-9.588,1.6,4.295,4.295,0,0,0-5.2,5.965,4.074,4.074,0,0,0-2.431,3.112c-.1,1.377,1.153,2.818,2.485,2.535a2.381,2.381,0,0,0,3.977,2.615" transform="translate(-154.557 -123.146)" fill="#263238"/>
      <path id="Path_4429" data-name="Path 4429" d="M299.046,138v.124a1.626,1.626,0,0,1-.065.353,4.2,4.2,0,0,1-.557,1.253,4.812,4.812,0,0,1-1.566,1.491,4.473,4.473,0,0,1-2.769.616l.124-.139a2.421,2.421,0,0,1-.244,1.824,6.929,6.929,0,0,1-1.233,1.566,5.072,5.072,0,0,1-.79.721,2.322,2.322,0,0,1-1.074.328,2.426,2.426,0,0,1-2.093-.895l.249-.055a4.971,4.971,0,0,1-2.316,3.325,3.619,3.619,0,0,1-2.222.582,6.462,6.462,0,0,1-2.122-.6l.184-.07a5.249,5.249,0,0,1-1.7,1.958,2.794,2.794,0,0,1-2.351.5,3.668,3.668,0,0,1-2.649-3.032l.149.08a3.44,3.44,0,0,1-2.306.2,3.728,3.728,0,0,1-1.551-.8,3.305,3.305,0,0,1-.691-.86,1.277,1.277,0,0,1-.149-.353,3.887,3.887,0,0,0,.915,1.123,3.693,3.693,0,0,0,1.516.736,3.275,3.275,0,0,0,2.172-.229l.129-.065v.144a3.479,3.479,0,0,0,2.51,2.813,2.535,2.535,0,0,0,2.132-.472,5.011,5.011,0,0,0,1.6-1.859l.06-.124.119.055a6.426,6.426,0,0,0,2.033.572,3.365,3.365,0,0,0,2.053-.547,4.742,4.742,0,0,0,2.192-3.132l.06-.313.189.258a2.162,2.162,0,0,0,1.849.785,2.078,2.078,0,0,0,.954-.283,4.914,4.914,0,0,0,.746-.671,6.959,6.959,0,0,0,1.2-1.491,2.2,2.2,0,0,0,.244-1.65l-.045-.164.164.025a4.29,4.29,0,0,0,2.649-.552,4.747,4.747,0,0,0,1.551-1.4,4.935,4.935,0,0,0,.746-1.675Z" transform="translate(-155.077 -129.666)" fill="#455a64"/>
      <path id="Path_4430" data-name="Path 4430" d="M294,285.9l.706-7.078,2.441-25.952c-1.258-1.317-6.308-3.39-6.308-3.39L278.3,244.971s-1.2,3.44-10.647,3.579c-9.633.144-13.624-5.88-13.624-5.88-4.812,1.546-15.324,5.537-15.324,5.537l-3.584,33.761-.184,11.144-2.217,56.755s63.127-2.679,64.071-2.843l-2.56-20.439Z" transform="translate(-135.668 -182.309)" fill="#9676ff"/>
      <path id="Path_4431" data-name="Path 4431" d="M319.55,296.12v13.286l7.227,5.9,7.535-5.845.413-12.963Z" transform="translate(-179.338 -209.191)" opacity="0.3"/>
      <path id="Path_4432" data-name="Path 4432" d="M235.244,374.409l-.184,4.722s39.879-7.227,46.848-10.036a89.976,89.976,0,0,0,13.212-6.407l.144-3.6Z" transform="translate(-136.845 -240.86)" opacity="0.3"/>
      <path id="Path_4433" data-name="Path 4433" d="M227.608,259.52s-8.987,1.436-10.841,12.924c-1.193,7.391-4.807,39.949.134,48.712,5.716,10.12,57.336-6.859,57.336-6.859l1.765-13.1-39.765,2.634-4.971-27.612Z" transform="translate(-126.44 -190.783)" fill="#c27461"/>
      <path id="Path_4434" data-name="Path 4434" d="M212,294.457h25.211l-6.9-42.047s-14.45,2.928-16.338,18.023A228.1,228.1,0,0,0,212,294.457Z" transform="translate(-125.247 -187.207)" fill="#9676ff"/>
      <path id="Path_4435" data-name="Path 4435" d="M218.38,312.718a.44.44,0,0,1,.109,0h.333l1.272-.025,4.7-.04,15.623-.04-.129.144c-.03-.328-.06-.681-.089-1.034-.527-6.343-.994-12.084-1.357-16.264-.159-2.063-.288-3.743-.383-4.931-.035-.567-.07-.994-.089-1.342v-.348a.363.363,0,0,1,0-.119.338.338,0,0,1,.025.119l.04.343c.035.328.085.775.139,1.342.114,1.183.273,2.858.467,4.921.368,4.18.875,9.916,1.432,16.259.03.353.06.7.089,1.029v.139h-.139l-15.623-.04-4.7-.04-1.272-.025h-.333A.262.262,0,0,0,218.38,312.718Z" transform="translate(-128.456 -205.469)" fill="#263238"/>
      <path id="Path_4436" data-name="Path 4436" d="M357.813,285.58a4.823,4.823,0,0,1,0,.86c0,.552-.045,1.352-.089,2.336-.1,1.988-.308,4.7-.591,7.695s-.587,5.711-.825,7.675c-.119.994-.219,1.77-.3,2.316a5.069,5.069,0,0,1-.149.845,5.758,5.758,0,0,1,.05-.855c.055-.591.129-1.377.219-2.326.194-1.988.457-4.7.746-7.68s.547-5.686.681-7.675c.07-.949.129-1.74.169-2.331A6.836,6.836,0,0,1,357.813,285.58Z" transform="translate(-197.599 -203.89)" fill="#263238"/>
      <path id="Path_4437" data-name="Path 4437" d="M253.738,267.366a1.989,1.989,0,0,1-.283-.467c-.194-.363-.427-.8-.706-1.312a20.491,20.491,0,0,0-2.7-4.041,9.4,9.4,0,0,0-3.977-2.664,11.064,11.064,0,0,0-1.988-.373,1.832,1.832,0,0,1,.547-.035,5.778,5.778,0,0,1,1.491.229,9.091,9.091,0,0,1,4.121,2.669,18.092,18.092,0,0,1,2.674,4.131c.278.567.5,1.029.631,1.352a2.335,2.335,0,0,1,.194.512Z" transform="translate(-141.382 -190.253)" fill="#263238"/>
      <path id="Path_4438" data-name="Path 4438" d="M256.578,318.339c-.045-.249,4.359-1.322,4.359-1.322l-3.226-20.877,1.745,20.31H256.23Z" transform="translate(-147.492 -209.201)" opacity="0.3"/>
      <path id="Path_4439" data-name="Path 4439" d="M376.538,344.585l-.78,10.732-3.564,4.474-8.723,11.577,10.568.691s12.392-3.082,14.216-6.9,1.934-20.588,1.934-20.588Z" transform="translate(-201.427 -233.558)" fill="#ffcfb4"/>
      <path id="Path_4440" data-name="Path 4440" d="M462.366,211.583l.6-41.753c.383-9.941-4.558-18.531-14.5-18.64l-.915.045a17.77,17.77,0,0,0-16.9,17.159c-.283,8.614-.5,18.138-.214,22.736.547,9.524,10.155,10.553,10.155,10.553,0,.293,0,2.664-.055,5.5v4.732Z" transform="translate(-235.039 -136.3)" fill="#ffcfb4"/>
      <path id="Path_4441" data-name="Path 4441" d="M450.925,248.465a23.067,23.067,0,0,0,12.228-4.255s-2.694,7.1-12.243,6.7Z" transform="translate(-245.404 -183.083)" fill="#ff9d64"/>
      <path id="Path_4442" data-name="Path 4442" d="M462.215,193.9c.209.06,1.173-.636,2.724-.994s2.808-.2,2.948-.343-.169-.209-.721-.293a6.751,6.751,0,0,0-2.4.149,6,6,0,0,0-2.127.925C462.225,193.65,462.116,193.879,462.215,193.9Z" transform="translate(-251.073 -156.939)" fill="#263238"/>
      <path id="Path_4443" data-name="Path 4443" d="M465.34,200.271a1.292,1.292,0,0,0,1.322,1.233,1.233,1.233,0,0,0,1.272-1.223,1.287,1.287,0,0,0-1.3-1.243,1.233,1.233,0,0,0-1.292,1.233Z" transform="translate(-252.661 -160.364)" fill="#263238"/>
      <path id="Path_4444" data-name="Path 4444" d="M450.546,204.142a9.661,9.661,0,0,0-2.4-.318c-.373,0-.731-.075-.805-.328a1.879,1.879,0,0,1,.194-1.118c.308-.925.631-1.889.994-2.9,1.342-4.126,2.3-7.511,2.127-7.565s-1.392,3.251-2.734,7.376L447,202.2a2.2,2.2,0,0,0-.124,1.491.944.944,0,0,0,.641.5,2.535,2.535,0,0,0,.641.055A9.29,9.29,0,0,0,450.546,204.142Z" transform="translate(-243.335 -156.779)" fill="#263238"/>
      <path id="Path_4445" data-name="Path 4445" d="M464.59,181.306c.144.358,1.427.124,2.948.239s2.769.5,2.982.154c.08-.159-.149-.5-.661-.82a4.971,4.971,0,0,0-4.474-.3C464.789,180.839,464.526,181.137,464.59,181.306Z" transform="translate(-252.28 -150.883)" fill="#263238"/>
      <path id="Path_4446" data-name="Path 4446" d="M433.993,186.431c.159.293,1.412,0,2.918,0s2.749.219,2.918-.08c.07-.139-.169-.408-.691-.646a5.255,5.255,0,0,0-2.217-.427,5.433,5.433,0,0,0-2.227.5C434.186,186.019,433.938,186.292,433.993,186.431Z" transform="translate(-236.892 -153.443)" fill="#263238"/>
      <path id="Path_4447" data-name="Path 4447" d="M494.9,202.863c.169-.075,6.835-2.182,6.765,4.667s-6.934,5.363-6.959,5.169S494.9,202.863,494.9,202.863Z" transform="translate(-267.431 -162.105)" fill="#ffcfb4"/>
      <path id="Path_4448" data-name="Path 4448" d="M499,212.369c.035,0,.119.084.323.179a1.178,1.178,0,0,0,.89.03,2.952,2.952,0,0,0,1.392-2.634,3.947,3.947,0,0,0-.313-1.71,1.382,1.382,0,0,0-.89-.93.611.611,0,0,0-.706.323c-.094.189-.05.328-.089.338s-.144-.119-.085-.4a.74.74,0,0,1,.273-.427.89.89,0,0,1,.661-.169,1.67,1.67,0,0,1,1.233,1.079,3.976,3.976,0,0,1,.393,1.909,3.094,3.094,0,0,1-1.77,2.943,1.277,1.277,0,0,1-1.089-.194C499,212.533,499,212.379,499,212.369Z" transform="translate(-269.59 -164.35)" fill="#ff9d64"/>
      <path id="Path_4449" data-name="Path 4449" d="M434.275,193.913c.149.154,1.322.08,2.838.577s2.515,1.268,2.7,1.218c.089,0-.04-.254-.472-.6a7.118,7.118,0,0,0-2.137-1.1,6.228,6.228,0,0,0-2.287-.333C434.4,193.714,434.2,193.834,434.275,193.913Z" transform="translate(-237.03 -157.664)" fill="#263238"/>
      <path id="Path_4450" data-name="Path 4450" d="M438,199.962a1.292,1.292,0,0,0,1.307,1.243,1.228,1.228,0,0,0,1.267-1.223,1.287,1.287,0,0,0-1.3-1.243A1.233,1.233,0,0,0,438,199.962Z" transform="translate(-238.911 -160.214)" fill="#263238"/>
      <path id="Path_4451" data-name="Path 4451" d="M405.445,153.73a1.516,1.516,0,0,1,.746-.88,4.682,4.682,0,0,1,2.436-.333,13.709,13.709,0,0,0,5.965-1.342,6.774,6.774,0,0,1-1.72-1.272,4.08,4.08,0,0,1-1.069-4.081.919.919,0,0,1,.527-.611c.423-.114.785.308,1.069.641a3.521,3.521,0,0,0,3.266,1.491,5.776,5.776,0,0,0,2.485-.671l.085-.085c.348-.343.686-.666.994-.994h0a21.52,21.52,0,0,1,6.835-4.807,22.116,22.116,0,0,1,11.8-.626c3.281.949,6.188,3.713,6.561,7.108,1.894-1.521,4.677-1.437,6.909-.467l.06-.025c2.485.959,3.852,3.653,4.528,6.238.04.139.07.283.1.423a9.986,9.986,0,0,0,3.3,3.395c.239.144.5.328.537.606s-.219.5-.452.661a5.011,5.011,0,0,1-2.053.79,11.223,11.223,0,0,0,.785,1.789c.273.5.6,1.074.333,1.566a1.054,1.054,0,0,1-1.118.457,3.062,3.062,0,0,1-1.158-.562l.79,2.038a5.965,5.965,0,0,1-2.734-.253,66,66,0,0,1-1.934,7.038c-1.054-.03-2.043-.3-2.7.268-.9.765-1.332,2.247-2.784,1.645-.736-.308-1.377-1.889-1.606-2.654a37.106,37.106,0,0,1-1.208-15.737,11.846,11.846,0,0,0-3.539-2.744l.109.1c-2.629-.994-5.612-1.988-8.162-.79-1.988.915-3.181,2.913-4.682,4.474a14.082,14.082,0,0,1-10.409,4.662c-.447,2.858-.234,6.507-.437,9.176l-2.366-4.379h0a10.565,10.565,0,0,1-.462-.959l-.05-.1h0a15.292,15.292,0,0,0-.711-1.541h0a1.671,1.671,0,0,1-2.386-2.3,3.772,3.772,0,0,1,.825-.79,2.654,2.654,0,0,1-2.535.587A2.073,2.073,0,0,1,408.8,157.8a1.77,1.77,0,0,1,1.084-1.392,5.965,5.965,0,0,1-3.37-.83A1.662,1.662,0,0,1,405.445,153.73Z" transform="translate(-222.51 -130.484)" fill="#263238"/>
      <path id="Path_4452" data-name="Path 4452" d="M480,157.05a7.561,7.561,0,0,1,.934.895,6.82,6.82,0,0,1,1.377,3.191,12.317,12.317,0,0,1,.184,2.421c0,.88-.114,1.814-.209,2.8a25.2,25.2,0,0,0-.149,3.117,11.146,11.146,0,0,0,.174,1.65,3.48,3.48,0,0,0,.626,1.611,1.442,1.442,0,0,0,1.332.5,2.167,2.167,0,0,0,1.223-.651,4.97,4.97,0,0,0,.994-2.4h-.2a7.907,7.907,0,0,0,1.1,2.018,2.808,2.808,0,0,0,1.824,1.054,1.829,1.829,0,0,0,.994-.144,1.575,1.575,0,0,0,.681-.641,1.6,1.6,0,0,0,.224-.835,1.178,1.178,0,0,0-.283-.746l-.1.085a6.1,6.1,0,0,0,1.988,1.586c.268.129.5.209.626.263a1.248,1.248,0,0,0,.224.06.939.939,0,0,0-.209-.094c-.144-.065-.348-.154-.606-.293a6.288,6.288,0,0,1-1.934-1.605l-.1.089a1.208,1.208,0,0,1,.03,1.412,1.447,1.447,0,0,1-.616.567,1.69,1.69,0,0,1-.895.119,2.639,2.639,0,0,1-1.69-.994,7.819,7.819,0,0,1-1.064-1.988l-.129-.308-.075.328a4.688,4.688,0,0,1-.93,2.286,1.889,1.889,0,0,1-1.094.582,1.2,1.2,0,0,1-1.133-.408,3.32,3.32,0,0,1-.582-1.491,11.141,11.141,0,0,1-.169-1.615,25.911,25.911,0,0,1,.134-3.087c.089-.994.174-1.929.189-2.813a11.862,11.862,0,0,0-.214-2.455,6.736,6.736,0,0,0-1.491-3.216,3.8,3.8,0,0,0-.984-.845Z" transform="translate(-260.035 -139.247)" fill="#455a64"/>
      <path id="Path_4453" data-name="Path 4453" d="M420.33,159.965l.075.065.229.179a3.624,3.624,0,0,0,.4.268,4.905,4.905,0,0,0,.572.318,8.415,8.415,0,0,0,4.031.835,10.776,10.776,0,0,0,5.791-1.988,18.634,18.634,0,0,0,5.07-5.557c.721-1.133,1.312-2.3,1.963-3.37a12.615,12.615,0,0,1,2.2-2.843,6.551,6.551,0,0,1,2.779-1.591,4.557,4.557,0,0,1,1.451-.129,5.089,5.089,0,0,1,1.317.288,5.468,5.468,0,0,1,1.949,1.243,5.584,5.584,0,0,1,1.039,1.417,6.723,6.723,0,0,1,.452,1.437s0-.03,0-.1a.954.954,0,0,0-.035-.288,4.9,4.9,0,0,0-.333-1.084,5.466,5.466,0,0,0-1.029-1.491,5.577,5.577,0,0,0-1.988-1.3,5.356,5.356,0,0,0-1.357-.313,4.882,4.882,0,0,0-1.491.124,6.632,6.632,0,0,0-2.878,1.62,12.8,12.8,0,0,0-2.247,2.878c-.656,1.079-1.248,2.242-1.963,3.365a18.689,18.689,0,0,1-5,5.507,10.727,10.727,0,0,1-5.681,1.988,8.564,8.564,0,0,1-4.006-.756,14.143,14.143,0,0,1-1.3-.721Z" transform="translate(-230.024 -133.662)" fill="#455a64"/>
      <path id="Path_4454" data-name="Path 4454" d="M418.8,165.7a3.093,3.093,0,0,0,.333.249,7.955,7.955,0,0,0,.994.537,9.94,9.94,0,0,0,1.586.567,10.262,10.262,0,0,0,5.736-.144,7.734,7.734,0,0,0,1.049-.422,1.491,1.491,0,0,0,.363-.209c0-.035-.552.219-1.456.5a10.619,10.619,0,0,1-1.625.328,12.619,12.619,0,0,1-2.018.07,12.427,12.427,0,0,1-1.988-.3,11.316,11.316,0,0,1-1.576-.5C419.322,165.976,418.82,165.663,418.8,165.7Z" transform="translate(-229.255 -143.595)" fill="#455a64"/>
      <path id="Path_4455" data-name="Path 4455" d="M459.162,221.5s-3.479.994-4.782,1.491l.527,1.491a2.411,2.411,0,0,0,3.256,1.392,2.485,2.485,0,0,0,.8-.616,2.406,2.406,0,0,0,.547-1.69,13.579,13.579,0,0,0-.348-2.068Z" transform="translate(-247.149 -171.661)" fill="#ff9d64"/>
      <path id="Path_4456" data-name="Path 4456" d="M454.349,222.674a27.049,27.049,0,0,1,4.712-1.715l.249-.08.055.263a.177.177,0,0,0,.025.109,11.37,11.37,0,0,1,.313,1.988,2.351,2.351,0,0,1-.5,1.645c-.656.78-1.337.825-1.327.78a3.321,3.321,0,0,0,1.049-.994c.577-.711.313-1.988,0-3.35a.185.185,0,0,0-.025-.114l.3.184A25.253,25.253,0,0,1,454.349,222.674Z" transform="translate(-247.133 -171.35)" fill="#263238"/>
      <path id="Path_4457" data-name="Path 4457" d="M397.576,364.9l67.471-.313-3.723-57.391-.278-17.109-3.977-31.007-15.076-3.236s-3.773,6.959-13.421,6.79c-9.419-.139-9.116-4.146-9.116-4.146l-16.02,6.014s-8.778,4.275-10.389,8.415c-1.571,4.036-4.608,27.234-4.608,27.234l13.813-.169L401.026,343.9Z" transform="translate(-213.986 -188.932)" fill="#455a64"/>
      <path id="Path_4458" data-name="Path 4458" d="M416.475,303.69a1.262,1.262,0,0,1,.035.3c0,.229.03.5.05.87.035.751.07,1.844.075,3.191,0,2.7-.045,6.422-.169,10.533s-.293,7.834-.432,10.528c-.075,1.317-.134,2.4-.179,3.186-.03.353-.05.641-.065.865a1.254,1.254,0,0,1-.045.3,2.032,2.032,0,0,1,0-.3v-.87l.1-3.191c.094-2.724.219-6.427.358-10.523s.214-7.834.244-10.528v-4.056A1.308,1.308,0,0,1,416.475,303.69Z" transform="translate(-227.715 -212.998)" fill="#263238"/>
      <path id="Path_4459" data-name="Path 4459" d="M525.62,263.19s6.785.716,10.438,5.468c3.345,4.379,9.787,18.163,9.618,18.5s-15.2,10.185-15.2,10.185l-3.708-6.84Z" transform="translate(-282.978 -192.629)" fill="#455a64"/>
      <path id="Path_4460" data-name="Path 4460" d="M532.26,276.81a.87.87,0,0,1,.04.263c0,.2.035.447.06.751.055.651.109,1.6.164,2.769.114,2.336.2,5.572.258,9.141s.109,6.8.179,9.141c.035,1.138.06,2.078.08,2.769v.751a.9.9,0,0,1,0,.263,1.277,1.277,0,0,1-.035-.258c0-.2-.04-.447-.065-.751-.05-.656-.1-1.6-.164-2.769-.114-2.336-.2-5.572-.254-9.141s-.114-6.8-.184-9.141c-.03-1.138-.06-2.078-.079-2.769v-.751A.887.887,0,0,1,532.26,276.81Z" transform="translate(-286.313 -199.479)" fill="#263238"/>
      <path id="Path_4461" data-name="Path 4461" d="M343.28,388.792s2.237,1.491,3.639,1.312,6-1.312,6-1.312.094.408,1.312,1.327,8.619,2.137,11.711,1.765a48.865,48.865,0,0,0,8.341-2.341l-1.576-8.863-13.918,2.2-15.5,3.569v2.346Z" transform="translate(-191.273 -251.719)" fill="#824e44"/>
      <path id="Path_4462" data-name="Path 4462" d="M351.915,371.768s-1.218,5.343-.562,6.094,1.491.935,1.949-.094a46.1,46.1,0,0,0,1.332-4.7l.562-1.3s-.751,8.808.746,9.28a3.136,3.136,0,0,0,2.346,0s2.982,2.247,3.186-1.312a50.93,50.93,0,0,1,1.272-7.953l.7-1.158v1.988s-1.581,4.682-.7,5.338,1.819,1.128,2.381.378a56.089,56.089,0,0,0,3.753-8.162s1.755,2.535,4.205,2.57c1.924.025,3.042-.8,2.257-1.988a8.8,8.8,0,0,0-2.719-2.2l-2.53-5.91-6.183-1.446h-7.028Z" transform="translate(-195.236 -241.917)" fill="#ffcfb4"/>
      <path id="Path_4463" data-name="Path 4463" d="M332.49,367.96s5.91,3.519,8.629,4.175,17.288-1.934,17.139-2.853-2.053-1.74-3.365-1.929-5.155-.845-5.155-.845h10.309l4.971,3.141s1.765-.711,1.193-2.147c-.3-.765-4.19-3.8-4.19-3.8l-9.444-1.874L335.8,361.17Z" transform="translate(-185.846 -241.907)" fill="#ffbf9d"/>
      <path id="Path_4464" data-name="Path 4464" d="M340.814,343.07s16.771,2.813,17.149,3.281,4.682,5.338,4.682,5.338,6.462,2.227,5.627,3.658-2.719.562-2.719.562,2.624,4.121,1.407,4.971-2.53.278-3.479-.939-3.653-5.716-3.653-5.716,2.247,9.186,1.123,9.469A2.732,2.732,0,0,1,357.3,361.7a25.291,25.291,0,0,1-.939-3.658l-3.559-5.9s1.407,10.781.562,11.666c0,0-2.157.7-2.9-1.173s-1.785-6.159-1.785-6.159l-1.779-4.712-.184,2.982s1.491,5.527.562,5.9a2.262,2.262,0,0,1-2.813-1.263,20.381,20.381,0,0,1-1.685-3.977c-.184-.731-1.178-3.226-1.178-3.226l-3.564-.467Z" transform="translate(-188.633 -232.803)" fill="#c27461"/>
      <path id="Path_4465" data-name="Path 4465" d="M385.18,357.53a26.727,26.727,0,0,1,2.222,2.938,25.7,25.7,0,0,1,2.013,3.082,26.207,26.207,0,0,1-2.222-2.933A25.509,25.509,0,0,1,385.18,357.53Z" transform="translate(-212.346 -240.076)" fill="#7d4336"/>
      <path id="Path_4466" data-name="Path 4466" d="M373.93,351.29a4.473,4.473,0,0,1,.785.939,24.649,24.649,0,0,1,1.581,2.485q.712,1.291,1.292,2.649a5.177,5.177,0,0,1,.418,1.153,6.11,6.11,0,0,1-.582-1.074c-.338-.676-.8-1.6-1.357-2.6s-1.094-1.884-1.491-2.515a7.374,7.374,0,0,1-.646-1.039Z" transform="translate(-206.688 -236.938)" fill="#7d4336"/>
      <path id="Path_4467" data-name="Path 4467" d="M364,352.287a1.508,1.508,0,0,1,.592.472,4.474,4.474,0,0,1,.89,1.591,8.267,8.267,0,0,1,.368,1.77,2.128,2.128,0,0,1,0,.751,2.375,2.375,0,0,1-.2-.721,14.529,14.529,0,0,0-.427-1.72,5.7,5.7,0,0,0-.785-1.556C364.184,352.511,364,352.322,364,352.287Z" transform="translate(-201.694 -237.438)" fill="#7d4336"/>
      <path id="Path_4468" data-name="Path 4468" d="M352,353.314c0-.03.258.05.6.288a3.381,3.381,0,0,1,1.044,1.238,3.331,3.331,0,0,1,.348,1.586,1.218,1.218,0,0,1-.134.656A4.325,4.325,0,0,0,352,353.314Z" transform="translate(-195.659 -237.952)" fill="#7d4336"/>
      <path id="Path_4469" data-name="Path 4469" d="M414.64,377.79c1.193,0,46.759-3.345,46.759-3.345l16.05-3.32-3.976-17.795-58.738,18.888Z" transform="translate(-227.163 -237.964)" opacity="0.3"/>
      <path id="Path_4470" data-name="Path 4470" d="M402.48,347.844l42.181-9.693s38.4-22.368,38.99-22.746-2.982,22.746-2.982,22.746-24.46,12.889-31.5,14.559c-3.837.91-46.386,4.474-46.386,4.474Z" transform="translate(-221.047 -218.888)" fill="#824e44"/>
      <path id="Path_4471" data-name="Path 4471" d="M565.741,188.965c2.6-2.8,8.947-2.316,10.438-.442a4.841,4.841,0,0,1,6.313,2.187l6.74,1.541a7.03,7.03,0,0,1,3.231,1.342,2.412,2.412,0,0,1,.537,3.156,3.673,3.673,0,0,1,1.491,5.885,2.565,2.565,0,0,1-.418,3.7,25.519,25.519,0,0,1,4.275,7.56,5.2,5.2,0,0,1,.3,3.564c-.437,1.138-1.943,1.909-2.923,1.188a2.982,2.982,0,0,1,.109,3.236c1.143.04,1.466,1.809.671,2.629a4.171,4.171,0,0,1-3.211.86,5.467,5.467,0,0,0-3.325.537,1.034,1.034,0,0,0,.368.726,4.7,4.7,0,0,1,.994,6.412c-.139.189-.268.363-.378.522a10.266,10.266,0,0,1-3.345,2.3c-2.595,1.322-4.131,1.054-7.019,1.441.771,1.869-3.977,5.965-9.275,1.844a104.761,104.761,0,0,1-29.53,3.688c-1.581,0-3.479-.244-4.165-1.665a3.924,3.924,0,0,1-3.6-1.218,11.594,11.594,0,0,1-2.088-3.36,6.889,6.889,0,0,1-4.9-6.253,8.5,8.5,0,0,1-3.146-6.084,4.988,4.988,0,0,1-2.8-6.765,30.119,30.119,0,0,1,3.375-9.3c-1.8-.408-2.485-2.858-1.7-4.548s2.416-2.764,3.976-3.743c-1.357.343-2.52-1.367-2.187-2.729a5.257,5.257,0,0,1,2.784-2.982,25.58,25.58,0,0,1,5.637-2.451c.666-2.376,3.743-5.065,5.965-6.1,9.047-4.17,15.369-5.189,26.762,3.33" transform="translate(-280.462 -152.055)" fill="#263238"/>
      <path id="Path_4472" data-name="Path 4472" d="M559.3,216.755c.78-6.193,5.373-13.57,11.527-12.526l19.043,6.089a3.658,3.658,0,0,1,3.032,3.9l-3.231,41.41a11.383,11.383,0,0,1-9.941,10.413h0a11.388,11.388,0,0,1-12.779-11.517c.055-2.848.084-4.971.084-4.971s-7.864-1.809-8.863-12.277C557.655,232.07,558.436,223.635,559.3,216.755Z" transform="translate(-299.267 -162.925)" fill="#824e44"/>
      <path id="Path_4473" data-name="Path 4473" d="M567.606,245.316a1.327,1.327,0,0,0,1.2,1.417,1.277,1.277,0,0,0,1.446-1.113,1.342,1.342,0,0,0-1.2-1.422,1.278,1.278,0,0,0-1.446,1.118Z" transform="translate(-304.093 -183.071)" fill="#263238"/>
      <path id="Path_4474" data-name="Path 4474" d="M563.733,237.34c.154.184,1.208-.5,2.639-.408s2.431.875,2.6.711c.08-.075-.07-.4-.5-.761a3.668,3.668,0,0,0-2.068-.78,3.524,3.524,0,0,0-2.113.542C563.827,236.953,563.658,237.256,563.733,237.34Z" transform="translate(-302.138 -179.002)" fill="#263238"/>
      <path id="Path_4475" data-name="Path 4475" d="M594,246.421a1.332,1.332,0,0,0,1.2,1.422,1.277,1.277,0,0,0,1.446-1.113,1.332,1.332,0,0,0-1.2-1.422A1.277,1.277,0,0,0,594,246.421Z" transform="translate(-317.366 -183.629)" fill="#263238"/>
      <path id="Path_4476" data-name="Path 4476" d="M591.983,239.634c.154.184,1.213-.5,2.639-.4s2.436.87,2.6.706c.08-.075-.065-.4-.5-.756a3.628,3.628,0,0,0-2.068-.78,3.479,3.479,0,0,0-2.113.537C592.077,239.251,591.908,239.555,591.983,239.634Z" transform="translate(-316.346 -180.157)" fill="#263238"/>
      <path id="Path_4477" data-name="Path 4477" d="M576.628,249.569a9.314,9.314,0,0,0-2.3-.567c-.363-.06-.7-.154-.751-.408a1.878,1.878,0,0,1,.313-1.069l1.253-2.714c1.745-3.862,3.032-7.053,2.878-7.123s-1.7,3.012-3.445,6.874l-1.208,2.734a2.113,2.113,0,0,0-.278,1.422.9.9,0,0,0,.567.572,2.256,2.256,0,0,0,.616.124A9.5,9.5,0,0,0,576.628,249.569Z" transform="translate(-306.842 -179.803)" fill="#263238"/>
      <path id="Path_4478" data-name="Path 4478" d="M576.12,292.638a26.408,26.408,0,0,0,14.112-2.838s-3.813,6.909-14.122,5.294Z" transform="translate(-308.372 -206.012)" fill="#5b342f"/>
      <path id="Path_4479" data-name="Path 4479" d="M591.465,228.059c.114.4,1.556.3,3.221.606s2.982.85,3.241.5c.109-.164-.1-.542-.631-.954a5.706,5.706,0,0,0-4.921-.855C591.728,227.562,591.415,227.856,591.465,228.059Z" transform="translate(-316.092 -174.493)" fill="#263238"/>
      <path id="Path_4480" data-name="Path 4480" d="M565.351,227.41c.234.338,1.238.065,2.426.124s2.172.353,2.426.025c.109-.159-.03-.5-.447-.825a3.509,3.509,0,0,0-3.907-.124C565.411,226.918,565.252,227.246,565.351,227.41Z" transform="translate(-302.946 -173.963)" fill="#263238"/>
      <path id="Path_4481" data-name="Path 4481" d="M551.043,217.731a7.128,7.128,0,0,1,1.8-4.439,26.091,26.091,0,0,0,1.954-1.819c1.193-1.516,1.069-3.648,1.6-5.5a7.819,7.819,0,0,1,4.946-5.184c1.958-.661,4.16-.532,6-1.491,1.362-.7,2.411-1.919,3.813-2.53,2.729-1.193,5.845.254,8.375,1.819.5,2.038-.845,3.773-2.113,5.438a7.262,7.262,0,0,1-5.388,2.818c-1.62.07-3.509-.333-4.668.805s-.79,3.345-1.8,4.722c-1.441,1.988-4.633,1.158-6.76,2.351-1.64.925-2.361,2.858-3.211,4.543s-2.291,3.425-4.175,3.305A21.045,21.045,0,0,1,551.043,217.731Z" transform="translate(-295.757 -159)" fill="#263238"/>
      <path id="Path_4482" data-name="Path 4482" d="M600.1,208.21a36.9,36.9,0,0,1,13.868,2.754,6.7,6.7,0,0,1,3.38,2.421,6.53,6.53,0,0,1,.661,3.609c-.114,3.887-1.76,8.614-3.305,12.183l-4.9,2.818c-3.723-.949-1.894-7.371-1.655-10.6a7.625,7.625,0,0,1-4.359-6.825A8.45,8.45,0,0,1,600.1,208.21Z" transform="translate(-320.437 -164.977)" fill="#263238"/>
      <path id="Path_4483" data-name="Path 4483" d="M619.524,251.156c.184-2.222,2.923-2.6,4.812-1.427,1.039.646,1.8,1.9,1.63,4.26-.5,6.288-6.686,4.518-6.686,4.339S619.3,253.756,619.524,251.156Z" transform="translate(-330.084 -185.531)" fill="#824e44"/>
      <path id="Path_4484" data-name="Path 4484" d="M623.5,258.24c.03,0,.1.089.283.184a1.068,1.068,0,0,0,.815.08,2.72,2.72,0,0,0,1.437-2.336,3.615,3.615,0,0,0-.189-1.591,1.272,1.272,0,0,0-.76-.9.567.567,0,0,0-.671.253c-.094.169-.065.3-.1.308s-.129-.119-.06-.373a.741.741,0,0,1,.278-.378.85.85,0,0,1,.616-.114,1.556,1.556,0,0,1,1.074,1.064,3.718,3.718,0,0,1,.249,1.779,2.851,2.851,0,0,1-1.8,2.595,1.173,1.173,0,0,1-.994-.244C623.5,258.394,623.477,258.25,623.5,258.24Z" transform="translate(-332.203 -187.684)" fill="#5b342f"/>
      <path id="Path_4485" data-name="Path 4485" d="M615.176,239.153a5.038,5.038,0,0,0,.994-.045,3.8,3.8,0,0,0,1.108-.313l-.075-.04a3.131,3.131,0,0,0,4.971,2.073h-.109a1.317,1.317,0,0,0,.815.567,1.809,1.809,0,0,0,1.024-.07,1.641,1.641,0,0,0,.83-.651,2.2,2.2,0,0,0,.338-1.029,3.256,3.256,0,0,0-.646-2.113,9.637,9.637,0,0,0-1.63-1.645v.149a2.212,2.212,0,0,0,1.024-1.491,3.226,3.226,0,0,0-.149-1.859A4.887,4.887,0,0,0,622.6,231.1a14.483,14.483,0,0,0-1.491-1.282v.139a2.366,2.366,0,0,0,.651-1.814,3.479,3.479,0,0,0-.676-1.884,8.426,8.426,0,0,0-3.032-2.192l.05.109a4.18,4.18,0,0,0-4.474-5.239l.094.109a3.6,3.6,0,0,0-.8-3.077,3.539,3.539,0,0,0-2.639-1.352l.08.08a3.529,3.529,0,0,0-1.382-2.769,3.445,3.445,0,0,0-2.615-.775l.07.065a3.479,3.479,0,0,0-.5-1.625,4.52,4.52,0,0,0-.935-1.168,3.614,3.614,0,0,0-2.137-.969h-.457a3.159,3.159,0,0,0-.4.04,3.627,3.627,0,0,0-.606.159l-.353.144-.114.05.124-.035.358-.129a4.377,4.377,0,0,1,.6-.139,2.421,2.421,0,0,1,.393-.03h.219l.229.025a3.534,3.534,0,0,1,2.078.969,4.356,4.356,0,0,1,.9,1.153,3.426,3.426,0,0,1,.452,1.566v.075h.07a3.335,3.335,0,0,1,2.515.76,3.4,3.4,0,0,1,1.307,2.654v.08h.08a3.589,3.589,0,0,1,3.261,4.23l-.03.124h.124a3.977,3.977,0,0,1,4.3,4.981v.075l.065.035a8.484,8.484,0,0,1,2.982,2.142,3.216,3.216,0,0,1,.641,1.775,2.187,2.187,0,0,1-.6,1.67l-.079.075.084.065a7.532,7.532,0,0,1,2.485,2.8,3.062,3.062,0,0,1,.139,1.75,2.033,2.033,0,0,1-.934,1.357l-.109.065.094.085a9.088,9.088,0,0,1,1.606,1.606,3.047,3.047,0,0,1,.626,1.988,1.7,1.7,0,0,1-1.059,1.551,1.382,1.382,0,0,1-1.655-.427l-.045-.07-.065.045a3.042,3.042,0,0,1-3.176.249,3.087,3.087,0,0,1-1.581-2.217v-.075l-.065.035a3.7,3.7,0,0,1-1.074.313,4.969,4.969,0,0,1-.994.06,3.807,3.807,0,0,1-1.531-.323,1.427,1.427,0,0,1-.716-.626c-.1-.2-.114-.318-.124-.313v.085a.925.925,0,0,0,.084.239,1.427,1.427,0,0,0,.716.666" transform="translate(-320.86 -164.595)" fill="#455a64"/>
      <path id="Path_4486" data-name="Path 4486" d="M638.467,228.053a1.991,1.991,0,0,0,.244-.378,3.246,3.246,0,0,0-.124-3.221,3.345,3.345,0,0,0-2.257-1.491l.055.075a4.3,4.3,0,0,0-.5-3.112,4.21,4.21,0,0,0-1.208-1.332,10.107,10.107,0,0,0-1.71-.84,3.528,3.528,0,0,1-.815-.5,2.231,2.231,0,0,1-.562-.785c-.268-.606-.343-1.322-.686-1.988a3.827,3.827,0,0,0-3.8-1.988l.109.109a5.04,5.04,0,0,0-5.468-5.811l.1.1a4.429,4.429,0,0,0-6.815-4.255h.1a5.965,5.965,0,0,0-2.172-1.377,9.106,9.106,0,0,0-2.252-.562,10.617,10.617,0,0,0-3.733.189,7.485,7.485,0,0,0-2.232.885,3.98,3.98,0,0,0-.522.363,1.6,1.6,0,0,0-.164.134s.234-.174.711-.457a7.788,7.788,0,0,1,2.227-.835,10.647,10.647,0,0,1,3.7-.149,9.236,9.236,0,0,1,2.212.567,5.87,5.87,0,0,1,2.058,1.4l.045.05.06-.035a4.255,4.255,0,0,1,6.536,4.1v.119h.119A4.856,4.856,0,0,1,627,212.619v.124h.129a3.648,3.648,0,0,1,3.614,1.864c.323.611.4,1.322.686,1.963a2.394,2.394,0,0,0,.611.845,3.48,3.48,0,0,0,.855.5,10.252,10.252,0,0,1,1.69.82,4.021,4.021,0,0,1,1.168,1.277,4.174,4.174,0,0,1,.522,3.012v.065h.065a3.246,3.246,0,0,1,2.192,1.422,3.122,3.122,0,0,1,.5,1.924,3.3,3.3,0,0,1-.318,1.228C638.551,227.923,638.462,228.048,638.467,228.053Z" transform="translate(-322.429 -161.16)" fill="#455a64"/>
      <path id="Path_4487" data-name="Path 4487" d="M548.248,228.878a.626.626,0,0,0,.035-.5,1.257,1.257,0,0,0-.363-.527,2.127,2.127,0,0,0-.77-.4,3.757,3.757,0,0,1-.994-.427,1.988,1.988,0,0,1-.691-1.024,3.887,3.887,0,0,1-.134-1.441c.03-.5.124-1.069.134-1.655a16.8,16.8,0,0,0-.741-3.733,5.375,5.375,0,0,1-.05-2.073,2.54,2.54,0,0,1,1.173-1.75,9.495,9.495,0,0,1,2.217-.711,3.753,3.753,0,0,0,1.138-.5,2.555,2.555,0,0,0,.815-.994,12.458,12.458,0,0,0,.7-2.485,4.3,4.3,0,0,1,.457-1.188,1.909,1.909,0,0,1,.939-.8,6.74,6.74,0,0,1,1.745-.209,2.669,2.669,0,0,0,.89-.209,1.769,1.769,0,0,0,.706-.577,6.141,6.141,0,0,0,.686-1.6,3.854,3.854,0,0,1,.81-1.407,3.788,3.788,0,0,1,2.764-1.263,3.882,3.882,0,0,1,2.654.994l.085.075.05-.1a5.965,5.965,0,0,1,3.788-3.166,5.512,5.512,0,0,1,2.107-.144,4.917,4.917,0,0,1,1.72.5,4.359,4.359,0,0,1,1.809,1.72,4.219,4.219,0,0,1,.3.6l.075.154v0l-.06-.164a3.507,3.507,0,0,0-.283-.611,4.4,4.4,0,0,0-1.809-1.784,5.129,5.129,0,0,0-1.75-.537,5.557,5.557,0,0,0-2.157.129,6.124,6.124,0,0,0-3.9,3.221h.129a4.076,4.076,0,0,0-2.769-1.064,4,4,0,0,0-3.753,2.8,6.118,6.118,0,0,1-.661,1.546,1.844,1.844,0,0,1-1.457.7,7.291,7.291,0,0,0-1.794.219,2.147,2.147,0,0,0-1.039.88,4.285,4.285,0,0,0-.5,1.238,12.422,12.422,0,0,1-.686,2.431,2.341,2.341,0,0,1-.756.915,3.639,3.639,0,0,1-1.079.5,9.358,9.358,0,0,0-2.257.731,2.4,2.4,0,0,0-.84.815,3.219,3.219,0,0,0-.408,1.054,5.4,5.4,0,0,0,.06,2.137,16.969,16.969,0,0,1,.755,3.7c0,.572-.089,1.123-.114,1.65a3.813,3.813,0,0,0,.154,1.491,2.013,2.013,0,0,0,.741,1.064,3.624,3.624,0,0,0,.994.423,2.107,2.107,0,0,1,.755.378,1.2,1.2,0,0,1,.358.5.771.771,0,0,1,.065.472Z" transform="translate(-292.424 -161.299)" fill="#455a64"/>
      <path id="Path_4488" data-name="Path 4488" d="M527.9,214.309s.025-.04.065-.119l.179-.348.676-1.357c.293-.582.626-1.317,1.094-2.117a5.612,5.612,0,0,1,2.147-2.222c.5-.268,1.1-.442,1.7-.7a3.874,3.874,0,0,0,.87-.5,2.192,2.192,0,0,0,.656-.81c.308-.646.328-1.387.577-2.058a1.779,1.779,0,0,1,.621-.85,3.445,3.445,0,0,1,1.019-.452,6.377,6.377,0,0,0,1.123-.408,2.038,2.038,0,0,0,.875-.875,9.315,9.315,0,0,0,.577-2.431,3.063,3.063,0,0,1,.437-1.148,1.6,1.6,0,0,1,.994-.641c.835-.159,1.72.144,2.639,0a2.222,2.222,0,0,0,1.223-.621,5.309,5.309,0,0,0,.8-1.069c.234-.368.452-.741.711-1.074a2.486,2.486,0,0,1,.939-.775,3.709,3.709,0,0,1,2.376.06,5.592,5.592,0,0,0,2.386.249,6.431,6.431,0,0,0,2.1-.91,10.67,10.67,0,0,1,1.869-.994,6.462,6.462,0,0,1,3.738-.055,6.994,6.994,0,0,1,2.739,1.491,7.686,7.686,0,0,1,1.491,1.834,8.462,8.462,0,0,1,.631,1.362l.139.368a.681.681,0,0,0,.055.124.658.658,0,0,0-.035-.129c-.03-.094-.07-.219-.124-.378a7.817,7.817,0,0,0-.6-1.387,7.674,7.674,0,0,0-1.491-1.874,7,7,0,0,0-2.778-1.521,6.611,6.611,0,0,0-3.828.035,10.725,10.725,0,0,0-1.9.994,6.348,6.348,0,0,1-2.043.88,5.468,5.468,0,0,1-2.311-.249,7.952,7.952,0,0,0-1.223-.239,2.421,2.421,0,0,0-2.286.994,12.134,12.134,0,0,0-.721,1.089,5.466,5.466,0,0,1-.775,1.034,2.033,2.033,0,0,1-1.113.567c-.865.129-1.745-.179-2.649,0a1.77,1.77,0,0,0-1.089.736,3.33,3.33,0,0,0-.467,1.218,9.21,9.21,0,0,1-.557,2.386,1.844,1.844,0,0,1-.8.8,5.936,5.936,0,0,1-1.089.4,3.514,3.514,0,0,0-1.069.5,1.929,1.929,0,0,0-.676.929c-.259.711-.278,1.441-.567,2.053a2.58,2.58,0,0,1-1.442,1.228c-.582.254-1.178.432-1.7.711a5.676,5.676,0,0,0-2.172,2.286c-.467.815-.79,1.551-1.074,2.142s-.5,1.044-.641,1.367c-.065.154-.119.268-.159.358a.579.579,0,0,0-.065.114Z" transform="translate(-284.125 -156.681)" fill="#455a64"/>
      <path id="Path_4489" data-name="Path 4489" d="M538.728,224.124a.323.323,0,0,0-.114-.025.711.711,0,0,0-.338.07,1.352,1.352,0,0,0-.646,1.1,3.438,3.438,0,0,0,.119.944,3.825,3.825,0,0,1,.144,1.094,2.431,2.431,0,0,1-.462,1.153c-.248.378-.567.741-.825,1.188a1.794,1.794,0,0,0-.184,1.581c.189.542.572.994.756,1.546a2.371,2.371,0,0,1-.2,1.73c-.253.567-.616,1.118-.865,1.755a2.813,2.813,0,0,0-.219,1.019,2.52,2.52,0,0,0,.219,1.044,12.294,12.294,0,0,0,1.168,1.819,2.888,2.888,0,0,1,.631,1.988,9.619,9.619,0,0,1-.8,2.108,3.406,3.406,0,0,0-.253,1.153,2.616,2.616,0,0,0,.278,1.138,9.56,9.56,0,0,0,1.327,1.8,5.144,5.144,0,0,1,1.069,1.8,15.586,15.586,0,0,0,.616,1.988,2.385,2.385,0,0,0,.626.81,2.951,2.951,0,0,0,.885.442,7.1,7.1,0,0,1,.865.328,2.853,2.853,0,0,1,.721.5,6.464,6.464,0,0,1,.994,1.362c.278.472.542.939.835,1.357a4.3,4.3,0,0,0,2.162,1.65,4.652,4.652,0,0,0,2.053.234,4.107,4.107,0,0,0,1.263-.348,3.244,3.244,0,0,0,.4-.219,4.791,4.791,0,0,1-1.665.5,4.632,4.632,0,0,1-1.988-.258,4.22,4.22,0,0,1-2.093-1.625c-.283-.413-.537-.88-.82-1.357a6.388,6.388,0,0,0-1.024-1.4,3.314,3.314,0,0,0-.756-.542,7.922,7.922,0,0,0-.885-.338,2.675,2.675,0,0,1-.83-.422,2.147,2.147,0,0,1-.577-.746,15.408,15.408,0,0,1-.6-1.949,5.3,5.3,0,0,0-1.1-1.864,9.608,9.608,0,0,1-1.3-1.77,2.423,2.423,0,0,1-.253-1.054,2.981,2.981,0,0,1,.239-1.084,9.593,9.593,0,0,0,.81-2.152,2.375,2.375,0,0,0-.139-1.148,4.712,4.712,0,0,0-.527-.994,12.17,12.17,0,0,1-1.153-1.779,2.382,2.382,0,0,1-.209-.994,2.533,2.533,0,0,1,.2-.959c.239-.611.6-1.163.855-1.755a2.485,2.485,0,0,0,.2-1.844c-.2-.587-.586-1.039-.765-1.546a1.655,1.655,0,0,1,.159-1.461c.249-.432.562-.805.81-1.188a2.56,2.56,0,0,0,.472-1.218,3.861,3.861,0,0,0-.164-1.118,3.371,3.371,0,0,1-.134-.92,1.317,1.317,0,0,1,.592-1.074.736.736,0,0,1,.427-.05Z" transform="translate(-288.144 -172.968)" fill="#455a64"/>
      <path id="Path_4490" data-name="Path 4490" d="M641.637,222a2.248,2.248,0,0,0,.5-.04,3.48,3.48,0,0,0,1.337-.547,3.35,3.35,0,0,0,1.357-1.829,3.534,3.534,0,0,0-.457-2.982,9.281,9.281,0,0,0-1.238-1.317,4.249,4.249,0,0,1-1.148-1.491,2.774,2.774,0,0,1,.134-1.988c.253-.671.631-1.322.875-2.063a6.174,6.174,0,0,0-4.5-7.953l.055.144a3.13,3.13,0,0,0,.572-1.362,3.916,3.916,0,0,0-.07-1.491,4.135,4.135,0,0,0-.606-1.392,5,5,0,0,0-1.044-1.128,9.708,9.708,0,0,0-4.111-1.75,14.762,14.762,0,0,0-4.23-.258l.1.089a4.474,4.474,0,0,0-2.456-3.917,4.543,4.543,0,0,0-2.2-.467,7.354,7.354,0,0,0-2.078.5,4.255,4.255,0,0,1-.994.2,2.52,2.52,0,0,1-.944-.114,7.809,7.809,0,0,1-1.65-.84,6.848,6.848,0,0,0-1.576-.76,5.467,5.467,0,0,0-1.591-.239,5.258,5.258,0,0,0-2.624.661,5.467,5.467,0,0,0-1.556,1.3,5.149,5.149,0,0,0-.681,1.074,2.72,2.72,0,0,0-.164.4s.06-.134.194-.393a5.4,5.4,0,0,1,.7-1.044,5.471,5.471,0,0,1,1.556-1.263,5.21,5.21,0,0,1,2.58-.626,5.4,5.4,0,0,1,1.551.249,6.5,6.5,0,0,1,1.541.756,8.228,8.228,0,0,0,1.68.865,2.788,2.788,0,0,0,.994.124,4.229,4.229,0,0,0,.994-.209,7.282,7.282,0,0,1,2.033-.5,4.364,4.364,0,0,1,2.117.457,4.285,4.285,0,0,1,2.351,3.763v.1h.1a14.737,14.737,0,0,1,4.175.263,9.632,9.632,0,0,1,4.031,1.715,4.94,4.94,0,0,1,.994,1.084,4.031,4.031,0,0,1,.582,1.332,3.739,3.739,0,0,1,.065,1.427,2.983,2.983,0,0,1-.532,1.282l-.089.114.144.035a6,6,0,0,1,4.389,7.709c-.234.721-.611,1.372-.87,2.058a2.938,2.938,0,0,0-.124,2.1,4.375,4.375,0,0,0,1.2,1.566,8.951,8.951,0,0,1,1.223,1.287,3.444,3.444,0,0,1,.5,2.883,3.3,3.3,0,0,1-1.307,1.8,3.579,3.579,0,0,1-1.3.567C641.8,221.995,641.637,221.995,641.637,222Z" transform="translate(-325.738 -155.32)" fill="#263238"/>
      <path id="Path_4491" data-name="Path 4491" d="M537.265,197.659a.462.462,0,0,0,0-.119,1.26,1.26,0,0,1,.04-.353c.04-.323.089-.775.154-1.357a20.506,20.506,0,0,1,.343-2.127,11.958,11.958,0,0,1,.88-2.7,8,8,0,0,1,2.053-2.724,6.015,6.015,0,0,1,1.635-.964,17.125,17.125,0,0,1,1.963-.527,5.791,5.791,0,0,0,1.988-.845,9.02,9.02,0,0,0,1.63-1.571c.5-.577.994-1.193,1.526-1.745a6.462,6.462,0,0,1,1.914-1.362,11.4,11.4,0,0,1,4.618-.885,29.615,29.615,0,0,1,4.374.258,22.451,22.451,0,0,1,7.058,2.112,15.766,15.766,0,0,1,4.056,2.893c.209.214.4.393.552.562l.373.442.229.268c.055.06.084.089.084.085a.466.466,0,0,0-.07-.1l-.214-.278c-.1-.124-.224-.278-.363-.452s-.333-.363-.537-.582a15.533,15.533,0,0,0-4.051-2.982,22.174,22.174,0,0,0-7.118-2.167,29.2,29.2,0,0,0-4.4-.273,11.591,11.591,0,0,0-4.643.9,6.724,6.724,0,0,0-1.988,1.4c-.562.567-1.039,1.183-1.531,1.76a8.773,8.773,0,0,1-1.6,1.536,5.513,5.513,0,0,1-1.939.825,16.919,16.919,0,0,0-1.988.542,6.047,6.047,0,0,0-1.67.994,8.184,8.184,0,0,0-2.078,2.784,12.02,12.02,0,0,0-.86,2.739,20.848,20.848,0,0,0-.313,2.142c-.06.587-.094,1.049-.114,1.362a1.445,1.445,0,0,1-.025.353Z" transform="translate(-288.823 -150.872)" fill="#263238"/>
      <path id="Path_4492" data-name="Path 4492" d="M588.446,266.063a2.351,2.351,0,0,0-1.367-1.988,2.078,2.078,0,0,0-2.326.5,1.869,1.869,0,0,0-.114,2.237,2.058,2.058,0,0,0,.895.79,2.585,2.585,0,0,0,1.526.164,1.76,1.76,0,0,0,1.1-.6,1.66,1.66,0,0,0,.288-1.1Z" transform="translate(-312.502 -192.992)" fill="#5b342f"/>
      <path id="Path_4493" data-name="Path 4493" d="M586.65,262.089c-.234,0-.109,1.576-1.362,2.808s-2.948,1.193-2.938,1.417c0,.1.4.273,1.108.234a3.976,3.976,0,0,0,2.461-1.094,3.414,3.414,0,0,0,1.044-2.346C586.973,262.442,586.764,262.069,586.65,262.089Z" transform="translate(-311.51 -192.075)" fill="#263238"/>
      <path id="Path_4494" data-name="Path 4494" d="M588.432,309.963l-12.213-4.633s-9.444,5.592-16.677,4.434c-5.627-.9-6.089-3.793-6.089-3.793l-6.765,1.094s-10.254,8.54-12.392,17.178c-1.267,5.115-1.571,11.815-1.571,17.69,0,2.351,2.982,11.651,2.982,11.651l1.163,13.456-5.662,22.432H590.3V327.415Z" transform="translate(-285.79 -213.823)" fill="#9676ff"/>
      <path id="Path_4495" data-name="Path 4495" d="M504.629,348.739l-8.579-21.483,24.62-17.154,8.336-1.282-2.167,30.405Z" transform="translate(-268.107 -215.578)" fill="#9676ff"/>
      <path id="Path_4496" data-name="Path 4496" d="M536.559,364.664a1.788,1.788,0,0,1-.154-.3c-.089-.2-.244-.5-.393-.88a24.4,24.4,0,0,1-1.1-3.37,35.248,35.248,0,0,1-.756-11.621,72.963,72.963,0,0,1,2.137-11.472c.378-1.441.7-2.61.924-3.41l.273-.925a1.8,1.8,0,0,1,.109-.318,1.352,1.352,0,0,1-.06.333c-.06.239-.134.552-.224.934-.209.84-.5,1.988-.845,3.43a79.562,79.562,0,0,0-2.058,11.432,36.415,36.415,0,0,0,.676,11.557,27.793,27.793,0,0,0,.994,3.37c.134.393.268.691.343.895A1.53,1.53,0,0,1,536.559,364.664Z" transform="translate(-287.182 -227.422)" fill="#263238"/>
      <g id="Group_2354" data-name="Group 2354" transform="translate(245.753 105.371)" opacity="0.3">
        <path id="Path_4497" data-name="Path 4497" d="M532.7,353.207l.537-.388a60.146,60.146,0,0,1,3.181-19.6C532.437,339.14,530.737,346.591,532.7,353.207Z" transform="translate(-531.88 -333.22)"/>
      </g>
      <path id="Path_4498" data-name="Path 4498" d="M567.6,366.892s8.45,31.37,13.2,37.121,7.3,7.456,14.584,8.047,9.986-7.844,11.606-11.129,1.322-8.216,1.322-8.216l-9.941-5.547-7.854,12.924-20.23-33.76Z" transform="translate(-304.092 -244.502)" opacity="0.3"/>
      <path id="Path_4499" data-name="Path 4499" d="M570.27,373.95s8.629,20.076,14.817,31.588c5.239,9.752,15.906,8.669,19.321,3.246s9.066-21.657,9.066-21.657l-18.028-3.166-1.988,5.711L579.789,372.24Z" transform="translate(-305.435 -247.474)" fill="#824e44"/>
      <path id="Path_4500" data-name="Path 4500" d="M582.156,349.24l-1.327-6s-.606-1.66-1.6-.194-.527,4.23-.527,4.23-1.869-14.281-3.509-15.836c-.6-.572-1.422.214-1.422.214s-.194-2.794-1.069-2.779-1.7,2.1-1.7,2.1a1.556,1.556,0,0,0-1.943.442c-.765.929-.77,8.694-.77,8.694s-.731-6.4-1.874-6.8c-1.839-.646-1.839,1.789-1.839,1.789l.537,8.326a72.152,72.152,0,0,0,2.262,9.255c1.267,3.574,1.988,3.609,1.988,3.609l8.226-.219s1.859-1.695,3.32-3.012A3.977,3.977,0,0,0,582.156,349.24Z" transform="translate(-302.573 -225.662)" fill="#824e44"/>
      <path id="Path_4501" data-name="Path 4501" d="M610.961,401.109a1.349,1.349,0,0,1-.139-.253c-.094-.189-.209-.432-.353-.731l-.641-1.113c-.259-.423-.582-.9-.92-1.427-1.427-2.088-3.579-4.836-6.024-7.814s-4.717-5.647-6.3-7.615c-.8-.994-1.422-1.794-1.844-2.366l-.467-.666a1.063,1.063,0,0,1-.149-.244,1.575,1.575,0,0,1,.189.214l.5.636c.442.547,1.089,1.337,1.9,2.306,1.62,1.939,3.9,4.588,6.357,7.57a96.553,96.553,0,0,1,5.965,7.873c.333.542.646,1.024.9,1.461s.447.82.6,1.138.229.557.313.76A1.186,1.186,0,0,1,610.961,401.109Z" transform="translate(-317.43 -250.814)" fill="#5b342f"/>
      <path id="Path_4502" data-name="Path 4502" d="M629.189,313.57a16.982,16.982,0,0,1,12.3,13.137c2.277,10.244,1.571,32.036,1.571,32.036l-26.782-4.7,6.521-37.205Z" transform="translate(-328.575 -217.967)" fill="#9676ff"/>
      <path id="Path_4503" data-name="Path 4503" d="M619.932,349.33a.534.534,0,0,1,0,.119c0,.094-.03.2-.045.343-.05.323-.114.761-.2,1.317-.184,1.168-.447,2.818-.77,4.851-.681,4.116-1.615,9.782-2.659,16.085l-.1-.149.88.159,16.632,2.982,5.035.969,1.367.268.353.075.119.035a.344.344,0,0,1-.124,0l-.358-.055-1.377-.219-5.05-.86-16.647-2.943-.88-.154-.124-.025v-.124c1.074-6.3,2.033-11.964,2.734-16.075.358-2.028.646-3.673.855-4.836.1-.552.184-.994.244-1.312a1.391,1.391,0,0,1,.07-.338A.4.4,0,0,1,619.932,349.33Z" transform="translate(-328.424 -235.952)" fill="#263238"/>
      <path id="Path_4504" data-name="Path 4504" d="M627,331.657a3.921,3.921,0,0,1,.2-.641c.149-.4.373-.994.676-1.7a15.948,15.948,0,0,1,3.221-5.09,9.528,9.528,0,0,1,2.739-1.909,10.851,10.851,0,0,1,2.595-.83,10.529,10.529,0,0,1,1.819-.189,2.749,2.749,0,0,1,.671.035,23.322,23.322,0,0,0-2.456.333,10.483,10.483,0,0,0-5.189,2.744,17.01,17.01,0,0,0-3.231,4.971l-.751,1.66A3.032,3.032,0,0,1,627,331.657Z" transform="translate(-333.966 -221.853)" fill="#263238"/>
      <path id="Path_4505" data-name="Path 4505" d="M576.951,343.5a8.892,8.892,0,0,1-.134-1.521c-.05-.939-.1-2.237-.109-3.678a34.707,34.707,0,0,1,.149-3.683,6.145,6.145,0,0,1,.249-1.491,14.582,14.582,0,0,1-.07,1.521c-.05.934-.075,2.232-.07,3.668s0,2.654.03,3.673a9.062,9.062,0,0,1-.045,1.511Z" transform="translate(-308.671 -227.804)" fill="#5b342f"/>
      <path id="Path_4506" data-name="Path 4506" d="M582.55,334.65a7.015,7.015,0,0,1,.08,1.243c0,.765.055,1.824.114,2.982s.134,2.222.194,2.982a6.9,6.9,0,0,1,.05,1.243,5.426,5.426,0,0,1-.234-1.223c-.1-.765-.209-1.819-.268-2.982s-.065-2.237-.04-3.007A5.562,5.562,0,0,1,582.55,334.65Z" transform="translate(-311.551 -228.569)" fill="#5b342f"/>
      <path id="Path_4507" data-name="Path 4507" d="M187.833,197.209c-.661-4.424-1.76-9.26-4.677-12.65a27.835,27.835,0,0,0-6.934-5.99,19.516,19.516,0,0,0-8.723-2.709L165.42,177.7a25.539,25.539,0,0,1,15.822,12.153A30.277,30.277,0,0,1,184.6,209.7c-.721,4.414-2.326,8.634-3.549,12.924s-2.063,8.858-1.213,13.252c3.648-1.417,2.62.994,4.16-2.62s2.341-11.532,3.236-15.349A60.37,60.37,0,0,0,187.833,197.209Z" transform="translate(-101.821 -148.707)" fill="#9676ff"/>
      <path id="Path_4508" data-name="Path 4508" d="M159.432,187.388c-5.6-8.7-18.67-11.388-18.67-11.388-19.137-1.367-22.557,13.336-24.49,26.732-1.2,8.321,3.241,34.362,3.241,34.362l4.687,1.695h30.818c0-.562,2.182-5.274,2.719-6.81C160.521,218.022,162.728,192.5,159.432,187.388Z" transform="translate(-76.999 -148.733)" fill="#263238"/>
      <path id="Path_4509" data-name="Path 4509" d="M205.03,291.35Z" transform="translate(-121.742 -206.792)" fill="#263238"/>
      <path id="Path_4510" data-name="Path 4510" d="M153.491,184.963l-1.2-1.143-12.924,5.214a3.609,3.609,0,0,0-3.41,3.479l.114,42.156a11.877,11.877,0,0,0,2.282,7.61l1.814,2.4a9.548,9.548,0,0,0,15.946-.994,4.434,4.434,0,0,0,.462-1.089,9.056,9.056,0,0,0,.189-.944c.388-3.39.408-6.333.408-6.333.234-3.723.308-5.249.308-5.214s7.923-.91,10.066-11.085c1.069-5.06.865-12.019.567-18.888C167.688,190.679,161.111,184.953,153.491,184.963Z" transform="translate(-87.004 -152.711)" fill="#ffbf9d"/>
      <path id="Path_4511" data-name="Path 4511" d="M163.859,228.137a1.317,1.317,0,0,1-1.337,1.263,1.258,1.258,0,0,1-1.292-1.253,1.322,1.322,0,0,1,1.332-1.268,1.267,1.267,0,0,1,1.3,1.258Z" transform="translate(-99.713 -174.367)" fill="#263238"/>
      <path id="Path_4512" data-name="Path 4512" d="M190.079,229.027a1.317,1.317,0,0,1-1.332,1.263,1.263,1.263,0,0,1-1.3-1.253,1.322,1.322,0,0,1,1.332-1.268,1.268,1.268,0,0,1,1.3,1.258Z" transform="translate(-112.9 -174.814)" fill="#263238"/>
      <path id="Path_4513" data-name="Path 4513" d="M192.643,220.605c-.174.164-1.133-.621-2.55-.691s-2.485.592-2.629.408c-.075-.08.109-.383.577-.686a3.618,3.618,0,0,1,2.117-.542,3.479,3.479,0,0,1,2.018.765C192.593,220.218,192.728,220.536,192.643,220.605Z" transform="translate(-112.899 -170.449)" fill="#263238"/>
      <path id="Path_4514" data-name="Path 4514" d="M163.783,220.611c-.189.144-1.064-.741-2.485-.949s-2.535.328-2.659.134c-.065-.089.149-.368.646-.626a3.594,3.594,0,0,1,2.162-.318,3.479,3.479,0,0,1,1.929.969C163.783,220.214,163.878,220.547,163.783,220.611Z" transform="translate(-98.404 -170.306)" fill="#263238"/>
      <path id="Path_4515" data-name="Path 4515" d="M178.925,231.2a9.448,9.448,0,0,1,2.321-.3c.363,0,.706-.075.78-.318a1.834,1.834,0,0,0-.189-1.084q-.437-1.337-.93-2.8c-1.287-3.977-2.2-7.267-2.038-7.317s1.337,3.141,2.624,7.133q.462,1.491.885,2.818a2.1,2.1,0,0,1,.114,1.432.91.91,0,0,1-.621.5,2.337,2.337,0,0,1-.616.055A9.141,9.141,0,0,1,178.925,231.2Z" transform="translate(-108.576 -170.595)" fill="#263238"/>
      <path id="Path_4516" data-name="Path 4516" d="M165.535,272.569A26.11,26.11,0,0,1,152,268.19s3.1,7.272,13.421,6.83Z" transform="translate(-95.071 -195.143)" fill="#ff9a6c"/>
      <path id="Path_4517" data-name="Path 4517" d="M173.092,248.923a2.54,2.54,0,0,0-2.237-1.059,2.326,2.326,0,0,0-1.65.78,1.491,1.491,0,0,0-.2,1.68,1.715,1.715,0,0,0,1.834.562,5.364,5.364,0,0,0,1.864-.994,1.536,1.536,0,0,0,.422-.4.5.5,0,0,0,.025-.527" transform="translate(-103.537 -184.918)" fill="#ff9a6c"/>
      <path id="Path_4518" data-name="Path 4518" d="M170.2,244.71c.234,0,.159,1.536,1.422,2.689s2.9,1.069,2.9,1.287c0,.094-.378.278-1.074.263a3.827,3.827,0,0,1-2.426-.994,3.36,3.36,0,0,1-1.094-2.252C169.9,245.067,170.092,244.695,170.2,244.71Z" transform="translate(-104.087 -183.334)" fill="#263238"/>
      <path id="Path_4519" data-name="Path 4519" d="M165.165,209.791c-.194.358-1.566-.035-3.241-.089s-3.072.189-3.236-.184c-.075-.179.214-.5.805-.79a5.662,5.662,0,0,1,4.936.209C165,209.274,165.255,209.622,165.165,209.791Z" transform="translate(-98.429 -165.002)" fill="#263238"/>
      <path id="Path_4520" data-name="Path 4520" d="M192.627,208.3c-.268.308-1.223-.075-2.4-.149s-2.177.109-2.386-.239c-.094-.169.08-.5.527-.765a3.479,3.479,0,0,1,3.852.313C192.622,207.812,192.741,208.15,192.627,208.3Z" transform="translate(-113.086 -164.221)" fill="#263238"/>
      <path id="Path_4521" data-name="Path 4521" d="M134.408,209.823s7.247,2.257,11.348-15.633c1.4-6.114,7.073-11.07,7.073-11.07l-2.3-.691s-14.291,4.026-14.534,4.205-3.6,7.391-3.6,7.391Z" transform="translate(-85.209 -152.012)" fill="#263238"/>
      <path id="Path_4522" data-name="Path 4522" d="M132.48,233.236c.035-.765-.756-2.61-1.491-2.764-1.988-.413-5.637-.437-5.925,4.677-.4,6.989,6.7,5.965,6.725,5.746S132.376,235.876,132.48,233.236Z" transform="translate(-81.516 -176.091)" fill="#ffbf9d"/>
      <path id="Path_4523" data-name="Path 4523" d="M131.616,240.325c-.03,0-.129.08-.338.159a1.233,1.233,0,0,1-.91-.03,3.02,3.02,0,0,1-1.243-2.784,3.977,3.977,0,0,1,.442-1.725,1.4,1.4,0,0,1,.964-.88.616.616,0,0,1,.7.373c.085.2.03.338.07.353s.154-.109.114-.4a.785.785,0,0,0-.249-.452.944.944,0,0,0-.666-.219,1.72,1.72,0,0,0-1.332.994,4.135,4.135,0,0,0-.532,1.924c-.035,1.412.611,2.769,1.605,3.122a1.307,1.307,0,0,0,1.123-.124C131.591,240.514,131.641,240.36,131.616,240.325Z" transform="translate(-83.321 -178.308)" fill="#ff9a6c"/>
      <path id="Path_4524" data-name="Path 4524" d="M146.34,207.786a3.788,3.788,0,0,0,1.044-.214,6.273,6.273,0,0,0,2.485-1.441,8.67,8.67,0,0,0,1.3-1.521,11.928,11.928,0,0,0,1.059-2.043,44.736,44.736,0,0,0,1.491-5.085,51.942,51.942,0,0,1,1.606-5.075,29.605,29.605,0,0,1,1.819-3.947,21.955,21.955,0,0,1,1.6-2.456c.209-.278.388-.5.5-.621a1.376,1.376,0,0,1,.189-.2,2.211,2.211,0,0,1-.159.229c-.1.149-.273.353-.5.636a24.144,24.144,0,0,0-1.546,2.485,31.08,31.08,0,0,0-1.775,3.942c-.572,1.531-1.1,3.246-1.586,5.065a43.438,43.438,0,0,1-1.526,5.1,11.684,11.684,0,0,1-1.089,2.063,8.558,8.558,0,0,1-1.337,1.531,6.144,6.144,0,0,1-2.56,1.417,3.857,3.857,0,0,1-1.014.139Z" transform="translate(-92.225 -153.395)" fill="#263238"/>
      <path id="Path_4525" data-name="Path 4525" d="M122.342,234.409a17.139,17.139,0,0,0,.154-2.441,38.045,38.045,0,0,0-.676-6.656L121,220.78a43.349,43.349,0,0,1-.626-5.239,21.373,21.373,0,0,1,.423-5.786,14.548,14.548,0,0,1,.994-2.9,13.838,13.838,0,0,1,1.655-2.689,32.842,32.842,0,0,1,4.4-4.434c1.531-1.322,2.982-2.624,4.3-3.976a54.135,54.135,0,0,0,6.283-7.645,52.366,52.366,0,0,0,3.4-5.741c.358-.7.626-1.253.8-1.63q.119-.273.194-.432a.5.5,0,0,0,.06-.149l-.08.144-.209.418c-.184.373-.457.92-.825,1.615A55.974,55.974,0,0,1,132,195.663c-1.3,1.327-2.764,2.62-4.3,3.947a32.634,32.634,0,0,0-4.429,4.474,14.092,14.092,0,0,0-1.675,2.724,15.091,15.091,0,0,0-.994,2.943,21.568,21.568,0,0,0-.418,5.836,43.241,43.241,0,0,0,.646,5.254c.3,1.63.582,3.146.84,4.533a38.994,38.994,0,0,1,.736,6.616c0,.785,0,1.4-.045,1.809a2.467,2.467,0,0,1-.03.5C122.3,234.434,122.342,234.409,122.342,234.409Z" transform="translate(-79.047 -150.87)" fill="#455a64"/>
      <path id="Path_4526" data-name="Path 4526" d="M117.83,235.765a17.139,17.139,0,0,0,.154-2.441,37.7,37.7,0,0,0-.676-6.641c-.249-1.387-.5-2.9-.81-4.533a42.248,42.248,0,0,1-.626-5.239,21.141,21.141,0,0,1,.423-5.781,14.468,14.468,0,0,1,.994-2.9,14.141,14.141,0,0,1,1.655-2.689,32.549,32.549,0,0,1,4.4-4.429c1.531-1.327,2.982-2.629,4.3-3.976a54.55,54.55,0,0,0,6.288-7.645,52.685,52.685,0,0,0,3.385-5.726c.358-.7.621-1.253.79-1.63.085-.184.149-.323.194-.432a1.269,1.269,0,0,0,.065-.149,1.08,1.08,0,0,0-.08.144c-.055.1-.124.244-.214.423-.179.373-.457.915-.825,1.61a55.846,55.846,0,0,1-9.747,13.3c-1.3,1.327-2.769,2.62-4.3,3.947a31.846,31.846,0,0,0-4.429,4.474,14.178,14.178,0,0,0-1.68,2.719,14.749,14.749,0,0,0-.994,2.943,21.375,21.375,0,0,0-.418,5.836,43.245,43.245,0,0,0,.646,5.254c.3,1.63.582,3.146.835,4.533a39.625,39.625,0,0,1,.741,6.616c0,.785,0,1.4-.045,1.809l-.03.472A.551.551,0,0,0,117.83,235.765Z" transform="translate(-76.783 -151.569)" fill="#455a64"/>
      <path id="Path_4527" data-name="Path 4527" d="M99.666,443.046s-.651-5.821,3.072-15.538a49.01,49.01,0,0,1,6.626-12.362l48.215-3.176,3.718,31.076Z" transform="translate(-68.728 -267.456)" fill="#263238"/>
      <path id="Path_4528" data-name="Path 4528" d="M125.753,332.448c.706-10.732,0-27,0-27L117.8,292.091l-10.478-1.645s-.03,7.337-5.512,8.549c-9.38,2.073-15.493-9.206-15.493-9.206-.885,0-14.226,2.8-18.456,6.83-4.344,4.136-11.537,15.1-13.565,18.247h0s-14.077,20.519-16.125,26.146a10.215,10.215,0,0,0,.686,8.858c.427,1.267,13.421,19.917,23.5,27.368l.785-1.491,5.224-8.947-13.53-22.229L70.54,328.019l3.087-2.9.885,3.9,3.808,18.352s-7.585,15.165-8.649,23.049c0,0,37.28,12.854,60.309,6.507C129.968,376.93,125.042,343.185,125.753,332.448Z" transform="translate(-37.47 -206.007)" fill="#ebebeb"/>
      <path id="Path_4529" data-name="Path 4529" d="M112.492,435.2s-6.313-1.7-6.959-1.347-5.348,2.843-5.348,2.843a24.478,24.478,0,0,1-2.222,2.411s-1.62,1.536-2.734,1.586a5.005,5.005,0,0,1-1.775-.189l-4.364,7.68s2.59,2.485,3.977,2.441,8.947-3.221,8.947-3.221l1.839-.4s6.9.994,7.456-1.079l.1-.591-6.78-1.327-2.58.149,4.568-1.178s6.462.313,7.073.209,1.382-.964,1.183-1.491l-1.332-.313s1.566-.855,1.615-1.789l-5.965-1.615S113.029,436.534,112.492,435.2Z" transform="translate(-63.431 -278.435)" fill="#ffbf9d"/>
      <path id="Path_4530" data-name="Path 4530" d="M125.945,446.845a2.33,2.33,0,0,1-.552-.134c-.348-.1-.85-.244-1.491-.408-1.258-.323-2.982-.736-4.931-1.163a6.7,6.7,0,0,0-.7-.139,2.261,2.261,0,0,0-.661.05c-.432.119-.87.268-1.272.4-.805.273-1.526.552-2.117.805a14.981,14.981,0,0,0-1.372.671,3.114,3.114,0,0,1-.5.268,1.907,1.907,0,0,1,.437-.363,11.275,11.275,0,0,1,1.347-.756,22.151,22.151,0,0,1,2.118-.87c.413-.149.825-.3,1.292-.428a2.377,2.377,0,0,1,.751-.06,3.984,3.984,0,0,1,.741.139c1.934.432,3.673.875,4.916,1.253.626.189,1.123.358,1.461.5A1.986,1.986,0,0,1,125.945,446.845Z" transform="translate(-75.13 -283.924)" fill="#ff9a6c"/>
      <path id="Path_4531" data-name="Path 4531" d="M121.165,441.676c-.025.04-.5-.224-1.272-.467a7.148,7.148,0,0,0-6.178.915c-.691.462-1.049.845-1.084.81a3.41,3.41,0,0,1,.994-.994,6.7,6.7,0,0,1,6.357-.939A3.479,3.479,0,0,1,121.165,441.676Z" transform="translate(-75.271 -281.847)" fill="#ff9a6c"/>
      <path id="Path_4532" data-name="Path 4532" d="M239.19,320.163l-24.6-18.317L205.4,295.8l-6.79-1.377,2.883,28.686h6.377L235.3,335.03l33.606,2.853.492-10.418Z" transform="translate(-118.513 -208.335)" fill="#ebebeb"/>
      <path id="Path_4533" data-name="Path 4533" d="M212.283,358.87a2.978,2.978,0,0,1-.04-.427c0-.3-.03-.706-.05-1.218-.04-1.064-.085-2.6-.119-4.474s-.06-4.16-.065-6.666,0-5.269,0-8.162a63.665,63.665,0,0,0-1.963-14.638c-.432-1.844-.81-3.33-1.064-4.359-.124-.5-.219-.895-.293-1.188a2.64,2.64,0,0,1-.08-.418,2.864,2.864,0,0,1,.134.4c.08.293.194.681.333,1.173.283,1.024.691,2.485,1.148,4.349a61.506,61.506,0,0,1,2.043,14.673c.045,2.9,0,5.657,0,8.167v6.661c0,1.894,0,3.41.035,4.474v1.223A2.379,2.379,0,0,1,212.283,358.87Z" transform="translate(-123.543 -219.853)" fill="#263238"/>
      <g id="Group_2355" data-name="Group 2355" transform="translate(83.273 93.898)" opacity="0.3">
        <path id="Path_4534" data-name="Path 4534" d="M210.3,331.554A22.9,22.9,0,0,0,205,310.14a74.753,74.753,0,0,1,5.348,20.986" transform="translate(-205 -310.14)"/>
      </g>
      <path id="Path_4535" data-name="Path 4535" d="M139.206,174.89c-15.409,1.382-16.01,20.216-18.058,35.073-2.928,21.225,12.6,25.783,12.6,25.783l-19.291-3.619s-10.553-4.27-10.478-15.986,1.919-26.056,14.2-36.952C128.788,169.775,138.237,174.248,139.206,174.89Z" transform="translate(-70.92 -147.404)" fill="#9676ff"/>
      <path id="Path_4536" data-name="Path 4536" d="M158.541,277.634c-1.163-1.054-.711-1.456-4.041-1.76-3.763-.348-7.953,2.058-11.706,2.56a15.852,15.852,0,0,1-10.886-2.1c-3.688-2.456-5.676-6.691-7.516-10.717l-9.047,7.456a7.307,7.307,0,0,0-2.719,5.885,2.485,2.485,0,0,0,.219,1.118c.527.8,4.409-1.084,5.189-.537,4.146,2.9,5.91,7.5,9.708,10.846,4.439,3.9,8.545,7,11.671,6.894s8.9-3.415,10.965-7.252c1.914-3.544,3.584-6.129,5.09-8.833.79-1.432,3.549.577,3.882-1.118A2.639,2.639,0,0,0,158.541,277.634Z" transform="translate(-75.268 -193.851)" fill="#9676ff"/>
      <path id="Path_4537" data-name="Path 4537" d="M104,334.31a1.873,1.873,0,0,1,.109.353l.273,1.024c.229.92.547,2.2.934,3.773.77,3.2,1.809,7.615,2.908,12.506s2.048,9.33,2.679,12.556c.313,1.615.547,2.923.691,3.832q.094.651.149,1.044a1.586,1.586,0,0,1,.035.368,1.958,1.958,0,0,1-.085-.358c-.05-.263-.114-.606-.2-1.039-.189-.93-.447-2.222-.77-3.812-.676-3.211-1.655-7.645-2.749-12.536s-2.108-9.29-2.838-12.516c-.353-1.581-.646-2.873-.855-3.8-.089-.427-.164-.77-.224-1.034a2.143,2.143,0,0,1-.06-.363Z" transform="translate(-70.93 -228.398)" fill="#263238"/>
      <path id="Path_4538" data-name="Path 4538" d="M159.459,289.063a.46.46,0,0,1-.1.065l-.308.179a12.8,12.8,0,0,1-1.218.641,22.488,22.488,0,0,1-4.8,1.6,38.2,38.2,0,0,1-7.456.85c-2.828.085-5.93-.06-9.176-.273-1.625-.1-3.216-.263-4.737-.5s-2.982-.552-4.339-.9a38.155,38.155,0,0,1-7.043-2.58,31.37,31.37,0,0,1-4.364-2.555c-.5-.328-.85-.631-1.1-.815l-.278-.224c-.065-.05-.094-.079-.089-.085l.1.065.3.2c.258.174.621.462,1.128.775a33.548,33.548,0,0,0,4.384,2.485,40.081,40.081,0,0,0,7.023,2.515c1.362.338,2.808.636,4.319.875s3.092.388,4.712.5c3.246.214,6.338.363,9.151.293a39.128,39.128,0,0,0,7.426-.805,23.462,23.462,0,0,0,4.787-1.516c.557-.219.949-.462,1.238-.592l.318-.154A.378.378,0,0,1,159.459,289.063Z" transform="translate(-76.185 -203.331)" fill="#263238"/>
      <path id="Path_4539" data-name="Path 4539" d="M133.4,257.867l-.094-.06-.273-.2L132,256.833c-.447-.343-.994-.79-1.6-1.292-.308-.254-.621-.547-.964-.845s-.691-.621-1.049-.994a27.757,27.757,0,0,1-4.474-5.468A17,17,0,0,1,121.4,240a29.516,29.516,0,0,1,1.178-8.579c.681-2.575,1.422-4.851,2.023-6.775s1.069-3.45,1.412-4.543c.154-.522.278-.939.373-1.243.04-.129.075-.234.1-.318a.363.363,0,0,1,.045-.109v.114l-.08.328-.328,1.253c-.3,1.084-.751,2.649-1.332,4.573s-1.3,4.21-1.988,6.78a30.1,30.1,0,0,0-1.148,8.5,16.9,16.9,0,0,0,2.485,8.132,28.623,28.623,0,0,0,4.414,5.468c.353.358.7.686,1.039.994s.641.6.944.86c.611.5,1.123.969,1.566,1.322l.994.815.258.219C133.377,257.837,133.407,257.862,133.4,257.867Z" transform="translate(-79.68 -170.117)" fill="#263238"/>
      <path id="Path_4540" data-name="Path 4540" d="M162.865,176.515c0,.055-.8.094-2.038.452a14,14,0,0,0-2.108.81,19.792,19.792,0,0,0-2.381,1.407,28.292,28.292,0,0,0-3.827,3.276,15.217,15.217,0,0,1-1.491,1.491,2.485,2.485,0,0,1,.328-.462c.224-.283.567-.686.994-1.163a23.8,23.8,0,0,1,3.808-3.365,17.781,17.781,0,0,1,2.431-1.407,12.049,12.049,0,0,1,2.157-.77,6.961,6.961,0,0,1,.865-.184,4.073,4.073,0,0,1,.661-.08,2.679,2.679,0,0,1,.6,0Z" transform="translate(-94.578 -149.03)" fill="#263238"/>
      <g id="Group_2356" data-name="Group 2356" transform="translate(40.183 41.317)" opacity="0.3">
        <path id="Path_4541" data-name="Path 4541" d="M126.721,206.619a12,12,0,0,0,.293-1.422.775.775,0,0,0-1.491-.358q-1.531,4.046-3.052,8.092c-1.988,5.333-4.051,10.8-4.155,16.5s1.715,12.039,6.531,15.086l-1.4-2.485c-3.634-4.971-3.733-11.77-2.346-17.78S125.18,212.594,126.721,206.619Z" transform="translate(-118.311 -204.356)"/>
      </g>
      <path id="Path_4542" data-name="Path 4542" d="M191.583,291.186c-.025,0,.119-.229.229-.661a3.057,3.057,0,0,0-.164-1.839,3.633,3.633,0,0,0-1.9-1.914,6.462,6.462,0,0,0-3.345-.5,26.2,26.2,0,0,0-3.415.587c-1.044.239-1.988.5-2.749.731s-1.392.442-1.824.586a4.811,4.811,0,0,1-.671.209,3.158,3.158,0,0,1,.636-.3c.423-.174,1.034-.408,1.8-.666s1.7-.537,2.749-.79a23.7,23.7,0,0,1,3.45-.611,6.651,6.651,0,0,1,3.479.542,3.812,3.812,0,0,1,1.988,2.068,3.037,3.037,0,0,1,.084,1.929,2.127,2.127,0,0,1-.214.5A.618.618,0,0,1,191.583,291.186Z" transform="translate(-108.017 -204.088)" fill="#263238"/>
      <g id="Group_2357" data-name="Group 2357" transform="translate(42.812 84.047)" opacity="0.3">
        <path id="Path_4543" data-name="Path 4543" d="M159.229,294.277a35.45,35.45,0,0,1-18.888,2.769c-6.392-.83-11.721-2.684-16.741-6.725,0,0,8.008,4.623,20.439,4.722C154.353,295.132,159.229,294.277,159.229,294.277Z" transform="translate(-123.6 -290.32)"/>
      </g>
    </g>
  </g>
</svg>
