<svg xmlns="http://www.w3.org/2000/svg" width="299.358" height="287.405" viewBox="0 0 299.358 287.405">
  <g id="Internet_on_the_go-cuate" data-name="Internet on the go-cuate" transform="translate(-37.79 -46.67)">
    <g id="freepik--background-complete--inject-139" transform="translate(43.294 46.67)">
      <path id="Path_5876" data-name="Path 5876" d="M158.32,64.458H224S217.492,46.67,207.486,46.67s-13.159,12.277-13.159,12.277-6.76-6.668-12.313-6.668-10.386,8.813-10.386,8.813S163.739,56.351,158.32,64.458Z" transform="translate(-78.778 -46.67)" fill="#ebebeb"/>
      <path id="Path_5877" data-name="Path 5877" d="M247.34,151.855h30.694s-6.858-9.935-12.263-9.935-7,6.619-7,6.619-3.81-3.091-7.345-2.54S247.34,151.855,247.34,151.855Z" transform="translate(-104.985 -74.712)" fill="#ebebeb" opacity="0.5"/>
      <path id="Path_5878" data-name="Path 5878" d="M45.59,123.655H76.284s-6.858-9.935-12.263-9.935-7,6.626-7,6.626-3.817-3.091-7.345-2.54S45.59,123.655,45.59,123.655Z" transform="translate(-45.59 -66.409)" fill="#ebebeb" opacity="0.5"/>
      <path id="Path_5879" data-name="Path 5879" d="M369.68,159.122h59.786s-8.185-18.282-16.934-19.418-12.955,13.6-12.955,13.6-5.645-5.2-10.09-5.2-7.875,6.851-7.875,6.851S372.728,150.239,369.68,159.122Z" transform="translate(-141.002 -74.041)" fill="#ebebeb"/>
      <path id="Path_5880" data-name="Path 5880" d="M350.58,88.036h40.382S384.025,74.791,376.5,74.629s-11.508,9.991-11.508,9.991S353.311,75.229,350.58,88.036Z" transform="translate(-135.379 -54.901)" fill="#ebebeb" opacity="0.5"/>
      <g id="freepik--aiZGp2--inject-139" transform="translate(160.122 149.721)">
        <path id="Path_5881" data-name="Path 5881" d="M279.16,270.064a19.531,19.531,0,0,0-1.319,6.012h-5.32v-.141l.042-.409a14.058,14.058,0,0,1,.353-2.117,15.976,15.976,0,0,1,1.178-3.281.12.12,0,0,1,.127-.078h4.939Z" transform="translate(-272.52 -262.154)" fill="#ebebeb"/>
        <path id="Path_5882" data-name="Path 5882" d="M279,286.656h-4.89a.113.113,0,0,1-.12-.078,14.562,14.562,0,0,1-1.214-3.7,13.959,13.959,0,0,1-.24-1.87.211.211,0,0,1,0-.071V280.8h5.228c.1,0,.092,0,.1.092.035.43.063.861.1,1.284a17.96,17.96,0,0,0,.332,2.018,18.891,18.891,0,0,0,.706,2.392A.461.461,0,0,1,279,286.656Z" transform="translate(-272.525 -265.319)" fill="#ebebeb"/>
        <path id="Path_5883" data-name="Path 5883" d="M306.415,291.276a.083.083,0,0,1-.042.071,14.912,14.912,0,0,1-1.411,1.8,13.456,13.456,0,0,1-1.976,1.87,14.205,14.205,0,0,1-2.314,1.411,13.9,13.9,0,0,1-2.441.953,15.425,15.425,0,0,1-2.039.437h-.318l-.113-.071.127-.092a15.678,15.678,0,0,0,3.86-3.74,17.282,17.282,0,0,0,1.573-2.618.12.12,0,0,1,.127-.078h5Z" transform="translate(-279.362 -268.386)" fill="#ebebeb"/>
        <path id="Path_5884" data-name="Path 5884" d="M301.053,276.074H294.18v-6h5.37a.1.1,0,0,1,.106.071,16.683,16.683,0,0,1,1.094,3.528,17.41,17.41,0,0,1,.261,1.905Z" transform="translate(-278.897 -262.16)" fill="#ebebeb"/>
        <path id="Path_5885" data-name="Path 5885" d="M301,280.85v.423a6.786,6.786,0,0,1-.1,1c-.064.459-.134.924-.226,1.376a16.37,16.37,0,0,1-.889,2.935.113.113,0,0,1-.127.085H294.15V280.85Z" transform="translate(-278.888 -265.334)" fill="#ebebeb"/>
        <path id="Path_5886" data-name="Path 5886" d="M289.2,270.12v6.012h-6.71v-.445c.035-.339.064-.706.113-1.009.085-.508.169-1.023.282-1.524a15.649,15.649,0,0,1,.967-2.963.106.106,0,0,1,.113-.071H289.2Z" transform="translate(-275.455 -262.175)" fill="#ebebeb"/>
        <path id="Path_5887" data-name="Path 5887" d="M289.2,280.963v5.729h-5.363a.113.113,0,0,1-.12-.078,15.2,15.2,0,0,1-.917-3.034c-.1-.529-.176-1.073-.24-1.609-.049-.353-.056-.706-.078-1.065h6.633C289.2,280.851,289.2,280.872,289.2,280.963Z" transform="translate(-275.452 -265.341)" fill="#ebebeb"/>
        <path id="Path_5888" data-name="Path 5888" d="M311.347,276.117H305.7a19.382,19.382,0,0,0-1.312-6.047h5.25a.113.113,0,0,1,.12.078,14.486,14.486,0,0,1,1.3,3.761,16.39,16.39,0,0,1,.275,2.117Z" transform="translate(-281.902 -262.16)" fill="#ebebeb"/>
        <path id="Path_5889" data-name="Path 5889" d="M311.434,280.79v.4c-.035.508-.1,1.009-.183,1.517a14.98,14.98,0,0,1-1.037,3.38l-.24.515c0,.042-.035.056-.085.056H304.66c.064-.176.127-.353.183-.529a17.576,17.576,0,0,0,.706-2.745,16.4,16.4,0,0,0,.24-2.039v-.487c0-.042,0-.063.063-.056h5.581Z" transform="translate(-281.982 -265.316)" fill="#ebebeb"/>
        <path id="Path_5890" data-name="Path 5890" d="M306.251,265.232h-5a.106.106,0,0,1-.113-.071,17.323,17.323,0,0,0-2.448-3.627,14.063,14.063,0,0,0-1.877-1.729c-.332-.254-.706-.5-1.023-.748l-.063-.042.071-.049a.2.2,0,0,0-.035-.106,14.556,14.556,0,0,1,4.982,1.5,14.345,14.345,0,0,1,5.5,4.876Z" transform="translate(-279.353 -258.86)" fill="#ebebeb"/>
        <path id="Path_5891" data-name="Path 5891" d="M286.33,297.806a.707.707,0,0,1-.148,0,13.649,13.649,0,0,1-1.6-.31,14.486,14.486,0,0,1-5.772-2.971,14.7,14.7,0,0,1-1.757-1.75,15.228,15.228,0,0,1-1.051-1.5v-.049h4.671c.064,0,.085,0,.113.078a17.36,17.36,0,0,0,1.686,2.745,17.069,17.069,0,0,0,1.976,2.187,15.334,15.334,0,0,0,1.905,1.531Z" transform="translate(-273.544 -268.39)" fill="#ebebeb"/>
        <path id="Path_5892" data-name="Path 5892" d="M286.3,259.078c-.212.155-.459.325-.706.508a17.112,17.112,0,0,0-2.216,2.074,15.17,15.17,0,0,0-2.336,3.323c-.042.078-.078.155-.12.226a.127.127,0,0,1-.071.049H276.12A14.648,14.648,0,0,1,286.252,259l-.035.056Z" transform="translate(-273.58 -258.901)" fill="#ebebeb"/>
        <path id="Path_5893" data-name="Path 5893" d="M298.972,291.3a16.011,16.011,0,0,1-2.272,3.069,14.3,14.3,0,0,1-2.59,2.2V291.3Z" transform="translate(-278.876 -268.41)" fill="#ebebeb"/>
        <path id="Path_5894" data-name="Path 5894" d="M290.054,291.3v5.172a15.043,15.043,0,0,1-4.664-5.172Z" transform="translate(-276.309 -268.41)" fill="#ebebeb"/>
        <path id="Path_5895" data-name="Path 5895" d="M298.851,265.8H294.18V260.86a14.541,14.541,0,0,1,2.625,2.216A16.935,16.935,0,0,1,298.851,265.8Z" transform="translate(-278.897 -259.449)" fill="#ebebeb"/>
        <path id="Path_5896" data-name="Path 5896" d="M290.131,261.1v4.812H285.65A14.2,14.2,0,0,1,290.131,261.1Z" transform="translate(-276.385 -259.519)" fill="#ebebeb"/>
      </g>
      <path id="Path_5897" data-name="Path 5897" d="M211.3,237.217a3.387,3.387,0,1,1-3.387-3.387,3.387,3.387,0,0,1,3.387,3.387Z" transform="translate(-92.382 -101.77)" fill="#ebebeb"/>
      <path id="Path_5898" data-name="Path 5898" d="M193.958,247.874a3.387,3.387,0,1,1-.992-2.4A3.394,3.394,0,0,1,193.958,247.874Z" transform="translate(-87.271 -104.905)" fill="#ebebeb"/>
      <path id="Path_5899" data-name="Path 5899" d="M211.3,258.527a3.387,3.387,0,1,1-3.387-3.387A3.387,3.387,0,0,1,211.3,258.527Z" transform="translate(-92.382 -108.043)" fill="#ebebeb"/>
      <path id="Path_5900" data-name="Path 5900" d="M204.222,238.63l-12.242,7.522,12.242,7.9" transform="translate(-88.687 -103.183)" fill="none" stroke="#ebebeb" stroke-miterlimit="10" stroke-width="2"/>
    </g>
    <g id="freepik--Water--inject-139" transform="translate(180.477 166.149)">
      <path id="Path_5901" data-name="Path 5901" d="M396.04,216H244.808c-11.417,0-.085,3.824,9.37,4.234s38.06,2.455,37.961,5.109-15.128,5.722-15.128,9.7,43.747,7.134,45.709,9.434-4.706,3.02-1.792,5.433c2.18,1.806,33.107,3.528,46.005,6.075,4.3.84-2.618,5.059,4.234,8.552,3.091,1.566,24.844,2.858,24.844,2.858Z" transform="translate(-240.01 -216)" fill="#ebebeb"/>
      <path id="Path_5902" data-name="Path 5902" d="M403.733,216H270.374c-10.069,0-.078,3.824,8.263,4.234s33.551,2.455,33.467,5.109-13.336,5.722-13.336,9.7,38.589,7.134,40.3,9.434-4.149,3.02-1.581,5.433c1.926,1.806,29.2,3.528,40.565,6.075,3.789.84-2.307,5.059,3.761,8.552,2.724,1.566,21.874,2.858,21.874,2.858Z" transform="translate(-247.704 -216)" fill="#dbdbdb"/>
      <path id="Path_5903" data-name="Path 5903" d="M276.77,217.36a7.056,7.056,0,0,0,1.475.31l1.5.191,3.006.31,6.019.579c4.015.374,8.023.79,12.038,1.207s8.016.91,12,1.616a14.685,14.685,0,0,1,2.978.769,6.294,6.294,0,0,1,1.348.776,2.18,2.18,0,0,1,.917,1.319,2,2,0,0,1-.494,1.51,5.9,5.9,0,0,1-1.1,1.037,16.985,16.985,0,0,1-2.583,1.581,20.66,20.66,0,0,0,2.47-1.729,5.8,5.8,0,0,0,1.009-1.073,1.658,1.658,0,0,0,.367-1.291,1.849,1.849,0,0,0-.811-1.065,5.885,5.885,0,0,0-1.284-.706,14.749,14.749,0,0,0-2.893-.642c-3.973-.593-7.98-1.03-12-1.454s-8.016-.882-12-1.369l-6-.776L279.741,218A15.565,15.565,0,0,1,276.77,217.36Z" transform="translate(-250.832 -216.4)" fill="#fff"/>
      <path id="Path_5904" data-name="Path 5904" d="M336.36,241.23a14.367,14.367,0,0,0,2.985.656c1.009.148,2.025.254,3.041.346,2.032.183,4.064.3,6.1.416,4.078.233,8.157.4,12.235.579s8.164.4,12.242.755c1.016.1,2.039.2,3.055.36.515.078,1.023.162,1.538.275a4.938,4.938,0,0,1,1.531.579,1.263,1.263,0,0,1,.628.8,1.122,1.122,0,0,1-.43.967,6.732,6.732,0,0,1-1.362.875c-.931.48-1.87.875-2.787,1.3a19.4,19.4,0,0,0-2.653,1.411,4.8,4.8,0,0,0-1.087.924,1.5,1.5,0,0,0-.423,1.15c0,.31.4.607.811.826a8.388,8.388,0,0,0,1.369.543,27,27,0,0,0,2.935.706c3.987.762,8.058,1.178,12.108,1.665s8.121.868,12.158,1.552a27.53,27.53,0,0,1,3.006.663,5.539,5.539,0,0,1,1.411.593,1.765,1.765,0,0,1,.536.586,3.822,3.822,0,0,1,.367.706,5.285,5.285,0,0,1,.141,3.048,9.744,9.744,0,0,1-1.129,2.822,9.736,9.736,0,0,0,1.044-2.858,5.25,5.25,0,0,0-.2-2.971,3.688,3.688,0,0,0-.36-.656,1.545,1.545,0,0,0-.5-.522,5.461,5.461,0,0,0-1.411-.536,30.251,30.251,0,0,0-2.992-.579c-4.029-.586-8.1-.931-12.165-1.334s-8.136-.811-12.172-1.559a28.333,28.333,0,0,1-3.013-.706,9.327,9.327,0,0,1-1.482-.579,3.16,3.16,0,0,1-.706-.48,1.291,1.291,0,0,1-.466-.854,2.117,2.117,0,0,1,.564-1.658,5.821,5.821,0,0,1,1.228-1.065,20.536,20.536,0,0,1,2.738-1.475c.931-.437,1.87-.84,2.766-1.291a5.968,5.968,0,0,0,1.207-.762c.169-.141.247-.3.226-.353a.91.91,0,0,0-.318-.332,8.241,8.241,0,0,0-2.822-.776c-.995-.155-2.011-.268-3.02-.367-4.05-.4-8.136-.593-12.207-.847S352.469,243.3,348.4,243c-2.039-.162-4.071-.346-6.1-.586-1.016-.12-2.032-.254-3.034-.423a14.254,14.254,0,0,1-2.9-.762Z" transform="translate(-268.376 -223.428)" fill="#fff"/>
      <path id="Path_5905" data-name="Path 5905" d="M375.36,236.89q6.118.085,12.228.706c2.032.183,4.064.459,6.082.8a24.894,24.894,0,0,1,5.983,1.637,3.168,3.168,0,0,1,1.319,1.08,2.6,2.6,0,0,1,.282,1.715,3.2,3.2,0,0,1-.79,1.5,7.588,7.588,0,0,1-1.185,1.058c-.423.318-.854.6-1.27.882a5.855,5.855,0,0,0-1.108.9c-.134.176-.162.289-.113.388a.839.839,0,0,0,.437.332,7.053,7.053,0,0,0,1.411.438,48.68,48.68,0,0,0,6.026.8c2.032.191,4.064.31,6.1.43a70.565,70.565,0,0,1-12.242-.706,6.816,6.816,0,0,1-1.531-.43,1.9,1.9,0,0,1-.388-.212,1.178,1.178,0,0,1-.346-.4.882.882,0,0,1-.063-.586,1.264,1.264,0,0,1,.233-.445,5.965,5.965,0,0,1,1.235-1.044c.423-.3.84-.579,1.242-.875a4.036,4.036,0,0,0,1.7-2.166,1.94,1.94,0,0,0-.219-1.242,2.632,2.632,0,0,0-1.037-.8,24.089,24.089,0,0,0-5.779-1.63c-2-.374-4.015-.635-6.033-.91s-4.043-.473-6.075-.67S377.392,237.066,375.36,236.89Z" transform="translate(-279.857 -222.15)" fill="#fff"/>
    </g>
    <g id="freepik--Beach--inject-139" transform="translate(37.79 135.886)">
      <path id="Path_5906" data-name="Path 5906" d="M183.1,205.857s4.466-7.239,4.657-12.32c.2-5.546-3.182-11.466-3.182-11.466l.261-.212s4.784,6.089,4.325,12.5a26.3,26.3,0,0,1-4.05,11.494Z" transform="translate(-80.569 -175.686)" fill="#263238"/>
      <path id="Path_5907" data-name="Path 5907" d="M185.26,180.829s2.822-2.547,4.163-2.47,3.994,3.083,3.994,3.189-2.293-1.595-2.293-1.595l1.341,1.736-1.919-1.778.621,1.489-1.15-1.651.31,1.566-1.016-1.51.529,1.164-.84-.945.31.84-.706-.748.579,1.08-.995-.974.388.868-.579-.6c-.078-.085.169.579.169.579l-.811-.847.191.748-.416-.437.085.437-.416-.437.092.4-.628-.416.085.2Z" transform="translate(-81.205 -174.655)" fill="#263238"/>
      <path id="Path_5908" data-name="Path 5908" d="M185.29,181.83s4.558.487,5.645,1.319a17.22,17.22,0,0,1,2.688,3.634l-2.293-2.343,1.136,2.343-1.63-2.5.332,2.067-1.2-2.336.452,2.046-.868-2.336.282,2.23-1.044-2.441.289,1.757-.889-1.962.332,1.736-1.2-2.272.452,1.94-.882-2.117.12,1.016-.706-1.242.24.826-.755-1.058.1.706Z" transform="translate(-81.214 -175.677)" fill="#263238"/>
      <path id="Path_5909" data-name="Path 5909" d="M185.32,179.6s.247-3.14,1.073-3.867a14.236,14.236,0,0,1,3.528-1.545l-1.609.783,1.609-.141-2.187.452,1.757.106-1.9.226,1.792.473-1.983-.141,1.051.374-1.319.12,1.531.2-1.8.254h1.256l-1.757.452a7.91,7.91,0,0,1,1.228,0,8.2,8.2,0,0,1-1.369.416l.748.1-.854.148.642.247h-.826l.642.162-.706.191.289.12-.536.261Z" transform="translate(-81.223 -173.428)" fill="#263238"/>
      <path id="Path_5910" data-name="Path 5910" d="M184.9,181.81s-1.411,2.385-1.108,4.043a18.734,18.734,0,0,0,2.194,4.608l-.931-1.877,1.3,1.2L184.9,187.9l1.454.847-1.305-1.319,1.185.43-1.08-1.016,1.2.459-1.2-.931,1.08.268-1.411-.91,1.327.409-1.016-.614.953.141-1.185-.706.981.042-1.2-.769,1.115.289-1.094-.642.91.064s-.748-.557-.79-.557l.706.127-.628-.706.339-.063Z" transform="translate(-80.76 -175.671)" fill="#263238"/>
      <path id="Path_5911" data-name="Path 5911" d="M182.709,180.042s-1.348-3.083-2.646-3.747a9.441,9.441,0,0,0-3.613-.607l1.644.36-1.5.127,2.441.233-2.328.2,2.879.318-2.575.191,2.159.374-1.143.289,1.708-.071L178.32,178l1.849.212-1.3.318h2.2l-1.3.367h1.411l-.854.226s1.214.261,1.312.261-.706.056-.706.056l1.341.275-.459.042Z" transform="translate(-78.611 -173.868)" fill="#263238"/>
      <path id="Path_5912" data-name="Path 5912" d="M184.289,179.249s.049-3.824-.515-4.805a3.422,3.422,0,0,0-1.82-1.334l.981.762-.967-.134,1.023.621-1.1-.085,1.319.579-1.072-.127.988.459h-.656l.917.536-.783-.183.882.621-.811-.219.995.706-.706-.233.953.706-.706-.212.706.466-.43-.078.564.466-.48-.219.564.579-.346-.127Z" transform="translate(-80.213 -173.11)" fill="#263238"/>
      <path id="Path_5913" data-name="Path 5913" d="M181.565,181.632s-4.332-1.355-6.273-.706a5.593,5.593,0,0,0-2.872,2.971l1.411-1.411-.445,1.524,1.242-1.827-.346,1.708.826-1.722-.289,1.778.953-1.877-.2,1.94.938-2.053-.247,1.489.931-1.708-.508,2.011,1.08-2.011-.3,1.75c0-.085.769-1.651.769-1.651l-.141,1.143.593-1.08-.106.833.706-.995-.233.938.706-.938-.113.564a9.335,9.335,0,0,1,.741-.6A6.765,6.765,0,0,1,181.565,181.632Z" transform="translate(-77.425 -175.359)" fill="#263238"/>
      <path id="Path_5914" data-name="Path 5914" d="M183.865,181.86s-2.491.649-3.267,1.736-.071,5.2-.071,5.2v-2.371l.529,1.129-.43-1.736.854,1.214-.769-1.933.91,1.411-.663-1.912.84,1.376-.522-1.849.706,1.411-.268-1.75.515,1.065-.24-1.369.445.8-.141-1.171.275.642.127-.84v.459l.275-.9v.459l.318-.607Z" transform="translate(-79.725 -175.686)" fill="#263238"/>
      <path id="Path_5915" data-name="Path 5915" d="M181.675,213.282h5.045s-.325-1.792,1.99-2.646a3.126,3.126,0,0,0-2.378,1.517s1.136-3.034,3.584-3.584a6.266,6.266,0,0,0-4.234,3.337s-.494-2.653,3.14-4.121c0,0-3.288.247-4.537,4.339,0,0,.663-3.528-2.067-5.045a5.105,5.105,0,0,1,1.461,3.8,3.74,3.74,0,0,0-3.909-2.477s3.083.988,3.33,3.083a3.93,3.93,0,0,0-2.822-1.708s1.538.769,1.771,1.475c0,0-.995-.91-1.849-.445A1.912,1.912,0,0,1,181.675,213.282Z" transform="translate(-79.589 -183.111)" fill="#263238"/>
      <path id="Path_5916" data-name="Path 5916" d="M101.75,208.637s3.232-5.229,3.366-8.9c.155-4-2.293-8.284-2.293-8.284l.183-.148s3.457,4.4,3.126,9.032a19.009,19.009,0,0,1-2.928,8.3Z" transform="translate(-56.62 -178.465)" fill="#263238"/>
      <path id="Path_5917" data-name="Path 5917" d="M103.32,190.555s2.053-1.849,3.006-1.785,2.886,2.223,2.886,2.3-1.658-1.15-1.658-1.15l.974,1.256-1.411-1.284.445,1.072-.8-1.192.226,1.136-.762-1.094.381.84-.607-.706.226.607-.529-.536.423.776-.706-.706.282.628s-.353-.374-.416-.43.12.416.12.416l-.579-.593.134.536-.3-.318.063.318-.3-.318.071.289-.459-.3.064.148Z" transform="translate(-57.082 -177.72)" fill="#263238"/>
      <path id="Path_5918" data-name="Path 5918" d="M103.34,191.28s3.3.353,4.085.945a12.172,12.172,0,0,1,1.94,2.632l-1.658-1.693.826,1.693-1.2-1.806.24,1.5-.868-1.693.332,1.482-.628-1.686.2,1.609-.755-1.764.2,1.27-.642-1.411.24,1.256-.868-1.644.332,1.411-.635-1.51.085.706-.487-.9.169.6-.55-.783.071.48Z" transform="translate(-57.088 -178.459)" fill="#263238"/>
      <path id="Path_5919" data-name="Path 5919" d="M103.36,189.654s.176-2.272.776-2.822a10.542,10.542,0,0,1,2.554-1.122l-1.164.572,1.164-.106-1.581.325,1.27.078-1.369.162,1.291.346-1.411-.106.762.268-.96.092,1.108.148-1.3.183h.91l-1.27.325a5.332,5.332,0,0,1,.889,0,5.857,5.857,0,0,1-.995.3l.543.071-.621.106.466.176h-.6l.466.12-.508.134L104,189l-.388.191Z" transform="translate(-57.094 -176.819)" fill="#263238"/>
      <path id="Path_5920" data-name="Path 5920" d="M103.052,191.26a5.315,5.315,0,0,0-.8,2.921,14.556,14.556,0,0,0,1.581,3.33l-.706-1.362.938.868-1.051-1.355,1.051.607-.9-.96.854.31-.776-.706.861.325-.861-.67.776.191L103,194.1l.953.3-.706-.445.706.106-.861-.508h.706l-.868-.55.8.2-.79-.459.656.042s-.536-.4-.564-.4l.508.092-.459-.494.247-.049Z" transform="translate(-56.758 -178.453)" fill="#263238"/>
      <path id="Path_5921" data-name="Path 5921" d="M101.473,189.986s-.974-2.23-1.912-2.71a6.8,6.8,0,0,0-2.611-.437l1.185.261-1.087.085,1.764.169-1.679.148,2.117.233-1.863.141,1.559.268-.826.2,1.235-.049-1.023.212,1.334.148-.938.233h1.616l-.938.268h1l-.621.162s.875.183.946.183l-.515.042.967.2h-.332Z" transform="translate(-55.207 -177.151)" fill="#263238"/>
      <path id="Path_5922" data-name="Path 5922" d="M102.613,189.417a13.428,13.428,0,0,0-.374-3.472,2.477,2.477,0,0,0-1.277-.946l.706.55-.706-.092.706.452-.8-.064.96.423-.776-.092.706.325h-.473l.663.388-.564-.127.635.445-.586-.155.706.494-.522-.169.706.494-.508-.155.515.339-.3-.056.409.339-.353-.162.409.423-.247-.092Z" transform="translate(-56.361 -176.61)" fill="#263238"/>
      <path id="Path_5923" data-name="Path 5923" d="M100.65,191.108s-3.1-.967-4.516-.5a4.064,4.064,0,0,0-2.074,2.117l.995-1.023-.332,1.129.9-1.319-.247,1.235.6-1.249-.212,1.284.706-1.355-.148,1.411.706-1.482-.176,1.072.706-1.228-.367,1.454.776-1.454s-.233,1.319-.219,1.263.557-1.2.557-1.2l-.1.826.423-.776-.078.6.5-.706-.176.67.5-.67-.078.4s.48-.416.529-.43S100.65,191.108,100.65,191.108Z" transform="translate(-54.356 -178.224)" fill="#263238"/>
      <path id="Path_5924" data-name="Path 5924" d="M102.308,191.3a5.271,5.271,0,0,0-2.357,1.249c-.557.783-.049,3.761-.049,3.761V194.6l.381.818-.31-1.256.621.875-.557-1.411.656,1.03-.48-1.411.607.995-.374-1.334.508,1.03-.191-1.263.367.769-.169-.988.318.579-.1-.847.2.466.092-.607v.332l.2-.649v.332l.233-.445Z" transform="translate(-56.013 -178.465)" fill="#263238"/>
      <path id="Path_5925" data-name="Path 5925" d="M100.711,214h3.648s-.233-1.291,1.411-1.912a2.237,2.237,0,0,0-1.715,1.094s.819-2.187,2.59-2.59a4.537,4.537,0,0,0-3.076,2.413s-.36-1.919,2.272-2.978a4.032,4.032,0,0,0-3.274,3.14s.473-2.575-1.5-3.648a3.7,3.7,0,0,1,1.051,2.752A2.7,2.7,0,0,0,99.3,210.48s2.23.706,2.406,2.23a2.822,2.822,0,0,0-2.053-1.235s1.136.536,1.319,1.073c0,0-.706-.656-1.334-.318C99.66,212.229,100.972,212.406,100.711,214Z" transform="translate(-55.899 -183.829)" fill="#263238"/>
      <path id="Path_5926" data-name="Path 5926" d="M130.389,208.846h3.436s-5.849-4.939-6.774-9.878.741-7.056.741-7.056l-.353-.212a11.219,11.219,0,0,0-.995,7.345C127.341,203.138,130.389,208.846,130.389,208.846Z" transform="translate(-63.823 -178.583)" fill="#263238"/>
      <path id="Path_5927" data-name="Path 5927" d="M125.771,192.26a17.18,17.18,0,0,0-4.114,2.117c-.995.96-1.228,4.657-1.228,4.657l.656-2.6-.282,2.223.8-2.858-.071,2.822.543-3.528.049,2.886.353-3.048.261,2.321.12-2.47.233,1.9.282-2.3-.071,2.06.642-2.364-.12,1.489.706-1.63-.247,1.228.515-1.538-.113.854Z" transform="translate(-62.119 -178.748)" fill="#263238"/>
      <path id="Path_5928" data-name="Path 5928" d="M127.929,192.26a4.78,4.78,0,0,1,2.117,2.554,15.594,15.594,0,0,1-.381,4.537v-2.413l-.607,1.609.346-2.336-.593,1.722.247-2.307-.55,1.221.374-1.962-.593.924.346-1.616-.614.945.353-1.708-.473.8.233-1.3-.374.522.261-.826Z" transform="translate(-64.277 -178.748)" fill="#263238"/>
      <path id="Path_5929" data-name="Path 5929" d="M124.742,191.359a7,7,0,0,0-3.2-2.907,6.054,6.054,0,0,0-4.085.332l2.293-.141-1.538.593,2.223-.219-1.7.9,2.364-.593s-1.489,1.468-1.411,1.369,1.82-1.207,1.82-1.207l-1.016,1.588,1.581-1.291-.967,1.573,1.461-1.178-1.2,1.369,1.75-.854-.91.9,1.3-.543-.564.543,1.115-.543Z" transform="translate(-61.245 -177.565)" fill="#263238"/>
      <path id="Path_5930" data-name="Path 5930" d="M126.213,188.966s.191-3.641-.642-5.341-3.641-2.554-3.641-2.554l1.891,1.489-1.891-.706,2.117,1.157s-1.75-.3-1.82-.332l2.117.8-2.117-.049,2.173.473-1.962.078,2.053.473-2.053.071,2.54.515-2.117-.162,2.117.635-1.785-.071,2.011.706-1.658-.141,1.75.543-1.065-.071,1.305.543-.974.049,1.087.31-.706.113.861.36h-.967l.967.494Z" transform="translate(-62.561 -175.453)" fill="#263238"/>
      <path id="Path_5931" data-name="Path 5931" d="M128,192.312a6.512,6.512,0,0,1,3.33-.8,8.968,8.968,0,0,1,3.408,1.849l-1.228-.621.586,1.023-1.016-1.143.332,1.5-.663-1.411-.042,1.277L132,192.566v1.327l-.572-1.327.049,1.538-.706-1.538-.092,1.087-.36-1.277-.2.882-.325-.8-.261.706-.191-.9-.169.706-.325-.642Z" transform="translate(-64.348 -178.518)" fill="#263238"/>
      <path id="Path_5932" data-name="Path 5932" d="M127.986,188.893s-.226-3.309.48-4.728a10.586,10.586,0,0,1,3.006-2.935l-1.369,1.517,1.5-.4-1.828.946h1.743l-1.912.4a9.007,9.007,0,0,0,1.3.522c.141,0-1.538-.212-1.538-.212l1.192.847-1.454-.374,1.305.706-1.411-.212,1.051.487-1.242-.049s.868.416.9.416l-1.087-.056.945.586-.974-.056.854.4h-.861l.579.212-.706.162.706.071-.706.176.621.134-.649.092.466.155-.607.106.353.212-.459.155.247.106Z" transform="translate(-64.333 -175.501)" fill="#263238"/>
      <path id="Path_5933" data-name="Path 5933" d="M128,190.739s1.355-3.034,2.822-3.958,4.9-.586,4.9-.586l-2.752.48,2.089.776-2.568-.339,1.757.833-2.357-.564,1.595.96-2.321-.706,1.842,1.15-2.272-.854,1.454,1.334-1.771-1.065,1.362,1.277-1.658-.96.889,1.242-1.207-.9.748,1.051-1.03-.748.614.9-.882-.515.55.776-.924-.522.607.642s-.8-.381-.854-.381.36.381.36.381l-.55-.12Z" transform="translate(-64.348 -176.944)" fill="#263238"/>
      <path id="Path_5934" data-name="Path 5934" d="M128.285,213.807s.212-1.348-1.665-2.822a3.528,3.528,0,0,1,1.863,1.722,3.168,3.168,0,0,0-2.343-2.822,3.316,3.316,0,0,1,2.872,2.265,4.724,4.724,0,0,0-2.117-3.6,5.423,5.423,0,0,1,2.822,3.465,5.807,5.807,0,0,1,3.634-2.272s-2.194.882-2.223,2.583c0,0,1.6-2.117,3.592-1.983,0,0-2.272.607-2.272,2.216a2.561,2.561,0,0,1,2.413-1.291s-2.5.988-1.411,2.5Z" transform="translate(-63.8 -183.544)" fill="#263238"/>
      <path id="Path_5935" data-name="Path 5935" d="M207.887,209.921h2.928s-4.989-4.234-5.772-8.4.635-5.984.635-5.984l-.3-.183a9.533,9.533,0,0,0-.847,6.259A41.7,41.7,0,0,0,207.887,209.921Z" transform="translate(-86.82 -179.657)" fill="#263238"/>
      <path id="Path_5936" data-name="Path 5936" d="M203.919,195.76a16.02,16.02,0,0,0-3.528,1.771c-.868.783-1.051,3.973-1.051,3.973l.564-2.216-.24,1.891.706-2.434-.064,2.392.466-3.02.042,2.455.3-2.6.219,1.983.1-2.117.2,1.609.24-1.954-.056,1.757.543-2.018-.106,1.27.593-1.411-.2,1.051.437-1.312-.1.706Z" transform="translate(-85.35 -179.778)" fill="#263238"/>
      <path id="Path_5937" data-name="Path 5937" d="M205.777,195.76a3.937,3.937,0,0,1,1.771,2.173,14.711,14.711,0,0,1-.325,3.874v-2.06l-.515,1.411.3-2-.508,1.468.212-1.962-.473,1.037.325-1.672-.522.72.36-1.369-.522.8.3-1.446-.4.706.2-1.108-.325.445.226-.706Z" transform="translate(-87.208 -179.778)" fill="#263238"/>
      <path id="Path_5938" data-name="Path 5938" d="M203.062,194.991a5.934,5.934,0,0,0-2.717-2.477,5.158,5.158,0,0,0-3.486.282l1.955-.12-1.312.5,1.9-.183-1.454.769,2.018-.5s-1.27,1.249-1.214,1.164,1.552-1.03,1.552-1.03l-.868,1.355,1.355-1.1-.826,1.341,1.249-1.009-1.009,1.171,1.489-.706-.783.79,1.108-.466-.487.466.953-.466Z" transform="translate(-84.62 -178.77)" fill="#263238"/>
      <path id="Path_5939" data-name="Path 5939" d="M204.308,192.951s.155-3.1-.55-4.558-3.1-2.173-3.1-2.173l1.609,1.27-1.609-.628,1.827.988s-1.489-.261-1.545-.282l1.771.706H200.9l1.856.4-1.672.056,1.75.4-1.75.063,2.159.445-1.8-.141,1.8.543-1.517-.063,1.715.586-1.411-.12,1.489.466-.9-.063,1.108.466-.826.042.924.261-.579.1.741.3h-.826l.826.423Z" transform="translate(-85.739 -176.97)" fill="#263238"/>
      <path id="Path_5940" data-name="Path 5940" d="M205.83,195.805a5.511,5.511,0,0,1,2.822-.706,7.7,7.7,0,0,1,2.907,1.573l-1.051-.522.5.861-.826-.945.282,1.27-.564-1.207-.042,1.087-.586-1.185v1.115l-.48-1.122.035,1.305-.621-1.305-.085.924-.3-1.087-.148.762-.275-.706-.219.607-.162-.769-.141.614-.282-.55Z" transform="translate(-87.261 -179.583)" fill="#263238"/>
      <path id="Path_5941" data-name="Path 5941" d="M205.837,192.894s-.2-2.822.409-4.036a8.995,8.995,0,0,1,2.554-2.5l-1.157,1.291,1.277-.346-1.566.811h1.461l-1.63.339a7.362,7.362,0,0,0,1.108.445c.12,0-1.312-.183-1.312-.183l1.016.706-1.235-.325,1.108.6-1.171-.183.9.416-1.058-.042s.741.353.769.353l-.931-.049.811.5-.826-.049.706.346h-.706l.494.176-.593.141.572.063-.593.148.536.113-.557.078.4.134-.515.092.3.183-.4.127.212.092Z" transform="translate(-87.254 -177.011)" fill="#263238"/>
      <path id="Path_5942" data-name="Path 5942" d="M205.83,194.463s1.15-2.59,2.434-3.373,4.17-.5,4.17-.5l-2.343.409,1.743.706-2.194-.282,1.5.706-2-.48,1.355.811-1.983-.586,1.573.981-1.933-.706,1.242,1.136-1.517-.91,1.164,1.094-1.411-.847.769,1.058-1.03-.811.642.9-.882-.635.522.769-.748-.437.466.663-.776-.437.515.55-.706-.325.3.325-.466-.1Z" transform="translate(-87.261 -178.241)" fill="#263238"/>
      <path id="Path_5943" data-name="Path 5943" d="M206.09,214.145s.183-1.15-1.411-2.385a2.992,2.992,0,0,1,1.588,1.461,2.709,2.709,0,0,0-2-2.385,2.822,2.822,0,0,1,2.448,1.933,4.036,4.036,0,0,0-1.8-3.069,4.72,4.72,0,0,1,2.42,2.956,4.939,4.939,0,0,1,3.091-1.969s-1.87.748-1.891,2.194c0,0,1.369-1.835,3.062-1.686,0,0-1.933.515-1.933,1.884a2.187,2.187,0,0,1,2.053-1.1s-2.117.847-1.228,2.117Z" transform="translate(-86.802 -183.882)" fill="#263238"/>
      <path id="Path_5944" data-name="Path 5944" d="M57.918,209.438h3.168s-5.391-4.565-6.238-9.074.706-6.463.706-6.463l-.325-.191a10.288,10.288,0,0,0-.917,6.753A44.32,44.32,0,0,0,57.918,209.438Z" transform="translate(-42.592 -179.175)" fill="#263238"/>
      <path id="Path_5945" data-name="Path 5945" d="M53.638,194.15a16.661,16.661,0,0,0-3.789,1.912c-.91.847-1.129,4.29-1.129,4.29l.607-2.392L49.066,200l.706-2.632-.064,2.59.494-3.26.049,2.653.325-2.822.24,2.117.106-2.272.219,1.736.261-2.117-.064,1.9.586-2.18-.106,1.369.635-1.5-.226,1.129.48-1.411-.071.861Z" transform="translate(-41.008 -179.304)" fill="#263238"/>
      <path id="Path_5946" data-name="Path 5946" d="M55.637,194.15a4.257,4.257,0,0,1,1.912,2.35,15.747,15.747,0,0,1-.346,4.177v-2.216l-.557,1.475.325-2.117-.55,1.588.226-2.117-.508,1.122.353-1.806-.543.847.388-1.475-.564.868.325-1.566-.43.741.191-1.27-.346.48.24-.762Z" transform="translate(-43.007 -179.304)" fill="#263238"/>
      <path id="Path_5947" data-name="Path 5947" d="M52.7,193.323a6.391,6.391,0,0,0-2.935-2.674,5.567,5.567,0,0,0-3.768.3l2.117-.134-1.411.543,2.046-.191L47.185,192l2.173-.543s-1.369,1.348-1.305,1.263,1.679-1.115,1.679-1.115l-.91,1.461,1.411-1.185-.9,1.446L50.7,192.25l-1.087,1.263,1.609-.783-.847.847,1.2-.5-.522.5,1.023-.5Z" transform="translate(-40.207 -178.216)" fill="#263238"/>
      <path id="Path_5948" data-name="Path 5948" d="M54.044,191.109s.169-3.352-.593-4.939-3.352-2.35-3.352-2.35l1.743,1.369-1.743-.67,1.983,1.065s-1.609-.282-1.672-.3l1.912.706-1.962-.042,2,.437-1.806.064,1.891.437-1.891.064,2.336.48-1.94-.155,1.94.593-1.637-.071,1.849.635-1.524-.134,1.609.5-.981-.064,1.2.5-.889.042.995.282-.621.113.8.325H52.8l.889.459Z" transform="translate(-41.414 -176.263)" fill="#263238"/>
      <path id="Path_5949" data-name="Path 5949" d="M55.69,194.21a5.955,5.955,0,0,1,3.041-.741,8.219,8.219,0,0,1,3.133,1.7l-1.129-.572.543.938-.938-1.044.31,1.369-.593-1.312-.042,1.178-.628-1.284v1.221l-.522-1.221.042,1.411-.706-1.411-.085,1-.325-1.178-.162.826-.3-.706-.24.649-.176-.826-.155.656-.3-.593Z" transform="translate(-43.06 -179.103)" fill="#263238"/>
      <path id="Path_5950" data-name="Path 5950" d="M55.7,191.056s-.212-3.048.437-4.354A9.748,9.748,0,0,1,58.9,184l-1.249,1.411,1.411-.374-1.679.875h1.573l-1.764.367a7.988,7.988,0,0,0,1.2.48c.127,0-1.411-.2-1.411-.2l1.037.769-1.341-.346,1.2.642-1.27-.2.967.445-1.136-.042s.79.381.826.381l-1-.056.868.55-.889-.056.783.367h-.8l.536.2-.642.148.621.071-.642.162.572.12-.593.085.423.141-.557.1.325.2-.423.141.233.1Z" transform="translate(-43.052 -176.316)" fill="#263238"/>
      <path id="Path_5951" data-name="Path 5951" d="M55.69,192.754s1.242-2.822,2.632-3.648,4.5-.536,4.5-.536l-2.533.445,1.877.706-2.364-.31,1.616.762-2.166-.522,1.468.882L58.6,189.9l1.693,1.058-2.117-.783,1.341,1.228-1.637-.981,1.263,1.178-1.5-.917.826,1.143L57.348,191l.706.967-.953-.706.564.833-.819-.416.508.706-.847-.487.557.593a7.771,7.771,0,0,0-.783-.346c-.078,0,.325.346.325.346l-.508-.106Z" transform="translate(-43.06 -177.647)" fill="#263238"/>
      <path id="Path_5952" data-name="Path 5952" d="M55.969,214s.2-1.242-1.531-2.575A3.246,3.246,0,0,1,56.152,213,2.914,2.914,0,0,0,54,210.39a3.055,3.055,0,0,1,2.646,2.117,4.379,4.379,0,0,0-1.94-3.316,5.094,5.094,0,0,1,2.611,3.189,5.334,5.334,0,0,1,3.337-2.117s-2.018.811-2.046,2.371c0,0,1.482-1.983,3.309-1.82,0,0-2.117.557-2.117,2.039a2.364,2.364,0,0,1,2.216-1.192s-2.279.924-1.3,2.336Z" transform="translate(-42.562 -183.732)" fill="#263238"/>
      <path id="Path_5953" data-name="Path 5953" d="M37.79,214.492s20.731-2.963,30.743-3.528,50.486,1.835,51.812,2.074,39.986-1.016,49.576-1.411,167.227,2.921,167.227,2.921Z" transform="translate(-37.79 -184.229)" fill="#263238"/>
    </g>
    <g id="freepik--Birds--inject-139" transform="translate(123.838 68.359)">
      <path id="Path_5954" data-name="Path 5954" d="M338.77,130.3a11.458,11.458,0,0,0-1.573-.67,6.349,6.349,0,0,0-1.708-.4,1.347,1.347,0,0,0-.536.056.7.7,0,0,0-.162.078l-.106.078c-.071.049-.12.1-.183.148-.226.2-.423.416-.621.628-.388.437-.706.889-1.073,1.348l.423-.148a13.284,13.284,0,0,0-1.75-.367,7.567,7.567,0,0,0-.91-.063,2.925,2.925,0,0,0-.487.035,1.994,1.994,0,0,0-.261.063,2.121,2.121,0,0,0-.261.12,3.274,3.274,0,0,0-.706.663c-.191.24-.353.487-.515.706a10.9,10.9,0,0,0-.811,1.559c.374-.452.706-.9,1.122-1.327a8.08,8.08,0,0,1,.586-.614,2.985,2.985,0,0,1,.614-.48,1.672,1.672,0,0,1,.706-.071,4.753,4.753,0,0,1,.819.113c.55.1,1.108.24,1.651.381l.268.078.155-.226c.318-.452.656-.9.995-1.327a7.415,7.415,0,0,1,.529-.607l.134-.127.064-.049h0a1.009,1.009,0,0,1,.3-.056,8.122,8.122,0,0,1,1.616.155C337.655,130.084,338.213,130.2,338.77,130.3Z" transform="translate(-209.137 -92.665)" fill="#263238"/>
      <path id="Path_5955" data-name="Path 5955" d="M327.365,153.313a19.651,19.651,0,0,0-2.117-1.447,9.879,9.879,0,0,0-2.4-1.08,2.315,2.315,0,0,0-.8-.071.96.96,0,0,0-.261.071l-.176.078a3.344,3.344,0,0,0-.318.169c-.4.233-.748.487-1.1.741a24.86,24.86,0,0,0-1.969,1.672l.67-.1a20.46,20.46,0,0,0-2.463-1.051,10.954,10.954,0,0,0-1.319-.36,5.839,5.839,0,0,0-.706-.092,1.975,1.975,0,0,0-.4,0,2.479,2.479,0,0,0-.423.106,4.594,4.594,0,0,0-1.207.769,11.989,11.989,0,0,0-.967.924,15.815,15.815,0,0,0-1.651,2.053c.706-.55,1.348-1.108,2.039-1.623a11.033,11.033,0,0,1,1.037-.706,4.55,4.55,0,0,1,1.044-.529,2.371,2.371,0,0,1,1.023.106,9.584,9.584,0,0,1,1.171.4c.776.3,1.559.706,2.307,1.037l.374.191.3-.282c.593-.572,1.228-1.129,1.849-1.658.318-.261.635-.522.953-.741.078-.049.162-.106.233-.141l.113-.064h.042a1.363,1.363,0,0,1,.459,0,13.018,13.018,0,0,1,2.328.706C325.791,152.671,326.567,153.031,327.365,153.313Z" transform="translate(-203.906 -98.988)" fill="#263238"/>
      <path id="Path_5956" data-name="Path 5956" d="M171.446,87.472A12.83,12.83,0,0,0,170,86.555a6.541,6.541,0,0,0-1.623-.706,1.411,1.411,0,0,0-.536,0,.9.9,0,0,0-.169.049l-.12.056-.2.12a6.866,6.866,0,0,0-.706.522,16.584,16.584,0,0,0-1.284,1.15l.445-.078a13.57,13.57,0,0,0-1.665-.649,7.106,7.106,0,0,0-.889-.212,3.469,3.469,0,0,0-.487-.042,1.863,1.863,0,0,0-.268,0,2.012,2.012,0,0,0-.275.078,3.125,3.125,0,0,0-.79.543,7.6,7.6,0,0,0-.628.635,10.758,10.758,0,0,0-1.058,1.411c.445-.381.875-.769,1.327-1.122a7.766,7.766,0,0,1,.706-.515,3.111,3.111,0,0,1,.706-.367,1.6,1.6,0,0,1,.706.042,5.886,5.886,0,0,1,.783.247c.529.183,1.058.409,1.566.642l.254.12.19-.2c.381-.4.79-.776,1.2-1.143a6,6,0,0,1,.621-.515.9.9,0,0,1,.148-.1l.071-.042h0a.846.846,0,0,1,.31,0,8.107,8.107,0,0,1,1.566.423C170.38,87.077,170.91,87.282,171.446,87.472Z" transform="translate(-159.74 -79.886)" fill="#263238"/>
      <path id="Path_5957" data-name="Path 5957" d="M188.827,82.765a19.672,19.672,0,0,0-1.588-2.011,10.308,10.308,0,0,0-1.976-1.743,2.188,2.188,0,0,0-.741-.3,1.581,1.581,0,0,0-.268,0h-.191a1.839,1.839,0,0,0-.353.064,11.579,11.579,0,0,0-1.27.388c-.819.289-1.595.642-2.378,1.009l.67.106a19.92,19.92,0,0,0-2.039-1.743,10.072,10.072,0,0,0-1.157-.706,4.749,4.749,0,0,0-.663-.3,3.112,3.112,0,0,0-.388-.106,3.024,3.024,0,0,0-.437,0,4.579,4.579,0,0,0-1.411.374c-.416.176-.811.381-1.2.593a17.2,17.2,0,0,0-2.187,1.475c.818-.325,1.616-.663,2.427-.946.4-.141.811-.282,1.214-.388a4.445,4.445,0,0,1,1.15-.191,2.413,2.413,0,0,1,.953.4,9.478,9.478,0,0,1,.995.706c.649.522,1.291,1.1,1.9,1.679l.36.233.36-.183c.706-.367,1.5-.706,2.258-1.03a10.116,10.116,0,0,1,1.129-.423l.268-.071h.169a1.242,1.242,0,0,1,.437.134,12.171,12.171,0,0,1,2.011,1.362C187.514,81.65,188.163,82.194,188.827,82.765Z" transform="translate(-163.128 -77.409)" fill="#263238"/>
      <path id="Path_5958" data-name="Path 5958" d="M355.684,146.364a18.776,18.776,0,0,0-1.581-2,9.879,9.879,0,0,0-1.976-1.743,2.118,2.118,0,0,0-.706-.3.835.835,0,0,0-.268,0,1.706,1.706,0,0,0-.2,0,2.5,2.5,0,0,0-.346.071,11.138,11.138,0,0,0-1.27.381c-.819.3-1.595.642-2.378,1.009l.663.106a19.107,19.107,0,0,0-2.032-1.736,11.468,11.468,0,0,0-1.157-.706,4.485,4.485,0,0,0-.67-.3,1.945,1.945,0,0,0-.388-.1,2.882,2.882,0,0,0-.43,0,4.728,4.728,0,0,0-1.411.381c-.416.176-.811.381-1.2.593a16.442,16.442,0,0,0-2.187,1.468c.811-.318,1.616-.656,2.427-.938a11.007,11.007,0,0,1,1.214-.388,4.163,4.163,0,0,1,1.15-.191,2.251,2.251,0,0,1,.953.4,9.4,9.4,0,0,1,.995.706c.649.522,1.291,1.1,1.891,1.679l.3.289.367-.183c.706-.367,1.5-.706,2.258-1.03a11.073,11.073,0,0,1,1.129-.423,1.662,1.662,0,0,0,.268-.071h.162a1.241,1.241,0,0,1,.438.134,13,13,0,0,1,2.018,1.362C354.379,145.284,355.028,145.828,355.684,146.364Z" transform="translate(-212.264 -96.138)" fill="#263238"/>
    </g>
    <g id="freepik--Shadow--inject-139" transform="translate(45.799 306.317)">
      <ellipse id="Ellipse_452" data-name="Ellipse 452" cx="141.727" cy="13.879" rx="141.727" ry="13.879" fill="#ebebeb"/>
    </g>
    <g id="freepik--Umbrella--inject-139" transform="translate(40.274 91.229)">
      <rect id="Rectangle_2508" data-name="Rectangle 2508" width="3.803" height="159.642" transform="translate(67.78 22.665) rotate(-18.81)" fill="#a6a6a6"/>
      <path id="Path_5959" data-name="Path 5959" d="M136.277,123.48l-5.228,1.778-3.719-14.373,3.119-1.065Z" transform="translate(-66.634 -109.82)" fill="#a6a6a6"/>
      <path id="Path_5960" data-name="Path 5960" d="M197.735,132.51s-11.861,3.881-19.136,6.52-20.625,7.056-20.625,7.056-12,4.339-19.566,6.746-18.875,6.35-18.875,6.35-11.41,3.676-18.875,6.372-19.573,6.668-19.573,6.668-13.258,4.692-20.639,7.056S41.31,185.8,41.31,185.8c5.983-22.262,28.542-50.323,65.811-63.017S179.389,118.525,197.735,132.51Z" transform="translate(-41.31 -111.801)" fill="#9676ff"/>
      <g id="Group_2400" data-name="Group 2400" transform="translate(0 5.691)" opacity="0.1">
        <path id="Path_5961" data-name="Path 5961" d="M225.2,132.9c-3.337-1.411-6.7-2.724-10.132-3.987s-6.858-2.512-10.365-3.655a147.869,147.869,0,0,0-21.761-5.645,55.85,55.85,0,0,0-11.678-.889c-4.029.113-8.1.437-12.172.8s-8.157.875-12.235,1.482-8.178,1.3-12.249,2.117a189.649,189.649,0,0,1,24.527-4.283c4.1-.466,8.192-.762,12.263-.917a56.236,56.236,0,0,1,11.939.833,111.639,111.639,0,0,1,11.156,2.526c3.62,1,7.183,2.117,10.64,3.33A195.927,195.927,0,0,1,225.2,132.9Z" transform="translate(-68.777 -117.886)"/>
        <path id="Path_5962" data-name="Path 5962" d="M185.4,148.646c-1.369-1.7-2.822-3.359-4.347-4.939s-3.1-3.161-4.791-4.643a48.286,48.286,0,0,0-11.367-7.762c-4.354-2-9.448-3.1-14.549-4.029-2.561-.466-5.165-.84-7.8-1.15s-5.285-.586-7.959-.783a116.766,116.766,0,0,1,16.067,1.284,61.875,61.875,0,0,1,14.9,3.909,22.952,22.952,0,0,1,3.2,1.708c1.023.614,1.983,1.277,2.928,1.947a53.193,53.193,0,0,1,5.264,4.368A56.69,56.69,0,0,1,185.4,148.646Z" transform="translate(-68.769 -120.08)"/>
        <path id="Path_5963" data-name="Path 5963" d="M41.31,188.365a197.7,197.7,0,0,1,10.852-18.818c1.99-3.09,4.142-6.132,6.393-9.13a112.8,112.8,0,0,1,7.3-8.813,56.553,56.553,0,0,1,8.947-7.945c3.316-2.364,6.746-4.629,10.274-6.76a190.818,190.818,0,0,1,22.05-11.579q-5.645,2.731-11.007,5.786T85.53,137.4c-3.443,2.2-6.866,4.424-10.125,6.8a55.883,55.883,0,0,0-8.707,7.832A147.538,147.538,0,0,0,52.9,169.773c-2.117,3.041-4.064,6.125-5.983,9.222S43.1,185.233,41.31,188.365Z" transform="translate(-41.31 -120.074)"/>
        <path id="Path_5964" data-name="Path 5964" d="M97.614,174.83a56.251,56.251,0,0,1,.557-13.152,52.923,52.923,0,0,1,1.5-6.668c.339-1.108.706-2.223,1.122-3.33a24.146,24.146,0,0,1,1.5-3.309,61.923,61.923,0,0,1,9.413-12.186,117.014,117.014,0,0,1,11.946-10.824c-2,1.792-3.958,3.613-5.835,5.483s-3.733,3.74-5.475,5.645a63.977,63.977,0,0,0-9.067,12.08A46.562,46.562,0,0,0,99,161.635c-.43,2.2-.706,4.4-.96,6.6S97.656,172.642,97.614,174.83Z" transform="translate(-57.839 -120.086)"/>
      </g>
      <path id="Path_5965" data-name="Path 5965" d="M197.755,139.17s2.265,5.483,1.644,6.555-36.508,13.646-37.672,13.519-3.747-6.527-3.747-6.527,2.067,6.9.5,7.875S87.8,184.392,85.72,185.38s-4.593-6.484-4.593-6.484.706,7.3-1.693,8.771S47.06,198.913,44.859,199.457s-3.479-7.014-3.479-7.014Z" transform="translate(-41.331 -118.461)" fill="#9676ff"/>
      <path id="Path_5966" data-name="Path 5966" d="M197.755,139.17s2.265,5.483,1.644,6.555-36.508,13.646-37.672,13.519-3.747-6.527-3.747-6.527,2.067,6.9.5,7.875S87.8,184.392,85.72,185.38s-4.593-6.484-4.593-6.484.706,7.3-1.693,8.771S47.06,198.913,44.859,199.457s-3.479-7.014-3.479-7.014Z" transform="translate(-41.331 -118.461)" opacity="0.2"/>
    </g>
    <g id="freepik--Wifi--inject-139" transform="translate(169.279 167.699)">
      <g id="freepik--u5Zjqx--inject-139">
        <path id="Path_5967" data-name="Path 5967" d="M262.638,226.193l-1.722,1.743c-.325.325-.642.656-.974.981a23.369,23.369,0,0,0-33.128,0l-.924-.981c-.564-.572-1.129-1.136-1.7-1.7l-.049-.035v-.035l.127-.106c.706-.642,1.411-1.305,2.173-1.926a26.714,26.714,0,0,1,11.713-5.447c1.1-.2,2.216-.3,3.33-.437.374-.049,2.822-.056,2.914-.049.755.049,1.51.085,2.265.169a25.634,25.634,0,0,1,6.111,1.461,26.536,26.536,0,0,1,4.135,1.933,25.846,25.846,0,0,1,3.944,2.759c.614.529,1.207,1.087,1.813,1.637Z" transform="translate(-224.14 -218.197)" fill="#9676ff"/>
        <path id="Path_5968" data-name="Path 5968" d="M234.527,237.477l-2.717-2.7a19.157,19.157,0,0,1,11.05-5.546,19.381,19.381,0,0,1,16.617,5.511l-2.731,2.731A15.714,15.714,0,0,0,234.527,237.477Z" transform="translate(-226.398 -221.387)" fill="#9676ff"/>
        <path id="Path_5969" data-name="Path 5969" d="M256.306,243.37l-2.7,2.7a8.044,8.044,0,0,0-11.388,0l-2.7-2.7a11.8,11.8,0,0,1,16.786-.007Z" transform="translate(-228.668 -224.577)" fill="#9676ff"/>
        <path id="Path_5970" data-name="Path 5970" d="M252.833,251.121a2.441,2.441,0,1,1-2.441-2.441A2.441,2.441,0,0,1,252.833,251.121Z" transform="translate(-231.15 -227.171)" fill="#9676ff"/>
      </g>
    </g>
    <g id="freepik--Character--inject-139" transform="translate(46.314 176.975)">
      <path id="Path_5971" data-name="Path 5971" d="M355.71,421.891h-6.372l-13.653-15.34H149.442l-13.66,15.34H129.41l12.136-21.951H343.581Z" transform="translate(-73.287 -280.978)" fill="#9676ff"/>
      <path id="Path_5972" data-name="Path 5972" d="M355.71,421.891h-6.372l-13.653-15.34H149.442l-13.66,15.34H129.41l12.136-21.951H343.581Z" transform="translate(-73.287 -280.978)" opacity="0.5"/>
      <path id="Path_5973" data-name="Path 5973" d="M146.767,355.782,83.375,366.846,57.24,290.563l63.391-3.683Z" transform="translate(-52.04 -247.693)" fill="#455a64"/>
      <path id="Path_5974" data-name="Path 5974" d="M94.28,395.594l63.391-11.064,178.58.437-51.057,10.626Z" transform="translate(-62.944 -276.441)" fill="#455a64"/>
      <path id="Path_5975" data-name="Path 5975" d="M81.206,368.382,55.07,292.1l-5.2,3.57,18.72,72.712Z" transform="translate(-49.87 -249.23)" fill="#37474f"/>
      <path id="Path_5976" data-name="Path 5976" d="M76.4,395.776v5.412H279.931l51.057-10.944V385.15l-51.057,10.626Z" transform="translate(-57.68 -276.624)" fill="#37474f"/>
      <path id="Path_5977" data-name="Path 5977" d="M329.1,392.2l-51.608,11.064H68.12v5.377H277.493L329.1,397.732Z" transform="translate(-55.243 -278.699)" fill="#9676ff"/>
      <path id="Path_5978" data-name="Path 5978" d="M329.1,392.2l-51.608,11.064H68.12v5.377H277.493L329.1,397.732Z" transform="translate(-55.243 -278.699)" opacity="0.3"/>
      <path id="Path_5979" data-name="Path 5979" d="M286.56,437.441h-6.372L266.535,422.1H80.292l-13.66,15.34H60.26L72.4,415.49H274.431Z" transform="translate(-52.929 -285.556)" fill="#9676ff"/>
      <path id="Path_5980" data-name="Path 5980" d="M286.56,437.441h-6.372L266.535,422.1H80.292l-13.66,15.34H60.26L72.4,415.49H274.431Z" transform="translate(-52.929 -285.556)" opacity="0.5"/>
      <path id="Path_5981" data-name="Path 5981" d="M360.672,373.287c-1.672.649-50.309,1.531-52.214.445-.2-.12-.148-2.272-.868-7.825a13.723,13.723,0,0,0-2.872-2.745c-19.242-15.876-21.168-17.322-21.168-17.322l23.645-20.709,23.525,23.123,6.118,6s19.87,10.732,21.838,12.15S362.344,372.645,360.672,373.287Z" transform="translate(-118.665 -258.954)" fill="#d3766a"/>
      <path id="Path_5982" data-name="Path 5982" d="M279.24,332.252l-20.653,20.357s-30.7-26.474-36.247-26.693c-2.822-.106-47.318,24.76-68.38,26.933-14.931,1.545-23.031-22.876-23.031-22.876l31.985-7.345c23.052-11.367,49.025-31.752,64.732-29.868C244.708,294.826,279.24,332.252,279.24,332.252Z" transform="translate(-73.734 -249.388)" fill="#d3766a"/>
      <path id="Path_5983" data-name="Path 5983" d="M130.93,343.148s8.1,24.421,23.031,22.876c14.394-1.489,39.768-13.576,55.263-21.048l-53.238-7.585Z" transform="translate(-73.734 -262.563)" fill="#263238"/>
      <path id="Path_5984" data-name="Path 5984" d="M130.68,341.958s-3.584,20.738,6.788,28.887,86.351,7.169,97.881,3.443,11.889-22.332-.706-26.643c-12-4.1-62.989-6.1-64.21-6.6-.318-.127-1.686-4.784-1.63-7.7l-5.475.953Z" transform="translate(-73.484 -261.374)" fill="#d3766a"/>
      <path id="Path_5985" data-name="Path 5985" d="M169.16,330.29l-38.547,10.767s-4.424,23.546,8.065,29.685c0,0-1.813-24.992,31.646-30.595C170.324,340.147,167.628,333.1,169.16,330.29Z" transform="translate(-73.417 -260.473)" fill="#9676ff"/>
      <path id="Path_5986" data-name="Path 5986" d="M137.077,368.989a1.411,1.411,0,0,1-.529-.176.981.981,0,0,1-.445-.854,1.277,1.277,0,0,0-.833-1.171,1.312,1.312,0,0,0-.706-.056c-.219.056-.423.085-.628.134a5.81,5.81,0,0,0,.628.127,1.2,1.2,0,0,1,.522.162,1,1,0,0,1,.487.826,1.291,1.291,0,0,0,.776,1.192,1.249,1.249,0,0,0,.706.056,4.05,4.05,0,0,0,.621-.127A5.068,5.068,0,0,0,137.077,368.989Zm5.645-18.522a1.573,1.573,0,0,1-.522-.183,1,1,0,0,1-.452-.847,1.263,1.263,0,0,0-.826-1.171,1.334,1.334,0,0,0-.706-.056c-.212.056-.416.078-.621.127a6.082,6.082,0,0,0,.621.134,1.044,1.044,0,0,1,.529.162.981.981,0,0,1,.487.818,1.263,1.263,0,0,0,.776,1.192,1.292,1.292,0,0,0,.706.064,4.363,4.363,0,0,0,.628-.134C143.145,350.537,142.94,350.516,142.721,350.467Zm26.813-7.225a1.291,1.291,0,0,0-.826-1.178,1.411,1.411,0,0,0-.706-.035c-.2.035-.409.071-.628.12.219.056.423.085.628.12a1.545,1.545,0,0,1,.536.169.967.967,0,0,1,.473.818,1.213,1.213,0,0,0,.113.543l.515-.092a1.024,1.024,0,0,1-.106-.452Zm-37.319,13.251a4.5,4.5,0,0,0-.127-.628c-.056.2-.078.409-.127.628a1.3,1.3,0,0,1-.155.522.938.938,0,0,1-.819.473,1.341,1.341,0,0,0-.917.381,4.734,4.734,0,0,0,.064.628h0a.924.924,0,0,1,.847-.445,1.326,1.326,0,0,0,1.178-.84,1.34,1.34,0,0,0,.078-.706Zm-1.785-9.956-.092.071a1.41,1.41,0,0,1-.049.445,1.291,1.291,0,0,0,.325-.325c.113-.184.254-.346.36-.543-.176.12-.339.247-.522.367Zm25.275-1.665a1.129,1.129,0,0,1-.5.24,1,1,0,0,1-.91-.275,1.256,1.256,0,0,0-1.411-.247,1.27,1.27,0,0,0-.515.466,6.005,6.005,0,0,0-.36.515,4.385,4.385,0,0,0,.536-.353,1.737,1.737,0,0,1,.487-.261.981.981,0,0,1,.917.254,1.305,1.305,0,0,0,1.411.289,1.249,1.249,0,0,0,.55-.445c.113-.183.24-.353.346-.543a6.266,6.266,0,0,0-.529.374Z" transform="translate(-73.481 -263.92)" fill="#fff"/>
      <path id="Path_5987" data-name="Path 5987" d="M174.728,268.387a.36.36,0,0,1-.282.374l-1.454.092c-1.3-3.38-2.7-6.068-2.336-5.017a17.054,17.054,0,0,1,.91,5.109l-2.865.141c-1.129-5.955-2.575-10.372-2.484-9.011.367,5.5.042,7.268-.339,9.173-6.915.325-15.982.656-22.537.748-.762-3.288-1.411-6.851-1.538-6.6a17,17,0,0,0-1.157,6.64c-2.117,0-3.754,0-4.77-.078,0,0-.494-2.766-.564-3.676a19.115,19.115,0,0,1,.706-6.943,34.124,34.124,0,0,1,3.027-6.435.3.3,0,0,1,0-.049h0a19.594,19.594,0,0,0,1.75-4.3v-.035a18.874,18.874,0,0,0,.536-3.3c.3-4.064,2.6-7.585,6.421-8.665,7.211-6.8,14.451-3.951,16.631,1.263.212.508.416,1.094.614,1.729h0c.706,2.35,1.411,5.4,2.018,7.762h0a21.341,21.341,0,0,0,.854,2.724C169.789,254.289,173.959,256.7,174.728,268.387Z" transform="translate(-75.005 -231.698)" fill="#263238"/>
      <path id="Path_5988" data-name="Path 5988" d="M145.806,239.759a7.7,7.7,0,0,0-4.438,6.2,19.87,19.87,0,0,1-1,5.052,17.929,17.929,0,0,1-2.886,4.452,13.166,13.166,0,0,0-3.281,7.3,22.332,22.332,0,0,0,.861,9.173h0a23.751,23.751,0,0,1-.339-9.6c.55-3.225,2.371-5.25,4.234-7.705a13.406,13.406,0,0,0,2.745-6.576,16.063,16.063,0,0,1,.748-4.375,8.675,8.675,0,0,1,3.528-3.634.176.176,0,0,0-.169-.275Z" transform="translate(-74.654 -233.82)" fill="#263238"/>
      <path id="Path_5989" data-name="Path 5989" d="M184.582,257.5c-1.771-2.3-3.613-4.234-4.65-7.127-.946-2.6-1.489-5.355-2.448-7.959h-.063c1.482,4.622,1.771,9.286,4.756,13.167a29.771,29.771,0,0,1,4.318,6.6,22.58,22.58,0,0,1,1.686,8.361.071.071,0,1,0,.141,0A18.663,18.663,0,0,0,184.582,257.5Z" transform="translate(-87.421 -234.601)" fill="#263238"/>
      <path id="Path_5990" data-name="Path 5990" d="M168.72,314.383c-4.551,9.519-38.54,17.217-38.54,17.217s-1.037-22.974,6.562-42.336c6.795-17.386,15.876-13.054,19.178-10.33,3.951,3.189,11.9,15.34,12.524,17.718,1.023,3.93-2.18,8.467-2.18,8.467Z" transform="translate(-73.499 -244.601)" fill="#d3766a"/>
      <path id="Path_5991" data-name="Path 5991" d="M168.718,314.383c-4.551,9.519-38.547,17.217-38.547,17.217s-.783-17.64,4.114-35c.706-2.47,1.51-4.939,2.456-7.352,6.795-17.365,15.876-13.032,19.178-10.309,2.265,1.828,5.849,6.611,8.608,10.8h0a38.307,38.307,0,0,1,3.9,6.894c1.023,3.93-2.18,8.467-2.18,8.467Z" transform="translate(-73.497 -244.601)" fill="#d3766a"/>
      <path id="Path_5992" data-name="Path 5992" d="M168.718,319.945c-4.551,9.519-38.547,17.217-38.547,17.217s-.783-17.64,4.114-35l10.584-1.588s3.041-4.057,6.964-4.41a13.482,13.482,0,0,1,7.5,1.94c2.639-3.1,5.179-2.822,5.179-2.822h0a38.3,38.3,0,0,1,3.9,6.894c1.023,3.93-2.18,8.467-2.18,8.467Z" transform="translate(-73.497 -250.163)" fill="#9676ff"/>
      <path id="Path_5993" data-name="Path 5993" d="M168.474,304.188a.967.967,0,0,1-.452-.847,1.129,1.129,0,0,0-.063-.374h0l-.1-.2a.3.3,0,0,0-.049-.092.3.3,0,0,0,0-.049,1.2,1.2,0,0,0-.586-.459,1.341,1.341,0,0,0-.706-.042,6.355,6.355,0,0,0-.635.134c.212.049.416.07.635.113a1.41,1.41,0,0,1,.529.162,1,1,0,0,1,.473.826,1.3,1.3,0,0,0,.79,1.192.931.931,0,0,0,.282.078C168.544,304.478,168.509,304.337,168.474,304.188Zm-19.5.663a1.321,1.321,0,0,1-.515-.183.96.96,0,0,1-.445-.847,1.326,1.326,0,0,0-.833-1.178,1.411,1.411,0,0,0-.706-.035c-.219.035-.423.071-.642.127.219.049.423.078.642.12a1.411,1.411,0,0,1,.522.162.974.974,0,0,1,.473.826,1.284,1.284,0,0,0,.8,1.185,1.241,1.241,0,0,0,.706.078c.219-.049.423-.078.628-.134a5.821,5.821,0,0,0-.628-.12Zm-8.693,31.625c-.212.056-.416.078-.621.127l.148.035h0l.607-.176Zm12.877-14.818a1.411,1.411,0,0,1-.515-.169.974.974,0,0,1-.445-.84,1.291,1.291,0,0,0-.833-1.178,1.073,1.073,0,0,0-.706-.049c-.219.049-.423.071-.642.12a5.2,5.2,0,0,0,.642.134,1.086,1.086,0,0,1,.522.155.96.96,0,0,1,.473.819,1.305,1.305,0,0,0,.8,1.2,1.242,1.242,0,0,0,.706.064,4.831,4.831,0,0,0,.635-.134c-.212-.071-.445-.092-.635-.141Zm-21.387-1.284a1.305,1.305,0,0,1-.515-.169l-.085-.063a1.151,1.151,0,0,1-.056.437,1.242,1.242,0,0,0,.656.049,5.169,5.169,0,0,0,.642-.127A4.48,4.48,0,0,0,131.775,320.375Zm36.268-1.058-.064.042a1.46,1.46,0,0,1-.487.268.974.974,0,0,1-.924-.247,1.3,1.3,0,0,0-1.411-.289,1.178,1.178,0,0,0-.543.445c-.12.183-.247.346-.36.543.191-.12.36-.247.543-.36a1.115,1.115,0,0,1,.48-.247,1.059,1.059,0,0,1,.924.282,1.291,1.291,0,0,0,1.411.247,1.319,1.319,0,0,0,.487-.409Zm-26.389,4.939a4.5,4.5,0,0,0-.12-.628c-.056.2-.078.409-.134.628a1.192,1.192,0,0,1-.148.522.946.946,0,0,1-.819.473,1.334,1.334,0,0,0-1.192.769,1.305,1.305,0,0,0-.063.706c.042.219.063.423.127.642a4.136,4.136,0,0,0,.127-.642,1.1,1.1,0,0,1,.183-.508.917.917,0,0,1,.84-.444,1.312,1.312,0,0,0,1.178-.84,1.207,1.207,0,0,0,.021-.684Zm18.755-15.573c-.049-.2-.071-.409-.12-.628a5.578,5.578,0,0,0-.134.628,1.171,1.171,0,0,1-.162.536.967.967,0,0,1-.818.48,1.27,1.27,0,0,0-1.192.79,1.03,1.03,0,0,0-.063.706c.042.219.063.423.113.628a4.5,4.5,0,0,0,.134-.628,1.206,1.206,0,0,1,.176-.515.952.952,0,0,1,.847-.445,1.291,1.291,0,0,0,1.171-.833A1.411,1.411,0,0,0,160.409,308.683Zm-18.346,3.479a1.03,1.03,0,0,1-.487.247.96.96,0,0,1-.91-.282,1.291,1.291,0,0,0-1.411-.24,1.248,1.248,0,0,0-.529.459c-.106.176-.254.346-.36.536.2-.113.36-.247.543-.36a1.136,1.136,0,0,1,.48-.254.946.946,0,0,1,.924.233,1.263,1.263,0,0,0,1.947-.155c.113-.183.24-.346.346-.536a2.879,2.879,0,0,0-.614.353ZM130.569,334.8a1.087,1.087,0,0,1-.339.2v.423a1.242,1.242,0,0,0,.522-.437c.113-.184.254-.346.36-.543a3.064,3.064,0,0,0-.614.353Z" transform="translate(-73.528 -252.174)" fill="#fff"/>
      <path id="Path_5994" data-name="Path 5994" d="M170.771,316.18a21.874,21.874,0,0,0-5.588,1.284c-1.806.642-5.758,2.512-6.753,2.978v.042a36.729,36.729,0,0,0,3.831-1.411c1.764-.706,3.528-1.411,5.356-2a24.972,24.972,0,0,1,3.126-.776.058.058,0,0,0,.028-.113Z" transform="translate(-81.83 -256.319)" fill="#263238"/>
      <path id="Path_5995" data-name="Path 5995" d="M178.318,317.239a17.33,17.33,0,0,0-5.878.91v.042c.974-.184,1.94-.36,2.921-.508s1.969-.261,2.949-.4C178.353,317.288,178.346,317.239,178.318,317.239Z" transform="translate(-85.955 -256.63)" fill="#263238"/>
      <path id="Path_5996" data-name="Path 5996" d="M154.5,273.442c.12.811,3.493,6.28,7.134,6.407,1.192.042,1.693-6.428,1.693-6.428l.148-.473,2.046-6.569-7.444-5.694-1.108-.755s-.445,1.835-.967,4.121a1.961,1.961,0,0,1-.078.325c-.021.113-.063.254-.092.374-.085.339-.169.706-.24,1.037s-.12.522-.169.8-.113.557-.169.833a45.324,45.324,0,0,0-.755,6.019Z" transform="translate(-80.673 -239.759)" fill="#d3766a"/>
      <path id="Path_5997" data-name="Path 5997" d="M156.67,264.051a13.787,13.787,0,0,0,7.444,8.9l2.046-6.569-7.444-5.694-1.108-.755S157.192,261.765,156.67,264.051Z" transform="translate(-81.312 -239.759)" fill="#263238"/>
      <path id="Path_5998" data-name="Path 5998" d="M175.944,249.1c.148,12.08-7.056,13.533-9.667,13.562-2.364,0-10.415-.176-11.819-12.172s4.17-15.883,9.575-16.229S175.76,237.025,175.944,249.1Z" transform="translate(-80.596 -232.194)" fill="#d3766a"/>
      <path id="Path_5999" data-name="Path 5999" d="M181.693,252.527a7.932,7.932,0,0,1-.8-.212,1.355,1.355,0,0,1-.776-.381.423.423,0,0,1,0-.522,1.059,1.059,0,0,1,1.065-.191,1.574,1.574,0,0,1,.945.607.452.452,0,0,1-.43.7Z" transform="translate(-88.187 -237.175)" fill="#263238"/>
      <path id="Path_6000" data-name="Path 6000" d="M170.355,252.817a5.338,5.338,0,0,0,.818-.127,1.3,1.3,0,0,0,.819-.289.423.423,0,0,0,0-.522,1.065,1.065,0,0,0-1.03-.31,1.559,1.559,0,0,0-1.016.5.459.459,0,0,0,.409.748Z" transform="translate(-85.189 -237.288)" fill="#263238"/>
      <path id="Path_6001" data-name="Path 6001" d="M172.44,256.056c0-.035-.063.035-.063.071,0,.819-.141,1.764-.9,2.011v.042C172.4,258.088,172.553,256.832,172.44,256.056Z" transform="translate(-85.672 -238.616)" fill="#263238"/>
      <path id="Path_6002" data-name="Path 6002" d="M171.379,254.8c-1.319-.141-1.51,2.5-.289,2.639S172.486,254.939,171.379,254.8Z" transform="translate(-85.317 -238.246)" fill="#263238"/>
      <path id="Path_6003" data-name="Path 6003" d="M170.439,254.923c-.24.134-.487.381-.769.388s-.55-.289-.741-.572h-.042c-.049.508.113,1.044.649,1.157s.882-.318,1.044-.818C170.608,254.98,170.538,254.832,170.439,254.923Z" transform="translate(-84.906 -238.231)" fill="#263238"/>
      <path id="Path_6004" data-name="Path 6004" d="M179.663,256.13s.063.042.056.078c-.092.818-.056,1.771.663,2.117v.042C179.48,258.155,179.445,256.892,179.663,256.13Z" transform="translate(-88.048 -238.64)" fill="#263238"/>
      <path id="Path_6005" data-name="Path 6005" d="M180.486,255c1.327,0,1.214,2.66,0,2.653S179.371,255,180.486,255Z" transform="translate(-88.066 -238.308)" fill="#263238"/>
      <path id="Path_6006" data-name="Path 6006" d="M181.549,255.251c.2.148.4.416.649.437s.515-.24.706-.508h.042c0,.508-.2,1.03-.706,1.108s-.762-.381-.861-.889C181.394,255.328,181.472,255.194,181.549,255.251Z" transform="translate(-88.586 -238.36)" fill="#263238"/>
      <path id="Path_6007" data-name="Path 6007" d="M172.413,266c.169.219.339.5.628.564a2.18,2.18,0,0,0,.9-.1s.049,0,0,.042a1.108,1.108,0,0,1-1.087.325.889.889,0,0,1-.557-.8C172.321,266,172.385,266,172.413,266Z" transform="translate(-85.913 -241.546)" fill="#263238"/>
      <path id="Path_6008" data-name="Path 6008" d="M176.373,258.782s.092,1.235.056,1.813c0,.056-.141.071-.339.071h0a2.752,2.752,0,0,1-2.611-1.193c0-.056.042-.113.092-.071a4.156,4.156,0,0,0,2.47.868c.049-.155-.233-2.117-.141-2.117a5.249,5.249,0,0,1,1.291.374c-.12-2.575-.656-5.116-.706-7.691a.078.078,0,0,1,.148,0,41.1,41.1,0,0,1,1.15,8.256C177.763,259.4,176.6,258.9,176.373,258.782Z" transform="translate(-86.261 -237.066)" fill="#263238"/>
      <path id="Path_6009" data-name="Path 6009" d="M175.558,264.056a2.878,2.878,0,0,1-1.171.847,1.291,1.291,0,0,1-.783,0c-.557-.169-.55-.706-.43-1.122a3.309,3.309,0,0,1,.275-.67,3.683,3.683,0,0,0,2.11.945Z" transform="translate(-86.151 -240.695)" fill="#263238"/>
      <path id="Path_6010" data-name="Path 6010" d="M174.386,265.182a1.292,1.292,0,0,1-.783,0c-.557-.169-.55-.706-.43-1.122a1.326,1.326,0,0,1,1.214,1.122Z" transform="translate(-86.151 -240.975)" fill="#ff9bbc"/>
      <path id="Path_6011" data-name="Path 6011" d="M154.108,250.737a4.989,4.989,0,0,0,3.316-3.655,13.125,13.125,0,0,0,5.842-3.528c-.12.24-.938,1.94-1.411,2.822a13.456,13.456,0,0,0,10.958-5.892,13.173,13.173,0,0,1,2.66,5.285s.706-4.664-1.277-8.121a7.613,7.613,0,0,0-6.527-4.05,10.859,10.859,0,0,0-10.951,1.8C151.06,240.1,154.108,250.737,154.108,250.737Z" transform="translate(-80.316 -231.786)" fill="#263238"/>
      <path id="Path_6012" data-name="Path 6012" d="M172.2,248.59a14.183,14.183,0,0,1-4.107.9h0a12,12,0,0,0,6.054-2.611,11.834,11.834,0,0,0,1.955-2.074,7.959,7.959,0,0,0,1.411-2.766.064.064,0,0,1,.12,0,9.243,9.243,0,0,1-1.016,2.914,8.531,8.531,0,0,1-2.032,2.293,9.977,9.977,0,0,1-2.378,1.334" transform="translate(-84.674 -234.48)" fill="#263238"/>
      <path id="Path_6013" data-name="Path 6013" d="M164.963,237.077c-.212,1.214-2.385,1.849-4.855,1.411s-4.3-1.771-4.085-2.985,2.385-1.849,4.855-1.411S165.175,235.856,164.963,237.077Z" transform="translate(-81.116 -232.112)" fill="#9676ff"/>
      <path id="Path_6014" data-name="Path 6014" d="M164.53,236.792c-.162.924-1.813,1.411-3.69,1.08s-3.267-1.348-3.1-2.265,1.813-1.411,3.69-1.08S164.692,235.867,164.53,236.792Z" transform="translate(-81.621 -232.25)" fill="#263238"/>
      <path id="Path_6015" data-name="Path 6015" d="M167.3,235.727l-.649-.423c1.087-1.651,3.175-1.411,4.128-1.037l-.275.706C170.425,234.965,168.308,234.189,167.3,235.727Z" transform="translate(-84.25 -232.123)" fill="#9676ff"/>
      <path id="Path_6016" data-name="Path 6016" d="M152.44,252.633c0-.127,0-3.119.035-3.7.049-.706,4.565-10.182,4.608-10.238l.3.247.339.191c-.275.529-4.347,9.173-4.473,9.878-.035.543-.035,3.606-.035,3.634Z" transform="translate(-80.067 -233.506)" fill="#9676ff"/>
      <path id="Path_6017" data-name="Path 6017" d="M179.593,234.467c-.212,1.214-2.392,1.849-4.855,1.411s-4.3-1.764-4.085-2.985,2.385-1.849,4.855-1.411S179.8,233.253,179.593,234.467Z" transform="translate(-85.423 -231.343)" fill="#9676ff"/>
      <path id="Path_6018" data-name="Path 6018" d="M179.16,234.279c-.162.917-1.813,1.411-3.69,1.073s-3.267-1.341-3.1-2.265,1.813-1.411,3.69-1.08S179.287,233.382,179.16,234.279Z" transform="translate(-85.929 -231.508)" fill="#263238"/>
      <path id="Path_6019" data-name="Path 6019" d="M155.2,257.191s-2.35-3.958-4.128-3.147-.2,6.407,1.75,7.3a2.046,2.046,0,0,0,2.822-.9Z" transform="translate(-79.437 -237.994)" fill="#d3766a"/>
      <path id="Path_6020" data-name="Path 6020" d="M152.1,256.35v.049a5.236,5.236,0,0,1,2.42,3.422,1.122,1.122,0,0,0-1.658-.43s0,.078.035.078a1.249,1.249,0,0,1,1.341.536,5.969,5.969,0,0,1,.579,1.164c.056.134.289.078.254-.071h0C155.212,259.278,154.005,256.675,152.1,256.35Z" transform="translate(-79.966 -238.705)" fill="#263238"/>
      <path id="Path_6021" data-name="Path 6021" d="M146.067,291.89c2.681,11.417,13.124,29.536,17.894,30.263,7.6,1.164,29.727-7.825,35.386-12.122,1.955-1.489-8.686-14.684-11.17-13.816-9.173,3.232-19.326,7.945-20.575,6.936-1.517-1.228-7.917-8.143-13.787-15.213C146.427,279.062,144.86,286.788,146.067,291.89Z" transform="translate(-78.082 -246.811)" fill="#d3766a"/>
      <path id="Path_6022" data-name="Path 6022" d="M216.166,307.842c1.1-.473,8.517-6.6,10.64-9.384a34.051,34.051,0,0,0,5.4-9.624c1.969-5.511,2.822-9.5,2.117-11.233-.776-2-.981-2.321-5.793,6.922-2.724,5.228-5.588,5.976-8.1,6.082a38.688,38.688,0,0,0-17.6,5.1S211.925,309.656,216.166,307.842Z" transform="translate(-94.901 -244.622)" fill="#d3766a"/>
      <path id="Path_6023" data-name="Path 6023" d="M242.351,266.747,230,284.514a1.616,1.616,0,0,1-1.588.628l-9.547-2.526a.706.706,0,0,1-.353-1.143l12.362-17.746a1.6,1.6,0,0,1,1.581-.628L242,265.625a.706.706,0,0,1,.353,1.122Z" transform="translate(-99.466 -240.684)" fill="#37474f"/>
      <path id="Path_6024" data-name="Path 6024" d="M240.785,265.275l-9.547-2.526a1.609,1.609,0,0,0-1.588.628L217.3,281.137a.706.706,0,0,0,.346,1.15l9.547,2.5a1.6,1.6,0,0,0,1.588-.635l12.355-17.711a.706.706,0,0,0-.346-1.171Zm-12.228,18.2a1.489,1.489,0,0,1-1.454.614l-8.545-2.265c-.48-.127-.607-.607-.275-1.073l11.508-16.539c.656-.953,1.08-.9,1.559-.769l1.708.459c.1,0,.113.148,0,.275l-.035.049c-.2.3,0,.346.191.409l3.958,1.044c.226.056.4.106.607-.19l.042-.056a.353.353,0,0,1,.339-.176l1.708.452c.48.127.776.353.169,1.228Z" transform="translate(-99.108 -240.581)" fill="#263238"/>
      <path id="Path_6025" data-name="Path 6025" d="M243.442,265.679l-1.08-.289a.049.049,0,0,1,0-.078h0a.12.12,0,0,1,.113-.042l1.08.289a.052.052,0,0,1,0,.078h0A.12.12,0,0,1,243.442,265.679Z" transform="translate(-106.534 -241.33)" fill="#fff"/>
      <line id="Line_33" data-name="Line 33" x1="0.035" y1="0.014" transform="translate(119.867 39.109)" fill="none"/>
      <path id="Path_6026" data-name="Path 6026" d="M240.469,267.2l-11.5,16.539a1.489,1.489,0,0,1-1.454.614l-8.545-2.265c-.48-.12-.6-.607-.275-1.073L230.2,264.48c.656-.953,1.08-.9,1.559-.769l1.708.459c.1,0,.113.148,0,.275l-.035.049c-.2.3,0,.346.191.409l3.958,1.044c.226.056.4.106.607-.19l.042-.056a.36.36,0,0,1,.339-.176l1.708.452C240.779,266.1,241.083,266.329,240.469,267.2Z" transform="translate(-99.518 -240.851)" fill="#fff"/>
      <path id="Path_6027" data-name="Path 6027" d="M244.987,267.2l-.854,1.235-10.274-2.724.861-1.235c.656-.953,1.08-.9,1.559-.769l1.708.459c.1,0,.113.148,0,.275l-.035.049c-.2.3,0,.346.191.409l3.958,1.044c.226.056.4.106.607-.19l.042-.056a.36.36,0,0,1,.339-.176l1.708.452C245.3,266.1,245.594,266.329,244.987,267.2Z" transform="translate(-104.036 -240.851)" fill="#9676ff"/>
      <path id="Path_6028" data-name="Path 6028" d="M235.877,265.905l-.127-.339.48-.176.021.056-.4.148.106.275Z" transform="translate(-104.593 -241.366)" fill="#fff"/>
      <path id="Path_6029" data-name="Path 6029" d="M248.281,268.76a.092.092,0,0,1-.1.042.042.042,0,0,1,0-.071.106.106,0,0,1,.1-.042.042.042,0,0,1,0,.071Z" transform="translate(-108.247 -242.337)" fill="#fff"/>
      <path id="Path_6030" data-name="Path 6030" d="M248.087,269.049a.106.106,0,0,1-.1.035c-.035,0-.042-.042,0-.071a.092.092,0,0,1,.1,0S248.108,269,248.087,269.049Z" transform="translate(-108.187 -242.429)" fill="#fff"/>
      <path id="Path_6031" data-name="Path 6031" d="M247.947,269.31a.106.106,0,0,1-.1.035c-.035,0-.042-.042,0-.071a.106.106,0,0,1,.1-.035.042.042,0,0,1,0,.071Z" transform="translate(-108.146 -242.499)" fill="#fff"/>
      <g id="freepik--u5zjqx--inject-139-2" data-name="freepik--u5zjqx--inject-139" transform="translate(133.055 23.496)">
        <path id="Path_6032" data-name="Path 6032" d="M238.8,264.753h0a.155.155,0,0,0-.12-.1.381.381,0,0,0-.2,0h.282Z" transform="translate(-238.452 -264.642)" fill="#fff"/>
        <path id="Path_6033" data-name="Path 6033" d="M238.44,264.786h0a.254.254,0,0,1,.141,0,.148.148,0,0,1,.127.092h-.042a.127.127,0,0,0-.078-.071.247.247,0,0,0-.148-.021Z" transform="translate(-238.44 -264.681)" fill="#fff"/>
        <path id="Path_6034" data-name="Path 6034" d="M238.625,264.857h-.042l-.042-.035a.085.085,0,0,0-.071,0v-.035a.12.12,0,0,1,.155.071Z" transform="translate(-238.449 -264.682)" fill="#fff"/>
        <path id="Path_6035" data-name="Path 6035" d="M238.545,264.937h0Z" transform="translate(-238.461 -264.727)" fill="#fff"/>
      </g>
      <path id="Path_6036" data-name="Path 6036" d="M236.6,264.24a.1.1,0,0,1,.113-.042c.035,0,.049.042,0,.078a.1.1,0,0,1-.113.042A.089.089,0,0,1,236.6,264.24Z" transform="translate(-104.839 -241.014)" fill="#fff"/>
      <path id="Path_6037" data-name="Path 6037" d="M236.892,264.321a.106.106,0,0,1,.113-.042.049.049,0,0,1,0,.078.106.106,0,0,1-.113.042.049.049,0,0,1,0-.078Z" transform="translate(-104.924 -241.038)" fill="#fff"/>
      <path id="Path_6038" data-name="Path 6038" d="M237.2,264.4a.092.092,0,0,1,.106-.042c.042,0,.049.042,0,.078a.1.1,0,0,1-.113.042A.064.064,0,0,1,237.2,264.4Z" transform="translate(-105.016 -241.061)" fill="#fff"/>
      <path id="Path_6039" data-name="Path 6039" d="M237.5,264.481a.113.113,0,0,1,.113-.042c.035,0,.049.042,0,.078a.092.092,0,0,1-.106.042C237.491,264.552,237.483,264.517,237.5,264.481Z" transform="translate(-105.106 -241.086)" fill="#fff"/>
      <path id="Path_6040" data-name="Path 6040" d="M237.8,264.562a.12.12,0,0,1,.113-.042.049.049,0,0,1,0,.078.106.106,0,0,1-.113.042.049.049,0,0,1,0-.078Z" transform="translate(-105.192 -241.109)" fill="#fff"/>
      <path id="Path_6041" data-name="Path 6041" d="M248.709,267.718l-.889-.24.36-.508.889.233Z" transform="translate(-108.146 -241.831)" fill="#fff"/>
      <path id="Path_6042" data-name="Path 6042" d="M248.766,267.4l-.36-.1-.106.155.36.092Z" transform="translate(-108.288 -241.929)" fill="#fff"/>
      <path id="Path_6043" data-name="Path 6043" d="M249.089,267.651l-.049-.014.085-.127.049.014Z" transform="translate(-108.505 -241.99)" fill="#fff"/>
      <path id="Path_6044" data-name="Path 6044" d="M220.784,288.443l-.078-.021-.226.325-.148-.035.12-.169-.261-.064-.113.162-.148-.035.226-.325-.078-.021.586-.24Z" transform="translate(-99.936 -248.029)" fill="#ebebeb"/>
      <path id="Path_6045" data-name="Path 6045" d="M232.144,291.122l-.854-.226.078-.106.847.219Z" transform="translate(-103.28 -248.844)" fill="#ebebeb"/>
      <path id="Path_6046" data-name="Path 6046" d="M231.874,291.509l-.854-.226.078-.113.854.226Z" transform="translate(-103.2 -248.956)" fill="#ebebeb"/>
      <path id="Path_6047" data-name="Path 6047" d="M231.6,291.892l-.854-.226.078-.106.854.226Z" transform="translate(-103.121 -249.071)" fill="#ebebeb"/>
      <path id="Path_6048" data-name="Path 6048" d="M226.4,289.925l-.4.169-.085-.3.071-.028.064.247.332-.141Z" transform="translate(-101.696 -248.544)" fill="#ebebeb"/>
      <path id="Path_6049" data-name="Path 6049" d="M225.707,290.456a1.018,1.018,0,0,1-.212,0,.656.656,0,0,1-.459-.4.706.706,0,0,1,.106-.628,1.023,1.023,0,0,1,1.044-.4.628.628,0,0,1,.452.4.663.663,0,0,1-.1.628h0a1.051,1.051,0,0,1-.833.4Zm.162-.755h-.056Z" transform="translate(-101.43 -248.319)" fill="#ebebeb"/>
      <path id="Path_6050" data-name="Path 6050" d="M240.569,266.985a.451.451,0,0,1,.452-.169.226.226,0,0,1,.134.1.042.042,0,0,1,0,.056h-.064a.155.155,0,0,0-.1-.071.282.282,0,0,0-.169,0,.3.3,0,0,0-.141.106.155.155,0,0,0,0,.134.148.148,0,0,0,.1.085.354.354,0,0,0,.148,0h.056a.064.064,0,0,1-.049.056.431.431,0,0,1-.212,0,.2.2,0,0,1-.155-.3Z" transform="translate(-106.004 -241.783)" fill="#fff"/>
      <path id="Path_6051" data-name="Path 6051" d="M241.237,267.418l.275-.4a.07.07,0,0,1,.071,0v.049l-.113.162.2.049.113-.162a.071.071,0,0,1,.071,0v.049l-.282.4a.071.071,0,0,1-.071,0v-.049l.113-.162-.191-.049-.12.162a.077.077,0,0,1-.063,0A.055.055,0,0,1,241.237,267.418Z" transform="translate(-106.207 -241.842)" fill="#fff"/>
      <path id="Path_6052" data-name="Path 6052" d="M242.234,267.6l-.183-.042-.1.078a.078.078,0,0,1-.056,0h0a.042.042,0,0,1,0-.056l.445-.36a.092.092,0,0,1,.056,0v.035l-.113.444s0,.042-.056.042h0V267.7Zm0-.078.042-.162-.162.127Z" transform="translate(-106.399 -241.903)" fill="#fff"/>
      <path id="Path_6053" data-name="Path 6053" d="M243.145,267.485h-.12l-.254.367a.071.071,0,0,1-.071,0V267.8l.254-.367h-.12v-.049a.07.07,0,0,1,.071,0l.318.085v.049a.063.063,0,0,1-.078-.035Z" transform="translate(-106.639 -241.951)" fill="#fff"/>
      <path id="Path_6054" data-name="Path 6054" d="M228.64,275.919l7.345,1.947,1.454-2.089-7.345-1.947h0l-1.454,2.089Z" transform="translate(-102.5 -243.851)" fill="#455a64"/>
      <path id="Path_6055" data-name="Path 6055" d="M239.734,279.458l-.684-.176.452-.642Z" transform="translate(-105.564 -245.267)" fill="#455a64"/>
      <path id="Path_6056" data-name="Path 6056" d="M237.406,276.264l-6.506-1.722.028-.042,6.506,1.722Z" transform="translate(-103.165 -244.048)" fill="#fff"/>
      <path id="Path_6057" data-name="Path 6057" d="M235.841,276.214l-5.151-1.369.028-.035,5.151,1.362Z" transform="translate(-103.103 -244.14)" fill="#fff"/>
      <path id="Path_6058" data-name="Path 6058" d="M236.239,277.033l-5.969-1.581.028-.042,5.969,1.581Z" transform="translate(-102.98 -244.316)" fill="#fff"/>
      <path id="Path_6059" data-name="Path 6059" d="M236.566,277.474l-6.506-1.722.021-.042,6.506,1.729Z" transform="translate(-102.918 -244.404)" fill="#fff"/>
      <path id="Path_6060" data-name="Path 6060" d="M236.346,277.784l-6.506-1.729.028-.035,6.506,1.722Z" transform="translate(-102.853 -244.496)" fill="#fff"/>
      <path id="Path_6061" data-name="Path 6061" d="M234.336,277.6l-4.706-1.242.028-.042,4.706,1.249Z" transform="translate(-102.791 -244.584)" fill="#fff"/>
      <path id="Path_6062" data-name="Path 6062" d="M223.79,282.891l7.345,1.947,1.446-2.082-7.345-1.947h0l-1.446,2.082Z" transform="translate(-101.072 -245.906)" fill="#455a64"/>
      <path id="Path_6063" data-name="Path 6063" d="M234.877,286.438l-.677-.183.445-.635Z" transform="translate(-104.137 -247.322)" fill="#455a64"/>
      <path id="Path_6064" data-name="Path 6064" d="M232.546,283.244l-6.506-1.722.028-.042,6.506,1.722Z" transform="translate(-101.734 -246.103)" fill="#fff"/>
      <path id="Path_6065" data-name="Path 6065" d="M230.988,283.184l-5.158-1.362.028-.042,5.158,1.369Z" transform="translate(-101.672 -246.191)" fill="#fff"/>
      <path id="Path_6066" data-name="Path 6066" d="M231.379,284.013l-5.969-1.588.028-.035,5.969,1.581Z" transform="translate(-101.549 -246.371)" fill="#fff"/>
      <path id="Path_6067" data-name="Path 6067" d="M231.706,284.454l-6.506-1.722.028-.042,6.506,1.722Z" transform="translate(-101.487 -246.459)" fill="#fff"/>
      <path id="Path_6068" data-name="Path 6068" d="M231.5,284.757l-6.506-1.722.028-.035,6.506,1.722Z" transform="translate(-101.425 -246.551)" fill="#fff"/>
      <path id="Path_6069" data-name="Path 6069" d="M229.479,284.584l-4.7-1.242.028-.042,4.7,1.242Z" transform="translate(-101.363 -246.639)" fill="#fff"/>
      <path id="Path_6070" data-name="Path 6070" d="M241.045,272.374l-7.345-1.947,1.228-1.757,7.345,1.94Z" transform="translate(-103.989 -242.332)" fill="#9676ff"/>
      <path id="Path_6071" data-name="Path 6071" d="M232.74,270.709l.677.183.445-.642Z" transform="translate(-103.707 -242.797)" fill="#9676ff"/>
      <path id="Path_6072" data-name="Path 6072" d="M241.1,270.765l-5.412-1.439.021-.035,5.419,1.432Z" transform="translate(-104.575 -242.514)" fill="#fff"/>
      <path id="Path_6073" data-name="Path 6073" d="M241.976,271.354l-6.506-1.729.028-.035L242,271.312Z" transform="translate(-104.51 -242.603)" fill="#fff"/>
      <path id="Path_6074" data-name="Path 6074" d="M241.766,271.654l-6.506-1.722.028-.042,6.506,1.722Z" transform="translate(-104.449 -242.691)" fill="#fff"/>
      <path id="Path_6075" data-name="Path 6075" d="M241.041,271.82l-5.991-1.588.028-.042,5.991,1.588Z" transform="translate(-104.387 -242.779)" fill="#fff"/>
      <path id="Path_6076" data-name="Path 6076" d="M241.346,272.264l-6.506-1.722.028-.042,6.506,1.722Z" transform="translate(-104.325 -242.871)" fill="#fff"/>
      <path id="Path_6077" data-name="Path 6077" d="M239.435,272.112l-4.805-1.27.028-.042,4.805,1.277Z" transform="translate(-104.263 -242.959)" fill="#fff"/>
      <path id="Path_6078" data-name="Path 6078" d="M239.482,274.813l-7.352-1.947.91-1.305,7.345,1.947Z" transform="translate(-103.527 -243.183)" fill="#9676ff"/>
      <path id="Path_6079" data-name="Path 6079" d="M231.17,272.959l.677.183.452-.642Z" transform="translate(-103.245 -243.459)" fill="#9676ff"/>
      <path id="Path_6080" data-name="Path 6080" d="M240.162,273.944l-6.492-1.722.028-.042,6.492,1.722Z" transform="translate(-103.981 -243.365)" fill="#fff"/>
      <path id="Path_6081" data-name="Path 6081" d="M238.8,273.943l-5.341-1.418.028-.035,5.341,1.411Z" transform="translate(-103.919 -243.457)" fill="#fff"/>
      <path id="Path_6082" data-name="Path 6082" d="M239.128,274.385l-5.878-1.559.028-.035,5.878,1.559Z" transform="translate(-103.857 -243.545)" fill="#fff"/>
      <path id="Path_6083" data-name="Path 6083" d="M237.577,274.332l-4.537-1.2.028-.042,4.537,1.2Z" transform="translate(-103.795 -243.633)" fill="#fff"/>
      <path id="Path_6084" data-name="Path 6084" d="M234.635,281.552,227.29,279.6l1.277-1.835,7.345,1.94Z" transform="translate(-102.102 -245.011)" fill="#dbdbdb"/>
      <path id="Path_6085" data-name="Path 6085" d="M226.32,279.926l.684.176.445-.642Z" transform="translate(-101.817 -245.508)" fill="#dbdbdb"/>
      <path id="Path_6086" data-name="Path 6086" d="M234.866,280.955l-6.146-1.63.028-.035,6.146,1.623Z" transform="translate(-102.523 -245.458)" fill="#fff"/>
      <path id="Path_6087" data-name="Path 6087" d="M234.155,281.128l-5.645-1.5.028-.042,5.645,1.5Z" transform="translate(-102.461 -245.547)" fill="#fff"/>
      <path id="Path_6088" data-name="Path 6088" d="M234.936,280.253l-5.786-1.531.028-.042,5.786,1.538Z" transform="translate(-102.65 -245.279)" fill="#fff"/>
      <path id="Path_6089" data-name="Path 6089" d="M235.781,280.123l-6.421-1.7.028-.042,6.421,1.7Z" transform="translate(-102.712 -245.191)" fill="#fff"/>
      <path id="Path_6090" data-name="Path 6090" d="M234.149,281.478l-5.849-1.545.028-.042,5.842,1.552Z" transform="translate(-102.4 -245.635)" fill="#fff"/>
      <path id="Path_6091" data-name="Path 6091" d="M230.055,288.269l-7.345-1.947,1.065-1.531,7.345,1.947Z" transform="translate(-100.754 -247.078)" fill="#9676ff"/>
      <path id="Path_6092" data-name="Path 6092" d="M221.74,286.509l.684.183.445-.642Z" transform="translate(-100.468 -247.449)" fill="#9676ff"/>
      <path id="Path_6093" data-name="Path 6093" d="M230.986,287.154l-6.506-1.722.028-.042,6.506,1.722Z" transform="translate(-101.275 -247.254)" fill="#fff"/>
      <path id="Path_6094" data-name="Path 6094" d="M230.776,287.454l-6.506-1.722.028-.042,6.506,1.729Z" transform="translate(-101.213 -247.343)" fill="#fff"/>
      <path id="Path_6095" data-name="Path 6095" d="M230.051,287.623l-5.991-1.588.021-.035,6,1.588Z" transform="translate(-101.151 -247.434)" fill="#fff"/>
      <path id="Path_6096" data-name="Path 6096" d="M230.346,288.064l-6.506-1.722.028-.042,6.506,1.722Z" transform="translate(-101.087 -247.522)" fill="#fff"/>
      <path id="Path_6097" data-name="Path 6097" d="M228.442,287.912l-4.812-1.27.028-.042,4.812,1.277Z" transform="translate(-101.025 -247.611)" fill="#fff"/>
      <path id="Path_6098" data-name="Path 6098" d="M222.426,292c-2.59.2,5.518-5.588,5.461-8.552s-2.879-1.849-5.045-.042c-7.515,6.28-13.477,6.35-17.125,12.143S222.426,292,222.426,292Z" transform="translate(-95.623 -246.143)" fill="#d3766a"/>
      <path id="Path_6099" data-name="Path 6099" d="M185.13,325.416q5.927-1.947,11.706-4.234a83.792,83.792,0,0,0,11.191-5.327,44.357,44.357,0,0,0,5.116-3.472c1.651-1.249,3.232-2.582,4.749-3.98a39.359,39.359,0,0,0,7.7-9.674,34.928,34.928,0,0,1-3.2,5.363,41.426,41.426,0,0,1-4.121,4.706,52.206,52.206,0,0,1-4.735,4.092,45.532,45.532,0,0,1-5.151,3.57,60.115,60.115,0,0,1-5.581,2.822q-2.822,1.291-5.779,2.385c-1.955.706-3.916,1.411-5.9,2.032S187.155,324.922,185.13,325.416Z" transform="translate(-89.69 -251.182)" fill="#263238"/>
      <path id="Path_6100" data-name="Path 6100" d="M146.916,298.822c-.43-1.009-.91-2-1.411-2.992h-.035c.261.706.515,1.411.783,2.117l-.212-.3-.522-.769h-.049a8.26,8.26,0,0,0,.466.79l.268.381.141.19.049.056c.078.191.141.381.219.572.416,1.009.882,2,1.334,3.006,0,.071.162.042.134-.035C147.721,300.847,147.34,299.831,146.916,298.822Z" transform="translate(-78.014 -250.328)" fill="#263238"/>
      <path id="Path_6101" data-name="Path 6101" d="M159.773,292.379c-.649-.882-1.249-1.806-1.863-2.717h0c.473.586.953,1.171,1.411,1.757l-.148-.339c-.127-.282-.261-.564-.4-.84,0,0,0-.056.042-.035.155.261.3.522.437.8q.106.212.191.423l.085.219a.347.347,0,0,1,0,.078l.381.48c.649.875,1.27,1.785,1.9,2.681.042.063-.049.162-.1.106C161.092,294.129,160.415,293.261,159.773,292.379Z" transform="translate(-81.677 -248.506)" fill="#263238"/>
    </g>
  </g>
</svg>
