<svg xmlns="http://www.w3.org/2000/svg" width="293.463" height="288.432" viewBox="0 0 293.463 288.432">
  <g id="Feed-pana" transform="translate(-45.25 -63.57)">
    <g id="freepik--background-simple--inject-447" transform="translate(80.257 66.412)">
      <path id="Path_3692" data-name="Path 3692" d="M330.031,101.55l-1.483-2.444c-12.477-20.56-35.029-32.965-58.814-31.446a61.989,61.989,0,0,0-9.108,1.247c-21.621,4.651-40.468,21-48.237,41.959-4.586,12.319-5.869,26.516-14.569,36.276-11.33,12.72-30.565,13.122-47.47,12.6s-36.154-.079-47.427,12.692c-7.059,8-9.316,19.349-8.736,30.1,1.512,28.364,21.277,53.748,46.409,66.332s54.73,13.738,82.241,8.191c38.534-7.768,75.182-29.1,97.212-62.054S347.653,137.131,330.031,101.55Z" transform="translate(-94.099 -67.535)" fill="#ebebeb"/>
    </g>
    <g id="freepik--Floor--inject-447" transform="translate(45.25 351.629)">
      <path id="Path_3693" data-name="Path 3693" d="M338.713,465.716c0,.1-65.7.186-146.724.186s-146.739-.086-146.739-.186,65.687-.186,146.739-.186S338.713,465.609,338.713,465.716Z" transform="translate(-45.25 -465.53)" fill="#263238"/>
    </g>
    <g id="freepik--screen-2--inject-447" transform="translate(138.047 177.673)">
      <rect id="Rectangle_2425" data-name="Rectangle 2425" width="128.206" height="170.373" transform="translate(0.15 0.186)" fill="#fff"/>
      <path id="Path_3694" data-name="Path 3694" d="M303.1,393.35c0-1.483-.072-69.442-.172-170.373l.172.172H174.9l.186-.186c0,63.444,0,122.258-.036,170.373l-.151-.158,128.206.158-128.185.165h-.15v-.151c0-48.115,0-106.929-.036-170.373v-.186H303.283v.165C303.161,323.907,303.1,391.866,303.1,393.35Z" transform="translate(-174.74 -222.79)" fill="#263238"/>
      <path id="Path_3695" data-name="Path 3695" d="M252.3,251.006c0,.1-7.826.186-17.472.186s-17.479-.086-17.479-.186,7.819-.186,17.479-.186S252.3,250.9,252.3,251.006Z" transform="translate(-186.814 -230.733)" fill="#263238"/>
      <path id="Path_3696" data-name="Path 3696" d="M268.456,245.2c0,.108-11.509.194-25.713.194s-25.713-.086-25.713-.194,11.509-.186,25.713-.186S268.456,245.1,268.456,245.2Z" transform="translate(-186.723 -229.086)" fill="#263238"/>
      <circle id="Ellipse_423" data-name="Ellipse 423" cx="6.744" cy="6.744" r="6.744" transform="translate(6.925 12.453) rotate(-22.36)" fill="#9676ff"/>
      <path id="Path_3697" data-name="Path 3697" d="M197.718,242.824a1.684,1.684,0,1,1-1.684-1.684,1.684,1.684,0,0,1,1.684,1.684Z" transform="translate(-180.297 -227.99)" fill="#fff"/>
      <path id="Path_3698" data-name="Path 3698" d="M193.855,248.791a.717.717,0,0,1-.308-.91,2.422,2.422,0,0,1,4.551,0,.674.674,0,0,1-.308.91,4.3,4.3,0,0,1-3.934,0Z" transform="translate(-180.052 -229.449)" fill="#fff"/>
      <rect id="Rectangle_2426" data-name="Rectangle 2426" width="55.683" height="53.87" transform="translate(6.564 94.274)" fill="#f5f5f5"/>
      <path id="Path_3699" data-name="Path 3699" d="M189.92,412.12l15.408-27.72,12.6,17.715,7.654-9.409,11.387,19.414Z" transform="translate(-179.041 -268.584)" fill="#e0e0e0"/>
      <path id="Path_3700" data-name="Path 3700" d="M233.312,375.293a4.006,4.006,0,1,1-1.171-2.837A4.006,4.006,0,0,1,233.312,375.293Z" transform="translate(-189.067 -264.867)" fill="#e0e0e0"/>
      <rect id="Rectangle_2427" data-name="Rectangle 2427" width="55.683" height="53.87" transform="translate(65.544 94.274)" fill="#f5f5f5"/>
      <path id="Path_3701" data-name="Path 3701" d="M272.22,412.12l15.4-27.72,12.6,17.715,7.661-9.409,11.387,19.414Z" transform="translate(-202.362 -268.584)" fill="#e0e0e0"/>
      <path id="Path_3702" data-name="Path 3702" d="M315.612,375.293a4.006,4.006,0,1,1-1.171-2.837A4.006,4.006,0,0,1,315.612,375.293Z" transform="translate(-212.388 -264.867)" fill="#e0e0e0"/>
      <rect id="Rectangle_2428" data-name="Rectangle 2428" width="114.497" height="59.667" transform="translate(7.002 29.181)" fill="#f5f5f5"/>
      <circle id="Ellipse_424" data-name="Ellipse 424" cx="6.349" cy="6.349" r="6.349" transform="matrix(0.231, -0.973, 0.973, 0.231, 81.292, 53.474)" fill="#e0e0e0"/>
      <path id="Path_3703" data-name="Path 3703" d="M184.51,330.924l23-40.074,12.742,18.066,11.868-15.307,34.334,37.315Z" transform="translate(-177.508 -242.076)" fill="#e0e0e0"/>
      <path id="Path_3704" data-name="Path 3704" d="M291.89,334.209l16.841-31.769,19.543,31.769Z" transform="translate(-207.936 -245.36)" fill="#e0e0e0"/>
      <path id="Path_3705" data-name="Path 3705" d="M280.923,272.944a3.863,3.863,0,0,0-4.142-.667,4.844,4.844,0,0,0-7.99-3.2c-2.064-2.788-9.761-1.111-10.241,4.257l10.914,18.747a5.4,5.4,0,0,0,9.166-4.4,4,4,0,0,0,1.906-6.787,6.607,6.607,0,0,0,1.885-3.927A4.88,4.88,0,0,0,280.923,272.944Z" transform="translate(-198.489 -235.528)" fill="#263238"/>
      <path id="Path_3706" data-name="Path 3706" d="M258.55,274.543a8.471,8.471,0,0,1,5.905-3.483,12.639,12.639,0,0,1,9.531,1.978,11.428,11.428,0,0,1,4.149,7.819,7.768,7.768,0,0,1-.48,3.11,5.633,5.633,0,0,1-2.408,2.867c-.953.5-1.347.179-2.15-.53a4.708,4.708,0,0,1-1.039-1.641,24.056,24.056,0,0,0-4.407-6.98,10.2,10.2,0,0,0-7.353-3.3" transform="translate(-198.489 -236.411)" fill="#9676ff"/>
      <path id="Path_3707" data-name="Path 3707" d="M272.378,279.762a13.063,13.063,0,0,1-.315-2.867,6.077,6.077,0,0,0-3.884-4.651,9.316,9.316,0,0,0-6.235.036,8.664,8.664,0,0,0-3.949,2.5,6.873,6.873,0,0,0-1.132,6.077l10.6-1.6a11.959,11.959,0,0,0,3.232,2.186,2.314,2.314,0,0,0,1.118.193,1,1,0,0,0,.839-.681,2.093,2.093,0,0,0-.272-1.2Z" transform="translate(-197.933 -236.656)" fill="#263238"/>
      <path id="Path_3708" data-name="Path 3708" d="M261.7,276.636l9.316,2.107a1.749,1.749,0,0,1,1.655,1.734l-.373,20.288a6.242,6.242,0,0,1-1.369,3.805l-.91,1.147a4.622,4.622,0,0,1-7.711-.674,2.6,2.6,0,0,1-.215-.537,4.116,4.116,0,0,1-.079-.459,14.337,14.337,0,0,1-.122-3.074c-.072-1.806-.093-2.551-.093-2.53s-3.827-.537-4.744-5.489a53.106,53.106,0,0,1-.322-9.847C256.832,280.111,258.716,276.4,261.7,276.636Z" transform="translate(-197.953 -238.045)" fill="#c58674"/>
      <path id="Path_3709" data-name="Path 3709" d="M259.8,290.225a.645.645,0,0,0,.631.631.616.616,0,0,0,.645-.595.645.645,0,0,0-.631-.631.616.616,0,0,0-.645.595Z" transform="translate(-198.843 -241.73)" fill="#263238"/>
      <path id="Path_3710" data-name="Path 3710" d="M258.046,288.3c.079.079.552-.287,1.24-.308s1.2.315,1.276.229-.05-.186-.272-.337a1.727,1.727,0,0,0-1.025-.287,1.691,1.691,0,0,0-.982.344C258.075,288.115,258.01,288.266,258.046,288.3Z" transform="translate(-198.343 -241.154)" fill="#263238"/>
      <path id="Path_3711" data-name="Path 3711" d="M268.54,290.087a.638.638,0,0,0,.631.631.616.616,0,0,0,.645-.595.638.638,0,0,0-.638-.623.595.595,0,0,0-.638.588Z" transform="translate(-201.319 -241.693)" fill="#263238"/>
      <path id="Path_3712" data-name="Path 3712" d="M267.466,288.232c.086.086.559-.287,1.247-.3s1.2.315,1.268.229-.05-.186-.272-.344a1.77,1.77,0,0,0-1.018-.287,1.649,1.649,0,0,0-.989.351C267.495,288.046,267.43,288.2,267.466,288.232Z" transform="translate(-201.013 -241.135)" fill="#263238"/>
      <path id="Path_3713" data-name="Path 3713" d="M263.485,293.446a4.809,4.809,0,0,0-1.118-.172c-.179,0-.344-.043-.38-.165a.931.931,0,0,1,.107-.523c.15-.423.315-.874.48-1.347a22.711,22.711,0,0,0,1.075-3.519,22.932,22.932,0,0,0-1.354,3.426c-.158.473-.315.924-.459,1.354a1.025,1.025,0,0,0-.079.717.444.444,0,0,0,.3.244.888.888,0,0,0,.294.036A4.107,4.107,0,0,0,263.485,293.446Z" transform="translate(-199.389 -241.189)" fill="#263238"/>
      <path id="Path_3714" data-name="Path 3714" d="M263.81,306.3a12.656,12.656,0,0,0,6.622-1.956s-1.584,3.49-6.579,3.153Z" transform="translate(-199.979 -245.898)" fill="#976558"/>
      <path id="Path_3715" data-name="Path 3715" d="M264.624,297.805a1.24,1.24,0,0,1,1.1-.487,1.125,1.125,0,0,1,.788.394.717.717,0,0,1,.079.817.831.831,0,0,1-.9.251,2.572,2.572,0,0,1-.9-.494,1.061,1.061,0,0,1-.2-.2.236.236,0,0,1,0-.258" transform="translate(-200.191 -243.907)" fill="#976558"/>
      <path id="Path_3716" data-name="Path 3716" d="M266.15,296.3c-.115,0-.093.717-.717,1.29s-1.433.48-1.433.588.179.136.516.136a1.842,1.842,0,0,0,1.19-.444,1.613,1.613,0,0,0,.552-1.082C266.3,296.479,266.214,296.293,266.15,296.3Z" transform="translate(-200.033 -243.62)" fill="#263238"/>
      <path id="Path_3717" data-name="Path 3717" d="M267.238,285.4c.072.186.752.079,1.562.158s1.433.28,1.569.107-.072-.258-.344-.43a2.759,2.759,0,0,0-2.386-.2C267.353,285.167,267.2,285.318,267.238,285.4Z" transform="translate(-200.949 -240.377)" fill="#263238"/>
      <path id="Path_3718" data-name="Path 3718" d="M258.212,284.087c.122.158.595,0,1.161-.043s1.053.079,1.161-.086,0-.236-.251-.38a1.691,1.691,0,0,0-1.87.108C258.219,283.851,258.155,284.016,258.212,284.087Z" transform="translate(-198.387 -239.95)" fill="#263238"/>
      <path id="Path_3719" data-name="Path 3719" d="M275.9,278.395c-.932-2.867-5.131-6.808-8.134-6.579L263,274.7a4.651,4.651,0,0,0,3.175,3.526c.853.251,1.87.315,2.386,1.046s.222,1.827.717,2.594c.674,1.061,2.494,1,3,2.15.222.5.115,1.1.344,1.6a3.24,3.24,0,0,0,2.695,1.276c.7-.222.717-1.433.917-2.042a3.325,3.325,0,0,0,.086-2.207C276,281.261,276.372,279.728,275.9,278.395Z" transform="translate(-199.75 -236.68)" fill="#263238"/>
      <path id="Path_3720" data-name="Path 3720" d="M275.851,275.8l-.365,1.584a6.407,6.407,0,0,0-.824-3.246c-1.2-1.806-3.841-3.031-5.927-3.633a10.85,10.85,0,0,0-6.658.573,9.424,9.424,0,0,0-4.465,3.5c-1.526,2.071-1.885,5.188-.939,5.733.717-2.15,1.928-4.6,3.805-5.891a7.8,7.8,0,0,1,6.493-1.168,9.029,9.029,0,0,1,5.346,5.059,19.463,19.463,0,0,1,1.218,3.648,9.317,9.317,0,0,1,0,4.472l-1.211,4.243v1.383c2.953-1.089,4.78-4.171,5.267-7.281a12.441,12.441,0,0,0-1.741-8.979Z" transform="translate(-197.809 -236.23)" fill="#9676ff"/>
      <path id="Path_3721" data-name="Path 3721" d="M277.32,293.141c0-.373.394-1.261.76-1.326.975-.179,2.738-.143,2.816,2.336.115,3.39-3.318,2.8-3.325,2.709S277.349,294.416,277.32,293.141Z" transform="translate(-203.807 -242.331)" fill="#c58674"/>
      <path id="Path_3722" data-name="Path 3722" d="M279.054,295.931a.3.3,0,0,1,.158.079.6.6,0,0,0,.444,0,1.433,1.433,0,0,0,.631-1.333,1.95,1.95,0,0,0-.186-.839.674.674,0,0,0-.466-.437.3.3,0,0,0-.344.172c-.036.093,0,.165-.036.172s-.072-.057-.05-.2a.387.387,0,0,1,.129-.215.437.437,0,0,1,.323-.1.839.839,0,0,1,.638.509,2,2,0,0,1,.229.939,1.512,1.512,0,0,1-.81,1.491.623.623,0,0,1-.545-.072C279.061,296.038,279.011,295.967,279.054,295.931Z" transform="translate(-204.294 -242.749)" fill="#976558"/>
      <path id="Path_3723" data-name="Path 3723" d="M275.43,290.085a2.328,2.328,0,0,1,.158-.351,9.9,9.9,0,0,0,.423-1.01,11.08,11.08,0,0,0,.652-3.934,16.26,16.26,0,0,0-.287-2.752,17.568,17.568,0,0,0-.8-3.074,11.517,11.517,0,0,0-1.684-3.046,11.131,11.131,0,0,0-2.752-2.508,10.148,10.148,0,0,0-6.887-1.534A9.553,9.553,0,0,0,259,274.326a9.818,9.818,0,0,0-2.322,3.218c-.193.437-.315.781-.394,1.018a2.381,2.381,0,0,1-.122.366,1.361,1.361,0,0,1,.079-.373,8.84,8.84,0,0,1,.351-1.046,9.739,9.739,0,0,1,4.579-4.909,9.939,9.939,0,0,1,3.053-.939,10.326,10.326,0,0,1,7.037,1.548,11.357,11.357,0,0,1,2.809,2.566,11.9,11.9,0,0,1,1.706,3.117,17.423,17.423,0,0,1,.8,3.11,17.2,17.2,0,0,1,.258,2.773,10.807,10.807,0,0,1-.717,3.97,9.316,9.316,0,0,1-.466,1,2.79,2.79,0,0,1-.215.344Z" transform="translate(-197.811 -236.609)" fill="#263238"/>
      <path id="Path_3724" data-name="Path 3724" d="M243.652,322.478s.566-4.515,2.745-6.772,11.6-5.188,11.6-5.188.065,3.325,2.243,4.1a5.4,5.4,0,0,0,6.256-1.577,9.144,9.144,0,0,0,1.956-4.3s11.409,1.053,13.179,4.035,4.07,14.541,4.07,14.541l-10.169,2.15-.394,6.493H250.525l-.115-5.267-7.36,1.053Z" transform="translate(-194.097 -247.145)" fill="#455a64"/>
      <path id="Path_3725" data-name="Path 3725" d="M285.535,334.122a1.735,1.735,0,0,1-.036-.451v-1.218c0-1.032,0-2.458.05-4.035s.079-3,.122-4.027c0-.516.043-.939.057-1.225a1.757,1.757,0,0,1,.057-.444,1.7,1.7,0,0,1,.036.444c0,.287,0,.717,0,1.225,0,1.032,0,2.458-.05,4.035s-.079,3-.122,4.028c0,.516-.043.932-.057,1.225a1.755,1.755,0,0,1-.057.444Z" transform="translate(-206.124 -251.106)" fill="#263238"/>
      <path id="Path_3726" data-name="Path 3726" d="M249.818,327.19a46.215,46.215,0,0,1,1.433,4.515c.717,2.508,1.254,4.551,1.2,4.572a45.642,45.642,0,0,1-1.433-4.508C250.291,329.261,249.761,327.212,249.818,327.19Z" transform="translate(-196.013 -252.373)" fill="#263238"/>
      <path id="Path_3727" data-name="Path 3727" d="M292.775,313.409c0,.043-.487.136-1.225.416a8.815,8.815,0,0,0-4.579,3.977c-.38.717-.537,1.175-.58,1.161a1.075,1.075,0,0,1,.079-.344,5.063,5.063,0,0,1,.358-.889,8.091,8.091,0,0,1,4.665-4.063,5.894,5.894,0,0,1,.932-.229A1.289,1.289,0,0,1,292.775,313.409Z" transform="translate(-206.377 -248.468)" fill="#263238"/>
      <path id="Path_3728" data-name="Path 3728" d="M247.49,319.73a5.017,5.017,0,0,1,.473,1.433,4.687,4.687,0,0,1,.251,1.433,9.467,9.467,0,0,1-.717-2.867Z" transform="translate(-195.355 -250.259)" fill="#263238"/>
      <path id="Path_3729" data-name="Path 3729" d="M286.414,337.232l-1.3,6.271h9.058l1.641-8.263Z" transform="translate(-206.015 -254.654)" fill="#c58674"/>
      <path id="Path_3730" data-name="Path 3730" d="M248.548,336.249l-3.461.494-3.3-8.514-5.31,2.15,3.282,11.136H249.91Z" transform="translate(-192.235 -252.668)" fill="#c58674"/>
      <path id="Path_3731" data-name="Path 3731" d="M228.614,306.831s.466-.631,1.555.344,5.6,8.6,5.955,9.316,2.394,5.633,2.394,5.633l-4.551,3.225-.76-1.075s-3.813-3.39-4.594-4.3a20.066,20.066,0,0,1-1.87-2.494c-.036-.194-.308-1.175.466-1.433,0,0-.717-1.182-.072-1.763s1.863-.043,1.863-.043l-4.02-5.282s-.351-1.555.817-.967,4.242,5.059,4.787,5.174.545-.466.545-.466S227.911,307.884,228.614,306.831Z" transform="translate(-188.962 -246.547)" fill="#c58674"/>
      <path id="Path_3732" data-name="Path 3732" d="M234.622,323.172a1.28,1.28,0,0,1-.093-.215,3.146,3.146,0,0,1,.451-2.96v.122l-1.333-1.62h0c-.315-.179-.645-.38-.975-.6l-.494-.337a3.17,3.17,0,0,1-.494-.409.91.91,0,0,1-.244-.545.717.717,0,0,1,.244-.545l.043-.043h.064l2.795.8h0l2.272,1.7a8.152,8.152,0,0,1,.81.659,6.618,6.618,0,0,1-.881-.559l-2.257-1.577h0l-2.809-.767h.107a.523.523,0,0,0-.158.373.6.6,0,0,0,.186.387,2.609,2.609,0,0,0,.452.373l.487.344c.322.215.645.416.96.595h0l1.311,1.648.05.057-.057.064a2.7,2.7,0,0,0-.566,1.161,3.189,3.189,0,0,0-.072,1.01C234.536,322.864,234.651,323.172,234.622,323.172Z" transform="translate(-190.807 -249.208)" fill="#976558"/>
      <path id="Path_3733" data-name="Path 3733" d="M229.776,317.52a2.393,2.393,0,0,1,.387.459,12.652,12.652,0,0,1,.867,1.383,10.676,10.676,0,0,1,.48,1.025,1.1,1.1,0,0,1,.064.674.717.717,0,0,1-.545.495,1.118,1.118,0,0,1-.717-.122,3.066,3.066,0,0,1-.616-.43,5.977,5.977,0,0,1-1.018-1.175c-.165-.244-.315-.48-.459-.717l.186-.143a11.151,11.151,0,0,1,1.483,2.229,1.247,1.247,0,0,1,.143.623.717.717,0,0,1-.3.545.638.638,0,0,1-.58,0,1.607,1.607,0,0,1-.416-.272,6.832,6.832,0,0,1-.967-1.061,1.734,1.734,0,0,1-.279-.444,14.711,14.711,0,0,0,1.347,1.383c.215.179.537.373.8.215a.53.53,0,0,0,.208-.4,1.089,1.089,0,0,0-.136-.516,11.336,11.336,0,0,0-1.433-2.15l.186-.143c.143.229.294.466.452.717a6.056,6.056,0,0,0,.967,1.139,1.548,1.548,0,0,0,1.175.516.494.494,0,0,0,.387-.344.975.975,0,0,0-.043-.552,10.521,10.521,0,0,0-.451-1.018,15.764,15.764,0,0,0-.8-1.433,3.393,3.393,0,0,1-.373-.48Z" transform="translate(-189.687 -249.633)" fill="#976558"/>
      <path id="Path_3734" data-name="Path 3734" d="M322.8,441.71a2.15,2.15,0,1,1-2.15-2.15A2.15,2.15,0,0,1,322.8,441.71Z" transform="translate(-215.476 -284.215)" fill="#9676ff"/>
      <path id="Path_3735" data-name="Path 3735" d="M331.39,441.71a2.15,2.15,0,1,1-2.15-2.15A2.15,2.15,0,0,1,331.39,441.71Z" transform="translate(-217.91 -284.215)" fill="#455a64"/>
      <path id="Path_3736" data-name="Path 3736" d="M339.97,441.71a2.15,2.15,0,1,1-2.15-2.15A2.15,2.15,0,0,1,339.97,441.71Z" transform="translate(-220.342 -284.215)" fill="#ebebeb"/>
      <path id="Path_3737" data-name="Path 3737" d="M255.47,442.486c0,.107-15.73.186-35.115.186s-35.115-.079-35.115-.186,15.723-.186,35.115-.186S255.47,442.386,255.47,442.486Z" transform="translate(-177.715 -284.991)" fill="#263238"/>
      <path id="Path_3738" data-name="Path 3738" d="M298.959,323.069v-4.178c0-2.73,0-6.751-.036-11.911,0-10.32-.043-25.218-.072-43.579l.136.143-114.483.043h0l.186-.186V323.07l-.179-.172,82.291.086,23.692.043h.079l-23.649.05-82.413.086h-.172V263.13h.2l114.483.05h.143v.136c0,18.4-.057,33.324-.079,43.665v14.963A4.226,4.226,0,0,1,298.959,323.069Z" transform="translate(-177.46 -234.221)" fill="#263238"/>
      <path id="Path_3739" data-name="Path 3739" d="M239.539,408.119v-3.841c0-2.537,0-6.242-.043-10.957,0-9.417-.043-22.868-.079-39.014l.158.165H183.906l.186-.186v53.87l-.158-.158,40.3.079,11.337.043h.072l-11.3.036-40.4.086h-.165V354.02H239.8v.158c-.036,16.189-.064,29.669-.086,39.121,0,4.694,0,8.385-.036,10.914V407.8A.616.616,0,0,1,239.539,408.119Z" transform="translate(-177.299 -259.976)" fill="#263238"/>
      <path id="Path_3740" data-name="Path 3740" d="M322.226,408.119v-3.841c0-2.537,0-6.242-.043-10.957,0-9.417-.043-22.868-.079-39.014l.158.165H266.586l.186-.186v53.87l-.158-.158,40.3.079,11.337.043h.072l-11.3.036-40.4.086h-.165V354.02h56.027v.158c-.036,16.189-.065,29.669-.086,39.121,0,4.694,0,8.385-.043,10.914V407.8A.651.651,0,0,1,322.226,408.119Z" transform="translate(-200.727 -259.976)" fill="#263238"/>
    </g>
    <g id="freepik--screen-1--inject-447" transform="translate(138.069 63.57)">
      <rect id="Rectangle_2429" data-name="Rectangle 2429" width="128.206" height="109" transform="translate(0.129 0.186)" fill="#fff"/>
      <path id="Path_3741" data-name="Path 3741" d="M303.105,172.757v-7.826c0-5.1,0-12.57-.043-22.094,0-19.034-.043-46.266-.079-79.081l.158.158-128.206.029h0l.186-.186v109l-.165-.165,92.711.079,26.172.05h.057l-26.136.043-92.826.158h-.165V63.57H303.284v.158c-.036,32.851-.065,60.119-.086,79.174,0,9.51,0,16.97-.036,22.065v5.79C303.163,172.076,303.105,172.757,303.105,172.757Z" transform="translate(-174.77 -63.57)" fill="#263238"/>
      <path id="Path_3742" data-name="Path 3742" d="M252.3,91.786c0,.1-7.826.186-17.472.186s-17.479-.086-17.479-.186,7.819-.186,17.479-.186S252.3,91.679,252.3,91.786Z" transform="translate(-186.836 -71.513)" fill="#263238"/>
      <rect id="Rectangle_2430" data-name="Rectangle 2430" width="114.497" height="59.667" transform="translate(6.701 30.113)" fill="#f5f5f5"/>
      <path id="Path_3743" data-name="Path 3743" d="M251.766,170.452c-1.627,2.867-7.166,12.283-7.166,12.283l8.241-.681L255.2,167.27S253.393,167.578,251.766,170.452Z" transform="translate(-194.557 -92.955)" fill="#9676ff"/>
      <path id="Path_3744" data-name="Path 3744" d="M281.484,160.19l-19.027,3.067s-6.894,1.433-7.883,5.733l-.344,11.767h34.477l2.236-16.991Z" transform="translate(-197.286 -90.949)" fill="#9676ff"/>
      <path id="Path_3745" data-name="Path 3745" d="M273.268,117.982l.509-.043c5.5-.143,8.7,4.443,8.693,9.954l1.856,20.352-14,10.284.416-8.514h0l-.287-3.977s-5.332-.373-5.841-5.633c-.251-2.537-.33-7.8-.351-12.577A9.832,9.832,0,0,1,273.268,117.982Z" transform="translate(-200.128 -78.975)" fill="#ffbe9d"/>
      <path id="Path_3746" data-name="Path 3746" d="M272.89,156.1a12.255,12.255,0,0,0,6.7-2.53s-1.3,3.927-6.593,3.9Z" transform="translate(-202.574 -89.073)" fill="#eb996e"/>
      <path id="Path_3747" data-name="Path 3747" d="M266.35,137.315a.752.752,0,0,0,.788.717.718.718,0,1,0-.788-.717Z" transform="translate(-200.72 -84.263)" fill="#263238"/>
      <path id="Path_3748" data-name="Path 3748" d="M265.993,134.416c.1.093.638-.38,1.433-.444s1.433.287,1.519.179-.072-.215-.344-.38a2.05,2.05,0,0,0-1.225-.265,2,2,0,0,0-1.139.473C265.993,134.194,265.943,134.38,265.993,134.416Z" transform="translate(-200.614 -83.385)" fill="#263238"/>
      <path id="Path_3749" data-name="Path 3749" d="M276.62,136.816a.753.753,0,0,0,1.5,0,.76.76,0,0,0-.788-.717A.717.717,0,0,0,276.62,136.816Z" transform="translate(-203.631 -84.122)" fill="#263238"/>
      <path id="Path_3750" data-name="Path 3750" d="M276.826,133.252c.093.1.674-.308,1.483-.287s1.433.444,1.491.344-.05-.222-.3-.416a2.057,2.057,0,0,0-1.19-.394,1.949,1.949,0,0,0-1.182.351C276.869,133.03,276.783,133.209,276.826,133.252Z" transform="translate(-203.686 -83.102)" fill="#263238"/>
      <path id="Path_3751" data-name="Path 3751" d="M273.034,140.474a5.834,5.834,0,0,0-1.34-.1c-.208,0-.408,0-.459-.165a1.089,1.089,0,0,1,.086-.623c.15-.516.315-1.061.48-1.627a27.171,27.171,0,0,0,1.025-4.228,26.293,26.293,0,0,0-1.362,4.135l-.452,1.634a1.211,1.211,0,0,0-.043.817.516.516,0,0,0,.365.272,1.621,1.621,0,0,0,.358,0A5.138,5.138,0,0,0,273.034,140.474Z" transform="translate(-202.015 -83.451)" fill="#263238"/>
      <path id="Path_3752" data-name="Path 3752" d="M276.677,129.233c.1.215.9.043,1.856.072s1.749.229,1.856,0c.05-.1-.1-.294-.43-.48a3.067,3.067,0,0,0-1.433-.365,3.031,3.031,0,0,0-1.433.294C276.8,128.946,276.634,129.133,276.677,129.233Z" transform="translate(-203.645 -81.956)" fill="#263238"/>
      <path id="Path_3753" data-name="Path 3753" d="M265.993,131.239c.158.172.717-.064,1.369-.129s1.247,0,1.362-.186-.05-.272-.315-.423a1.835,1.835,0,0,0-1.139-.208,1.87,1.87,0,0,0-1.061.459C265.993,130.959,265.943,131.16,265.993,131.239Z" transform="translate(-200.614 -82.472)" fill="#263238"/>
      <path id="Path_3754" data-name="Path 3754" d="M289.53,137.161c.086-.043,3.526-1.376,3.719,2.236s-3.49,2.867-3.483,2.953S289.551,137.562,289.53,137.161Z" transform="translate(-207.289 -84.345)" fill="#ffbe9d"/>
      <path id="Path_3755" data-name="Path 3755" d="M291.29,141.386a.958.958,0,0,0,.179.086.623.623,0,0,0,.466,0,1.548,1.548,0,0,0,.645-1.433,2.085,2.085,0,0,0-.222-.889.717.717,0,0,0-.494-.459.337.337,0,0,0-.365.194c-.043.107,0,.172-.036.179s-.079-.05-.057-.2a.373.373,0,0,1,.129-.236.466.466,0,0,1,.344-.108.874.874,0,0,1,.717.523,2.15,2.15,0,0,1,.265,1,1.62,1.62,0,0,1-.831,1.605.717.717,0,0,1-.581-.064C291.3,141.472,291.282,141.393,291.29,141.386Z" transform="translate(-207.787 -84.807)" fill="#eb996e"/>
      <path id="Path_3756" data-name="Path 3756" d="M262.717,120.157a1.827,1.827,0,0,1,1.254-1.584,1.641,1.641,0,0,1,2.4-2.15,1.684,1.684,0,0,1,2.15-1.7,1.433,1.433,0,0,1,2.587-1,2.451,2.451,0,0,1,3.784-.631,3.132,3.132,0,0,1,3.934,1.347,2.981,2.981,0,0,1,2.788,1.82,2.15,2.15,0,0,1,1.9,3.261,1.612,1.612,0,0,1,.545,2.508,1.584,1.584,0,0,1,.2,2.867c.537,0,.81.717.717,1.225a13.045,13.045,0,0,1-.631,1.476c-.165.509-.15.867-.265,1.3a2.867,2.867,0,0,1-1.548,1.835.665.665,0,0,0,.1.1c.136.459-.48.831-.932.681a2.35,2.35,0,0,1-1.018-.946,5.188,5.188,0,0,1-.874-1.362,1.24,1.24,0,0,1,.373-1.433,1.885,1.885,0,0,1-1.268-1.383,5.473,5.473,0,0,1-.05-1.964c.086-.967.179-1.928.265-2.867a3.619,3.619,0,0,1-3.282-1.777,2.057,2.057,0,0,1-3.046-.473,2.7,2.7,0,0,1-3.117,1.935c.2.717-1.075,1.534-1.792,1.792a2.659,2.659,0,0,1-1.677-.179s-1.2.853-1.906.638-1.691-1-1.3-1.756A3.332,3.332,0,0,1,262.717,120.157Z" transform="translate(-199.689 -77.424)" fill="#263238"/>
      <path id="Path_3757" data-name="Path 3757" d="M290.839,125.236a.691.691,0,0,1-.322.494.7.7,0,0,1-1.125-.337l-.057-.208-.158.158a.932.932,0,0,1-1.612-.666v-.215l-.193.1a.953.953,0,0,1-.717.057.968.968,0,0,1-.48-.351,2.042,2.042,0,0,1-.222-.509.734.734,0,0,0,.1.588,1.018,1.018,0,0,0,.53.466,1.125,1.125,0,0,0,.91,0l-.179-.115a1.175,1.175,0,0,0,2.05.846l-.215-.043a.946.946,0,0,0,.76.623.846.846,0,0,0,.717-.251C290.925,125.516,290.853,125.222,290.839,125.236Z" transform="translate(-206.268 -80.626)" fill="#455a64"/>
      <path id="Path_3758" data-name="Path 3758" d="M291.61,129.41a1.813,1.813,0,0,1-.365.186.867.867,0,0,1-.939-.308l-.086-.122-.086.115a.953.953,0,0,1-.9.337.932.932,0,0,1-.717-.781V128.6l-.193.15a.818.818,0,0,1-.158.086.652.652,0,0,1-.717-.179.717.717,0,0,1-.093-.717l.115-.229-.251.057a1.154,1.154,0,0,1-.846-.129,1.125,1.125,0,0,1-.451-.516,2.651,2.651,0,0,1-.136-.623.81.81,0,0,0,0,.674,1.218,1.218,0,0,0,.48.631,1.319,1.319,0,0,0,1.01.2l-.136-.172a.946.946,0,0,0,.1.989.91.91,0,0,0,1.053.265.8.8,0,0,0,.229-.129l-.222-.086a1.154,1.154,0,0,0,2.078.537h-.172a.932.932,0,0,0,.623.358,1.025,1.025,0,0,0,.53-.057C291.56,129.589,291.653,129.417,291.61,129.41Z" transform="translate(-206.208 -81.402)" fill="#455a64"/>
      <path id="Path_3759" data-name="Path 3759" d="M271.479,115.1a1.433,1.433,0,0,1,.387-.272.767.767,0,0,1,1.01.466l.065.2.093-.193a1.326,1.326,0,0,1,1.053-.717,1.283,1.283,0,0,1,1.268.8l.086.236.136-.215a1.6,1.6,0,0,1,1.19-.717,1.534,1.534,0,0,1,1.34.609,1.641,1.641,0,0,1,.279.559l.036.143.136-.043a1.541,1.541,0,0,1,1.784.652,1.569,1.569,0,0,1-.107,1.706l-.129.158h.2a1.706,1.706,0,0,1,1.139.595,1.613,1.613,0,0,1,.38.924,2.393,2.393,0,0,1-.115.889.657.657,0,0,0,.122-.208,1.641,1.641,0,0,0,.122-.717,1.755,1.755,0,0,0-.373-1.032,1.885,1.885,0,0,0-1.254-.717l.079.179a1.749,1.749,0,0,0-1.935-2.752l.172.093a1.856,1.856,0,0,0-.323-.666,1.792,1.792,0,0,0-1.577-.717,1.849,1.849,0,0,0-1.383.838h.222a1.433,1.433,0,0,0-2.709-.064h.158a.9.9,0,0,0-.6-.559.86.86,0,0,0-.6.057.9.9,0,0,0-.294.236A1.053,1.053,0,0,0,271.479,115.1Z" transform="translate(-202.173 -77.913)" fill="#455a64"/>
      <path id="Path_3760" data-name="Path 3760" d="M276.3,143.64c-.129,0-.057.881-.752,1.569s-1.641.674-1.641.8.222.15.623.129a2.229,2.229,0,0,0,1.369-.609,1.942,1.942,0,0,0,.58-1.311C276.483,143.841,276.368,143.633,276.3,143.64Z" transform="translate(-202.863 -86.259)" fill="#263238"/>
      <path id="Path_3761" data-name="Path 3761" d="M219.291,150.3a10.27,10.27,0,0,1,.236-4.414,31.152,31.152,0,0,0-.036-6.486,23.893,23.893,0,0,1,.172-6.45,8.75,8.75,0,0,1,3.246-5.454,5.41,5.41,0,0,1,6.091-.236l-.659,5.583a102.867,102.867,0,0,1,.423,23.52,30.1,30.1,0,0,1-7.08.545,1.433,1.433,0,0,1-1.29-.523c-.294-.509.107-1.125.258-1.7a3.332,3.332,0,0,0-.38-2.25A14.418,14.418,0,0,1,219.291,150.3Z" transform="translate(-187.336 -81.382)" fill="#263238"/>
      <path id="Path_3762" data-name="Path 3762" d="M228.283,129.009a5.984,5.984,0,0,1,2.408-1.591,2.028,2.028,0,0,1,1.161-.122.874.874,0,0,1,.717.846l-2.15,3.361a1.577,1.577,0,0,1-1.741.158,1.655,1.655,0,0,1-.975-1,1.9,1.9,0,0,1,.58-1.655Z" transform="translate(-189.764 -81.618)" fill="#9676ff"/>
      <path id="Path_3763" data-name="Path 3763" d="M248.35,172.65Z" transform="translate(-195.62 -94.479)" fill="#ffbe9d"/>
      <path id="Path_3764" data-name="Path 3764" d="M246.017,138.626a9.159,9.159,0,0,0-9.61-7.962,8.879,8.879,0,0,0-8.313,9.718l2.58,19.844a1.763,1.763,0,0,0,.5,1.01,8.2,8.2,0,0,0,5.733,2.286,8.6,8.6,0,0,0,4.966-2.064,1.691,1.691,0,0,0,.573-1.6l-.76-4.407a6.035,6.035,0,0,0,1.225-.265c1.1-.509,3.848-2.214,4.013-6.744A91.637,91.637,0,0,0,246.017,138.626Z" transform="translate(-189.868 -82.578)" fill="#ffbe9d"/>
      <path id="Path_3765" data-name="Path 3765" d="M245.368,149.935a5.1,5.1,0,0,1,1.247-.38c.193-.043.38-.107.394-.244a1,1,0,0,0-.208-.573l-.774-1.433a27.034,27.034,0,0,1-1.827-3.755,25.216,25.216,0,0,1,2.15,3.583l.76,1.433a1.154,1.154,0,0,1,.2.76.523.523,0,0,1-.294.33,1.942,1.942,0,0,1-.337.086,5.37,5.37,0,0,1-1.311.193Z" transform="translate(-194.444 -86.233)" fill="#263238"/>
      <path id="Path_3766" data-name="Path 3766" d="M250.888,145.777a.733.733,0,1,1-.831-.552A.717.717,0,0,1,250.888,145.777Z" transform="translate(-195.929 -86.705)" fill="#263238"/>
      <path id="Path_3767" data-name="Path 3767" d="M250.288,144.024c-.064.129-.717-.251-1.5-.1s-1.24.717-1.347.638,0-.265.193-.53a1.741,1.741,0,0,1,1.053-.652,1.77,1.77,0,0,1,1.218.222C250.2,143.773,250.317,143.96,250.288,144.024Z" transform="translate(-195.351 -86.177)" fill="#263238"/>
      <path id="Path_3768" data-name="Path 3768" d="M240.428,147.274a.732.732,0,1,1-.831-.559A.717.717,0,0,1,240.428,147.274Z" transform="translate(-192.965 -87.127)" fill="#263238"/>
      <path id="Path_3769" data-name="Path 3769" d="M239.747,145.584c-.086.122-.717-.344-1.577-.287s-1.433.559-1.548.451,0-.265.294-.5a2,2,0,0,1,1.225-.509,1.942,1.942,0,0,1,1.268.38A.847.847,0,0,1,239.747,145.584Z" transform="translate(-192.284 -86.569)" fill="#263238"/>
      <path id="Path_3770" data-name="Path 3770" d="M244.273,164.755a12.8,12.8,0,0,1-7.073-1.175s1.691,3.791,7.317,2.58Z" transform="translate(-192.46 -91.909)" fill="#eb996e"/>
      <path id="Path_3771" data-name="Path 3771" d="M244.785,154.94a1.433,1.433,0,0,0-1.333-.365,1.29,1.29,0,0,0-.831.58.8.8,0,0,0,.05.924.989.989,0,0,0,1.061.136,2.981,2.981,0,0,0,.932-.717.839.839,0,0,0,.193-.258.258.258,0,0,0,0-.287" transform="translate(-193.961 -89.346)" fill="#eb996e"/>
      <path id="Path_3772" data-name="Path 3772" d="M242.666,153.59c.129,0,.229.81,1.032,1.319s1.7.3,1.72.423-.179.186-.559.236a2.193,2.193,0,0,1-1.433-.3,1.827,1.827,0,0,1-.81-1.111C242.537,153.8,242.609,153.59,242.666,153.59Z" transform="translate(-193.985 -89.078)" fill="#263238"/>
      <path id="Path_3773" data-name="Path 3773" d="M239.508,141.9c-.05.222-.846.229-1.749.459s-1.612.58-1.763.408,0-.3.308-.537A3.068,3.068,0,0,1,239,141.6C239.336,141.661,239.523,141.8,239.508,141.9Z" transform="translate(-192.103 -85.655)" fill="#263238"/>
      <path id="Path_3774" data-name="Path 3774" d="M249.832,140.547c-.129.186-.681,0-1.34.064s-1.2.186-1.333,0,0-.272.244-.451a1.885,1.885,0,0,1,1.068-.351,1.856,1.856,0,0,1,1.089.294C249.8,140.282,249.9,140.461,249.832,140.547Z" transform="translate(-195.267 -85.173)" fill="#263238"/>
      <path id="Path_3775" data-name="Path 3775" d="M235.955,128.814a2.673,2.673,0,0,0-2.214-.752c-3.533.136-6.98,2.945-8.349,6.206a11.6,11.6,0,0,0,1.369,10.5h1.333c2.652-.717,5.733-9.022,8.714-13.874C237.173,130.276,236.421,129.344,235.955,128.814Z" transform="translate(-188.915 -81.839)" fill="#263238"/>
      <path id="Path_3776" data-name="Path 3776" d="M247.32,129.737c-1.756-1.362-4.472-2.91-7.238-1.2-.279.924.817,1.835,1.677,2.329,1.254.717,2.322,1.168,3.16,1.7,1.691,1.068,3.9,2.945,4.508,5.382.036.15.158.15.315.1a4.9,4.9,0,0,0,.444-2.544A6.564,6.564,0,0,0,247.32,129.737Z" transform="translate(-193.265 -81.765)" fill="#263238"/>
      <path id="Path_3777" data-name="Path 3777" d="M228.982,148.918c-.086,0-3.5-.674-3.067,2.7s3.741,2.243,3.734,2.15S228.982,148.918,228.982,148.918Z" transform="translate(-189.252 -87.739)" fill="#ffbe9d"/>
      <path id="Path_3778" data-name="Path 3778" d="M228.793,153.075a1.224,1.224,0,0,1-.15.107.581.581,0,0,1-.437.064,1.433,1.433,0,0,1-.846-1.218,2.014,2.014,0,0,1,.057-.86.674.674,0,0,1,.387-.509.3.3,0,0,1,.365.115c.057.086.043.158.064.165s.064-.072,0-.2a.358.358,0,0,0-.165-.2.458.458,0,0,0-.33-.043.838.838,0,0,0-.552.6,1.971,1.971,0,0,0-.079.967,1.541,1.541,0,0,0,1.046,1.354.638.638,0,0,0,.523-.165C228.793,153.161,228.808,153.082,228.793,153.075Z" transform="translate(-189.593 -88.198)" fill="#eb996e"/>
      <path id="Path_3779" data-name="Path 3779" d="M248.656,131.28a3.426,3.426,0,0,1-.953.294,13.194,13.194,0,0,1-2.394.33,13.733,13.733,0,0,1-2.415-.086,3.476,3.476,0,0,1-.975-.2,7.657,7.657,0,0,1,.989.05,20.926,20.926,0,0,0,2.386,0,22.117,22.117,0,0,0,2.379-.265A6.959,6.959,0,0,1,248.656,131.28Z" transform="translate(-193.798 -82.757)" fill="#455a64"/>
      <path id="Path_3780" data-name="Path 3780" d="M251.486,134.279a1.971,1.971,0,0,1-.717.294,5.733,5.733,0,0,1-1.827.215,5.625,5.625,0,0,1-1.8-.38,1.863,1.863,0,0,1-.674-.358,10.434,10.434,0,0,0,2.48.53A10.751,10.751,0,0,0,251.486,134.279Z" transform="translate(-195.087 -83.541)" fill="#455a64"/>
      <path id="Path_3781" data-name="Path 3781" d="M225.35,136.062a17.127,17.127,0,0,0,1.906-.265,15.18,15.18,0,0,0,2.007-.566,17.987,17.987,0,0,0,2.322-1.046,21.187,21.187,0,0,0,2.15-1.369,18.186,18.186,0,0,0,1.612-1.354c.874-.81,1.34-1.383,1.369-1.362a2.727,2.727,0,0,1-.308.423c-.1.136-.237.287-.394.466s-.344.38-.559.58a16.008,16.008,0,0,1-1.6,1.383,18.034,18.034,0,0,1-2.15,1.4,17.412,17.412,0,0,1-2.358,1.046,13.2,13.2,0,0,1-2.042.523,7.811,7.811,0,0,1-.8.107,5.017,5.017,0,0,1-.609,0,2,2,0,0,1-.545.036Z" transform="translate(-189.102 -82.422)" fill="#455a64"/>
      <path id="Path_3782" data-name="Path 3782" d="M237.156,131.83a3.153,3.153,0,0,1-.186.509,6.186,6.186,0,0,1-.265.581c-.115.222-.229.487-.394.752a14.01,14.01,0,0,1-1.24,1.827,14.489,14.489,0,0,1-1.885,1.949,14.134,14.134,0,0,1-2.222,1.541,13.5,13.5,0,0,1-2.014.91c-.294.115-.573.179-.81.251a5.67,5.67,0,0,1-.623.158,2.473,2.473,0,0,1-.538.086c0-.043.752-.193,1.913-.638a13.571,13.571,0,0,0,1.971-.932,15.834,15.834,0,0,0,2.15-1.534,16.074,16.074,0,0,0,1.87-1.913,16.483,16.483,0,0,0,1.261-1.777C236.827,132.532,237.113,131.808,237.156,131.83Z" transform="translate(-189.564 -82.912)" fill="#455a64"/>
      <path id="Path_3783" data-name="Path 3783" d="M237.32,128.035a1.261,1.261,0,0,1,.717-.064,2.909,2.909,0,0,1,1.526.631,2.186,2.186,0,0,1,.344.337,1.72,1.72,0,0,1,.236.38,5.016,5.016,0,0,1,.315.674,1.068,1.068,0,0,1,.064.681c-.036,0-.043-.258-.208-.631-.079-.179-.2-.394-.337-.631a2.865,2.865,0,0,0-.229-.344,2.515,2.515,0,0,0-.315-.3,3.261,3.261,0,0,0-1.433-.652A6.094,6.094,0,0,1,237.32,128.035Z" transform="translate(-192.494 -81.812)" fill="#455a64"/>
      <path id="Path_3784" data-name="Path 3784" d="M231.88,142.628a9.067,9.067,0,0,0,1.964-.717,8.657,8.657,0,0,0,3.5-3.483,13.616,13.616,0,0,0,1.483-4.773c.086-.645.129-1.161.158-1.526a3.651,3.651,0,0,1,.057-.559,2.335,2.335,0,0,1,0,.566,14.238,14.238,0,0,1-.093,1.534,12.942,12.942,0,0,1-1.433,4.866,8.557,8.557,0,0,1-3.626,3.512,6.538,6.538,0,0,1-1.433.5,3.793,3.793,0,0,1-.416.064Z" transform="translate(-190.953 -82.839)" fill="#263238"/>
      <path id="Path_3785" data-name="Path 3785" d="M255.067,145.083a.552.552,0,0,1-.408,0,.76.76,0,0,1-.351-.315.717.717,0,0,1-.065-.616,2.107,2.107,0,0,1,.366-.717,4.427,4.427,0,0,0,.523-.788,1.375,1.375,0,0,0,.136-.516,1.212,1.212,0,0,0-.122-.545,2.7,2.7,0,0,0-.76-.853,3.7,3.7,0,0,1-.781-.717,1.6,1.6,0,0,1-.251-.939c0-.645.194-1.225.194-1.741a1.892,1.892,0,0,0-.3-1.147.975.975,0,0,0-.237-.229c-.064,0-.093-.057-.1-.05a1.7,1.7,0,0,1,.287.315,1.871,1.871,0,0,1,.236,1.111c0,.487-.208,1.061-.229,1.741a1.813,1.813,0,0,0,.272,1.025,4.062,4.062,0,0,0,.817.788,2.537,2.537,0,0,1,.717.788,1.054,1.054,0,0,1,0,.939,4.779,4.779,0,0,1-.5.774,2.15,2.15,0,0,0-.365.717.838.838,0,0,0,.093.717.781.781,0,0,0,.408.33.451.451,0,0,0,.33,0A.315.315,0,0,0,255.067,145.083Z" transform="translate(-196.912 -84.068)" fill="#263238"/>
      <path id="Path_3786" data-name="Path 3786" d="M225.887,143.777a.717.717,0,0,0-.057-.172c-.036-.107-.107-.265-.179-.48a14.7,14.7,0,0,1-.559-1.8,12.778,12.778,0,0,1-.373-2.752,10.843,10.843,0,0,1,.416-3.368,8.186,8.186,0,0,1,.674-1.62,9.556,9.556,0,0,1,.924-1.354,11.675,11.675,0,0,1,2.028-1.906,17.129,17.129,0,0,1,1.577-1.025l.451-.251a.624.624,0,0,0,.15-.1l-.165.072c-.107.05-.265.122-.466.229a12.841,12.841,0,0,0-1.612.989,10.986,10.986,0,0,0-2.071,1.9,8.877,8.877,0,0,0-.946,1.369,8.6,8.6,0,0,0-.717,1.655,10.922,10.922,0,0,0-.416,3.411,12.383,12.383,0,0,0,.416,2.781,13.45,13.45,0,0,0,.609,1.8c.079.208.158.358.208.466a1.1,1.1,0,0,0,.107.158Z" transform="translate(-188.873 -82.096)" fill="#455a64"/>
      <path id="Path_3787" data-name="Path 3787" d="M231.519,159.086s0-.036.086-.122a2.4,2.4,0,0,0,.193-.373,3.383,3.383,0,0,0,.244-1.512,3.725,3.725,0,0,0-.244-1.046,6.938,6.938,0,0,0-.623-1.046,1.283,1.283,0,0,1-.237-1.19c.165-.416.573-.717.81-1.182a.788.788,0,0,0,0-.767,3.263,3.263,0,0,0-.487-.537,1.254,1.254,0,0,1-.279-1.182,3.339,3.339,0,0,1,.487-1.075,6.772,6.772,0,0,0,.509-.939,1.605,1.605,0,0,0-.093-1.5.889.889,0,0,0-.315-.279.43.43,0,0,0-.143-.05,1.147,1.147,0,0,1,.408.365,1.534,1.534,0,0,1,0,1.433,6.012,6.012,0,0,1-.516.91,3.482,3.482,0,0,0-.509,1.118,1.662,1.662,0,0,0,0,.681,1.283,1.283,0,0,0,.33.631,3.446,3.446,0,0,1,.466.516.645.645,0,0,1,0,.623c-.208.416-.623.717-.81,1.19a1.075,1.075,0,0,0,0,.717,2.4,2.4,0,0,0,.294.609,6.6,6.6,0,0,1,.623,1.018,3.44,3.44,0,0,1,.064,2.487C231.641,158.907,231.505,159.079,231.519,159.086Z" transform="translate(-190.628 -87.007)" fill="#263238"/>
      <path id="Path_3788" data-name="Path 3788" d="M216.362,154.33c0,.043.057.143.28.2a1.154,1.154,0,0,0,.924-.251,1.612,1.612,0,0,0,.466-.545,1.339,1.339,0,0,0,.158-.4,2.275,2.275,0,0,0,.05-.444,3.683,3.683,0,0,0-.566-1.827,6.062,6.062,0,0,1-.774-1.648,3.16,3.16,0,0,1,.4-1.842,22.674,22.674,0,0,0,1.125-2.4,11.129,11.129,0,0,0,.566-2.917c.129-1.992-.064-3.813-.05-5.4a12.269,12.269,0,0,1,.638-4.078,6.679,6.679,0,0,1,1.4-2.351c.236-.229.416-.423.552-.545s.193-.229.172-.272-.136-.05-.322,0a2.909,2.909,0,0,0-.781.344,5.733,5.733,0,0,0-2.042,2.394,11.466,11.466,0,0,0-1.061,4.472c-.093,1.706.057,3.526-.072,5.332a10.706,10.706,0,0,1-.451,2.537c-.229.767-.659,1.491-1,2.315a5.984,5.984,0,0,0-.394,1.3,3.583,3.583,0,0,0,.05,1.433,3.955,3.955,0,0,0,.53,1.132c.2.315.4.573.573.817a3.2,3.2,0,0,1,.631,1.283,1.779,1.779,0,0,1,0,.272.805.805,0,0,1,0,.229,1.24,1.24,0,0,1-.2.4C216.806,154.294,216.39,154.244,216.362,154.33Z" transform="translate(-186.32 -82.272)" fill="#263238"/>
      <path id="Path_3789" data-name="Path 3789" d="M241.414,170.655a3.848,3.848,0,0,0-1.777-1.218l-11-2.437v.315L225,172.733c-.086.215-.165.43-.236.652-.516,1.612-2.286,3.992-2.286,9.266h25.082Z" transform="translate(-188.289 -92.878)" fill="#455a64"/>
      <path id="Path_3790" data-name="Path 3790" d="M245.344,171.308a5.253,5.253,0,0,0-4.35-.867c-2.867,1.053-5.432,7.639-2.831,13.15h15.6S248.01,173.028,245.344,171.308Z" transform="translate(-192.428 -93.811)" fill="#455a64"/>
      <path id="Path_3791" data-name="Path 3791" d="M264.158,170.135a10.113,10.113,0,0,1-1.261-2.4c-.093-.487.459-.932.8-.616s2.709,3.418,2.709,3.418.76,4.973.717,6.12-.136,2.795-.086,3.662.172,2.343.172,2.343h-6.156l.129-2.322a2.809,2.809,0,0,1-1.247-.8c-.523-.6-1.978-1.6-2.15-2.472s-.337-2.824-.337-2.824l1-.86a7.763,7.763,0,0,1-.129-2.021c.158-.279,1.347-.451,1.347-.451s0-1.068.681-1.175a2.25,2.25,0,0,1,1.433.545s.76-1.548,1.29-1.147A8.7,8.7,0,0,1,264.158,170.135Z" transform="translate(-198.198 -92.882)" fill="#ffbe9d"/>
      <path id="Path_3792" data-name="Path 3792" d="M268.434,172.924q-.82-.863-1.684-1.684a5.662,5.662,0,0,0,1.684,1.684Z" transform="translate(-200.834 -94.08)" fill="#eb996e"/>
      <path id="Path_3793" data-name="Path 3793" d="M259.307,179.151c.043,0-.115-.717-.229-1.627s-.151-1.634-.194-1.634A8.794,8.794,0,0,0,259.307,179.151Z" transform="translate(-198.6 -95.397)" fill="#eb996e"/>
      <path id="Path_3794" data-name="Path 3794" d="M264.593,169.234l-2.752-2.974a1.125,1.125,0,0,0-.373,1.118,13.423,13.423,0,0,0,1.5,2.63Z" transform="translate(-199.329 -92.669)" fill="#ffbe9d"/>
      <path id="Path_3795" data-name="Path 3795" d="M261.994,170.227l-3.5-3.4a.58.58,0,0,0-.33.552,26.625,26.625,0,0,0,1.72,3.476Z" transform="translate(-198.399 -92.83)" fill="#ffbe9d"/>
      <path id="Path_3796" data-name="Path 3796" d="M259.214,171.189l-2.623-3.519s-.459.258-.194,1.3a37.4,37.4,0,0,0,2.071,4.458Z" transform="translate(-197.877 -93.068)" fill="#ffbe9d"/>
      <path id="Path_3797" data-name="Path 3797" d="M262.81,172.512a.78.78,0,0,0,.251-.057,1.053,1.053,0,0,1,.581.05.989.989,0,0,1,.43.38c.086.129.115.222.136.222s0-.115-.043-.272a.917.917,0,0,0-.473-.459.9.9,0,0,0-.652,0C262.874,172.419,262.8,172.5,262.81,172.512Z" transform="translate(-199.717 -94.384)" fill="#eb996e"/>
      <path id="Path_3798" data-name="Path 3798" d="M263.4,171.358a1.186,1.186,0,0,0,.222.337c.151.158.3.279.33.251s-.072-.186-.222-.344S263.429,171.33,263.4,171.358Z" transform="translate(-199.884 -94.112)" fill="#eb996e"/>
      <path id="Path_3799" data-name="Path 3799" d="M259.13,173.69a2.8,2.8,0,0,1,.81-.186,1.262,1.262,0,0,1,.552.122.509.509,0,0,1,.172.158.375.375,0,0,0-.115-.244,1.118,1.118,0,0,0-.609-.179,1.19,1.19,0,0,0-.609.158C259.187,173.6,259.123,173.675,259.13,173.69Z" transform="translate(-198.674 -94.68)" fill="#eb996e"/>
      <path id="Path_3800" data-name="Path 3800" d="M306.2,172.373a9.223,9.223,0,0,0-4.149-7.245c-1.985-.444-5.188,3.956-7.166,10.069l-1.491,6.923h13.7Z" transform="translate(-208.383 -92.339)" fill="#9676ff"/>
      <path id="Path_3801" data-name="Path 3801" d="M268.447,85.976c0,.107-11.509.186-25.713.186S217,86.084,217,85.976s11.509-.186,25.713-.186S268.447,85.876,268.447,85.976Z" transform="translate(-186.736 -69.866)" fill="#263238"/>
      <circle id="Ellipse_425" data-name="Ellipse 425" cx="0.96" cy="0.96" r="0.96" transform="translate(118.869 11.086)" fill="#e0e0e0"/>
      <circle id="Ellipse_426" data-name="Ellipse 426" cx="0.96" cy="0.96" r="0.96" transform="translate(118.869 13.602)" fill="#e0e0e0"/>
      <path id="Path_3802" data-name="Path 3802" d="M342.561,87.017a.96.96,0,1,1-.946-.967A.96.96,0,0,1,342.561,87.017Z" transform="translate(-221.771 -69.94)" fill="#e0e0e0"/>
      <circle id="Ellipse_427" data-name="Ellipse 427" cx="6.744" cy="6.744" r="6.744" transform="translate(6.911 12.454) rotate(-22.36)" fill="#9676ff"/>
      <path id="Path_3803" data-name="Path 3803" d="M197.718,83.6a1.684,1.684,0,1,1-1.684-1.684,1.684,1.684,0,0,1,1.684,1.684Z" transform="translate(-180.318 -68.77)" fill="#fff"/>
      <path id="Path_3804" data-name="Path 3804" d="M193.855,89.571a.717.717,0,0,1-.308-.91,2.422,2.422,0,0,1,4.551,0,.717.717,0,0,1-.308.917,4.357,4.357,0,0,1-3.934-.007Z" transform="translate(-180.074 -70.229)" fill="#fff"/>
      <path id="Path_3805" data-name="Path 3805" d="M325.8,198.96a2.15,2.15,0,1,1-2.15-2.15A2.15,2.15,0,0,1,325.8,198.96Z" transform="translate(-216.348 -101.325)" fill="#9676ff"/>
      <path id="Path_3806" data-name="Path 3806" d="M334.39,198.96a2.15,2.15,0,1,1-2.15-2.15A2.15,2.15,0,0,1,334.39,198.96Z" transform="translate(-218.782 -101.325)" fill="#455a64"/>
      <path id="Path_3807" data-name="Path 3807" d="M342.98,198.96a2.15,2.15,0,1,1-2.15-2.15A2.15,2.15,0,0,1,342.98,198.96Z" transform="translate(-221.216 -101.325)" fill="#ebebeb"/>
      <path id="Path_3808" data-name="Path 3808" d="M298.558,165.15v-4.178c0-2.738,0-6.751-.036-11.911,0-10.32-.043-25.218-.072-43.579l.136.143-114.49.043h0l.186-.186V165.15l-.179-.172,82.291.079,23.692.05h.057l-23.649.05-82.413.079h-.172V105.21h.193l114.49.043h.143v.143c0,18.4-.057,33.324-.079,43.665v14.963A5.364,5.364,0,0,1,298.558,165.15Z" transform="translate(-177.36 -75.369)" fill="#263238"/>
      <path id="Path_3809" data-name="Path 3809" d="M257.04,201.206c0,.107-15.73.186-35.115.186s-35.115-.079-35.115-.186,15.723-.186,35.115-.186S257.04,201.106,257.04,201.206Z" transform="translate(-178.182 -102.518)" fill="#263238"/>
    </g>
    <g id="freepik--Plant--inject-447" transform="translate(239.703 229.193)">
      <path id="Path_3810" data-name="Path 3810" d="M431.9,376.48a15.107,15.107,0,0,0-24.753,5.941l1.792,6.923c.717-2.358,2.15-4.637,4.393-5.611s5.067-.43,7.46.437,4.759,2.042,7.31,2.2,5.425-1.053,6.192-3.49C434.991,380.586,433.63,378.142,431.9,376.48Z" transform="translate(-342.253 -316.663)" fill="#9676ff"/>
      <g id="Group_2319" data-name="Group 2319" transform="translate(64.897 55.593)" opacity="0.3">
        <path id="Path_3811" data-name="Path 3811" d="M431.9,376.48a15.107,15.107,0,0,0-24.753,5.941l1.792,6.923c.717-2.358,2.15-4.637,4.393-5.611s5.067-.43,7.46.437,4.759,2.042,7.31,2.2,5.425-1.053,6.192-3.49C434.991,380.586,433.63,378.142,431.9,376.48Z" transform="translate(-407.15 -372.256)"/>
      </g>
      <path id="Path_3812" data-name="Path 3812" d="M380.285,398.809c-3.741-3.583-3.583-9.739-1.684-14.548s5.934-8.5,10.484-10.936a33.188,33.188,0,0,1,28.938-.932,13.724,13.724,0,0,0-11.108,6.514c-2.05,3.4-2.5,7.539-4.2,11.129a17.5,17.5,0,0,1-22.431,8.772" transform="translate(-333.791 -315.888)" fill="#9676ff"/>
      <path id="Path_3813" data-name="Path 3813" d="M376.752,356.261c-4.135-4.887-4.687-12.735-4.078-19.113s2.085-12.792,1.082-19.12c-.595-3.748-2.05-7.324-2.544-11.086s.208-8.019,3.125-10.449c3.347-2.788,8.6-2.15,12.111.487s5.5,6.744,6.98,10.843c3.246,9.022,4.436,19.02,1.77,28.221s-8.915,17.436-18.088,20.216" transform="translate(-332.028 -294.681)" fill="#9676ff"/>
      <path id="Path_3814" data-name="Path 3814" d="M376.185,418.844a3.351,3.351,0,0,1,0-.559v-1.62c.05-1.4.186-3.426.5-5.919a79.323,79.323,0,0,1,1.591-8.664,40.3,40.3,0,0,1,3.956-10.033,41.837,41.837,0,0,1,6.45-8.636,41.119,41.119,0,0,1,6.779-5.64c1.032-.717,2.035-1.254,2.867-1.763a24.248,24.248,0,0,1,2.286-1.147l1.491-.623a4,4,0,0,1,.523-.2,2.932,2.932,0,0,1-.5.265l-1.433.717c-.623.323-1.383.717-2.25,1.2a31.828,31.828,0,0,0-2.867,1.792A42.561,42.561,0,0,0,382.5,392.257c-3.805,6.658-4.852,13.659-5.6,18.568-.344,2.48-.516,4.5-.609,5.891-.043.717-.072,1.211-.1,1.612a3.149,3.149,0,0,1,0,.516Z" transform="translate(-333.475 -317.168)" fill="#263238"/>
      <path id="Path_3815" data-name="Path 3815" d="M323.592,353.7c-7.661,4.622-7.639,8.829-6.364,12.8s5.984,6.729,9.882,5.246c2.2-.839,3.8-2.759,5.16-4.68s2.644-3.984,4.558-5.368,4.68-1.913,6.6-.537" transform="translate(-316.592 -311.405)" fill="#9676ff"/>
      <path id="Path_3816" data-name="Path 3816" d="M354.528,364.822l-7.338-2.752,2.924.344a4.609,4.609,0,0,1,2.193.824Z" transform="translate(-325.262 -313.776)"/>
      <g id="Group_2320" data-name="Group 2320" transform="translate(0 42.295)" opacity="0.3">
        <path id="Path_3817" data-name="Path 3817" d="M323.592,353.7c-7.661,4.622-7.639,8.829-6.364,12.8s5.984,6.729,9.882,5.246c2.2-.839,3.8-2.759,5.16-4.68s2.644-3.984,4.558-5.368a6.715,6.715,0,0,1,4.572-1.3Z" transform="translate(-316.592 -353.7)"/>
      </g>
      <path id="Path_3818" data-name="Path 3818" d="M318.35,356.675c2.007-2.773,6.951-3.583,10.076-2.193s5.418,4.121,7.467,6.858,4.042,5.618,6.88,7.517,6.8,2.594,9.632.674a8.256,8.256,0,0,0,3.268-5.661,18.761,18.761,0,0,0-.451-6.679c-.674-3.211-1.777-6.572-4.35-8.6-2.867-2.279-6.844-2.386-10.5-2.265a39.274,39.274,0,0,0-12.391,1.906c-3.934,1.455-7.955,4.594-9.632,8.449" transform="translate(-317.09 -309.306)" fill="#9676ff"/>
      <path id="Path_3819" data-name="Path 3819" d="M359.534,405.158a.515.515,0,0,1,0-.165V404.5c0-.466-.036-1.1-.065-1.9-.05-1.684-.115-4.063-.2-6.994s-.215-6.45-.43-10.363-.5-8.184-1.1-12.641a40.73,40.73,0,0,0-1.268-6.45,33.362,33.362,0,0,0-2.351-5.618,31.466,31.466,0,0,0-2.96-4.644,30,30,0,0,0-3.232-3.583A23.858,23.858,0,0,0,342.2,348.4c-.373-.172-.717-.344-1-.459l-.717-.294-.459-.186-.158-.072a.5.5,0,0,1,.165.043l.473.15.76.258c.3.115.631.272,1.018.437a22.931,22.931,0,0,1,5.841,3.848,30.208,30.208,0,0,1,3.289,3.583,31.669,31.669,0,0,1,3.017,4.68,33.424,33.424,0,0,1,2.394,5.661,40.4,40.4,0,0,1,1.283,6.45c.595,4.479.874,8.772,1.075,12.67s.294,7.424.358,10.377.079,5.346.086,6.994v2.4A.3.3,0,0,1,359.534,405.158Z" transform="translate(-323.188 -309.617)" fill="#263238"/>
      <path id="Path_3820" data-name="Path 3820" d="M370.617,399.407a21.5,21.5,0,0,1-.838-3.289,34.57,34.57,0,0,1-.351-9.237,61.717,61.717,0,0,1,2.917-13.415c1.577-4.923,3.712-10.2,5.532-15.859a69.334,69.334,0,0,0,3.289-16.4,117.609,117.609,0,0,0,.244-13.695c-.136-3.906-.344-7.059-.473-9.237-.064-1.075-.115-1.913-.143-2.508a3.448,3.448,0,0,0-.036-.659,1.074,1.074,0,0,1,0-.222s0,.079,0,.222a2.723,2.723,0,0,0,.065.652c.05.595.122,1.433.215,2.508.172,2.15.416,5.332.573,9.237a113.515,113.515,0,0,1-.165,13.724,74.532,74.532,0,0,1-1.075,8.048,72.537,72.537,0,0,1-2.2,8.435c-1.835,5.683-3.977,10.95-5.561,15.859a62.843,62.843,0,0,0-2.974,13.337,35.832,35.832,0,0,0,.236,9.194c.194,1.075.366,1.906.516,2.458.065.265.115.473.151.638A.849.849,0,0,1,370.617,399.407Z" transform="translate(-331.518 -300.405)" fill="#263238"/>
      <path id="Path_3821" data-name="Path 3821" d="M383.1,434.923H347.134L346.31,428H383.1Z" transform="translate(-325.013 -332.459)" fill="#455a64"/>
      <path id="Path_3822" data-name="Path 3822" d="M352.85,436.56l4.493,20.775h19.55L381.1,436.56Z" transform="translate(-326.866 -334.884)" fill="#455a64"/>
      <path id="Path_3823" data-name="Path 3823" d="M383.683,437.572c0,.1-7.883.15-17.658.122s-17.665-.122-17.665-.215,7.883-.151,17.665-.122S383.683,437.479,383.683,437.572Z" transform="translate(-325.594 -335.108)" fill="#455a64"/>
      <path id="Path_3824" data-name="Path 3824" d="M379.567,450.861a15.17,15.17,0,0,0-3.168-1.813,11.077,11.077,0,0,0-3.855-.774,13.438,13.438,0,0,0-4.737.867c-1.634.552-3.168,1.2-4.658,1.555a11.073,11.073,0,0,1-4.027.122,8.229,8.229,0,0,1-2.594-.824,5.194,5.194,0,0,1-.623-.394q-.2-.15-.193-.172s.308.179.881.452a9.173,9.173,0,0,0,2.566.717,11.278,11.278,0,0,0,3.92-.186c1.433-.358,2.974-1.01,4.622-1.569a13.258,13.258,0,0,1,4.852-.86,11.044,11.044,0,0,1,3.941.86,10.563,10.563,0,0,1,2.358,1.3c.251.2.437.365.559.48S379.6,450.861,379.567,450.861Z" transform="translate(-327.676 -338.12)" fill="#263238"/>
      <path id="Path_3825" data-name="Path 3825" d="M379.552,452.766a16.27,16.27,0,0,0-3.046-1.792,10.327,10.327,0,0,0-3.712-.76,13.272,13.272,0,0,0-4.579.824c-1.584.53-3.074,1.139-4.493,1.526a11.466,11.466,0,0,1-3.87.43,6.744,6.744,0,0,1-2.544-.674,4.725,4.725,0,0,1-.6-.387c-.129-.1-.193-.15-.186-.165s.294.172.846.43a7.109,7.109,0,0,0,2.5.559,11.838,11.838,0,0,0,3.77-.5c1.39-.387,2.867-1.01,4.472-1.548a13.1,13.1,0,0,1,4.694-.81,10.14,10.14,0,0,1,6.048,2.214c.244.193.416.351.537.466S379.56,452.759,379.552,452.766Z" transform="translate(-327.906 -338.664)" fill="#fff"/>
      <path id="Path_3826" data-name="Path 3826" d="M379.812,448.783a17.472,17.472,0,0,0-3.254-1.921,12.183,12.183,0,0,0-3.949-.946,12.7,12.7,0,0,0-4.887.86,45.439,45.439,0,0,1-4.83,1.577,12.406,12.406,0,0,1-4.156,0,9.238,9.238,0,0,1-2.673-.846,5.634,5.634,0,0,1-.652-.4c-.136-.107-.208-.165-.2-.172s.315.179.91.452a10.167,10.167,0,0,0,2.652.717,12.6,12.6,0,0,0,4.063-.072,48.906,48.906,0,0,0,4.773-1.591,12.669,12.669,0,0,1,5.016-.853,12.046,12.046,0,0,1,6.45,2.487c.258.2.451.373.58.494S379.819,448.748,379.812,448.783Z" transform="translate(-327.534 -337.44)" fill="#fff"/>
      <path id="Path_3827" data-name="Path 3827" d="M383.807,437.642c0,.093-8.091.165-18.074.165s-18.074-.072-18.074-.165,8.091-.172,18.074-.172S383.807,437.542,383.807,437.642Z" transform="translate(-325.395 -335.142)" fill="#263238"/>
    </g>
    <g id="freepik--Character--inject-447" transform="translate(48.09 80.459)">
      <path id="Path_3828" data-name="Path 3828" d="M122.363,104s2.967,12.742,2.967,21.685v2.981s-7.661,5.948-13.924,6.127l-4.816-13.057Z" transform="translate(-65.472 -91.915)" fill="#263238"/>
      <path id="Path_3829" data-name="Path 3829" d="M154.6,177.26l-11.129,7.969.287,2.981,3.211,6.17s1.433,1.254,5.317-2.988,8.693-12.584,8.693-12.584Z" transform="translate(-75.922 -112.674)" fill="#976558"/>
      <path id="Path_3830" data-name="Path 3830" d="M178.532,150.675a1.061,1.061,0,0,0-.853-.595l-6.285-.623a1.942,1.942,0,0,0-1.5.523l-17.3,16.389.846.774,6.779,1.433,18.468-17.615Z" transform="translate(-78.506 -104.794)" fill="#263238"/>
      <path id="Path_3831" data-name="Path 3831" d="M181.913,153.027a.394.394,0,0,0,.537,0,.337.337,0,1,0-.537,0Z" transform="translate(-86.796 -105.654)" fill="#fff"/>
      <path id="Path_3832" data-name="Path 3832" d="M179.145,151.213a7.252,7.252,0,0,1-1.233-.05l-3.347-.272-2.308-.208a1.283,1.283,0,0,0-1.068.33l-.989.939-4.422,4.2c-3.16,2.974-5.984,5.647-8.134,7.561l-2.48,2.257a7.347,7.347,0,0,1-.946.8,8.162,8.162,0,0,1,.846-.9c.609-.6,1.433-1.4,2.4-2.351,2.035-1.978,4.866-4.68,8.012-7.654l4.443-4.178c.337-.322.674-.631,1-.939a1.627,1.627,0,0,1,1.319-.394l2.3.258,3.34.394a7.4,7.4,0,0,1,1.261.208Z" transform="translate(-78.968 -105.045)" fill="#455a64"/>
      <path id="Path_3833" data-name="Path 3833" d="M171.256,158.995s-.523-.229-1.175,1.182-2.63,5.439-2.63,5.439l-2.48-2.193-3.669-.387s-.946.53-.473,1.053a13.25,13.25,0,0,0,2.63,1.469l1.082,2.781-4.207-3.44s-1.684.036-1.433,1.118a33.228,33.228,0,0,0,2.716,4.88l-2.343-.717-2.415-2.4s-.881-.172-.717.645a28.869,28.869,0,0,0,2.451,4.2l3.153,2.594s1.985.315,2.315-.215a6.846,6.846,0,0,0,.566-1.333s1.1,0,1.433-.487a3.275,3.275,0,0,0,.38-1.276s1.555.674,1.978-.186a10.75,10.75,0,0,0,.681-3.418c0-.717,2.415-7.009,2.394-7.217S172.374,158.8,171.256,158.995Z" transform="translate(-79.507 -107.495)" fill="#976558"/>
      <path id="Path_3834" data-name="Path 3834" d="M165.029,180.178a2.035,2.035,0,0,1-1,.064,6.536,6.536,0,0,1-2.329-.674,6.45,6.45,0,0,1-1.921-1.483c-.408-.473-.573-.817-.537-.846a13.23,13.23,0,0,0,2.63,1.992,13.565,13.565,0,0,0,3.16.946Z" transform="translate(-80.389 -112.669)" fill="#976558"/>
      <path id="Path_3835" data-name="Path 3835" d="M165.794,178.247c-.079.072-.631-.408-1.175-1.125s-.86-1.383-.774-1.433.545.509,1.075,1.211S165.873,178.183,165.794,178.247Z" transform="translate(-81.691 -112.228)" fill="#976558"/>
      <path id="Path_3836" data-name="Path 3836" d="M169.521,174.555c-.072.072-.623-.4-1.118-1.139a2.822,2.822,0,0,1-.631-1.476c.086-.043.466.552.946,1.261S169.6,174.483,169.521,174.555Z" transform="translate(-82.803 -111.166)" fill="#976558"/>
      <path id="Path_3837" data-name="Path 3837" d="M173.243,171.524a9.889,9.889,0,0,1-.717-1.605,10.583,10.583,0,0,1-.717-1.591c.079-.064.666.516,1.075,1.433a2.8,2.8,0,0,1,.358,1.763Z" transform="translate(-83.952 -110.142)" fill="#976558"/>
      <path id="Path_3838" data-name="Path 3838" d="M122,149.848s5.8-.939,9.18,1.763a13.953,13.953,0,0,1,5.3,9.768c.423,3.719,3.11,18.066,3.11,18.066l5.246-7.095,5.79,5.081s-4.887,23.42-9.474,25-9.567-3.583-10.75-4.5S122,149.848,122,149.848Z" transform="translate(-69.838 -104.862)" fill="#9676ff"/>
      <path id="Path_3839" data-name="Path 3839" d="M110.062,149.91s9.589,10.75,10.47,13.5,7.31,7.8,7.166,14.383a62.853,62.853,0,0,1-.81,8.958,14.082,14.082,0,0,0,.1,5.081l2.974,14.333a8.757,8.757,0,0,1-6.557,3.784c-4.665.509-16.569,3.311-24.473,0l-5.683-2.773V184.961l-3.9-9.058L79.87,157.428A95.95,95.95,0,0,1,110.062,149.91Z" transform="translate(-57.9 -104.924)" fill="#9676ff"/>
      <path id="Path_3840" data-name="Path 3840" d="M143.86,206.3a3.749,3.749,0,0,0-.072-.5l-.258-1.433-1.032-5.231c-.186-1.111-.552-2.286-.717-3.583l-.15-1a10.085,10.085,0,0,0-.093-1.025,19.494,19.494,0,0,1-.05-2.15,18.926,18.926,0,0,1,.774-4.551,15.63,15.63,0,0,0,.846-4.966,14.074,14.074,0,0,0-1.247-4.887,31.728,31.728,0,0,0-2.193-4.142c-1.577-2.537-3.168-4.694-4.479-6.521s-2.365-3.268-3.117-4.3l-.9-1.168a2.15,2.15,0,0,0-.315-.394,3.924,3.924,0,0,0,.258.43l.8,1.218c.717,1.046,1.734,2.544,3.024,4.386s2.867,4.02,4.407,6.543a31.741,31.741,0,0,1,2.15,4.113,13.981,13.981,0,0,1,1.211,4.766,15.371,15.371,0,0,1-.831,4.859,19.091,19.091,0,0,0-.76,4.629,18.406,18.406,0,0,0,.064,2.193c0,.351.072.717.1,1.039s.115.674.165,1c.193,1.319.573,2.5.774,3.583.473,2.15.86,3.941,1.139,5.2.136.588.244,1.061.322,1.433a2.1,2.1,0,0,0,.179.451Z" transform="translate(-72.349 -107.911)" fill="#263238"/>
      <g id="Group_2321" data-name="Group 2321" transform="translate(46.579 81.634)" opacity="0.3">
        <path id="Path_3841" data-name="Path 3841" d="M135.559,201.05c-1.7,5.167-4.773,9.209-8.263,13.38a22.909,22.909,0,0,1-13.086,7.948c7.732-6.636,14.182-14,21.349-21.327" transform="translate(-114.21 -201.05)"/>
      </g>
      <path id="Path_3842" data-name="Path 3842" d="M133.465,434.13l-.924,14.118s14.025,5.676,14.111,8.3l-27.411-.81.537-22.037Z" transform="translate(-69.056 -185.34)" fill="#9676ff"/>
      <path id="Path_3843" data-name="Path 3843" d="M125.674,451.981a1.118,1.118,0,0,0-.81,1.261,1.068,1.068,0,0,0,1.233.81,1.175,1.175,0,0,0,.867-1.354,1.111,1.111,0,0,0-1.376-.717" transform="translate(-70.645 -190.507)" fill="#e0e0e0"/>
      <path id="Path_3844" data-name="Path 3844" d="M119.17,464.79l.057-2.53,26.336.946s1.211.566,1.046,1.433Z" transform="translate(-69.036 -193.433)" fill="#263238"/>
      <path id="Path_3845" data-name="Path 3845" d="M137.416,453.755c0,.129-.674.172-1.347.58s-1.039.967-1.161.91.1-.824.924-1.311S137.452,453.633,137.416,453.755Z" transform="translate(-73.487 -190.983)" fill="#263238"/>
      <path id="Path_3846" data-name="Path 3846" d="M141.67,455.56c0,.136-.559.344-1.032.9s-.623,1.147-.717,1.139a1.371,1.371,0,0,1,.4-1.433C140.925,455.5,141.67,455.438,141.67,455.56Z" transform="translate(-74.896 -191.52)" fill="#263238"/>
      <path id="Path_3847" data-name="Path 3847" d="M144.463,459.55c-.122,0-.287-.645.079-1.369s1-1,1.053-.881-.344.487-.638,1.089S144.6,459.543,144.463,459.55Z" transform="translate(-76.162 -192.02)" fill="#263238"/>
      <path id="Path_3848" data-name="Path 3848" d="M137.084,449.083c-.057.122-.666-.086-1.433-.057s-1.354.251-1.433.136.516-.58,1.433-.6S137.155,448.975,137.084,449.083Z" transform="translate(-73.298 -189.55)" fill="#263238"/>
      <path id="Path_3849" data-name="Path 3849" d="M98.3,434.558l-.81,14.111s14.075,5.561,14.182,8.184l-27.419-.566L84.6,434.25Z" transform="translate(-59.141 -185.496)" fill="#9676ff"/>
      <path id="Path_3850" data-name="Path 3850" d="M90.607,452.453a1.118,1.118,0,0,0-.8,1.261,1.082,1.082,0,0,0,1.247.8,1.182,1.182,0,0,0,.838-1.34,1.111,1.111,0,0,0-1.383-.717" transform="translate(-60.711 -190.642)" fill="#e0e0e0"/>
      <path id="Path_3851" data-name="Path 3851" d="M84.21,464.94v-2.15l26.365.717s1.211.559,1.053,1.433Z" transform="translate(-59.13 -193.583)" fill="#263238"/>
      <path id="Path_3852" data-name="Path 3852" d="M102.349,454.137c0,.136-.681.179-1.347.595s-1.032.975-1.154.917.093-.824.91-1.311S102.377,454,102.349,454.137Z" transform="translate(-63.552 -191.093)" fill="#263238"/>
      <path id="Path_3853" data-name="Path 3853" d="M106.61,455.919c0,.129-.559.344-1.025.9s-.609,1.154-.717,1.147-.2-.767.394-1.433S106.61,455.79,106.61,455.919Z" transform="translate(-64.961 -191.621)" fill="#263238"/>
      <path id="Path_3854" data-name="Path 3854" d="M109.449,459.885c-.129,0-.3-.652.064-1.376s.989-1,1.046-.889-.344.494-.631,1.1S109.578,459.87,109.449,459.885Z" transform="translate(-66.238 -192.111)" fill="#263238"/>
      <path id="Path_3855" data-name="Path 3855" d="M101.974,449.471c-.057.122-.674-.072-1.433-.036s-1.354.258-1.433.143.516-.58,1.433-.609S102.038,449.371,101.974,449.471Z" transform="translate(-63.349 -189.666)" fill="#263238"/>
      <path id="Path_3856" data-name="Path 3856" d="M92.84,226.815A59.563,59.563,0,0,0,82.2,243.176c-3.662,9.037-2.057,52.458-2.057,52.458l.767,22.789s-1.1,19.571-.258,33.524,1.792,29.382,1.792,29.382l15.229.717,16.153-118.331-4.042,54.572c-2.573,13.917-2.265,38.469-1.77,63.745h16.131s5.554-37.774,6.815-46.746c1.433-10.14,5.654-38.032,5.654-38.032s3.246-26.688,2.15-41.063-9.7-34.485-9.983-35.33l-34.434,6.206" transform="translate(-57.878 -125.029)" fill="#263238"/>
      <path id="Path_3857" data-name="Path 3857" d="M82.427,223.83l-4.042,10.75s-30.041,41.88-29.153,45.37,17.235,17.013,22.044,14.834,17.235-11.122,21.377-20.066,15.888-34.033,15.888-34.033l3.712-6.98-4.149-2.867Z" transform="translate(-49.213 -125.871)" fill="#455a64"/>
      <path id="Path_3858" data-name="Path 3858" d="M145.774,221.74h0c-3.641,1.956-3.254,8.055-6.894,10.033,6.07,8.5,8.148,19.2,8.972,29.611s.573,20.954,2.659,31.188l7.539-.53A177.231,177.231,0,0,0,151.6,232.3,26.336,26.336,0,0,0,145.774,221.74Z" transform="translate(-74.621 -125.278)" fill="#455a64"/>
      <path id="Path_3859" data-name="Path 3859" d="M102.717,244.274a8.744,8.744,0,0,1-1.9-.437,38.078,38.078,0,0,1-4.422-1.605,38.562,38.562,0,0,1-4.207-2.107,7.968,7.968,0,0,1-1.62-1.075,11.937,11.937,0,0,1,1.741.846c1.075.552,2.558,1.268,4.228,1.985s3.225,1.29,4.357,1.691A11.411,11.411,0,0,1,102.717,244.274Z" transform="translate(-60.932 -130.183)" fill="#263238"/>
      <g id="Group_2322" data-name="Group 2322" transform="translate(21.597 144.247)" opacity="0.2">
        <path id="Path_3860" data-name="Path 3860" d="M80.067,290.147l-.717.057a17.737,17.737,0,0,0,19.736,3.583c2.2-1.032,4.386-2.938,4.3-5.368a44.324,44.324,0,0,1-23.319,1.727Z" transform="translate(-79.35 -288.42)"/>
      </g>
      <path id="Path_3861" data-name="Path 3861" d="M117.365,237.609c-2.8-.516-8.191.953-10.162,3.017a20.608,20.608,0,0,0-4.128,7.424c-2.107,5.812-3.583,12.247-8.177,16.418-4.3,3.913-10.406,4.966-16.153,5.848-.158,2.15-.136,4.658,1.612,5.876a5.51,5.51,0,0,0,1.734.717,28.108,28.108,0,0,0,5.224.924c8.184.674,16.855-2.623,21.664-9.28,6.077-8.428,6.557-18.547,9.99-28.35" transform="translate(-57.564 -129.746)" fill="#455a64"/>
      <path id="Path_3862" data-name="Path 3862" d="M118.9,240.2a2,2,0,0,1-.079.308c-.072.215-.165.516-.279.9-.251.781-.595,1.949-1,3.461s-.86,3.375-1.39,5.54-1.118,4.629-1.942,7.31a39.7,39.7,0,0,1-3.583,8.449,24.472,24.472,0,0,1-2.967,4.178,21.758,21.758,0,0,1-4.113,3.583A25.512,25.512,0,0,1,92.645,277.9a26.945,26.945,0,0,1-6.177.064,29.272,29.272,0,0,1-3.125-.516c-.516-.115-1.032-.244-1.548-.394a5.375,5.375,0,0,1-1.519-.631,3.583,3.583,0,0,1-1.175-1.3,5.3,5.3,0,0,1-.537-1.605,12.856,12.856,0,0,1-.079-3.225v-.143h.15a46.977,46.977,0,0,0,10.95-2.637,17.612,17.612,0,0,0,4.558-2.687,16.862,16.862,0,0,0,3.34-3.791,38.79,38.79,0,0,0,3.834-8.542,73.726,73.726,0,0,1,2.867-7.654,17.807,17.807,0,0,1,1.827-3.06,14.277,14.277,0,0,1,1.068-1.247,6.285,6.285,0,0,1,1.233-.946,15.415,15.415,0,0,1,4.715-1.777,13.229,13.229,0,0,1,3.16-.322,5.016,5.016,0,0,1,1.1.136,7.171,7.171,0,0,0-1.1-.064,14.008,14.008,0,0,0-3.125.38,15.766,15.766,0,0,0-4.651,1.813,7.166,7.166,0,0,0-1.182.924,14.946,14.946,0,0,0-1.039,1.233,18.233,18.233,0,0,0-1.784,3.039,74.621,74.621,0,0,0-2.809,7.639,38.642,38.642,0,0,1-3.834,8.635,17.127,17.127,0,0,1-3.4,3.87,17.788,17.788,0,0,1-4.637,2.752,46.62,46.62,0,0,1-11.043,2.673l.158-.172a12.756,12.756,0,0,0,.079,3.132,3.77,3.77,0,0,0,1.548,2.63,10.369,10.369,0,0,0,2.953.975,26.69,26.69,0,0,0,3.074.509,27.017,27.017,0,0,0,6.091-.05,25.333,25.333,0,0,0,10.75-3.906,21.356,21.356,0,0,0,4.063-3.5,24.107,24.107,0,0,0,2.945-4.113,40.045,40.045,0,0,0,3.583-8.37c.838-2.666,1.433-5.131,1.992-7.281s1.018-4.02,1.433-5.525.788-2.673,1.068-3.447c.136-.38.236-.674.315-.889a1.577,1.577,0,0,1,.158-.308Z" transform="translate(-57.489 -129.738)" fill="#263238"/>
      <path id="Path_3863" data-name="Path 3863" d="M87.376,290.035a11.344,11.344,0,0,0,.516-4.149,11.043,11.043,0,0,0-1.362-3.956,2.867,2.867,0,0,1,.8,1,7.424,7.424,0,0,1,.975,2.924,7.331,7.331,0,0,1-.323,3.046,2.866,2.866,0,0,1-.6,1.139Z" transform="translate(-59.787 -142.334)" fill="#263238"/>
      <path id="Path_3864" data-name="Path 3864" d="M85.455,285.911a13.494,13.494,0,0,1-3.2.4,14.332,14.332,0,0,1-3.232.036,13.5,13.5,0,0,1,3.2-.4A14.336,14.336,0,0,1,85.455,285.911Z" transform="translate(-57.659 -143.441)" fill="#263238"/>
      <path id="Path_3865" data-name="Path 3865" d="M86.2,289.147a15.615,15.615,0,0,1-3.34.258,14.748,14.748,0,0,1-3.34-.122,15.262,15.262,0,0,1,3.332-.251A15.052,15.052,0,0,1,86.2,289.147Z" transform="translate(-57.801 -144.334)" fill="#263238"/>
      <path id="Path_3866" data-name="Path 3866" d="M137.689,240.19c5.016,4.536,6.9,11.731,6.722,18.5s-2.15,13.344-3.662,19.944-2.573,13.53-.953,20.1l-6.45.924a27.053,27.053,0,0,1-7.166-21.1c.659-6.314,3.526-12.14,5.583-18.145s3.268-12.778.717-18.568" transform="translate(-70.986 -130.506)" fill="#455a64"/>
      <path id="Path_3867" data-name="Path 3867" d="M132.409,241.847a1.741,1.741,0,0,1,.136.279l.351.846a17.286,17.286,0,0,1,.86,3.426,22.6,22.6,0,0,1,.064,5.59,37.859,37.859,0,0,1-1.577,7.26c-.824,2.63-1.949,5.439-3.074,8.478a47.643,47.643,0,0,0-2.745,9.947,26.516,26.516,0,0,0,.967,11.294,26.831,26.831,0,0,0,6.041,10.578l-.165-.057,3.168-.451,3.282-.473-.158.229a34.205,34.205,0,0,1-.473-12.362,98.174,98.174,0,0,1,2.257-11.251c.867-3.583,1.7-6.908,2.214-10.1a42.754,42.754,0,0,0,.631-8.929,25.175,25.175,0,0,0-3.583-12.276,19.773,19.773,0,0,0-2.15-2.773l-.645-.652a1.569,1.569,0,0,1-.208-.229,1.478,1.478,0,0,1,.236.2l.666.623a19,19,0,0,1,2.2,2.759,25.082,25.082,0,0,1,3.712,12.333,43.036,43.036,0,0,1-.588,8.987c-.509,3.211-1.326,6.586-2.15,10.133a96.812,96.812,0,0,0-2.229,11.237,33.926,33.926,0,0,0,.48,12.226l.05.2h-.208l-3.275.473-3.168.451h-.1l-.064-.072a27.146,27.146,0,0,1-6.149-10.75,26.73,26.73,0,0,1-.91-11.466,47.894,47.894,0,0,1,2.795-10.033c1.139-3.039,2.279-5.833,3.117-8.449a38.38,38.38,0,0,0,1.62-7.2,23.426,23.426,0,0,0,0-5.554,19.828,19.828,0,0,0-.788-3.418l-.322-.853A1.007,1.007,0,0,1,132.409,241.847Z" transform="translate(-70.931 -130.515)" fill="#263238"/>
      <path id="Path_3868" data-name="Path 3868" d="M140.258,314.485a31.33,31.33,0,0,0-4.493.079,30.864,30.864,0,0,0-4.364,1.111,3.584,3.584,0,0,1,1.175-.645,12.836,12.836,0,0,1,3.139-.831,12.569,12.569,0,0,1,3.239,0,3.849,3.849,0,0,1,1.3.287Z" transform="translate(-72.502 -151.448)" fill="#263238"/>
      <path id="Path_3869" data-name="Path 3869" d="M137.465,320.847a11.637,11.637,0,0,1-1.512-2.551,12.284,12.284,0,0,1-1.182-2.716,11.468,11.468,0,0,1,1.519,2.551A12.041,12.041,0,0,1,137.465,320.847Z" transform="translate(-73.457 -151.869)" fill="#263238"/>
      <path id="Path_3870" data-name="Path 3870" d="M142.267,320.051a13.107,13.107,0,0,1-1.39-2.745,12.734,12.734,0,0,1-1.046-2.867,13.107,13.107,0,0,1,1.39,2.745,12.735,12.735,0,0,1,1.046,2.867Z" transform="translate(-74.891 -151.546)" fill="#263238"/>
      <path id="Path_3871" data-name="Path 3871" d="M130.232,236.217c-.043,0-.143-.143-.2-.43a2.1,2.1,0,0,1,.874-2.021c.244-.158.43-.186.451-.143a4.518,4.518,0,0,0-.831,1.182C130.225,235.536,130.34,236.188,130.232,236.217Z" transform="translate(-72.108 -128.64)" fill="#263238"/>
      <path id="Path_3872" data-name="Path 3872" d="M138.591,234.26c-.874-1.369-2.931-1.827-4.543-2.021a3.956,3.956,0,0,0-4.071,3.476,4.371,4.371,0,0,0,3.175,4.45,4.887,4.887,0,0,0,5.174-2.028,3.676,3.676,0,0,0,.265-3.877Z" transform="translate(-72.097 -128.253)" fill="#455a64"/>
      <path id="Path_3873" data-name="Path 3873" d="M136.238,233.3a2.315,2.315,0,0,1,.86,1.018,4.3,4.3,0,0,1-1.541,5.733,2.272,2.272,0,0,1-1.247.444c0-.057.466-.2,1.1-.666a4.343,4.343,0,0,0,1.433-5.4C136.517,233.708,136.166,233.343,136.238,233.3Z" transform="translate(-73.326 -128.554)" fill="#263238"/>
      <path id="Path_3874" data-name="Path 3874" d="M141.234,234.34a1.488,1.488,0,0,1,.516.674,3.884,3.884,0,0,1-.416,3.956c-.33.416-.623.58-.645.552a6.347,6.347,0,0,1,.43-.717,4.672,4.672,0,0,0,.6-1.813,4.543,4.543,0,0,0-.215-1.892C141.349,234.648,141.184,234.376,141.234,234.34Z" transform="translate(-75.134 -128.849)" fill="#263238"/>
      <g id="Group_2323" data-name="Group 2323" transform="translate(61.7 109.676)" opacity="0.2">
        <path id="Path_3875" data-name="Path 3875" d="M140.2,240.18a6.658,6.658,0,0,1-4.895,2.229,3.382,3.382,0,0,0,2.53,1.756,2.594,2.594,0,0,0,2.365-3.984Z" transform="translate(-135.31 -240.18)"/>
      </g>
      <g id="Group_2324" data-name="Group 2324" transform="translate(29.502 109.411)" opacity="0.2">
        <path id="Path_3876" data-name="Path 3876" d="M104.541,246.4a5.9,5.9,0,0,0-2.695-1.569c-3.734-1.347-7.761-3.655-11.466-5.016,3.4,3.024,7.095,6.586,11,8.922.946.559,2.15,1.1,3.074.459A1.937,1.937,0,0,0,104.541,246.4Z" transform="translate(-90.38 -239.81)"/>
      </g>
      <g id="Group_2325" data-name="Group 2325" transform="translate(68.315 111.081)" opacity="0.2">
        <path id="Path_3877" data-name="Path 3877" d="M150.811,253.764c-.58-4.486-2.652-8.915-6.271-11.624,1.942,3.54,3.913,7.166,4.78,11.094.953,4.336.251,7.109-.179,11.531l.423,2.15A32.622,32.622,0,0,0,150.811,253.764Z" transform="translate(-144.54 -242.14)"/>
      </g>
      <path id="Path_3878" data-name="Path 3878" d="M102.455,249.118a2.479,2.479,0,0,1-.58-.287c-.358-.2-.867-.516-1.491-.924a45.068,45.068,0,0,1-8.736-7.546c-.494-.552-.874-1.01-1.132-1.34a2.486,2.486,0,0,1-.365-.53,21.189,21.189,0,0,1,1.691,1.691c1.025,1.061,2.48,2.48,4.178,3.949s3.318,2.7,4.515,3.583a18.73,18.73,0,0,1,1.921,1.4Z" transform="translate(-60.813 -130.025)" fill="#263238"/>
      <path id="Path_3879" data-name="Path 3879" d="M80.19,158.48s-15.157,4.472-9.89,21.779c4.2,13.788,19.149,33.825,24.516,32.786,10.484-2.028,34.155-31.754,34.241-31.231l-5.382-7.417S96.916,197.229,95.9,196.791,85.429,172.8,85.429,172.8,82.369,159.06,80.19,158.48Z" transform="translate(-54.873 -107.353)" fill="#9676ff"/>
      <path id="Path_3880" data-name="Path 3880" d="M145.41,174.837l4.629-7.389,8.069-7.166s.408,1.433,0,2.042-1.225,2.15-1.225,2.15,6.858-5.224,7.883-5.224.717,1.025.616,1.534-5.733,5.224-5.733,5.224l5.855.2,3.669,1.842s-.208,1.333-1.433,1.233a11.33,11.33,0,0,1-2.867-.846l-5.016.609,5.575,2.279,2.358,3.5s-.824,1.433-1.842.487a13.391,13.391,0,0,1-1.749-1.928l-4.171-.9,3.87,2.53.817,3.067s-1.333,1.333-1.842,0-.817-1.942-.817-1.942l-2.25-.516a7.711,7.711,0,0,1-3.684,2.25c-2.415.681-6.027,3.332-6.027,3.332Z" transform="translate(-76.472 -107.571)" fill="#c58674"/>
      <path id="Path_3881" data-name="Path 3881" d="M155.28,168.522a10.349,10.349,0,0,0,2.53-1.1,8.6,8.6,0,0,0,2.272-1.555,22.054,22.054,0,0,0-2.415,1.29,16.538,16.538,0,0,0-2.386,1.362Z" transform="translate(-79.269 -109.447)" fill="#976558"/>
      <path id="Path_3882" data-name="Path 3882" d="M163,171.466a.679.679,0,0,0,.394-.172,1.376,1.376,0,0,0,.208-1.913c-.165-.208-.33-.28-.351-.244a2.051,2.051,0,0,1,.337,1.211C163.514,171.05,162.941,171.394,163,171.466Z" transform="translate(-81.454 -110.37)" fill="#976558"/>
      <path id="Path_3883" data-name="Path 3883" d="M81.841,104.41c1.247-5.282,2.515-10.75,6.894-13.989,3.9-2.867,8.256-3.583,13.071-3.182a17.065,17.065,0,0,1,7.059,2.594c2.781,1.7,3.877,5.016,5.153,8,2.551,6.02,1.942,14.032,0,16.2l-25.2,12.283c-4.3-2.429-7.209-3.583-8.213-8.428C79.927,114.593,81.074,107.685,81.841,104.41Z" transform="translate(-58.05 -87.137)" fill="#263238"/>
      <path id="Path_3884" data-name="Path 3884" d="M91.507,96.947l15.766-4.092c5.016-.573,8.449,5.626,8.8,10.692.394,5.626.652,12.52,0,16.726-1.311,8.456-7.761,9.574-7.761,9.574s0,.129-.05,2.637l.05,5.654c-2.078,6.851-9.03,6.027-17.7,2.465L88.87,99.979A2.967,2.967,0,0,1,91.507,96.947Z" transform="translate(-60.45 -88.747)" fill="#c58674"/>
      <path id="Path_3885" data-name="Path 3885" d="M123.084,117.776a1.082,1.082,0,0,1-1.039,1.1,1.046,1.046,0,0,1-1.125-.967,1.089,1.089,0,0,1,1.039-1.1,1.032,1.032,0,0,1,1.125.967Z" transform="translate(-69.532 -95.543)" fill="#263238"/>
      <path id="Path_3886" data-name="Path 3886" d="M123.034,114.385c-.129.143-.953-.459-2.15-.451s-2.021.6-2.15.459.072-.315.444-.588a2.945,2.945,0,0,1,1.713-.545,2.867,2.867,0,0,1,1.691.537C122.977,114.07,123.106,114.321,123.034,114.385Z" transform="translate(-68.902 -94.539)" fill="#263238"/>
      <path id="Path_3887" data-name="Path 3887" d="M108.747,117.406a1.082,1.082,0,0,1-1.032,1.1,1.032,1.032,0,0,1-1.125-.967,1.082,1.082,0,0,1,1.032-1.1,1.032,1.032,0,0,1,1.125.967Z" transform="translate(-65.471 -95.438)" fill="#263238"/>
      <path id="Path_3888" data-name="Path 3888" d="M107.044,114.055c-.129.143-.96-.459-2.15-.444s-2.021.595-2.15.459.072-.322.444-.595a3.017,3.017,0,0,1,1.72-.545,2.867,2.867,0,0,1,1.691.537C106.987,113.74,107.109,113.991,107.044,114.055Z" transform="translate(-64.371 -94.446)" fill="#263238"/>
      <path id="Path_3889" data-name="Path 3889" d="M114.507,121.414a7.884,7.884,0,0,1,1.892-.351c.294,0,.58-.093.623-.3a1.519,1.519,0,0,0-.2-.881l-.9-2.222a38.891,38.891,0,0,1-2.021-5.919,39.329,39.329,0,0,1,2.494,5.733q.437,1.2.86,2.279a1.713,1.713,0,0,1,.158,1.168.717.717,0,0,1-.487.437,1.964,1.964,0,0,1-.5.072,7.252,7.252,0,0,1-1.921-.014Z" transform="translate(-67.541 -94.108)" fill="#263238"/>
      <path id="Path_3890" data-name="Path 3890" d="M111.52,143.328a21.456,21.456,0,0,1-11.33-2.938s2.867,5.891,11.287,5.016Z" transform="translate(-63.658 -102.227)" fill="#976558"/>
      <path id="Path_3891" data-name="Path 3891" d="M109.3,127.977a1.885,1.885,0,0,1,1.555-.86,2.444,2.444,0,0,1,2.229,1.082,1.526,1.526,0,0,1,.107,1.1c-.086.186,0,.093-.165.222a4.235,4.235,0,0,1-1.734,1.089,1.827,1.827,0,0,1-1.935-.717A1.863,1.863,0,0,1,109.3,127.977Z" transform="translate(-66.171 -98.463)" fill="#976558"/>
      <path id="Path_3892" data-name="Path 3892" d="M109.6,126.46c.193,0,.208,1.254,1.3,2.15s2.444.717,2.451.9-.294.251-.867.272a3.117,3.117,0,0,1-2.042-.717,2.73,2.73,0,0,1-1.01-1.792C109.377,126.768,109.513,126.453,109.6,126.46Z" transform="translate(-66.274 -98.279)" fill="#263238"/>
      <path id="Path_3893" data-name="Path 3893" d="M107.483,108.279c-.093.33-1.268.251-2.623.5s-2.429.717-2.63.43c-.093-.136.079-.444.509-.781a4.472,4.472,0,0,1,1.921-.81,4.386,4.386,0,0,1,2.078.108C107.254,107.87,107.526,108.128,107.483,108.279Z" transform="translate(-64.229 -92.919)" fill="#263238"/>
      <path id="Path_3894" data-name="Path 3894" d="M123.055,109.8c-.272.222-1.1-.208-2.15-.408s-1.992-.172-2.15-.48c-.064-.15.122-.387.559-.566a3.368,3.368,0,0,1,1.842-.108,3.239,3.239,0,0,1,1.641.831C123.105,109.4,123.177,109.693,123.055,109.8Z" transform="translate(-68.915 -93.093)" fill="#263238"/>
      <path id="Path_3895" data-name="Path 3895" d="M114.26,91.59v.186h0Z" transform="translate(-67.645 -88.399)" fill="#263238"/>
      <path id="Path_3896" data-name="Path 3896" d="M91.741,131.991c-.165-2.222.8-4.414.609-6.636-.193-2.351-1.648-4.407-2.193-6.708-.881-3.676.616-7.5,1.24-11.258a8.915,8.915,0,0,0,5.59-2.988,24.219,24.219,0,0,0,3.934-6.7,11.4,11.4,0,0,1-2.508,6.45,3.082,3.082,0,0,0,2.659-.767,6.9,6.9,0,0,0,1.62-2.351,18.583,18.583,0,0,0,1.713-6.7,24.151,24.151,0,0,1-1.433,9.825,4.207,4.207,0,0,1,1.835.129,2.021,2.021,0,0,0,1.763-.315,2.207,2.207,0,0,0,.509-1.111,25.233,25.233,0,0,0,.559-8.6,25.326,25.326,0,0,1,1.784,4.823,9.273,9.273,0,0,1-.129,5.081.717.717,0,0,0,1.046,0,1.749,1.749,0,0,0,.494-1.046,13.057,13.057,0,0,0-.136-4.3,21.741,21.741,0,0,1,1.433,4.938,7.289,7.289,0,0,0,2.5,4.371,22.345,22.345,0,0,0,0-6.45,19.27,19.27,0,0,0-1.727-5.2,15.264,15.264,0,0,0-3.268-4.88c-2.415-2.257-3.49-1.354-5.1-.573l-.193.072a.616.616,0,0,0,0-.115l-.057-.344a23.8,23.8,0,0,0-12.563.179,16.862,16.862,0,0,0-8.428,6.543l-.086.158c-3.77,6.314-6.636,15.315-4.422,30.006h0Z" transform="translate(-57.373 -87.915)" fill="#263238"/>
      <path id="Path_3897" data-name="Path 3897" d="M73.59,191.881a.908.908,0,0,0,.122.365c.122.236.215.6.416,1.061a41.872,41.872,0,0,0,2.007,3.891,126.659,126.659,0,0,0,9,13.337c1.039,1.347,2.15,2.745,3.375,4.142.315.337.623.717.96,1.032s.717.674,1.046.989a18.009,18.009,0,0,0,2.243,1.935,4.78,4.78,0,0,0,2.988.717,11.286,11.286,0,0,0,3.082-.76c.5-.2,1-.4,1.491-.638.244-.122.494-.222.717-.358l.717-.43.717-.43.659-.509c.444-.337.9-.666,1.333-1.025a136.759,136.759,0,0,0,10.183-9.753c3.39-3.526,6.815-7.252,10.277-11.108,1.878-2.107,3.719-4.192,5.5-6.256l.093-.107-.086-.115c-1.835-2.523-3.626-5.016-5.382-7.41l-.107-.15-.136.115L97.06,202.845l.193.05c-2.759-6.17-5.016-11.165-6.543-14.634l-1.777-3.942c-.2-.444-.358-.781-.473-1.025s-.172-.351-.172-.351.043.129.143.365.251.588.437,1.039c.4.924.989,2.272,1.734,4l6.45,14.677.064.15.129-.107,27.806-22.359h-.244l5.375,7.417v-.215c-1.784,2.064-3.626,4.149-5.5,6.249-3.454,3.856-6.873,7.582-10.255,11.1a140.554,140.554,0,0,1-10.148,9.746c-.423.358-.881.681-1.311,1.018l-.659.5-.717.423-.717.423c-.236.129-.487.236-.717.351-.48.236-.975.437-1.433.631a10.693,10.693,0,0,1-3,.717,4.45,4.45,0,0,1-2.809-.717,17.371,17.371,0,0,1-2.207-1.892c-.373-.322-.717-.652-1.046-.975s-.638-.717-.953-1.018c-1.225-1.383-2.336-2.781-3.383-4.114a134.008,134.008,0,0,1-9.08-13.222c-.967-1.634-1.62-2.953-2.057-3.856-.208-.452-.337-.81-.444-1.046S73.59,191.881,73.59,191.881Z" transform="translate(-56.121 -113.536)" fill="#263238"/>
    </g>
  </g>
</svg>
