<svg xmlns="http://www.w3.org/2000/svg" width="322.658" height="292.648" viewBox="0 0 322.658 292.648">
  <g id="Private_data-amico" data-name="Private data-amico" transform="translate(-6.285 -53.65)">
    <g id="freepik--Floor--inject-150" transform="translate(6.285 159.968)">
      <path id="freepik--floor--inject-150-2" data-name="freepik--floor--inject-150" d="M53.539,373.3c-63.006-36.375-63.006-95.323,0-131.731s165.153-36.408,228.152,0,63.006,95.323,0,131.731S116.538,409.672,53.539,373.3Z" transform="translate(-6.285 -214.26)" fill="#f5f5f5"/>
    </g>
    <g id="freepik--Shadows--inject-150" transform="translate(79.855 228.719)">
      <path id="freepik--Shadow--inject-150" d="M123.988,422.818l-6.183-3.568a.549.549,0,0,1,0-1.046l44.477-25.678a.986.986,0,0,0,.331-1.4,10.85,10.85,0,0,1-1.589-7.348c.589-4.031,3.542-7.765,8.314-10.519,5.157-2.979,11.975-4.634,19.2-4.634s14.04,1.635,19.2,4.634c5.441,3.138,8.44,7.414,8.44,12.041s-2.992,8.9-8.44,12.048c-5.143,2.972-11.955,4.634-19.2,4.634a44.976,44.976,0,0,1-8.678-.821,3.177,3.177,0,0,0-1.926.311L171,405.448a3.124,3.124,0,0,1-1.926.291l-4.673-1.059a3.131,3.131,0,0,0-1.926.291l-1.41.814a2.145,2.145,0,0,0-.953,1.569l-.152,3.449a2.125,2.125,0,0,1-.953,1.569l-1.774,1.026a5.653,5.653,0,0,1-1.953.616l-4.131.364a5.764,5.764,0,0,0-1.953.6l-1.7.953a1.662,1.662,0,0,0-.781,1.549l.106.821a1.688,1.688,0,0,1-.774,1.556l-5.137,2.966a4.542,4.542,0,0,1-1.953.523H125.941a4.542,4.542,0,0,1-1.953-.523Zm71.36-44.206a9.023,9.023,0,0,0-4.362,1.019c-.821.477-1.324,1.053-1.324,1.549s.5,1.079,1.324,1.556a9.843,9.843,0,0,0,8.725,0c.821-.477,1.324-1.059,1.324-1.556s-.5-1.072-1.324-1.549A9,9,0,0,0,195.348,378.612Z" transform="translate(-117.425 -335.194)" fill="#e0e0e0"/>
      <ellipse id="freepik--shadow--inject-150-2" data-name="freepik--shadow--inject-150" cx="53.963" cy="31.152" rx="53.963" ry="31.152" transform="translate(116.966)" fill="#e0e0e0"/>
    </g>
    <g id="freepik--Gears--inject-150" transform="translate(230.27 79.599)">
      <g id="freepik--gears--inject-150-2" data-name="freepik--gears--inject-150">
        <g id="freepik--Gear--inject-150" transform="translate(5.971)">
          <path id="Path_2967" data-name="Path 2967" d="M372.655,123.625l-2.271-3.4a.556.556,0,0,0-.377-.185,6.567,6.567,0,0,1-1.536-.152.069.069,0,0,0-.106.06l-.3,2.979a.47.47,0,0,1-.741.377l-3.065-1.767a1.079,1.079,0,0,1-.49-.768l-.3-3.409a.867.867,0,0,0-.238-.47,19,19,0,0,1-1.728-1.827.318.318,0,0,0-.324-.093l-1.986.662a.728.728,0,0,1-.854-.311l-2.251-3.906a.728.728,0,0,1,.152-.894l1.576-1.324a.357.357,0,0,0,.086-.331,18.089,18.089,0,0,1-.722-2.41.913.913,0,0,0-.291-.444l-2.8-1.986a1.086,1.086,0,0,1-.417-.808V99.675a.49.49,0,0,1,.218-.43.483.483,0,0,1,.483,0l2.727,1.231h.066c.02,0,0,0,.046-.06a6.222,6.222,0,0,1,.662-1.41.516.516,0,0,0,0-.417l-1.794-3.654a.662.662,0,0,1,.258-.861l1.986-1.139a.662.662,0,0,1,.874.205l2.264,3.409a.563.563,0,0,0,.384.185,6.48,6.48,0,0,1,1.529.152.106.106,0,0,0,.079,0,.066.066,0,0,0,0-.06l.3-2.979a.47.47,0,0,1,.741-.377l3.065,1.767a1.072,1.072,0,0,1,.49.761l.3,3.409a.907.907,0,0,0,.238.477,19.006,19.006,0,0,1,1.728,1.827.344.344,0,0,0,.324.093l1.986-.662a.741.741,0,0,1,.854.318l2.251,3.9a.735.735,0,0,1-.152.9l-1.582,1.324a.338.338,0,0,0-.079.331,19.381,19.381,0,0,1,.722,2.4.86.86,0,0,0,.291.444l2.794,1.986a1.079,1.079,0,0,1,.424.808v3.535a.51.51,0,0,1-.218.437.516.516,0,0,1-.483,0l-2.727-1.231a.08.08,0,0,0-.066,0,.1.1,0,0,0-.046.066,6.467,6.467,0,0,1-.662,1.4.53.53,0,0,0,0,.424l1.814,3.661a.662.662,0,0,1-.258.861l-1.986,1.139a.637.637,0,0,1-.867-.225Zm2.271-7.8,2.721,1.231v-3.535a.569.569,0,0,0-.205-.4l-2.8-1.986a1.363,1.363,0,0,1-.49-.741,18.409,18.409,0,0,0-.7-2.343.841.841,0,0,1,.225-.88l1.582-1.364a.232.232,0,0,0,.04-.265l-2.251-3.9a.225.225,0,0,0-.252-.093l-1.986.662a.834.834,0,0,1-.88-.245,17.87,17.87,0,0,0-1.675-1.774,1.377,1.377,0,0,1-.4-.8l-.311-3.409a.569.569,0,0,0-.238-.377l-3.058-1.767-.3,2.972a.576.576,0,0,1-.238.417.6.6,0,0,1-.477.093,5.872,5.872,0,0,0-1.41-.146.986.986,0,0,1-.814-.4l-2.264-3.409a.159.159,0,0,0-.205-.046l-1.986,1.139a.159.159,0,0,0-.066.205l1.82,3.661a1.019,1.019,0,0,1-.053.907,5.806,5.806,0,0,0-.583,1.324.6.6,0,0,1-.318.364.569.569,0,0,1-.477,0l-2.721-1.231v3.542a.583.583,0,0,0,.205.4l2.8,1.986a1.4,1.4,0,0,1,.49.748,18.356,18.356,0,0,0,.7,2.343.821.821,0,0,1-.218.88l-1.582,1.357a.245.245,0,0,0-.046.271l2.257,3.9a.225.225,0,0,0,.252.093l1.986-.662a.841.841,0,0,1,.874.252,18.719,18.719,0,0,0,1.681,1.774,1.424,1.424,0,0,1,.4.8l.3,3.4a.569.569,0,0,0,.245.377l3.058,1.774.3-2.979a.576.576,0,0,1,.232-.41.589.589,0,0,1,.483-.093,5.839,5.839,0,0,0,1.41.146.966.966,0,0,1,.808.4l2.264,3.4a.166.166,0,0,0,.212.053l1.986-1.139a.159.159,0,0,0,.06-.205l-1.814-3.667a.986.986,0,0,1,.053-.9,6.091,6.091,0,0,0,.583-1.324.6.6,0,0,1,.318-.371.556.556,0,0,1,.232-.046A.662.662,0,0,1,374.925,115.827Zm-9.135-1.258h0a11.737,11.737,0,0,1-5.3-9.181,3.4,3.4,0,0,1,5.547-3.2,11.719,11.719,0,0,1,5.3,9.181,3.858,3.858,0,0,1-1.642,3.561,2.866,2.866,0,0,1-1.47.384,5.018,5.018,0,0,1-2.423-.741Zm-3.409-12.313a3.4,3.4,0,0,0-1.39,3.131,11.187,11.187,0,0,0,5.051,8.745h0a2.91,2.91,0,0,0,4.8-2.767,11.181,11.181,0,0,0-5.038-8.751,4.488,4.488,0,0,0-2.184-.662,2.416,2.416,0,0,0-1.238.3Z" transform="translate(-353.669 -92.851)" fill="#ebebeb"/>
        </g>
        <path id="freepik--gear--inject-150-2" data-name="freepik--gear--inject-150" d="M344.881,130.8l1.4,1.8a1.5,1.5,0,0,1,.285.8,9.733,9.733,0,0,0,.046,1.059.384.384,0,0,1-.4.43h-1a.318.318,0,0,0-.318.437l.768,2.443a1.026,1.026,0,0,0,.6.583l1.158.357a1.264,1.264,0,0,1,.662.569c.212.417.444.827.662,1.225a1.211,1.211,0,0,1,.172.8l-.331,1.41a1.019,1.019,0,0,0,.265.808l1.609,1.827c.179.205.417.225.523.04l.583-1c.106-.185.371-.185.6,0a7.284,7.284,0,0,0,.708.47,1.6,1.6,0,0,1,.609.662l.847,2.218a.874.874,0,0,0,.662.5l1.231.192c.258.046.424-.119.364-.357l-.523-2.138a.51.51,0,0,1,.285-.576,2.415,2.415,0,0,0,.357-.212.51.51,0,0,1,.662.1l1.45,1.443c.2.2.424.2.5,0l.523-1.364a.894.894,0,0,0-.159-.761l-1.4-1.794a1.5,1.5,0,0,1-.291-.808,8.2,8.2,0,0,0-.046-1.053.384.384,0,0,1,.4-.43h.98a.318.318,0,0,0,.324-.437l-.775-2.482a.993.993,0,0,0-.609-.576l-1.158-.357a1.324,1.324,0,0,1-.662-.569c-.212-.417-.437-.827-.662-1.231a1.264,1.264,0,0,1-.172-.794l.331-1.41a1,1,0,0,0-.238-.768l-1.609-1.827c-.185-.212-.417-.225-.53-.04l-.576.993c-.106.185-.371.192-.6,0a7.118,7.118,0,0,0-.7-.463,1.621,1.621,0,0,1-.616-.662l-.894-2.224a.907.907,0,0,0-.662-.51l-1.231-.192c-.258-.04-.424.119-.364.357l.523,2.145a.536.536,0,0,1-.285.576,1.987,1.987,0,0,0-.357.212.523.523,0,0,1-.662-.106l-1.45-1.443c-.2-.2-.424-.192-.5,0l-.523,1.37A.887.887,0,0,0,344.881,130.8Zm4.243,3.277c.616-1.609,2.529-1.324,4.27.662s2.648,4.892,2.039,6.5-2.529,1.324-4.27-.662-2.668-4.892-2.052-6.5Z" transform="translate(-344.649 -104.371)" fill="#ebebeb"/>
      </g>
    </g>
    <g id="freepik--Plant--inject-150" transform="translate(144.865 222.251)">
      <g id="freepik--Plants--inject-150">
        <path id="Path_2968" data-name="Path 2968" d="M226.334,308.588c-5.958,1.668-10.671,12.643-10.7,23.268a99.717,99.717,0,0,0,1.2,16.549l2.827,1.635.814.47,2.84,1.635,1.748,1.013a46.953,46.953,0,0,1,0-13.1h0a31.773,31.773,0,0,1,1.9-7.063c1.774-4.475,4.634-8.956,5.746-12.034C235.476,313.295,231.908,307.032,226.334,308.588Z" transform="translate(-215.632 -308.349)" fill="#9676ff"/>
        <g id="Group_2299" data-name="Group 2299" opacity="0.65">
          <path id="Path_2969" data-name="Path 2969" d="M226.334,308.588c-5.958,1.668-10.671,12.643-10.7,23.268a99.717,99.717,0,0,0,1.2,16.549l2.827,1.635.814.47,2.84,1.635,1.748,1.013a46.953,46.953,0,0,1,0-13.1h0a31.773,31.773,0,0,1,1.9-7.063c1.774-4.475,4.634-8.956,5.746-12.034C235.476,313.295,231.908,307.032,226.334,308.588Z" transform="translate(-215.632 -308.349)" fill="#fff"/>
        </g>
        <path id="Path_2970" data-name="Path 2970" d="M230.014,314.531c-5.958,6.706-10.4,21.845-7.811,37.878l-.814-.47c-2.423-16.086,2.072-31.172,8.076-37.9a.371.371,0,0,1,.549.5Z" transform="translate(-217.351 -310.234)" fill="#fff"/>
        <path id="Path_2971" data-name="Path 2971" d="M237.647,336.87a18.683,18.683,0,0,0-5.461,5.249,41.6,41.6,0,0,0-3.27,7.182h0a33.475,33.475,0,0,0-1.721,12.087l1.748,1.013.814.47.741.424,2.906,1.675a34.331,34.331,0,0,1,2.846-7.811c3.416-6.759,9.711-11.73,10.188-15.51C247.034,337.109,243.605,333.8,237.647,336.87Z" transform="translate(-219.53 -317.587)" fill="#9676ff"/>
        <path id="Path_2972" data-name="Path 2972" d="M237.647,336.87a18.683,18.683,0,0,0-5.461,5.249,41.6,41.6,0,0,0-3.27,7.182h0a33.475,33.475,0,0,0-1.721,12.087l1.748,1.013.814.47.741.424,2.906,1.675a34.331,34.331,0,0,1,2.846-7.811c3.416-6.759,9.711-11.73,10.188-15.51C247.034,337.109,243.605,333.8,237.647,336.87Z" transform="translate(-219.53 -317.587)" fill="#fff" opacity="0.3"/>
        <path id="Path_2973" data-name="Path 2973" d="M242.519,343.367c-3.806,2.535-10.194,10.141-10.658,22.295l-.741-.424c.543-12.16,6.825-19.713,10.989-22.507a.371.371,0,1,1,.41.616Z" transform="translate(-220.867 -319.946)" fill="#fff"/>
      </g>
    </g>
    <g id="freepik--Folders--inject-150" transform="translate(35.123 55.501)">
      <g id="freepik--Folder--inject-150" transform="translate(0 152.09)">
        <g id="freepik--folder--inject-150-2" data-name="freepik--folder--inject-150">
          <path id="Path_2974" data-name="Path 2974" d="M50.909,351.98a1.012,1.012,0,0,1-.53-.146,1.033,1.033,0,0,1-.53-.914V307.436a2.727,2.727,0,0,1,1.258-2.178l12.809-7.394a1.324,1.324,0,0,1,1.364-.04,1.4,1.4,0,0,1,.662.841l1.033,3.449a.536.536,0,0,0,.3.357.5.5,0,0,0,.457-.06L95.479,286.4a1.172,1.172,0,0,1,1.072-.119l.139.073a1.178,1.178,0,0,1,.483,1.026v36.6a2.741,2.741,0,0,1-1.258,2.178L51.439,351.834a1.033,1.033,0,0,1-.53.146Zm13.736-53.447a.563.563,0,0,0-.291.086l-12.809,7.388a1.821,1.821,0,0,0-.576.622,1.668,1.668,0,0,0-.245.808v43.5A.185.185,0,0,0,51,351.1l44.471-25.684a1.88,1.88,0,0,0,.821-1.423v-36.6a.41.41,0,0,0-.073-.285l-.053-.033a.616.616,0,0,0-.265.093l-27.743,16a1.41,1.41,0,0,1-1.211.119,1.377,1.377,0,0,1-.808-.92L65.1,298.917a.549.549,0,0,0-.238-.331A.41.41,0,0,0,64.645,298.533Z" transform="translate(-49.85 -286.202)" fill="#9676ff"/>
        </g>
        <g id="freepik--folder--inject-150-3" data-name="freepik--folder--inject-150" transform="translate(7.942 8.474)">
          <path id="Path_2975" data-name="Path 2975" d="M114.727,337.924l-.338-.192-.391-.225-.344-.2a2.529,2.529,0,0,1-1.092-1.635l-4.634-34.991a1.523,1.523,0,0,0-.662-1.178l-.6-.344a1.47,1.47,0,0,0-1.489.1L81.145,312.9a2.191,2.191,0,0,1-1.814.172,2.324,2.324,0,0,1-.457-.549L78.1,311.2a2.165,2.165,0,0,0-.8-.8l-.6-.344a2.2,2.2,0,0,0-2.191,0l-11.042,6.381a3.555,3.555,0,0,0-1.609,3.31l5.567,41.777a3.032,3.032,0,0,0,1.324,2.032l1.072.622a1.423,1.423,0,0,0,.662.2,1.033,1.033,0,0,0,.543-.132l44.352-26.22A.662.662,0,0,1,114.727,337.924Z" transform="translate(-61.847 -299.003)" fill="#9676ff"/>
          <path id="Path_2976" data-name="Path 2976" d="M115.033,338.088l-1.066-.616a2.515,2.515,0,0,1-1.1-1.635l-4.634-34.991a1.364,1.364,0,0,0-2.191-1.079L82.212,313.509a2.2,2.2,0,0,1-3-.8l-.774-1.324a2.191,2.191,0,0,0-3-.8l-11.068,6.388a3.548,3.548,0,0,0-1.609,3.27l5.514,41.366a2.529,2.529,0,0,0,1.092,1.642l1.072.616a.662.662,0,0,0,.662.066l44.6-25.75A.662.662,0,0,1,115.033,338.088Z" transform="translate(-62.153 -299.167)" opacity="0.25"/>
          <path id="Path_2977" data-name="Path 2977" d="M72.385,382.265l1.072.616a.662.662,0,0,0,.662.066l44.6-25.75a.662.662,0,0,1-.662-.066l-1.066-.616a2.35,2.35,0,0,1-.708-.7l-44.6,25.75A2.336,2.336,0,0,0,72.385,382.265Z" transform="translate(-65.175 -318.209)" opacity="0.25"/>
          <path id="Path_2978" data-name="Path 2978" d="M73.13,323.628v36.315a.549.549,0,0,0,.252.43l.278.165a.549.549,0,0,0,.5,0L114.39,337.3a.549.549,0,0,0,.252-.43V300.559a.549.549,0,0,0-.252-.43l-.3-.159a.549.549,0,0,0-.5,0L73.382,323.2a.549.549,0,0,0-.252.43Z" transform="translate(-65.661 -299.31)" fill="#fafafa"/>
          <path id="Path_2979" data-name="Path 2979" d="M114.676,300.493a.431.431,0,0,0,0-.086v-.046a.41.41,0,0,0-.079-.126.344.344,0,0,0-.066-.073l-.053-.033-.351-.159a.549.549,0,0,0-.5,0L73.422,323.2a.47.47,0,0,0-.172.185l.774.45a.516.516,0,0,1,.172-.185l40.234-23.228C114.55,300.347,114.649,300.387,114.676,300.493Z" transform="translate(-65.702 -299.31)" fill="#e0e0e0"/>
          <path id="Path_2980" data-name="Path 2980" d="M74.093,372.552c-.106,0-.179-.04-.179-.172V336.065a.476.476,0,0,1,.073-.245l-.774-.45a.437.437,0,0,0-.073.245V371.93a.523.523,0,0,0,.245.43l.278.165A.569.569,0,0,0,74.093,372.552Z" transform="translate(-65.665 -311.296)" fill="#e0e0e0"/>
          <g id="Group_2300" data-name="Group 2300" transform="translate(7.475 24.074)" opacity="0.1">
            <path id="Path_2981" data-name="Path 2981" d="M74.093,372.552c-.106,0-.179-.04-.179-.172V336.065a.476.476,0,0,1,.073-.245l-.774-.45a.437.437,0,0,0-.073.245V371.93a.523.523,0,0,0,.245.43l.278.165A.569.569,0,0,0,74.093,372.552Z" transform="translate(-73.14 -335.37)"/>
          </g>
          <path id="Path_2982" data-name="Path 2982" d="M120.8,304.522a1.324,1.324,0,0,0-.556-1.225l-.549-.318a1.324,1.324,0,0,0-1.324.132L77.554,326.664a4.2,4.2,0,0,0-1.9,3.31v34.468a.662.662,0,0,1-.285.616l.271.47,44.875-25.9a.662.662,0,0,0,.278-.616Z" transform="translate(-66.419 -300.307)" fill="#9676ff"/>
          <path id="Path_2983" data-name="Path 2983" d="M75.78,365.664a1.178,1.178,0,0,0,.549-1.086V330.421a4.223,4.223,0,0,1,1.9-3.31l40.8-23.553c1.053-.6,1.906-.113,1.906,1.1v34.475a.662.662,0,0,1-.278.616Z" transform="translate(-66.557 -300.456)" fill="#fff" opacity="0.25"/>
        </g>
        <path id="Path_2984" data-name="Path 2984" d="M112.914,340.125l-4.521-3.826c-.291-.245-.774,0-1.072.6l-1.642,3.151c-.291.563-.761.834-1.053.616l-3.853-2.9c-.291-.225-.768.053-1.059.609L93.69,349.969v3.972l19.2-11.095Zm-2.3-6.474a4.124,4.124,0,0,0,1.728-3.31c0-1.271-.768-1.86-1.728-1.324a4.131,4.131,0,0,0-1.721,3.31C108.9,333.618,109.663,334.2,110.617,333.651Zm4.488-11.869-23.6,13.636a2.6,2.6,0,0,0-1.086,2.072v21.3c0,.794.49,1.165,1.086.821l23.6-13.643a2.6,2.6,0,0,0,1.079-2.072V322.6C116.184,321.8,115.7,321.431,115.1,321.782Zm-.821,21.984-21.957,12.7V337.616l21.957-12.7Z" transform="translate(-63.564 -298.184)" fill="#fff"/>
      </g>
      <g id="freepik--folder--inject-150-4" data-name="freepik--folder--inject-150" transform="translate(0 76.034)">
        <g id="freepik--folder--inject-150-5" data-name="freepik--folder--inject-150">
          <path id="Path_2985" data-name="Path 2985" d="M50.909,237.089a1.079,1.079,0,0,1-.53-.146,1.046,1.046,0,0,1-.53-.914V192.538a2.555,2.555,0,0,1,.364-1.238,2.582,2.582,0,0,1,.894-.933l12.809-7.394a1.324,1.324,0,0,1,1.364-.046,1.417,1.417,0,0,1,.662.841l1.033,3.455a.536.536,0,0,0,.3.357.523.523,0,0,0,.457-.06l27.75-16.013a1.152,1.152,0,0,1,1.072-.119l.139.073a1.165,1.165,0,0,1,.483,1.019v36.6a2.721,2.721,0,0,1-1.258,2.178L51.445,236.943a1.1,1.1,0,0,1-.536.146Zm13.736-53.454a.576.576,0,0,0-.291.093l-12.809,7.388a1.821,1.821,0,0,0-.576.622,1.642,1.642,0,0,0-.245.8v43.491a.185.185,0,0,0,.278.159l44.471-25.678a1.893,1.893,0,0,0,.821-1.43v-36.6a.424.424,0,0,0-.073-.285h-.053a.616.616,0,0,0-.265.093L68.16,188.275a1.337,1.337,0,0,1-2.019-.8L65.1,184.019a.536.536,0,0,0-.238-.324A.417.417,0,0,0,64.645,183.635Z" transform="translate(-49.85 -171.308)" fill="#9676ff"/>
        </g>
        <g id="freepik--folder--inject-150-6" data-name="freepik--folder--inject-150" transform="translate(7.945 8.603)">
          <path id="Path_2986" data-name="Path 2986" d="M114.728,223.231l-.338-.2-.391-.225-.344-.2a2.515,2.515,0,0,1-1.092-1.635l-4.634-34.991a1.529,1.529,0,0,0-.662-1.178l-.6-.344a1.456,1.456,0,0,0-1.489.106L81.147,198.229a2.191,2.191,0,0,1-1.814.172,2.357,2.357,0,0,1-.457-.556l-.774-1.324a2.112,2.112,0,0,0-.8-.8l-.6-.344a2.2,2.2,0,0,0-2.178-.02l-11.055,6.388a3.548,3.548,0,0,0-1.609,3.27L67.431,246.8a3.045,3.045,0,0,0,1.324,2.032l1.072.616a1.423,1.423,0,0,0,.662.205,1.033,1.033,0,0,0,.543-.132l44.352-26.22A.662.662,0,0,1,114.728,223.231Z" transform="translate(-61.852 -184.304)" fill="#9676ff"/>
          <path id="Path_2987" data-name="Path 2987" d="M115.028,223.4l-1.066-.622a2.482,2.482,0,0,1-1.1-1.635l-4.634-34.991a1.37,1.37,0,0,0-2.191-1.079L82.2,198.833a2.191,2.191,0,0,1-3-.8l-.774-1.324a2.2,2.2,0,0,0-3-.808l-11.068,6.388a3.555,3.555,0,0,0-1.609,3.31l5.514,41.366a2.515,2.515,0,0,0,1.092,1.635l1.072.622a.662.662,0,0,0,.662.066l44.6-25.75A.662.662,0,0,1,115.028,223.4Z" transform="translate(-62.151 -184.471)" opacity="0.25"/>
          <path id="Path_2988" data-name="Path 2988" d="M72.382,267.582l1.072.622a.662.662,0,0,0,.662.066l44.6-25.75a.662.662,0,0,1-.662-.066l-1.066-.622a2.251,2.251,0,0,1-.708-.662l-44.6,25.7a2.311,2.311,0,0,0,.7.708Z" transform="translate(-65.174 -203.527)" opacity="0.25"/>
          <path id="Path_2989" data-name="Path 2989" d="M73.13,208.9v36.322a.549.549,0,0,0,.252.43l.278.159a.549.549,0,0,0,.5,0l40.234-23.228a.549.549,0,0,0,.252-.43V185.865a.549.549,0,0,0-.252-.43l-.278-.165a.549.549,0,0,0-.5,0L73.382,208.5a.549.549,0,0,0-.252.4Z" transform="translate(-65.664 -184.611)" fill="#fafafa"/>
          <path id="Path_2990" data-name="Path 2990" d="M114.676,185.816a.49.49,0,0,0,0-.093v-.046a.662.662,0,0,0-.079-.126.311.311,0,0,0-.066-.066h-.053l-.278-.165a.549.549,0,0,0-.5,0l-40.28,23.2a.516.516,0,0,0-.172.185l.774.45a.516.516,0,0,1,.172-.185l40.234-23.215C114.55,185.671,114.649,185.7,114.676,185.816Z" transform="translate(-65.705 -184.627)" fill="#e0e0e0"/>
          <path id="Path_2991" data-name="Path 2991" d="M74.093,257.852c-.106,0-.179-.04-.179-.172V221.365a.5.5,0,0,1,.073-.245l-.774-.45a.45.45,0,0,0-.073.245v36.322a.51.51,0,0,0,.245.424l.278.165A.543.543,0,0,0,74.093,257.852Z" transform="translate(-65.668 -196.597)" fill="#e0e0e0"/>
          <g id="Group_2301" data-name="Group 2301" transform="translate(7.472 24.073)" opacity="0.1">
            <path id="Path_2992" data-name="Path 2992" d="M74.093,257.852c-.106,0-.179-.04-.179-.172V221.365a.5.5,0,0,1,.073-.245l-.774-.45a.45.45,0,0,0-.073.245v36.322a.51.51,0,0,0,.245.424l.278.165A.543.543,0,0,0,74.093,257.852Z" transform="translate(-73.14 -220.67)"/>
          </g>
          <path id="Path_2993" data-name="Path 2993" d="M120.8,189.83a1.324,1.324,0,0,0-.556-1.231l-.549-.318a1.324,1.324,0,0,0-1.324.139L77.554,211.972a4.184,4.184,0,0,0-1.9,3.31v34.475a.662.662,0,0,1-.285.616l.271.47,44.875-25.909a.662.662,0,0,0,.278-.616Z" transform="translate(-66.421 -185.609)" fill="#9676ff"/>
          <path id="Path_2994" data-name="Path 2994" d="M75.78,250.972a1.178,1.178,0,0,0,.549-1.086V215.729a4.217,4.217,0,0,1,1.9-3.31l40.8-23.553c1.053-.609,1.906-.119,1.906,1.1v34.468a.662.662,0,0,1-.278.616Z" transform="translate(-66.56 -185.758)" fill="#fff" opacity="0.25"/>
        </g>
        <path id="Path_2995" data-name="Path 2995" d="M114.464,223.747l-11.015,6.361c-.556-3.131-2.86-4.4-5.613-2.807-3.177,1.834-5.746,6.745-5.746,10.975s2.568,6.176,5.746,4.342c2.774-1.6,5.1-5.574,5.627-9.373l6.282-3.628v2.853c0,.867.53,1.271,1.185.894a2.833,2.833,0,0,0,1.178-2.257v-2.84l2.357-1.364a2.82,2.82,0,0,0,1.185-2.257C115.649,223.767,115.12,223.37,114.464,223.747ZM97.836,239.985c-2.085,1.2-3.767-.073-3.767-2.846s1.681-6,3.767-7.2,3.767.073,3.767,2.846S99.914,238.78,97.836,239.985Z" transform="translate(-64.129 -188.986)" fill="#fafafa"/>
      </g>
      <g id="freepik--folder--inject-150-7" data-name="freepik--folder--inject-150" transform="translate(0)">
        <g id="freepik--folder--inject-150-8" data-name="freepik--folder--inject-150">
          <path id="Path_2996" data-name="Path 2996" d="M50.909,122.2a1.072,1.072,0,0,1-.53-.139,1.053,1.053,0,0,1-.53-.914V77.658a2.582,2.582,0,0,1,.364-1.244,2.694,2.694,0,0,1,.894-.933l12.809-7.414a1.324,1.324,0,0,1,1.364,0,1.4,1.4,0,0,1,.662.841l1.033,3.449a.549.549,0,0,0,.3.364.523.523,0,0,0,.457-.06l27.75-16.013a1.178,1.178,0,0,1,1.072-.126l.139.073a1.178,1.178,0,0,1,.483,1.026v36.6A2.727,2.727,0,0,1,95.916,96.4L51.445,122.082A1.092,1.092,0,0,1,50.909,122.2ZM64.645,68.728a.662.662,0,0,0-.291.086L51.545,76.235a1.794,1.794,0,0,0-.576.616,1.668,1.668,0,0,0-.245.808v43.491a.185.185,0,0,0,.278.159L95.473,95.624a1.867,1.867,0,0,0,.821-1.423V57.6a.424.424,0,0,0-.073-.285h-.053a.523.523,0,0,0-.265.093L68.16,73.4a1.383,1.383,0,0,1-1.211.113,1.364,1.364,0,0,1-.808-.92L65.1,69.139a.536.536,0,0,0-.238-.324A.417.417,0,0,0,64.645,68.728Z" transform="translate(-49.85 -56.446)" fill="#9676ff"/>
        </g>
        <g id="freepik--folder--inject-150-9" data-name="freepik--folder--inject-150" transform="translate(7.942 8.714)">
          <path id="Path_2997" data-name="Path 2997" d="M114.727,108.533l-.338-.192-.391-.225-.344-.2a2.529,2.529,0,0,1-1.092-1.635l-4.634-34.991a1.542,1.542,0,0,0-.662-1.185l-.6-.338a1.456,1.456,0,0,0-1.489.1L81.145,83.531a2.191,2.191,0,0,1-1.814.172,2.231,2.231,0,0,1-.457-.556L78.1,81.823a2.165,2.165,0,0,0-.8-.8l-.6-.344a2.2,2.2,0,0,0-2.191,0l-11.042,6.4a3.555,3.555,0,0,0-1.609,3.31l5.567,41.7a3.032,3.032,0,0,0,1.324,2.032l1.139.616a1.423,1.423,0,0,0,.662.2,1.033,1.033,0,0,0,.543-.132l44.352-26.22a.662.662,0,0,1-.722-.053Z" transform="translate(-61.847 -69.61)" fill="#9676ff"/>
          <path id="Path_2998" data-name="Path 2998" d="M115.029,108.7l-1.066-.616a2.515,2.515,0,0,1-1.1-1.635l-4.634-34.991a1.364,1.364,0,0,0-2.191-1.079L82.209,84.12a2.191,2.191,0,0,1-3-.808l-.775-1.324a2.191,2.191,0,0,0-3-.8L64.362,87.555a3.548,3.548,0,0,0-1.609,3.27l5.514,41.366a2.529,2.529,0,0,0,1.092,1.642l1.072.616a.662.662,0,0,0,.662.066l44.6-25.75A.662.662,0,0,1,115.029,108.7Z" transform="translate(-62.15 -69.775)" opacity="0.25"/>
          <path id="Path_2999" data-name="Path 2999" d="M72.385,152.892l1.072.616a.662.662,0,0,0,.662.066l44.6-25.75a.662.662,0,0,1-.662-.066l-1.066-.616a2.35,2.35,0,0,1-.708-.662l-44.6,25.75A2.336,2.336,0,0,0,72.385,152.892Z" transform="translate(-65.175 -88.834)" opacity="0.25"/>
          <path id="Path_3000" data-name="Path 3000" d="M73.13,94.238v36.315a.549.549,0,0,0,.252.43l.278.159a.549.549,0,0,0,.5,0l40.234-23.235a.549.549,0,0,0,.252-.43V71.169a.549.549,0,0,0-.252-.43l-.278-.159a.549.549,0,0,0-.5,0L73.382,93.808a.549.549,0,0,0-.252.43Z" transform="translate(-65.661 -69.918)" fill="#fafafa"/>
          <path id="Path_3001" data-name="Path 3001" d="M114.676,71.1a.659.659,0,0,0,0-.093v-.04a.542.542,0,0,0-.079-.132.622.622,0,0,0-.066-.066l-.053-.033-.278-.159a.549.549,0,0,0-.5,0L73.422,93.808a.47.47,0,0,0-.172.185l.774.45a.516.516,0,0,1,.172-.185l40.234-23.235C114.55,70.957,114.649,71,114.676,71.1Z" transform="translate(-65.702 -69.918)" fill="#e0e0e0"/>
          <path id="Path_3002" data-name="Path 3002" d="M74.093,143.169c-.106,0-.179-.04-.179-.172V106.662a.477.477,0,0,1,.073-.245L73.213,106a.437.437,0,0,0-.073.245V142.56a.523.523,0,0,0,.245.43l.278.165a.569.569,0,0,0,.43.013Z" transform="translate(-65.665 -81.911)" fill="#e0e0e0"/>
          <g id="Group_2302" data-name="Group 2302" transform="translate(7.475 24.089)" opacity="0.1">
            <path id="Path_3003" data-name="Path 3003" d="M74.093,143.169c-.106,0-.179-.04-.179-.172V106.662a.477.477,0,0,1,.073-.245L73.213,106a.437.437,0,0,0-.073.245V142.56a.523.523,0,0,0,.245.43l.278.165a.569.569,0,0,0,.43.013Z" transform="translate(-73.14 -106)"/>
          </g>
          <path id="Path_3004" data-name="Path 3004" d="M120.8,75.152a1.364,1.364,0,0,0-.556-1.231l-.549-.311a1.324,1.324,0,0,0-1.324.132L77.554,97.281a4.2,4.2,0,0,0-1.9,3.31v34.468a.662.662,0,0,1-.285.616l.271.47,44.875-25.909a.662.662,0,0,0,.278-.609Z" transform="translate(-66.419 -70.922)" fill="#9676ff"/>
          <path id="Path_3005" data-name="Path 3005" d="M75.78,136.274a1.178,1.178,0,0,0,.549-1.086V101.031a4.223,4.223,0,0,1,1.9-3.31l40.8-23.553c1.053-.6,1.906-.113,1.906,1.1v34.475a.662.662,0,0,1-.278.609Z" transform="translate(-66.557 -71.064)" fill="#fff" opacity="0.25"/>
        </g>
        <path id="freepik--Contact--inject-150" d="M105.929,112.551c2.37-1.37,4.29-5.038,4.29-8.2s-1.92-4.634-4.29-3.244-4.29,5.038-4.29,8.2S103.559,113.921,105.929,112.551Zm7.215,1.9c-.285-2.105-1.761-2.913-3.489-1.913l-7.454,4.3a8.4,8.4,0,0,0-3.489,5.958l-.516,4.342c-.046.4.172.662.463.457l14.563-8.394a1.119,1.119,0,0,0,.463-.993Z" transform="translate(-66.191 -71.368)" fill="#fafafa"/>
      </g>
    </g>
    <g id="freepik--Lines--inject-150" transform="translate(104.014 69.032)">
      <g id="freepik--lines--inject-150-2" data-name="freepik--lines--inject-150" transform="translate(0 0)">
        <path id="Path_3006" data-name="Path 3006" d="M178.619,122.73a1.946,1.946,0,0,1-.947-.252,1.873,1.873,0,0,1-.94-1.642V78.776a1.324,1.324,0,0,0-1.946-1.119L155.848,88.606l-.3-.516L174.5,77.14a1.893,1.893,0,0,1,2.84,1.635v42.061a1.324,1.324,0,0,0,1.94,1.125l18.4-10.631.3.516-18.4,10.631A1.946,1.946,0,0,1,178.619,122.73Z" transform="translate(-154.471 -76.887)" fill="#455a64"/>
        <path id="Path_3007" data-name="Path 3007" d="M155.131,92c.662-.384,1.211-.073,1.211.7a2.648,2.648,0,0,1-1.211,2.1c-.662.391-1.211.073-1.211-.662A2.694,2.694,0,0,1,155.131,92Z" transform="translate(-153.92 -81.939)" fill="#455a64"/>
        <path id="Path_3008" data-name="Path 3008" d="M218.781,127.113c.662-.391,1.211-.079,1.211.662a2.648,2.648,0,0,1-1.211,2.1c-.662.391-1.211.073-1.211-.662A2.648,2.648,0,0,1,218.781,127.113Z" transform="translate(-175.436 -93.808)" fill="#455a64"/>
        <path id="Path_3009" data-name="Path 3009" d="M155.131,206.156c.662-.384,1.211-.073,1.211.7a2.694,2.694,0,0,1-1.211,2.1c-.662.384-1.211.073-1.211-.7A2.648,2.648,0,0,1,155.131,206.156Z" transform="translate(-153.92 -120.529)" fill="#455a64"/>
        <path id="Path_3010" data-name="Path 3010" d="M218.781,148.246c.662-.384,1.211-.073,1.211.7a2.648,2.648,0,0,1-1.211,2.1c-.662.391-1.211.073-1.211-.7A2.694,2.694,0,0,1,218.781,148.246Z" transform="translate(-175.436 -100.953)" fill="#455a64"/>
        <path id="Path_3011" data-name="Path 3011" d="M155.848,188.9l-.3-.516,19.429-11.253a3.548,3.548,0,0,0,1.774-3.065v-9.526a4.131,4.131,0,0,1,2.065-3.581l18.873-10.9.3.516-18.873,10.9a3.541,3.541,0,0,0-1.767,3.065V174.1a4.137,4.137,0,0,1-2.072,3.581Z" transform="translate(-154.471 -101.622)" fill="#455a64"/>
        <path id="Path_3012" data-name="Path 3012" d="M155.131,324.536c.662-.384,1.211-.073,1.211.7a2.648,2.648,0,0,1-1.211,2.1c-.662.384-1.211.073-1.211-.7A2.648,2.648,0,0,1,155.131,324.536Z" transform="translate(-153.92 -160.546)" fill="#455a64"/>
        <path id="Path_3013" data-name="Path 3013" d="M218.781,190.684c.662-.391,1.211-.073,1.211.662a2.694,2.694,0,0,1-1.211,2.138c-.662.384-1.211.073-1.211-.7A2.648,2.648,0,0,1,218.781,190.684Z" transform="translate(-175.436 -115.298)" fill="#455a64"/>
        <path id="Path_3014" data-name="Path 3014" d="M155.848,281.566l-.3-.516L174.972,269.8a3.561,3.561,0,0,0,1.774-3.072v-59.9a4.15,4.15,0,0,1,2.065-3.587l18.873-10.9.3.516-18.873,10.9a3.542,3.542,0,0,0-1.767,3.065v59.934a4.157,4.157,0,0,1-2.072,3.588Z" transform="translate(-154.471 -115.914)" fill="#455a64"/>
      </g>
    </g>
    <g id="freepik--Shield--inject-150" transform="translate(156.898 53.65)">
      <g id="freepik--Title--inject-150" transform="translate(2.462 73.293)">
        <g id="freepik--Box--inject-150" transform="translate(0 0)">
          <path id="Path_3015" data-name="Path 3015" d="M281.22,164.37l-43.69,25.221v15.086l1.681.966,43.69-25.221V165.336Z" transform="translate(-237.53 -164.37)" fill="#37474f"/>
          <path id="Path_3016" data-name="Path 3016" d="M240.07,191.057l43.69-25.227v15.086l-43.69,25.221Z" transform="translate(-238.389 -164.864)" fill="#455a64"/>
          <path id="Path_3017" data-name="Path 3017" d="M237.53,202.47l1.681.973v15.08l-1.681-.966Z" transform="translate(-237.53 -177.249)" fill="#263238"/>
        </g>
      </g>
      <g id="freepik--shield--inject-150-2" data-name="freepik--shield--inject-150">
        <g id="freepik--shield--inject-150-3" data-name="freepik--shield--inject-150">
          <path id="Path_3018" data-name="Path 3018" d="M278.608,57.311c-7.05,6.335-13.14,6-16.953,3.072-3.8,7.328-9.89,14.682-16.94,16.5l-4.031,10.869s2.158,2.489,2.158,8.44a29.788,29.788,0,0,1-.993,7.381,39.068,39.068,0,0,0-1.681,11.042,19.26,19.26,0,0,0,2.191,9.824,12.194,12.194,0,0,0,4.409,4.415l-6.123-3.535a12.213,12.213,0,0,1-4.634-4.548,19.328,19.328,0,0,1-2.191-9.824A39.246,39.246,0,0,1,235.5,99.9a29.4,29.4,0,0,0,1-7.374c0-5.958-2.158-8.44-2.158-8.44l4.025-10.869c7.05-1.814,13.14-9.175,16.946-16.5,3.806,2.932,9.929,3.263,16.946-3.065Z" transform="translate(-233.813 -53.65)" fill="#9676ff"/>
          <path id="Path_3019" data-name="Path 3019" d="M268.511,59.571,266.28,58.28a9.81,9.81,0,0,0,2.231,1.291Z" transform="translate(-244.786 -55.215)" fill="#fff" opacity="0.8"/>
          <path id="Path_3020" data-name="Path 3020" d="M284.365,53.65c-5.8,5.21-10.949,5.9-14.715,4.356l4.117,2.376c3.813,2.932,9.929,3.263,16.953-3.072Z" transform="translate(-245.925 -53.65)" fill="#fff" opacity="0.85"/>
          <path id="Path_3021" data-name="Path 3021" d="M257.626,58.28c-3.806,7.328-9.9,14.689-16.946,16.5l6.355,3.667c7.05-1.814,13.14-9.175,16.94-16.5Z" transform="translate(-236.132 -55.215)" fill="#fff" opacity="0.65"/>
          <path id="Path_3022" data-name="Path 3022" d="M238.625,83.21,234.6,94.079l6.348,3.667,4.031-10.869Z" transform="translate(-234.077 -63.642)" fill="#fff" opacity="0.55"/>
          <path id="Path_3023" data-name="Path 3023" d="M242.356,139.983a19.26,19.26,0,0,1-2.191-9.824,39.152,39.152,0,0,1,1.681-11.042,29.788,29.788,0,0,0,.993-7.381c0-5.958-2.158-8.44-2.158-8.44l-6.348-3.667s2.158,2.489,2.158,8.44a29.4,29.4,0,0,1-1,7.374,39.122,39.122,0,0,0-1.681,11.048A19.328,19.328,0,0,0,236,136.316a12.213,12.213,0,0,0,4.634,4.548l6.123,3.535A12.193,12.193,0,0,1,242.356,139.983Z" transform="translate(-233.81 -69.193)" fill="#fff" opacity="0.4"/>
          <path id="Path_3024" data-name="Path 3024" d="M264.9,133.757c-10.538.113-16.549-2.648-19.3-7.447a19.26,19.26,0,0,1-2.191-9.824,39.006,39.006,0,0,1,1.681-11.048,29.7,29.7,0,0,0,1-7.374c0-5.958-2.158-8.433-2.158-8.433l4.018-10.876c7.057-1.814,13.147-9.175,16.953-16.5,3.8,2.932,9.89,3.263,16.946-3.072l4.025,6.236a30.623,30.623,0,0,0-2.158,10.922,17.741,17.741,0,0,0,1,6.222,21.765,21.765,0,0,1,1.675,9.109,36.408,36.408,0,0,1-2.211,12.352C281.466,111.965,275.436,121.709,264.9,133.757Z" transform="translate(-237.055 -55.519)" fill="#9676ff"/>
          <path id="Path_3025" data-name="Path 3025" d="M264.9,133.757c-10.538.113-16.549-2.648-19.3-7.447a19.26,19.26,0,0,1-2.191-9.824,39.006,39.006,0,0,1,1.681-11.048,29.7,29.7,0,0,0,1-7.374c0-5.958-2.158-8.433-2.158-8.433l4.018-10.876c7.057-1.814,13.147-9.175,16.953-16.5,3.8,2.932,9.89,3.263,16.946-3.072l4.025,6.236a30.623,30.623,0,0,0-2.158,10.922,17.741,17.741,0,0,0,1,6.222,21.765,21.765,0,0,1,1.675,9.109,36.408,36.408,0,0,1-2.211,12.352C281.466,111.965,275.436,121.709,264.9,133.757Z" transform="translate(-237.055 -55.519)" fill="#fff" opacity="0.75"/>
          <path id="Path_3026" data-name="Path 3026" d="M265.059,133.082c-8.155-.093-13.431-2.132-15.675-6.064a16.431,16.431,0,0,1-1.834-8.467,33.707,33.707,0,0,1,1.324-9.387l.258-.993a32.02,32.02,0,0,0,1.079-8.043,18.734,18.734,0,0,0-1.86-8.745l3.085-8.347c7.546-2.648,13-10.075,15.887-14.96a12.491,12.491,0,0,0,4.925.993,17.62,17.62,0,0,0,10.333-3.78l1.622,2.515A33.6,33.6,0,0,0,282.356,78.4a20.521,20.521,0,0,0,1.158,7.136c.079.238.172.477.258.722a18.251,18.251,0,0,1,1.264,7.474,33.8,33.8,0,0,1-2.046,11.459C280.324,113.018,274.28,122.4,265.059,133.082Z" transform="translate(-238.455 -57.585)" fill="#9676ff" opacity="0.75"/>
          <path id="Path_3027" data-name="Path 3027" d="M265.059,133.082c-8.155-.093-13.431-2.132-15.675-6.064a16.431,16.431,0,0,1-1.834-8.467,33.707,33.707,0,0,1,1.324-9.387l.258-.993a32.02,32.02,0,0,0,1.079-8.043,18.734,18.734,0,0,0-1.86-8.745l3.085-8.347c7.546-2.648,13-10.075,15.887-14.96a12.491,12.491,0,0,0,4.925.993,17.62,17.62,0,0,0,10.333-3.78l1.622,2.515A33.6,33.6,0,0,0,282.356,78.4a20.521,20.521,0,0,0,1.158,7.136c.079.238.172.477.258.722a18.251,18.251,0,0,1,1.264,7.474,33.8,33.8,0,0,1-2.046,11.459C280.324,113.018,274.28,122.4,265.059,133.082Z" transform="translate(-238.455 -57.585)" fill="#fff" opacity="0.4"/>
          <path id="Path_3028" data-name="Path 3028" d="M265.059,133.082c-8.155-.093-13.431-2.132-15.675-6.064a16.431,16.431,0,0,1-1.834-8.467,33.707,33.707,0,0,1,1.324-9.387l.258-.993a32.02,32.02,0,0,0,1.079-8.043,18.734,18.734,0,0,0-1.86-8.745l3.085-8.347c7.546-2.648,13-10.075,15.887-14.96a12.491,12.491,0,0,0,4.925.993,17.62,17.62,0,0,0,10.333-3.78l1.622,2.515A33.6,33.6,0,0,0,282.356,78.4a20.521,20.521,0,0,0,1.158,7.136c.079.238.172.477.258.722a18.251,18.251,0,0,1,1.264,7.474,33.8,33.8,0,0,1-2.046,11.459C280.324,113.018,274.28,122.4,265.059,133.082Z" transform="translate(-238.455 -57.585)" fill="#9676ff" opacity="0.15"/>
          <path id="Path_3029" data-name="Path 3029" d="M253.13,162c2.78,2.449,7.4,3.733,13.809,3.806l-4.091-2.33A29.788,29.788,0,0,1,253.13,162Z" transform="translate(-240.341 -90.276)" fill="#fff" opacity="0.8"/>
          <path id="Path_3030" data-name="Path 3030" d="M299.527,66.574l2.125,1.231L300.03,65.29l-.92.642Z" transform="translate(-255.884 -57.585)" fill="#9676ff" opacity="0.25"/>
          <path id="Path_3031" data-name="Path 3031" d="M281.423,84.613a20.521,20.521,0,0,1-1.158-7.129,33.654,33.654,0,0,1,1.847-10.591l-.41-.662a17.053,17.053,0,0,1-9.413,3.138,12.491,12.491,0,0,1-4.925-.993c-2.893,4.885-8.347,12.339-15.887,14.96l-3.085,8.347a18.734,18.734,0,0,1,1.86,8.745,32.02,32.02,0,0,1-1.059,8.063l-.258.993a33.708,33.708,0,0,0-1.324,9.387,16.431,16.431,0,0,0,1.834,8.467,9.221,9.221,0,0,0,2.648,2.886,27.409,27.409,0,0,0,10.889,1.953c9.228-10.691,15.272-20.071,17.966-27.889a33.958,33.958,0,0,0,2.006-11.465,18.25,18.25,0,0,0-1.264-7.474Z" transform="translate(-238.475 -57.903)" fill="#9676ff"/>
        </g>
        <path id="Path_3032" data-name="Path 3032" d="M276.35,120.143l-9.876,5.706L268,107.976c-1.185-.662-1.933-2.165-1.933-4.376,0-3.932,2.39-8.506,5.342-10.207s5.349.1,5.349,4.038a13.4,13.4,0,0,1-1.94,6.62Z" transform="translate(-244.715 -66.868)" fill="#9676ff"/>
        <path id="Path_3033" data-name="Path 3033" d="M276.35,120.143l-9.876,5.706L268,107.976c-1.185-.662-1.933-2.165-1.933-4.376,0-3.932,2.39-8.506,5.342-10.207s5.349.1,5.349,4.038a13.4,13.4,0,0,1-1.94,6.62Z" transform="translate(-244.715 -66.868)" opacity="0.25"/>
        <path id="Path_3034" data-name="Path 3034" d="M276.557,131.493l-8.95-5.163L266.68,137.2Z" transform="translate(-244.921 -78.218)" opacity="0.15"/>
        <path id="Path_3035" data-name="Path 3035" d="M271.814,93.391a11.6,11.6,0,0,0-4.554,6.044l7.944,4.634h0a13.405,13.405,0,0,0,1.94-6.62C277.163,93.491,274.767,91.684,271.814,93.391Z" transform="translate(-245.117 -66.867)" opacity="0.15"/>
      </g>
    </g>
    <g id="freepik--Key--inject-150" transform="translate(83.341 260.576)">
      <g id="freepik--key--inject-150-2" data-name="freepik--key--inject-150">
        <path id="Path_3036" data-name="Path 3036" d="M207.18,375.395c-9.89-5.706-25.909-5.706-35.8,0-4.137,2.39-6.732,3.972-7.4,7.109v3.23a10.194,10.194,0,0,0,3.072,6.97L122.7,415.1v3.217l4.971,2.866h13.9l5.455-3.144v-3.045l4.349-2.429,6.044-.53,2.41-1.39.245-5.4,4.468-2.582,6.547,1.483,8.526-4.925c9.175,2.2,20.137,1.152,27.6-3.158,4.958-2.86,7.427-6.62,7.414-10.366V382.5C214.144,379.148,211.6,377.963,207.18,375.395ZM201,384.662a11.253,11.253,0,0,1-10.141,0c-2.8-1.622-2.8-4.243,0-5.858a11.254,11.254,0,0,1,10.141,0c2.8,1.589,2.8,4.21.007,5.832Z" transform="translate(-122.693 -367.891)" fill="#9676ff"/>
        <path id="Path_3037" data-name="Path 3037" d="M207.18,375.395c-9.89-5.706-25.909-5.706-35.8,0-4.137,2.39-6.732,3.972-7.4,7.109v3.23a10.194,10.194,0,0,0,3.072,6.97L122.7,415.1v3.217l4.971,2.866h13.9l5.455-3.144v-3.045l4.349-2.429,6.044-.53,2.41-1.39.245-5.4,4.468-2.582,6.547,1.483,8.526-4.925c9.175,2.2,20.137,1.152,27.6-3.158,4.958-2.86,7.427-6.62,7.414-10.366V382.5C214.144,379.148,211.6,377.963,207.18,375.395ZM201,384.662a11.253,11.253,0,0,1-10.141,0c-2.8-1.622-2.8-4.243,0-5.858a11.254,11.254,0,0,1,10.141,0c2.8,1.589,2.8,4.21.007,5.832Z" transform="translate(-122.693 -367.891)" opacity="0.2"/>
        <path id="Path_3038" data-name="Path 3038" d="M207.18,370.525c-9.89-5.706-25.909-5.706-35.8,0-8.122,4.693-9.552,11.77-4.329,17.31L122.7,413.453l4.971,2.866h13.9l5.455-3.151-.371-2.84,4.72-2.648,6.044-.53,2.41-1.39.245-5.408,4.468-2.575,6.547,1.476,8.526-4.918c9.175,2.2,20.137,1.145,27.6-3.164C217.063,385.485,217.063,376.231,207.18,370.525ZM201,379.792a11.253,11.253,0,0,1-10.141,0c-2.8-1.615-2.8-4.237,0-5.852a11.174,11.174,0,0,1,10.141,0c2.8,1.589,2.8,4.21.007,5.825Z" transform="translate(-122.693 -366.245)" fill="#9676ff"/>
        <path id="Path_3039" data-name="Path 3039" d="M207.18,370.525c-9.89-5.706-25.909-5.706-35.8,0-8.122,4.693-9.552,11.77-4.329,17.31L122.7,413.453l4.971,2.866h13.9l5.455-3.151-.371-2.84,4.72-2.648,6.044-.53,2.41-1.39.245-5.408,4.468-2.575,6.547,1.476,8.526-4.918c9.175,2.2,20.137,1.145,27.6-3.164C217.063,385.485,217.063,376.231,207.18,370.525ZM201,379.792a11.253,11.253,0,0,1-10.141,0c-2.8-1.615-2.8-4.237,0-5.852a11.174,11.174,0,0,1,10.141,0c2.8,1.589,2.8,4.21.007,5.825Z" transform="translate(-122.693 -366.245)" fill="#fff" opacity="0.3"/>
        <path id="Path_3040" data-name="Path 3040" d="M211.841,394.047a33.55,33.55,0,0,1-16.443-3.886c-3.786-2.191-5.958-5.038-5.958-7.818s2.171-5.627,5.958-7.811a36.678,36.678,0,0,1,32.886,0c3.786,2.184,5.958,5.038,5.958,7.811s-2.171,5.627-5.958,7.818A33.55,33.55,0,0,1,211.841,394.047Zm0-22.507c-6.1,0-11.776,1.324-15.986,3.767-3.5,2.019-5.5,4.581-5.5,7.023s1.986,5,5.5,7.03c4.21,2.429,9.883,3.767,15.986,3.767s11.776-1.324,15.986-3.767c3.5-2.026,5.5-4.581,5.5-7.03s-1.986-5-5.5-7.023C223.617,372.864,217.938,371.54,211.841,371.54Z" transform="translate(-145.254 -367.731)" fill="#9676ff"/>
        <path id="Path_3041" data-name="Path 3041" d="M227.393,408.842v3.224a42.955,42.955,0,0,1-18.813-.139V408.71A42.857,42.857,0,0,0,227.393,408.842Z" transform="translate(-151.724 -380.6)" opacity="0.1"/>
        <path id="Path_3042" data-name="Path 3042" d="M192.4,415.386v3.224l-6.547-1.483V413.91Z" transform="translate(-144.04 -382.357)" opacity="0.1"/>
        <path id="Path_3043" data-name="Path 3043" d="M178.975,417.81v3.217l-.245,5.4v-3.217Z" transform="translate(-141.634 -383.676)" opacity="0.1"/>
        <path id="Path_3044" data-name="Path 3044" d="M172,428.07v3.217l-6.044.536V428.6Z" transform="translate(-137.317 -387.144)" opacity="0.1"/>
        <rect id="Rectangle_2351" data-name="Rectangle 2351" width="13.868" height="3.224" transform="translate(4.971 50.074)" opacity="0.1"/>
        <path id="Path_3045" data-name="Path 3045" d="M122.69,437.56v3.217l4.971,2.866v-3.217l-2.178-1.258v1.39l-1.2-.7v-1.4Z" transform="translate(-122.69 -390.352)" opacity="0.15"/>
        <path id="Path_3046" data-name="Path 3046" d="M125.09,438.92l1.2.708v1.39l-1.2-.7Z" transform="translate(-123.501 -390.812)" fill="#9676ff"/>
        <path id="Path_3047" data-name="Path 3047" d="M125.09,438.92l1.2.708v1.39l-1.2-.7Z" transform="translate(-123.501 -390.812)" fill="#fff" opacity="0.3"/>
        <path id="Path_3048" data-name="Path 3048" d="M125.09,425.862v1.4L170.58,401l-1.2-.708Z" transform="translate(-123.501 -377.753)" fill="#9676ff"/>
        <path id="Path_3049" data-name="Path 3049" d="M192,400.29v1.4l1.2-.7Z" transform="translate(-146.119 -377.753)" opacity="0.15"/>
      </g>
    </g>
    <g id="freepik--Character--inject-150" transform="translate(187.584 128.09)">
      <g id="freepik--character--inject-150-2" data-name="freepik--character--inject-150">
        <g id="freepik--Bottom--inject-150" transform="translate(0 98.775)">
          <path id="Path_3050" data-name="Path 3050" d="M336.29,381.929l-6.242-12.3-12.577,7.354,15.49,18.283s7.672-.708,8.91-4.713S338.4,383.26,336.29,381.929Z" transform="translate(-292.776 -333.678)" fill="#c8856a"/>
          <path id="Path_3051" data-name="Path 3051" d="M354.981,395.51a6.441,6.441,0,0,1,1.741,1.9c.51.755.351,4.4.834,6.083s.854,2.138,1.662,4.256c.894,2.343,2.549,4.488.662,10.519s-4.865,8.91-7.394,10.38a6.619,6.619,0,0,1-3.045.741s-3.31-1.251-2.807-3.211S354.981,395.51,354.981,395.51Z" transform="translate(-302.617 -342.426)" fill="#263238"/>
          <path id="Path_3052" data-name="Path 3052" d="M337.316,399.509a7.079,7.079,0,0,0,1.324,2.085,16.378,16.378,0,0,1,2.145,6.024c1.953,9.546-1.84,14.4,3.31,17.979,1.489.94,4.581.662,9.267-5.335,2.4-3.072,3.767-9.393,2.833-12.253s-2.218-4.726-2.82-6.924-.285-6.309-1.5-8.2a8.818,8.818,0,0,0-2.979-2.562c-.914-.556-2.906-1.284-3.833-1.814s-1.443-1.132-2.039-.457l1.072,1.324c1.675,2.323,1.2,2.648,1.165,3.892a19.6,19.6,0,0,0,.622,3.932c-1.192-1.5-1.675-2.813-2.979-2.582s-1.456.165-3.31,1.913S337.237,398.959,337.316,399.509Z" transform="translate(-299.482 -339.805)" fill="#455a64"/>
          <path id="Path_3053" data-name="Path 3053" d="M355.344,429.187c2.4-3.072,3.767-9.393,2.833-12.253a26.918,26.918,0,0,0-1.1-2.774c.04.192.093.391.119.556.06.371.113.741.146,1.112a8.546,8.546,0,0,1-.477,4.336c-.536,1.185-1.787,4.17-3.389,4.237-.914.04-1.681-.854-2.032-1.867-.146-.43-.391-1.589-.391-1.589a14,14,0,0,0-4.17,1.708c-2.33,1.536-2.251,1.88-2.251,1.88a6.134,6.134,0,0,1,.079,2.045,5.05,5.05,0,0,1-.867,2.032,3.039,3.039,0,0,1-.6.477,6.2,6.2,0,0,0,2.827,5.435C347.566,435.462,350.657,435.237,355.344,429.187Z" transform="translate(-301.491 -348.73)" fill="#37474f"/>
          <path id="Path_3054" data-name="Path 3054" d="M342.29,416.675a31.9,31.9,0,0,1,.6,7.632c.88,2.443,1.648,2.37,1.754,1.105s-1.582-6.52-2.84-10.863C341.992,415.265,342.151,415.993,342.29,416.675Z" transform="translate(-301.001 -348.862)" fill="#37474f"/>
          <path id="Path_3055" data-name="Path 3055" d="M349.488,392.316a5.342,5.342,0,0,0-.933-3.5c-.232-.106-.444-.212-.616-.311-1.006-.569-1.443-1.132-2.039-.457l1.072,1.324c1.675,2.323,1.2,2.648,1.165,3.892a19.609,19.609,0,0,0,.622,3.932c.973,4.144,1.86,5.527,2.323,9.446s-.324,6.54.225,6.765,1.668-.225,1.873-3.363-1.185-8.407-2.158-10.9S349.276,393.984,349.488,392.316Z" transform="translate(-302.387 -339.801)" fill="#37474f"/>
          <path id="Path_3056" data-name="Path 3056" d="M351.813,424.482a.424.424,0,0,1-.2.113,9.353,9.353,0,0,0-6.256,3.667.4.4,0,0,1-.549.04.391.391,0,0,1-.046-.549,10.179,10.179,0,0,1,6.692-3.925.4.4,0,0,1,.463.3A.391.391,0,0,1,351.813,424.482Z" transform="translate(-301.971 -351.996)" fill="#ebebeb"/>
          <path id="Path_3057" data-name="Path 3057" d="M350.872,419.531a.4.4,0,0,1-.192.113,10.705,10.705,0,0,0-6.62,3.972.384.384,0,0,1-.563.046.4.4,0,0,1-.046-.569,11.265,11.265,0,0,1,7.023-4.256.4.4,0,0,1,.371.662Z" transform="translate(-301.526 -350.308)" fill="#ebebeb"/>
          <path id="Path_3058" data-name="Path 3058" d="M350.551,414.076a.444.444,0,0,1-.218.119,11.938,11.938,0,0,0-7.368,4.5.441.441,0,1,1-.669-.576,12.821,12.821,0,0,1,7.838-4.786.443.443,0,0,1,.53.331.457.457,0,0,1-.113.41Z" transform="translate(-301.133 -348.448)" fill="#ebebeb"/>
          <path id="Path_3059" data-name="Path 3059" d="M349.806,409.462a.4.4,0,0,1-.212.119,11.583,11.583,0,0,0-7.2,4.389.437.437,0,1,1-.662-.563,12.256,12.256,0,0,1,7.672-4.634.424.424,0,0,1,.516.324A.43.43,0,0,1,349.806,409.462Z" transform="translate(-300.931 -346.905)" fill="#ebebeb"/>
          <path id="Path_3060" data-name="Path 3060" d="M348.167,404.925a.424.424,0,0,1-.212.119,11.623,11.623,0,0,0-7.2,4.4.437.437,0,0,1-.662-.563,12.469,12.469,0,0,1,7.666-4.673.43.43,0,0,1,.41.722Z" transform="translate(-300.398 -345.36)" fill="#ebebeb"/>
          <path id="Path_3061" data-name="Path 3061" d="M334.276,389.7l-8.136,6.653-4.6,2.886,5.249,9.929,14.8-7.083Z" transform="translate(-294.152 -340.462)" fill="#c8856a"/>
          <path id="Path_3062" data-name="Path 3062" d="M337.893,320.145s-29.61-4.912-42.28-4.826c-12.928.079-14.126,9.784-10.889,15.728,6.2,11.386,27.73,35.528,27.73,35.528s7.235-3.31,9.459-9.572l-4.918-11.253,15.463,4.952,7.891-5.3.662-4.031Z" transform="translate(-281.193 -315.318)" fill="#9676ff"/>
          <path id="Path_3063" data-name="Path 3063" d="M337.893,320.145s-29.61-4.912-42.28-4.826c-12.928.079-14.126,9.784-10.889,15.728,6.2,11.386,27.73,35.528,27.73,35.528s7.235-3.31,9.459-9.572l-4.918-11.253,15.463,4.952,7.891-5.3.662-4.031Z" transform="translate(-281.193 -315.318)" opacity="0.4"/>
          <path id="Path_3064" data-name="Path 3064" d="M354.427,322.61l51.249,8.533s.51,12.266-4.316,23.255a25.055,25.055,0,0,1-19.2,14.643,142.323,142.323,0,0,1-15.5,1.258,38.561,38.561,0,0,1-8.1,4.773c-4.058,1.615-21.885,9.1-21.885,9.1s-5.018-4.243-4.521-13.087l16.86-17.926c3.813-4.634,5.15-6.156,7.282-7.2C353.011,339.662,354.063,329.534,354.427,322.61Z" transform="translate(-297.728 -317.783)" fill="#9676ff"/>
          <path id="Path_3065" data-name="Path 3065" d="M354.427,322.61l51.249,8.533s.51,12.266-4.316,23.255a25.055,25.055,0,0,1-19.2,14.643,142.323,142.323,0,0,1-15.5,1.258,38.561,38.561,0,0,1-8.1,4.773c-4.058,1.615-21.885,9.1-21.885,9.1s-5.018-4.243-4.521-13.087l16.86-17.926c3.813-4.634,5.15-6.156,7.282-7.2C353.011,339.662,354.063,329.534,354.427,322.61Z" transform="translate(-297.728 -317.783)" opacity="0.3"/>
          <g id="Group_2303" data-name="Group 2303" transform="translate(23.303 11.758)" opacity="0.3">
            <path id="Path_3066" data-name="Path 3066" d="M325.293,342.149A111.5,111.5,0,0,1,331.82,353l-3.972-1.258c-4.448-10.591-5.362-13.7-12.478-18.661C315.39,333.08,320.494,335.013,325.293,342.149Z" transform="translate(-315.37 -333.08)"/>
            <path id="Path_3067" data-name="Path 3067" d="M371.553,385.67s.06,2.6-3.78,5.958a38.559,38.559,0,0,1-8.1,4.773c-4.051,1.6-21.878,9.082-21.878,9.082s-.973-.45-2.363-3.072c4.634-1.092,19.819-7.043,24.731-9.122C368.905,389.582,371.553,385.67,371.553,385.67Z" transform="translate(-322.151 -350.857)"/>
            <path id="Path_3068" data-name="Path 3068" d="M358.894,355.891c-1.728,2.026-2.549,3.005-2.549,3.005l-2.476-.814s4.389-4.773,7.215-7.282a9.269,9.269,0,0,1,1.622-1.271c-1.43-3.753-1.377-9.929-1.377-9.929a19.766,19.766,0,0,0,3.74,9,16.364,16.364,0,0,1,7.116-.079c4.958.827,19.329,3.277,19.329,3.277s-13.775-1.244-20.945-1.522S360.622,353.865,358.894,355.891Z" transform="translate(-328.384 -335.284)"/>
          </g>
          <path id="Path_3069" data-name="Path 3069" d="M288.9,411.92c-3.482,1.377-5.627,2.754-7.235,4.859s-2.105,4.23-.576,6.778,4.336,5.534,7.672,5.342a18.024,18.024,0,0,0,8.48-2.7Z" transform="translate(-280.166 -347.973)" fill="#263238"/>
          <path id="Path_3070" data-name="Path 3070" d="M317.641,410.659c.053,1.046-4.349,3.124-8.917,5.3-4.9,2.337-6.1,3.859-10.1,5.825-4.568,2.251-6.3,2.383-9.85,1.4s-7.944-6.064-4.872-10.73c2.482-3.8,5.7-4.846,10.591-6.13a92.124,92.124,0,0,0,11.419-3.694c3.528-1.37,6.434-3.826,7.162-2.972-.5.238-4.19,2.515-3.5,3.138.172.318.7.218,1.6-.159a1.562,1.562,0,0,1,1.264-.06,2.4,2.4,0,0,1,.914,1.1,25.528,25.528,0,0,1,1.105,2.793c.271.662.159.271.417.927a7.123,7.123,0,0,1,.755,2.5c-.04.4-.338.53-.662.728s-.741.437-1.039.662c-.113.086-.324.391-.258.543s.748.132,1.013,0,.708-.218,1.033-.338S316.833,411.036,317.641,410.659Z" transform="translate(-281.078 -343.766)" fill="#455a64"/>
          <path id="Path_3071" data-name="Path 3071" d="M300.157,424.546c-.662.331-4.806,2.257-6.1,1.106-1.41-1.251,1.913-3.25,1.913-3.25s.51-3.124-3.263-7.732c-.662.51-3.383.483-3.35-1.119s4.634-3.575,4.673-3.6c-4.673,1.251-7.752,2.323-10.161,6.017-3.045,4.667,1.324,9.744,4.872,10.73s5.3.854,9.85-1.4A9.073,9.073,0,0,0,300.157,424.546Z" transform="translate(-281.071 -347.307)" fill="#37474f"/>
          <path id="Path_3072" data-name="Path 3072" d="M301.584,424.257c-1.728.576-.543,2.151,1.986,1.642,3.793-.768,6.951-2.919,11.174-4.256,4.568-2.178,9.221-4.21,8.923-5.362-.814.3-2.568,1.033-2.568,1.033-.338.146-1.225.477-1.225.477-3.462,1.5-7.282,3.9-11.042,4.918C305.555,423.6,303.338,423.681,301.584,424.257Z" transform="translate(-287.131 -349.447)" fill="#37474f"/>
          <path id="Path_3073" data-name="Path 3073" d="M297.464,411.7c1.582-.914,1.853-1.7,4.958-3.124s8.354-4.475,11.6-6.368a42.357,42.357,0,0,0,3.522-2.6c-.536-.616-2.515-.053-4.495,1.2s-3.184,2.039-5.143,3.065c-3.813,2.29-8.155,3.833-10.333,5.236S295.875,412.623,297.464,411.7Z" transform="translate(-285.553 -343.724)" fill="#37474f"/>
          <path id="Path_3074" data-name="Path 3074" d="M297.781,417.083a.489.489,0,0,0,.093.146,13.789,13.789,0,0,1,2.959,7.659.463.463,0,0,0,.437.43.384.384,0,0,0,.351-.444,14.538,14.538,0,0,0-3.224-8.248.371.371,0,0,0-.556,0A.444.444,0,0,0,297.781,417.083Z" transform="translate(-286.108 -349.522)" fill="#f0f0f0"/>
          <path id="Path_3075" data-name="Path 3075" d="M302.417,413.7a.5.5,0,0,0,.079.126,18.906,18.906,0,0,1,3.667,9.049.457.457,0,0,0,.444.41.377.377,0,0,0,.338-.457,19.514,19.514,0,0,0-3.906-9.579.371.371,0,0,0-.556-.04A.45.45,0,0,0,302.417,413.7Z" transform="translate(-287.673 -348.371)" fill="#f0f0f0"/>
          <path id="Path_3076" data-name="Path 3076" d="M310.7,421.652a.45.45,0,0,0,.364.278.384.384,0,0,0,.384-.417c-.185-5.547-3.76-10.75-3.925-10.929a.364.364,0,0,0-.556,0,.477.477,0,0,0,.033.616c.04.04,3.5,5.124,3.654,10.287a.588.588,0,0,0,.046.165Z" transform="translate(-289.194 -347.478)" fill="#f0f0f0"/>
          <path id="Path_3077" data-name="Path 3077" d="M314.944,419.2a.424.424,0,0,0,.357.271.371.371,0,0,0,.391-.4,16.357,16.357,0,0,0-4.137-10.38.371.371,0,0,0-.556,0,.477.477,0,0,0,.073.616,15.709,15.709,0,0,1,3.826,9.671A.661.661,0,0,0,314.944,419.2Z" transform="translate(-290.562 -346.841)" fill="#f0f0f0"/>
          <path id="Path_3078" data-name="Path 3078" d="M320.385,416.835a.437.437,0,0,0,.351.271.364.364,0,0,0,.391-.4c0-5.766-4.078-10.234-4.263-10.413a.364.364,0,0,0-.549,0,.47.47,0,0,0,.053.616c.04.04,3.972,4.362,3.972,9.718A.484.484,0,0,0,320.385,416.835Z" transform="translate(-292.355 -346.03)" fill="#ebebeb"/>
        </g>
        <g id="freepik--Top--inject-150" transform="translate(5.675)">
          <g id="freepik--Arm--inject-150" transform="translate(0.057 43.509)">
            <path id="Path_3079" data-name="Path 3079" d="M339.144,248.267c-2.443,3.654-11.743,16.357-11.743,16.357-2.721-3.144-5.958-7.017-8.678-10.373-3.6-4.4-5.031-5.3-6.944-12.18a20.759,20.759,0,0,0-2.423-4.713,14.94,14.94,0,0,1-1.814-5.077c-.1-.88-2.35-.629-2.767,2.211-.278,1.463.205,2.906.205,4.356,0,.444.245,1.377-.311,1.324-3.356-.483-5.825-4.3-9.837-7-1.45-.966-5.157-1.986-5.958.132-.066.51.3.861.437,1.324a.569.569,0,0,1,0,.185,2.9,2.9,0,0,1-.066.662c-.093.424-.271.821-.357,1.244a3.065,3.065,0,0,0,.225,1.913,7.728,7.728,0,0,1,.662,1.324,4.852,4.852,0,0,0,.357,2.648,10.386,10.386,0,0,0,1.278,2.045,7.281,7.281,0,0,1,.662,1.43,8.368,8.368,0,0,0,1.635,2.165,33.707,33.707,0,0,0,7.282,6.1c1.238.722,2.555,1.324,3.727,2.165a11.023,11.023,0,0,1,2.31,2.2,24.173,24.173,0,0,1,2.112,3.449v.066c5.375,9.327,5.852,12.769,11.512,20.157,4.779,5.911,8.109,3.4,15.324-3.548,8.87-8.546,13.617-13.464,13.617-13.464l2.237-28.4C346.585,238.721,341.594,244.613,339.144,248.267Z" transform="translate(-288.825 -231.831)" fill="#c8856a"/>
            <path id="Path_3080" data-name="Path 3080" d="M312.947,248a9.592,9.592,0,0,0,2.482,8.241C312.364,255.421,311.126,251.469,312.947,248Z" transform="translate(-296.692 -237.296)" fill="#af6152"/>
            <path id="Path_3081" data-name="Path 3081" d="M367.852,238.26c-4.925.834-8.758,2.78-14.954,10.975s-12.187,17.125-12.187,17.125l-4.985-5.455c1.582.914,1.324,7.9-1.238,11.061a10.764,10.764,0,0,1-6.289,3.674,69.091,69.091,0,0,0,4.839,7.99c2.535,3.475,4.157,4.362,6.328,4.362s4.554-1.251,10.221-6.62,14.662-13.981,14.662-13.981Z" transform="translate(-302.135 -234.004)" fill="#9676ff"/>
            <path id="Path_3082" data-name="Path 3082" d="M367.852,238.26c-4.925.834-8.758,2.78-14.954,10.975s-12.187,17.125-12.187,17.125l-4.985-5.455c1.582.914,1.324,7.9-1.238,11.061a10.764,10.764,0,0,1-6.289,3.674,69.091,69.091,0,0,0,4.839,7.99c2.535,3.475,4.157,4.362,6.328,4.362s4.554-1.251,10.221-6.62,14.662-13.981,14.662-13.981Z" transform="translate(-302.135 -234.004)" fill="#fff" opacity="0.55"/>
            <path id="Path_3083" data-name="Path 3083" d="M347.1,279.966c2.648,2.913,4.495,7.99,4.309,10.591,1.105-3.065,0-8.281-3.31-12.048Z" transform="translate(-308.524 -247.61)" fill="#9676ff" opacity="0.35"/>
            <path id="Path_3084" data-name="Path 3084" d="M331.436,295.681a10.661,10.661,0,0,0,1.814-.563,10.135,10.135,0,0,0,3.224-2.105,11.168,11.168,0,0,0,3.31-6.434c0-.126.152-.086.146,0a10.333,10.333,0,0,1-3.263,7.023,11.187,11.187,0,0,1-3.409,2.125,11.53,11.53,0,0,1-1.562.483l-.324-.543Z" transform="translate(-303.207 -250.31)" fill="#9676ff" opacity="0.35"/>
          </g>
          <g id="freepik--Chest--inject-150" transform="translate(49.846)">
            <path id="Path_3085" data-name="Path 3085" d="M372.975,255.3c.662-13.762,3.8-17.562,10.783-18.336l11.518-1.211c3.422.7,15.185,4.448,19.144,5.825,2.555.88,3.654,6.3,4.2,14.788.45,6.891.516,12.67.285,22.2-.185,7.99-.384,17.085-2.82,28.186-9.539,3.614-37.07.165-48.072-12.418.88-2.846,4.409-7.99,4.965-13.709C372.637,268.636,372.763,259.62,372.975,255.3Z" transform="translate(-365.382 -189.647)" fill="#263238"/>
            <path id="Path_3086" data-name="Path 3086" d="M427.669,242.732l-8.606-3.032s-1.556,3.621-4.892,10.591-3.449,10.088-3.76,22.2-2.529,33.389-3.972,38.3c5.335.741,9.929,8.473,23.659,6.077,0,0,2.88-14.02,3.31-37.911C433.667,266.543,433.733,246.227,427.669,242.732Z" transform="translate(-378.373 -190.982)" fill="#9676ff"/>
            <path id="Path_3087" data-name="Path 3087" d="M427.669,242.732l-8.606-3.032s-1.556,3.621-4.892,10.591-3.449,10.088-3.76,22.2-2.529,33.389-3.972,38.3c5.335.741,9.929,8.473,23.659,6.077,0,0,2.88-14.02,3.31-37.911C433.667,266.543,433.733,246.227,427.669,242.732Z" transform="translate(-378.373 -190.982)" fill="#fff" opacity="0.35"/>
            <path id="Path_3088" data-name="Path 3088" d="M413.17,259.608c1.324-10.869,5.9-11.432,6.951-7.864a21.913,21.913,0,0,0,4.058-13.034c-1.079-1.867-1.92-3.436-2.277-4.144-.477-.927-1.019-.735-1.019-.735l-.033,2.76a18.969,18.969,0,0,1-3.879,7.156C414.58,246.687,413.719,250.44,413.17,259.608Z" transform="translate(-380.648 -188.993)" fill="#9676ff"/>
            <path id="Path_3089" data-name="Path 3089" d="M413.17,259.608c1.324-10.869,5.9-11.432,6.951-7.864a21.913,21.913,0,0,0,4.058-13.034c-1.079-1.867-1.92-3.436-2.277-4.144-.477-.927-1.019-.735-1.019-.735l-.033,2.76a18.969,18.969,0,0,1-3.879,7.156C414.58,246.687,413.719,250.44,413.17,259.608Z" transform="translate(-380.648 -188.993)" fill="#fff" opacity="0.55"/>
            <path id="Path_3090" data-name="Path 3090" d="M388.725,237.5c-4.9,1.906-8.493,7.348-9.651,14.874s-2.1,26.737-2.913,32.436-4.442,15.583-4.442,15.583-6.017-2.476-7.679-7.2c2.767-3.608,5.335-8.606,5.812-13.358s.04-19.826.755-25.6,1.324-13.749,8.169-16.417c2.946-1.152,9.9-1.6,9.9-1.6Z" transform="translate(-364.04 -189.806)" fill="#9676ff"/>
            <path id="Path_3091" data-name="Path 3091" d="M388.725,237.5c-4.9,1.906-8.493,7.348-9.651,14.874s-2.1,26.737-2.913,32.436-4.442,15.583-4.442,15.583-6.017-2.476-7.679-7.2c2.767-3.608,5.335-8.606,5.812-13.358s.04-19.826.755-25.6,1.324-13.749,8.169-16.417c2.946-1.152,9.9-1.6,9.9-1.6Z" transform="translate(-364.04 -189.806)" fill="#fff" opacity="0.35"/>
            <path id="Path_3092" data-name="Path 3092" d="M384.364,255.906c.662-5.534,3.82-15.444,9.817-17.463a4.76,4.76,0,0,0,.357-1.754l-.053-2.88a24.494,24.494,0,0,0-5.117,2.5c-2.588,1.675-7.057,7.023-8.208,11.333C383.7,245.434,384.761,249.022,384.364,255.906Z" transform="translate(-369.827 -188.991)" fill="#9676ff"/>
            <path id="Path_3093" data-name="Path 3093" d="M384.364,255.906c.662-5.534,3.82-15.444,9.817-17.463a4.76,4.76,0,0,0,.357-1.754l-.053-2.88a24.494,24.494,0,0,0-5.117,2.5c-2.588,1.675-7.057,7.023-8.208,11.333C383.7,245.434,384.761,249.022,384.364,255.906Z" transform="translate(-369.827 -188.991)" fill="#fff" opacity="0.55"/>
            <g id="freepik--Head--inject-150" transform="translate(9.167)">
              <path id="Path_3094" data-name="Path 3094" d="M408.916,206.62c.662-3.872,4.548-7.9,6.3-11.253,1.688-3.25,2.7-5.772,2.529-8.837-.106-1.814-1.238-4.276-2.582-4.8a8.421,8.421,0,0,0-6.136-10.538,28.957,28.957,0,0,1-3.714-1.059c-1.456-.616-1.781-1.794-2.952-2.8-2.019-1.728-5.435-1.787-6.745.814-1.324-1.754-3.171-1.714-5.3-1.192a3.608,3.608,0,0,0-2.787,4.071c-2.82-1.6-5.428.384-5.693,2.045-.2,1.225.06,2.264-.748,3.356-.914,1.238-2.648,1.2-3.138.205-.3,1.741.377,3.072,2.264,2.985a3.972,3.972,0,0,0-.51,3.31,3.621,3.621,0,0,0,3.257,2.509,6.063,6.063,0,0,0,.827,2.648,6.282,6.282,0,0,0,2.211,2.019c2.853,1.377,6.017,1.834,9.1,2.489l3.654.775c.212.046,1.324.119,1.443.3Z" transform="translate(-377.888 -166.104)" fill="#263238"/>
              <path id="Path_3095" data-name="Path 3095" d="M415.61,208a3.754,3.754,0,0,1-4.568-.152l-.159,12.716c-2.151,5.455-10.77,8.182-15.563,8.023a15.668,15.668,0,0,1,.066-8.414l-.053-3.5a36.926,36.926,0,0,1-4.634-.225c-3.032-.43-5.3-2.906-6.156-6.2a34.091,34.091,0,0,1-.311-13.041,11.252,11.252,0,0,0,.179-3.191,15,15,0,0,1,.98-6.838c3.356-2.648,11.094-3.555,18.283.861-.854,4.29.794,7.7,3.912,9.347-.152,1.158-.311,4.084,1.589,4.038,1.377-.033,1.476-1.754,2.893-3.263s4.7-1.9,5.958.344A7.363,7.363,0,0,1,415.61,208Z" transform="translate(-379.869 -172.477)" fill="#c8856a"/>
              <path id="Path_3096" data-name="Path 3096" d="M401.25,227.647c4.819-.543,8.48-1.053,11.008-4.528a30,30,0,0,0,2.932-5.7,23.441,23.441,0,0,1-2.1,7.149c-1.225,2.224-4.263,4.064-11.823,4.68Z" transform="translate(-385.785 -183.45)" fill="#af6152"/>
              <path id="Path_3097" data-name="Path 3097" d="M404.91,203.96a1.357,1.357,0,1,0,1.324-1.43,1.39,1.39,0,0,0-1.324,1.43Z" transform="translate(-387.022 -178.417)" fill="#263238"/>
              <path id="Path_3098" data-name="Path 3098" d="M405.5,197.451l3.065,1.264a1.748,1.748,0,0,0-.933-2.224,1.628,1.628,0,0,0-2.132.96Z" transform="translate(-387.222 -176.337)" fill="#263238"/>
              <path id="Path_3099" data-name="Path 3099" d="M387.8,198.089l3.131-1.145a1.6,1.6,0,0,0-2.085-1.026A1.748,1.748,0,0,0,387.8,198.089Z" transform="translate(-381.209 -176.148)" fill="#263238"/>
              <path id="Path_3100" data-name="Path 3100" d="M388.994,203.274a1.324,1.324,0,1,0,1.211-1.536,1.37,1.37,0,0,0-1.211,1.536Z" transform="translate(-381.639 -178.148)" fill="#263238"/>
              <path id="Path_3101" data-name="Path 3101" d="M391.89,207.906l4.707,2.112,1.489-9.267C396.332,200.141,394.061,204.384,391.89,207.906Z" transform="translate(-382.621 -177.796)" fill="#af6152"/>
              <path id="Path_3102" data-name="Path 3102" d="M402.78,217.71,397.1,218.9a2.847,2.847,0,0,0,3.376,2.337,3.045,3.045,0,0,0,2.3-3.528Z" transform="translate(-384.382 -183.549)" fill="#af6152"/>
              <path id="Path_3103" data-name="Path 3103" d="M403.342,219.09a3.106,3.106,0,0,1,.7,0,3.012,3.012,0,0,1-2.317,2.595,2.92,2.92,0,0,1-.927,0A2.648,2.648,0,0,1,403.342,219.09Z" transform="translate(-385.633 -184.008)" fill="#ffa8a7"/>
            </g>
          </g>
          <g id="freepik--arm--inject-150-2" data-name="freepik--arm--inject-150" transform="translate(0 51.75)">
            <g id="freepik--Laptop--inject-150" transform="translate(0 32.714)">
              <path id="Path_3104" data-name="Path 3104" d="M316.88,350.519a8.891,8.891,0,0,1,1.383-1.622c5.3-4.9,15.225-11.379,23.7-16.768l38.453,22.209a.357.357,0,0,1,0,.616L352.487,371.1Z" transform="translate(-298.252 -306.691)" opacity="0.15"/>
              <path id="Path_3105" data-name="Path 3105" d="M299.27,342.85v.622a2.562,2.562,0,0,0,1.278,2.218l44.709,25.817a2.6,2.6,0,0,0,1.278.338,2.562,2.562,0,0,0,1.284-.344l24.374-14.027a2.555,2.555,0,0,0,1.271-2.211V354.4h0a.331.331,0,0,1-.165.285l-26.763,15.457Z" transform="translate(-292.3 -310.314)" fill="#37474f"/>
              <path id="Path_3106" data-name="Path 3106" d="M346.531,370.143v1.7a2.6,2.6,0,0,1-1.278-.338L300.544,345.69a2.562,2.562,0,0,1-1.284-2.218v-.622Z" transform="translate(-292.296 -310.314)" fill="#263238"/>
              <path id="Path_3107" data-name="Path 3107" d="M299.26,334.931l26.512-15.3a1.536,1.536,0,0,1,1.529,0l45.993,26.558a.344.344,0,0,1,0,.589l-26.763,15.45Z" transform="translate(-292.296 -302.395)" fill="#455a64"/>
              <path id="Path_3108" data-name="Path 3108" d="M349.649,364.14l14.3-8.248-41.81-24.142-14.378,8.208Z" transform="translate(-295.169 -306.562)" fill="#37474f"/>
              <path id="Path_3109" data-name="Path 3109" d="M307.76,339.958l.549.311,13.828-7.891L363.4,356.21l.549-.318-41.81-24.142Z" transform="translate(-295.169 -306.562)" fill="#263238"/>
              <path id="Path_3110" data-name="Path 3110" d="M371.448,342.271l-.265.152-7.01,4.045-12.465-7.2-.258-.146,7.275-4.2Z" transform="translate(-309.938 -307.637)" fill="#263238"/>
              <path id="Path_3111" data-name="Path 3111" d="M371.315,342.576l-7.01,4.045-12.465-7.2,7.017-4.045Z" transform="translate(-310.07 -307.789)" fill="#37474f"/>
              <g id="freepik--arm--inject-150-3" data-name="freepik--arm--inject-150" transform="translate(46.428 13.881)">
                <path id="Path_3112" data-name="Path 3112" d="M359.872,338.468c2.244-2.224,5.494-5.3,8.228-6.209a15.223,15.223,0,0,1,1.926-.6,22.5,22.5,0,0,1-2.813-.556,4.971,4.971,0,0,1-2.37-1.575c-.238-.3-.41-.794-.106-1.039a.662.662,0,0,1,.391-.146c2.045-.06,3.661-.377,5.521-.516a7.944,7.944,0,0,1,2.509.046c.761.212,1.523.43,2.271.662,3.4,1.178,6.62.861,11.306-1.284s21.606-12.577,21.606-12.577l-3.588,19.859-13.358,5.19h0l-.139.053a32.791,32.791,0,0,1-4.587,2.019c-3.032.927-6.9-.172-9.539-.311s-7.116,1.079-9.565,2.065-5.368-2.767-6.62-2.317S357.634,340.705,359.872,338.468Z" transform="translate(-358.876 -314.67)" fill="#c8856a"/>
                <path id="Path_3113" data-name="Path 3113" d="M374.317,337.92a9.188,9.188,0,0,1,3.727.609,20.039,20.039,0,0,0-4.859.841,22.51,22.51,0,0,1-2.813-.556,5.2,5.2,0,0,1-2.151-1.324C369.69,338.49,372.543,338.106,374.317,337.92Z" transform="translate(-362.035 -322.384)" fill="#af6152"/>
              </g>
              <path id="Path_3114" data-name="Path 3114" d="M342.253,354.146a3.038,3.038,0,0,1-2.608-.2l-44.517-25.7a3.025,3.025,0,0,1-1.47-2.118l-4.879-29.067a3.138,3.138,0,0,1-.04-.5,3.045,3.045,0,0,1,.894-2.151l46.278,26.717A2.231,2.231,0,0,1,337,322.689Z" transform="translate(-288.74 -293.94)" fill="#263238"/>
              <path id="Path_3115" data-name="Path 3115" d="M343.418,353.528l-.3.179a4.033,4.033,0,0,1-.417.2l-5.3-31.456a2.231,2.231,0,0,0-1.086-1.562L290.05,294.17a3.2,3.2,0,0,1,.622-.47l46.337,26.763a2.25,2.25,0,0,1,1.086,1.569Z" transform="translate(-289.183 -293.7)" fill="#455a64"/>
              <path id="Path_3116" data-name="Path 3116" d="M361,335.45l.715-.41a2.2,2.2,0,0,1,.424.966l5.3,31.5-.3.179a4.026,4.026,0,0,1-.417.2l-5.3-31.457A2.257,2.257,0,0,0,361,335.45Z" transform="translate(-313.167 -307.674)" fill="#37474f"/>
              <path id="Path_3117" data-name="Path 3117" d="M327.705,340.837c-.331-1.946-2.337-4.528-4.488-5.772s-3.634-.662-3.31,1.271,2.337,4.534,4.488,5.772S328.03,342.784,327.705,340.837Z" transform="translate(-299.261 -307.461)" fill="#9676ff"/>
            </g>
            <path id="Path_3118" data-name="Path 3118" d="M414,300.413c7.129-5.163,13-9.267,13-9.267l-2.039-21.911s-1.542-10.836.9-16.973c2.535-6.361,5.038-7.282,5.038-7.282a24.877,24.877,0,0,1,6.9,3.872c2.76,2.416,4.078,8.03,4.746,15.947.583,6.951,1.681,24.38,1.854,28.464.225,5.163,0,9.307-5.481,11.8-5.766,2.648-23.05,8.539-23.05,8.539Z" transform="translate(-331.082 -244.517)" fill="#c8856a"/>
            <path id="Path_3119" data-name="Path 3119" d="M432.432,244.28c5.607,1.794,8.466,2.827,10.836,9.393s2.284,18.628,3.005,28.292,1.258,15.973-.291,19.025c-.847,1.675-2.4,3.211-7.944,5.3s-10.889,3.972-10.889,3.972-.53-8.539-6.62-14.285l8.367-5.091s-1.926-19.733-2.39-25.155S425.475,248.953,432.432,244.28Z" transform="translate(-333.29 -244.28)" fill="#9676ff"/>
            <path id="Path_3120" data-name="Path 3120" d="M432.432,244.28c5.607,1.794,8.466,2.827,10.836,9.393s2.284,18.628,3.005,28.292,1.258,15.973-.291,19.025c-.847,1.675-2.4,3.211-7.944,5.3s-10.889,3.972-10.889,3.972-.53-8.539-6.62-14.285l8.367-5.091s-1.926-19.733-2.39-25.155S425.475,248.953,432.432,244.28Z" transform="translate(-333.29 -244.28)" fill="#fff" opacity="0.55"/>
            <path id="Path_3121" data-name="Path 3121" d="M433.048,313.505c3.27-1.542,9.771-.152,11.161,1.019-1.655-2.86-6.077-3.886-11.379-3.224Z" transform="translate(-337.448 -266.87)" fill="#9676ff" opacity="0.35"/>
            <path id="Path_3122" data-name="Path 3122" d="M429.926,323.713a7.858,7.858,0,0,1,2.383,2.833,13.9,13.9,0,0,1,1.324,3.31,17.755,17.755,0,0,1,.563,4.084,17.527,17.527,0,0,1,0,1.767l-.622.225a17.21,17.21,0,0,0-.483-5.865,15.341,15.341,0,0,0-1.324-3.277,31.278,31.278,0,0,0-1.986-2.946C429.8,323.813,429.813,323.654,429.926,323.713Z" transform="translate(-336.417 -271.127)" fill="#9676ff" opacity="0.35"/>
          </g>
        </g>
      </g>
    </g>
    <g id="freepik--speech-bubble--inject-150" transform="translate(264.083 57.175)">
      <g id="freepik--speech-bubble--inject-150-2" data-name="freepik--speech-bubble--inject-150">
        <g id="freepik--speech-bubble--inject-150-3" data-name="freepik--speech-bubble--inject-150">
          <path id="Path_3123" data-name="Path 3123" d="M415.63,130.9l2.985-5.607-2.4-6.924V114.13l7.341,4.237v4.243l-3.158,5.461a.457.457,0,0,1-.212.192h0Z" transform="translate(-402.457 -77.619)" fill="#9676ff"/>
          <path id="Path_3124" data-name="Path 3124" d="M415.63,130.9l2.985-5.607-2.4-6.924V114.13l7.341,4.237v4.243l-3.158,5.461a.457.457,0,0,1-.212.192h0Z" transform="translate(-402.457 -77.619)" opacity="0.3"/>
          <path id="Path_3125" data-name="Path 3125" d="M395.73,64.347a4.866,4.866,0,0,1,2.2-3.806l1.794-1.039a4.866,4.866,0,0,1,4.4,0L426.452,72.37a4.865,4.865,0,0,1,2.2,3.833v30.238a4.872,4.872,0,0,1-2.2,3.813l-1.794,1.033a4.865,4.865,0,0,1-4.4,0l-8.036-4.634-3.151,5.455a.47.47,0,0,1-.854-.079l-3.31-9.612-6.964-3.972a4.872,4.872,0,0,1-2.2-3.813Z" transform="translate(-395.73 -58.975)" fill="#9676ff"/>
          <path id="Path_3126" data-name="Path 3126" d="M441.366,114.093a4.872,4.872,0,0,1-2.2,3.813l-1.794,1.059a4.925,4.925,0,0,1-4.025.179c1.039.391,1.827-.192,1.827-1.45V87.436a4.522,4.522,0,0,0-.662-2.171l6.2-3.575a4.488,4.488,0,0,1,.662,2.165Z" transform="translate(-408.447 -66.653)" opacity="0.3"/>
          <path id="Path_3127" data-name="Path 3127" d="M395.84,63.727c.258-.933,1.105-1.231,2.125-.662l22.328,12.869a4.382,4.382,0,0,1,1.556,1.642L428.038,74a4.528,4.528,0,0,0-1.549-1.642L404.168,59.5a4.918,4.918,0,0,0-4.409,0l-1.794,1.039a4.865,4.865,0,0,0-2.125,3.184Z" transform="translate(-395.767 -58.977)" fill="#fff" opacity="0.3"/>
        </g>
        <path id="freepik--shield--inject-150-4" data-name="freepik--shield--inject-150" d="M403.719,83.273c.192,5.6,1.45,16.715,8.433,23.44,4.905-2.648,7.282-10.36,7.116-15.126a.907.907,0,0,0-.252-.6,1.245,1.245,0,0,0-.424-.291c-2.132-.861-5.415-4.475-7.017-8.1-.113-.258-.278-.338-.45-.252h0a.662.662,0,0,0-.152.132h0v.033c-1.509,1.88-4.594,1.986-6.706.477-.159-.113-.291-.146-.377-.1h0C403.745,82.969,403.706,83.088,403.719,83.273Z" transform="translate(-398.43 -66.866)" fill="#fafafa"/>
      </g>
    </g>
  </g>
</svg>
