<svg xmlns="http://www.w3.org/2000/svg" width="392.059" height="292.131" viewBox="0 0 392.059 292.131">
  <g id="Private_data-rafiki_1_" data-name="Private data-rafiki (1)" transform="translate(0 -55)">
    <g id="freepik--background-complete--inject-620" transform="translate(0 55)">
      <rect id="Rectangle_2583" data-name="Rectangle 2583" width="392.059" height="0.196" transform="translate(0 256.72)" fill="#ebebeb"/>
      <rect id="Rectangle_2584" data-name="Rectangle 2584" width="25.97" height="0.196" transform="translate(326.804 269.336)" fill="#ebebeb"/>
      <rect id="Rectangle_2585" data-name="Rectangle 2585" width="6.814" height="0.196" transform="translate(252.901 271.469)" fill="#ebebeb"/>
      <rect id="Rectangle_2586" data-name="Rectangle 2586" width="15.047" height="0.196" transform="translate(310.973 262.06)" fill="#ebebeb"/>
      <rect id="Rectangle_2587" data-name="Rectangle 2587" width="33.866" height="0.196" transform="translate(41.135 263.377)" fill="#ebebeb"/>
      <rect id="Rectangle_2588" data-name="Rectangle 2588" width="4.963" height="0.196" transform="translate(81.987 263.377)" fill="#ebebeb"/>
      <rect id="Rectangle_2589" data-name="Rectangle 2589" width="73.456" height="0.196" transform="translate(103.088 266.686)" fill="#ebebeb"/>
      <path id="Path_6918" data-name="Path 6918" d="M194.085,276.748H42.679a4.477,4.477,0,0,1-4.469-4.477V59.438A4.477,4.477,0,0,1,42.679,55H194.085a4.477,4.477,0,0,1,4.477,4.477V272.271A4.477,4.477,0,0,1,194.085,276.748ZM42.679,55.157a4.281,4.281,0,0,0-4.273,4.281V272.271a4.281,4.281,0,0,0,4.273,4.281H194.085a4.289,4.289,0,0,0,4.281-4.281V59.438a4.289,4.289,0,0,0-4.281-4.281Z" transform="translate(-8.249 -55)" fill="#ebebeb"/>
      <path id="Path_6919" data-name="Path 6919" d="M410.39,276.748H258.977a4.485,4.485,0,0,1-4.477-4.477V59.438A4.485,4.485,0,0,1,258.977,55H410.39a4.477,4.477,0,0,1,4.462,4.438V272.271A4.477,4.477,0,0,1,410.39,276.748ZM258.977,55.157a4.289,4.289,0,0,0-4.281,4.281V272.271a4.289,4.289,0,0,0,4.281,4.281H410.39a4.289,4.289,0,0,0,4.281-4.281V59.438a4.289,4.289,0,0,0-4.281-4.281Z" transform="translate(-54.942 -55)" fill="#ebebeb"/>
      <rect id="Rectangle_2590" data-name="Rectangle 2590" width="112.231" height="115.971" transform="translate(56.731 27.295)" fill="#ebebeb"/>
      <rect id="Rectangle_2591" data-name="Rectangle 2591" width="112.231" height="115.971" transform="translate(60.651 27.295)" fill="#f0f0f0"/>
      <rect id="Rectangle_2592" data-name="Rectangle 2592" width="106.428" height="110.521" transform="translate(63.482 30.047)" fill="#e0e0e0"/>
      <rect id="Rectangle_2593" data-name="Rectangle 2593" width="103.77" height="110.521" transform="translate(63.474 30.047)" fill="#f5f5f5"/>
      <rect id="Rectangle_2594" data-name="Rectangle 2594" width="2.109" height="110.521" transform="translate(114.332 30.047)" fill="#ebebeb"/>
      <path id="Path_6920" data-name="Path 6920" d="M121.405,93.32,91.828,203.841H88.99L118.567,93.32Z" transform="translate(-19.211 -63.273)" fill="#fff"/>
      <rect id="Rectangle_2595" data-name="Rectangle 2595" width="1.803" height="114.348" transform="translate(115.532 28.338)" fill="#f0f0f0"/>
      <path id="Path_6921" data-name="Path 6921" d="M108.935,93.32,80.95,197.913V140.422l12.6-47.1Z" transform="translate(-17.476 -63.273)" fill="#fff"/>
      <path id="Path_6922" data-name="Path 6922" d="M205.885,106.11v10.609L181.828,206.6H178.99Z" transform="translate(-38.641 -66.034)" fill="#fff"/>
      <path id="Path_6923" data-name="Path 6923" d="M207.465,133.43v57.491L201.694,212.5H186.31Z" transform="translate(-40.221 -71.932)" fill="#fff"/>
      <rect id="Rectangle_2596" data-name="Rectangle 2596" width="118.143" height="149.61" transform="translate(222.893 106.562)" fill="#f0f0f0"/>
      <rect id="Rectangle_2597" data-name="Rectangle 2597" width="109.792" height="31.992" transform="translate(227.072 112.011)" fill="#e0e0e0"/>
      <rect id="Rectangle_2598" data-name="Rectangle 2598" width="6.234" height="26.809" transform="translate(227.072 117.194)" fill="#ebebeb"/>
      <rect id="Rectangle_2599" data-name="Rectangle 2599" width="6.234" height="26.809" transform="translate(257.23 117.194)" fill="#ebebeb"/>
      <rect id="Rectangle_2600" data-name="Rectangle 2600" width="6.234" height="26.809" transform="matrix(0.985, -0.17, 0.17, 0.985, 291.57, 117.569)" fill="#ebebeb"/>
      <rect id="Rectangle_2601" data-name="Rectangle 2601" width="6.234" height="23.28" transform="translate(234.804 120.731)" fill="#ebebeb"/>
      <rect id="Rectangle_2602" data-name="Rectangle 2602" width="6.234" height="23.28" transform="translate(249.138 120.731)" fill="#ebebeb"/>
      <rect id="Rectangle_2603" data-name="Rectangle 2603" width="6.234" height="23.28" transform="translate(285.325 120.731)" fill="#ebebeb"/>
      <rect id="Rectangle_2604" data-name="Rectangle 2604" width="6.234" height="23.28" transform="translate(265.575 121.271) rotate(-12.53)" fill="#ebebeb"/>
      <rect id="Rectangle_2605" data-name="Rectangle 2605" width="3.121" height="28.142" transform="translate(243.312 115.861)" fill="#ebebeb"/>
      <rect id="Rectangle_2606" data-name="Rectangle 2606" width="3.121" height="28.142" transform="translate(280.408 115.861)" fill="#ebebeb"/>
      <rect id="Rectangle_2607" data-name="Rectangle 2607" width="109.792" height="31.992" transform="translate(336.865 181.068) rotate(180)" fill="#e0e0e0"/>
      <rect id="Rectangle_2608" data-name="Rectangle 2608" width="6.234" height="26.809" transform="translate(336.865 181.061) rotate(180)" fill="#ebebeb"/>
      <rect id="Rectangle_2609" data-name="Rectangle 2609" width="6.234" height="26.809" transform="translate(306.707 181.061) rotate(180)" fill="#ebebeb"/>
      <rect id="Rectangle_2610" data-name="Rectangle 2610" width="6.234" height="26.809" transform="matrix(-0.985, -0.17, 0.17, -0.985, 267.829, 181.059)" fill="#ebebeb"/>
      <rect id="Rectangle_2611" data-name="Rectangle 2611" width="6.234" height="23.28" transform="translate(329.141 181.061) rotate(180)" fill="#ebebeb"/>
      <rect id="Rectangle_2612" data-name="Rectangle 2612" width="6.234" height="23.28" transform="translate(314.8 181.061) rotate(180)" fill="#ebebeb"/>
      <rect id="Rectangle_2613" data-name="Rectangle 2613" width="6.234" height="23.28" transform="translate(278.62 181.061) rotate(180)" fill="#ebebeb"/>
      <rect id="Rectangle_2614" data-name="Rectangle 2614" width="6.234" height="23.28" transform="translate(293.337 181.055) rotate(-167.47)" fill="#ebebeb"/>
      <rect id="Rectangle_2615" data-name="Rectangle 2615" width="3.121" height="28.142" transform="translate(320.633 181.068) rotate(180)" fill="#ebebeb"/>
      <rect id="Rectangle_2616" data-name="Rectangle 2616" width="3.121" height="28.142" transform="translate(283.529 181.068) rotate(180)" fill="#ebebeb"/>
      <rect id="Rectangle_2617" data-name="Rectangle 2617" width="6.234" height="26.809" transform="translate(227.072 154.252)" fill="#ebebeb"/>
      <rect id="Rectangle_2618" data-name="Rectangle 2618" width="6.234" height="23.28" transform="translate(234.804 157.788)" fill="#ebebeb"/>
      <rect id="Rectangle_2619" data-name="Rectangle 2619" width="6.234" height="23.28" transform="translate(249.138 157.788)" fill="#ebebeb"/>
      <rect id="Rectangle_2620" data-name="Rectangle 2620" width="3.121" height="28.142" transform="translate(243.312 152.919)" fill="#ebebeb"/>
      <rect id="Rectangle_2621" data-name="Rectangle 2621" width="109.792" height="31.992" transform="translate(227.072 186.126)" fill="#e0e0e0"/>
      <rect id="Rectangle_2622" data-name="Rectangle 2622" width="6.234" height="26.809" transform="translate(290.092 191.309)" fill="#ebebeb"/>
      <rect id="Rectangle_2623" data-name="Rectangle 2623" width="6.234" height="26.809" transform="matrix(0.985, -0.17, 0.17, 0.985, 324.422, 191.683)" fill="#ebebeb"/>
      <rect id="Rectangle_2624" data-name="Rectangle 2624" width="6.234" height="23.28" transform="translate(267.658 194.845)" fill="#ebebeb"/>
      <rect id="Rectangle_2625" data-name="Rectangle 2625" width="6.234" height="23.28" transform="translate(282 194.845)" fill="#ebebeb"/>
      <rect id="Rectangle_2626" data-name="Rectangle 2626" width="6.234" height="23.28" transform="translate(318.179 194.845)" fill="#ebebeb"/>
      <rect id="Rectangle_2627" data-name="Rectangle 2627" width="6.234" height="23.28" transform="translate(298.436 195.382) rotate(-12.53)" fill="#ebebeb"/>
      <rect id="Rectangle_2628" data-name="Rectangle 2628" width="3.121" height="28.142" transform="translate(276.174 189.976)" fill="#ebebeb"/>
      <rect id="Rectangle_2629" data-name="Rectangle 2629" width="3.121" height="28.142" transform="translate(313.27 189.976)" fill="#ebebeb"/>
      <rect id="Rectangle_2630" data-name="Rectangle 2630" width="6.234" height="26.809" transform="matrix(0.985, -0.17, 0.17, 0.985, 252.667, 191.687)" fill="#ebebeb"/>
      <rect id="Rectangle_2631" data-name="Rectangle 2631" width="6.234" height="23.28" transform="translate(246.424 194.845)" fill="#ebebeb"/>
      <rect id="Rectangle_2632" data-name="Rectangle 2632" width="6.234" height="23.28" transform="translate(226.681 195.385) rotate(-12.53)" fill="#ebebeb"/>
      <rect id="Rectangle_2633" data-name="Rectangle 2633" width="3.121" height="28.142" transform="translate(241.516 189.976)" fill="#ebebeb"/>
      <path id="Path_6924" data-name="Path 6924" d="M307.4,184.484v-2.219h3.607a42.122,42.122,0,0,1-1.325-21.085s-.047,9.206,3.505,9.268c5.442.1,5.849-9.268,5.849-9.268s1.31,13.408-3.568,21.085h3.725v2.219Z" transform="translate(-66.362 -77.922)" fill="#e0e0e0"/>
      <path id="Path_6925" data-name="Path 6925" d="M318.563,168.136A3.136,3.136,0,1,1,315.426,165,3.136,3.136,0,0,1,318.563,168.136Z" transform="translate(-67.418 -78.747)" fill="#e0e0e0"/>
      <path id="Path_6926" data-name="Path 6926" d="M338.17,184.825v-1.294l3.787-1.764-1.9-1.851,4.7-16.7v10.429s-.651,0-.651,1.5,2.156,1.153,2.156-.086-.706-1.411-.706-1.411V162.76l4.328,16.529-1.913,2.478,3.921,1.772v1.294Z" transform="translate(-73.005 -78.264)" fill="#e0e0e0"/>
      <path id="Path_6927" data-name="Path 6927" d="M367.85,185.019v-1.027l3.5-.8V167.863l3-4.2,2.564,3.293v7.034l1.325-1.843,1.858-.706,1.325,2.9-2.831,8.853,2.831.8v1.027Z" transform="translate(-79.412 -78.458)" fill="#e0e0e0"/>
      <path id="Path_6928" data-name="Path 6928" d="M397.5,185.49l4.3-21.83h13.158l-3.121,12.381,4.611,8.978Z" transform="translate(-85.813 -78.458)" fill="#e0e0e0"/>
    </g>
    <g id="freepik--Shadow--inject-620" transform="translate(43.997 329.378)">
      <ellipse id="freepik--path--inject-620" cx="152.032" cy="8.876" rx="152.032" ry="8.876" fill="#f5f5f5"/>
    </g>
    <g id="freepik--Plant--inject-620" transform="translate(271.697 282.548)">
      <path id="Path_6929" data-name="Path 6929" d="M368.5,383.524c.094-.667,2.352-16.278-2.172-21.665a4.9,4.9,0,0,0-3.764-1.851c-9.151-.22-10.405,7.135-10.413,7.206l1.074.165c.047-.259,1.129-6.477,9.307-6.273a3.819,3.819,0,0,1,2.956,1.466c4.219,5.01,1.952,20.638,1.929,20.795Z" transform="translate(-347.72 -348.393)" fill="#9676ff"/>
      <path id="Path_6930" data-name="Path 6930" d="M373.658,383.762h1.09c0-.149-.361-14.389,6.657-17.329a7.556,7.556,0,0,1,10.1,3.293l.972-.486a8.7,8.7,0,0,0-11.5-3.811C373.274,368.628,373.642,383.142,373.658,383.762Z" transform="translate(-352.362 -349.375)" fill="#9676ff"/>
      <path id="Path_6931" data-name="Path 6931" d="M373.32,381.005c0-.227.071-22.739,4.462-29.342,4.211-6.32,11.017-3.348,11.3-3.215l.455-1c-.078,0-7.927-3.5-12.663,3.607-4.579,6.861-4.642,29.012-4.642,29.945Z" transform="translate(-352.055 -345.497)" fill="#9676ff"/>
      <path id="Path_6932" data-name="Path 6932" d="M360,359.767s3.991,1.466,2.807,4.948-13.824,9.2-13.824,9.2-5.293-4.846-.431-12.734S359.893,357.273,360,359.767Z" transform="translate(-346.5 -347.641)" fill="#9676ff"/>
      <path id="Path_6933" data-name="Path 6933" d="M378.838,350.178s-2.839-.306-2.611-2.031,11.025-6.179,17.4,1.012c0,0-4.077,7.01-9.974,7.1S378.838,350.178,378.838,350.178Z" transform="translate(-352.915 -345.196)" fill="#9676ff"/>
      <path id="Path_6934" data-name="Path 6934" d="M382.9,365.546s-1.96-1.568.157-2.352,12.475-.557,12.546,9.715c0,0-12.075,2.007-13.565-1.905S382.9,365.546,382.9,365.546Z" transform="translate(-354.064 -349.021)" fill="#9676ff"/>
      <path id="Path_6935" data-name="Path 6935" d="M360,359.767s3.991,1.466,2.807,4.948-13.824,9.2-13.824,9.2-5.293-4.846-.431-12.734S359.893,357.273,360,359.767Z" transform="translate(-346.5 -347.641)" opacity="0.2"/>
      <path id="Path_6936" data-name="Path 6936" d="M378.838,350.178s-2.839-.306-2.611-2.031,11.025-6.179,17.4,1.012c0,0-4.077,7.01-9.974,7.1S378.838,350.178,378.838,350.178Z" transform="translate(-352.915 -345.196)" opacity="0.2"/>
      <path id="Path_6937" data-name="Path 6937" d="M382.9,365.546s-1.96-1.568.157-2.352,12.475-.557,12.546,9.715c0,0-12.075,2.007-13.565-1.905S382.9,365.546,382.9,365.546Z" transform="translate(-354.064 -349.021)" opacity="0.2"/>
      <path id="Path_6938" data-name="Path 6938" d="M360.423,410.985h18.733l2.023-20.5H358.4Z" transform="translate(-349.069 -354.972)" fill="#263238"/>
      <path id="Path_6939" data-name="Path 6939" d="M360.423,410.985h18.733l2.023-20.5H358.4Z" transform="translate(-349.069 -354.972)" fill="#fff" opacity="0.5"/>
      <rect id="Rectangle_2634" data-name="Rectangle 2634" width="24.778" height="4.524" transform="translate(33.105 37.766) rotate(180)" fill="#263238"/>
      <rect id="Rectangle_2635" data-name="Rectangle 2635" width="24.778" height="4.524" transform="translate(33.105 37.766) rotate(180)" fill="#fff" opacity="0.2"/>
    </g>
    <g id="freepik--Documents--inject-620" transform="translate(263.438 216.073)">
      <path id="Path_6940" data-name="Path 6940" d="M343.96,304.18a25.319,25.319,0,1,0,2.243-37.794l-9.1-4.877,4.877,9.1a25.327,25.327,0,0,0,1.976,33.576Z" transform="translate(-336.094 -260.536)" fill="#9676ff"/>
      <path id="Path_6941" data-name="Path 6941" d="M343.96,304.18a25.319,25.319,0,1,0,2.243-37.794l-9.1-4.877,4.877,9.1a25.327,25.327,0,0,0,1.976,33.576Z" transform="translate(-336.094 -260.536)" fill="#fff" opacity="0.7"/>
      <path id="Path_6942" data-name="Path 6942" d="M364.714,276.078l-11.934,9.362v16.568a.784.784,0,0,0,.784.784h24.143a.784.784,0,0,0,.784-.784V285.441l-11.942-9.362A1.568,1.568,0,0,0,364.714,276.078Z" transform="translate(-339.597 -263.736)" fill="#9676ff"/>
      <rect id="Rectangle_2636" data-name="Rectangle 2636" width="17.682" height="23.986" transform="translate(17.213 9.935)" fill="#fff"/>
      <path id="Path_6943" data-name="Path 6943" d="M365.671,298.215,352.78,288.1v16.568a.784.784,0,0,0,.784.784h24.143a.784.784,0,0,0,.784-.784V288.1Z" transform="translate(-339.597 -266.396)" fill="#9676ff"/>
      <path id="Path_6944" data-name="Path 6944" d="M365.671,298.215,352.78,288.1v16.568a.784.784,0,0,0,.784.784h24.143a.784.784,0,0,0,.784-.784V288.1Z" transform="translate(-339.597 -266.396)" fill="#fff" opacity="0.2"/>
      <rect id="Rectangle_2637" data-name="Rectangle 2637" width="12.099" height="0.784" transform="translate(20.004 12.569)" fill="#9676ff"/>
      <rect id="Rectangle_2638" data-name="Rectangle 2638" width="12.099" height="0.784" transform="translate(20.004 14.812)" fill="#9676ff"/>
      <rect id="Rectangle_2639" data-name="Rectangle 2639" width="12.099" height="0.784" transform="translate(20.004 17.062)" fill="#9676ff"/>
      <rect id="Rectangle_2640" data-name="Rectangle 2640" width="12.099" height="0.784" transform="translate(20.004 19.313)" fill="#9676ff"/>
      <rect id="Rectangle_2641" data-name="Rectangle 2641" width="12.099" height="0.784" transform="translate(20.004 21.563)" fill="#9676ff"/>
      <rect id="Rectangle_2642" data-name="Rectangle 2642" width="7.394" height="0.784" transform="translate(20.004 23.814)" fill="#9676ff"/>
      <path id="Path_6945" data-name="Path 6945" d="M361.72,311.842a25.7,25.7,0,0,1-20.387-41.409l-4.752-8.868a.384.384,0,0,1,.071-.463.392.392,0,0,1,.463-.071l8.868,4.76a25.711,25.711,0,1,1,15.682,46.051Zm-23.806-49.5,4.266,7.943a.392.392,0,0,1-.039.423,24.927,24.927,0,1,0,4.156-4.156.376.376,0,0,1-.431.039Z" transform="translate(-335.968 -260.42)" fill="#9676ff"/>
      <g id="Group_2436" data-name="Group 2436" opacity="0.7">
        <path id="Path_6946" data-name="Path 6946" d="M361.72,311.842a25.7,25.7,0,0,1-20.387-41.409l-4.752-8.868a.384.384,0,0,1,.071-.463.392.392,0,0,1,.463-.071l8.868,4.76a25.711,25.711,0,1,1,15.682,46.051Zm-23.806-49.5,4.266,7.943a.392.392,0,0,1-.039.423,24.927,24.927,0,1,0,4.156-4.156.376.376,0,0,1-.431.039Z" transform="translate(-335.968 -260.42)" fill="#9676ff"/>
      </g>
    </g>
    <g id="freepik--Folder--inject-620" transform="translate(191.285 241.277)">
      <path id="Path_6947" data-name="Path 6947" d="M244.52,328.1a25.327,25.327,0,1,0,28.307-25.139l-2.987-9.88-2.98,9.88A25.327,25.327,0,0,0,244.52,328.1Z" transform="translate(-244.073 -292.674)" fill="#9676ff"/>
      <path id="Path_6948" data-name="Path 6948" d="M244.52,328.1a25.327,25.327,0,1,0,28.307-25.139l-2.987-9.88-2.98,9.88A25.327,25.327,0,0,0,244.52,328.1Z" transform="translate(-244.073 -292.674)" fill="#fff" opacity="0.7"/>
      <path id="Path_6949" data-name="Path 6949" d="M285.972,325.649h-3.238a.784.784,0,0,1-.737-.619l-.243-1.49a.784.784,0,0,0-.737-.619h-6.579a.784.784,0,0,0-.737.619l-.243,1.49a.784.784,0,0,1-.737.619h-9.809a1.411,1.411,0,0,0-1.411,1.411v16.553a1.4,1.4,0,0,0,1.411,1.4h23.061a1.411,1.411,0,0,0,1.411-1.4V327.06A1.419,1.419,0,0,0,285.972,325.649Z" transform="translate(-247.738 -299.116)" fill="#9676ff"/>
      <rect id="Rectangle_2643" data-name="Rectangle 2643" width="23.327" height="16.553" transform="translate(15.079 27.944)" fill="#fff"/>
      <path id="Path_6950" data-name="Path 6950" d="M285.457,346.634H262.4a1.631,1.631,0,0,1-1.568-1.427l-1.7-14.6a1.239,1.239,0,0,1,1.239-1.427h23.069A1.647,1.647,0,0,1,285,330.607l1.694,14.577a1.247,1.247,0,0,1-1.239,1.451Z" transform="translate(-247.223 -300.468)" fill="#9676ff"/>
      <path id="Path_6951" data-name="Path 6951" d="M285.457,346.634H262.4a1.631,1.631,0,0,1-1.568-1.427l-1.7-14.6a1.239,1.239,0,0,1,1.239-1.427h23.069A1.647,1.647,0,0,1,285,330.607l1.694,14.577a1.247,1.247,0,0,1-1.239,1.451Z" transform="translate(-247.223 -300.468)" fill="#fff" opacity="0.2"/>
      <path id="Path_6952" data-name="Path 6952" d="M269.716,353.706a25.711,25.711,0,0,1-3.285-51.219l2.909-9.629a.408.408,0,0,1,.784,0L273,302.488a25.711,25.711,0,0,1-3.285,51.219Zm0-59.381L267.1,302.95a.392.392,0,0,1-.329.274,24.927,24.927,0,1,0,5.881,0,.4.4,0,0,1-.329-.274Z" transform="translate(-243.949 -292.563)" fill="#9676ff"/>
      <g id="Group_2437" data-name="Group 2437" transform="translate(0 0)" opacity="0.7">
        <path id="Path_6953" data-name="Path 6953" d="M269.716,353.706a25.711,25.711,0,0,1-3.285-51.219l2.909-9.629a.408.408,0,0,1,.784,0L273,302.488a25.711,25.711,0,0,1-3.285,51.219Zm0-59.381L267.1,302.95a.392.392,0,0,1-.329.274,24.927,24.927,0,1,0,5.881,0,.4.4,0,0,1-.329-.274Z" transform="translate(-243.949 -292.563)" fill="#9676ff"/>
      </g>
    </g>
    <g id="freepik--Map--inject-620" transform="translate(119.18 125.506)">
      <path id="Path_6954" data-name="Path 6954" d="M159.959,188.65a25.319,25.319,0,1,1,37.794-2.235l4.869,9.1-9.1-4.877A25.319,25.319,0,0,1,159.959,188.65Z" transform="translate(-152.112 -145.028)" fill="#9676ff"/>
      <path id="Path_6955" data-name="Path 6955" d="M159.959,188.65a25.319,25.319,0,1,1,37.794-2.235l4.869,9.1-9.1-4.877A25.319,25.319,0,0,1,159.959,188.65Z" transform="translate(-152.112 -145.028)" fill="#fff" opacity="0.7"/>
      <path id="Path_6956" data-name="Path 6956" d="M185.037,164.928l-8.555-1.858-8.563,1.858v22.418l8.563-1.858,8.555,1.858,8.555-1.858V163.07Z" transform="translate(-155.431 -148.837)" fill="#9676ff"/>
      <path id="Path_6957" data-name="Path 6957" d="M185.037,164.928l-8.555-1.858-8.563,1.858v22.418l8.563-1.858,8.555,1.858,8.555-1.858V163.07Z" transform="translate(-155.431 -148.837)" fill="#fff" opacity="0.4"/>
      <path id="Path_6958" data-name="Path 6958" d="M192.961,164.4v20.63l-7.684,1.678-6.006-1.309-2.29-.494-.259-.063-7.692,1.678V165.88l2.344-.51,2.007-.431,3.34-.729,8.555,1.858,2.823-.612,2.987-.651Z" transform="translate(-155.671 -149.083)" fill="#9676ff"/>
      <path id="Path_6959" data-name="Path 6959" d="M192.961,174.881l-.682.2.682,2.36v3.991l-1.741-6.053-13.746,3.944,1.8,6.242-2.29-.494-1.49-5.175-6.461,1.85V179.6l5.889-1.686-1.592-5.575-4.3,1.239v-1.247L173,171.188l-1.623-5.653,2.007-.431,3.521,12.24,7.261-2.086-1.294-4.5h.008l-.008-.016,5.23-5.12,2.987-.651-6.242,6.124,1.059,3.67,7.057-2.031Z" transform="translate(-155.671 -149.247)" fill="#fff" opacity="0.3"/>
      <path id="Path_6960" data-name="Path 6960" d="M178.84,163.07v22.418l8.555,1.858V164.928Z" transform="translate(-157.789 -148.837)" fill="#fff" opacity="0.2"/>
      <path id="Path_6961" data-name="Path 6961" d="M192.028,182.562a2.706,2.706,0,0,0-3.826,3.826l1.913,1.905,1.913-1.905a2.705,2.705,0,0,0,0-3.826Zm-1.168,2.658h0a1.059,1.059,0,0,1-1.49,0h0a1.053,1.053,0,1,1,1.49,0Z" transform="translate(-159.639 -152.874)" fill="#fff"/>
      <path id="Path_6962" data-name="Path 6962" d="M177.741,196.358a25.719,25.719,0,1,1,20.34-10.013l4.76,8.868a.4.4,0,0,1-.071.463.392.392,0,0,1-.463.071l-8.868-4.752a25.633,25.633,0,0,1-15.7,5.363Zm0-50.638a24.927,24.927,0,1,0,15.424,44.5.408.408,0,0,1,.431-.039l7.951,4.266-4.258-7.951a.392.392,0,0,1,0-.431,24.911,24.911,0,0,0-19.6-40.343Z" transform="translate(-151.993 -144.918)" fill="#9676ff"/>
    </g>
    <g id="freepik--Password--inject-620" transform="translate(123.702 171.622)">
      <rect id="Rectangle_2644" data-name="Rectangle 2644" width="1.96" height="0.784" transform="translate(68.759 39.261)" fill="#9676ff"/>
      <path id="Path_6963" data-name="Path 6963" d="M225.423,251.272H221.5v-.784h3.921Zm-6.273,0H215.23v-.784h3.921Zm-6.273,0h-3.921v-.784h3.921Zm-6.273,0h-3.921v-.784H206.6Zm-6.273,0h-3.921v-.784h3.921Zm-6.273,0h-3.921v-.784h3.921Zm-6.273,0h-3.921v-.784h3.921Zm-6.273,0h-3.921v-.784h3.921Zm-6.32-.643-2.658-2.768.557-.557,2.768,2.768Zm-4.422-4.43L168,243.439l.557-.557,2.76,2.768Zm-4.43-4.422-2.76-2.768.549-.549,2.768,2.76Z" transform="translate(-159.016 -211.228)" fill="#9676ff"/>
      <rect id="Rectangle_2645" data-name="Rectangle 2645" width="0.784" height="1.96" transform="translate(1.617 24.743) rotate(-44.99)" fill="#9676ff"/>
      <path id="Path_6964" data-name="Path 6964" d="M159.156,235.3a1.4,1.4,0,1,1,1.4-1.388,1.4,1.4,0,0,1-1.4,1.388Zm0-2a.612.612,0,1,0,.612.612A.612.612,0,0,0,159.156,233.3Z" transform="translate(-157.76 -209.943)" fill="#9676ff"/>
      <rect id="Rectangle_2646" data-name="Rectangle 2646" width="50.254" height="50.176" rx="3.4" transform="translate(68.226 0)" fill="#9676ff"/>
      <rect id="Rectangle_2647" data-name="Rectangle 2647" width="37.881" height="9.064" rx="1.59" transform="translate(74.405 35.121)" fill="#fff" opacity="0.4"/>
      <path id="Path_6965" data-name="Path 6965" d="M259.346,253.8l1.074.588-.369.643-1.09-.643v1.215h-.714V254.4l-1.082.635-.376-.643,1.082-.588-1.082-.6.376-.651,1.082.643V252h.714v1.215l1.09-.651.369.651Z" transform="translate(-179.139 -214.151)" fill="#263238"/>
      <path id="Path_6966" data-name="Path 6966" d="M265.3,253.8l1.074.588-.369.643-1.09-.643v1.215H264.2V254.4l-1.082.635-.376-.643,1.082-.588-1.082-.6.376-.651,1.082.643V252h.714v1.215l1.09-.651.369.651Z" transform="translate(-180.423 -214.151)" fill="#263238"/>
      <path id="Path_6967" data-name="Path 6967" d="M271.146,253.8l1.074.588-.369.643-1.09-.643v1.215h-.714V254.4l-1.082.635-.376-.643,1.082-.588-1.082-.6.376-.651,1.082.643V252h.714v1.215l1.09-.651.369.651Z" transform="translate(-181.686 -214.151)" fill="#263238"/>
      <path id="Path_6968" data-name="Path 6968" d="M277.046,253.8l1.066.588-.361.643-1.09-.643v1.215h-.714V254.4l-1.082.635-.376-.643,1.082-.588-1.082-.6.376-.651,1.082.643V252h.714v1.215l1.09-.651.361.651Z" transform="translate(-182.96 -214.151)" fill="#263238"/>
      <path id="Path_6969" data-name="Path 6969" d="M282.942,253.8l1.066.588-.361.643-1.1-.643V255.6h-.721V254.4l-1.082.635-.376-.643,1.082-.588-1.082-.6.376-.651,1.082.643V251.99h.721v1.215l1.1-.651.361.651Z" transform="translate(-184.229 -214.149)" fill="#263238"/>
      <path id="Path_6970" data-name="Path 6970" d="M288.838,253.8l1.074.588-.368.643-1.09-.643v1.215h-.714V254.4l-1.074.635-.376-.643,1.074-.588-1.074-.6.376-.651,1.074.643V252h.714v1.215l1.09-.651.368.651Z" transform="translate(-185.507 -214.151)" fill="#263238"/>
      <path id="Path_6971" data-name="Path 6971" d="M294.736,253.8l1.074.588-.369.643-1.09-.643v1.215h-.714V254.4l-1.082.635-.376-.643,1.082-.588-1.082-.6.376-.651,1.082.643V252h.753v1.215l1.09-.651.368.651Z" transform="translate(-186.779 -214.151)" fill="#263238"/>
      <path id="Path_6972" data-name="Path 6972" d="M281.688,223.275H280.12v-1.521a4.446,4.446,0,1,0-8.892,0v1.521H269.66v-1.521a6.014,6.014,0,0,1,12.028,0Z" transform="translate(-181.917 -206.323)" fill="#fff"/>
      <path id="Path_6973" data-name="Path 6973" d="M281.991,226.4H268.316a1.176,1.176,0,0,0-1.176,1.176v8.1a1.176,1.176,0,0,0,1.176,1.168h13.675a1.176,1.176,0,0,0,1.176-1.168v-8.1a1.176,1.176,0,0,0-1.176-1.176Zm-6.336,5.293v2.572H274.7v-2.572a1.4,1.4,0,1,1,.957,0Z" transform="translate(-181.373 -208.624)" fill="#fff"/>
    </g>
    <g id="freepik--Character--inject-620" transform="translate(65.364 168.912)">
      <path id="Path_6974" data-name="Path 6974" d="M89.391,325.13h77.518a3.293,3.293,0,0,1,3.293,3.293V338.1H86.09v-9.676a3.293,3.293,0,0,1,3.3-3.293Z" transform="translate(-83.949 -227.228)" fill="#9676ff"/>
      <path id="Path_6975" data-name="Path 6975" d="M89.391,325.13h77.518a3.293,3.293,0,0,1,3.293,3.293V338.1H86.09v-9.676a3.293,3.293,0,0,1,3.3-3.293Z" transform="translate(-83.949 -227.228)" fill="#fff" opacity="0.6"/>
      <path id="Path_6976" data-name="Path 6976" d="M89.391,325.13h23.884a3.293,3.293,0,0,1,3.293,3.293V338.1H86.09v-9.676a3.293,3.293,0,0,1,3.3-3.293Z" transform="translate(-83.949 -227.228)" fill="#fff" opacity="0.6"/>
      <path id="Path_6977" data-name="Path 6977" d="M158.872,400.253h-2.5L154.7,340.77h4.172Z" transform="translate(-98.761 -230.605)" fill="#2e353a"/>
      <path id="Path_6978" data-name="Path 6978" d="M88.391,400.253h-2.5V340.77h4.172Z" transform="translate(-83.906 -230.605)" fill="#2e353a"/>
      <path id="Path_6979" data-name="Path 6979" d="M120.721,400.253h-2.5V340.77h4.172Z" transform="translate(-90.886 -230.605)" fill="#2e353a"/>
      <path id="Path_6980" data-name="Path 6980" d="M191.2,400.253h-2.5l-1.67-59.483H191.2Z" transform="translate(-105.741 -230.605)" fill="#2e353a"/>
      <rect id="Rectangle_2648" data-name="Rectangle 2648" width="89.389" height="6.618" rx="1.45" transform="translate(0 110.165)" fill="#9676ff"/>
      <rect id="Rectangle_2649" data-name="Rectangle 2649" width="89.389" height="6.618" rx="1.45" transform="translate(0 110.165)" fill="#fff" opacity="0.3"/>
      <path id="Path_6981" data-name="Path 6981" d="M140.765,241.021a.157.157,0,0,1-.086,0,.2.2,0,0,1-.086-.267c1.568-3.136-.455-9.37-2.635-12.491a6.132,6.132,0,0,1-.486-6.171.2.2,0,0,1,.267-.078.2.2,0,0,1,.071.267,5.732,5.732,0,0,0,.47,5.755c2.235,3.207,4.328,9.66,2.658,12.9a.188.188,0,0,1-.173.086Z" transform="translate(-94.91 -204.963)" fill="#263238"/>
      <path id="Path_6982" data-name="Path 6982" d="M130.592,217.474s4.32-9.605-3.458-15.141c-6.273-4.477-16.286-1.749-19.8,9.127-3.27,10.084,1.858,10.39-3.725,15.439s-5.418,9.253-.384,16.349,15.972,9.111,22.034,4.124,6.775-17.807,4.093-23.084S130.592,217.474,130.592,217.474Z" transform="translate(-86.831 -200.274)" fill="#263238"/>
      <path id="Path_6983" data-name="Path 6983" d="M97.975,237.64a.2.2,0,0,1-.18-.11c-1.78-3.5,1.278-7.057,3.983-10.194a20.317,20.317,0,0,0,2.94-3.975c.643-1.364.518-3.011.376-4.916-.235-3.136-.525-7.1,2.752-11.448,5.183-6.885,13.189-4.916,13.275-4.893a.2.2,0,0,1,.141.235.2.2,0,0,1-.243.141c-.078,0-7.841-1.921-12.86,4.752-3.191,4.234-2.917,7.927-2.674,11.181.141,1.96.267,3.654-.408,5.12a20.325,20.325,0,0,1-3.011,4.054c-2.619,3.05-5.591,6.5-3.921,9.762a.2.2,0,0,1-.086.267Z" transform="translate(-86.362 -200.609)" fill="#263238"/>
      <path id="Path_6984" data-name="Path 6984" d="M139.564,242.387c2.054-.423,6.375,10.256,6.375,10.256l-.7-4.6,3.921-.643s4.132,14.569.416,15.478c-2.148.518-8.014-5.355-11.6-9.66Z" transform="translate(-95.152 -209.363)" fill="#ebb376"/>
      <path id="Path_6985" data-name="Path 6985" d="M139.564,242.387c2.054-.423,6.375,10.256,6.375,10.256l-.7-4.6,3.921-.643s4.132,14.569.416,15.478c-2.148.518-8.014-5.355-11.6-9.66Z" transform="translate(-95.152 -209.363)" opacity="0.1"/>
      <path id="Path_6986" data-name="Path 6986" d="M180.46,404.15l-4.454-.455-.11-6.273-.086-5.763,5.379-.329-.384,6.79Z" transform="translate(-103.318 -241.52)" fill="#ebb376"/>
      <path id="Path_6987" data-name="Path 6987" d="M174.54,406.8c-.055-.486,6.006-.941,6.006-.941s4.226,3.246,7.927,3.591,2.007,2.776-2.007,3.332l-9.927,1.388C173.685,414.6,175.128,411.89,174.54,406.8Z" transform="translate(-103.044 -244.657)" fill="#2e353a"/>
      <path id="Path_6988" data-name="Path 6988" d="M185.438,406.556a8.943,8.943,0,0,1-2.274-.431.165.165,0,0,1-.078-.047h0a.2.2,0,0,1,0-.149c0-.063.329-1.568,1.106-2.007a.957.957,0,0,1,.784-.094c.384.118.478.329.486.478a1.48,1.48,0,0,1-.7.965,2.281,2.281,0,0,1,1.239,0,.7.7,0,0,1,.4.376.643.643,0,0,1-.063.7A1.2,1.2,0,0,1,185.438,406.556Zm-1.639-.643c.917.235,1.984.392,2.219.141.055-.055.047-.157,0-.29a.314.314,0,0,0-.188-.173,3.74,3.74,0,0,0-2.031.321Zm.831-1.78a.6.6,0,0,0-.3.086,2.58,2.58,0,0,0-.823,1.349c.784-.447,1.568-1.012,1.568-1.255,0-.047-.086-.1-.22-.149a.856.856,0,0,0-.227-.031Z" transform="translate(-104.886 -244.208)" fill="#577afa"/>
      <path id="Path_6989" data-name="Path 6989" d="M180.787,398.262l-4.9-.714-.086-5.818,5.379-.361Z" transform="translate(-103.316 -241.528)" opacity="0.2"/>
      <path id="Path_6990" data-name="Path 6990" d="M180.743,315.384c-1.176-6.681-10.256-13.479-45.479-19.234l-16.4,24.637s23.978-1.121,45.832-1.121c0,0-3.082,34.666-1.811,54.645l6.469.118S181.927,322.073,180.743,315.384Z" transform="translate(-91.024 -220.972)" fill="#2e353a"/>
      <path id="Path_6991" data-name="Path 6991" d="M180.743,315.384c-1.176-6.681-10.256-13.479-45.479-19.234l-16.4,24.637s23.978-1.121,45.832-1.121c0,0-3.082,34.666-1.811,54.645l6.469.118S181.927,322.073,180.743,315.384Z" transform="translate(-91.024 -220.972)" opacity="0.3"/>
      <path id="Path_6992" data-name="Path 6992" d="M149.436,404.908l-4.336-1.113.831-6.226.776-5.708,5.363.478L150.683,399Z" transform="translate(-96.689 -241.634)" fill="#ebb376"/>
      <path id="Path_6993" data-name="Path 6993" d="M143.4,406.75c0-.494,6.077,0,6.077,0s3.685,3.842,7.3,4.7,1.568,3.05-2.486,3l-10.029-.118C141.355,414.3,143.213,411.87,143.4,406.75Z" transform="translate(-96.158 -244.801)" fill="#2e353a"/>
      <path id="Path_6994" data-name="Path 6994" d="M154.711,408.026a7.567,7.567,0,0,1-2.541-.784l-.055-.039h0a.2.2,0,0,1,0-.055.18.18,0,0,1,0-.141c0-.055.557-1.482,1.4-1.819a.972.972,0,0,1,.784,0c.361.18.423.392.408.541,0,.306-.384.6-.831.847a2.266,2.266,0,0,1,1.223.188.651.651,0,0,1,.329.431.6.6,0,0,1-.165.674A.847.847,0,0,1,154.711,408.026Zm-1.905-.91c.87.369,1.905.69,2.172.47.055-.047.071-.141,0-.29a.313.313,0,0,0-.157-.2A3.842,3.842,0,0,0,152.806,407.116Zm1-1.639a.588.588,0,0,0-.227.047,2.587,2.587,0,0,0-1.011,1.208c.87-.322,1.694-.784,1.709-1.012,0-.047-.071-.118-.2-.173a.6.6,0,0,0-.243-.071Z" transform="translate(-98.2 -244.493)" fill="#577afa"/>
      <path id="Path_6995" data-name="Path 6995" d="M150.864,399.146,146.12,397.7l.792-5.763,5.371.447Z" transform="translate(-96.909 -241.651)" opacity="0.2"/>
      <path id="Path_6996" data-name="Path 6996" d="M136.792,297.262s-1.3-1.9-4.3-11.762l-23.9,1.568s-10.915,20.1-2.47,28.691c1.874,1.905,5.544,2.76,9.3,2.729,0,0,8.625.039,29.922-.957,0,0-7.1,34.5-8.845,54.433l6.375,1.09s20.3-53.226,20.128-60.008S161.335,302.743,136.792,297.262Z" transform="translate(-87.581 -218.673)" fill="#2e353a"/>
      <path id="Path_6997" data-name="Path 6997" d="M144.546,393.31l8.766,1-1.694,3.434-7.088-.91Z" transform="translate(-96.566 -241.947)" fill="#9676ff"/>
      <path id="Path_6998" data-name="Path 6998" d="M173.46,393.479l8.806-.329-1.153,3.654-7.151.165Z" transform="translate(-102.811 -241.913)" fill="#9676ff"/>
      <path id="Path_6999" data-name="Path 6999" d="M128.6,288.665a1.208,1.208,0,1,0,.351-.859A1.215,1.215,0,0,0,128.6,288.665Z" transform="translate(-93.126 -219.094)" fill="#fff" opacity="0.6"/>
      <path id="Path_7000" data-name="Path 7000" d="M109.874,286.953l-1,2.486,25.437-1.27-.533-3.058Z" transform="translate(-88.867 -218.589)" opacity="0.5"/>
      <path id="Path_7001" data-name="Path 7001" d="M127.279,286.046l.3,2.791a.557.557,0,0,0,.6.5l3.725-.29a.572.572,0,0,0,.525-.627l-.267-2.752a.565.565,0,0,0-.6-.51l-3.756.259a.557.557,0,0,0-.525.627Z" transform="translate(-92.84 -218.599)" fill="#fff"/>
      <path id="Path_7002" data-name="Path 7002" d="M118.985,286.71l-.3,3.285h-.917l.141-3.285Z" transform="translate(-90.789 -218.934)" fill="#263238"/>
      <path id="Path_7003" data-name="Path 7003" d="M136.41,285.4l.369,3.434h.855l-.3-3.583Z" transform="translate(-94.813 -218.619)" fill="#263238"/>
      <path id="Path_7004" data-name="Path 7004" d="M125.362,236.818a13.636,13.636,0,0,0,.22,5.285l-8.022-1.176c1.482-.972,1.96-6.751,2.235-9.111.125-1.137.172-2.18.18-2.9s0-1,0-1l2.933,1.341,4.783,2.188A15.753,15.753,0,0,0,125.362,236.818Z" transform="translate(-90.743 -206.24)" fill="#ebb376"/>
      <path id="Path_7005" data-name="Path 7005" d="M128.31,231.715a15.752,15.752,0,0,0-2.352,5.379,10.766,10.766,0,0,1-5.567-5c.125-1.137.173-2.18.18-2.9,1.043.1,2.015.212,2.94.337Z" transform="translate(-91.354 -206.517)" opacity="0.2"/>
      <path id="Path_7006" data-name="Path 7006" d="M127.057,207.576c6.391.714,8.069,4.368,7.841,10.978-.337,8.3-2.815,13.949-10.617,11.3C113.656,226.293,116.432,206.4,127.057,207.576Z" transform="translate(-90.744 -201.84)" fill="#ebb376"/>
      <path id="Path_7007" data-name="Path 7007" d="M134.346,220.59a13.8,13.8,0,0,0,1.568,2.862,1.764,1.764,0,0,1-1.764.533Z" transform="translate(-94.325 -204.66)" fill="#d58745"/>
      <path id="Path_7008" data-name="Path 7008" d="M129.129,219.091c-.047.525-.369.933-.714.9s-.6-.486-.557-1.012.368-.933.721-.9S129.176,218.566,129.129,219.091Z" transform="translate(-92.965 -204.118)" fill="#263238"/>
      <path id="Path_7009" data-name="Path 7009" d="M128.59,218l1.184-.353S129.123,218.567,128.59,218Z" transform="translate(-93.124 -204.025)" fill="#263238"/>
      <path id="Path_7010" data-name="Path 7010" d="M137.5,219.723c-.047.525-.369.933-.721.9s-.6-.486-.549-1.011.369-.925.714-.894S137.546,219.166,137.5,219.723Z" transform="translate(-94.772 -204.256)" fill="#263238"/>
      <path id="Path_7011" data-name="Path 7011" d="M137,218.595l1.192-.345S137.494,219.16,137,218.595Z" transform="translate(-94.94 -204.155)" fill="#263238"/>
      <path id="Path_7012" data-name="Path 7012" d="M126.271,214.567a.314.314,0,0,1-.2-.086.282.282,0,0,1,0-.4,3.568,3.568,0,0,1,3.136-.729.274.274,0,0,1,.212.337.29.29,0,0,1-.345.212,3.136,3.136,0,0,0-2.611.588A.29.29,0,0,1,126.271,214.567Z" transform="translate(-92.562 -203.075)" fill="#263238"/>
      <path id="Path_7013" data-name="Path 7013" d="M138.408,215.052a.274.274,0,0,1-.18-.071,2.713,2.713,0,0,0-2.243-.745.286.286,0,0,1-.133-.557,3.262,3.262,0,0,1,2.744.87.282.282,0,0,1,0,.4A.29.29,0,0,1,138.408,215.052Z" transform="translate(-94.646 -203.16)" fill="#263238"/>
      <path id="Path_7014" data-name="Path 7014" d="M118.455,216.848s3.576-4.924,3.576-9.025c0,0,13.252-3.772,12.444,9.166,0,0,2.509-11.291-8.461-12.765s-12.711,14.616-7.567,20.042C118.447,224.266,116.236,219.93,118.455,216.848Z" transform="translate(-90.337 -201.106)" fill="#263238"/>
      <path id="Path_7015" data-name="Path 7015" d="M119.1,221.421a2.831,2.831,0,0,0-2.737-2.9c-2.007,0-3.4,3.921,1.419,5.489C118.47,224.228,118.948,223.6,119.1,221.421Z" transform="translate(-90.084 -204.213)" fill="#ebb376"/>
      <path id="Path_7016" data-name="Path 7016" d="M117.207,214.162s2.258-9.527,10.907-8.978c7.629.478,7.332,7.057,7.332,7.057s.643-7.841-7.974-8.367c-9.206-.533-11.111,9.629-11.111,9.629Z" transform="translate(-90.484 -201.047)" fill="#9676ff"/>
      <path id="Path_7017" data-name="Path 7017" d="M132.039,227.973h-.055c-2.643-.494-2.988-2.352-3-2.423a.274.274,0,0,1,.235-.321.282.282,0,0,1,.322.227c0,.071.314,1.568,2.548,1.96a.274.274,0,0,1,.22.329.282.282,0,0,1-.274.227Z" transform="translate(-93.21 -205.661)" fill="#263238"/>
      <path id="Path_7018" data-name="Path 7018" d="M151.621,237.36s3.474.737,3.45,1.372-1.419,5.638-2.047,6.273a10.979,10.979,0,0,1-2.117,1.341l-.321,5.12-2.227.243-1.388-4.7a5.575,5.575,0,0,1-.416-5.034C147.778,239.493,151.621,237.36,151.621,237.36Z" transform="translate(-96.905 -208.28)" fill="#ebb376"/>
      <path id="Path_7019" data-name="Path 7019" d="M151.621,237.36s3.474.737,3.45,1.372-1.419,5.638-2.047,6.273a10.979,10.979,0,0,1-2.117,1.341l-.321,5.12-2.227.243-1.388-4.7a5.575,5.575,0,0,1-.416-5.034C147.778,239.493,151.621,237.36,151.621,237.36Z" transform="translate(-96.905 -208.28)" opacity="0.1"/>
      <path id="Path_7020" data-name="Path 7020" d="M144.354,237.9a.533.533,0,0,0,.447.682l5.983.9a.7.7,0,0,0,.784-.494l3.136-11.613a.6.6,0,0,0-.431-.784l-5.983-.91a.784.784,0,0,0-.784.58Z" transform="translate(-96.523 -205.759)" fill="#263238"/>
      <path id="Path_7021" data-name="Path 7021" d="M148.327,226.345l-3.136,11.762a.463.463,0,0,0,.384.635l5.073.784c.345.047,1-.047,1.082-.376l3.136-11.762c.086-.329-.447-.69-.784-.745l-5.073-.784a.627.627,0,0,0-.682.486Z" transform="translate(-96.701 -205.797)" fill="#fff" opacity="0.5"/>
      <path id="Path_7022" data-name="Path 7022" d="M132.349,276.057l-23.892,1.568s-.172-6.406-1-12.326a41.992,41.992,0,0,0-1.231-6.085c-.619-2.039-1.4-4.328-2.352-6.986-.118-.329-.243-.659-.376-1-.314-.823-.635-1.686-1-2.588V248.6a3.536,3.536,0,0,1,2.564-4.7c1.521-.321,3.05-.612,4.6-.855l1.341-.2a92.016,92.016,0,0,1,10.805-.964c1.874,0,3.874.055,5.583.133l1.419.071c1.811.11,3.066.22,3.066.22s.784.157,1.247,4.36c0,.2.047.439.071.682.063.87.11,1.968.133,3.285C133.376,256.039,133.086,265.088,132.349,276.057Z" transform="translate(-87.442 -209.254)" fill="#9676ff"/>
      <path id="Path_7023" data-name="Path 7023" d="M127.018,257.56a12.7,12.7,0,0,0,6.916,3.027s.369,7.692-5.575,11.809c0,0-6.038-1.78-8.139-10.194C120.22,262.178,125.536,260.32,127.018,257.56Z" transform="translate(-91.317 -212.641)" fill="#fff" opacity="0.4"/>
      <path id="Path_7024" data-name="Path 7024" d="M127.442,259c-1.568,1.976-4.65,3.38-6.022,3.921,1.8,6.273,5.857,8.367,7.057,8.861,4.242-3.176,4.83-8.445,4.9-10.256A13.981,13.981,0,0,1,127.442,259Zm.784,8.037a.423.423,0,0,1-.282.165h0a.384.384,0,0,1-.282-.1l-2.548-2.352a.392.392,0,0,1,.533-.572l2.219,2.062,2.266-3.184a.392.392,0,0,1,.635.447Z" transform="translate(-91.577 -212.952)" fill="#fff" opacity="0.4"/>
      <path id="Path_7025" data-name="Path 7025" d="M134.11,247.428l3.442-4.7s2.352-6.822,2.878-7.488,6.147.925,6.775,1.027-1.106,7.057-1.874,7.645-3.223.643-3.223.643l-5.183,6.148Z" transform="translate(-94.316 -207.786)" fill="#ebb376"/>
      <path id="Path_7026" data-name="Path 7026" d="M102.088,245.509a4.556,4.556,0,0,1,6.626.949c3.772,5.41,8.578,10.546,9.339,10.978,1.1.635,3.513-1.153,10.852-10.774l3.921,2.352s-9.935,16.678-13.048,15.98c-6.03-1.349-14.318-7.057-18.576-13.33a4.556,4.556,0,0,1,.9-6.108Z" transform="translate(-87.041 -209.819)" fill="#ebb376"/>
      <path id="Path_7027" data-name="Path 7027" d="M130.788,242.054c0,3.074-1.066,8.272-7.739,8.272-4.948,0-9.409-4.8-11.409-7.308l1.341-.2a92.02,92.02,0,0,1,10.805-.964c1.874,0,3.874.055,5.583.133Z" transform="translate(-89.465 -209.25)" fill="#ebb376"/>
    </g>
  </g>
</svg>
