<svg xmlns="http://www.w3.org/2000/svg" width="259.331" height="261.024" viewBox="0 0 259.331 261.024">
  <g id="Questions-cuate" transform="translate(-38.37 -35.177)">
    <g id="freepik--background-complete--inject-96" transform="translate(41.648 35.737)">
      <rect id="Rectangle_2509" data-name="Rectangle 2509" width="102.094" height="4.479" transform="translate(110.004 56.601) rotate(180)" fill="#ebebeb"/>
      <rect id="Rectangle_2510" data-name="Rectangle 2510" width="4.479" height="14.809" transform="translate(99.797 56.607)" fill="#ebebeb"/>
      <rect id="Rectangle_2511" data-name="Rectangle 2511" width="4.479" height="4.577" transform="translate(99.797 56.607)" fill="#dbdbdb"/>
      <rect id="Rectangle_2512" data-name="Rectangle 2512" width="4.479" height="14.809" transform="translate(13.626 56.607)" fill="#ebebeb"/>
      <rect id="Rectangle_2513" data-name="Rectangle 2513" width="4.479" height="4.577" transform="translate(13.626 56.607)" fill="#dbdbdb"/>
      <rect id="Rectangle_2514" data-name="Rectangle 2514" width="28.533" height="7.187" transform="translate(90.943 23.595) rotate(90)" fill="#c7c7c7"/>
      <rect id="Rectangle_2515" data-name="Rectangle 2515" width="3.137" height="7.187" transform="translate(90.943 22.069) rotate(90)" fill="#dbdbdb"/>
      <rect id="Rectangle_2516" data-name="Rectangle 2516" width="1.164" height="7.187" transform="translate(90.943 29.22) rotate(90)" fill="#dbdbdb"/>
      <rect id="Rectangle_2517" data-name="Rectangle 2517" width="3.137" height="8.082" transform="translate(90.943 45.248) rotate(90)" fill="#dbdbdb"/>
      <rect id="Rectangle_2518" data-name="Rectangle 2518" width="33.288" height="5.024" transform="translate(83.756 18.841) rotate(90)" fill="#dbdbdb"/>
      <rect id="Rectangle_2519" data-name="Rectangle 2519" width="12.799" height="3.014" transform="translate(82.776 21.971) rotate(90)" fill="#ebebeb"/>
      <rect id="Rectangle_2520" data-name="Rectangle 2520" width="33.288" height="5.024" transform="matrix(-0.711, 0.703, -0.703, -0.711, 70.217, 28.738)" fill="#c7c7c7"/>
      <rect id="Rectangle_2521" data-name="Rectangle 2521" width="12.799" height="3.014" transform="matrix(-0.711, 0.703, -0.703, -0.711, 60.48, 36.924)" fill="#dbdbdb"/>
      <rect id="Rectangle_2522" data-name="Rectangle 2522" width="25.28" height="8.529" transform="translate(78.738 26.849) rotate(90)" fill="#a6a6a6"/>
      <rect id="Rectangle_2523" data-name="Rectangle 2523" width="2.359" height="8.529" transform="translate(78.738 47.098) rotate(90)" fill="#c7c7c7"/>
      <rect id="Rectangle_2524" data-name="Rectangle 2524" width="0.913" height="8.529" transform="translate(78.738 44.635) rotate(90)" fill="#c7c7c7"/>
      <rect id="Rectangle_2525" data-name="Rectangle 2525" width="23.761" height="5.888" transform="translate(96.837 28.374) rotate(90)" fill="#a6a6a6"/>
      <rect id="Rectangle_2526" data-name="Rectangle 2526" width="2.212" height="5.888" transform="translate(96.837 47.398) rotate(90)" fill="#c7c7c7"/>
      <rect id="Rectangle_2527" data-name="Rectangle 2527" width="2.212" height="5.888" transform="translate(96.837 33.27) rotate(90)" fill="#c7c7c7"/>
      <rect id="Rectangle_2528" data-name="Rectangle 2528" width="0.858" height="5.888" transform="translate(96.831 37.001) rotate(90)" fill="#c7c7c7"/>
      <path id="Path_6102" data-name="Path 6102" d="M89.956,71.481c5.024,4.9,5.87,12.536,4.81,19.2,0,.147-.263.11-.263-.037,0-1.513.049-3.021.043-4.516a.518.518,0,0,0-.08-.2A10.128,10.128,0,0,1,91.2,82.418a47.189,47.189,0,0,1-1.807-5.239c-.061-.165.116-.116.227-.031,3.063,2.255,4.032,4.681,4.9,7.922a27.229,27.229,0,0,0-.533-5.049,17.211,17.211,0,0,0-4.166-8.406.1.1,0,0,1,.135-.135Z" transform="translate(-61.404 -49.791)" fill="#a6a6a6"/>
      <path id="Path_6103" data-name="Path 6103" d="M85.9,69.573c-.87,0-1.409,1.409-2.083,1.838a.649.649,0,0,1-.956-.153c-.668-.931.251-2.077,1.109-2.72a9.43,9.43,0,0,1-1.789.772.613.613,0,0,1-.809-.484c-.294-1.268,1.3-1.838,2.4-1.838-.533-.368-2.053-1.366-1.225-1.838s2.6.937,3.18,1.409c.858.692,1.875,1.734,1.918,2.818C87.666,70.615,86.557,69.837,85.9,69.573Z" transform="translate(-58.287 -47.308)" fill="#dbdbdb"/>
      <path id="Path_6104" data-name="Path 6104" d="M86.922,70.5c-1.1-.509-3.229.221-3.407-.2-.368-.852,1.33-1.434,2.249-1.55-.846-.227-2.451-.613-2.414-1.4.061-.993,2.481-.141,3.707.8,1.538,1.183,1.532,2.328,1.274,2.555C87.982,71.013,87.105,70.584,86.922,70.5Z" transform="translate(-59.068 -48.025)" fill="#ebebeb"/>
      <path id="Path_6105" data-name="Path 6105" d="M105.36,70.68c-5.208,4.724-6.341,12.3-5.514,18.994,0,.153.257.123.263,0,.055-1.513.067-3.021.129-4.516l.086-.2a10.048,10.048,0,0,0,3.394-3.376,47.155,47.155,0,0,0,2.01-5.165c.067-.165-.11-.123-.227-.043-3.143,2.138-4.209,4.528-5.208,7.732a27.143,27.143,0,0,1,.723-5.024,17.211,17.211,0,0,1,4.5-8.247.108.108,0,0,0-.153-.153Z" transform="translate(-65.363 -49.474)" fill="#a6a6a6"/>
      <path id="Path_6106" data-name="Path 6106" d="M109.416,68.869c.864.061,1.354,1.464,2.01,1.893a.649.649,0,0,0,.962-.116c.7-.907-.172-2.089-1-2.763a9.693,9.693,0,0,0,1.758.895.613.613,0,0,0,.827-.453c.337-1.262-1.225-1.887-2.322-1.955.539-.349,2.1-1.293,1.311-1.838s-2.622.852-3.235,1.311c-.882.662-1.936,1.66-2.016,2.739C107.608,69.843,108.742,69.108,109.416,68.869Z" transform="translate(-68.5 -47.057)" fill="#dbdbdb"/>
      <path id="Path_6107" data-name="Path 6107" d="M109.111,69.8c1.127-.46,3.217.343,3.413-.067.4-.833-1.274-1.483-2.181-1.63.852-.2,2.451-.5,2.451-1.317,0-.993-2.451-.233-3.731.662-1.581,1.121-1.618,2.261-1.372,2.5C108.032,70.282,108.927,69.89,109.111,69.8Z" transform="translate(-68.452 -47.796)" fill="#ebebeb"/>
      <path id="Path_6108" data-name="Path 6108" d="M97.715,79.894A50.242,50.242,0,0,1,96.1,87.363a.184.184,0,0,1-.361-.074c.343-2.3.968-4.565,1.305-6.862a34.409,34.409,0,0,0,.4-7.052c-.221-3.878-1.274-8.008-3.8-11.029-.055-.074.061-.178.116-.11,5.073,5.913,4.289,13.161,4.289,13.81C98.763,73.6,99.5,70.8,102.219,68.3c.116-.11.208-.055.19.129-.484,4.534-1.746,6.905-4.381,9.331C97.924,78.467,97.832,79.184,97.715,79.894Z" transform="translate(-63.049 -46.208)" fill="#a6a6a6"/>
      <path id="Path_6109" data-name="Path 6109" d="M90.807,59.544c-.913-.4-2.169.754-3.063.833a.747.747,0,0,1-.913-.613c-.227-1.3,1.305-2.034,2.518-2.267a11.263,11.263,0,0,1-2.273-.043.723.723,0,0,1-.613-.913c.337-1.464,2.273-1.225,3.425-.729-.368-.613-1.44-2.451-.355-2.555s2.23,2.279,2.592,3.063c.539,1.152,1.078,2.739.57,3.885C92.124,61.517,91.365,60.151,90.807,59.544Z" transform="translate(-60.264 -42.738)" fill="#dbdbdb"/>
      <path id="Path_6110" data-name="Path 6110" d="M91.647,60.713c-.895-1.072-3.462-1.391-3.437-1.918.049-1.066,2.1-.821,3.113-.478-.76-.662-2.255-1.838-1.8-2.671.564-1,2.641,1.1,3.443,2.7,1,2,.417,3.18.037,3.29C92.487,61.779,91.794,60.9,91.647,60.713Z" transform="translate(-60.951 -43.564)" fill="#ebebeb"/>
      <path id="Path_6111" data-name="Path 6111" d="M98.562,93.278,100.8,110.36H87.19C87.472,108.847,90,93.26,90,93.26Z" transform="translate(-60.556 -58.232)" fill="#dbdbdb"/>
      <path id="Path_6112" data-name="Path 6112" d="M368.747,85.162a12.4,12.4,0,0,1,1.985-4.369,7.687,7.687,0,0,1,4.326-2.671c.613-.184,1.33-.38,2.193-.613a16.175,16.175,0,0,0,2.6-.87,8.462,8.462,0,0,0,2.334-1.489,4.614,4.614,0,0,0,1.4-2.383,4.326,4.326,0,0,0,.067-2.028,4.558,4.558,0,0,0-.735-1.679,4.687,4.687,0,0,0-1.372-1.262,6.2,6.2,0,0,0-1.777-.747,5.441,5.441,0,0,0-2.206-.1,7.451,7.451,0,0,0-1.936.564,8.408,8.408,0,0,0-1.691,1.011,15.88,15.88,0,0,0-1.379,1.176l-3.737-4.289a10.415,10.415,0,0,1,2.512-2.414A11.3,11.3,0,0,1,374.4,61.53a12.443,12.443,0,0,1,3.419-.521,13.479,13.479,0,0,1,3.548.423,14.14,14.14,0,0,1,3.756,1.55,10.207,10.207,0,0,1,3,2.7,9.675,9.675,0,0,1,1.691,3.829,10.686,10.686,0,0,1-.208,4.9,10.348,10.348,0,0,1-1.127,2.843,8.449,8.449,0,0,1-1.7,2.034,10.312,10.312,0,0,1-2.187,1.44,19.929,19.929,0,0,1-2.641,1.048c-.8.245-1.593.466-2.383.674a12.811,12.811,0,0,0-2.218.8,6.372,6.372,0,0,0-1.838,1.262,4.4,4.4,0,0,0-1.1,2.071ZM365.8,97.312l1.807-7.181,5.778,1.452-1.807,7.181Z" transform="translate(-168.462 -45.741)" fill="#ebebeb"/>
      <path id="Path_6113" data-name="Path 6113" d="M66.4,312.083a9.123,9.123,0,0,1,.1,3.535,5.8,5.8,0,0,1-1.985,3.174c-.343.313-.766.68-1.268,1.1a11.6,11.6,0,0,0-1.44,1.415,6.182,6.182,0,0,0-1.072,1.74,3.413,3.413,0,0,0-.159,2.034,3.284,3.284,0,0,0,.613,1.372,3.413,3.413,0,0,0,1.029.876,3.5,3.5,0,0,0,1.317.386,4.6,4.6,0,0,0,1.421-.074,4.068,4.068,0,0,0,1.489-.613,5.386,5.386,0,0,0,1.1-1,6.421,6.421,0,0,0,.8-1.225,10.49,10.49,0,0,0,.533-1.225l3.86,1.618a7.72,7.72,0,0,1-.895,2.414,8.24,8.24,0,0,1-1.569,1.967,8.915,8.915,0,0,1-2.1,1.452,10.049,10.049,0,0,1-2.488.864,10.415,10.415,0,0,1-2.99.19,7.548,7.548,0,0,1-2.861-.815,7.211,7.211,0,0,1-2.365-2,7.91,7.91,0,0,1-1.44-3.315,7.5,7.5,0,0,1-.172-2.249,6.127,6.127,0,0,1,.472-1.9,7.248,7.248,0,0,1,.986-1.66,14.087,14.087,0,0,1,1.409-1.556c.453-.417.907-.821,1.366-1.225a9.7,9.7,0,0,0,1.225-1.225,4.62,4.62,0,0,0,.747-1.428,3.217,3.217,0,0,0,.061-1.734Zm-1.973-9.013,1.121,5.349-4.289.9-1.121-5.343Z" transform="translate(-48.412 -139.491)" fill="#ebebeb"/>
      <path id="Path_6114" data-name="Path 6114" d="M382.28,223.9a9.19,9.19,0,0,1,1.562,3.174,5.809,5.809,0,0,1-.509,3.719c-.178.429-.41.937-.692,1.526a11.16,11.16,0,0,0-.723,1.887,6.17,6.17,0,0,0-.251,2.028,3.468,3.468,0,0,0,.7,1.918,3.21,3.21,0,0,0,1.127.986,3.369,3.369,0,0,0,1.305.368,3.407,3.407,0,0,0,1.36-.19,4.737,4.737,0,0,0,1.256-.662,3.971,3.971,0,0,0,1.1-1.176,5.293,5.293,0,0,0,.613-1.372,6.706,6.706,0,0,0,.214-1.44,11.641,11.641,0,0,0,0-1.33l4.179-.135a7.58,7.58,0,0,1,.2,2.561,8.417,8.417,0,0,1-.613,2.451,9.127,9.127,0,0,1-1.311,2.193,10.11,10.11,0,0,1-1.9,1.838,10.379,10.379,0,0,1-2.647,1.415,7.573,7.573,0,0,1-2.941.447,7.261,7.261,0,0,1-2.978-.827,7.965,7.965,0,0,1-2.69-2.42,7.518,7.518,0,0,1-1.091-1.973,6.065,6.065,0,0,1-.361-1.924,7.313,7.313,0,0,1,.2-1.924,14.7,14.7,0,0,1,.643-2c.239-.57.478-1.127.735-1.673a9.193,9.193,0,0,0,.613-1.636,4.737,4.737,0,0,0,.135-1.624,3.223,3.223,0,0,0-.668-1.6Zm-5.514-7.352,3.241,4.393-3.535,2.61-3.241-4.393Z" transform="translate(-171.339 -105.982)" fill="#ebebeb"/>
      <path id="Path_6115" data-name="Path 6115" d="M418.388,197.144a9.968,9.968,0,0,1,.7-3.829,6.323,6.323,0,0,1,2.867-2.959c.435-.263.974-.558,1.611-.895a12.63,12.63,0,0,0,1.838-1.195,6.606,6.606,0,0,0,1.544-1.63,3.75,3.75,0,0,0,.613-2.157A3.541,3.541,0,0,0,426.3,181.7a3.731,3.731,0,0,0-1.323-.717,5.141,5.141,0,0,0-1.544-.239,4.54,4.54,0,0,0-1.74.325,6.219,6.219,0,0,0-1.415.827,6.839,6.839,0,0,0-1.134,1.133,12.141,12.141,0,0,0-.846,1.195l-3.786-2.61a8.515,8.515,0,0,1,1.5-2.4,9.323,9.323,0,0,1,2.132-1.758,10.134,10.134,0,0,1,2.592-1.091A11.152,11.152,0,0,1,423.6,176a11.421,11.421,0,0,1,3.266.478A8.253,8.253,0,0,1,429.76,178a7.966,7.966,0,0,1,2.089,2.671,8.793,8.793,0,0,1,.852,3.9,8.523,8.523,0,0,1-.325,2.451,7,7,0,0,1-.937,1.936,8.051,8.051,0,0,1-1.434,1.562,16.057,16.057,0,0,1-1.875,1.348c-.576.349-1.158.686-1.74,1a10.553,10.553,0,0,0-1.587,1.066,5.085,5.085,0,0,0-1.17,1.348,3.511,3.511,0,0,0-.459,1.838Zm.086,10.134v-6H423.3v6Z" transform="translate(-187.327 -90.277)" fill="#ebebeb"/>
      <path id="Path_6116" data-name="Path 6116" d="M169.936,253.4a10,10,0,0,1-.11-3.891,6.317,6.317,0,0,1,2.193-3.486c.374-.349.833-.747,1.391-1.225a14,14,0,0,0,1.581-1.556,6.948,6.948,0,0,0,1.17-1.918,3.737,3.737,0,0,0,.172-2.236,3.584,3.584,0,0,0-.674-1.507,3.677,3.677,0,0,0-1.14-.919,3.75,3.75,0,0,0-1.446-.429,5.287,5.287,0,0,0-1.556.086,4.571,4.571,0,0,0-1.636.68,6.171,6.171,0,0,0-1.225,1.1,7.083,7.083,0,0,0-.87,1.342,11.944,11.944,0,0,0-.613,1.348L163,239a8.5,8.5,0,0,1,.974-2.653,9.05,9.05,0,0,1,1.722-2.163,9.878,9.878,0,0,1,2.3-1.605,11.465,11.465,0,0,1,2.733-.956,11.592,11.592,0,0,1,3.29-.208,8.321,8.321,0,0,1,3.143.888,7.837,7.837,0,0,1,2.6,2.187,9.626,9.626,0,0,1,1.789,6.127,6.887,6.887,0,0,1-.515,2.083,8.131,8.131,0,0,1-1.078,1.838,17.014,17.014,0,0,1-1.55,1.709c-.5.46-.993.907-1.495,1.336a10.8,10.8,0,0,0-1.336,1.372,5.325,5.325,0,0,0-.87,1.562,3.6,3.6,0,0,0-.061,1.905Zm2.187,9.9-1.225-5.87,4.724-1,1.225,5.876Z" transform="translate(-89.917 -111.726)" fill="#ebebeb"/>
      <path id="Path_6117" data-name="Path 6117" d="M414.685,340.362l8.186-.172,4.032-.067c1.342-.031,2.671,0,4.007-.037l-.27.276-.037-6.856.306.306-8.131-.037c-2.7,0-5.4-.074-8.112-.1l.172-.165c0,1.121-.055,2.249-.086,3.394Zm0,0-.086-3.394c0-1.14-.067-2.3-.08-3.462v-.165h.165c2.708-.031,5.41-.1,8.112-.1l8.112-.037h.306v7.438h-.276c-1.366,0-2.739,0-4.1-.037l-4.081-.067Z" transform="translate(-187.331 -151.161)" fill="#ebebeb"/>
      <path id="Path_6118" data-name="Path 6118" d="M429.455,354.473l8.186-.172,4.032-.067c1.342-.031,2.671,0,4.007-.037l-.27.276-.031-6.856.3.306-8.112-.037c-2.7,0-5.4-.073-8.112-.1l.172-.165c0,1.121-.055,2.249-.08,3.394Zm0,0-.086-3.394c0-1.14-.067-2.3-.08-3.462v-.165h.165c2.708-.031,5.41-.1,8.112-.1l8.112-.037h.313v.306l-.037,6.856v.276h-.3c-1.366,0-2.733,0-4.1-.037l-4.081-.067Z" transform="translate(-193.051 -156.626)" fill="#ebebeb"/>
      <path id="Path_6119" data-name="Path 6119" d="M399.9,354.473l8.186-.172,4.032-.067c1.336-.031,2.671,0,4.007-.037l-.27.276-.024-6.856.306.306-8.112-.037c-2.7,0-5.41-.074-8.112-.1l.165-.165c0,1.121-.049,2.249-.08,3.394Zm0,0-.086-3.394c-.031-1.14-.067-2.3-.08-3.462v-.165h.165c2.7-.031,5.41-.1,8.112-.1l8.112-.037h.306v.306l.012,6.856v.276h-.27c-1.366,0-2.739,0-4.1-.037l-4.081-.067Z" transform="translate(-181.603 -156.626)" fill="#ebebeb"/>
      <path id="Path_6120" data-name="Path 6120" d="M58.622,354.473l8.18-.172,4.032-.067c1.342-.031,2.677,0,4.013-.037l-.276.276-.031-6.856.306.306-8.094-.037c-2.708,0-5.41-.074-8.112-.1l.165-.165c0,1.121-.055,2.249-.08,3.394Zm0,0-.092-3.394c0-1.14-.067-2.3-.08-3.462v-.165h.172c2.7-.031,5.4-.1,8.112-.1l8.112-.037h.306v.306l-.037,6.856v.276h-.27c-1.366,0-2.739,0-4.105-.037l-4.081-.067Z" transform="translate(-49.425 -156.626)" fill="#ebebeb"/>
      <path id="Path_6121" data-name="Path 6121" d="M58.622,43.246l8.18-.172L70.833,43h4.013l-.276.276-.031-6.856.306.3-8.094-.074c-2.708,0-5.41-.067-8.112-.1l.165-.165c0,1.121-.055,2.249-.08,3.388Zm0,0-.092-3.394c0-1.146-.067-2.3-.08-3.462v-.165h.172c2.7,0,5.4-.1,8.112-.1l8.112-.037h.306V36.4l-.037,6.856v.27h-.27c-1.366,0-2.739,0-4.105-.031l-4.081-.11Z" transform="translate(-49.425 -36.09)" fill="#ebebeb"/>
      <path id="Path_6122" data-name="Path 6122" d="M43.892,57.356l8.18-.172,4.032-.074h4.013l-.276.276V50.531l.306.3-8.167-.067c-2.708,0-5.41-.074-8.088-.074l.165-.165c0,1.121-.055,2.249-.08,3.388Zm0,0L43.8,53.962c0-1.146-.067-2.3-.08-3.462v-.165h.172c2.7,0,5.4-.1,8.112-.1l8.112-.037h.306v.312l-.037,6.856v.27H56.011l-4.081-.074Z" transform="translate(-43.72 -41.555)" fill="#ebebeb"/>
      <path id="Path_6123" data-name="Path 6123" d="M429.455,43.252l8.186-.172,4.032-.067c1.342,0,2.671,0,4.007-.037l-.27.276L445.38,36.4l.3.306-8.112-.055c-2.7,0-5.4-.067-8.112-.1l.172-.165c0,1.121-.055,2.249-.08,3.388Zm0,0-.086-3.394c0-1.146-.067-2.3-.08-3.462v-.165h.165c2.708-.031,5.41-.092,8.112-.1l8.088-.043h.313V36.4l-.031,6.856v.276h-4.381l-4.081-.067Z" transform="translate(-193.051 -36.09)" fill="#ebebeb"/>
      <path id="Path_6124" data-name="Path 6124" d="M275.761,192.648l-8.18.172-4.032.067c-1.342.031-2.677,0-4.013.037l.276-.276.031,6.856-.306-.306,8.112.043c2.708,0,5.41.067,8.112.1l-.165.165c0-1.121.055-2.249.08-3.388Zm0,0,.092,3.394c0,1.146.067,2.3.08,3.462v.165h-.172c-2.7,0-5.4.092-8.112.1l-8.112.037h-.306v-.312l.037-6.856v-.276h.27c1.366,0,2.739,0,4.105.031l4.081.067Z" transform="translate(-127.187 -96.613)" fill="#ebebeb"/>
      <path id="Path_6125" data-name="Path 6125" d="M260.987,178.542l-8.18.172-4.032.067c-1.342,0-2.677,0-4.013.037l.276-.276.031,6.856-.306-.306,8.112.043c2.7,0,5.41.067,8.112.1l-.165.165c0-1.121.049-2.249.08-3.388Zm0,0,.086,3.394c.031,1.146.074,2.3.08,3.462v.165h-.172c-2.7.031-5.41.092-8.112.1l-8.112.037h-.306v-.306l.037-6.856v-.276h.3c1.366,0,2.739,0,4.105.031l4.081.067Z" transform="translate(-121.463 -91.152)" fill="#ebebeb"/>
    </g>
    <g id="freepik--Floor--inject-96" transform="translate(38.37 264.231)">
      <path id="Path_6126" data-name="Path 6126" d="M38.37,409.326l32.418-.147,32.418-.055,64.83-.1,64.83.1,32.418.055,32.418.147-32.418.153-32.418.055-64.83.1-64.83-.1-32.418-.055Z" transform="translate(-38.37 -409.02)" fill="#263238"/>
    </g>
    <g id="freepik--Shadow--inject-96" transform="translate(57.511 274.683)">
      <ellipse id="Ellipse_453" data-name="Ellipse 453" cx="110.525" cy="10.759" rx="110.525" ry="10.759" transform="translate(0 0)" fill="#ebebeb"/>
    </g>
    <g id="freepik--Plant--inject-96" transform="translate(222.946 176.889)">
      <path id="Path_6127" data-name="Path 6127" d="M414.521,296.8c-2.328-2.279-5.337-5.036-8.9-4.05-3.345.925-4.626,4.577-5.226,7.622-.772,3.927-1.372,7.885-2,11.837s-1.225,7.965-1.8,11.978q-.49,3.382-.956,6.77-.239,1.691-.472,3.382c-.153,1.109-.337,2.218-.4,3.333a.312.312,0,0,0,.613.067c.435-1.881.613-3.842.888-5.747s.558-3.848.833-5.766c.558-3.817,1.14-7.628,1.709-11.445s1.17-7.622,1.783-11.433c.515-3.235.76-7.248,3.621-9.38a5.557,5.557,0,0,1,5.361-.5,16.159,16.159,0,0,1,4.865,3.407C414.521,296.916,414.582,296.849,414.521,296.8Z" transform="translate(-360.983 -276.567)" fill="#263238"/>
      <path id="Path_6128" data-name="Path 6128" d="M416.9,291.438s-4.761-1.709-7.107,1.758.46,12.3,22.118,17.284a61.044,61.044,0,0,0-5.208-19.576C422.062,280.777,413.785,284.612,416.9,291.438Z" transform="translate(-366.533 -273.534)" fill="#9676ff"/>
      <path id="Path_6129" data-name="Path 6129" d="M434.024,313.085a16.7,16.7,0,0,0-1.091-1.752c-.361-.558-.729-1.115-1.1-1.667-.276-.417-.564-.833-.846-1.225a.894.894,0,0,1,.037-.306l.074-.564c.055-.4.116-.815.172-1.225s.129-.8.208-1.225a6.3,6.3,0,0,1,.282-1.274c0-.067-.086-.1-.092,0a4.833,4.833,0,0,1-.2.723l-.147.545c-.1.41-.2.821-.294,1.225s-.159.766-.227,1.146c-.031.19-.055.374-.08.558-.386-.551-.784-1.1-1.189-1.63-1.152-1.513-2.365-2.972-3.627-4.4v-.037a39.193,39.193,0,0,1,.564-6.74c0-.061-.073-.1-.092-.037a23.381,23.381,0,0,0-.809,6.476c-.447-.5-.907-1-1.366-1.5-1.06-1.133-2.132-2.255-3.229-3.345-.043-.043-.116,0-.074.067,1.838,1.967,3.56,4.013,5.251,6.1a37.205,37.205,0,0,0-3.964.147c-1.464.1-2.923.294-4.381.5-.067,0-.049.1,0,.1a38.676,38.676,0,0,1,4.375-.392c1.415-.061,2.818,0,4.234,0q1.372,1.691,2.7,3.419h-1.176c-.662,0-1.317.061-1.973.116a29.31,29.31,0,0,0-4,.613.049.049,0,0,0,0,.1c1.33-.153,2.665-.276,4-.325h2.965a1.225,1.225,0,0,0,.545-.049q.87,1.134,1.74,2.273.689.919,1.36,1.838c.447.613.87,1.317,1.372,1.905C433.981,313.189,434.049,313.134,434.024,313.085Z" transform="translate(-369.887 -277.584)" fill="#263238"/>
      <path id="Path_6130" data-name="Path 6130" d="M422.248,303.646a14.632,14.632,0,0,0-2.316-.11c-.772,0-1.55,0-2.322.049a.049.049,0,0,0,0,.1c.784-.061,1.569-.074,2.353-.061s1.519.086,2.273.061C422.272,303.682,422.272,303.652,422.248,303.646Z" transform="translate(-369.807 -280.822)" fill="#263238"/>
      <path id="Path_6131" data-name="Path 6131" d="M436.085,305.141c.086-.741.178-1.483.337-2.212a.049.049,0,1,0-.1,0c-.11.729-.251,1.452-.355,2.181-.055.361-.1.729-.153,1.091a5.368,5.368,0,0,0-.086,1.035.067.067,0,0,0,.129,0,6.531,6.531,0,0,0,.11-1.035C436,305.845,436.042,305.49,436.085,305.141Z" transform="translate(-376.843 -280.571)" fill="#263238"/>
      <path id="Path_6132" data-name="Path 6132" d="M433.516,293.17c-.19.723-.38,1.452-.509,2.181-.067.374-.129.747-.178,1.121a4.7,4.7,0,0,0-.074,1.1.031.031,0,0,0,.061,0,5.946,5.946,0,0,0,.165-1.042c.049-.361.1-.717.165-1.078.135-.754.27-1.5.46-2.242C433.614,293.146,433.516,293.109,433.516,293.17Z" transform="translate(-375.689 -276.798)" fill="#263238"/>
      <path id="Path_6133" data-name="Path 6133" d="M381.26,348.239c-.123-1.36-.257-2.727-.4-4.087q-.435-4.044-.974-8.082c-.361-2.677-.7-5.367-1.14-8.039a19.515,19.515,0,0,0-.827-3.676,3.462,3.462,0,0,0-2.022-2.285c-2.549-.876-4.289,1.765-5.294,3.633-.031.055.049.1.086.049.613-.888,2.316-3.37,4.252-3.253,1.3.074,2.341,1,2.965,4.24,1.556,8.082,2.959,24.508,3.125,25.556.086.57.484.545.49-.067C381.5,350.917,381.346,349.575,381.26,348.239Z" transform="translate(-351.618 -287.936)" fill="#263238"/>
      <path id="Path_6134" data-name="Path 6134" d="M364.612,323.337s2.23-7.867-2.7-3.934c-8.2,6.55-8.486,20.771-8.486,20.771s14.57-8.461,16.378-14.043C372.509,317.835,364.612,323.337,364.612,323.337Z" transform="translate(-344.969 -286.544)" fill="#9676ff"/>
      <path id="Path_6135" data-name="Path 6135" d="M367.942,329.751c-1.14.233-2.3.386-3.456.551l-1.642.233c-.368.049-.741.086-1.115.129,1.085-1.495,2.181-2.984,3.223-4.509a.061.061,0,1,0-.1-.074,33.355,33.355,0,0,0-2.451,2.812l-.649-1.838c-.245-.7-.515-1.4-.692-2.132,0-.061-.11,0-.092.031.2.717.337,1.458.533,2.181s.4,1.385.643,2.065c-.533.692-1.048,1.4-1.544,2.12-.251-.711-.564-1.4-.778-2.12,0-.061-.116-.031-.1,0,.263.8.4,1.63.649,2.451-.337.49-.668.98-.986,1.47-.613.913-1.146,1.838-1.685,2.769a.214.214,0,0,0-.129.221c-.919,1.593-1.8,3.2-2.659,4.834a.049.049,0,0,0,.086.049c.864-1.611,1.838-3.18,2.825-4.718h0a1.9,1.9,0,0,1,.478-.092l.5-.11c.374-.08.747-.178,1.121-.27.741-.184,1.47-.361,2.224-.49.061,0,.031-.1,0-.092-.882.165-1.765.27-2.659.368-.423.049-.839.1-1.256.172h-.061q.778-1.189,1.593-2.365c.527-.766,1.072-1.526,1.618-2.285.508-.067,1-.2,1.507-.294l1.691-.331c1.127-.227,2.255-.478,3.388-.662C368.034,329.862,368,329.739,367.942,329.751Z" transform="translate(-345.542 -289.098)" fill="#263238"/>
      <path id="Path_6136" data-name="Path 6136" d="M361.494,332.844c-.067-.208-.129-.417-.2-.613a12.308,12.308,0,0,1-.337-1.323c0-.061-.1-.031-.092,0,.1.447.2.888.3,1.33a7.963,7.963,0,0,0,.38,1.305.092.092,0,0,0,.172-.049C361.654,333.285,361.562,333.064,361.494,332.844Z" transform="translate(-347.85 -291.412)" fill="#263238"/>
      <path id="Path_6137" data-name="Path 6137" d="M376.064,329.85c-.662.1-1.33.147-2,.208s-1.33.147-2,.251c-.037,0-.037.061,0,.055.668-.043,1.336-.1,2-.184s1.33-.184,2-.233C376.131,329.942,376.125,329.844,376.064,329.85Z" transform="translate(-352.174 -291.016)" fill="#263238"/>
      <path id="Path_6138" data-name="Path 6138" d="M389.246,321.717c-.263-5.79-.613-11.574-1.225-17.339-.288-2.874-.613-5.741-1.017-8.578a60.314,60.314,0,0,0-1.66-8.327,16.028,16.028,0,0,0-2.769-5.87,6.3,6.3,0,0,0-5.6-2.451c-2.53.312-4.577,1.912-6.341,3.646-1.979,1.948-3.793,4.074-5.625,6.127-.466.527-.925,1.06-1.385,1.593-.037.049.031.116.073.067,1.8-2.059,3.676-4.062,5.606-5.974,1.8-1.771,3.676-3.676,6.127-4.436a6.409,6.409,0,0,1,3.578-.086,5.68,5.68,0,0,1,2.451,1.55A12.75,12.75,0,0,1,384.216,287c1.556,5.324,2.114,10.906,2.69,16.4s.986,11.182,1.268,16.794.5,11.28,1.048,16.9c.067.692.153,1.385.245,2.077.055.46.778.466.741,0C389.773,333.352,389.5,327.537,389.246,321.717Z" transform="translate(-348.912 -271.37)" fill="#263238"/>
      <path id="Path_6139" data-name="Path 6139" d="M361.034,280.9s3.309-6.127-.613-8.088-16.984,12.634-20.8,33.98c0,0,21.12-9.344,28.294-18.657S366.965,276.773,361.034,280.9Z" transform="translate(-339.62 -268.856)" fill="#9676ff"/>
      <path id="Path_6140" data-name="Path 6140" d="M366.206,290.373c-2.371,0-4.742-.178-7.113-.165l1.336-1.526a21.4,21.4,0,0,0,1.838-2.157c.031-.049-.037-.116-.086-.08a16.077,16.077,0,0,0-1.8,1.8c-.613.613-1.189,1.262-1.777,1.9-.907.986-1.8,1.979-2.684,2.984V289.2c0-1.63,0-3.272.123-4.9,0-.061-.092-.061-.1,0-.11,1.642-.282,3.272-.361,4.9-.037.809-.055,1.611-.067,2.42v1.924c-.135.159-.282.313-.417.466-1.893,2.169-3.676,4.405-5.453,6.685a1.594,1.594,0,0,0-.031-.38c0-.251-.055-.5-.08-.754-.061-.545-.135-1.084-.221-1.63s-.153-1.017-.239-1.526-.239-1.146-.282-1.722a.049.049,0,1,0-.092,0,16.611,16.611,0,0,1,.2,1.74l.147,1.568c.043.521.092,1.042.147,1.569l.074.754a2.6,2.6,0,0,0,.049.374.612.612,0,0,0,.1.3l-.9,1.176c-1.225,1.587-2.377,3.192-3.554,4.791-.037.049.037.116.074.067,1.115-1.452,2.261-2.88,3.419-4.289.87.037,1.758-.031,2.629-.043s1.838,0,2.745,0a.049.049,0,0,0,0-.1c-.919,0-1.838.031-2.751.037s-1.685-.037-2.518,0c1.017-1.225,2.053-2.451,3.063-3.707l1.2-1.348a5.564,5.564,0,0,0,1.06.037h1.225c.778,0,1.556,0,2.341-.031,1.611,0,3.223-.08,4.834-.086a.049.049,0,1,0,0-.092c-1.618,0-3.229-.092-4.84-.135-.784,0-1.562-.043-2.347-.055h-1.948l2.665-3.155a.147.147,0,0,0,.049-.055c.864-1.023,1.728-2.04,2.6-3.063.123-.135.245-.27.361-.411,2.451.074,4.9-.086,7.352-.037C366.273,290.471,366.273,290.373,366.206,290.373Z" transform="translate(-341.686 -273.357)" fill="#263238"/>
      <path id="Path_6141" data-name="Path 6141" d="M377.269,301.09h-.576a.043.043,0,0,0,0,.086h.57a.049.049,0,0,0,.006-.086Z" transform="translate(-353.962 -279.877)" fill="#263238"/>
      <path id="Path_6142" data-name="Path 6142" d="M372.719,301.041c-.76,0-1.52,0-2.279-.049l-1.134-.012a4.374,4.374,0,0,0-1.06,0,.037.037,0,0,0,0,.074,4.13,4.13,0,0,0,1.066.074h3.419C372.787,301.139,372.787,301.041,372.719,301.041Z" transform="translate(-350.693 -279.822)" fill="#263238"/>
      <path id="Path_6143" data-name="Path 6143" d="M361.785,312.473a30.7,30.7,0,0,0-4.675-.423v.031c1.556.147,3.106.233,4.65.484C361.822,312.577,361.846,312.479,361.785,312.473Z" transform="translate(-346.394 -284.122)" fill="#263238"/>
      <path id="Path_6144" data-name="Path 6144" d="M354,299.687a3.03,3.03,0,0,0-.049-.4c-.037-.306-.086-.613-.135-.913-.092-.582-.19-1.158-.3-1.74,0-.049-.1-.037-.1,0,.074.613.141,1.195.2,1.8l.073.882a2.518,2.518,0,0,0,.116.833.116.116,0,0,0,.208-.031A1.187,1.187,0,0,0,354,299.687Z" transform="translate(-344.965 -278.137)" fill="#263238"/>
      <path id="Path_6145" data-name="Path 6145" d="M399.823,271.3c-.76-1.409-1.722-3.266-3.609-3.149-1.556.1-2.261,1.685-2.592,3-1.029,4.062-1.1,8.351-1.3,12.517-.429,8.8-.809,17.615-.864,26.432v7.352c0,2.494,0,5,.172,7.487a.184.184,0,1,0,.368,0c0-2.132-.061-4.289-.067-6.4s0-4.16.037-6.243q.1-6.317.337-12.634c.159-4.185.343-8.369.521-12.554.086-2.089.178-4.185.27-6.274s.178-4.05.41-6.066c.129-1.134.294-2.261.533-3.37a4.662,4.662,0,0,1,.974-2.261,2.12,2.12,0,0,1,2.751-.2,5.808,5.808,0,0,1,1.955,2.451.072.072,0,1,0,.1-.1Z" transform="translate(-359.698 -267.116)" fill="#263238"/>
      <path id="Path_6146" data-name="Path 6146" d="M401.733,269.974s-1.55-5.478,1.881-2.739c5.71,4.558,5.913,14.478,5.913,14.478s-10.152-5.894-11.415-9.8C396.231,266.139,401.733,269.974,401.733,269.974Z" transform="translate(-362.122 -266.468)" fill="#9676ff"/>
      <path id="Path_6147" data-name="Path 6147" d="M408.992,280.139c-.092-.153-.19-.3-.288-.453a2.95,2.95,0,0,0,0-.466v-.7a13.123,13.123,0,0,1,.049-1.391.049.049,0,1,0-.1,0c0,.453-.043.913-.055,1.366v.974c-.4-.613-.809-1.225-1.225-1.838-.123-.178-.251-.349-.374-.521a9.693,9.693,0,0,1-.031-1.789c0-.613,0-1.274.037-1.912a.049.049,0,0,0-.1,0c0,.662-.049,1.323-.086,1.985a12.1,12.1,0,0,0-.037,1.415c-.98-1.33-2.022-2.616-3.064-3.9a.048.048,0,0,0-.074.061c.649.827,1.274,1.673,1.887,2.53-1.195-.282-2.408-.441-3.621-.613-.061,0-.086.086,0,.1,1.287.2,2.549.515,3.817.8h0c.484.686.968,1.372,1.44,2.065l.576.846H407.7l-.4-.055-.846-.074c-.582-.049-1.17-.08-1.758-.11-.061,0-.055.1,0,.1a16.146,16.146,0,0,1,1.722.116l.913.11.392.049h.116c.325.478.656.956.974,1.434.576.852,1.091,1.758,1.7,2.573a.049.049,0,0,0,.08-.049A25.7,25.7,0,0,0,408.992,280.139Z" transform="translate(-363.725 -268.956)" fill="#263238"/>
      <path id="Path_6148" data-name="Path 6148" d="M409.3,273.323v-.643a9.8,9.8,0,0,1,.055-1.342.049.049,0,1,0-.092,0c0,.447-.049.888-.073,1.33v.974a1.1,1.1,0,0,0,0,.319.043.043,0,0,0,.086,0,.946.946,0,0,0,0-.294Z" transform="translate(-366.561 -268.329)" fill="#263238"/>
      <path id="Path_6149" data-name="Path 6149" d="M405.8,278.165c-.38-.067-.766-.086-1.146-.116s-.833-.074-1.225-.129a.049.049,0,0,0,0,.1c.8.049,1.6.2,2.4.221C405.837,278.245,405.843,278.171,405.8,278.165Z" transform="translate(-364.314 -270.904)" fill="#263238"/>
      <path id="Path_6150" data-name="Path 6150" d="M412.517,278.337c.031.043,0,.165,0,.214v.944a.859.859,0,0,0,0,.331h.037a.35.35,0,0,0,0-.159,1.643,1.643,0,0,1,0-.178v-1.152C412.554,278.294,412.456,278.245,412.517,278.337Z" transform="translate(-367.845 -271.045)" fill="#263238"/>
      <path id="Path_6151" data-name="Path 6151" d="M394.456,318.457c-2.132-1.6-4.05-3.9-6.923-4.019-2.371-.092-4.032,1.691-4.981,3.676a21.241,21.241,0,0,0-1.158,3.278q-.643,2.242-1.225,4.516-1.109,4.467-1.9,9.007c-.288,1.685-.558,3.376-.772,5.073a43.452,43.452,0,0,0-.5,5.2.27.27,0,0,0,.533.061c.288-1.421.411-2.886.613-4.32s.429-2.886.668-4.32q.735-4.289,1.7-8.578c.613-2.69,1.225-5.416,2.077-8.033.613-1.875,1.618-4.062,3.646-4.736,3.064-1.023,5.876,1.581,8.131,3.278C394.437,318.567,394.5,318.494,394.456,318.457Z" transform="translate(-354.097 -285.046)" fill="#263238"/>
      <path id="Path_6152" data-name="Path 6152" d="M397.228,314.148s-1.973-5.618.876-6.74c4.289-1.648,15.428,10.924,13.24,30.188a109.757,109.757,0,0,1-14.993-10.1c-6.372-5.349-7.965-12.328-5.19-14.129S397.228,314.148,397.228,314.148Z" transform="translate(-359.075 -282.268)" fill="#9676ff"/>
      <path id="Path_6153" data-name="Path 6153" d="M413.629,337.234a14.765,14.765,0,0,0-1.035-1.942c-.368-.662-.735-1.317-1.115-1.967-.741-1.268-1.477-2.537-2.236-3.8l-.374-.613a1.475,1.475,0,0,1,.043-.227l.129-.558c.1-.417.172-.839.245-1.262.159-.821.3-1.654.521-2.451,0-.055-.08-.074-.092,0-.178.821-.441,1.636-.68,2.451-.123.4-.251.79-.355,1.195l-.11.411c-.913-1.5-1.838-3-2.855-4.442a2.047,2.047,0,0,0,.1-.613c.031-.282.061-.564.1-.846.074-.613.147-1.268.239-1.9.184-1.225.368-2.451.674-3.676,0-.061-.08-.08-.092,0-.312,1.225-.643,2.451-.876,3.676-.11.613-.221,1.225-.3,1.838-.037.306-.074.613-.1.919a.73.73,0,0,1-.037.276c-.306-.435-.613-.876-.937-1.3-.986-1.3-2.01-2.561-3.064-3.823-.037-.049-.123,0-.08.055a68.25,68.25,0,0,1,4.853,7.083l.839,1.366-.282-.037c-.362-.049-.723-.067-1.084-.1l-2.181-.19c-1.452-.116-2.91-.2-4.356-.355-.061,0-.08.086,0,.092,1.47.172,2.929.4,4.393.613.723.1,1.44.2,2.163.294a8.622,8.622,0,0,0,1.66.165c.57.931,1.146,1.838,1.716,2.782h-5.269c-.067,0-.055.092,0,.092.95,0,1.893.061,2.843.11l1.348.08.674.049a1.354,1.354,0,0,0,.613,0l1.458,2.365c.447.729.9,1.452,1.36,2.175a17.768,17.768,0,0,0,1.464,2.193C413.574,337.326,413.654,337.3,413.629,337.234Z" transform="translate(-362.646 -286.017)" fill="#263238"/>
      <path id="Path_6154" data-name="Path 6154" d="M415.532,324.621a13.533,13.533,0,0,1-.386,1.838c-.159.613-.337,1.225-.539,1.838a.061.061,0,1,0,.116.037c.19-.613.361-1.225.509-1.838s.245-1.225.4-1.869a.049.049,0,0,0-.1-.006Z" transform="translate(-368.661 -288.973)" fill="#263238"/>
      <path id="Path_6155" data-name="Path 6155" d="M401.982,330.267a.76.76,0,0,0-.472-.178l-.815-.11c-.5-.067-1.011-.123-1.513-.184-1.054-.123-2.1-.227-3.155-.355-.061,0-.08.086,0,.092.993.123,1.979.276,2.972.4l1.452.19.7.074a2.451,2.451,0,0,1,.8.141.043.043,0,0,0,.031-.074Z" transform="translate(-361.446 -290.857)" fill="#263238"/>
      <path id="Path_6156" data-name="Path 6156" d="M414.118,344.574c-.5-.043-1-.061-1.495-.074h-1.115a2.442,2.442,0,0,1-.472,0c-.067,0-.073.1,0,.092a2.125,2.125,0,0,1,.441,0h.392l.747.049c.5.031,1,.061,1.495.061C414.174,344.678,414.18,344.574,414.118,344.574Z" transform="translate(-367.259 -296.69)" fill="#263238"/>
      <path id="Path_6157" data-name="Path 6157" d="M420.872,339.481l.165-.846c.1-.558.2-1.115.306-1.667a.049.049,0,0,0-.1,0l-.368,1.624c-.061.27-.123.539-.178.809a1.682,1.682,0,0,1-.08.38,1.089,1.089,0,0,0-.043.4.061.061,0,0,0,.11.031A2,2,0,0,0,420.872,339.481Z" transform="translate(-370.974 -293.754)" fill="#263238"/>
      <path id="Path_6158" data-name="Path 6158" d="M373.4,361.1l.6,6.832,2.04,23.056H394.1l2.549-23.056.754-6.832Z" transform="translate(-352.703 -303.119)" fill="#37474f"/>
      <path id="Path_6159" data-name="Path 6159" d="M373.4,361.1l.6,6.832h22.645l.754-6.832Z" transform="translate(-352.703 -303.119)" fill="#263238"/>
      <rect id="Rectangle_2529" data-name="Rectangle 2529" width="27.578" height="5.539" transform="translate(46.486 61.663) rotate(180)" fill="#37474f"/>
    </g>
    <g id="freepik--question-mark--inject-96" transform="translate(115.056 66.273)">
      <path id="Path_6160" data-name="Path 6160" d="M197.307,231.875a69.133,69.133,0,0,1,4.8-26.426q4.8-11.721,19.815-20.421,4.509-2.7,11.114-6.127a89.65,89.65,0,0,0,12.91-8.259,47.177,47.177,0,0,0,10.661-11.255,25.954,25.954,0,0,0,4.356-14.87,24.557,24.557,0,0,0-2.39-11.139,25.494,25.494,0,0,0-6.3-8.106,26.26,26.26,0,0,0-9.191-4.957,35.536,35.536,0,0,0-10.661-1.648,30.978,30.978,0,0,0-11.972,2.23,40.983,40.983,0,0,0-9.754,5.7,47.828,47.828,0,0,0-7.812,7.812,85.669,85.669,0,0,0-5.851,8.253H192.51L170.9,124.653a58.311,58.311,0,0,1,10.361-16.543,63.573,63.573,0,0,1,14.7-12.162,68.911,68.911,0,0,1,17.885-7.463,77.059,77.059,0,0,1,19.821-2.555,78.756,78.756,0,0,1,22.523,3.3,57.239,57.239,0,0,1,19.968,10.514,54.53,54.53,0,0,1,14.417,18.467q5.551,11.261,5.551,26.879a58.059,58.059,0,0,1-2.249,16.966,47.312,47.312,0,0,1-6.464,13.369,56.3,56.3,0,0,1-9.907,10.808,113.525,113.525,0,0,1-12.916,9.307q-6.011,3.615-12.009,6.911a72.3,72.3,0,0,0-10.961,7.352,35.854,35.854,0,0,0-8.112,9.313,24.406,24.406,0,0,0-3.149,12.763Zm.613,69.964V260.4h33.331v41.437Z" transform="translate(-166.384 -85.93)" fill="#9676ff"/>
      <g id="Group_2401" data-name="Group 2401" transform="translate(4.516 0)" opacity="0.2">
        <path id="Path_6161" data-name="Path 6161" d="M197.307,231.875a69.133,69.133,0,0,1,4.8-26.426q4.8-11.721,19.815-20.421,4.509-2.7,11.114-6.127a89.65,89.65,0,0,0,12.91-8.259,47.177,47.177,0,0,0,10.661-11.255,25.954,25.954,0,0,0,4.356-14.87,24.557,24.557,0,0,0-2.39-11.139,25.494,25.494,0,0,0-6.3-8.106,26.26,26.26,0,0,0-9.191-4.957,35.536,35.536,0,0,0-10.661-1.648,30.978,30.978,0,0,0-11.972,2.23,40.983,40.983,0,0,0-9.754,5.7,47.828,47.828,0,0,0-7.812,7.812,85.669,85.669,0,0,0-5.851,8.253H192.51L170.9,124.653a58.311,58.311,0,0,1,10.361-16.543,63.573,63.573,0,0,1,14.7-12.162,68.911,68.911,0,0,1,17.885-7.463,77.059,77.059,0,0,1,19.821-2.555,78.756,78.756,0,0,1,22.523,3.3,57.239,57.239,0,0,1,19.968,10.514,54.53,54.53,0,0,1,14.417,18.467q5.551,11.261,5.551,26.879a58.059,58.059,0,0,1-2.249,16.966,47.312,47.312,0,0,1-6.464,13.369,56.3,56.3,0,0,1-9.907,10.808,113.525,113.525,0,0,1-12.916,9.307q-6.011,3.615-12.009,6.911a72.3,72.3,0,0,0-10.961,7.352,35.854,35.854,0,0,0-8.112,9.313,24.406,24.406,0,0,0-3.149,12.763Zm.613,69.964V260.4h33.331v41.437Z" transform="translate(-170.9 -85.93)"/>
      </g>
      <path id="Path_6162" data-name="Path 6162" d="M189.956,231.875a69.133,69.133,0,0,1,4.8-26.426q4.8-11.721,19.821-20.421,4.5-2.7,11.108-6.127a89.369,89.369,0,0,0,12.916-8.259,47.289,47.289,0,0,0,10.661-11.255,26,26,0,0,0,4.35-14.87,24.557,24.557,0,0,0-2.4-11.108,25.5,25.5,0,0,0-6.3-8.106,26.26,26.26,0,0,0-9.19-4.957,35.537,35.537,0,0,0-10.661-1.648,30.929,30.929,0,0,0-11.978,2.2,41.051,41.051,0,0,0-9.76,5.7,47.791,47.791,0,0,0-7.806,7.812,85.778,85.778,0,0,0-5.857,8.253L163.53,124.653a58.207,58.207,0,0,1,10.361-16.543,63.415,63.415,0,0,1,14.7-12.162,68.947,68.947,0,0,1,17.879-7.463,77.009,77.009,0,0,1,19.839-2.555,78.726,78.726,0,0,1,22.523,3.3A57.183,57.183,0,0,1,268.8,99.746a54.468,54.468,0,0,1,14.417,18.467q5.551,11.261,5.557,26.879a58.052,58.052,0,0,1-2.255,16.966,47.179,47.179,0,0,1-6.482,13.369,56.3,56.3,0,0,1-9.907,10.808,112.438,112.438,0,0,1-12.916,9.307q-6,3.615-12.009,6.911a72.3,72.3,0,0,0-10.961,7.352,35.83,35.83,0,0,0-8.106,9.313,24.446,24.446,0,0,0-3.155,12.763Zm.613,69.964V260.4h33.294v41.437Z" transform="translate(-163.53 -85.93)" fill="#9676ff"/>
    </g>
    <g id="freepik--Character--inject-96" transform="translate(53.327 75.947)">
      <path id="Path_6163" data-name="Path 6163" d="M158.4,419.985c-1.305.417-38.514-.061-39.917-.98-.539-.343-.784-5.766-.895-12.334v-.2c0-1.354-.043-2.751-.049-4.16v-.582c-.049-9.472.1-19.306.1-19.306l24.894.251-.754,19.1-.031.76-.153,3.958v.4s14.147,6.58,15.587,7.745S159.71,419.568,158.4,419.985Z" transform="translate(-83.988 -210.434)" fill="#ad6359"/>
      <path id="Path_6164" data-name="Path 6164" d="M158.411,432.189c-1.305.417-38.514-.061-39.917-.98-.539-.343-.784-5.766-.895-12.334v-.2c0-1.354-.043-2.751-.049-4.16v-.582l24.245.067-.031.76-.153,3.958v.4s14.141,6.556,15.581,7.72S159.716,431.772,158.411,432.189Z" transform="translate(-83.994 -222.638)" fill="#ebebeb"/>
      <path id="Path_6165" data-name="Path 6165" d="M158.446,435.182c-.8.257-15.219.172-26.505-.147-7.046-.19-12.867-.484-13.412-.833s-.778-5.612-.888-12.058v-.484l24.012.049v.4s14.166,6.556,15.6,7.726S159.751,434.766,158.446,435.182Z" transform="translate(-84.029 -225.631)" fill="#9676ff"/>
      <path id="Path_6166" data-name="Path 6166" d="M159.67,441.083c-6.274-.233-31.585-.613-37.8-.349-.049,0-.049.037,0,.043,6.213.368,31.523.521,37.8.41C159.8,441.187,159.8,441.089,159.67,441.083Z" transform="translate(-85.652 -232.984)" fill="#263238"/>
      <path id="Path_6167" data-name="Path 6167" d="M156.477,421.77c-2.451-.49-5.484-.153-7.4,1.581-.074.067,0,.172.1.147a35,35,0,0,1,7.279-1.415.159.159,0,0,0,.012-.312Z" transform="translate(-96.194 -225.595)" fill="#263238"/>
      <path id="Path_6168" data-name="Path 6168" d="M159.366,423.56c-2.451-.49-5.484-.153-7.4,1.581-.074.067,0,.172.1.147a34.925,34.925,0,0,1,7.254-1.415.159.159,0,0,0,.037-.312Z" transform="translate(-97.314 -226.288)" fill="#263238"/>
      <path id="Path_6169" data-name="Path 6169" d="M162.246,425.35c-2.451-.49-5.484-.153-7.4,1.581-.074.067,0,.172.1.147a35,35,0,0,1,7.279-1.409.159.159,0,0,0,.012-.319Z" transform="translate(-98.429 -226.981)" fill="#263238"/>
      <path id="Path_6170" data-name="Path 6170" d="M161.67,412.674c-.956-1.348-2.769-.766-3.811.086a13.142,13.142,0,0,0-3.872,5.606.061.061,0,0,0,.055.086.3.3,0,0,0,.386.312c2.046-.729,4.326-1.225,6.09-2.586C161.547,415.4,162.571,413.955,161.67,412.674Zm-4.369,4.35c-1,.386-2.01.717-2.99,1.133.76-1.091,1.464-2.206,2.334-3.223a15.856,15.856,0,0,1,1.323-1.4c.747-.656,3.676-2.04,3.2.662C160.91,415.689,158.5,416.571,157.3,417.024Z" transform="translate(-98.104 -221.841)" fill="#263238"/>
      <path id="Path_6171" data-name="Path 6171" d="M142.447,418.52c2.022.895,4.362.882,6.525,1.121a.322.322,0,0,0,.3-.4.067.067,0,0,0,.037-.1,13.246,13.246,0,0,0-5.061-4.565c-1.225-.613-3.113-.735-3.725.8S141.265,418,142.447,418.52Zm-1.091-1.777c-1.078-2.518,2.089-1.838,2.959-1.372a13.243,13.243,0,0,1,1.611,1.054,38.04,38.04,0,0,1,3.014,2.6c-1.054-.184-2.114-.27-3.174-.417-1.262-.165-3.787-.472-4.4-1.863Z" transform="translate(-92.832 -222.724)" fill="#263238"/>
      <path id="Path_6172" data-name="Path 6172" d="M131.96,435.341c-7.046-.19-12.867-.484-13.412-.833s-.778-5.612-.888-12.058C120.54,425.029,127.721,431.432,131.96,435.341Z" transform="translate(-84.036 -225.937)" fill="#263238"/>
      <path id="Path_6173" data-name="Path 6173" d="M105.24,207.48s5.588,62.875,6.495,67.673c.214,1.1.343,7.04.429,14.674.19,16.672.08,46.731.08,46.731h26.23s-.778-52.079-1.942-61.668-8.578-67.4-8.578-67.4Z" transform="translate(-79.226 -142.679)" fill="#37474f"/>
      <path id="Path_6174" data-name="Path 6174" d="M142.311,410.572c-4.093-.086-2.916-.116-7.009-.159-2,0-15.164-.129-17.039.178a.043.043,0,0,0,0,.086c1.875.306,15.036.2,17.039.172,4.093-.037,2.916-.067,7.009-.153a.061.061,0,1,0,0-.123Z" transform="translate(-84.253 -221.265)" fill="#263238"/>
      <path id="Path_6175" data-name="Path 6175" d="M119.32,304.091q-.049-5.71-.086-11.415c0-3.676,0-7.352-.2-11.029-.355-7.457-1.838-14.784-2.941-22.155s-1.973-14.772-2.788-22.18c-.913-8.308-1.716-16.635-2.567-24.949,0-.055-.1-.055-.092,0,1.225,14.852,2.616,29.7,4.669,44.458q.772,5.514,1.679,10.992c.613,3.676,1.225,7.4,1.513,11.145s.331,7.352.368,11.029q.067,5.71.116,11.408c.08,8.443.159,21.444.245,29.888a.129.129,0,0,0,.251,0C119.442,323.71,119.375,311.621,119.32,304.091Z" transform="translate(-81.321 -144.555)" fill="#263238"/>
      <path id="Path_6176" data-name="Path 6176" d="M96.21,207.48s11.12,62.875,12.027,67.673c.214,1.1.343,7.04.429,14.674h0L121.2,207.48Z" transform="translate(-75.729 -142.679)" fill="#263238"/>
      <path id="Path_6177" data-name="Path 6177" d="M109.19,421.819c-1.33.325-38.416-2.794-39.752-3.8-.515-.38-.374-5.808,0-12.364v-.208c.074-1.348.153-2.739.251-4.148l.037-.613c.613-9.454,1.464-19.251,1.464-19.251L96,383.476,93.9,402.47l-.08.754-.429,3.94-.043.4s13.657,7.542,15.011,8.811S110.52,421.495,109.19,421.819Z" transform="translate(-65.23 -210.05)" fill="#ad6359"/>
      <path id="Path_6178" data-name="Path 6178" d="M109.19,433.988c-1.33.325-38.416-2.794-39.752-3.8-.515-.38-.374-5.808,0-12.364v-.208c.074-1.348.153-2.739.251-4.148l.037-.613L93.9,414.633l-.08.754-.429,3.94-.043.4s13.657,7.542,15.011,8.811S110.52,433.663,109.19,433.988Z" transform="translate(-65.23 -222.219)" fill="#ebebeb"/>
      <path id="Path_6179" data-name="Path 6179" d="M109.19,437c-1.33.325-38.416-2.794-39.752-3.8-.515-.38-.374-5.808,0-12.364v-.208l23.95,1.746-.043.4s13.657,7.542,15.011,8.811S110.52,436.673,109.19,437Z" transform="translate(-65.23 -225.229)" fill="#9676ff"/>
      <path id="Path_6180" data-name="Path 6180" d="M110.156,443.027c-6.237-.68-31.462-2.824-37.681-3.027-.049,0-.055.037,0,.043,6.164.809,31.407,2.751,37.675,3.064C110.3,443.137,110.316,443.064,110.156,443.027Z" transform="translate(-66.521 -232.734)" fill="#263238"/>
      <path id="Path_6181" data-name="Path 6181" d="M108.307,423.7c-2.451-.662-5.459-.539-7.487,1.054-.08.061,0,.178.092.159a34.593,34.593,0,0,1,7.352-.9.159.159,0,0,0,.043-.312Z" transform="translate(-77.501 -226.276)" fill="#263238"/>
      <path id="Path_6182" data-name="Path 6182" d="M111.064,425.691c-2.451-.662-5.465-.539-7.493,1.054-.074.061,0,.178.092.159a34.643,34.643,0,0,1,7.352-.9.159.159,0,0,0,.049-.312Z" transform="translate(-78.568 -227.046)" fill="#263238"/>
      <path id="Path_6183" data-name="Path 6183" d="M113.814,427.681c-2.451-.662-5.465-.539-7.493,1.054-.074.061,0,.178.1.159a34.537,34.537,0,0,1,7.352-.9.159.159,0,0,0,.043-.312Z" transform="translate(-79.633 -227.817)" fill="#263238"/>
      <path id="Path_6184" data-name="Path 6184" d="M113.884,415.048c-.852-1.415-2.7-.968-3.8-.19a13.13,13.13,0,0,0-4.289,5.318c0,.049,0,.08.049.092a.306.306,0,0,0,.361.337c2.089-.582,4.405-.944,6.256-2.151C113.584,417.726,114.7,416.384,113.884,415.048Zm-4.663,4.025c-1.023.313-2.053.57-3.063.919a39.07,39.07,0,0,1,2.555-3.063,14.241,14.241,0,0,1,1.421-1.3c.79-.613,3.8-1.783,3.143.882-.349,1.483-2.825,2.193-4.044,2.561Z" transform="translate(-79.439 -222.714)" fill="#263238"/>
      <path id="Path_6185" data-name="Path 6185" d="M94.539,419.345c1.955,1.035,4.289,1.189,6.427,1.575.221.043.355-.184.331-.368a.067.067,0,0,0,.037-.1,13.112,13.112,0,0,0-4.724-4.9c-1.164-.68-3.063-.956-3.768.527S93.4,418.738,94.539,419.345Zm-.962-1.838c-.9-2.592,2.212-1.691,3.063-1.164a14.252,14.252,0,0,1,1.532,1.17A38.133,38.133,0,0,1,101,420.319c-1.042-.257-2.089-.423-3.137-.613-1.262-.3-3.774-.778-4.283-2.212Z" transform="translate(-74.345 -223.053)" fill="#263238"/>
      <path id="Path_6186" data-name="Path 6186" d="M93.905,337.946,67.7,336.837s7.156-57.508,7.285-61.056c.343-9.19,6.439-68.371,6.439-68.371h32.007s-2.022,13.669-5.471,22.333a39.925,39.925,0,0,0-6.7,3.063s-3,39.145-3.112,44.029C97.906,286.5,93.905,337.946,93.905,337.946Z" transform="translate(-64.687 -142.652)" fill="#37474f"/>
      <path id="Path_6187" data-name="Path 6187" d="M94.124,411.959c-4.081-.257-2.9-.239-7-.453-2-.1-15.146-.772-17.027-.545-.043,0-.043.074,0,.086,1.838.386,15.017.833,17.015.895,4.093.135,2.923.055,7.015.141a.061.061,0,0,0-.006-.123Z" transform="translate(-65.604 -221.469)" fill="#263238"/>
      <path id="Path_6188" data-name="Path 6188" d="M86.169,213.118c-1.189,14.907-2.408,29.82-3.774,44.727s-2.965,29.875-4.9,44.758c-1.084,8.3-2.31,20.011-3.6,28.295,0,.055.074.08.086,0,2.641-14.7,4.583-32.988,6.231-47.846s3-29.759,4.209-44.66c.68-8.431,1.293-16.868,1.942-25.3C86.365,213.014,86.211,213.014,86.169,213.118Z" transform="translate(-67.084 -144.832)" fill="#263238"/>
      <path id="Path_6189" data-name="Path 6189" d="M130.284,242.911a49.481,49.481,0,0,0-7.836,3.676.088.088,0,0,0,.074.159c2.641-1.134,5.33-2.218,7.9-3.5a.183.183,0,0,0-.141-.337Z" transform="translate(-85.871 -156.396)" fill="#263238"/>
      <path id="Path_6190" data-name="Path 6190" d="M133.239,213.3c0-.092-.165-.11-.165,0,0,3.131-.178,5.888-.441,8.823-.123,1.36-1.225,8.872-3.578,8.327-.392-.092-.613-.484-.656-1.078a9.03,9.03,0,0,1,.312-2.3c.257-1.575.472-3.149.613-4.742a43.117,43.117,0,0,0-.1-8.89.08.08,0,0,0-.153,0,81.408,81.408,0,0,1-.717,12.254c-.294,1.954-1.281,4.9.766,5.2s3.431-4.62,3.676-5.968a44.862,44.862,0,0,0,.441-11.617Z" transform="translate(-87.987 -144.905)" fill="#263238"/>
      <path id="Path_6191" data-name="Path 6191" d="M129.437,241.543a11.642,11.642,0,0,0-.527,1.556,3.419,3.419,0,0,0-.221,1.281c0,.086.116.092.159.037a4.534,4.534,0,0,0,.551-1.225c.178-.484.368-.962.533-1.452a.267.267,0,0,0-.5-.2Z" transform="translate(-88.308 -155.807)" fill="#263238"/>
      <path id="Path_6192" data-name="Path 6192" d="M106.46,216.725a3.99,3.99,0,0,0-.1-.974.055.055,0,0,0-.1,0,4.289,4.289,0,0,0-.11.846,9.564,9.564,0,0,1-.11.968,14.193,14.193,0,0,1-.343,1.967,6.978,6.978,0,0,1-1.8,3.235,9.3,9.3,0,0,1-3.063,2,34.683,34.683,0,0,1-3.866,1.121.049.049,0,1,0,0,.1,11.256,11.256,0,0,0,4.228-.833,9.1,9.1,0,0,0,3.18-2.028,7.064,7.064,0,0,0,1.838-3.327,10.177,10.177,0,0,0,.257-1.973,9.471,9.471,0,0,0-.012-1.1Z" transform="translate(-76.004 -145.871)" fill="#263238"/>
      <path id="Path_6193" data-name="Path 6193" d="M153.488,118.892c1.973,2.383,4.117,8.823,4.038,10.581s-10.918,5.753-12.45,4.8-7.561-9.472-7.616-12.628S151.442,116.429,153.488,118.892Z" transform="translate(-91.705 -107.947)" fill="#ad6359"/>
      <path id="Path_6194" data-name="Path 6194" d="M133.306,110.488c-.993-1.035-4.2-4.13-5.631-2.733-.895.87,1.262,3.253,2.169,4.2,1.869,1.936,3.315,5.361,3.989,7.034s3.829-1.63,3.829-1.63A26.3,26.3,0,0,0,133.306,110.488Z" transform="translate(-87.833 -103.918)" fill="#ad6359"/>
      <path id="Path_6195" data-name="Path 6195" d="M140.514,122.506s1.109,2.978,2.916,2.91,1.348-2.628,1.323-2.812c.055.159,1.146,2.867,2.959,2.616s1.042-2.769.986-2.929c.1.129,1.495,1.838,2.825,1.33,2.292-.87-1.146-5.324-.815-7.279,0,0,3.382.19,3.48.172,0,0-3.186-4.289-5.851-4.607a1.7,1.7,0,0,0-1.838,1.115,2.689,2.689,0,0,0-2.31-1.348c-.735.08-1.262,1.33-1.262,1.33a2.132,2.132,0,0,0-2.016-.956c-1.011.165-1.513,1.428-1.569,1.918C138.915,117.714,140.514,122.506,140.514,122.506Z" transform="translate(-92.406 -105.569)" fill="#ad6359"/>
      <path id="Path_6196" data-name="Path 6196" d="M139.394,114.86h-.049a15.256,15.256,0,0,0,1.109,9.007c.043.086.2.055.172-.049A31.382,31.382,0,0,1,139.394,114.86Z" transform="translate(-92.34 -106.808)" fill="#263238"/>
      <path id="Path_6197" data-name="Path 6197" d="M145.064,113.763c0-.037-.055-.037-.061,0a14.27,14.27,0,0,0,1.838,9.742c.067.1.227.129.159,0C145.879,121.47,145,116.6,145.064,113.763Z" transform="translate(-94.548 -106.372)" fill="#263238"/>
      <path id="Path_6198" data-name="Path 6198" d="M153.324,123.368a19.622,19.622,0,0,1-2.414-9.307c0-.043-.061-.037-.074,0a12.885,12.885,0,0,0,.325,5.337,8.793,8.793,0,0,0,2.065,4.025C153.256,123.472,153.324,123.429,153.324,123.368Z" transform="translate(-96.822 -106.487)" fill="#263238"/>
      <path id="Path_6199" data-name="Path 6199" d="M141.3,125.46a10.142,10.142,0,0,0,.944,1.569,3.37,3.37,0,0,0,1.323,1.152,1.1,1.1,0,0,0,.79,0,1.618,1.618,0,0,0,.674-.46,1.979,1.979,0,0,0,.331-1.562l-.227-1.323.674,1.164a5.569,5.569,0,0,0,1.115,1.391,1.942,1.942,0,0,0,1.495.576,1.121,1.121,0,0,0,1.042-.956,3.45,3.45,0,0,0-.214-1.691l-.545-1.5,1,1.225a5.367,5.367,0,0,0,.95.913,2.138,2.138,0,0,0,1.14.453,1.017,1.017,0,0,0,.931-.515,2.236,2.236,0,0,0,.092-1.225,17.725,17.725,0,0,0-.735-2.659c-.147-.441-.294-.888-.417-1.342a3.327,3.327,0,0,1-.159-1.385,3.676,3.676,0,0,0,.282,1.348c.159.435.337.864.515,1.3a15.035,15.035,0,0,1,.888,2.69,2.629,2.629,0,0,1-.061,1.5,1.434,1.434,0,0,1-1.348.821,2.6,2.6,0,0,1-1.428-.527,5.717,5.717,0,0,1-1.072-1l.453-.27a3.9,3.9,0,0,1,.276,1.991,1.624,1.624,0,0,1-.527.974,1.838,1.838,0,0,1-1,.417,2.451,2.451,0,0,1-1.9-.729,5.857,5.857,0,0,1-1.225-1.544l.447-.159a2.353,2.353,0,0,1-.515,1.906,1.991,1.991,0,0,1-.858.527,1.385,1.385,0,0,1-1-.074,3.413,3.413,0,0,1-1.342-1.33,8.163,8.163,0,0,1-.784-1.673Z" transform="translate(-93.192 -108.523)" fill="#263238"/>
      <path id="Path_6200" data-name="Path 6200" d="M142.635,135.026s-11.684-5.974-7.107-9.393c1.354-1.017,8.149-3.572,8.688-2.218.7,1.746-1.942,3.345-3.756,4.081,0,0,4.258,1.477,4.117,4.742a3.254,3.254,0,0,1-1.942,2.788Z" transform="translate(-90.545 -109.971)" fill="#ad6359"/>
      <path id="Path_6201" data-name="Path 6201" d="M135.61,125.756a6.647,6.647,0,0,1,1.63-1.152,15.779,15.779,0,0,1,1.838-.833,23.112,23.112,0,0,1,3.86-1.14A3.591,3.591,0,0,1,144,122.57a1.4,1.4,0,0,1,.613.184.993.993,0,0,1,.257.214.919.919,0,0,1,.165.288,1.673,1.673,0,0,1,0,1.17,3.015,3.015,0,0,1-.564.937,5.974,5.974,0,0,1-1.624,1.293,13.1,13.1,0,0,1-1.838.87v-.435a8.287,8.287,0,0,1,1.379.692,7.384,7.384,0,0,1,1.225.925,5.183,5.183,0,0,1,.931,1.225,3.982,3.982,0,0,1,.484,1.428,4.541,4.541,0,0,0-.613-1.342,5.47,5.47,0,0,0-.993-1.066,6.984,6.984,0,0,0-1.225-.821,7.655,7.655,0,0,0-1.33-.576l-.57-.178.551-.257a14.461,14.461,0,0,0,1.734-.895,5.987,5.987,0,0,0,1.47-1.195,1.654,1.654,0,0,0,.466-1.544c-.135-.429-.864-.411-1.483-.319s-1.274.257-1.918.417-1.274.337-1.905.539a12.812,12.812,0,0,0-3.609,1.63Z" transform="translate(-90.989 -109.788)" fill="#263238"/>
      <path id="Path_6202" data-name="Path 6202" d="M123.59,151.352c10.33,12.75,25.347,21.009,29.054,18.32s-8.786-16.77-9-16.978c-.729-.7-6.256-3.572-16.292-7.8C117.505,140.746,118.976,145.66,123.59,151.352Z" transform="translate(-84.948 -117.842)" fill="#ad6359"/>
      <path id="Path_6203" data-name="Path 6203" d="M138.443,149.531l-7.781,10.232s-6.531-6.74-9.987-11.2-3.113-7.928,4.62-5.049a97.012,97.012,0,0,1,13.149,6.017Z" transform="translate(-84.392 -117.497)" fill="#9676ff"/>
      <path id="Path_6204" data-name="Path 6204" d="M137.079,161.745c.95-1.4,1.942-2.769,2.959-4.111.509-.662,1-1.336,1.52-1.991s1.115-1.311,1.648-1.985c.037-.049.11,0,.074.049-.49.674-.931,1.379-1.421,2.053s-1.029,1.372-1.55,2.059q-1.538,2.022-3.168,3.97C137.109,161.824,137.023,161.788,137.079,161.745Z" transform="translate(-91.55 -121.826)" fill="#263238"/>
      <path id="Path_6205" data-name="Path 6205" d="M134.415,156.053l-3.725,4.9s-6.531-6.74-9.987-11.2l-.331-.435-.141-.2-.214-.312q-.276-.4-.5-.79c-.055-.092-.1-.184-.153-.276a7.488,7.488,0,0,1-.613-1.464,3.738,3.738,0,0,1-.1-.478v-.227C122.044,147.923,130.009,153.076,134.415,156.053Z" transform="translate(-84.42 -118.702)" fill="#263238"/>
      <path id="Path_6206" data-name="Path 6206" d="M122.326,188.662s-35.457.613-35.665.392c-.551-.613,6.611-37.123,14.019-44.647,2.616-2.659,8.014-1.575,8.915-1.14,2.077,1,4.032,3.174,5.667,7.193C118.534,158.5,122.774,188.086,122.326,188.662Z" transform="translate(-72.019 -117.581)" fill="#9676ff"/>
      <path id="Path_6207" data-name="Path 6207" d="M111.348,145.139H100.607l.055-.061a4.761,4.761,0,0,1,.827-.668H110.4A7.351,7.351,0,0,1,111.348,145.139Zm1.183,1.225H99.6c-.172.227-.337.472-.5.729h14c-.178-.257-.362-.484-.521-.729Zm1.336,1.955H98.353c-.135.239-.27.484-.4.735h16.328c-.129-.251-.263-.5-.4-.735Zm1,1.961H97.335l-.349.729h18.2c-.1-.251-.2-.5-.312-.723Zm.778,1.955h-19.2l-.312.729h19.76c-.08-.227-.159-.5-.257-.729Zm.613,1.955H95.638c-.092.245-.19.484-.288.735h21.12Zm.527,1.955H94.9c-.086.245-.178.484-.263.735h22.345a6.447,6.447,0,0,1-.184-.735Zm.478,1.961H94.192c-.086.239-.165.484-.245.729h23.479Zm.441,1.955H93.58c-.08.239-.153.484-.233.729H117.9c-.086-.245-.135-.49-.19-.7Zm.417,1.955H92.967c-.08.239-.153.484-.227.735h25.574c-.08-.245-.129-.49-.184-.735Zm.4,1.955H92.354c-.074.245-.147.49-.214.735H118.7Zm.38,1.961H91.778c-.074.245-.141.484-.208.729h27.473c-.043-.245-.086-.49-.135-.729Zm.361,1.955H91.233c-.067.245-.135.49-.2.729H119.4c-.043-.245-.092-.484-.135-.729Zm.349,1.955H90.712c-.067.245-.129.49-.19.735h29.226q-.055-.368-.129-.735Zm.349,1.961H90.2c-.055.245-.116.484-.178.729h30.059c-.037-.239-.08-.484-.116-.729Zm.319,1.955H89.72c-.055.245-.116.49-.172.729H120.41c-.037-.239-.08-.484-.123-.729Zm.319,1.955H89.254c-.055.251-.11.5-.172.735h31.64c-.037-.245-.074-.484-.116-.735Zm.312,1.955h-32.1c-.055.245-.11.5-.165.735h32.381c-.037-.239-.074-.484-.1-.735Zm.288,1.961H88.372c-.049.245-.1.49-.153.729H121.3Zm.282,1.955H87.955c-.049.251-.1.49-.147.729h33.784c-.037-.239-.067-.484-.1-.729Zm.27,1.955H87.569q-.086.38-.147.735h34.434a5.738,5.738,0,0,1-.092-.735Zm.245,1.955H87.2c-.049.257-.092.5-.135.735h35.034q-.037-.349-.092-.735Zm.227,1.961H86.84c-.043.263-.074.509-.11.729h35.537a5.225,5.225,0,0,0-.037-.729ZM86.607,189.4a.656.656,0,0,0,0,.325c.165.165,22.155-.172,31.523-.325Z" transform="translate(-72.002 -118.252)" fill="#030402" opacity="0.1"/>
      <path id="Path_6208" data-name="Path 6208" d="M93.465,149.412c-2.39,3.278-14.644,16.825-15.1,18.081s2.383,4.032,2.334,4.552c-.184,2.12-4.761,16.224-6.593,14.791-2.414-1.887-12.634-15.4-11.188-21.255s25.311-19.9,29.1-21.12S95.824,146.177,93.465,149.412Z" transform="translate(-62.782 -118.163)" fill="#ad6359"/>
      <path id="Path_6209" data-name="Path 6209" d="M92.75,161.438l-6.96-9.773s7.787-5.11,13-7.291,7.775-.968,3.014,5.766a118.212,118.212,0,0,1-9.05,11.3Z" transform="translate(-71.693 -117.855)" fill="#9676ff"/>
      <path id="Path_6210" data-name="Path 6210" d="M89.108,155.852q1.654,1.918,3.217,3.921c.515.656,1.035,1.305,1.532,1.973s.986,1.415,1.507,2.1c.037.049-.037.11-.074.061-.527-.613-1.091-1.225-1.618-1.9s-1.066-1.348-1.593-2.022c-1.042-1.336-2.053-2.7-3.027-4.087C89.016,155.864,89.077,155.815,89.108,155.852Z" transform="translate(-72.952 -122.679)" fill="#263238"/>
      <path id="Path_6211" data-name="Path 6211" d="M97.123,167.783c1.066-1.415,2.322-2.677,3.474-4.019s2.3-2.727,3.394-4.123c0,0,.08,0,.055.037-.509.729-1,1.464-1.538,2.175-.263.349-.539.692-.821,1.035l.411-.337a15.714,15.714,0,0,1,1.305-.882s.049,0,0,.037a14.807,14.807,0,0,1-1.225,1.017c-.306.233-.613.447-.937.662l-.49.613a29.143,29.143,0,0,1-3.56,3.829A.04.04,0,1,1,97.123,167.783Z" transform="translate(-76.078 -124.151)" fill="#263238"/>
      <path id="Path_6212" data-name="Path 6212" d="M83.473,209.279c1.636-1.109-.613-2.408-.613-2.408s3.676,1.091,4.9-.7-1.569-3.2-1.765-3.315c.2.061,3.6.968,4.669-.962s-1.924-3.008-2.12-3.063c.2,0,2.855-.116,3.333-1.771.815-2.837-6.807-3.168-8.449-4.9,0,0,.735-3.75.8-3.854a4.289,4.289,0,0,1-2.169,1.838c-1.648.466-3.131.735-3.8,1.526a2.169,2.169,0,0,0-.245,2.573s-2.083-.239-2.972,1.256c-.453.766.374,2.181.374,2.181a2.579,2.579,0,0,0-2.383,1.225,2.488,2.488,0,0,0,.349,2.347s-1.667.613-1.881,1.936C71.091,205.835,79.969,211.644,83.473,209.279Z" transform="translate(-66.154 -135.251)" fill="#ad6359"/>
      <path id="Path_6213" data-name="Path 6213" d="M74.789,209.8s-.067,0-.043.043a18.381,18.381,0,0,0,9.5,5.441c.116,0,.2-.159.08-.208a37.682,37.682,0,0,1-9.534-5.275Z" transform="translate(-67.414 -143.578)" fill="#263238"/>
      <path id="Path_6214" data-name="Path 6214" d="M77.82,203.555a.039.039,0,1,0-.049.061A17.254,17.254,0,0,0,88.5,208.9c.141,0,.282-.123.116-.147C85.871,208.34,80.516,205.662,77.82,203.555Z" transform="translate(-68.582 -141.156)" fill="#263238"/>
      <path id="Path_6215" data-name="Path 6215" d="M93.045,202.557A23.674,23.674,0,0,1,82.31,198.17c-.043,0-.08.031-.055.067a15.5,15.5,0,0,0,5.392,3.548,10.563,10.563,0,0,0,5.38.913A.071.071,0,0,0,93.045,202.557Z" transform="translate(-70.321 -139.074)" fill="#263238"/>
      <path id="Path_6216" data-name="Path 6216" d="M73.981,201.44a2.555,2.555,0,0,1-.613-2.6,1.936,1.936,0,0,1,.95-.956,3.26,3.26,0,0,1,1.562-.141,2.5,2.5,0,0,1-.043-2.831,1.912,1.912,0,0,1,1.225-.643,6.059,6.059,0,0,1,1.624.061,2.218,2.218,0,0,1-.472-1.93,2.414,2.414,0,0,1,1.47-1.611,11.641,11.641,0,0,1,2.579-.613,5.753,5.753,0,0,0,1.317-.361,2.488,2.488,0,0,0,1.1-.98c.049-.074.049,0,0,.067a3.015,3.015,0,0,1-.649.772,3.9,3.9,0,0,1-.888.582,16.782,16.782,0,0,1-2.451.717,3.431,3.431,0,0,0-1.838,1.225,2.059,2.059,0,0,0-.074,2.157s0,.08-.055.074a6.01,6.01,0,0,0-1.452.172,1.96,1.96,0,0,0-1.017.613,2.635,2.635,0,0,0-.123,2.622,4.289,4.289,0,0,0-1.526.392,1.93,1.93,0,0,0-.723.8,2.273,2.273,0,0,0,.239,2.371.067.067,0,0,1,0,.031h0s-.533.221-.558.221h0a3.769,3.769,0,0,1,.417-.2Z" transform="translate(-66.832 -135.445)" fill="#263238"/>
      <path id="Path_6217" data-name="Path 6217" d="M119.16,144.48c-1.948.717-5.759-1.936-7.42-4.252-.11-.159-.221-7.052-.38-8.412-.037-.282,8.8,1.054,8.8,1.054a21.867,21.867,0,0,0-.2,5.33C119.993,138.4,121.041,143.794,119.16,144.48Z" transform="translate(-81.596 -113.359)" fill="#ad6359"/>
      <path id="Path_6218" data-name="Path 6218" d="M120.164,132.87s-.1.57-.178,1.415c-2.451,3.008-6.384,3.327-8.382,3.26-.067-2.138-.147-4.9-.245-5.729C111.323,131.54,120.164,132.87,120.164,132.87Z" transform="translate(-81.596 -113.36)" fill="#263238"/>
      <path id="Path_6219" data-name="Path 6219" d="M109.118,107.87a5.831,5.831,0,0,0-3.394,3.909c-.576,2.818,0,5.808.233,5.962S109.118,107.87,109.118,107.87Z" transform="translate(-79.317 -104.1)" fill="#263238"/>
      <path id="Path_6220" data-name="Path 6220" d="M120.427,110.372c.723,3.106-1.47,11.8-3.774,13.614-3.333,2.635-8.5,2.561-10.673-1.379-2.1-3.817.968-15.091,3.511-16.714C113.228,103.51,119.343,105.777,120.427,110.372Z" transform="translate(-79.243 -102.963)" fill="#ad6359"/>
      <path id="Path_6221" data-name="Path 6221" d="M115.637,121.78s.043.037.037.061c-.123.613-.165,1.305.349,1.6v.031C115.361,123.263,115.422,122.325,115.637,121.78Z" transform="translate(-83.196 -109.488)" fill="#263238"/>
      <path id="Path_6222" data-name="Path 6222" d="M116.305,120.9c.986.092.723,2.053-.184,1.967S115.484,120.819,116.305,120.9Z" transform="translate(-83.221 -109.146)" fill="#263238"/>
      <path id="Path_6223" data-name="Path 6223" d="M109.612,120.79a.056.056,0,0,0-.055.049c-.055.613-.221,1.293-.8,1.428v.037C109.446,122.291,109.655,121.372,109.612,120.79Z" transform="translate(-80.59 -109.104)" fill="#263238"/>
      <path id="Path_6224" data-name="Path 6224" d="M108.817,119.631c-.968-.2-1.293,1.752-.392,1.936S109.626,119.8,108.817,119.631Z" transform="translate(-80.254 -108.65)" fill="#263238"/>
      <path id="Path_6225" data-name="Path 6225" d="M114.759,130.042c-.159.129-.325.312-.545.312a1.623,1.623,0,0,1-.643-.208.809.809,0,0,0,.741.4.613.613,0,0,0,.527-.5S114.783,130.012,114.759,130.042Z" transform="translate(-82.452 -112.683)" fill="#263238"/>
      <path id="Path_6226" data-name="Path 6226" d="M110.226,121.767s-.257.882-.319,1.311a8.743,8.743,0,0,1,2.408.717c.178.086.2-.067,0-.227a3.676,3.676,0,0,0-2-.809c0-.123.423-1.354.355-1.372a3.6,3.6,0,0,0-.986.08c.478-1.838,1.225-3.627,1.7-5.514,0-.067-.08-.1-.11-.049a31.544,31.544,0,0,0-2.083,5.833C109.117,122.006,110.042,121.816,110.226,121.767Z" transform="translate(-80.757 -107.201)" fill="#263238"/>
      <path id="Path_6227" data-name="Path 6227" d="M117.262,118.8a5.5,5.5,0,0,1-.613-.49,1.4,1.4,0,0,1-.545-.613.4.4,0,0,1,.221-.447,1,1,0,0,1,1,.227,1.471,1.471,0,0,1,.613.888.435.435,0,0,1-.68.435Z" transform="translate(-83.43 -107.713)" fill="#263238"/>
      <path id="Path_6228" data-name="Path 6228" d="M108.4,115.3c.27-.043.515-.116.778-.184a1.274,1.274,0,0,0,.76-.337.417.417,0,0,0,0-.5,1.023,1.023,0,0,0-1.011-.214,1.5,1.5,0,0,0-.931.551.441.441,0,0,0,.4.686Z" transform="translate(-80.263 -106.48)" fill="#263238"/>
      <path id="Path_6229" data-name="Path 6229" d="M119.392,116.553c-1.8-.178-.821-8.124-.821-8.124a11.531,11.531,0,0,1-3.45.613,15.63,15.63,0,0,1-3.511-.527,20.309,20.309,0,0,1,3.008-1.011s-8,.7-8.271-.809c-.1-.521,1.391-5.263,8.033-4.963,4.9.221,7.187,5.343,7.187,5.343s2.383,2.653,1.973,3.854C122.841,113.036,121.3,116.743,119.392,116.553Z" transform="translate(-79.653 -101.718)" fill="#263238"/>
      <path id="Path_6230" data-name="Path 6230" d="M125.407,124.736s2.236-2.671,3.468-1.838-.613,4.81-2.193,5.245a1.55,1.55,0,0,1-1.991-1.011Z" transform="translate(-86.759 -109.859)" fill="#ad6359"/>
      <path id="Path_6231" data-name="Path 6231" d="M128.832,124.82v.043a3.9,3.9,0,0,0-2.224,2.255A.858.858,0,0,1,127.9,127a.037.037,0,0,1-.037.055.962.962,0,0,0-1.072.239,4.637,4.637,0,0,0-.57.8c-.061.092-.227,0-.178-.08h0C126.148,126.627,127.368,124.826,128.832,124.82Z" transform="translate(-87.28 -110.665)" fill="#263238"/>
      <path id="Path_6232" data-name="Path 6232" d="M164.188,165.884c4.975-3.842.221-23.344-2.671-30.525-.852-2.114-14.362,1.838-13.731,4.209C151.4,152.981,158.742,170.094,164.188,165.884Z" transform="translate(-95.696 -114.514)" fill="#ad6359"/>
      <path id="Path_6233" data-name="Path 6233" d="M151.45,154.62l1.489,3.676c.509,1.225,1,2.451,1.556,3.676s1.084,2.408,1.648,3.6,1.189,2.365,1.8,3.541a31.468,31.468,0,0,1-2.114-3.376c-.613-1.17-1.225-2.371-1.758-3.584s-1.023-2.451-1.464-3.713S151.787,155.913,151.45,154.62Z" transform="translate(-97.123 -122.207)" fill="#263238"/>
    </g>
    <g id="freepik--speech-bubble--inject-96" transform="translate(94.96 35.177)">
      <path id="Path_6234" data-name="Path 6234" d="M145.585,89.328a3.5,3.5,0,1,1-1.235-2.38,3.5,3.5,0,0,1,1.235,2.38Z" transform="translate(-133.779 -54.911)" fill="#fff"/>
      <path id="Path_6235" data-name="Path 6235" d="M145.213,89.238a3.835,3.835,0,1,1-3.786-3.339A3.676,3.676,0,0,1,145.213,89.238Zm0,0a3.351,3.351,0,1,0-.821,2.5,3.351,3.351,0,0,0,.821-2.5Z" transform="translate(-133.407 -54.821)" fill="#263238"/>
      <path id="Path_6236" data-name="Path 6236" d="M135.121,100.752a1.942,1.942,0,1,1-.684-1.327,1.948,1.948,0,0,1,.684,1.327Z" transform="translate(-130.925 -59.883)" fill="#fff"/>
      <path id="Path_6237" data-name="Path 6237" d="M134.928,100.66a2.1,2.1,0,1,1-2.12-1.93,2.1,2.1,0,0,1,2.12,1.93Zm0,0a1.8,1.8,0,1,0-1.593,1.942,1.8,1.8,0,0,0,1.593-1.942Z" transform="translate(-130.731 -59.791)" fill="#263238"/>
      <path id="Path_6238" data-name="Path 6238" d="M168.885,53.416a10.226,10.226,0,0,1-8.909,11.378,10.116,10.116,0,0,1-5.208-.729,8.578,8.578,0,0,1-13.633,0,7.115,7.115,0,0,1-1.152.239,6.948,6.948,0,0,1-6.525-10.894,10.22,10.22,0,0,1,13.755-14.784,8.578,8.578,0,0,1,14.7,2.334,5.348,5.348,0,0,1,1.1-.245,5.612,5.612,0,0,1,4.846,9.319,10.066,10.066,0,0,1,1.017,3.382Z" transform="translate(-130.941 -35.273)" fill="#fff"/>
      <path id="Path_6239" data-name="Path 6239" d="M168.687,53.321a10.373,10.373,0,0,1-2.077,7.542,10.752,10.752,0,0,1-1.9,1.869,10.348,10.348,0,0,1-10.171,1.323h.1a8.682,8.682,0,0,1-6.893,3.456,8.774,8.774,0,0,1-3.878-.888,9.013,9.013,0,0,1-3.094-2.524l.221.074a7.211,7.211,0,0,1-4.362-.061,7.138,7.138,0,0,1-3.535-2.579,7.745,7.745,0,0,1-1.011-1.979,7.445,7.445,0,0,1-.362-2.193,7.242,7.242,0,0,1,1.3-4.2V53.5a10.448,10.448,0,0,1,14.092-15.128l-.27.037A8.727,8.727,0,0,1,161.8,40.853l-.08-.043a5.71,5.71,0,0,1,3.676.049,5.631,5.631,0,0,1,2.273,9.086h0A10.006,10.006,0,0,1,168.687,53.321Zm0,0a10.024,10.024,0,0,0-1.042-3.376h0a5.571,5.571,0,0,0-5.888-9.031H161.7v-.061a8.578,8.578,0,0,0-2.6-3.554,8.4,8.4,0,0,0-4.032-1.765,8.517,8.517,0,0,0-4.356.49,8.394,8.394,0,0,0-3.5,2.61l-.116.147-.159-.11a9.981,9.981,0,0,0-13.412,14.435l.135.172-.129.178a6.66,6.66,0,0,0-1.225,3.866,7.125,7.125,0,0,0,.325,2.028,6.9,6.9,0,0,0,.925,1.838,6.74,6.74,0,0,0,7.352,2.555l.141-.037.08.11a8.578,8.578,0,0,0,2.929,2.451,8.437,8.437,0,0,0,10.477-2.353l.043-.055h.061a10.091,10.091,0,0,0,5.19.76,10.3,10.3,0,0,0,4.9-1.967,10.648,10.648,0,0,0,1.9-1.838,10.8,10.8,0,0,0,1.354-2.291A10.348,10.348,0,0,0,168.687,53.321Z" transform="translate(-130.743 -35.177)" fill="#263238"/>
      <path id="Path_6240" data-name="Path 6240" d="M162.791,57.7a5.716,5.716,0,0,1,.392-2.181,3.6,3.6,0,0,1,1.636-1.685c.251-.153.551-.319.919-.509a7.352,7.352,0,0,0,1.06-.68,3.97,3.97,0,0,0,.882-.931,2.151,2.151,0,0,0,.361-1.225,2.01,2.01,0,0,0-.2-.919,2.071,2.071,0,0,0-.521-.668,2.126,2.126,0,0,0-.754-.4,2.88,2.88,0,0,0-.876-.141,2.451,2.451,0,0,0-.993.19,3.444,3.444,0,0,0-.8.466,3.794,3.794,0,0,0-.613.649,6.5,6.5,0,0,0-.484.68l-2.157-1.489a4.9,4.9,0,0,1,.858-1.36,5.055,5.055,0,0,1,1.2-1.011,5.8,5.8,0,0,1,1.47-.613,6.3,6.3,0,0,1,1.636-.208,6.636,6.636,0,0,1,1.838.27,4.791,4.791,0,0,1,1.648.87,4.485,4.485,0,0,1,1.189,1.519,5.042,5.042,0,0,1,.453,2.218,4.822,4.822,0,0,1-.184,1.4,3.835,3.835,0,0,1-.533,1.1,4.7,4.7,0,0,1-.815.895,8.838,8.838,0,0,1-1.066.766l-.993.57a6.083,6.083,0,0,0-.9.613,2.825,2.825,0,0,0-.68.766A1.979,1.979,0,0,0,165.5,57.7Zm.049,5.772V60.052h2.745v3.419Z" transform="translate(-142.315 -39.237)" fill="#9676ff"/>
      <path id="Path_6241" data-name="Path 6241" d="M149.975,51.307a5.514,5.514,0,0,1,.061,2.212,3.572,3.572,0,0,1-1.225,1.985c-.214.2-.478.423-.8.686a7.614,7.614,0,0,0-.9.882,3.928,3.928,0,0,0-.668,1.091,2.138,2.138,0,0,0-.1,1.274,1.942,1.942,0,0,0,.38.852,2.065,2.065,0,0,0,.649.551,2.139,2.139,0,0,0,.821.245,3.064,3.064,0,0,0,.888-.049,2.494,2.494,0,0,0,.931-.386,3.572,3.572,0,0,0,.692-.613,3.731,3.731,0,0,0,.5-.766,7.056,7.056,0,0,0,.331-.766l2.414,1.017a4.742,4.742,0,0,1-.558,1.507,5.134,5.134,0,0,1-.98,1.225,5.809,5.809,0,0,1-1.311.907,6.243,6.243,0,0,1-1.556.539,6.39,6.39,0,0,1-1.875.116,4.632,4.632,0,0,1-1.789-.509,4.565,4.565,0,0,1-1.477-1.225,5.478,5.478,0,0,1-1.011-3.486,3.811,3.811,0,0,1,.294-1.183,4.583,4.583,0,0,1,.613-1.042,9.061,9.061,0,0,1,.882-.974c.282-.257.57-.515.852-.76a5.674,5.674,0,0,0,.741-.8,2.965,2.965,0,0,0,.5-.888,2,2,0,0,0,.037-1.084ZM148.75,45.67l.7,3.345-2.69.564-.7-3.345Z" transform="translate(-135.633 -39.241)" fill="#9676ff"/>
    </g>
  </g>
</svg>
