<svg xmlns="http://www.w3.org/2000/svg" width="270.954" height="271.447" viewBox="0 0 270.954 271.447">
  <g id="Sent_Message-pana" data-name="Sent Message-pana" transform="translate(-37 -46.704)">
    <g id="freepik--background-complete--inject-241" transform="translate(42.566 46.704)">
      <rect id="Rectangle_2272" data-name="Rectangle 2272" width="54.08" height="56.374" transform="translate(73.93 68.489) rotate(180)" fill="#e0e0e0"/>
      <rect id="Rectangle_2273" data-name="Rectangle 2273" width="54.08" height="56.374" transform="translate(77.597 68.489) rotate(180)" fill="#fafafa"/>
      <path id="Path_1438" data-name="Path 1438" d="M82.74,65.74h54.118v56.406H82.74Zm54.086.032H82.778v56.342h54.048Z" transform="translate(-59.242 -53.644)" fill="#e0e0e0"/>
      <rect id="Rectangle_2274" data-name="Rectangle 2274" width="39.542" height="41.219" transform="translate(70.328 60.908) rotate(180)" fill="#fff"/>
      <path id="Path_1439" data-name="Path 1439" d="M156.44,143a6.251,6.251,0,0,0,.979,1.137c.635.667,1.519,1.563,2.542,2.542s1.906,1.849,2.586,2.472a6.455,6.455,0,0,0,1.144.953,6.469,6.469,0,0,0-.972-1.131c-.635-.667-1.525-1.569-2.542-2.542s-1.906-1.855-2.586-2.478A6.24,6.24,0,0,0,156.44,143Z" transform="translate(-86.112 -81.812)" fill="#e0e0e0"/>
      <path id="Path_1440" data-name="Path 1440" d="M90.138,142.83a6.114,6.114,0,0,0-1.131.979c-.667.635-1.569,1.519-2.542,2.51s-1.855,1.906-2.478,2.586a5.9,5.9,0,0,0-.947,1.144,6.6,6.6,0,0,0,1.125-.972c.635-.635,1.576-1.519,2.542-2.542s1.862-1.906,2.478-2.586A5.916,5.916,0,0,0,90.138,142.83Z" transform="translate(-59.352 -81.75)" fill="#e0e0e0"/>
      <path id="Path_1441" data-name="Path 1441" d="M90.227,73.788a6.755,6.755,0,0,0-.972-1.131c-.635-.635-1.519-1.569-2.542-2.542s-1.906-1.855-2.58-2.472a6.641,6.641,0,0,0-1.144-.953,6.15,6.15,0,0,0,.966,1.131c.635.667,1.525,1.569,2.542,2.542s1.906,1.855,2.586,2.472A5.915,5.915,0,0,0,90.227,73.788Z" transform="translate(-59.334 -53.991)" fill="#e0e0e0"/>
      <path id="Path_1442" data-name="Path 1442" d="M156.61,73.847a6.354,6.354,0,0,0,1.137-.972c.635-.635,1.563-1.519,2.542-2.542s1.849-1.906,2.472-2.58a6.737,6.737,0,0,0,.953-1.144,5.827,5.827,0,0,0-1.137,1.01c-.667.635-1.569,1.519-2.542,2.542s-1.855,1.906-2.478,2.586a6.24,6.24,0,0,0-.947,1.1Z" transform="translate(-86.174 -53.961)" fill="#e0e0e0"/>
      <path id="Path_1443" data-name="Path 1443" d="M94.249,118.76a1.272,1.272,0,0,0,0-.2v-2.8c0-1.957,0-4.8.038-8.4,0-7.218.044-17.506.076-29.82l-.152.152h39.427l-.172-.178v41.219l.153-.152-28.549.076-8.025.044H97l7.987.044,28.644.076h.152V77.28H94.02v.153c0,12.352.057,22.672.076,29.915,0,3.59,0,6.424.044,8.368v2.751A.647.647,0,0,0,94.249,118.76Z" transform="translate(-63.355 -57.851)" fill="#e0e0e0"/>
      <rect id="Rectangle_2275" data-name="Rectangle 2275" width="13.191" height="13.191" transform="translate(57.156 46.897) rotate(180)" fill="#ebebeb"/>
      <rect id="Rectangle_2276" data-name="Rectangle 2276" width="65.092" height="123.048" transform="translate(69.762 264.883) rotate(180)" fill="#e0e0e0"/>
      <rect id="Rectangle_2277" data-name="Rectangle 2277" width="65.092" height="123.048" transform="translate(89.072 264.883) rotate(180)" fill="#f5f5f5"/>
      <path id="Path_1444" data-name="Path 1444" d="M91.05,279.08h55.885v19.507H91.05Zm55.186.686h-54.5V297.9h54.5Z" transform="translate(-62.272 -131.425)" fill="#e0e0e0"/>
      <path id="Path_1445" data-name="Path 1445" d="M3.145,0H18.058A3.145,3.145,0,0,1,21.2,3.145v.743H0V3.145A3.145,3.145,0,0,1,3.145,0Z" transform="translate(66.935 151.887) rotate(180)" fill="#ebebeb"/>
      <path id="Path_1446" data-name="Path 1446" d="M91.05,318.07h55.885v19.507H91.05Zm55.186.693h-54.5v18.128h54.5Z" transform="translate(-62.272 -145.64)" fill="#e0e0e0"/>
      <path id="Path_1447" data-name="Path 1447" d="M3.145,0H18.058A3.145,3.145,0,0,1,21.2,3.145v.743H0V3.145A3.145,3.145,0,0,1,3.145,0Z" transform="translate(66.935 176.662) rotate(180)" fill="#ebebeb"/>
      <path id="Path_1448" data-name="Path 1448" d="M91.05,357.07h55.885v19.5H91.05Zm55.186.686h-54.5v18.128h54.5Z" transform="translate(-62.272 -159.859)" fill="#e0e0e0"/>
      <path id="Path_1449" data-name="Path 1449" d="M3.145,0H18.058A3.145,3.145,0,0,1,21.2,3.145v.743H0V3.145A3.145,3.145,0,0,1,3.145,0Z" transform="translate(66.935 201.437) rotate(180)" fill="#ebebeb"/>
      <path id="Path_1450" data-name="Path 1450" d="M91.05,396.06h55.885v19.507H91.05Zm55.186.686h-54.5v18.135h54.5Z" transform="translate(-62.272 -174.074)" fill="#e0e0e0"/>
      <path id="Path_1451" data-name="Path 1451" d="M3.145,0H18.058A3.145,3.145,0,0,1,21.2,3.145v.743H0V3.145A3.145,3.145,0,0,1,3.145,0Z" transform="translate(66.935 226.218) rotate(180)" fill="#ebebeb"/>
      <rect id="Rectangle_2278" data-name="Rectangle 2278" width="70.703" height="6.132" transform="translate(91.964 143.36) rotate(180)" fill="#ebebeb"/>
      <rect id="Rectangle_2279" data-name="Rectangle 2279" width="21.261" height="6.132" transform="translate(21.261 143.36) rotate(180)" fill="#e0e0e0"/>
      <rect id="Rectangle_2280" data-name="Rectangle 2280" width="3.419" height="6.284" transform="translate(89.079 271.167) rotate(180)" fill="#e0e0e0"/>
      <rect id="Rectangle_2281" data-name="Rectangle 2281" width="3.419" height="6.284" transform="translate(67.945 271.167) rotate(180)" fill="#e0e0e0"/>
      <rect id="Rectangle_2282" data-name="Rectangle 2282" width="3.419" height="6.284" transform="translate(29.337 271.167) rotate(180)" fill="#e0e0e0"/>
      <rect id="Rectangle_2283" data-name="Rectangle 2283" width="3.419" height="6.284" transform="translate(10.033 271.167) rotate(180)" fill="#e0e0e0"/>
      <rect id="Rectangle_2284" data-name="Rectangle 2284" width="20.638" height="30.614" transform="matrix(0.191, -0.982, 0.982, 0.191, 159.37, 20.26)" fill="#f5f5f5"/>
      <path id="Path_1452" data-name="Path 1452" d="M332.905,52.945a2.091,2.091,0,0,1-.33.216l-.979.572-3.635,2.052L315.889,62.5l-.1.057-.076-.089-.178-.21L306.51,51.579,303.816,48.3q-.458-.553-.724-.9a2.1,2.1,0,0,1-.242-.324,2.5,2.5,0,0,1,.28.292l.769.858,2.777,3.177c2.345,2.739,5.554,6.481,9.093,10.624a2.59,2.59,0,0,1,.178.21l-.172-.032,12.073-6.64,3.692-1.932,1-.527A2.7,2.7,0,0,1,332.905,52.945Z" transform="translate(-139.491 -46.841)" fill="#e0e0e0"/>
      <path id="Path_1453" data-name="Path 1453" d="M296.66,73.129c-.051-.064,2.751-2.4,6.253-5.223s6.354-5.083,6.424-5.007-2.751,2.4-6.252,5.223S296.7,73.193,296.66,73.129Z" transform="translate(-137.234 -52.608)" fill="#e0e0e0"/>
      <path id="Path_1454" data-name="Path 1454" d="M332.409,65.57c.07-.038,1.766,3.177,3.813,7.123s3.616,7.218,3.546,7.25S338,76.766,335.954,72.82,332.339,65.6,332.409,65.57Z" transform="translate(-150.267 -53.582)" fill="#e0e0e0"/>
      <rect id="Rectangle_2285" data-name="Rectangle 2285" width="24.019" height="16.19" transform="matrix(0.894, -0.449, 0.449, 0.894, 236.506, 37.707)" fill="#f5f5f5"/>
      <path id="Path_1455" data-name="Path 1455" d="M439.684,89.31a1.56,1.56,0,0,1-.1.292c-.083.21-.2.483-.337.826l-1.271,3.012-4.27,9.944-.038.083h-.089l-.21-.044-10.719-2.3L419.4,100.4l-.877-.2a1.8,1.8,0,0,1-.3-.089,1.634,1.634,0,0,1,.311.044l.89.165,3.26.635,10.732,2.237.216.044-.127.064c1.69-3.87,3.215-7.364,4.334-9.912l1.322-3,.375-.807A1.762,1.762,0,0,1,439.684,89.31Z" transform="translate(-181.554 -62.237)" fill="#e0e0e0"/>
      <path id="Path_1456" data-name="Path 1456" d="M429.638,121.869c-.057,0,.559-2.809,1.379-6.24s1.538-6.2,1.595-6.189-.559,2.809-1.379,6.24S429.7,121.907,429.638,121.869Z" transform="translate(-185.715 -69.577)" fill="#e0e0e0"/>
      <path id="Path_1457" data-name="Path 1457" d="M445.4,103.559c0-.057,2.612,1.112,5.769,2.605s5.719,2.751,5.681,2.8-2.612-1.112-5.77-2.605S445.374,103.61,445.4,103.559Z" transform="translate(-191.463 -67.432)" fill="#e0e0e0"/>
      <rect id="Rectangle_2286" data-name="Rectangle 2286" width="12.359" height="18.338" transform="translate(152.948 101.224) rotate(-78.44)" fill="#f5f5f5"/>
      <path id="Path_1458" data-name="Path 1458" d="M308.36,190.882l-.2.127-.591.33-2.173,1.2-7.256,3.946-.064.032-.044-.051-.1-.127c-2.084-2.542-3.971-4.785-5.344-6.449l-1.608-1.963-.432-.54a.909.909,0,0,1-.14-.2,1.273,1.273,0,0,1,.165.178l.457.521,1.646,1.906c1.385,1.658,3.285,3.92,5.382,6.418l.108.127h-.108l7.282-3.9,2.211-1.163.6-.311a1.041,1.041,0,0,1,.2-.083Z" transform="translate(-134.956 -97.923)" fill="#e0e0e0"/>
      <path id="Path_1459" data-name="Path 1459" d="M286.49,202.779c0-.038,1.665-1.417,3.774-3.088s3.851-3,3.882-2.961-1.665,1.417-3.774,3.088S286.522,202.817,286.49,202.779Z" transform="translate(-133.527 -101.401)" fill="#e0e0e0"/>
      <path id="Path_1460" data-name="Path 1460" d="M308,198.41c.038,0,1.036,1.906,2.224,4.289s2.122,4.346,2.084,4.365-1.042-1.906-2.23-4.289S307.948,198.435,308,198.41Z" transform="translate(-141.368 -102.014)" fill="#e0e0e0"/>
      <path id="Path_1461" data-name="Path 1461" d="M357.95,164.458l28.759-3.3,2.91,19.475-29.833,2.929Z" transform="translate(-159.58 -88.433)" fill="#ebebeb"/>
      <path id="Path_1462" data-name="Path 1462" d="M358,158.928l12.441-12.492a1.576,1.576,0,0,1,1.976-.2l14.341,9.391" transform="translate(-159.598 -82.897)" fill="#e0e0e0"/>
      <path id="Path_1463" data-name="Path 1463" d="M360.84,189.4c-.038,0,2-2.789,4.543-6.17s4.645-6.094,4.683-6.062-2,2.789-4.543,6.17S360.878,189.433,360.84,189.4Z" transform="translate(-160.633 -94.27)" fill="#e0e0e0"/>
      <path id="Path_1464" data-name="Path 1464" d="M401.428,186.052c-.038.032-2.542-2.192-5.6-4.969S390.308,176,390.34,176s2.542,2.192,5.6,4.969S401.46,186.014,401.428,186.052Z" transform="translate(-171.389 -93.843)" fill="#e0e0e0"/>
      <path id="Path_1465" data-name="Path 1465" d="M359.837,160.91l-1.017-8.985L384,148.92l1.3,9.43L373.8,169.641Z" transform="translate(-159.897 -83.97)" fill="#fafafa"/>
      <path id="Path_1466" data-name="Path 1466" d="M359.783,160.815l.273.146.756.451,2.84,1.735,10.167,6.284h-.172l11.476-11.317-.044.14c-.248-1.8-.515-3.685-.775-5.6q-.267-1.906-.527-3.812l.184.14-25.181,2.948.1-.121c.292,2.809.527,5.045.693,6.6q.108,1.131.172,1.773a1.64,1.64,0,0,0,.038.464.513.513,0,0,1,0,.159.853.853,0,0,1,0-.146l-.064-.445q-.083-.635-.229-1.754c-.184-1.563-.458-3.812-.794-6.627v-.1h.1l25.162-3.069h.165v.159q.254,1.906.527,3.812c.267,1.906.527,3.812.775,5.6v.083l-.064.057-11.514,11.279-.076.07-.089-.057-10.167-6.418-2.789-1.786-.724-.47A1.9,1.9,0,0,1,359.783,160.815Z" transform="translate(-159.85 -83.876)" fill="#e0e0e0"/>
      <path id="Path_1467" data-name="Path 1467" d="M383.061,156.711c0,.089-3.813.6-8.584,1.137s-8.61.909-8.616.813,3.812-.6,8.584-1.137S383.054,156.616,383.061,156.711Z" transform="translate(-162.464 -86.806)" fill="#e0e0e0"/>
      <path id="Path_1468" data-name="Path 1468" d="M383.491,160.7c0,.1-3.812.6-8.584,1.144s-8.61.9-8.616.813,3.812-.6,8.584-1.144S383.484,160.613,383.491,160.7Z" transform="translate(-162.621 -88.261)" fill="#e0e0e0"/>
      <path id="Path_1469" data-name="Path 1469" d="M383.987,165.313c0,.089-3.812.635-8.584,1.144s-8.61.9-8.623.813,3.812-.635,8.584-1.144S383.974,165.224,383.987,165.313Z" transform="translate(-162.799 -89.942)" fill="#e0e0e0"/>
      <path id="Path_1470" data-name="Path 1470" d="M384.914,169.912c0,.1-3.654.585-8.184,1.1s-8.216.858-8.26.769,3.654-.585,8.191-1.1S384.908,169.823,384.914,169.912Z" transform="translate(-163.415 -91.619)" fill="#e0e0e0"/>
      <path id="Path_1471" data-name="Path 1471" d="M384.015,174.5a6.354,6.354,0,0,1-1.436.286c-.9.133-2.135.292-3.5.464s-2.618.3-3.52.375a6.093,6.093,0,0,1-1.468.045,6.74,6.74,0,0,1,1.442-.28c.9-.133,2.135-.3,3.5-.47s2.618-.292,3.514-.369A6.353,6.353,0,0,1,384.015,174.5Z" transform="translate(-165.464 -93.288)" fill="#e0e0e0"/>
      <path id="Path_1472" data-name="Path 1472" d="M382.893,178.952a5.548,5.548,0,0,1-1.817.362,5.364,5.364,0,0,1-1.855,0,5.084,5.084,0,0,1,1.817-.362A5.191,5.191,0,0,1,382.893,178.952Z" transform="translate(-167.335 -94.889)" fill="#e0e0e0"/>
    </g>
    <g id="freepik--Plant--inject-241" transform="translate(202.913 197.479)">
      <path id="Path_1473" data-name="Path 1473" d="M337.677,387.089a20.365,20.365,0,0,0-6.8-19.266s-1.576-.578-1.442,1.188c.083,1.055-.934,2.542-1.773,1.906-1.468-1.131-1-3.425-1.633-5.166-.743-2.033-2.91-3.12-4.893-3.99a50.414,50.414,0,0,0-11.31-3.87,19.108,19.108,0,0,0-11.717,1.239q1.309,2.624,2.605,5.255a1.843,1.843,0,0,0,2.332,1.169l4.766-.349c.693-.051,1.582,0,1.786.693s-.674,1.309-1.411,1.569l-4.994,1.792a16,16,0,0,0,6.608,5.509,47.862,47.862,0,0,0,8.26,2.815,4.861,4.861,0,0,0,2.732.21c1.455-.47,2.459-2.288,3.978-2.065a6.354,6.354,0,0,1-2.345,4.3c5.89,2.313,10,5.14,15.25,7.072" transform="translate(-298.11 -310.795)" fill="#9676ff"/>
      <path id="Path_1474" data-name="Path 1474" d="M351.566,417.006a1.55,1.55,0,0,1-.044-.152,2.4,2.4,0,0,0-.1-.451c-.083-.419-.2-1-.362-1.741-.305-1.531-.743-3.711-1.271-6.4q-.4-2.03-.877-4.448c-.152-.794-.318-1.62-.483-2.465l-.254-1.271q-.1-.635-.191-1.334a42.414,42.414,0,0,0-2.942-11.4,28.424,28.424,0,0,0-7.3-9.163,61.38,61.38,0,0,0-7.758-5.719c-2.319-1.487-4.251-2.6-5.579-3.38l-1.531-.9-.394-.241-.127-.089a.307.307,0,0,1,.146.064l.407.216,1.557.852c1.341.756,3.291,1.849,5.63,3.311a60.722,60.722,0,0,1,7.828,5.719,39.475,39.475,0,0,1,4.035,4.073,23.338,23.338,0,0,1,3.342,5.166,41.986,41.986,0,0,1,2.948,11.482l.184,1.334.248,1.271c.159.845.318,1.671.47,2.465q.448,2.383.839,4.448l1.195,6.411c.133.743.241,1.328.311,1.747l.076.457A.6.6,0,0,1,351.566,417.006Z" transform="translate(-306.948 -314.564)" fill="#263238"/>
      <path id="Path_1475" data-name="Path 1475" d="M368.185,320.431c-1.271,1.906-4.874.972-5.083-1.271s3.126-3.87,4.753-2.262a53.743,53.743,0,0,0-2.008-19.8,10.356,10.356,0,0,1-1.862,3.615,3.532,3.532,0,0,1-3.679,1.15c-1.728-.635-2.237-3.018-1.519-4.721a10.383,10.383,0,0,1,3.762-3.971,18.56,18.56,0,0,0-11.52-9.182c-1.906,3.1-3.857,6.272-4.721,9.811s-.47,7.587,1.906,10.364c1,1.182,2.332,2.1,3.114,3.444s.724,3.387-.635,4.111c-1.614.845-3.438-.75-4.353-2.332s-1.849-3.514-3.654-3.812a34.986,34.986,0,0,0,16.171,32.114l-.184-.172a50.331,50.331,0,0,0,9.512-17.086Zm-8.26-13.928a8.737,8.737,0,0,1,3.355-1.906,1.271,1.271,0,0,1,1.436.381,1.855,1.855,0,0,1,.368,1.5,3.6,3.6,0,0,1-.635,1.455,4.8,4.8,0,0,1-1.906,1.7,3.005,3.005,0,0,1-2.542,0,1.766,1.766,0,0,1-1.01-1.423,2.383,2.383,0,0,1,.915-1.709Z" transform="translate(-314.328 -283.99)" fill="#9676ff"/>
      <path id="Path_1476" data-name="Path 1476" d="M368.8,401.3a.824.824,0,0,1,0-.2c0-.146,0-.343,0-.585,0-.527-.051-1.271-.083-2.237-.083-1.957-.191-4.759-.33-8.216-.305-6.939-.794-16.521-1.576-27.094s-1.684-20.124-2.44-27.024c-.369-3.457-.705-6.246-.94-8.171-.108-.953-.2-1.7-.254-2.224a3.794,3.794,0,0,0-.064-.578.635.635,0,0,1,0-.2l.038.191c0,.146.051.337.083.578.076.521.178,1.271.311,2.211.267,1.906.635,4.715,1.029,8.165.813,6.9,1.76,16.457,2.542,27.031s1.233,20.162,1.493,27.107c.127,3.469.2,6.278.235,8.222V401.1a1.269,1.269,0,0,1-.045.2Z" transform="translate(-321.807 -298.861)" fill="#263238"/>
      <path id="Path_1477" data-name="Path 1477" d="M340.05,426.82l5.071,21.509h26.586l5.617-21.509Z" transform="translate(-313.401 -336.064)" fill="#455a64"/>
      <path id="Path_1478" data-name="Path 1478" d="M353.21,453.56c0,.407,2.052,12.74,2.052,12.74h16.171l1.779-12.74Z" transform="translate(-318.199 -345.813)" fill="#455a64"/>
      <path id="Path_1479" data-name="Path 1479" d="M373.842,460.436c0,.076-5.8.14-12.956.14s-12.956-.064-12.956-.14,5.8-.146,12.956-.146S373.842,460.354,373.842,460.436Z" transform="translate(-316.274 -348.266)" fill="#263238"/>
      <path id="Path_1480" data-name="Path 1480" d="M375.56,446.79c0,.076-6.837.14-15.25.14s-15.25-.064-15.25-.14,6.843-.14,15.25-.14S375.56,446.714,375.56,446.79Z" transform="translate(-315.227 -343.293)" fill="#263238"/>
      <path id="Path_1481" data-name="Path 1481" d="M374.675,451.5c0,.083-6.443.146-14.379.146s-14.386-.064-14.386-.146,6.443-.14,14.386-.14S374.675,451.424,374.675,451.5Z" transform="translate(-315.537 -345.011)" fill="#263238"/>
      <path id="Path_1482" data-name="Path 1482" d="M375.089,456.22c0,.076-6.208.14-13.865.14s-13.865-.064-13.865-.14,6.208-.14,13.865-.14S375.089,456.144,375.089,456.22Z" transform="translate(-316.066 -346.732)" fill="#263238"/>
      <path id="Path_1483" data-name="Path 1483" d="M375.96,442.21c0,.076-7.148.14-15.968.14s-15.962-.064-15.962-.14,7.142-.14,15.962-.14S375.96,442.134,375.96,442.21Z" transform="translate(-314.852 -341.624)" fill="#263238"/>
      <path id="Path_1484" data-name="Path 1484" d="M376.417,438.436c0,.076-7.282.14-16.26.14s-16.267-.064-16.267-.14,7.282-.146,16.267-.146S376.417,438.354,376.417,438.436Z" transform="translate(-314.801 -340.246)" fill="#263238"/>
    </g>
    <g id="freepik--Floor--inject-241" transform="translate(37 317.82)">
      <path id="Path_1485" data-name="Path 1485" d="M307.687,473.545c0,.1-60.606.165-135.343.165S37,473.641,37,473.545s60.593-.165,135.343-.165S307.687,473.456,307.687,473.545Z" transform="translate(-37 -473.38)" fill="#263238"/>
    </g>
    <g id="freepik--Character--inject-241" transform="translate(71.312 80.959)">
      <path id="Path_1486" data-name="Path 1486" d="M234.833,430.151l-1.722,22.837-9.932-.2-1.36-23.765Z" transform="translate(-138.695 -220.346)" fill="#ffbe9d"/>
      <path id="Path_1487" data-name="Path 1487" d="M233.78,461.8v.635s11.158,4.607,11.26,6.729l-22.24-.318.413-7.4a12.708,12.708,0,0,0,10.567.349Z" transform="translate(-139.052 -232.17)" fill="#9676ff"/>
      <path id="Path_1488" data-name="Path 1488" d="M245.529,467.63c-.083,0-.21-.464.045-.985s.705-.718.743-.635-.241.356-.445.788S245.625,467.624,245.529,467.63Z" transform="translate(-147.301 -233.826)" fill="#263238"/>
      <path id="Path_1489" data-name="Path 1489" d="M226.558,465.253a.921.921,0,0,0-.635,1.029.883.883,0,0,0,1.017.635.966.966,0,0,0,.674-1.093.9.9,0,0,0-1.125-.559" transform="translate(-140.186 -233.545)" fill="#fff"/>
      <path id="Path_1490" data-name="Path 1490" d="M239.02,463.092c0,.108-.546.153-1.087.5s-.832.788-.928.743.07-.667.731-1.068S239.045,463,239.02,463.092Z" transform="translate(-144.223 -232.732)" fill="#263238"/>
      <path id="Path_1491" data-name="Path 1491" d="M242.983,464.7c0,.108-.445.286-.82.737s-.489.94-.6.934-.172-.635.3-1.176S242.983,464.595,242.983,464.7Z" transform="translate(-145.866 -233.338)" fill="#263238"/>
      <path id="Path_1492" data-name="Path 1492" d="M222.8,472.194l.1-1.684,21.452.947a1.862,1.862,0,0,1,.68,1.074Z" transform="translate(-139.052 -235.473)" fill="#263238"/>
      <path id="Path_1493" data-name="Path 1493" d="M324.23,112.073s4.162-4.111,5.268-4.8,2.465-2.249,3.323-2.605a25.3,25.3,0,0,0,2.84-1.716l1.69-2.091s1.271-.133.991,1.271l3.145-.635s.845.731-.5,1.595a3.177,3.177,0,0,1-2.288.635l-1.322,1.474.229.775,7.625,1a1.423,1.423,0,0,1-1.4,1.271c-1.271,0-5.871-.2-5.871-.2l7.091,2.675s.375,1.087-1.843.769a51.175,51.175,0,0,1-5.757-1.4l-.635.559,1.938,1.131,1.811,2.338a1.963,1.963,0,0,1-2.294-.515l-1.169-1.144h-1.7s-4.613,3.222-6.157,2.472l-1.309,1.315Z" transform="translate(-176.032 -100.702)" fill="#ffbe9d"/>
      <path id="Path_1494" data-name="Path 1494" d="M344.428,109.72a1.721,1.721,0,0,1,.261.794,4.283,4.283,0,0,1-.153,2.027,3.177,3.177,0,0,1-1.22,1.633c-.426.3-.737.4-.756.362s.242-.21.635-.546a3.47,3.47,0,0,0,1.048-1.55A9.247,9.247,0,0,0,344.428,109.72Z" transform="translate(-182.715 -103.934)" fill="#eb996e"/>
      <path id="Path_1495" data-name="Path 1495" d="M335.28,111.839a4.1,4.1,0,0,0,1.906-.743,5.2,5.2,0,0,0,1.461-1.747,14.613,14.613,0,0,0,1.042-2.764v-.038l.038-.038a7.879,7.879,0,0,0,2.1-2.878,6.412,6.412,0,0,0,.445-1.754.978.978,0,0,0-.216-.712.909.909,0,0,0-.635-.235l.114-.07a14.341,14.341,0,0,1-3.736,3.882,10.166,10.166,0,0,1-1.334.794,2.116,2.116,0,0,1-.521.21c0-.044.693-.369,1.741-1.163a15.155,15.155,0,0,0,3.59-3.9l.044-.07h.076a1.182,1.182,0,0,1,.909.324,1.271,1.271,0,0,1,.311.947,6.442,6.442,0,0,1-.464,1.868,8.07,8.07,0,0,1-2.211,3l.057-.076a14.323,14.323,0,0,1-1.112,2.8,5.083,5.083,0,0,1-1.582,1.779,3.3,3.3,0,0,1-1.442.578,1.328,1.328,0,0,1-.578.006Z" transform="translate(-180.061 -100.614)" fill="#eb996e"/>
      <path id="Path_1496" data-name="Path 1496" d="M235.54,148.213l30.341-12.854,26.185-18.948,5.3,5.63s-18.351,19.113-23.129,23.015-30.6,20.333-30.6,20.333Z" transform="translate(-143.697 -106.373)" fill="#9676ff"/>
      <path id="Path_1497" data-name="Path 1497" d="M261.44,172.513a3.914,3.914,0,0,0-2.326.178c-.241.121-.489.388-.356.635.083.146.28.184.445.216,3.012.464,5.719,1.366,8.724,1.836l.508-.216A22.481,22.481,0,0,0,261.44,172.513Z" transform="translate(-152.149 -126.791)" fill="#fafafa"/>
      <path id="Path_1498" data-name="Path 1498" d="M271.413,167.183a23.959,23.959,0,0,0,1.906,4.308l.3-.172a23.254,23.254,0,0,0-.267-4.556,7.244,7.244,0,0,0-1.779-3.933,6.99,6.99,0,0,0-.159,4.353Z" transform="translate(-156.677 -123.297)" fill="#fafafa"/>
      <path id="Path_1499" data-name="Path 1499" d="M278.266,165.761c-.635,1.773-1.239,3.476-1.906,5.249l1.271-1.3a18.179,18.179,0,0,0,2.8-4.918,1.588,1.588,0,0,0,.108-.635.635.635,0,0,0-.356-.527.763.763,0,0,0-.693.165A4.035,4.035,0,0,0,278.266,165.761Z" transform="translate(-158.58 -123.579)" fill="#fafafa"/>
      <path id="Path_1500" data-name="Path 1500" d="M309.208,132.989a3.444,3.444,0,0,0,1.97-.635c.184-.153.343-.445.178-.635a.515.515,0,0,0-.432-.1c-2.7.241-5.229.038-7.93.28l-.394.292A19.794,19.794,0,0,0,309.208,132.989Z" transform="translate(-168.146 -111.915)" fill="#fafafa"/>
      <path id="Path_1501" data-name="Path 1501" d="M304.564,136.223a21.1,21.1,0,0,0-2.542-3.323l-.222.216a20.752,20.752,0,0,0,1.207,3.876,6.4,6.4,0,0,0,2.383,3.018,6.208,6.208,0,0,0-.826-3.787Z" transform="translate(-167.855 -112.385)" fill="#fafafa"/>
      <path id="Path_1502" data-name="Path 1502" d="M299.045,139.281c.172-1.665.33-3.266.5-4.931l-.794,1.385a16.321,16.321,0,0,0-1.36,4.855,1.423,1.423,0,0,0,.044.591.553.553,0,0,0,.426.381.673.673,0,0,0,.559-.292A3.578,3.578,0,0,0,299.045,139.281Z" transform="translate(-166.243 -112.914)" fill="#fafafa"/>
      <path id="Path_1503" data-name="Path 1503" d="M124.785,368.746,101.8,376.288l-3.812-9.773,22.646-10.935Z" transform="translate(-93.548 -193.571)" fill="#ffbe9d"/>
      <path id="Path_1504" data-name="Path 1504" d="M102.317,380.739l-.635.261s0,12.753-2.021,13.706L91,372.872l7.384-2.592A13.452,13.452,0,0,0,102.317,380.739Z" transform="translate(-91 -198.931)" fill="#9676ff"/>
      <path id="Path_1505" data-name="Path 1505" d="M99.362,375.01a.959.959,0,0,0-1.271-.216.928.928,0,0,0-.222,1.271,1.017,1.017,0,0,0,1.341.216.966.966,0,0,0,.089-1.328" transform="translate(-93.446 -200.521)" fill="#fff"/>
      <path id="Path_1506" data-name="Path 1506" d="M91,374l1.779-.635,7.625,21.153s0,1.144-.762,1.3Z" transform="translate(-91 -200.054)" fill="#263238"/>
      <path id="Path_1507" data-name="Path 1507" d="M106.577,386.416c-.108.038-.369-.477-.921-.864s-1.106-.489-1.106-.6.68-.2,1.341.28S106.685,386.4,106.577,386.416Z" transform="translate(-95.94 -204.245)" fill="#263238"/>
      <path id="Path_1508" data-name="Path 1508" d="M106.414,390.948c-.1.064-.457-.324-1.055-.508s-1.112-.1-1.15-.21.54-.413,1.271-.172S106.516,390.9,106.414,390.948Z" transform="translate(-95.815 -206.108)" fill="#263238"/>
      <path id="Path_1509" data-name="Path 1509" d="M104.177,395.034c-.064-.089.413-.451,1.106-.407s1.125.445,1.048.527-.5-.1-1.074-.133S104.228,395.136,104.177,395.034Z" transform="translate(-95.802 -207.806)" fill="#263238"/>
      <path id="Path_1510" data-name="Path 1510" d="M190.56,275.344s-16.851,34.312-21.375,36.949-56.615,21.178-56.615,21.178l-4.009-12.378L155.7,296.2s6.157-16.788,8.451-29.54c1.4-7.816,4.626-12.4,9.258-18.484a31.06,31.06,0,0,1,5.039-5.344l21.178,4.009Z" transform="translate(-97.402 -152.464)" fill="#263238"/>
      <path id="Path_1511" data-name="Path 1511" d="M245.355,248.632l-22.741-3.812L218,271.558l4.619,56.152s-3.177,19.52-2.637,32.362c.489,12.111.959,16.68.959,16.68s9.779.044,12,.044c.934,0,9.29-60.777,9.29-60.777Z" transform="translate(-137.302 -153.19)" fill="#263238"/>
      <path id="Path_1512" data-name="Path 1512" d="M234.532,273.9a3.013,3.013,0,0,1-.152.394c-.121.286-.28.635-.483,1.118l-1.8,4.086c-1.512,3.488-3.577,8.26-5.852,13.522s-4.588,9.97-6.354,13.306c-.883,1.665-1.614,3.005-2.148,3.921l-.635,1.048a2.069,2.069,0,0,1-.229.356,1.906,1.906,0,0,1,.172-.388c.146-.273.33-.635.559-1.08l2.046-3.965c1.7-3.361,3.946-8.063,6.252-13.344s4.391-10.014,5.973-13.471c.788-1.716,1.436-3.1,1.906-4.048l.54-1.087A1.741,1.741,0,0,1,234.532,273.9Z" transform="translate(-136.894 -163.792)" fill="#455a64"/>
      <path id="Path_1513" data-name="Path 1513" d="M111.661,369.985c.038.083-.254.3-.635.489s-.743.28-.788.2.254-.3.635-.5S111.616,369.915,111.661,369.985Z" transform="translate(-98.012 -198.813)" fill="#455a64"/>
      <path id="Path_1514" data-name="Path 1514" d="M119.8,365.69c.044.083-.566.457-1.347.839a3.914,3.914,0,0,1-1.493.54c-.044-.083.566-.457,1.347-.839A3.914,3.914,0,0,1,119.8,365.69Z" transform="translate(-100.463 -197.257)" fill="#455a64"/>
      <path id="Path_1515" data-name="Path 1515" d="M128.749,361.33c.044.083-.566.457-1.347.845a4,4,0,0,1-1.493.546c-.044-.083.566-.464,1.347-.845A4,4,0,0,1,128.749,361.33Z" transform="translate(-103.726 -195.668)" fill="#455a64"/>
      <path id="Path_1516" data-name="Path 1516" d="M137.674,357a7.784,7.784,0,0,1-2.834,1.4A7.409,7.409,0,0,1,137.674,357Z" transform="translate(-106.983 -194.089)" fill="#455a64"/>
      <path id="Path_1517" data-name="Path 1517" d="M146.576,352.52c.044.083-.559.464-1.341.858a3.9,3.9,0,0,1-1.487.553c-.044-.083.559-.464,1.341-.851a3.985,3.985,0,0,1,1.487-.559Z" transform="translate(-110.231 -192.456)" fill="#455a64"/>
      <path id="Path_1518" data-name="Path 1518" d="M155.471,348.05c.044.083-.559.464-1.334.858a3.894,3.894,0,0,1-1.487.565,4,4,0,0,1,1.334-.858A3.932,3.932,0,0,1,155.471,348.05Z" transform="translate(-113.477 -190.826)" fill="#455a64"/>
      <path id="Path_1519" data-name="Path 1519" d="M164.385,343.5a7.625,7.625,0,0,1-2.815,1.455,3.914,3.914,0,0,1,1.328-.877,4.054,4.054,0,0,1,1.487-.578Z" transform="translate(-116.729 -189.167)" fill="#455a64"/>
      <path id="Path_1520" data-name="Path 1520" d="M173.143,338.85c.044.083-.546.477-1.315.89a3.845,3.845,0,0,1-1.468.6,4.015,4.015,0,0,1,1.315-.89A3.845,3.845,0,0,1,173.143,338.85Z" transform="translate(-119.934 -187.472)" fill="#455a64"/>
      <path id="Path_1521" data-name="Path 1521" d="M181.846,334c.044.076-.527.5-1.271.934a3.813,3.813,0,0,1-1.455.635,4.054,4.054,0,0,1,1.271-.934,3.749,3.749,0,0,1,1.455-.635Z" transform="translate(-123.127 -185.703)" fill="#455a64"/>
      <path id="Path_1522" data-name="Path 1522" d="M188.347,326.56a4.447,4.447,0,0,1-.108,1.576,5.729,5.729,0,0,0-.064.591,1,1,0,0,0,0,.127.318.318,0,0,1-.051.2,1.01,1.01,0,0,1-.172.21c-.229.2-.394.267-.426.235s.089-.172.248-.394a.679.679,0,0,0,.1-.172.127.127,0,0,0,0-.051.451.451,0,0,1,0-.146,3.578,3.578,0,0,1,0-.635,3.508,3.508,0,0,1,.47-1.538Z" transform="translate(-126.191 -182.991)" fill="#455a64"/>
      <path id="Path_1523" data-name="Path 1523" d="M190.685,316.88a3.952,3.952,0,0,1-.222,1.576,3.9,3.9,0,0,1-.546,1.493,3.971,3.971,0,0,1,.222-1.576A4.015,4.015,0,0,1,190.685,316.88Z" transform="translate(-127.061 -179.462)" fill="#455a64"/>
      <path id="Path_1524" data-name="Path 1524" d="M193.207,307.27a7.784,7.784,0,0,1-.82,3.05,3.813,3.813,0,0,1,.248-1.569A3.927,3.927,0,0,1,193.207,307.27Z" transform="translate(-127.962 -175.958)" fill="#455a64"/>
      <path id="Path_1525" data-name="Path 1525" d="M195.856,297.68a7.485,7.485,0,0,1-.858,3.044,3.889,3.889,0,0,1,.267-1.563A3.951,3.951,0,0,1,195.856,297.68Z" transform="translate(-128.915 -172.462)" fill="#455a64"/>
      <path id="Path_1526" data-name="Path 1526" d="M198.6,288.12a3.851,3.851,0,0,1-.286,1.563,3.959,3.959,0,0,1-.6,1.474A7.453,7.453,0,0,1,198.6,288.12Z" transform="translate(-129.909 -168.976)" fill="#455a64"/>
      <path id="Path_1527" data-name="Path 1527" d="M201.468,278.59a7.669,7.669,0,0,1-.928,3.025,3.927,3.927,0,0,1,.305-1.563,3.87,3.87,0,0,1,.623-1.461Z" transform="translate(-130.937 -165.502)" fill="#455a64"/>
      <path id="Path_1528" data-name="Path 1528" d="M204.66,269.22a6.126,6.126,0,0,1-.457,1.519,3.857,3.857,0,0,1-.693,1.423,4.061,4.061,0,0,1,.388-1.55A2.878,2.878,0,0,1,204.66,269.22Z" transform="translate(-132.02 -162.086)" fill="#455a64"/>
      <path id="Path_1529" data-name="Path 1529" d="M209.659,260.838a3.882,3.882,0,0,1-.75,1.4c-.489.718-.953,1.271-1.029,1.214a3.889,3.889,0,0,1,.756-1.4C209.125,261.334,209.589,260.787,209.659,260.838Z" transform="translate(-133.613 -159.028)" fill="#455a64"/>
      <path id="Path_1530" data-name="Path 1530" d="M215.461,252.8c.076.057-.286.635-.807,1.366s-1,1.226-1.074,1.176a3.953,3.953,0,0,1,.807-1.372C214.908,253.268,215.391,252.74,215.461,252.8Z" transform="translate(-135.691 -156.097)" fill="#455a64"/>
      <path id="Path_1531" data-name="Path 1531" d="M220.507,246.845c.07.057-.089.381-.356.731s-.54.578-.635.527.089-.381.356-.731S220.449,246.788,220.507,246.845Z" transform="translate(-137.846 -153.925)" fill="#455a64"/>
      <path id="Path_1532" data-name="Path 1532" d="M225.186,319.922c-.089,0-.191-.337-.222-.775s0-.8.1-.807.191.343.222.782S225.281,319.916,225.186,319.922Z" transform="translate(-139.837 -179.994)" fill="#455a64"/>
      <path id="Path_1533" data-name="Path 1533" d="M225.9,329.279a4.327,4.327,0,0,1-.286-1.627,4.06,4.06,0,0,1,.044-1.652,4.327,4.327,0,0,1,.286,1.627A4.193,4.193,0,0,1,225.9,329.279Z" transform="translate(-140.055 -182.787)" fill="#455a64"/>
      <path id="Path_1534" data-name="Path 1534" d="M226.6,339.615a4.162,4.162,0,0,1-.273-1.633,4.258,4.258,0,0,1,.064-1.652,4.3,4.3,0,0,1,.267,1.633A4.352,4.352,0,0,1,226.6,339.615Z" transform="translate(-140.32 -186.553)" fill="#455a64"/>
      <path id="Path_1535" data-name="Path 1535" d="M227.129,349.945a4.124,4.124,0,0,1-.235-1.633,4.035,4.035,0,0,1,.1-1.652A8.261,8.261,0,0,1,227.129,349.945Z" transform="translate(-140.529 -190.319)" fill="#455a64"/>
      <path id="Path_1536" data-name="Path 1536" d="M227.405,360.291a4.289,4.289,0,0,1-.191-1.646,4.206,4.206,0,0,1,.14-1.646A8.26,8.26,0,0,1,227.405,360.291Z" transform="translate(-140.652 -194.089)" fill="#455a64"/>
      <path id="Path_1537" data-name="Path 1537" d="M227.366,370.641a4.372,4.372,0,0,1-.14-1.652,4.13,4.13,0,0,1,.191-1.639,4.3,4.3,0,0,1,.14,1.646A4.149,4.149,0,0,1,227.366,370.641Z" transform="translate(-140.657 -197.862)" fill="#455a64"/>
      <path id="Path_1538" data-name="Path 1538" d="M226.976,380.991a4.193,4.193,0,0,1-.083-1.652,4.244,4.244,0,0,1,.241-1.639,4.245,4.245,0,0,1,.089,1.652A4.314,4.314,0,0,1,226.976,380.991Z" transform="translate(-140.528 -201.636)" fill="#455a64"/>
      <path id="Path_1539" data-name="Path 1539" d="M226.284,391.325a8.42,8.42,0,0,1,.248-3.285,4.073,4.073,0,0,1,.044,1.652A4.309,4.309,0,0,1,226.284,391.325Z" transform="translate(-140.3 -205.406)" fill="#455a64"/>
      <path id="Path_1540" data-name="Path 1540" d="M225.4,401.642a4.137,4.137,0,0,1,0-1.652,4.206,4.206,0,0,1,.305-1.62,4.282,4.282,0,0,1,0,1.652A4.206,4.206,0,0,1,225.4,401.642Z" transform="translate(-139.971 -209.172)" fill="#455a64"/>
      <path id="Path_1541" data-name="Path 1541" d="M224.572,411.965a4.289,4.289,0,0,1-.038-1.652,4.232,4.232,0,0,1,.286-1.633,4.4,4.4,0,0,1,.044,1.658A4.149,4.149,0,0,1,224.572,411.965Z" transform="translate(-139.662 -212.931)" fill="#455a64"/>
      <path id="Path_1542" data-name="Path 1542" d="M224,422.305a4.391,4.391,0,0,1-.089-1.652,4.3,4.3,0,0,1,.241-1.633,4.2,4.2,0,0,1,.089,1.646A4.1,4.1,0,0,1,224,422.305Z" transform="translate(-139.441 -216.701)" fill="#455a64"/>
      <path id="Path_1543" data-name="Path 1543" d="M223.889,432.658a4.086,4.086,0,0,1-.172-1.646,4.321,4.321,0,0,1,.152-1.652,4.207,4.207,0,0,1,.178,1.646A4.448,4.448,0,0,1,223.889,432.658Z" transform="translate(-139.379 -220.47)" fill="#455a64"/>
      <path id="Path_1544" data-name="Path 1544" d="M224.349,443a4.22,4.22,0,0,1-.286-1.627,4.041,4.041,0,0,1,.044-1.652,8.26,8.26,0,0,1,.242,3.279Z" transform="translate(-139.489 -224.247)" fill="#455a64"/>
      <path id="Path_1545" data-name="Path 1545" d="M225.347,451.619c-.089,0-.216-.324-.28-.763s-.051-.794.044-.807.216.33.28.763S225.436,451.607,225.347,451.619Z" transform="translate(-139.865 -228.013)" fill="#455a64"/>
      <path id="Path_1546" data-name="Path 1546" d="M227.66,251a2.594,2.594,0,0,1-.343.635,17.9,17.9,0,0,1-1.131,1.62,14.831,14.831,0,0,1-4.963,4.219,9.8,9.8,0,0,1-6.424.845,6.989,6.989,0,0,1-1.862-.7,2.331,2.331,0,0,1-.6-.407,11.812,11.812,0,0,0,2.51.877,9.982,9.982,0,0,0,6.227-.915A15.758,15.758,0,0,0,226,253.11C227.063,251.851,227.615,251,227.66,251Z" transform="translate(-135.239 -155.443)" fill="#455a64"/>
      <path id="Path_1547" data-name="Path 1547" d="M251.554,251.64a7.758,7.758,0,0,1-.28,1.817,26.41,26.41,0,0,1-1.36,4.238,25.934,25.934,0,0,1-2.065,3.946,7.919,7.919,0,0,1-1.1,1.48,13.757,13.757,0,0,1,.9-1.6,34.142,34.142,0,0,0,3.4-8.121,14.5,14.5,0,0,1,.508-1.76Z" transform="translate(-147.784 -155.676)" fill="#455a64"/>
      <path id="Path_1548" data-name="Path 1548" d="M249.474,252.463c0,.051-.3.076-.515.451a.8.8,0,0,0-.064.635.718.718,0,0,0,1.271,0,.813.813,0,0,0-.07-.635c-.21-.369-.527-.394-.515-.445s.076-.044.216,0a.883.883,0,0,1,.5.337,1.023,1.023,0,0,1,.165.89.974.974,0,1,1-1.7-.89.871.871,0,0,1,.489-.343C249.417,252.419,249.474,252.444,249.474,252.463Z" transform="translate(-148.443 -155.966)" fill="#455a64"/>
      <path id="Path_1549" data-name="Path 1549" d="M181.511,121.685a8.718,8.718,0,0,0-11.654,3.933c-1.01,2.04-1.271,4.505-2.777,6.2-1.366,1.506-3.457,2.059-5.382,2.713s-3.971,1.658-4.727,3.552c-.635,1.614-.21,3.6-1.195,5.026s-3.031,1.7-4.8,1.817a1.906,1.906,0,0,0,1.741,1.449,7.1,7.1,0,0,1-4.27.915,6.46,6.46,0,0,0,4.448,4.448,17.46,17.46,0,0,0,6.526.534c2.484-.153,5.14-.5,6.99-2.16,2.23-2,2.936-5.6,5.674-6.824,1.4-.635,3.056-.458,4.448-1.106,1.906-.89,2.859-3.114,3.069-5.217s-.133-4.225,0-6.354.972-4.353,2.809-5.395Z" transform="translate(-111.945 -107.969)" fill="#263238"/>
      <path id="Path_1550" data-name="Path 1550" d="M198.938,120.731c.184-.407-.286-.871-.737-.851a1.8,1.8,0,0,0-1.125.68,7.714,7.714,0,0,0-2.1,4.276,5.312,5.312,0,0,0,1.493,4.448,1.449,1.449,0,0,0,.953.483,1.163,1.163,0,0,0,.934-.585,3.177,3.177,0,0,0,.369-1.08,29.618,29.618,0,0,0,.546-7.453Z" transform="translate(-128.89 -107.638)" fill="#9676ff"/>
      <path id="Path_1551" data-name="Path 1551" d="M198.2,123.924c0-4.543.731-9.366,3.66-12.829,2.612-3.082,7.028-5.083,11.018-5.719a14.36,14.36,0,0,1,6.246.737c2.6.839,4.13,3.3,5.757,5.5,3.253,4.4,4.321,11.037,3.177,13.179l-18.1,14.907c-3.984-1.131-8.426-2.872-10.167-6.621C198.569,130.526,198.213,126.713,198.2,123.924Z" transform="translate(-130.084 -102.322)" fill="#263238"/>
      <path id="Path_1552" data-name="Path 1552" d="M206.812,116.779l12.009-6.411c3.99-1.449,7.968,2.929,9.245,6.99,1.423,4.5,2.98,10.052,3.285,13.6.635,7.129-4.448,9.3-4.448,9.3h0l2.453,8.057,2.815,8.959-18.23-10.8-8.7-26.719A2.491,2.491,0,0,1,206.812,116.779Z" transform="translate(-132.621 -104.067)" fill="#ffbe9d"/>
      <path id="Path_1553" data-name="Path 1553" d="M239.9,128.5a.9.9,0,0,1-.635,1.1.858.858,0,0,1-1.1-.572.909.909,0,0,1,.635-1.1.864.864,0,0,1,1.1.572Z" transform="translate(-144.643 -110.555)" fill="#263238"/>
      <path id="Path_1554" data-name="Path 1554" d="M238.242,125.092c-.064.153-.883-.083-1.8.261s-1.417,1.048-1.557.972,0-.273.178-.6a2.542,2.542,0,0,1,1.195-.915,2.376,2.376,0,0,1,1.487-.064C238.115,124.876,238.274,125.028,238.242,125.092Z" transform="translate(-143.438 -109.381)" fill="#263238"/>
      <path id="Path_1555" data-name="Path 1555" d="M226.295,132.468a.909.909,0,0,1-.635,1.1.87.87,0,0,1-1.106-.572.909.909,0,0,1,.635-1.1.877.877,0,0,1,1.106.572Z" transform="translate(-139.681 -112.004)" fill="#263238"/>
      <path id="Path_1556" data-name="Path 1556" d="M223.909,129.39c-.076.14-.871-.184-1.811.051s-1.525.883-1.658.788,0-.273.248-.566a2.459,2.459,0,0,1,1.271-.775,2.364,2.364,0,0,1,1.481.1C223.8,129.142,223.954,129.326,223.909,129.39Z" transform="translate(-138.173 -110.895)" fill="#263238"/>
      <path id="Path_1557" data-name="Path 1557" d="M232.63,135.718a6.538,6.538,0,0,1,1.468-.635c.241-.089.458-.191.458-.369a1.233,1.233,0,0,0-.343-.674c-.369-.534-.762-1.087-1.169-1.665a30.57,30.57,0,0,1-2.8-4.448,30.812,30.812,0,0,1,3.145,4.187l1.144,1.677a1.468,1.468,0,0,1,.362.921.635.635,0,0,1-.311.451,1.7,1.7,0,0,1-.394.159A6.354,6.354,0,0,1,232.63,135.718Z" transform="translate(-141.766 -110.572)" fill="#263238"/>
      <path id="Path_1558" data-name="Path 1558" d="M233.785,157.472A18,18,0,0,1,224,157.3s3.6,4.187,10.306,1.843Z" transform="translate(-139.49 -121.281)" fill="#eb996e"/>
      <path id="Path_1559" data-name="Path 1559" d="M229.734,143.558a1.563,1.563,0,0,1,1.093-1,2.046,2.046,0,0,1,2.021.451,1.271,1.271,0,0,1,.3.864c-.032.172,0,.083-.089.216a3.527,3.527,0,0,1-1.2,1.226,1.525,1.525,0,0,1-1.709-.191A1.55,1.55,0,0,1,229.734,143.558Z" transform="translate(-141.557 -115.869)" fill="#eb996e"/>
      <path id="Path_1560" data-name="Path 1560" d="M229.832,142.309c.152-.051.407.979,1.468,1.493s2.129.127,2.173.267-.2.261-.635.388a2.65,2.65,0,0,1-1.8-.165,2.307,2.307,0,0,1-1.163-1.271C229.711,142.6,229.762,142.322,229.832,142.309Z" transform="translate(-141.592 -115.815)" fill="#263238"/>
      <path id="Path_1561" data-name="Path 1561" d="M223.057,125.79c0,.286-1,.394-2.084.807s-1.906.934-2.1.737c-.1-.1,0-.375.3-.712a3.685,3.685,0,0,1,1.455-.959,3.774,3.774,0,0,1,1.735-.216C222.809,125.53,223.07,125.682,223.057,125.79Z" transform="translate(-137.607 -109.66)" fill="#263238"/>
      <path id="Path_1562" data-name="Path 1562" d="M236.742,121.172c-.114.254-.82.191-1.608.375s-1.411.5-1.62.318c-.1-.1-.044-.337.2-.635a2.268,2.268,0,0,1,1.214-.674,2.243,2.243,0,0,1,1.385.114C236.647,120.848,236.793,121.045,236.742,121.172Z" transform="translate(-142.942 -107.863)" fill="#263238"/>
      <path id="Path_1563" data-name="Path 1563" d="M209.484,137.776c-.108,0-4.124-.311-3.177,3.52s4.6,2.078,4.581,1.97S209.484,137.776,209.484,137.776Z" transform="translate(-132.987 -114.161)" fill="#ffbe9d"/>
      <path id="Path_1564" data-name="Path 1564" d="M209.979,142.959a1.535,1.535,0,0,1-.159.146.68.68,0,0,1-.5.133c-.438-.044-.94-.6-1.131-1.271a2.269,2.269,0,0,1-.051-1,.788.788,0,0,1,.375-.635.356.356,0,0,1,.438.083c.076.1.07.178.1.178s.064-.083,0-.235a.451.451,0,0,0-.21-.2.5.5,0,0,0-.394,0,.953.953,0,0,0-.546.769,2.345,2.345,0,0,0,0,1.125,1.8,1.8,0,0,0,1.385,1.411.756.756,0,0,0,.585-.254C209.991,143.054,209.991,142.965,209.979,142.959Z" transform="translate(-133.595 -115.016)" fill="#eb996e"/>
      <path id="Path_1565" data-name="Path 1565" d="M209.658,146.781a.634.634,0,0,0,0,.54.737.737,0,0,0,.4.477.826.826,0,0,0,.75-.127.788.788,0,0,0,.381-.635.826.826,0,0,0-.248-.566c-.261-.248-.508-.216-.5-.2a1.1,1.1,0,0,1,.4.292.75.75,0,0,1,.165.47.635.635,0,0,1-.311.489.674.674,0,0,1-.572.121.635.635,0,0,1-.33-.356A2.249,2.249,0,0,1,209.658,146.781Z" transform="translate(-134.24 -117.256)" fill="#fafafa"/>
      <path id="Path_1566" data-name="Path 1566" d="M233.98,116.13a6.2,6.2,0,0,0-3.177-1.906c-1.207-.349-2.472-.515-3.679-.877a11.831,11.831,0,0,1-6.7-5.21,7.117,7.117,0,0,1,6.164-1.392,9.614,9.614,0,0,1,5.344,3.565,15.1,15.1,0,0,1,2.669,5.935" transform="translate(-138.185 -102.776)" fill="#263238"/>
      <path id="Path_1567" data-name="Path 1567" d="M205.049,115.486c2.186-3.374,7.187-6.151,11.19-5.776.229,3.361-1.334,7.574-2.885,10.567s-1.811,7.689-6.862,7.333c-.349,0-.635.362-.985.261a1.271,1.271,0,0,1-.635-.6A11.317,11.317,0,0,1,205.049,115.486Z" transform="translate(-131.945 -103.918)" fill="#263238"/>
      <path id="Path_1568" data-name="Path 1568" d="M218.256,110.13a4.023,4.023,0,0,1-.051.883c-.064.566-.152,1.379-.292,2.389a43.209,43.209,0,0,1-1.709,7.771,23.508,23.508,0,0,1-1.773,4.022,6.087,6.087,0,0,1-2.37,2.694,2.542,2.542,0,0,1-2.4,0,1.627,1.627,0,0,1-.5-.438c-.089-.127-.121-.2-.108-.21a2.256,2.256,0,0,0,2.9.458,6.049,6.049,0,0,0,2.211-2.637,25.117,25.117,0,0,0,1.728-3.984,51.17,51.17,0,0,0,1.792-7.7c.153-.953.286-1.747.394-2.37A5.084,5.084,0,0,1,218.256,110.13Z" transform="translate(-134.038 -104.084)" fill="#263238"/>
      <path id="Path_1569" data-name="Path 1569" d="M157.5,141.067a1.392,1.392,0,0,1-.089-.394,3.608,3.608,0,0,1,.064-1.15,4.334,4.334,0,0,1,.769-1.665,4.225,4.225,0,0,1,1.938-1.455,5.179,5.179,0,0,1,2.936,0,5.274,5.274,0,0,0,3.177,0,5.21,5.21,0,0,0,2.542-2.434,11.032,11.032,0,0,0,1.125-3.717,29.522,29.522,0,0,1,.762-3.908,9.271,9.271,0,0,1,1.766-3.279,9.169,9.169,0,0,1,9.569-2.967,8.5,8.5,0,0,1,1.08.394,1.976,1.976,0,0,1,.356.191c0,.032-.508-.222-1.474-.457a9.3,9.3,0,0,0-4.13-.089,8.985,8.985,0,0,0-5.166,3.126,9.087,9.087,0,0,0-1.7,3.177,30.5,30.5,0,0,0-.737,3.87,11.278,11.278,0,0,1-1.169,3.812,5.5,5.5,0,0,1-2.7,2.542,4,4,0,0,1-1.754.248,11.239,11.239,0,0,1-1.614-.273,4.912,4.912,0,0,0-2.8-.051,4.06,4.06,0,0,0-1.868,1.347,4.347,4.347,0,0,0-.788,1.576A4.537,4.537,0,0,0,157.5,141.067Z" transform="translate(-115.204 -107.59)" fill="#263238"/>
      <path id="Path_1570" data-name="Path 1570" d="M199.77,116.977a2.415,2.415,0,0,1,.292-.585A6.831,6.831,0,0,1,201.2,115a10.707,10.707,0,0,1,5.249-2.643,20.765,20.765,0,0,1,5.89-.222c.75.07,1.353.14,1.773.2a2.275,2.275,0,0,1,.635.127,22.733,22.733,0,0,1-2.434-.1,23.625,23.625,0,0,0-5.808.311,11.132,11.132,0,0,0-5.153,2.491A14.179,14.179,0,0,0,199.77,116.977Z" transform="translate(-130.656 -104.773)" fill="#455a64"/>
      <path id="Path_1571" data-name="Path 1571" d="M208.08,109.848a5.274,5.274,0,0,1,1.5-.546,15.619,15.619,0,0,1,3.813-.5,11.857,11.857,0,0,1,2.122.159,2.7,2.7,0,0,1,1.563.826,1.7,1.7,0,0,1,.451,1.106c0,.286-.089.432-.1.426a3.659,3.659,0,0,1,0-.419,1.728,1.728,0,0,0-.5-.953,2.542,2.542,0,0,0-1.449-.686,12.416,12.416,0,0,0-2.065-.121,19.279,19.279,0,0,0-3.755.394,15.451,15.451,0,0,1-1.582.318Z" transform="translate(-133.686 -103.598)" fill="#455a64"/>
      <path id="Path_1572" data-name="Path 1572" d="M197.112,132.676a.763.763,0,0,1-.108-.261,3.178,3.178,0,0,1-.178-.775,5.2,5.2,0,0,1,.546-2.872,8.432,8.432,0,0,1,2.859-3.253,48.987,48.987,0,0,1,4.607-2.618,19.018,19.018,0,0,0,6.869-6.449,18.807,18.807,0,0,0,1.372-2.542,7.547,7.547,0,0,1,.451-.966,1.068,1.068,0,0,1-.07.267c-.057.172-.127.432-.261.75a16.9,16.9,0,0,1-1.271,2.624,18.548,18.548,0,0,1-6.913,6.615,51.683,51.683,0,0,0-4.588,2.542,8.413,8.413,0,0,0-2.828,3.107,5.344,5.344,0,0,0-.635,2.758C197,132.326,197.15,132.676,197.112,132.676Z" transform="translate(-129.574 -105.108)" fill="#455a64"/>
      <path id="Path_1573" data-name="Path 1573" d="M217.569,179.355c-.051,0-.044-.635-.222-1.678a11.628,11.628,0,0,0-1.36-3.812,6.424,6.424,0,0,0-2.77-2.821,4,4,0,0,0-1.627-.261.979.979,0,0,1,.451-.121,2.713,2.713,0,0,1,1.271.178,6.144,6.144,0,0,1,2.961,2.866,10.459,10.459,0,0,1,1.309,3.921A4.861,4.861,0,0,1,217.569,179.355Z" transform="translate(-134.965 -126.148)" fill="#263238"/>
      <path id="Path_1574" data-name="Path 1574" d="M216.166,165.843l15.04,11.5L226.891,164l3.647,1.868s6.507,12.035,8.578,18.09a42.861,42.861,0,0,1,1.792,7.225c.483,4.353-1.944,9.22-1.944,9.22l2.078,15.7c.292,1.69-.807,3.323-1.55,3.323l-23.555-3.177c-3.069-.6-4.327-2.211-4.143-3.99l.356-3.291-10.065-33.677c-.591,2-1.207-4.842,3.285-6.488C207.27,168.086,213.274,165.271,216.166,165.843Z" transform="translate(-131.35 -123.724)" fill="#9676ff"/>
      <path id="Path_1575" data-name="Path 1575" d="M251,177.21a1.913,1.913,0,0,1,.191.241l.489.718c.419.635,1.017,1.538,1.722,2.688a42.685,42.685,0,0,1,4.575,9.487,20.968,20.968,0,0,1,.705,10.465,14.063,14.063,0,0,1-.985,3.05c-.146.35-.3.6-.394.775a1.2,1.2,0,0,1-.159.254s.159-.388.438-1.08a16.127,16.127,0,0,0,.883-3.044,21.662,21.662,0,0,0-.788-10.345,46.445,46.445,0,0,0-4.448-9.468l-1.633-2.739-.445-.75A1.272,1.272,0,0,1,251,177.21Z" transform="translate(-149.334 -128.54)" fill="#263238"/>
      <path id="Path_1576" data-name="Path 1576" d="M254.385,239.073a4.054,4.054,0,0,0-.635,2.275c.032.273.2.635.477.565.172,0,.28-.2.362-.349,1.506-2.707,2.929-5.013,4.448-7.72l-.07-.534A21.216,21.216,0,0,0,254.385,239.073Z" transform="translate(-150.336 -148.993)" fill="#fafafa"/>
      <path id="Path_1577" data-name="Path 1577" d="M251.782,230.984a24.147,24.147,0,0,0,4.829-.2l-.038-.273a25.224,25.224,0,0,0-4.511-1.5,7.332,7.332,0,0,0-4.372.318A7.1,7.1,0,0,0,251.782,230.984Z" transform="translate(-148.127 -147.354)" fill="#fafafa"/>
      <path id="Path_1578" data-name="Path 1578" d="M253.436,222.276l4.531,3.812-1-1.817a18.553,18.553,0,0,0-3.711-4.391,1.569,1.569,0,0,0-.591-.337.635.635,0,0,0-.635.153.782.782,0,0,0-.083.724A4.105,4.105,0,0,0,253.436,222.276Z" transform="translate(-149.66 -143.963)" fill="#fafafa"/>
      <path id="Path_1579" data-name="Path 1579" d="M231.789,214.5a20,20,0,0,0,3.908,1.646h.267a21.939,21.939,0,0,0-3.018-3.26,7.339,7.339,0,0,0-4.016-1.766A7.028,7.028,0,0,0,231.789,214.5Z" transform="translate(-141.287 -140.903)" fill="#fafafa"/>
      <path id="Path_1580" data-name="Path 1580" d="M238.415,208.766c.718,1.773,1.417,3.463,2.135,5.242l.057-1.83a18.79,18.79,0,0,0-1.226-5.611,1.786,1.786,0,0,0-.362-.572.635.635,0,0,0-.635-.152.762.762,0,0,0-.407.591A4.111,4.111,0,0,0,238.415,208.766Z" transform="translate(-144.577 -138.969)" fill="#fafafa"/>
      <path id="Path_1581" data-name="Path 1581" d="M247.074,207.73a1.762,1.762,0,0,1-.127.508,3.575,3.575,0,0,1-.21.566,7.811,7.811,0,0,1-.337.731,10.8,10.8,0,0,1-1.163,1.754,11.146,11.146,0,0,1-4.06,3.1,10.513,10.513,0,0,1-2,.635,7.5,7.5,0,0,1-1.4.191,1.715,1.715,0,0,1-.515,0c0-.064.731-.1,1.862-.394a11.531,11.531,0,0,0,1.906-.705,13.179,13.179,0,0,0,2.141-1.271A12.85,12.85,0,0,0,245,211.117a11.867,11.867,0,0,0,1.188-1.671C246.788,208.41,247.017,207.711,247.074,207.73Z" transform="translate(-144.328 -139.667)" fill="#263238"/>
      <g id="Group_2272" data-name="Group 2272" transform="translate(91.5 69.543)" opacity="0.3">
        <path id="Path_1582" data-name="Path 1582" d="M235,216.3a6.284,6.284,0,0,0,7.1.114,8.4,8.4,0,0,0,3.654-6.354A12.829,12.829,0,0,1,235,216.3Z" transform="translate(-235 -210.06)"/>
      </g>
      <g id="Group_2273" data-name="Group 2273" transform="translate(74.699 60.762)" opacity="0.3">
        <path id="Path_1583" data-name="Path 1583" d="M211.419,196.24l-2.859,4.067c.6,2.256,1.385,4.378,1.982,6.627a19.215,19.215,0,0,0,.877-10.694Z" transform="translate(-208.56 -196.24)"/>
      </g>
      <path id="Path_1584" data-name="Path 1584" d="M137.767,268.83l-4.111,6.532-9.106,2.72a2.275,2.275,0,0,1,.521-1.7c.635-.585-1.906.241-1.906.241l-1.906,3.965s-1.271-.089-1.2-1.2a27.224,27.224,0,0,1,1.512-4.607l.68-.114a2.027,2.027,0,0,1,.261-1.83,6.265,6.265,0,0,1,1.029-3.063,9.7,9.7,0,0,1,1.868-2.211l7.955-3.279Z" transform="translate(-101.593 -160.285)" fill="#ffbe9d"/>
      <path id="Path_1585" data-name="Path 1585" d="M134.378,279.4a11.883,11.883,0,0,1-2.961,1.461,11.75,11.75,0,0,1-3.177.871c0-.083,1.392-.5,3.082-1.144S134.34,279.32,134.378,279.4Z" transform="translate(-104.577 -165.793)" fill="#eb996e"/>
      <path id="Path_1586" data-name="Path 1586" d="M127.269,278.12a11.263,11.263,0,0,1-2.332,1.036,11.07,11.07,0,0,1-2.427.763,10.91,10.91,0,0,1,2.326-1.036A11.171,11.171,0,0,1,127.269,278.12Z" transform="translate(-102.488 -165.33)" fill="#eb996e"/>
      <path id="Path_1587" data-name="Path 1587" d="M127.631,275a17.236,17.236,0,0,1-1.868.864,17.351,17.351,0,0,1-1.843.921A6.647,6.647,0,0,1,127.631,275Z" transform="translate(-103.002 -164.193)" fill="#eb996e"/>
      <path id="Path_1588" data-name="Path 1588" d="M128.1,271.86a6.992,6.992,0,0,1-1.48.712,7.388,7.388,0,0,1-1.519.635,3.553,3.553,0,0,1,1.4-.9,3.514,3.514,0,0,1,1.6-.451Z" transform="translate(-103.432 -163.048)" fill="#eb996e"/>
      <path id="Path_1589" data-name="Path 1589" d="M214.828,172.51a5.159,5.159,0,0,1,1.118,1.22,11.279,11.279,0,0,1,1.722,3.615,11.146,11.146,0,0,1,.337,3.984,5.084,5.084,0,0,1-.349,1.62c-.057,0,.07-.635.114-1.639a12.645,12.645,0,0,0-2.014-7.447C215.2,173.018,214.784,172.548,214.828,172.51Z" transform="translate(-136.145 -126.826)" fill="#263238"/>
      <path id="Path_1590" data-name="Path 1590" d="M184.7,171.2a4.517,4.517,0,0,1,4.206,4.029c.216,2.478.241,6.151-.985,9.029-2.052,4.8-22.875,29.5-22.875,29.5l-20.073,21.134-5.172-5.179s10.669-17.436,12.117-19.539c3.012-4.391,10.592-12.124,13.6-17.258s9.722-14.551,11.749-16.6S180.994,171.206,184.7,171.2Z" transform="translate(-108.792 -126.349)" fill="#9676ff"/>
      <path id="Path_1591" data-name="Path 1591" d="M189.468,208.947a4.08,4.08,0,0,0-2.268.845c-.2.191-.375.534-.172.731a.578.578,0,0,0,.5.089c3.145-.407,6.056-.635,9.2-1.048l.241-.369A21.737,21.737,0,0,0,189.468,208.947Z" transform="translate(-125.977 -140.033)" fill="#fafafa"/>
      <path id="Path_1592" data-name="Path 1592" d="M198.256,199.878a22.749,22.749,0,0,0,2.955,3.673l.172-.292a21.965,21.965,0,0,0-1.334-4.353,7.441,7.441,0,0,0-2.917-3.406A7.25,7.25,0,0,0,198.256,199.878Z" transform="translate(-129.688 -135.208)" fill="#fafafa"/>
      <path id="Path_1593" data-name="Path 1593" d="M205.712,195.527c-.127,1.951-.235,3.812-.362,5.776l.858-1.652a18.927,18.927,0,0,0,1.366-5.719,1.7,1.7,0,0,0-.076-.693.635.635,0,0,0-.515-.419.788.788,0,0,0-.635.369A4.181,4.181,0,0,0,205.712,195.527Z" transform="translate(-132.69 -134.231)" fill="#fafafa"/>
      <path id="Path_1594" data-name="Path 1594" d="M202.339,195.6a1.073,1.073,0,0,1-.146.273c-.127.2-.28.445-.47.737-.419.635-1.048,1.544-1.843,2.643-1.6,2.2-3.889,5.191-6.469,8.445s-4.975,6.151-6.735,8.26c-.877,1.036-1.6,1.868-2.1,2.44l-.591.635c-.14.146-.216.222-.222.21a1.2,1.2,0,0,1,.172-.254l.546-.686,2.021-2.5,6.659-8.26c2.58-3.247,4.893-6.208,6.538-8.375.788-1.061,1.436-1.906,1.906-2.58.2-.28.375-.515.521-.705A1.273,1.273,0,0,1,202.339,195.6Z" transform="translate(-124.819 -135.245)" fill="#263238"/>
      <path id="Path_1595" data-name="Path 1595" d="M161.07,229.21a21.719,21.719,0,0,0,7.453.877,4.06,4.06,0,0,0,2.332-.635c.222-.172.419-.5.235-.712a.585.585,0,0,0-.5-.127c-3.177.133-6.087.133-9.252.267" transform="translate(-116.547 -147.277)" fill="#fafafa"/>
      <path id="Path_1596" data-name="Path 1596" d="M162.654,234.678a22.746,22.746,0,0,0-2.631-3.908l-.2.28a22.419,22.419,0,0,0,.966,4.448,7.447,7.447,0,0,0,2.618,3.647A7.275,7.275,0,0,0,162.654,234.678Z" transform="translate(-116.091 -148.067)" fill="#fafafa"/>
      <path id="Path_1597" data-name="Path 1597" d="M155.7,239.249c.292-1.938.559-3.812.851-5.719l-1,1.569a19.164,19.164,0,0,0-1.849,5.592,1.7,1.7,0,0,0,0,.693.635.635,0,0,0,.47.464.788.788,0,0,0,.674-.311,4.149,4.149,0,0,0,.851-2.287Z" transform="translate(-113.85 -149.074)" fill="#fafafa"/>
    </g>
    <g id="freepik--paper-plane--inject-241" transform="translate(244.92 50.067)">
      <path id="Path_1598" data-name="Path 1598" d="M398.5,58.879l2.942,3.8,1.017,6.252,2.224-1.563,2.224,3.311L426.617,52.01Z" transform="translate(-376.718 -52.002)" fill="#9676ff"/>
      <path id="Path_1599" data-name="Path 1599" d="M407.2,74.625l-1,.686-.712-3.5Z" transform="translate(-379.263 -59.221)" opacity="0.3"/>
      <path id="Path_1600" data-name="Path 1600" d="M403.13,62.679,428.305,52.01,404.776,64.235l-.629,4.7Z" transform="translate(-378.406 -52.002)" opacity="0.3"/>
      <path id="Path_1601" data-name="Path 1601" d="M429.027,52a1.5,1.5,0,0,1-.292.191l-.864.489-3.222,1.741-10.713,5.636L405.364,64.5l.057-.184c1.08,1.963,2.059,3.539,2.758,4.626.337.521.6.94.82,1.271a2.24,2.24,0,0,1,.267.457,2.587,2.587,0,0,1-.337-.413c-.21-.273-.508-.686-.877-1.22-.743-1.068-1.76-2.624-2.872-4.581l-.07-.121.127-.07,8.546-4.492,10.726-5.547,3.272-1.646.9-.438a1.168,1.168,0,0,1,.349-.146Z" transform="translate(-379.128 -51.998)" fill="#263238"/>
      <path id="Path_1602" data-name="Path 1602" d="M428.229,52c.038.083-5.6,2.542-12.6,5.547s-12.708,5.325-12.708,5.242,5.6-2.542,12.6-5.547S428.2,51.923,428.229,52Z" transform="translate(-378.329 -51.997)" fill="#263238"/>
      <path id="Path_1603" data-name="Path 1603" d="M404.7,76.03a8.1,8.1,0,0,1,.064-2.294,8.191,8.191,0,0,1,.394-2.256,8.067,8.067,0,0,1-.064,2.287A7.938,7.938,0,0,1,404.7,76.03Z" transform="translate(-378.959 -59.1)" fill="#263238"/>
      <path id="Path_1604" data-name="Path 1604" d="M365.8,102.948c0,.089-.324.21-.769.273a1.252,1.252,0,0,1-.807-.057,1.324,1.324,0,0,1,.763-.273C365.408,102.833,365.777,102.846,365.8,102.948Z" transform="translate(-364.22 -70.54)" fill="#263238"/>
      <path id="Path_1605" data-name="Path 1605" d="M374.063,99c.051.07-.47.559-1.22,1a3.126,3.126,0,0,1-1.474.578c-.038-.089.572-.432,1.3-.864A4.937,4.937,0,0,1,374.063,99Z" transform="translate(-366.826 -69.134)" fill="#263238"/>
      <path id="Path_1606" data-name="Path 1606" d="M381.025,91.659a3.12,3.12,0,0,1-.7,1.417c-.5.718-1.036,1.188-1.106,1.131a5.244,5.244,0,0,1,.839-1.322C380.548,92.192,380.942,91.614,381.025,91.659Z" transform="translate(-369.689 -66.456)" fill="#263238"/>
      <path id="Path_1607" data-name="Path 1607" d="M384.223,82.24a2.707,2.707,0,0,1,.14,1.576,2.847,2.847,0,0,1-.458,1.519,5.822,5.822,0,0,1,.127-1.55A6.686,6.686,0,0,1,384.223,82.24Z" transform="translate(-371.394 -63.023)" fill="#263238"/>
      <path id="Path_1608" data-name="Path 1608" d="M378.46,75.455a2.141,2.141,0,0,1,1.569.286c.826.413,1.195,1.093,1.131,1.125s-.54-.464-1.271-.832S378.447,75.557,378.46,75.455Z" transform="translate(-369.412 -60.534)" fill="#263238"/>
      <path id="Path_1609" data-name="Path 1609" d="M370.66,78.89a2.243,2.243,0,0,1,.635-1.461,2.141,2.141,0,0,1,1.309-.909c.051.083-.527.47-1.048,1.118S370.749,78.922,370.66,78.89Z" transform="translate(-366.568 -60.938)" fill="#263238"/>
      <path id="Path_1610" data-name="Path 1610" d="M371.52,87.888a2.472,2.472,0,0,1-.979-1.271,2.44,2.44,0,0,1-.3-1.557,9.417,9.417,0,0,1,.635,1.423C371.19,87.265,371.6,87.818,371.52,87.888Z" transform="translate(-366.405 -64.051)" fill="#263238"/>
      <path id="Path_1611" data-name="Path 1611" d="M379.113,93.352a2.739,2.739,0,0,1-1.576-.121,2.707,2.707,0,0,1-1.417-.712,6.9,6.9,0,0,1,1.506.394,6.386,6.386,0,0,1,1.487.438Z" transform="translate(-368.559 -66.771)" fill="#263238"/>
      <path id="Path_1612" data-name="Path 1612" d="M388.656,91.83a3.063,3.063,0,0,1-1.379.743,2.968,2.968,0,0,1-1.557.28,5.573,5.573,0,0,1,1.442-.591A5.319,5.319,0,0,1,388.656,91.83Z" transform="translate(-372.059 -66.52)" fill="#263238"/>
      <path id="Path_1613" data-name="Path 1613" d="M396.932,86.14c.064.064-.432.566-1.106,1.112a3.813,3.813,0,0,1-1.309.864c-.057-.076.438-.578,1.106-1.118a3.863,3.863,0,0,1,1.309-.858Z" transform="translate(-375.264 -64.445)" fill="#263238"/>
      <path id="Path_1614" data-name="Path 1614" d="M402.659,80.578c.083.038,0,.4-.286.769s-.546.591-.635.534.1-.375.349-.724S402.576,80.54,402.659,80.578Z" transform="translate(-377.89 -62.416)" fill="#263238"/>
    </g>
  </g>
</svg>
