<svg xmlns="http://www.w3.org/2000/svg" width="321.254" height="291.631" viewBox="0 0 321.254 291.631">
  <g id="Trip-cuate" transform="translate(-34.95 -71.76)">
    <g id="freepik--background-complete--inject-299" transform="translate(35.846 82.663)">
      <path id="Path_8265" data-name="Path 8265" d="M354.238,417.252s-57.513-31.722-93.209-31.722c-42.836,0-84.463,14.139-100.26,18.808C119.292,416.587,38.93,417.252,38.93,417.252Z" transform="translate(-36.854 -162.069)" fill="#dbdbdb"/>
      <path id="Path_8266" data-name="Path 8266" d="M38.93,421.747S71.6,403.29,108.5,403.29c25.754,0,62.742,3.824,97.541,10.091,13.258,2.39,82.267,8.366,82.267,8.366Z" transform="translate(-36.854 -166.564)" fill="#c7c7c7"/>
      <path id="Path_8267" data-name="Path 8267" d="M278.165,294.123c3.944,0,102.329-.687,130.078-.687,1.942,0-.515-3.361-1.583-3.593a94.021,94.021,0,0,0-10.457-1.15,34.032,34.032,0,0,1-9.957-2.495,38.681,38.681,0,0,0-8.418-2.988c-5.721-.9-10.748,2.241-16.111,3.578a12.152,12.152,0,0,1-9.762-1.285c-2.48-1.494-4.736-3.272-7.327-4.586a40.2,40.2,0,0,0-32.118-1.494,37.622,37.622,0,0,0-7.036,3.593c-2.622,1.725-4.877,3.921-7.507,5.624-5.826,3.735-13.034,2.54-19.383,4.7C278.218,293.48,277.822,294.123,278.165,294.123Z" transform="translate(-97.364 -134.546)" fill="#ebebeb"/>
      <path id="Path_8268" data-name="Path 8268" d="M306.118,104.48c5.229,0,92.9.575,98.415.4a.427.427,0,0,0,.209-.792c-3.473-1.718-7.41-1.374-11.025-2.592a11.991,11.991,0,0,1-4.9-3.7,10.226,10.226,0,0,0-4.564-2.988,9.658,9.658,0,0,0-4.967-.149c-1.778.418-3.324,1.442-5.019,2.084-4.213,1.591-8.306.075-11.316-3.04-2.48-2.569-4.922-5-8.291-6.379a11.025,11.025,0,0,0-8.784-.12c-3.219,1.456-5.423,4.384-8.448,6.147-3.578,2.1-7.865,1.6-11.816,2.241s-6.991,3.959-10.457,5.878a7.35,7.35,0,0,1-3.779,1.173,20.754,20.754,0,0,1-2.3-.321,3.146,3.146,0,0,0-3.137.881C305.737,103.449,305.774,104.48,306.118,104.48Z" transform="translate(-104.395 -86.357)" fill="#ebebeb"/>
      <path id="Path_8269" data-name="Path 8269" d="M61.919,133.411c3.8,0,67.821.426,71.847.291.291,0,.448-.433.157-.575-2.532-1.255-5.415-1-8.052-1.89a8.615,8.615,0,0,1-3.578-2.7,7.469,7.469,0,0,0-3.331-2.181,7.013,7.013,0,0,0-3.623-.112,31.363,31.363,0,0,0-3.667,1.494c-3.077,1.158-6.065.06-8.261-2.241a18.162,18.162,0,0,0-6.058-4.653,8.007,8.007,0,0,0-6.409-.09c-2.353,1.061-3.959,3.2-6.17,4.482-2.614,1.494-5.736,1.165-8.627,1.628s-5.124,2.95-7.656,4.37a5.341,5.341,0,0,1-2.756.851,15.954,15.954,0,0,1-1.681-.239,2.293,2.293,0,0,0-2.286.65C61.62,132.664,61.65,133.411,61.919,133.411Z" transform="translate(-42.611 -94.905)" fill="#ebebeb"/>
      <path id="Path_8270" data-name="Path 8270" d="M354.134,240.751c3.8,0,67.829.426,71.847.291.291,0,.448-.433.157-.575-2.532-1.255-5.408-1-8.044-1.89a8.637,8.637,0,0,1-3.585-2.7,7.4,7.4,0,0,0-3.331-2.181,7.014,7.014,0,0,0-3.623-.112,31.371,31.371,0,0,0-3.667,1.494c-3.077,1.158-6.065.06-8.261-2.241a18.135,18.135,0,0,0-6.05-4.653,8.022,8.022,0,0,0-6.416-.09c-2.345,1.061-3.959,3.2-6.162,4.482-2.614,1.531-5.744,1.165-8.634,1.628s-5.1,2.891-7.634,4.295a5.385,5.385,0,0,1-2.764.851,15.961,15.961,0,0,1-1.681-.239,2.293,2.293,0,0,0-2.308.7C353.857,240,353.887,240.751,354.134,240.751Z" transform="translate(-116.566 -122.069)" fill="#ebebeb"/>
      <path id="Path_8271" data-name="Path 8271" d="M165.418,163.536c.075.209,100.9,0,99.633,0-.583,0,.881-.874.314-1.15-3.286-1.628-6.872-1.673-10.457-2a16.073,16.073,0,0,1-6.1-1.494c-1.9-.993-3.085-2.719-4.437-4.317a18.942,18.942,0,0,0-17.217-6.521c-7.171,1.12-12.817,6.58-20,7.589-4.317.6-8.4-1.068-12.608-1.658a15.461,15.461,0,0,0-9.471,1.733,17.637,17.637,0,0,1-6.946,2.241c-1.979.142-3.959-.082-5.975-.1a13.31,13.31,0,0,0-8.732,3.488C163.14,161.646,162.124,163.536,165.418,163.536Z" transform="translate(-68.265 -101.919)" fill="#ebebeb"/>
      <path id="Path_8272" data-name="Path 8272" d="M79.614,414.25H75.133a6.073,6.073,0,0,1-6.073-6.073V380.743l6.073-6.073h4.482a6.073,6.073,0,0,1,6.073,6.073v27.435A6.073,6.073,0,0,1,79.614,414.25Z" transform="translate(-44.479 -159.321)" fill="#a6a6a6"/>
      <path id="Path_8273" data-name="Path 8273" d="M227.493,414.25h4.482a6.073,6.073,0,0,0,6.073-6.073V380.743l-6.073-6.073h-4.482a6.073,6.073,0,0,0-6.073,6.073v27.435A6.073,6.073,0,0,0,227.493,414.25Z" transform="translate(-83.037 -159.321)" fill="#a6a6a6"/>
      <path id="Path_8274" data-name="Path 8274" d="M204.65,318.358c-.232,10.457-.9,17.045-.9,17.045s-24.611,9.441-72.153,10.928C84.058,344.837,59.447,335.4,59.447,335.4s-.68-6.618-.911-17.045c-.052-2.45-.082-5.109-.067-7.94.082-25.059,3.242-63.728,19.517-91H185.2c16.283,27.27,19.42,65.939,19.525,91C204.732,313.219,204.7,315.908,204.65,318.358Z" transform="translate(-41.797 -120.031)" fill="#dbdbdb"/>
      <path id="Path_8275" data-name="Path 8275" d="M62.983,266.268h0c-.747,3.025-1.494,6.162-2.054,9.352a2.241,2.241,0,0,1-1.494,1.733h-.1a6.052,6.052,0,0,1-2.241-1.546c-.471-.941,1.606-8.052,2.413-9.195S62.983,266.268,62.983,266.268Z" transform="translate(-41.434 -131.818)" fill="#a6a6a6"/>
      <path id="Path_8276" data-name="Path 8276" d="M43.4,259.517c.2,3.085,1.255,6.185,3.9,7.97a34.516,34.516,0,0,0,7.985,3.66c1.247.433,1.778-1.546.545-1.972a39.325,39.325,0,0,1-6.356-2.764,7.923,7.923,0,0,1-4.033-6.894c-.082-1.307-2.129-1.315-2.039,0Z" transform="translate(-37.984 -129.93)" fill="#a6a6a6"/>
      <path id="Path_8277" data-name="Path 8277" d="M49.012,255.261a6.424,6.424,0,1,1-1.879-4.547A6.431,6.431,0,0,1,49.012,255.261Z" transform="translate(-36.15 -127.474)" fill="#a6a6a6"/>
      <path id="Path_8278" data-name="Path 8278" d="M192.336,216.389H80.379c-1.972,0-3.548-3.548-2.988-4.93s22.258-11.63,58.933-11.63,58.35,10.255,58.94,11.63S194.338,216.389,192.336,216.389Z" transform="translate(-46.558 -115.074)" fill="#ebebeb"/>
      <circle id="Ellipse_481" data-name="Ellipse 481" cx="9.889" cy="9.889" r="9.889" transform="translate(23.922 196.815) rotate(-76.47)" fill="#a6a6a6"/>
      <circle id="Ellipse_482" data-name="Ellipse 482" cx="8.545" cy="8.545" r="8.545" transform="translate(26.04 196.582) rotate(-80.75)" fill="#ebebeb"/>
      <path id="Path_8279" data-name="Path 8279" d="M70.6,313.645c1.7-1.008,5.527,3.959,3.518,5.5S67.89,315.258,70.6,313.645Z" transform="translate(-44.645 -143.843)" fill="#ebebeb"/>
      <circle id="Ellipse_483" data-name="Ellipse 483" cx="9.889" cy="9.889" r="9.889" transform="translate(131.66 182.518) rotate(-14.98)" fill="#a6a6a6"/>
      <circle id="Ellipse_484" data-name="Ellipse 484" cx="8.545" cy="8.545" r="8.545" transform="translate(133.93 182.502) rotate(-9.51)" fill="#ebebeb"/>
      <path id="Path_8280" data-name="Path 8280" d="M240.458,313.645c-1.7-1.008-5.52,3.959-3.511,5.5S243.169,315.258,240.458,313.645Z" transform="translate(-86.822 -143.843)" fill="#ebebeb"/>
      <path id="Path_8281" data-name="Path 8281" d="M247.77,266.268h0c.747,3.025,1.494,6.162,2.047,9.352a2.241,2.241,0,0,0,1.494,1.733h.1a6.119,6.119,0,0,0,2.241-1.546c.471-.941-1.613-8.052-2.42-9.195S247.77,266.268,247.77,266.268Z" transform="translate(-89.705 -131.818)" fill="#a6a6a6"/>
      <path id="Path_8282" data-name="Path 8282" d="M262.854,259.517a7.91,7.91,0,0,1-4.026,6.894,39.585,39.585,0,0,1-6.356,2.764c-1.24.426-.7,2.405.545,1.972a34.665,34.665,0,0,0,7.985-3.66c2.637-1.778,3.7-4.885,3.9-7.97C264.983,258.2,262.944,258.21,262.854,259.517Z" transform="translate(-90.717 -129.93)" fill="#a6a6a6"/>
      <path id="Path_8283" data-name="Path 8283" d="M259.37,255.261a6.431,6.431,0,1,0,6.431-6.431A6.431,6.431,0,0,0,259.37,255.261Z" transform="translate(-92.641 -127.474)" fill="#a6a6a6"/>
      <path id="Path_8284" data-name="Path 8284" d="M203.6,274.407c-8.53,2.614-45.234,16.164-68.605,61.457A2.241,2.241,0,0,1,133,337.09h-3.279a2.241,2.241,0,0,1-1.994-1.225c-23.379-45.294-60.083-58.843-68.613-61.457a2.241,2.241,0,0,1-1.569-2.435v-.2l.1-.8.373-2.876a2.241,2.241,0,0,1,1.4-1.8h.1a2.241,2.241,0,0,0,1.494-1.733c.583-3.189,1.285-6.327,2.054-9.352,1.27-4.967,2.741-9.65,4.213-13.841a174.157,174.157,0,0,1,7.469-18.038,2.241,2.241,0,0,1,2.017-1.262H185.94a2.241,2.241,0,0,1,2.024,1.262,172.93,172.93,0,0,1,7.469,18.038c1.494,4.19,2.943,8.874,4.213,13.841.747,3.025,1.494,6.162,2.054,9.352a2.241,2.241,0,0,0,1.494,1.733h.1a2.241,2.241,0,0,1,1.4,1.8l.366,2.876.1.8v.2a2.241,2.241,0,0,1-1.576,2.435Z" transform="translate(-41.559 -120.702)" fill="#ebebeb"/>
      <path id="Path_8285" data-name="Path 8285" d="M205.158,288.339a95.4,95.4,0,0,0-26.329,11.114c-13.93,8.336-33.38,24.283-47.46,53.092-14.08-28.809-33.53-44.756-47.452-53.092A96.07,96.07,0,0,0,57.58,288.339l.1-.8c3.421.747,13.938,3.63,26.606,11.2,13.8,8.216,32.969,23.9,47.056,51.986,14.109-28.077,33.283-43.74,47.056-51.986,12.7-7.574,23.155-10.457,26.606-11.2Z" transform="translate(-41.573 -137.271)" fill="#fff"/>
      <path id="Path_8286" data-name="Path 8286" d="M194.317,226.1,77.37,228.5c1.023-2.338,1.875-4.123,2.405-5.228a2.241,2.241,0,0,1,2.017-1.262H190.97a2.241,2.241,0,0,1,2.017,1.262C193.323,223.959,193.779,224.916,194.317,226.1Z" transform="translate(-46.582 -120.687)" fill="#dbdbdb"/>
      <path id="Path_8287" data-name="Path 8287" d="M152.89,335.451a10.27,10.27,0,1,1,10.27-10.27,10.27,10.27,0,0,1-10.27,10.27Zm0-19.316a9.045,9.045,0,1,0,9.045,9.045,9.045,9.045,0,0,0-9.045-9.045Z" transform="translate(-63.095 -144.197)" fill="#fff"/>
      <path id="Path_8288" data-name="Path 8288" d="M156.257,335.206l-2.2-12.048-1.643,12.033-5.4-16.933,1.173-.373,3.742,11.757,1.949-14.251,2.554,13.915,2.853-11.809,1.2.284Z" transform="translate(-64.206 -144.319)" fill="#fff"/>
      <path id="Path_8289" data-name="Path 8289" d="M132.746,231.759v22.819a3.929,3.929,0,0,1-3.929,3.929H78.265a3.921,3.921,0,0,1-3.735-5.176l.149-.441h0l7.469-22.408a3.921,3.921,0,0,1,3.735-2.681h42.9a3.691,3.691,0,0,1,.822.09,3.914,3.914,0,0,1,3.107,3.839Z" transform="translate(-45.811 -122.152)" fill="#c7c7c7"/>
      <g id="Group_2462" data-name="Group 2462" transform="translate(28.527 105.678)" opacity="0.3">
        <path id="Path_8290" data-name="Path 8290" d="M128.282,227.84,97.613,258.516H88.12L118.8,227.84Z" transform="translate(-77.829 -227.84)" fill="#fff"/>
        <path id="Path_8291" data-name="Path 8291" d="M148.63,253.46v7.611A3.929,3.929,0,0,1,144.7,265H137.09Z" transform="translate(-90.222 -234.324)" fill="#fff"/>
        <path id="Path_8292" data-name="Path 8292" d="M141.082,231.189l-27.353,27.345H107.44l30.579-30.624A3.929,3.929,0,0,1,141.082,231.189Z" transform="translate(-82.718 -227.858)" fill="#fff"/>
        <path id="Path_8293" data-name="Path 8293" d="M102.9,227.84,74.647,256.1a3.892,3.892,0,0,1-.1-2.764l.149-.441h0L99.758,227.84Z" transform="translate(-74.342 -227.84)" fill="#fff"/>
      </g>
      <path id="Path_8294" data-name="Path 8294" d="M214.681,258.516H164.129a3.936,3.936,0,0,1-3.929-3.929V231.769a3.936,3.936,0,0,1,3.929-3.929h42.9a3.936,3.936,0,0,1,3.735,2.681l2.024,6.05,1.583,4.713,2.808,8.388,1.232,3.667a3.936,3.936,0,0,1-3.735,5.176Z" transform="translate(-67.544 -122.162)" fill="#c7c7c7"/>
      <g id="Group_2463" data-name="Group 2463" transform="translate(92.656 105.678)" opacity="0.3">
        <path id="Path_8295" data-name="Path 8295" d="M171.658,227.84,160.2,239.3v-7.529a3.936,3.936,0,0,1,3.929-3.929Z" transform="translate(-160.2 -227.84)" fill="#fff"/>
        <path id="Path_8296" data-name="Path 8296" d="M230.986,265.914H224.63l8.851-8.844,1.232,3.667a3.936,3.936,0,0,1-3.727,5.176Z" transform="translate(-176.505 -235.237)" fill="#fff"/>
        <path id="Path_8297" data-name="Path 8297" d="M197.95,227.84l-30.676,30.676h-2.7a3.9,3.9,0,0,1-2.607-.993l29.683-29.683Z" transform="translate(-160.648 -227.84)" fill="#fff"/>
        <path id="Path_8298" data-name="Path 8298" d="M224.746,244.243l-17.232,17.232h-6.3l21.952-21.945Z" transform="translate(-170.578 -230.798)" fill="#fff"/>
        <path id="Path_8299" data-name="Path 8299" d="M208.118,227.84l-30.669,30.676h-3.16l30.684-30.676Z" transform="translate(-163.766 -227.84)" fill="#fff"/>
      </g>
      <rect id="Rectangle_3353" data-name="Rectangle 3353" width="148.295" height="14.692" transform="translate(15.648 213.46)" fill="#c7c7c7"/>
    </g>
    <g id="freepik--Plants--inject-299" transform="translate(81.848 297.33)">
      <path id="Path_8300" data-name="Path 8300" d="M382.559,401.686c-1.882-2.435-4.026-5.116-3.892-8.343.119-2.988,1.12-6.289,3.854-7.873.784-.456,1.352-.613,1.606.4.381,1.531-.269,3.391-.6,4.877a31.331,31.331,0,0,0-.792,5.826c-.045,1.374.052,2.756.045,4.138v.754l.045.075a.142.142,0,0,1,0,.142v.045a.157.157,0,0,1-.269-.037Z" transform="translate(-168.832 -376.631)" fill="#9676ff"/>
      <path id="Path_8301" data-name="Path 8301" d="M383.158,402.76c-1.539-2.241-3.339-4.482-3.115-7.342a12.6,12.6,0,0,1,1.008-3.817c.232-.545.911-2.2,1.628-2.241,1.3-.067-.433,5.146-.515,5.759a13.169,13.169,0,0,0,.964,6.655v.515a14.692,14.692,0,0,1-1.218-4.638c-.194-2.241.56-4.078.964-6.222.09-.463.448-1.927-.344-1.808-.523.075-1.2,1.681-1.344,2.024a12.467,12.467,0,0,0-.971,3.615c-.269,2.853,1.494,5.169,2.988,7.469Z" transform="translate(-169.177 -377.705)" fill="#fff"/>
      <path id="Path_8302" data-name="Path 8302" d="M383.011,406.219l-.329.142h0a.082.082,0,0,1-.082,0,.142.142,0,0,1-.045-.172.134.134,0,0,1,.06-.045h.149c1.33-1.636,2.928-3.04,4.243-4.7s2.405-3.242,3.787-4.721c.866-.934,5.453-5.3,6.431-2.6.433,1.2-.515,2.913-1.105,3.914a13,13,0,0,1-3.062,3.451C390.085,403.806,386.44,404.7,383.011,406.219Z" transform="translate(-169.814 -378.692)" fill="#9676ff"/>
      <path id="Path_8303" data-name="Path 8303" d="M389.856,403.493a15.057,15.057,0,0,0,3.2-2.846c.314-.381,1.837-2.241,1.337-2.816-.321-.388-1.18.119-1.494.276A13.292,13.292,0,0,0,389.818,401a57.6,57.6,0,0,1-6.207,5.714c-.157.082-.321.164-.471.254l-.4.209-.134.075-.1.06a.142.142,0,0,0,.045.172c.1-.06.2-.112.306-.164l-.224.172h0l.269-.127h.06l.373-.284A63.423,63.423,0,0,0,389.856,403.493Zm-5.684,2.943c1.285-1.023,2.525-2.114,3.735-3.257.956-.919,1.867-1.875,2.756-2.861a14.54,14.54,0,0,1,1.6-1.583c.448-.351,2.241-1.494,1.793.134-.314,1.188-1.852,2.532-2.741,3.286a21.062,21.062,0,0,1-3.2,2.241c-1.3.71-2.629,1.367-3.936,2.039Z" transform="translate(-169.801 -379.813)" fill="#fff"/>
      <path id="Path_8304" data-name="Path 8304" d="M373.99,414.085h0l-.082-.082c-1.494-2.368-3.921-5.229-3.779-8.216.1-2.2,1.315-5.161,3.5-6.065,2.472-1.016,1.994,3.653,1.927,4.848a86.514,86.514,0,0,1-1.419,9.516v.06h0A.164.164,0,0,1,373.99,414.085Z" transform="translate(-166.671 -380.291)" fill="#9676ff"/>
      <path id="Path_8305" data-name="Path 8305" d="M374.691,415.04v-.568c-.134-2.181-.172-4.37-.1-6.551,0-.553.448-4.765-.642-4.564-.665.12-1.061,1.7-1.2,2.241a8.724,8.724,0,0,0-.306,2.846c.149,2.2,1.27,4.19,2.054,6.244.045.09.075.187.112.284a.187.187,0,0,0,0,.067h0C374.616,415.084,374.668,415.114,374.691,415.04Zm-1.949-5.445a8.755,8.755,0,0,1-.082-2.928c.09-.642.478-2.988,1.3-2.988.433,0,.388.246.478.747.037.224.052.456.067.68,0,.568,0,1.128-.045,1.688-.052.986-.075,1.972-.082,2.988,0,1.621.045,3.234.157,4.848a45.091,45.091,0,0,1-1.793-5Z" transform="translate(-167.252 -381.246)" fill="#fff"/>
      <path id="Path_8306" data-name="Path 8306" d="M382.306,417.772a16.6,16.6,0,0,1-9.643,1.008h-.06a.112.112,0,0,1-.037-.142.127.127,0,0,1,.134-.09l.2.037c3.376-1.86,6.76-3.66,10.1-5.58.747-.448,5.863-3.234,6.132-1.255.172,1.225-1.7,2.659-2.5,3.354a16.864,16.864,0,0,1-4.325,2.667Z" transform="translate(-167.286 -383.194)" fill="#9676ff"/>
      <path id="Path_8307" data-name="Path 8307" d="M385.861,414.672c.209-.261.373-.59,0-.747-.747-.306-3.1,1.053-3.772,1.4-2.779,1.419-5.609,2.554-8.493,3.735l-.747.291h-.284a.112.112,0,0,0,.037.142h.463a19.711,19.711,0,0,0,6.028-.9,19.183,19.183,0,0,0,3.548-1.546A11.742,11.742,0,0,0,385.861,414.672Zm-12.631,4.646h-.187l.306-.1a55.806,55.806,0,0,0,6.722-2.7c1.1-.538,2.159-1.143,3.272-1.636.478-.217,1.793-.852,2.241-.65s0,.523-.269.747-.515.411-.687.538A19.352,19.352,0,0,1,373.231,419.318Z" transform="translate(-167.286 -383.911)" fill="#fff"/>
      <path id="Path_8308" data-name="Path 8308" d="M363.989,416.314l-.329-.456,1.188-.9c1.584-1.217,3.152-2.45,4.706-3.735.889-.747,1.755-1.449,2.592-2.2l.09-.075.2-.187.224-.209a24.207,24.207,0,0,0,4.825-5.848c.426-.747.807-1.494,1.18-2.278l.1-.224v-.06c.037-.075.067-.149.1-.232l.082-.172c1.1-2.39,2-4.877,2.988-7.3.276-.695.553-1.4.837-2.091a.576.576,0,0,1,.052-.12,1.336,1.336,0,0,1,.06-.157c1.232-3.07,2.5-6.132,3.66-9.232.037-.119.209,0,.164.082-.747,2.069-1.449,4.16-2.166,6.252-.1.276-.194.553-.284.829l-.575,1.651c-.381,1.1-.747,2.188-1.18,3.279a80.931,80.931,0,0,1-3.772,9.09l-.351.642-.224.4-.269.463a25.94,25.94,0,0,1-6.08,6.722l-.493.4-.232.187-.12.1-.164.127h0l-.119.1-.433.336c-1.576,1.232-3.167,2.442-4.758,3.645C365,415.53,364.5,415.919,363.989,416.314Z" transform="translate(-165.035 -375.537)" fill="#9676ff"/>
      <path id="Path_8309" data-name="Path 8309" d="M389.958,379.787c.747-2.457,3.1-6.551,6.222-5.975a2.413,2.413,0,0,1,2.069,2.472c0,1.494-1.016,2.868-1.89,3.974-2.33,2.988-4.922,5.677-7.043,8.8,0,0-.187.269-.232.336s-.134,0-.1-.075l.209-.306C389.211,385.956,389.032,382.7,389.958,379.787Z" transform="translate(-171.443 -373.757)" fill="#9676ff"/>
      <path id="Path_8310" data-name="Path 8310" d="M389.369,390.155v-.067a25,25,0,0,1,1.337-2.734,52.863,52.863,0,0,1,3.518-5.228c.486-.65,2.928-3.772.9-3.989a3.4,3.4,0,0,0-2.3,1.165,9.622,9.622,0,0,0-2.241,3.04,17.419,17.419,0,0,0-1.352,7.268q0,.168,0,.336l-.045.1v.112a.09.09,0,0,0,.112.067A.075.075,0,0,0,389.369,390.155Zm0-.747a20.213,20.213,0,0,1,1-6.05,10.458,10.458,0,0,1,1.494-2.831,8.007,8.007,0,0,1,.956-1.061,5.932,5.932,0,0,1,.829-.672c.65-.441,1.531-.672,1.867-.344s.261.747-.052,1.442a5.852,5.852,0,0,1-.366.672c-.329.545-.71,1.061-1.083,1.569-.635.852-1.255,1.7-1.852,2.569-.4.59-.792,1.2-1.15,1.808a26.538,26.538,0,0,0-1.673,3.279c.008-.112.015-.239.022-.366Z" transform="translate(-171.496 -374.863)" fill="#fff"/>
      <path id="Path_8311" data-name="Path 8311" d="M105.067,400.752c1.494,1.4,2.943,2.906,4.355,4.414.792.859,1.583,1.725,2.383,2.584a8.314,8.314,0,0,0,2.988,2.465h0l.149.09a.157.157,0,0,1-.187.194l-.082-.037h0a4.989,4.989,0,0,1-1.12-.254,27.765,27.765,0,0,1-2.988-.9,25.7,25.7,0,0,1-5.729-2.868,21.429,21.429,0,0,1-4.287-3.8c-1-1.165-2.51-2.876-2.786-4.482-.254-1.419,1.576-1.135,2.42-.889A16.053,16.053,0,0,1,105.067,400.752Z" transform="translate(-97.738 -379.656)" fill="#9676ff"/>
      <path id="Path_8312" data-name="Path 8312" d="M101.356,400.625c-.433.6,1.217,2.45,1.912,3.279A20.861,20.861,0,0,0,107,407.347a26.844,26.844,0,0,0,8.171,3.936l.351.1h.082a.157.157,0,0,0,.194-.187c-.239-.112-.463-.224-.68-.344s-.4-.224-.59-.344a35.2,35.2,0,0,1-5.759-4.676C106.681,403.911,101.938,399.818,101.356,400.625Zm13.5,10.315q.448.246.9.448l-.747-.232a29.764,29.764,0,0,1-7.23-3.443,20.22,20.22,0,0,1-5.057-4.728c-.2-.276-1.494-1.9-1.18-2.241s1.77.747,1.8.792c.306.194.605.411.9.627.605.448,1.188.926,1.763,1.412,1.24,1.061,2.42,2.2,3.623,3.294a28.31,28.31,0,0,0,5.228,4.071Z" transform="translate(-98.635 -380.53)" fill="#fff"/>
      <path id="Path_8313" data-name="Path 8313" d="M121.732,393.137a19.391,19.391,0,0,1,1.748,8.717c0,1.583,0,3.174-.052,4.765a21.451,21.451,0,0,0,.157,4.25,1.657,1.657,0,0,0,0,.187,5.228,5.228,0,0,0,.373,1.128.067.067,0,0,1,0,.075l.067.1s0,.06-.037.037a1.112,1.112,0,0,1-.1-.09h0a.067.067,0,0,1-.082-.052v-.045l-.1-.09c-2.323-2.136-3.623-5.759-4.482-8.672a16.6,16.6,0,0,1-.523-8.963c.194-.747.523-2.517,1.427-2.771S121.441,392.569,121.732,393.137Z" transform="translate(-102.946 -378.293)" fill="#9676ff"/>
      <path id="Path_8314" data-name="Path 8314" d="M121.009,396c-.911.149-.747,2.652-.695,3.257a32.29,32.29,0,0,0,.829,5.482,28.771,28.771,0,0,0,2.988,8.4h0a.224.224,0,0,0,.127.194v.045a.075.075,0,0,0,.09.052.782.782,0,0,1,0-.142c-.1-.366-.187-.747-.261-1.105V412a61.485,61.485,0,0,1-.814-7.888,29.877,29.877,0,0,0-.829-5.453C122.309,398.163,121.771,395.833,121.009,396Zm.814,1.322c1.247,2.883,1.21,6.3,1.419,9.381a32.3,32.3,0,0,0,.859,6.177,30.453,30.453,0,0,1-2.644-7.664,39.06,39.06,0,0,1-.822-4.556,17.447,17.447,0,0,1-.142-2.5,6.888,6.888,0,0,1,.194-1.494c.314-.934.919.127,1.135.62Z" transform="translate(-103.44 -379.383)" fill="#fff"/>
      <path id="Path_8315" data-name="Path 8315" d="M126.455,422.586a.187.187,0,0,1,0,.164h.06a.052.052,0,0,1,.045.052s0,.045-.037.052a26.83,26.83,0,0,1-11.069-.232,14.319,14.319,0,0,1-4.19-1.882c-.874-.59-2.637-1.785-2.734-2.988-.2-2.375,6.087.082,7.036.463,1.725.68,3.384,1.494,5.1,2.241,1.867.747,3.794,1.419,5.721,2.069a.112.112,0,0,1,.067.06Z" transform="translate(-100.467 -384.632)" fill="#9676ff"/>
      <path id="Path_8316" data-name="Path 8316" d="M127.23,423.083l-.575-.06a30.414,30.414,0,0,1-9.06-2.457,27.754,27.754,0,0,0-4.422-1.681c-.381-.09-1.785-.538-1.561.366.12.463,2.42,1.793,3.047,2.084a19.258,19.258,0,0,0,4.482,1.419,31.566,31.566,0,0,0,7.917.545h.224s0-.052-.045-.045h-.06A.172.172,0,0,0,127.23,423.083Zm-6.722-.276a22.406,22.406,0,0,1-4.564-1.12,15.855,15.855,0,0,1-1.71-.747,9.24,9.24,0,0,1-1.262-.747c-.971-.7-1.165-.956-1.083-1.143s.254-.179,1.038-.052a8.386,8.386,0,0,1,1.494.426c.687.261,1.359.545,2.024.837,1.344.575,2.674,1.173,4.056,1.651a23.736,23.736,0,0,0,6.117,1.277A36.3,36.3,0,0,1,120.508,422.807Z" transform="translate(-101.243 -385.129)" fill="#fff"/>
      <path id="Path_8317" data-name="Path 8317" d="M130.986,410.393a9.03,9.03,0,0,1,1.852,3.369c.814,2.435,1.1,5,1.74,7.469.1.373.2.747.321,1.113,0,.037.254.441.224.418s-.12-.119-.321-.329h0a37.067,37.067,0,0,1-4.952-6.259,18.074,18.074,0,0,1-1.658-4.145c-.157-.687-.448-2.241.232-2.764S130.546,409.9,130.986,410.393Z" transform="translate(-105.395 -382.709)" fill="#9676ff"/>
      <path id="Path_8318" data-name="Path 8318" d="M129.982,411.616c-.956.4,1.023,4.609,1.27,5.161a25.53,25.53,0,0,0,3.533,5.707c.157.2.314.4.478.59l.321.336s-.209-.388-.232-.433l-.052-.187c-.1-.306-.179-.612-.254-.911-.635-1.666-1.232-3.339-1.9-4.989a23.79,23.79,0,0,0-1.673-3.458C131.319,413.185,130.4,411.444,129.982,411.616Zm.784.874c2.144,3.07,2.921,6.775,4.332,10.181l.067.172c-.052-.075-.12-.149-.172-.232a29.3,29.3,0,0,1-2.988-4.683,28.669,28.669,0,0,1-1.344-3.107,13.23,13.23,0,0,1-.6-1.763c-.06-.261-.187-.993,0-1.083S130.625,412.288,130.766,412.49Z" transform="translate(-105.832 -383.335)" fill="#fff"/>
      <path id="Path_8319" data-name="Path 8319" d="M105.933,377.886c3.376,5.624,1.658,12.847,4.646,18.673h0c.09.179.187.351.284.53a.12.12,0,0,1-.09.179.1.1,0,0,1-.09-.052l-.067-.127a31.3,31.3,0,0,1-6.416-9.112,15.912,15.912,0,0,1-1.823-9.195c.12-.747.291-2.338,1.24-2.637S105.522,377.191,105.933,377.886Z" transform="translate(-98.88 -374.35)" fill="#9676ff"/>
      <path id="Path_8320" data-name="Path 8320" d="M105.43,381.243c-.4.134-.448.747-.493,1.038a10.36,10.36,0,0,0-.052,2.405,16.717,16.717,0,0,0,1.225,4.765,34.4,34.4,0,0,0,3.989,7.469,17.07,17.07,0,0,0,1.188,1.494l.157.179a.127.127,0,0,0,.1-.179c-.1-.172-.194-.336-.284-.508v-.045a20.658,20.658,0,0,1-1.7-3.518,46.987,46.987,0,0,1-1.494-5.893C107.85,387.644,106.789,380.8,105.43,381.243Zm.889,1.15a22.8,22.8,0,0,1,1.255,4.721c.359,1.591.695,3.189,1.076,4.773a23.335,23.335,0,0,0,1.21,3.682,18.319,18.319,0,0,0,1.494,2.853,26.242,26.242,0,0,1-1.852-2.584V395.8a44.529,44.529,0,0,1-2.637-5.012.417.417,0,0,1,0-.06,21.025,21.025,0,0,1-1.606-4.713,12.07,12.07,0,0,1-.224-2.7c.052-1.023.194-1.845.545-1.86C105.788,381.452,106.117,381.96,106.318,382.393Z" transform="translate(-99.535 -375.646)" fill="#fff"/>
      <path id="Path_8321" data-name="Path 8321" d="M107.7,393.929c.926,1.628,1.89,3.242,2.853,4.848l1.367,2.241v.045l.493.814a53.538,53.538,0,0,0,4.833,7.238,24.493,24.493,0,0,0,3.316,3.137l.366.3h0l.2.149.112.09c1.046.807,2.136,1.561,3.2,2.293,1.494,1.016,2.988,1.927,4.564,2.823l.142.075a1.941,1.941,0,0,0,.209.127l.1.06.2.119c.493.284.993.575,1.494.874l-.321.448a35.207,35.207,0,0,1-4.691-2.547.372.372,0,0,1-.09-.06c-.149-.09-.3-.179-.441-.276s-.359-.231-.538-.351l-1.27-.852a37.565,37.565,0,0,1-6.849-5.677l-.1-.187-.067-.082-.12-.127-.179-.217c-.1-.127-.209-.261-.306-.4l-.09-.112A56.844,56.844,0,0,1,111.915,402c-.239-.411-.471-.829-.7-1.24l-.381-.695-.568-1.061v-.037c-.889-1.666-1.74-3.346-2.637-5.012C107.531,393.921,107.658,393.854,107.7,393.929Z" transform="translate(-100.232 -378.853)" fill="#9676ff"/>
    </g>
    <g id="freepik--Floor--inject-299" transform="translate(34.95 337.48)">
      <path id="Path_8322" data-name="Path 8322" d="M34.95,427.883,75.1,427.7l40.162-.067,80.31-.127,80.31.127,40.162.067,40.155.179-40.155.187-40.162.067-80.31.12-80.31-.12L75.1,428.07Z" transform="translate(-34.95 -427.51)" fill="#263238"/>
    </g>
    <g id="freepik--Birds--inject-299" transform="translate(83.149 86.724)">
      <path id="Path_8323" data-name="Path 8323" d="M373.461,93.1a15.51,15.51,0,0,0-1.912-.822,8.089,8.089,0,0,0-2.084-.478,1.741,1.741,0,0,0-.65.075.886.886,0,0,0-.194.09l-.127.1c-.09.06-.149.12-.224.179a9.249,9.249,0,0,0-.747.747c-.471.523-.889,1.076-1.307,1.643l.523-.187a17.4,17.4,0,0,0-2.129-.448,7.816,7.816,0,0,0-1.113-.075,3.971,3.971,0,0,0-.59,0,2.911,2.911,0,0,0-.321.082,1.994,1.994,0,0,0-.314.149,3.8,3.8,0,0,0-.822.866,9.088,9.088,0,0,0-.627.889,14.328,14.328,0,0,0-.993,1.9c.463-.545.9-1.1,1.374-1.613.232-.261.463-.515.71-.747a3.257,3.257,0,0,1,.747-.583,1.867,1.867,0,0,1,.829-.082,7.721,7.721,0,0,1,.949.157c.672.119,1.352.284,2.009.463l.329.09.187-.269c.381-.553.8-1.091,1.21-1.613.209-.261.426-.515.642-.747l.164-.157.075-.06h0a1.083,1.083,0,0,1,.366-.075,10.137,10.137,0,0,1,1.972.194C372.109,92.829,372.782,92.971,373.461,93.1Z" transform="translate(-165.367 -91.794)" fill="#263238"/>
      <path id="Path_8324" data-name="Path 8324" d="M360.727,119.655a24.008,24.008,0,0,0-2.569-1.755,11.86,11.86,0,0,0-2.928-1.315,2.607,2.607,0,0,0-.971-.09,1.562,1.562,0,0,0-.321.082l-.209.1a3.622,3.622,0,0,0-.381.209,13.6,13.6,0,0,0-1.344.9c-.844.635-1.613,1.322-2.4,2.032l.814-.12a24.052,24.052,0,0,0-2.988-1.277,13.319,13.319,0,0,0-1.606-.441,6.458,6.458,0,0,0-.881-.112,3.737,3.737,0,0,0-.493,0,4.206,4.206,0,0,0-.508.127,5.654,5.654,0,0,0-1.494.941c-.426.359-.807.747-1.18,1.12a20.054,20.054,0,0,0-2.009,2.5c.829-.672,1.636-1.352,2.48-1.972a14.393,14.393,0,0,1,1.27-.889,5.042,5.042,0,0,1,1.285-.59,2.936,2.936,0,0,1,1.247.12,10.673,10.673,0,0,1,1.419.493c.949.366,1.9.814,2.808,1.262l.456.232.359-.344c.747-.695,1.494-1.374,2.241-2.017a12.076,12.076,0,0,1,1.158-.9c.1-.06.194-.127.284-.172l.134-.075h.045a1.546,1.546,0,0,1,.56,0,14.94,14.94,0,0,1,2.838.859C358.829,118.871,359.778,119.274,360.727,119.655Z" transform="translate(-160.162 -98.042)" fill="#263238"/>
      <path id="Path_8325" data-name="Path 8325" d="M113.709,164.167a14.27,14.27,0,0,0-1.755-1.12,8.216,8.216,0,0,0-1.979-.814,1.785,1.785,0,0,0-.65-.037,1.528,1.528,0,0,0-.209.06l-.142.075-.246.142a8.752,8.752,0,0,0-.874.635c-.553.441-1.053.919-1.561,1.4l.545-.1a16.665,16.665,0,0,0-2.024-.747,8.3,8.3,0,0,0-1.091-.261,3.69,3.69,0,0,0-.59-.052,1.581,1.581,0,0,0-.321,0,1.974,1.974,0,0,0-.344.1,3.659,3.659,0,0,0-.956.657c-.276.247-.523.508-.747.747a13.712,13.712,0,0,0-1.285,1.718c.538-.471,1.068-.941,1.613-1.374.269-.217.545-.433.829-.62a3.5,3.5,0,0,1,.829-.448,1.837,1.837,0,0,1,.837.052,7.467,7.467,0,0,1,.956.3c.642.224,1.292.5,1.9.747l.314.142.232-.239c.463-.478.964-.941,1.457-1.389a9.591,9.591,0,0,1,.747-.627l.187-.127.082-.052h0a1.181,1.181,0,0,1,.373,0,10.023,10.023,0,0,1,1.9.508C112.417,163.682,113.059,163.928,113.709,164.167Z" transform="translate(-99.48 -109.607)" fill="#263238"/>
      <path id="Path_8326" data-name="Path 8326" d="M134.085,158.935a23.417,23.417,0,0,0-1.935-2.45,12,12,0,0,0-2.4-2.121,2.816,2.816,0,0,0-.9-.366,1.5,1.5,0,0,0-.329,0h-.232a2.529,2.529,0,0,0-.426.082,15.577,15.577,0,0,0-1.546.471c-1,.359-1.942.784-2.891,1.225l.807.134a23.154,23.154,0,0,0-2.48-2.114,14.05,14.05,0,0,0-1.4-.9,5.827,5.827,0,0,0-.814-.366,2.885,2.885,0,0,0-.471-.127,4.057,4.057,0,0,0-.53,0,5.663,5.663,0,0,0-1.681.463,15.476,15.476,0,0,0-1.494.747,20.714,20.714,0,0,0-2.659,1.793c.993-.388,1.964-.8,2.988-1.143a15.342,15.342,0,0,1,1.494-.478,5.61,5.61,0,0,1,1.4-.232,2.906,2.906,0,0,1,1.158.493,11.948,11.948,0,0,1,1.21.889c.792.635,1.569,1.337,2.308,2.039l.366.359.441-.224c.9-.448,1.83-.866,2.749-1.255a14.194,14.194,0,0,1,1.374-.515l.329-.09h.149a.1.1,0,0,1,.052,0,1.442,1.442,0,0,1,.53.164,14.5,14.5,0,0,1,2.457,1.658C132.494,157.613,133.278,158.278,134.085,158.935Z" transform="translate(-102.826 -107.131)" fill="#263238"/>
      <path id="Path_8327" data-name="Path 8327" d="M393.3,111.845a23.428,23.428,0,0,0-1.935-2.45,11.8,11.8,0,0,0-2.4-2.121,2.817,2.817,0,0,0-.9-.366,1.493,1.493,0,0,0-.329,0h-.232a2.527,2.527,0,0,0-.426.082,15.571,15.571,0,0,0-1.546.471,25.793,25.793,0,0,0-2.891,1.225l.807.134a23.149,23.149,0,0,0-2.48-2.114,14.044,14.044,0,0,0-1.4-.9,5.826,5.826,0,0,0-.814-.366,2.882,2.882,0,0,0-.471-.127,4.054,4.054,0,0,0-.53,0,5.662,5.662,0,0,0-1.681.463,15.484,15.484,0,0,0-1.494.747,22.086,22.086,0,0,0-2.659,1.793c.993-.388,1.972-.8,2.988-1.143a15.338,15.338,0,0,1,1.494-.478,5.609,5.609,0,0,1,1.4-.232,2.905,2.905,0,0,1,1.158.493,11.953,11.953,0,0,1,1.21.889c.792.635,1.569,1.337,2.308,2.039l.366.359.441-.224c.9-.448,1.837-.866,2.756-1.255a13.357,13.357,0,0,1,1.367-.515l.329-.09h.2a1.494,1.494,0,0,1,.538.164,15.221,15.221,0,0,1,2.45,1.658C391.714,110.523,392.5,111.188,393.3,111.845Z" transform="translate(-168.427 -95.214)" fill="#263238"/>
    </g>
    <g id="freepik--Shadow--inject-299" transform="translate(116.91 346.973)">
      <ellipse id="Ellipse_485" data-name="Ellipse 485" cx="103.644" cy="8.209" rx="103.644" ry="8.209" fill="#ebebeb"/>
    </g>
    <g id="freepik--Character--inject-299" transform="translate(95.364 71.76)">
      <path id="Path_8328" data-name="Path 8328" d="M284.3,171.947c-.418.583-37.608,4.011-39.408,3.585a1.165,1.165,0,0,1-.254-.09c-2.241-.926-12.84-9.777-13.646-10.524-1.972-1.845,5.176-15.783,7.551-18.143a11.5,11.5,0,0,1,4.609-2.3s7.469-25.321,12.533-30.788c1.27-1.367,24.357-2.988,28.577-1.285,1.808.747,6.319,4.915,6.468,5.7h0C290.9,119.251,284.691,171.357,284.3,171.947Z" transform="translate(-144.891 -81.86)" fill="#455a64"/>
      <path id="Path_8329" data-name="Path 8329" d="M289.042,174.124c-.418.583-37.608,4.011-39.408,3.585a1.165,1.165,0,0,1-.254-.09c3.115-9.822,17.769-55.93,18.232-56.244s22.557-1.225,27.86-1.091C295.637,121.428,289.43,173.534,289.042,174.124Z" transform="translate(-149.63 -84.037)" fill="#37474f"/>
      <path id="Path_8330" data-name="Path 8330" d="M301.369,107.836c-.411,3.324-1.77,5.931-3.152,6.095h0l-31.177.418,1.546-12.825,30.437-.4a1.038,1.038,0,0,1,.478-.045.634.634,0,0,1,.164,0h.1C301.033,101.659,301.742,104.52,301.369,107.836Z" transform="translate(-154.099 -79.177)" fill="#9676ff"/>
      <path id="Path_8331" data-name="Path 8331" d="M301.369,107.836c-.411,3.324-1.77,5.931-3.152,6.095h0l-31.177.418,1.546-12.825,30.437-.4a1.038,1.038,0,0,1,.478-.045.634.634,0,0,1,.164,0h.1C301.033,101.659,301.742,104.52,301.369,107.836Z" transform="translate(-154.099 -79.177)" opacity="0.1"/>
      <path id="Path_8332" data-name="Path 8332" d="M269.752,108.45c-.426,3.54-1.957,6.267-3.413,6.095s-2.3-3.2-1.867-6.722,1.957-6.267,3.413-6.095S270.185,104.917,269.752,108.45Z" transform="translate(-153.42 -79.342)" fill="#9676ff"/>
      <path id="Path_8333" data-name="Path 8333" d="M238.793,418.718c-1.8-.62-42.627-32.066-43.419-34.247-.314-.822,3.921-7.044,9.254-14.4.052-.082.112-.157.164-.232,1.1-1.494,20.742-26.889,20.742-26.889l26.852,21.228L231.361,389.8l-.351.441s10.24,19.024,10.86,21.519S240.586,419.338,238.793,418.718Z" transform="translate(-135.958 -140.391)" fill="#ffc4c0"/>
      <path id="Path_8334" data-name="Path 8334" d="M195.385,392.33c.784,2.188,41.611,33.612,43.411,34.247s3.69-4.482,3.077-6.931-10.86-21.527-10.86-21.527l.351-.433,2.569-2.771L207.59,374c-.881,1.023-2.659,3.466-2.823,3.69-.06.075-.112.157-.172.224C199.3,385.294,195.094,391.508,195.385,392.33Z" transform="translate(-135.962 -148.248)" fill="#ebebeb"/>
      <path id="Path_8335" data-name="Path 8335" d="M238.765,427.973c-1.808-.635-42.8-32.551-43.591-34.755-.306-.837,3.989-7.073,9.4-14.468l26.486,20.5S241.3,418.487,241.91,421,240.6,428.615,238.765,427.973Z" transform="translate(-135.908 -149.451)" fill="#9676ff"/>
      <path id="Path_8336" data-name="Path 8336" d="M240.367,430.963c-6.722-5.52-34.448-27.143-41.529-32.118-.06-.037-.09,0-.037.045,6.566,5.617,34.448,27.009,41.484,32.155C240.427,431.179,240.509,431.075,240.367,430.963Z" transform="translate(-136.823 -154.532)" fill="#263238"/>
      <path id="Path_8337" data-name="Path 8337" d="M252.427,430.06a7.021,7.021,0,0,0-5.415-1.494,6.789,6.789,0,0,0-4.392,2.48c0,.037.045.1.082.06a8.082,8.082,0,0,1,9.658-.926C252.42,430.187,252.487,430.1,252.427,430.06Z" transform="translate(-147.919 -162.039)" fill="#263238"/>
      <path id="Path_8338" data-name="Path 8338" d="M242.63,408.858c-2.726-2.181-6.67-3.69-10.128-2.771-.134,0-.082.224,0,.246a48.057,48.057,0,0,1,9.882,2.9.224.224,0,1,0,.247-.373Z" transform="translate(-145.338 -156.299)" fill="#263238"/>
      <path id="Path_8339" data-name="Path 8339" d="M244.61,412.178c-2.726-2.181-6.67-3.69-10.128-2.771-.134,0-.082.224,0,.246a48.054,48.054,0,0,1,9.882,2.9.224.224,0,0,0,.246-.374Z" transform="translate(-145.839 -157.14)" fill="#263238"/>
      <path id="Path_8340" data-name="Path 8340" d="M246.59,415.5c-2.726-2.181-6.67-3.69-10.128-2.771-.134.037-.082.224,0,.246a48.055,48.055,0,0,1,9.912,2.876.217.217,0,0,0,.217-.351Z" transform="translate(-146.34 -157.98)" fill="#263238"/>
      <path id="Path_8341" data-name="Path 8341" d="M248.54,418.818c-2.726-2.181-6.67-3.69-10.128-2.771-.134.037-.082.224,0,.247a48.553,48.553,0,0,1,9.882,2.9.224.224,0,0,0,.246-.373Z" transform="translate(-146.833 -158.82)" fill="#263238"/>
      <path id="Path_8342" data-name="Path 8342" d="M206.343,391.779c-3.092-2.4-6.819,2.405-3.735,4.8S209.443,394.161,206.343,391.779Z" transform="translate(-137.501 -152.583)" fill="#fff"/>
      <path id="Path_8343" data-name="Path 8343" d="M253.337,402.421c-.493-2.241-3.13-2.472-4.922-1.942a18.225,18.225,0,0,0-7.97,5.087.09.09,0,0,0,0,.142.418.418,0,0,0,.321.6c2.988.172,6.214.747,9.187,0C251.716,405.835,253.8,404.542,253.337,402.421Zm-7.925,3.219c-1.494-.052-2.988-.172-4.482-.164a55.162,55.162,0,0,1,4.721-2.868,19.758,19.758,0,0,1,2.45-1.068c1.307-.448,5.8-.642,3.735,2.562C250.745,405.872,247.174,405.693,245.412,405.64Z" transform="translate(-147.357 -154.889)" fill="#263238"/>
      <path id="Path_8344" data-name="Path 8344" d="M229.711,399.632c2.114,2.241,5.116,3.473,7.753,4.937a.418.418,0,0,0,.59-.336c.06,0,.112,0,.1-.112a18.232,18.232,0,0,0-4.026-8.56c-1.225-1.412-3.578-2.614-5.191-.986S228.486,398.325,229.711,399.632Zm-.441-2.861c0-3.809,3.667-1.24,4.534-.164a20.123,20.123,0,0,1,1.494,2.241,54.54,54.54,0,0,1,2.457,4.952c-1.247-.8-2.554-1.494-3.839-2.241C232.393,400.67,229.285,398.87,229.27,396.771Z" transform="translate(-144.257 -153.257)" fill="#263238"/>
      <path id="Path_8345" data-name="Path 8345" d="M218.76,318.4l26.255,21.855s42.052-49.6,43.591-57.065c1.755-8.47,6.625-74.827,6.513-78.136-.134-4.011-4.549-21.661-4.549-21.661H259.064s-4.407,86.778-5.326,89.467C252.753,275.763,218.76,318.4,218.76,318.4Z" transform="translate(-141.881 -100.01)" fill="#37474f"/>
      <path id="Path_8346" data-name="Path 8346" d="M215.04,367.341l3.69-6.961L246.015,384.3l-5.363,4.706Z" transform="translate(-140.939 -144.802)" fill="#455a64"/>
      <path id="Path_8347" data-name="Path 8347" d="M249.793,378.65c-4.056-3.921-19.9-16.5-21.87-17.53-.045,0-.1.052-.067.09,1.427,1.7,14.939,12.765,21.833,17.568C249.763,378.83,249.861,378.71,249.793,378.65Z" transform="translate(-144.18 -144.989)" fill="#263238"/>
      <path id="Path_8348" data-name="Path 8348" d="M314.089,197.639a9.866,9.866,0,0,0-1.277-.3,7.245,7.245,0,0,1-1.33-.508,10.04,10.04,0,0,1-2.427-1.718,9.136,9.136,0,0,1-1.867-2.988c-.276-.635-1.561-4.011-1.576-4.041s-.127,0-.112.052c.09.471.971,3.391,1.232,4.116a9.516,9.516,0,0,0,1.942,3.488,7.8,7.8,0,0,0,2.689,1.808,5.424,5.424,0,0,0,1.449.388,2.308,2.308,0,0,0,1.315-.075C314.179,197.811,314.134,197.662,314.089,197.639Z" transform="translate(-163.832 -101.196)" fill="#263238"/>
      <path id="Path_8349" data-name="Path 8349" d="M267.682,185.47l-.665,17.426-.747,17.426L264.6,255.166c-.314,5.8-.627,11.607-.993,17.411,0,.747-.1,1.494-.172,2.241a1.01,1.01,0,0,1-.067.336,2.406,2.406,0,0,1-.142.276c-.09.172-.194.329-.291.485-.2.314-.411.613-.62.911-.844,1.2-1.718,2.36-2.6,3.518-1.763,2.315-3.57,4.594-5.378,6.872q-5.438,6.827-10.95,13.579L232.27,314.24l10.838-13.669c3.608-4.556,7.223-9.113,10.786-13.7q2.681-3.436,5.311-6.917c.874-1.158,1.74-2.323,2.569-3.5.2-.3.411-.6.6-.9s.426-.6.4-.852c.06-.7.119-1.4.157-2.136.344-5.8.627-11.607.926-17.411l1.823-34.867.956-17.411Z" transform="translate(-145.3 -100.537)" fill="#263238"/>
      <path id="Path_8350" data-name="Path 8350" d="M301.253,278.561c-.232,2.136-.441,3.735-.627,4.624-.866,4.183-14.513,21.661-26.307,36.2l-8.089-50.873c1.442-18.053,4.848-85.1,4.848-85.1h15.686Z" transform="translate(-153.894 -100.015)" fill="#263238"/>
      <path id="Path_8351" data-name="Path 8351" d="M350.917,427.378c-1.658.919-52.36,10.128-54.526,9.247-.822-.314-2.6-7.626-4.482-16.522l-.052-.276c-.4-1.83-4.937-32.962-4.937-32.962l30.37-5.594,7.208,32.252.09.553s20.981,5.154,23.252,6.371S352.582,426.429,350.917,427.378Z" transform="translate(-159.13 -150.088)" fill="#ffc4c0"/>
      <path id="Path_8352" data-name="Path 8352" d="M292.55,426c.246,1.2.493,2.375.747,3.525l.052.284c1.89,8.888,3.667,16.2,4.482,16.515,2.151.881,52.853-8.328,54.526-9.247s-.829-5.721-3.077-6.932-23.252-6.364-23.252-6.364l-.09-.56-.545-3.473Z" transform="translate(-160.555 -159.826)" fill="#ebebeb"/>
      <path id="Path_8353" data-name="Path 8353" d="M353.048,438.427c-1.681.919-52.83,10.031-55,9.15-.829-.329-2.584-7.7-4.482-16.671l32.962-5.975s21.146,5.273,23.416,6.5S354.729,437.508,353.048,438.427Z" transform="translate(-160.813 -161.137)" fill="#9676ff"/>
      <path id="Path_8354" data-name="Path 8354" d="M354.219,440.428c-8.612,1.315-43.217,7.469-51.635,9.4-.067,0-.06.06,0,.052,8.56-1.12,43.12-7.529,51.643-9.314C354.421,440.533,354.421,440.4,354.219,440.428Z" transform="translate(-163.082 -165.059)" fill="#263238"/>
      <path id="Path_8355" data-name="Path 8355" d="M362.217,431.94a7.014,7.014,0,0,0-4.758,2.988,6.827,6.827,0,0,0-1.1,4.922c0,.045.1,0,.1,0a8.074,8.074,0,0,1,5.774-7.8.06.06,0,0,0-.022-.112Z" transform="translate(-176.682 -162.911)" fill="#263238"/>
      <path id="Path_8356" data-name="Path 8356" d="M339.381,425.268c-3.443.568-7.208,2.487-8.836,5.669-.067.127.112.217.2.142a48.205,48.205,0,0,1,8.769-5.4.217.217,0,0,0-.134-.411Z" transform="translate(-170.167 -161.221)" fill="#263238"/>
      <path id="Path_8357" data-name="Path 8357" d="M343.172,426c-3.443.568-7.2,2.487-8.836,5.677-.06.12.112.209.209.134a48.148,48.148,0,0,1,8.761-5.4.217.217,0,0,0-.134-.411Z" transform="translate(-171.127 -161.406)" fill="#263238"/>
      <path id="Path_8358" data-name="Path 8358" d="M347,426.769c-3.436.568-7.2,2.487-8.836,5.677-.06.12.112.209.209.142a47.326,47.326,0,0,1,8.761-5.4.224.224,0,0,0-.134-.418Z" transform="translate(-172.096 -161.602)" fill="#263238"/>
      <path id="Path_8359" data-name="Path 8359" d="M350.761,427.519c-3.443.568-7.208,2.487-8.836,5.677-.067.12.112.209.2.142a47.8,47.8,0,0,1,8.769-5.4.224.224,0,0,0-.134-.418Z" transform="translate(-173.047 -161.792)" fill="#263238"/>
      <path id="Path_8360" data-name="Path 8360" d="M302.775,441.571c-3.854.7-2.771,6.678,1.083,5.975S306.629,440.876,302.775,441.571Z" transform="translate(-162.534 -165.335)" fill="#fff"/>
      <path id="Path_8361" data-name="Path 8361" d="M343,412.009c-1.994-1.135-3.936.665-4.736,2.353a18.329,18.329,0,0,0-1.561,9.329.1.1,0,0,0,.127.082.426.426,0,0,0,.665.164c2.144-2.121,4.7-4.13,6.125-6.849C344.448,415.5,344.881,413.078,343,412.009Zm-2.913,8.044c-1.031,1.068-2.106,2.084-3.092,3.189a54.323,54.323,0,0,1,1.031-5.43,20.086,20.086,0,0,1,.837-2.532c.545-1.27,3.406-4.736,4.407-1.068C343.828,416.237,341.31,418.777,340.085,420.054Z" transform="translate(-171.707 -157.778)" fill="#263238"/>
      <path id="Path_8362" data-name="Path 8362" d="M324.176,429.473c3.07-.075,5.975-1.494,8.859-2.45a.426.426,0,0,0,.142-.672.1.1,0,0,0,0-.149,18.292,18.292,0,0,0-9.053-2.741c-1.867,0-4.34.919-4.205,3.2C320.023,428.83,322.383,429.518,324.176,429.473Zm-2.42-1.583c-2.846-2.532,1.531-3.555,2.906-3.481a19.683,19.683,0,0,1,2.652.366,54.466,54.466,0,0,1,5.318,1.494c-1.427.4-2.816.911-4.228,1.359C326.7,428.151,323.324,429.286,321.756,427.889Z" transform="translate(-167.48 -160.765)" fill="#263238"/>
      <path id="Path_8363" data-name="Path 8363" d="M292.387,183.41s-.829,13.445-4.541,23.065c0,0-5.363,3.339-5.923,3.869L313.831,354.15l-32.723,6.364s-12.855-69.659-13.953-74.431c-1.755-7.663-15.685-72.848-16.268-76.553-1.285-7.746,5.863-26.09,5.863-26.09Z" transform="translate(-149.972 -100.015)" fill="#37474f"/>
      <path id="Path_8364" data-name="Path 8364" d="M321.137,402.34c-9,1.352-26.2,5-28.323,5.878-.045,0,0,.112,0,.112,2.293-.037,23.259-4.2,28.338-5.826a.082.082,0,1,0-.015-.164Z" transform="translate(-160.616 -155.42)" fill="#263238"/>
      <path id="Path_8365" data-name="Path 8365" d="M264.149,197.865c.657-.149,1.359-.1,2.024-.187a15.462,15.462,0,0,0,5.8-1.912,7.91,7.91,0,0,0,2.7-2.868c.381-.612,2.121-3.929,2.144-3.951s.2,0,.187.067c-.1.463-1.24,3.339-1.584,4.056a7.79,7.79,0,0,1-2.793,3.354,13.139,13.139,0,0,1-6.4,1.845,5.923,5.923,0,0,1-2.114-.194C264.014,198.03,264.059,197.88,264.149,197.865Z" transform="translate(-153.344 -101.415)" fill="#263238"/>
      <path id="Path_8366" data-name="Path 8366" d="M298.517,213.805a53.736,53.736,0,0,0-8.627,3.921.1.1,0,0,0,.075.179c2.906-1.217,5.871-2.383,8.7-3.735a.2.2,0,0,0-.149-.366Z" transform="translate(-159.866 -107.704)" fill="#263238"/>
      <path id="Path_8367" data-name="Path 8367" d="M300.882,187.2c0-.1-.179-.127-.179,0a95.77,95.77,0,0,1-.575,9.665c-.149,1.494-1.419,9.71-4,9.09-.433-.1-.65-.53-.71-1.188a10.406,10.406,0,0,1,.366-2.517c.3-1.725.545-3.451.71-5.229a47.232,47.232,0,0,0,0-9.71.082.082,0,1,0-.164,0,89,89,0,0,1-.911,13.445c-.344,2.144-1.449,5.355.784,5.707s3.809-5.034,4.1-6.506a49.3,49.3,0,0,0,.583-12.758Z" transform="translate(-161.133 -100.953)" fill="#263238"/>
      <path id="Path_8368" data-name="Path 8368" d="M296.362,212.561a13.934,13.934,0,0,0-.6,1.7,3.958,3.958,0,0,0-.254,1.4c0,.09.127.1.179.037a4.863,4.863,0,0,0,.612-1.359c.2-.53.418-1.053.605-1.583a.291.291,0,0,0-.545-.2Z" transform="translate(-161.304 -107.349)" fill="#263238"/>
      <path id="Path_8369" data-name="Path 8369" d="M260.692,183.41c-.889,3.413-1.733,6.842-2.5,10.285s-1.494,6.9-1.927,10.4l-.12,1.307c-.037.433,0,.866-.045,1.3l.388,2.592.986,5.229,2.106,10.375,8.649,41.454,8.664,41.454,4.295,20.735,4.243,20.75-4.6-20.675-4.482-20.69L267.5,266.468c-2.861-13.826-5.751-27.636-8.485-41.492l-2-10.4-.941-5.228-.366-2.644a22.415,22.415,0,0,1,.217-2.689c.493-3.511,1.285-6.954,2.106-10.39S259.743,186.838,260.692,183.41Z" transform="translate(-151.232 -100.015)" fill="#263238"/>
      <path id="Path_8370" data-name="Path 8370" d="M290.922,419.537l-3.242-7.185,35.628-6.9.433,7.126Z" transform="translate(-159.322 -156.208)" fill="#455a64"/>
      <path id="Path_8371" data-name="Path 8371" d="M311.3,105.574c1.307,3.331,3.167,6.364,4.205,9.815a22.511,22.511,0,0,1,.874,9.837c-1.852,12.085-17.59,19.338-28.645,15.581-5.281-1.793-9.882-6.08-11.286-11.585-1.718-6.722,1.882-13.221,4.063-19.375a31.482,31.482,0,0,0,1.77-10.733,48.079,48.079,0,0,1,.456-9.613,14.335,14.335,0,0,1,10.3-11.421c5.975-1.875,11.988,1.382,14.767,7.036C311.03,91.7,308.722,98.964,311.3,105.574Z" transform="translate(-156.366 -73.225)" fill="#263238"/>
      <path id="Path_8372" data-name="Path 8372" d="M282.84,116.361c-2.577,5.512-5.975,11.144-6.946,17.224-.822,5.049.538,10.5,4.93,13.5.037,0,.082,0,.045-.06-4.616-3.57-5.184-9.71-3.892-15.058,1.322-5.438,4.482-10.173,6.125-15.5C283.146,116.3,282.914,116.189,282.84,116.361Z" transform="translate(-156.282 -83.026)" fill="#263238"/>
      <path id="Path_8373" data-name="Path 8373" d="M280.9,115.983c-1.949,7.23-7.9,12.929-8.283,20.623a.071.071,0,1,0,.142,0c.5-7.686,7.118-13.138,8.283-20.623a.075.075,0,0,0-.142,0Z" transform="translate(-155.511 -82.938)" fill="#263238"/>
      <path id="Path_8374" data-name="Path 8374" d="M322.96,111.99a25.08,25.08,0,0,1-2.241-8.5.136.136,0,0,0-.269,0c-.695,10.621,11.458,18.576,8.216,29.556,0,.075.09.127.12.045,1.554-4.526.344-9.053-1.688-13.228C325.783,117.189,324.215,114.672,322.96,111.99Z" transform="translate(-167.608 -79.76)" fill="#263238"/>
      <path id="Path_8375" data-name="Path 8375" d="M320.426,101.378c0-.2-.321-.142-.306.052a23.738,23.738,0,0,0,3.735,11.159c1.053,1.651,2.353,3.13,3.376,4.81,1.12,1.83,1.987,3.8,2.928,5.729,0,.052.09,0,.075,0a37.449,37.449,0,0,0-5.34-9.71,26.2,26.2,0,0,1-4.467-12.04Z" transform="translate(-167.532 -79.224)" fill="#263238"/>
      <path id="Path_8376" data-name="Path 8376" d="M302.746,135.44c2.816,8.963,12.944,37.847,21.9,40.521,5.878,1.755,29.563,4.145,35.3,0,2.241-1.628.844-21.459-2.428-21.019s-22.834,1.494-25.157.627-18.561-22.759-24.82-28.383C296.741,117.521,301.222,130.652,302.746,135.44Z" transform="translate(-162.572 -84.91)" fill="#ffc4c0"/>
      <path id="Path_8377" data-name="Path 8377" d="M321.539,140.993,307.96,155.446s-7.118-20.608-7.551-27.226c-.441-7.469,3.481-6.073,8.859-1.382S321.539,140.993,321.539,140.993Z" transform="translate(-162.535 -84.72)" fill="#9676ff"/>
      <path id="Path_8378" data-name="Path 8378" d="M321.191,144.487c-.545.433-4.818,4.907-5.721,5.893s-4.653,5.012-5.5,6.117c-.037.045,0,.112.067.067,1.038-.919,4.833-4.96,5.774-5.975s5.072-5.5,5.46-6.065C321.273,144.5,321.191,144.457,321.191,144.487Z" transform="translate(-164.958 -90.163)" fill="#263238"/>
      <path id="Path_8379" data-name="Path 8379" d="M319.637,143l-11.674,12.436s-7.118-20.608-7.544-27.226c-.276-4.683,1.15-5.893,3.57-4.989C307.567,127.7,314.543,136.469,319.637,143Z" transform="translate(-162.538 -84.714)" opacity="0.1"/>
      <rect id="Rectangle_3354" data-name="Rectangle 3354" width="49.566" height="92.246" transform="matrix(0.963, 0.268, -0.268, 0.963, 27.425, 168.589)" fill="#9676ff"/>
      <g id="Group_2464" data-name="Group 2464" transform="translate(4.651 179.142)" opacity="0.1">
        <rect id="Rectangle_3355" data-name="Rectangle 3355" width="49.566" height="0.56" transform="matrix(0.963, 0.268, -0.268, 0.963, 19.839, 0)" fill="#020100"/>
        <rect id="Rectangle_3356" data-name="Rectangle 3356" width="49.566" height="0.56" transform="matrix(0.963, 0.268, -0.268, 0.963, 17.171, 9.601)" fill="#020100"/>
        <rect id="Rectangle_3357" data-name="Rectangle 3357" width="49.43" height="0.559" transform="translate(13.552 18.545) rotate(15.709)" fill="#020100"/>
        <rect id="Rectangle_3358" data-name="Rectangle 3358" width="49.43" height="0.559" transform="translate(10.873 28.097) rotate(15.709)" fill="#020100"/>
        <rect id="Rectangle_3359" data-name="Rectangle 3359" width="49.566" height="0.56" transform="matrix(0.963, 0.268, -0.268, 0.963, 9.167, 38.412)" fill="#020100"/>
        <rect id="Rectangle_3360" data-name="Rectangle 3360" width="49.566" height="0.56" transform="matrix(0.963, 0.268, -0.268, 0.963, 6.498, 48.013)" fill="#020100"/>
        <rect id="Rectangle_3361" data-name="Rectangle 3361" width="49.566" height="0.56" transform="matrix(0.963, 0.268, -0.268, 0.963, 3.83, 57.622)" fill="#020100"/>
        <rect id="Rectangle_3362" data-name="Rectangle 3362" width="49.43" height="0.559" transform="translate(0.151 66.353) rotate(15.709)" fill="#020100"/>
      </g>
      <rect id="Rectangle_3363" data-name="Rectangle 3363" width="3.824" height="92.246" transform="translate(49.498 174.703) rotate(15.52)" fill="#263238"/>
      <rect id="Rectangle_3364" data-name="Rectangle 3364" width="4.131" height="27.868" transform="translate(49.201 208.023) rotate(15.52)" fill="#263238"/>
      <path id="Path_8380" data-name="Path 8380" d="M179.864,424.229l-11.473-3.189-6.431,5.378,16.059,4.459Z" transform="translate(-127.506 -160.153)" fill="#263238"/>
      <path id="Path_8381" data-name="Path 8381" d="M121.372,407.54l11.465,3.189,2.741,7.932L119.52,414.2Z" transform="translate(-116.766 -156.736)" fill="#263238"/>
      <path id="Path_8382" data-name="Path 8382" d="M169.61,438.977l4.243,1.18,5.034-7.2-9.165-2.547,1.509,4.721Z" transform="translate(-129.442 -162.524)" fill="#263238"/>
      <path id="Path_8383" data-name="Path 8383" d="M163.364,442.145a6.073,6.073,0,1,0,7.469-4.22A6.073,6.073,0,0,0,163.364,442.145Z" transform="translate(-127.804 -164.37)" fill="#37474f"/>
      <path id="Path_8384" data-name="Path 8384" d="M166.959,443.817a3.316,3.316,0,1,0,4.086-2.308,3.316,3.316,0,0,0-4.086,2.308Z" transform="translate(-128.74 -165.303)" fill="#dbdbdb"/>
      <path id="Path_8385" data-name="Path 8385" d="M171.854,442.939c-.127.463-.172.852-.1.866s.224-.336.351-.8.179-.844.112-.867S171.981,442.483,171.854,442.939Z" transform="translate(-129.976 -165.492)" fill="#263238"/>
      <path id="Path_8386" data-name="Path 8386" d="M173.333,444.319c-.418.232-.747.471-.695.53s.4-.075.822-.314.747-.471.687-.53S173.744,444.08,173.333,444.319Z" transform="translate(-130.207 -165.961)" fill="#263238"/>
      <path id="Path_8387" data-name="Path 8387" d="M173.6,446.414c-.463-.127-.852-.172-.866-.1s.336.224.792.351.852.179.866.112S174.052,446.541,173.6,446.414Z" transform="translate(-130.232 -166.54)" fill="#263238"/>
      <path id="Path_8388" data-name="Path 8388" d="M172.482,447.893c-.232-.418-.471-.747-.538-.695s.082.4.314.822.478.747.538.687S172.729,448.3,172.482,447.893Z" transform="translate(-130.029 -166.771)" fill="#263238"/>
      <path id="Path_8389" data-name="Path 8389" d="M170.507,448.156c.127-.463.172-.851.1-.866s-.224.336-.359.792-.172.852-.1.866S170.373,448.612,170.507,448.156Z" transform="translate(-129.57 -166.796)" fill="#263238"/>
      <path id="Path_8390" data-name="Path 8390" d="M168.722,447.042c.418-.232.747-.471.687-.538s-.4.082-.814.314-.747.478-.687.538S168.281,447.281,168.722,447.042Z" transform="translate(-129.01 -166.593)" fill="#263238"/>
      <path id="Path_8391" data-name="Path 8391" d="M168.379,445.068c.463.127.852.172.866.1s-.336-.224-.8-.359-.844-.172-.866-.1S167.893,444.918,168.379,445.068Z" transform="translate(-128.928 -166.135)" fill="#263238"/>
      <path id="Path_8392" data-name="Path 8392" d="M169.759,443.252c.232.418.471.747.53.687s-.075-.4-.314-.814-.471-.747-.53-.687S169.52,442.856,169.759,443.252Z" transform="translate(-129.397 -165.566)" fill="#263238"/>
      <path id="Path_8393" data-name="Path 8393" d="M125.79,426.792l-4.243-1.18-.6-8.761,9.165,2.547-3.735,3.264Z" transform="translate(-117.128 -159.092)" fill="#263238"/>
      <path id="Path_8394" data-name="Path 8394" d="M127.759,432.253a6.073,6.073,0,1,1-4.22-7.469,6.073,6.073,0,0,1,4.22,7.469Z" transform="translate(-115.833 -161.043)" fill="#37474f"/>
      <path id="Path_8395" data-name="Path 8395" d="M126.044,432.454a3.316,3.316,0,1,1-.307-2.521A3.316,3.316,0,0,1,126.044,432.454Z" transform="translate(-116.769 -161.977)" fill="#dbdbdb"/>
      <path id="Path_8396" data-name="Path 8396" d="M124.648,429.826c-.127.463-.284.814-.359.8s0-.411.112-.866.284-.814.351-.8S124.813,429.371,124.648,429.826Z" transform="translate(-117.965 -162.157)" fill="#263238"/>
      <path id="Path_8397" data-name="Path 8397" d="M122.543,430.064c.232.418.373.784.314.814s-.306-.269-.538-.687-.373-.747-.314-.814S122.3,429.653,122.543,430.064Z" transform="translate(-117.391 -162.261)" fill="#263238"/>
      <path id="Path_8398" data-name="Path 8398" d="M121.106,431.834c.463.127.822.291.8.359s-.4,0-.866-.112-.814-.284-.8-.351S120.651,431.707,121.106,431.834Z" transform="translate(-116.948 -162.85)" fill="#263238"/>
      <path id="Path_8399" data-name="Path 8399" d="M121.344,433.82c.418-.232.747-.373.822-.306s-.276.3-.695.53-.747.381-.814.314S120.911,434.06,121.344,433.82Z" transform="translate(-117.051 -163.306)" fill="#263238"/>
      <path id="Path_8400" data-name="Path 8400" d="M123.115,434.989c.134-.463.291-.814.359-.8s0,.411-.1.866-.291.814-.359.8S123,435.445,123.115,434.989Z" transform="translate(-117.642 -163.481)" fill="#263238"/>
      <path id="Path_8401" data-name="Path 8401" d="M125.109,434.8c-.239-.418-.373-.784-.314-.814s.3.269.538.687.373.747.314.814S125.34,435.214,125.109,434.8Z" transform="translate(-118.097 -163.429)" fill="#263238"/>
      <path id="Path_8402" data-name="Path 8402" d="M126.269,433.369c-.456-.127-.814-.291-.8-.359s.411,0,.866.112.822.284.8.351S126.732,433.5,126.269,433.369Z" transform="translate(-118.271 -163.176)" fill="#263238"/>
      <path id="Path_8403" data-name="Path 8403" d="M126.081,431.255c-.418.239-.747.381-.814.314s.269-.3.687-.53.747-.381.814-.314S126.492,431.023,126.081,431.255Z" transform="translate(-118.218 -162.6)" fill="#263238"/>
      <rect id="Rectangle_3365" data-name="Rectangle 3365" width="8.276" height="4.153" transform="translate(55.428 172.027) rotate(15.52)" fill="#263238"/>
      <rect id="Rectangle_3366" data-name="Rectangle 3366" width="3.765" height="71.623" transform="matrix(0.963, 0.268, -0.268, 0.963, 88.724, 111.329)" fill="#c7c7c7"/>
      <rect id="Rectangle_3367" data-name="Rectangle 3367" width="5.355" height="9.023" transform="matrix(0.963, 0.268, -0.268, 0.963, 88.236, 110.106)" fill="#263238"/>
      <path id="Path_8404" data-name="Path 8404" d="M301.925,154.3,300.7,167.5H258.79s11.951-32.984,23.827-44.121c4.721-4.429,9.105-3.115,12.459.276.747.747,9.979,16,10.756,21.437C306.466,149.563,301.925,154.3,301.925,154.3Z" transform="translate(-152.011 -84.11)" fill="#9676ff"/>
      <path id="Path_8405" data-name="Path 8405" d="M304.477,162.38a33.792,33.792,0,0,0-6.282.747c-1.038.239-2.054.545-3.077.874-.508.164-1.023.306-1.531.448a5.543,5.543,0,0,1-1.621.246c-.052,0-.06.09,0,.09a8.8,8.8,0,0,0,1.531.1,9.245,9.245,0,0,0,1.494-.224c1.046-.232,2.091-.53,3.145-.747,2.114-.493,4.228-.993,6.356-1.292C304.574,162.589,304.574,162.372,304.477,162.38Z" transform="translate(-160.396 -94.693)" fill="#263238"/>
      <path id="Path_8406" data-name="Path 8406" d="M311.785,165.9a36.024,36.024,0,0,0-5.116-.747,22.945,22.945,0,0,0-2.584,0c-.411,0-.829.045-1.24.075s-.911.142-1.367.164c-.045,0-.052.1,0,.1.433,0,.859.082,1.285.1l1.285.075c.859.045,1.718.112,2.577.149,1.725.082,3.436.179,5.154.336C311.86,166.1,311.867,165.927,311.785,165.9Z" transform="translate(-162.805 -95.387)" fill="#263238"/>
      <g id="Group_2465" data-name="Group 2465" transform="translate(108.243 73.803)" opacity="0.1">
        <path id="Path_8407" data-name="Path 8407" d="M302.145,175.426l-.037.359c-1.1.1-2.241.149-3.316.149a48.074,48.074,0,0,1-7.395-.515c-1.053-.164-2.1-.366-3.137-.6l-1.15-.276c-.986-.232-1.972-.493-2.95-.747-.747-.2-1.494-.4-2.2-.583l-1.023-.261c-1.315-.329-2.637-.62-3.966-.844a28.632,28.632,0,0,0-3.652-.418,30.153,30.153,0,0,0-3.667.12c-2.323.209-4.638.62-6.946,1.031.075-.172.149-.351.217-.538a67.114,67.114,0,0,1,6.722-.949,26.959,26.959,0,0,1,3.735-.067,29,29,0,0,1,3.69.493c1.494.269,2.95.627,4.414,1.016l.978.269,1.8.515c1.076.314,2.166.605,3.257.859l1.21.269c.911.187,1.822.351,2.741.478a48.612,48.612,0,0,0,7.365.426A31.509,31.509,0,0,0,302.145,175.426Z" transform="translate(-261.243 -170.742)"/>
        <path id="Path_8408" data-name="Path 8408" d="M302.278,171.242v.209l-.784-.12a47.554,47.554,0,0,0-7.365-.433,37.512,37.512,0,0,0-7.3.844c-1.554.321-3.085.747-4.623,1.165l-.463.134c-.687.187-1.374.381-2.069.56a40.163,40.163,0,0,1-14.737,1.4,29.522,29.522,0,0,1-3.152-.53l.217-.538c.993.209,1.994.381,2.988.493a41.35,41.35,0,0,0,14.558-1.344l1.18-.306.508-.142c1.822-.478,3.652-.964,5.512-1.322a38.416,38.416,0,0,1,7.395-.747,48.176,48.176,0,0,1,7.4.523Z" transform="translate(-261.011 -170.569)"/>
        <path id="Path_8409" data-name="Path 8409" d="M301.838,174.01l-.052.583c-.314-.052-.627-.09-.941-.127a40.118,40.118,0,0,0-12.653.889,2.909,2.909,0,0,0-.426.1c-.493.1-.986.232-1.494.358-2.383.613-4.765,1.3-7.2,1.77a38.415,38.415,0,0,1-7.395.747,48.1,48.1,0,0,1-7.4-.523c-1.18-.179-2.36-.418-3.526-.687a1.013,1.013,0,0,1,.067-.172c1.158.261,2.323.478,3.5.642a47.522,47.522,0,0,0,7.357.433,37.52,37.52,0,0,0,7.312-.844c2.405-.5,4.758-1.232,7.156-1.86l.463-.12a2.912,2.912,0,0,1,.366-.09,39.422,39.422,0,0,1,13.93-1.2Z" transform="translate(-260.75 -171.372)"/>
      </g>
      <path id="Path_8410" data-name="Path 8410" d="M273.335,131.189c-3.652,5.228-19.047,27.136-19.495,28.279s-8.336,24.23-9.157,27.965c-.575,2.637-18.711-6.125-18.068-8.388,1.494-5.3,5.6-21.205,9.561-26.972,5.161-7.507,26.411-25.4,32.865-27.95S279.333,122.57,273.335,131.189Z" transform="translate(-143.864 -84.7)" fill="#ffc4c0"/>
      <path id="Path_8411" data-name="Path 8411" d="M235.878,217.427c1.135-.68,1.494-.09.665,2.106s-6.02,10.2-3.085,11.764,10.091-9.807,11.2-13.572a63.721,63.721,0,0,0,1.6-10.255C244.46,209.4,239.561,213.677,235.878,217.427Z" transform="translate(-145.375 -106.104)" fill="#ffc4c0"/>
      <path id="Path_8412" data-name="Path 8412" d="M225.526,191.57c-4.967,5.647-11.5,12.369-13.109,20.7a4.19,4.19,0,0,0,.329,2.734c-.747,3.735.747,5.228.747,5.228.329,3.69,2.1,5,2.1,5s-.874,4.377,1.681,5.348c2.868,1.091,3.533-5.228,6.043-8.545,5.744-7.469,16.007-16.567,17.874-18.561Z" transform="translate(-140.251 -102.081)" fill="#ffc4c0"/>
      <path id="Path_8413" data-name="Path 8413" d="M224.868,216.087a60.183,60.183,0,0,0-4.661,6.857,60.807,60.807,0,0,0-3.466,8.388.075.075,0,0,1-.142,0,32.185,32.185,0,0,1,8.164-15.342C224.861,215.915,224.951,215.99,224.868,216.087Z" transform="translate(-141.334 -108.253)" fill="#263238"/>
      <path id="Path_8414" data-name="Path 8414" d="M220.162,210.559c-1.494,2.241-4.056,6.274-6.2,14.438h-.052a28.861,28.861,0,0,1,6.14-14.505C220.154,210.35,220.259,210.4,220.162,210.559Z" transform="translate(-140.653 -106.848)" fill="#263238"/>
      <path id="Path_8415" data-name="Path 8415" d="M217.687,207.634a44.613,44.613,0,0,0-4.8,11.376h-.052c1.076-5.423,2.076-7.275,4.721-11.465C217.65,207.395,217.777,207.484,217.687,207.634Z" transform="translate(-140.382 -106.104)" fill="#263238"/>
      <path id="Path_8416" data-name="Path 8416" d="M258.14,182.119c.232-1.091.53-2.159.829-3.219s.642-2.114.986-3.167.747-2.091,1.143-3.122a9.111,9.111,0,0,1,.747-1.494c.336-.448.65-.9.993-1.337-.239.5-.508.986-.747,1.494a8.211,8.211,0,0,0-.56,1.494c-.329,1.053-.672,2.1-1.023,3.152s-.71,2.091-1.105,3.122S258.6,181.1,258.14,182.119Z" transform="translate(-151.847 -96.566)" fill="#263238"/>
      <path id="Path_8417" data-name="Path 8417" d="M269.914,149.025,250.89,138.971s19.5-13.4,26.352-15.685c7.7-2.614,7.35,1.9,3.989,8.866S269.914,149.025,269.914,149.025Z" transform="translate(-150.012 -84.61)" fill="#9676ff"/>
      <path id="Path_8418" data-name="Path 8418" d="M272.624,150.558c-.612-.448-6.513-3.63-7.813-4.287s-6.573-3.428-7.97-4a.054.054,0,1,0-.06.09c1.262.822,6.58,3.623,7.888,4.332s7.215,3.735,7.91,3.959C272.624,150.67,272.669,150.588,272.624,150.558Z" transform="translate(-151.497 -89.601)" fill="#263238"/>
      <path id="Path_8419" data-name="Path 8419" d="M273.06,152.241c.859.366,1.7.747,2.532,1.158H275.4l4.758-6.513c1.576-2.181,3.16-4.347,4.661-6.6a37.137,37.137,0,0,1-1.979,3.533c-.7,1.158-1.494,2.241-2.241,3.369s-1.584,2.181-2.4,3.257-1.673,2.114-2.54,3.152l-.09.1-.1-.06A26.157,26.157,0,0,1,273.06,152.241Z" transform="translate(-155.622 -89.103)" fill="#263238"/>
      <path id="Path_8420" data-name="Path 8420" d="M284.69,145.907a10.71,10.71,0,0,1,1.232-1.359,12.608,12.608,0,0,1,1.419-1.158,4.958,4.958,0,0,1-.53.747,7.692,7.692,0,0,1-.635.672,6.722,6.722,0,0,1-1.486,1.1Z" transform="translate(-158.566 -89.888)" fill="#263238"/>
      <path id="Path_8421" data-name="Path 8421" d="M294.175,118.825c.344.747,5.176,5.311,8.844,4.482,1.2-.276-.052-6.857-.052-6.857v-.508l.261-7.1-8.963-3.652-1.285-.463s.06,1.942.149,4.37v.344a3.44,3.44,0,0,0,0,.4,10.72,10.72,0,0,0,.037,1.1c.037.351,0,.553.045.844a8.587,8.587,0,0,1,.06.881,46.511,46.511,0,0,0,.9,6.162Z" transform="translate(-160.664 -80.104)" fill="#ffc4c0"/>
      <path id="Path_8422" data-name="Path 8422" d="M303.258,108.8l-.187,5.034c-3.735,1.494-8.321.583-9.591.284-.052-.493-.1-1-.142-1.494,0-.3-.037-.583-.052-.881s-.037-.568-.052-.844,0-.747-.037-1.1v-.739c-.1-2.428-.157-4.37-.157-4.37l1.285.463Z" transform="translate(-160.679 -80.094)" fill="#263238"/>
      <path id="Path_8423" data-name="Path 8423" d="M282.243,88.511c-6.073,10.883-.239,15.745,2.114,17.052,2.129,1.188,9.538,4.952,16.7-5.229s4.018-16.432-.747-19.42S288.308,77.629,282.243,88.511Z" transform="translate(-157.269 -73.625)" fill="#ffc4c0"/>
      <path id="Path_8424" data-name="Path 8424" d="M288.034,89.529a7.474,7.474,0,0,0,.822.254,1.359,1.359,0,0,0,.889.1.433.433,0,0,0,.261-.471,1.1,1.1,0,0,0-.822-.747,1.606,1.606,0,0,0-1.165,0,.478.478,0,0,0,.015.866Z" transform="translate(-159.34 -76.01)" fill="#263238"/>
      <path id="Path_8425" data-name="Path 8425" d="M297.271,94.718a7.852,7.852,0,0,1-.65-.568,1.389,1.389,0,0,1-.553-.7.448.448,0,0,1,.261-.471,1.12,1.12,0,0,1,1.076.3,1.606,1.606,0,0,1,.6.993.471.471,0,0,1-.74.448Z" transform="translate(-161.444 -77.121)" fill="#263238"/>
      <path id="Path_8426" data-name="Path 8426" d="M293.445,97.91s.037.067,0,.1c-.456.747-.852,1.613-.336,2.241h0C292.362,99.7,292.937,98.515,293.445,97.91Z" transform="translate(-160.606 -78.378)" fill="#263238"/>
      <path id="Path_8427" data-name="Path 8427" d="M294.6,97.377c1.225.605-.067,2.988-1.21,2.457S293.57,96.869,294.6,97.377Z" transform="translate(-160.656 -78.225)" fill="#263238"/>
      <path id="Path_8428" data-name="Path 8428" d="M295.6,97.9c.142.254.217.605.456.747a1.162,1.162,0,0,0,.956-.09c.037,0,.045,0,0,.052-.239.463-.672.844-1.21.642a1.016,1.016,0,0,1-.426-1.285C295.4,97.888,295.543,97.8,295.6,97.9Z" transform="translate(-161.248 -78.363)" fill="#263238"/>
      <path id="Path_8429" data-name="Path 8429" d="M287.373,94.56h-.09c-.373.747-.926,1.569-1.74,1.494,0,0-.045.037,0,.045C286.432,96.427,287.157,95.344,287.373,94.56Z" transform="translate(-158.777 -77.53)" fill="#263238"/>
      <path id="Path_8430" data-name="Path 8430" d="M287.055,92.951c-1.158-.747-2.532,1.636-1.457,2.315S288.041,93.586,287.055,92.951Z" transform="translate(-158.697 -77.087)" fill="#263238"/>
      <path id="Path_8431" data-name="Path 8431" d="M286.407,92.577c-.261,0-.583.142-.814,0a1.06,1.06,0,0,1-.336-.837H285.2c-.269.448-.4,1.008,0,1.344s.866.09,1.232-.3C286.482,92.733,286.482,92.569,286.407,92.577Z" transform="translate(-158.632 -76.816)" fill="#263238"/>
      <path id="Path_8432" data-name="Path 8432" d="M288.438,105.6a1.277,1.277,0,0,1-.859.134,2.188,2.188,0,0,1-.747-.583h-.052a1.143,1.143,0,0,0,.747.881.911.911,0,0,0,.926-.388C288.557,105.628,288.505,105.583,288.438,105.6Z" transform="translate(-159.094 -80.21)" fill="#263238"/>
      <path id="Path_8433" data-name="Path 8433" d="M286.4,97.456s-.747,1.023-1.061,1.546c0,.045.09.142.261.246h0a2.823,2.823,0,0,0,2.928.4c.06,0,0-.12-.037-.112a4.28,4.28,0,0,1-2.637-.6c.045-.164,1.374-1.71,1.3-1.763a5.519,5.519,0,0,0-1.337-.388c1.531-2.181,3.406-4.093,4.9-6.289a.082.082,0,0,0-.12-.112,43.7,43.7,0,0,0-5.565,6.551C284.847,97.225,286.139,97.426,286.4,97.456Z" transform="translate(-158.648 -76.467)" fill="#263238"/>
      <path id="Path_8434" data-name="Path 8434" d="M286.55,102.32a2.988,2.988,0,0,0,.6,1.4,1.345,1.345,0,0,0,.695.448c.6.149.874-.321,1.008-.747a3.523,3.523,0,0,0,.112-.747,3.854,3.854,0,0,1-2.42-.359Z" transform="translate(-159.036 -79.494)" fill="#263238"/>
      <path id="Path_8435" data-name="Path 8435" d="M287.36,104.043a1.344,1.344,0,0,0,.695.448c.6.149.874-.321,1.008-.747A1.4,1.4,0,0,0,287.36,104.043Z" transform="translate(-159.241 -79.813)" fill="#ff9cbd"/>
      <path id="Path_8436" data-name="Path 8436" d="M301.47,100.146c-2.293-1.307.53-6.64.53-6.64s-1.061-1.262-1.2-4.8a10.133,10.133,0,0,0,.807,4.676c.172.3-7.3-4.885-4.683-11.361a13.982,13.982,0,0,1-11.2,2.935c-.2-.045,3.555-5.154,5.423-5.789a13.265,13.265,0,0,1,3.354-.695,12.944,12.944,0,0,1,9.486,2.457c4.482,3.406,4.818,10.278,4.018,12.578C306.437,98.025,302.553,100.766,301.47,100.146Z" transform="translate(-158.824 -73.428)" fill="#263238"/>
      <path id="Path_8437" data-name="Path 8437" d="M304.705,94.394c-4.213-2.584-6.117-7.245-4.033-11.854.052-.112-.112-.2-.187-.1-3.07,4.145-.052,10.121,4.213,12.055C304.8,94.536,304.8,94.454,304.705,94.394Z" transform="translate(-162.246 -74.451)" fill="#263238"/>
      <path id="Path_8438" data-name="Path 8438" d="M297.89,83.052s0-.052-.037,0c-2.368,1.651-5.714,5.049-8.844,3.1-.082-.052-.172.067-.09.12C291.757,88.378,296.172,85.442,297.89,83.052Z" transform="translate(-159.628 -74.612)" fill="#263238"/>
      <path id="Path_8439" data-name="Path 8439" d="M304.724,106.854s4.071-2.435,5.288-.822-2.988,5.908-5.169,5.766a2.106,2.106,0,0,1-2.114-2.188Z" transform="translate(-163.131 -80.294)" fill="#ffc4c0"/>
      <path id="Path_8440" data-name="Path 8440" d="M309.121,107.787c.037,0,0,.06,0,.052a5.349,5.349,0,0,0-3.877,1.912,1.165,1.165,0,0,1,1.718.426s-.037.082-.067.052a1.3,1.3,0,0,0-1.494-.172,5.975,5.975,0,0,0-1.1.747c-.12.09-.3-.067-.194-.187h0C304.856,108.915,307.231,107.167,309.121,107.787Z" transform="translate(-163.472 -80.845)" fill="#263238"/>
      <path id="Path_8441" data-name="Path 8441" d="M280.389,122.123c-.59-.747,3.57-.747,4.586.06s4.9,10.95,2.9,23.834S260.4,168.948,259.43,166.991l1.867-5.565c.971-1,17.665-6.722,19.838-14.707C283.063,139.638,282.891,125.17,280.389,122.123Z" transform="translate(-152.173 -84.365)" fill="#263238"/>
      <path id="Path_8442" data-name="Path 8442" d="M351.7,186.785l2.024-24.522,5.2-21.564-15.1,1.307-10.98-3.369-11.8,2.368L307.2,136.39l1.755,23.678L304.79,183.3l10.4,3.69,12.787-2.584,10.323,4.5Z" transform="translate(-163.652 -88.116)" fill="#ebebeb"/>
      <path id="Path_8443" data-name="Path 8443" d="M346.162,189.676l5.52-46.907L340.7,139.4l-4.862,45.772Z" transform="translate(-171.51 -88.878)" fill="#dbdbdb"/>
      <path id="Path_8444" data-name="Path 8444" d="M315.195,186.994l5.848-45.988L307.2,136.39l1.755,23.678L304.79,183.3Z" transform="translate(-163.652 -88.116)" fill="#dbdbdb"/>
      <path id="Path_8445" data-name="Path 8445" d="M369.443,156.63c1.621,3.04,5.52,6.722,5.975,9.232a2.928,2.928,0,0,1-1.494,3.174s2.592,1.143,2.607,3.5c0,1.21-1.927,2.278-1.927,2.278a3.511,3.511,0,0,1,1.92,3.1c-.1,1.666-2.017,2.495-2.017,2.495s1.494,1.867.866,3.54c-1.3,3.376-15.618,4.071-18.083-1.1-1.15-2.405,2.353-2.383,2.353-2.383s-5.034-1.247-5.228-4.2,4.332-2.644,4.332-2.644-4.87-1.255-4.788-4.332c.09-3.2,4.594-2.121,4.594-2.121s-3.286-2.009-2.689-4.355c1-3.862,7.26.635,10.367-.261l1.494-5.273Z" transform="translate(-176.096 -93.238)" fill="#ffc4c0"/>
      <path id="Path_8446" data-name="Path 8446" d="M377.172,158.542c-1.285-2.988,2.323-6.976,1.494-10.024-1.105-4.131-5.609.187-6.356,6.3l.246,4.848Z" transform="translate(-180.74 -90.773)" fill="#ffc4c0"/>
      <path id="Path_8447" data-name="Path 8447" d="M376.023,188.558a.037.037,0,0,1,0,.075,24.873,24.873,0,0,1-14.8-.172c-.149-.052-.127-.321.052-.291A50.926,50.926,0,0,0,376.023,188.558Z" transform="translate(-177.91 -101.219)" fill="#263238"/>
      <path id="Path_8448" data-name="Path 8448" d="M376.164,180.542c.052,0,.067.082,0,.1a23.287,23.287,0,0,1-16.126-1.188c-.172-.082-.239-.336,0-.254C363.518,180.616,371.57,181.169,376.164,180.542Z" transform="translate(-177.595 -98.947)" fill="#263238"/>
      <path id="Path_8449" data-name="Path 8449" d="M359.6,170.337c4.967,2.2,10.143,2.6,15.514,2.241.075,0,.075.1,0,.119-2.577.889-6.028.747-8.709.441a14.386,14.386,0,0,1-6.9-2.622C359.442,170.449,359.494,170.284,359.6,170.337Z" transform="translate(-177.492 -96.704)" fill="#263238"/>
      <path id="Path_8450" data-name="Path 8450" d="M315.559,88.618l1-8.112s-4.907-4.892-6.177-5.759a63.429,63.429,0,0,0-6.909-2.988l-5.744,4.482Z" transform="translate(-161.866 -71.76)" fill="#9676ff"/>
      <path id="Path_8451" data-name="Path 8451" d="M288.8,78.507s12.758,5.161,25.209,18.2l-.71-6.58s-8.022-9.479-17.829-12.4Z" transform="translate(-159.606 -73.271)" fill="#9676ff"/>
      <path id="Path_8452" data-name="Path 8452" d="M288.8,78.507s12.758,5.161,25.209,18.2l-.71-6.58s-8.022-9.479-17.829-12.4Z" transform="translate(-159.606 -73.271)" opacity="0.1"/>
    </g>
  </g>
</svg>
