<?xml version="1.0" encoding="UTF-8"?><svg xmlns="http://www.w3.org/2000/svg" xmlns:xlink="http://www.w3.org/1999/xlink" version="1.1" id="Layer_1" x="0px" y="0px" viewBox="0 0 16 16" xml:space="preserve"><g fill-rule="evenodd" clip-rule="evenodd" fill="none" stroke="#000" stroke-linecap="round" stroke-linejoin="round" stroke-miterlimit="10"><path d="M14.862 4.463c-.407-.702-.848-.831-1.747-.88-.898-.059-3.157-.083-5.113-.083-1.96 0-4.22.024-5.117.083-.897.05-1.339.178-1.75.88C.716 5.165.5 6.372.5 8.498v.008c0 2.117.216 3.333.635 4.026.41.701.852.829 1.75.888.897.05 3.156.08 5.117.08 1.956 0 4.215-.03 5.114-.08.899-.059 1.34-.187 1.747-.888.424-.694.638-1.91.638-4.026v-.005-.003c-.001-2.126-.214-3.333-.639-4.035z"/><path d="M6.5 11V6l4 2.5z"/></g><metadata><rdf:RDF xmlns:rdf="http://www.w3.org/1999/02/22-rdf-syntax-ns#" xmlns:rdfs="http://www.w3.org/2000/01/rdf-schema#" xmlns:dc="http://purl.org/dc/elements/1.1/"><rdf:Description about="https://iconscout.com/legal#licenses" dc:title="youtube,social,line,e" dc:description="youtube,social,line,e" dc:publisher="Iconscout" dc:date="2018-02-23" dc:format="image/svg+xml" dc:language="en"><dc:creator><rdf:Bag><rdf:li>Pixel Icons</rdf:li></rdf:Bag></dc:creator></rdf:Description></rdf:RDF></metadata></svg>